<svg width="480" height="240" viewBox="0 0 480 240" fill="none" xmlns="http://www.w3.org/2000/svg">
<path d="M71.8389 189.518C55.253 189.518 48.7005 180.007 51.4648 164.167L58.8363 122.326H43.8203L46.687 106.007H61.703L66.242 80.1779H86.0017L81.4628 106.007H102.178L99.3114 122.326H78.5961L71.5658 162.422C70.4396 168.751 72.8285 171.454 79.1421 171.454C83.2374 171.454 86.616 171.283 92.0764 170.667L89.1414 187.294C83.3739 188.731 77.6746 189.518 71.8389 189.518Z" fill="#031729"/>
<path d="M99.9922 187.944L114.394 106.007H134.358L119.957 187.944H99.9922Z" fill="#031729"/>
<path d="M366.425 189.518C349.839 189.518 343.286 180.007 346.051 164.167L353.422 122.326H338.406L341.273 106.007H356.289L360.828 80.1779H380.588L376.049 106.007H396.764L393.897 122.326H373.182L366.118 162.422C364.991 168.751 367.38 171.454 373.694 171.454C377.789 171.454 381.168 171.283 386.628 170.667L383.693 187.294C377.96 188.731 372.295 189.518 366.425 189.518Z" fill="#031729"/>
<path d="M394.582 187.944L408.984 106.007H428.948L414.547 187.944H394.582Z" fill="#031729"/>
<path d="M192.066 127.39C189.882 123.763 186.128 120.924 179.985 120.924C164.593 120.924 158.86 135.566 156.778 147.403C154.696 159.206 155.277 173.712 170.702 173.712C176.845 173.712 181.589 170.872 185.036 167.246C190.052 161.875 192.475 154.485 193.704 147.403C195.001 140.322 195.205 132.761 192.066 127.39ZM192.714 183.668C186.981 187.773 179.916 190.27 171.589 190.27C161.863 190.27 154.594 186.815 151.625 182.231L145.072 219.555H125.449L145.38 106.315H163.74L162.034 115.279C168.245 107.718 177.937 104.4 186.878 104.4C195.035 104.4 201.144 107.239 205.444 111.345C213.771 119.384 216.467 131.666 213.771 147.096C210.904 163.175 203.84 175.628 192.714 183.668Z" fill="#031729"/>
<path d="M268.784 151.817L247.762 153.39C241.721 153.869 235.237 157.496 234.077 164.099C232.984 170.393 237.762 174.328 243.905 174.328C256.157 174.328 265.986 167.725 268.101 155.58L268.784 151.817ZM278.681 189.449C270.183 189.449 266.429 184.078 266.873 177.954C261.924 184.557 251.516 190.236 239.878 190.236C220.391 190.236 212.474 177.954 214.829 164.543C217.559 148.943 231.244 139.945 247.011 138.851L271.378 137.106L272.265 132.077C273.63 124.345 271.855 119.145 260.696 119.145C251.584 119.145 245.509 123.25 243.7 130.811H224.692C229.026 112.371 245.1 104.194 263.324 104.194C277.316 104.194 288.475 108.608 291.035 120.89C292.161 126.09 291.445 131.906 290.489 137.448L285.131 167.862C284.483 171.659 285.472 173.062 288.783 173.062C290.045 173.062 291.342 172.754 291.342 172.754L288.783 187.26C285.233 188.662 283.391 189.449 278.681 189.449Z" fill="#031729"/>
<path d="M319.701 189.039C306.323 189.039 298.508 182.573 301.272 166.972L316.527 80.1438H336.321L321.646 163.688C320.827 168.409 321.373 171.557 328.13 171.557C329.871 171.557 330.349 171.386 331.475 171.386L328.574 187.944C324.445 188.731 323.626 189.039 319.701 189.039Z" fill="#031729"/>
<path d="M435.395 66.9039C435.668 75.5594 428.91 82.8465 420.242 83.1202C417.341 83.2228 414.577 82.5043 412.222 81.2043C411.949 81.0333 411.676 80.8622 411.403 80.7254C411.403 80.6911 411.369 80.6911 411.369 80.6911C370.143 56.401 321.785 43.127 270.457 44.8376C217.833 46.5823 169.372 63.8249 129.272 92.0151C129.068 92.152 128.863 92.2888 128.658 92.4599C128.317 92.6309 127.907 92.7678 127.464 92.7678C125.894 92.8362 124.597 91.6046 124.529 90.0309C124.494 89.5177 124.631 89.0045 124.87 88.594C125.348 88.1492 125.791 87.7387 126.269 87.3282C170.328 47.814 227.934 23.0107 291.616 20.8896C340.282 19.2816 386.285 31.0846 426.044 53.0483C426.044 53.0483 426.078 53.0483 426.078 53.0825C426.453 53.2878 426.829 53.4931 427.204 53.6983C428.876 54.622 430.378 55.7852 431.641 57.2221C433.893 59.8222 435.292 63.1749 435.395 66.9039Z" fill="#FFBD00"/>
<path d="M431.165 181.102C431.028 181.239 430.755 181.341 430.345 181.341H429.356V179.767H430.175C430.619 179.767 430.926 179.836 431.096 179.973C431.267 180.11 431.369 180.281 431.369 180.52C431.369 180.76 431.301 180.965 431.165 181.102ZM431.847 182.128L431.881 182.094C432.223 181.889 432.461 181.683 432.598 181.41C432.734 181.17 432.803 180.828 432.803 180.417C432.803 180.212 432.769 179.973 432.7 179.767C432.632 179.562 432.53 179.391 432.325 179.22C432.154 179.049 431.881 178.912 431.54 178.81C431.199 178.707 430.755 178.673 430.243 178.673H427.991V184.489H429.356V182.402H430.516V182.436L431.506 184.489H433.076L431.847 182.128ZM431.165 181.102C431.028 181.239 430.755 181.341 430.345 181.341H429.356V179.767H430.175C430.619 179.767 430.926 179.836 431.096 179.973C431.267 180.11 431.369 180.281 431.369 180.52C431.369 180.76 431.301 180.965 431.165 181.102ZM431.847 182.128L431.881 182.094C432.223 181.889 432.461 181.683 432.598 181.41C432.734 181.17 432.803 180.828 432.803 180.417C432.803 180.212 432.769 179.973 432.7 179.767C432.632 179.562 432.53 179.391 432.325 179.22C432.154 179.049 431.881 178.912 431.54 178.81C431.199 178.707 430.755 178.673 430.243 178.673H427.991V184.489H429.356V182.402H430.516V182.436L431.506 184.489H433.076L431.847 182.128ZM431.165 181.102C431.028 181.239 430.755 181.341 430.345 181.341H429.356V179.767H430.175C430.619 179.767 430.926 179.836 431.096 179.973C431.267 180.11 431.369 180.281 431.369 180.52C431.369 180.76 431.301 180.965 431.165 181.102ZM431.847 182.128L431.881 182.094C432.223 181.889 432.461 181.683 432.598 181.41C432.734 181.17 432.803 180.828 432.803 180.417C432.803 180.212 432.769 179.973 432.7 179.767C432.632 179.562 432.53 179.391 432.325 179.22C432.154 179.049 431.881 178.912 431.54 178.81C431.199 178.707 430.755 178.673 430.243 178.673H427.991V184.489H429.356V182.402H430.516V182.436L431.506 184.489H433.076L431.847 182.128ZM431.165 181.102C431.028 181.239 430.755 181.341 430.345 181.341H429.356V179.767H430.175C430.619 179.767 430.926 179.836 431.096 179.973C431.267 180.11 431.369 180.281 431.369 180.52C431.369 180.76 431.301 180.965 431.165 181.102ZM431.847 182.128L431.881 182.094C432.223 181.889 432.461 181.683 432.598 181.41C432.734 181.17 432.803 180.828 432.803 180.417C432.803 180.212 432.769 179.973 432.7 179.767C432.632 179.562 432.53 179.391 432.325 179.22C432.154 179.049 431.881 178.912 431.54 178.81C431.199 178.707 430.755 178.673 430.243 178.673H427.991V184.489H429.356V182.402H430.516V182.436L431.506 184.489H433.076L431.847 182.128ZM431.165 181.102C431.028 181.239 430.755 181.341 430.345 181.341H429.356V179.767H430.175C430.619 179.767 430.926 179.836 431.096 179.973C431.267 180.11 431.369 180.281 431.369 180.52C431.369 180.76 431.301 180.965 431.165 181.102ZM431.881 182.128C432.223 181.923 432.461 181.717 432.598 181.444C432.734 181.204 432.803 180.862 432.803 180.452C432.803 180.246 432.769 180.007 432.7 179.802C432.632 179.596 432.53 179.425 432.325 179.254C432.154 179.083 431.881 178.946 431.54 178.844C431.199 178.741 430.755 178.707 430.243 178.707H427.991V184.523H429.356V182.436H430.516V182.47L431.506 184.523H433.076L431.847 182.128H431.881ZM433.588 185.344C432.769 186.165 431.676 186.575 430.345 186.575C429.015 186.575 427.922 186.165 427.137 185.344C426.318 184.523 425.909 183.291 425.909 181.752C425.909 180.212 426.318 178.981 427.137 178.159C427.957 177.338 429.015 176.894 430.345 176.894C431.676 176.894 432.769 177.304 433.588 178.159C434.407 178.981 434.816 180.178 434.816 181.752C434.816 183.291 434.407 184.489 433.588 185.344ZM435.874 179.186C435.601 178.433 435.192 177.783 434.68 177.27C434.168 176.757 433.553 176.346 432.803 176.038C432.086 175.765 431.267 175.594 430.345 175.594C429.526 175.594 428.741 175.73 428.025 176.038C427.308 176.312 426.694 176.723 426.148 177.27C425.602 177.783 425.192 178.433 424.885 179.186C424.578 179.938 424.441 180.794 424.441 181.717C424.441 182.675 424.578 183.531 424.885 184.283C425.158 185.036 425.568 185.686 426.08 186.199C426.591 186.712 427.206 187.123 427.957 187.397C428.673 187.67 429.492 187.807 430.38 187.807C431.199 187.807 431.984 187.67 432.734 187.397C433.485 187.123 434.1 186.712 434.646 186.199C435.192 185.686 435.601 185.036 435.908 184.283C436.215 183.531 436.352 182.675 436.352 181.717C436.284 180.794 436.147 179.938 435.874 179.186ZM431.165 181.102C431.028 181.239 430.755 181.341 430.345 181.341H429.356V179.767H430.175C430.619 179.767 430.926 179.836 431.096 179.973C431.267 180.11 431.369 180.281 431.369 180.52C431.369 180.76 431.301 180.965 431.165 181.102ZM431.847 182.128L431.881 182.094C432.223 181.889 432.461 181.683 432.598 181.41C432.734 181.17 432.803 180.828 432.803 180.417C432.803 180.212 432.769 179.973 432.7 179.767C432.632 179.562 432.53 179.391 432.325 179.22C432.154 179.049 431.881 178.912 431.54 178.81C431.199 178.707 430.755 178.673 430.243 178.673H427.991V184.489H429.356V182.402H430.516V182.436L431.506 184.489H433.076L431.847 182.128ZM431.165 181.102C431.028 181.239 430.755 181.341 430.345 181.341H429.356V179.767H430.175C430.619 179.767 430.926 179.836 431.096 179.973C431.267 180.11 431.369 180.281 431.369 180.52C431.369 180.76 431.301 180.965 431.165 181.102ZM431.847 182.128L431.881 182.094C432.223 181.889 432.461 181.683 432.598 181.41C432.734 181.17 432.803 180.828 432.803 180.417C432.803 180.212 432.769 179.973 432.7 179.767C432.632 179.562 432.53 179.391 432.325 179.22C432.154 179.049 431.881 178.912 431.54 178.81C431.199 178.707 430.755 178.673 430.243 178.673H427.991V184.489H429.356V182.402H430.516V182.436L431.506 184.489H433.076L431.847 182.128ZM431.165 181.102C431.028 181.239 430.755 181.341 430.345 181.341H429.356V179.767H430.175C430.619 179.767 430.926 179.836 431.096 179.973C431.267 180.11 431.369 180.281 431.369 180.52C431.369 180.76 431.301 180.965 431.165 181.102ZM431.847 182.128L431.881 182.094C432.223 181.889 432.461 181.683 432.598 181.41C432.734 181.17 432.803 180.828 432.803 180.417C432.803 180.212 432.769 179.973 432.7 179.767C432.632 179.562 432.53 179.391 432.325 179.22C432.154 179.049 431.881 178.912 431.54 178.81C431.199 178.707 430.755 178.673 430.243 178.673H427.991V184.489H429.356V182.402H430.516V182.436L431.506 184.489H433.076L431.847 182.128ZM431.165 181.102C431.028 181.239 430.755 181.341 430.345 181.341H429.356V179.767H430.175C430.619 179.767 430.926 179.836 431.096 179.973C431.267 180.11 431.369 180.281 431.369 180.52C431.369 180.76 431.301 180.965 431.165 181.102ZM431.847 182.128L431.881 182.094C432.223 181.889 432.461 181.683 432.598 181.41C432.734 181.17 432.803 180.828 432.803 180.417C432.803 180.212 432.769 179.973 432.7 179.767C432.632 179.562 432.53 179.391 432.325 179.22C432.154 179.049 431.881 178.912 431.54 178.81C431.199 178.707 430.755 178.673 430.243 178.673H427.991V184.489H429.356V182.402H430.516V182.436L431.506 184.489H433.076L431.847 182.128Z" fill="#031729"/>
</svg>
