<?xml version="1.0" encoding="UTF-8"?>
<svg width="601px" height="111px" viewBox="0 0 601 111" version="1.1" xmlns="http://www.w3.org/2000/svg" xmlns:xlink="http://www.w3.org/1999/xlink">
    <title>getapp-vector-logo</title>
    <g id="Page-1" stroke="none" stroke-width="1" fill="none" fill-rule="evenodd">
        <g id="getapp-vector-logo" fill="#FFFFFF" fill-rule="nonzero">
            <path d="M151,41.9 L110.5,1.4 C109.1,0.1 107,0.1 105.7,1.4 L97.7,9.4 L130.2,41.9 C131.5,43.2 131.5,45.4 130.2,46.7 C130.2,46.7 130.2,46.7 130.2,46.7 L96.7,80.2 L104.7,88.2 C106.1,89.5 108.2,89.5 109.5,88.2 L150.9,46.8 C152.3,45.4 152.3,43.3 151,41.9" id="Path"></path>
            <path d="M82,4.4 L79.1,1.5 C77.7,0.2 75.6,0.2 74.3,1.5 L66.3,9.5 L71.6,14.8 L82,25.2 L92.4,14.8 L82,4.4 Z" id="Path"></path>
            <path d="M81.1,64.6 L70.7,75 L65.4,80.3 L73.4,88.3 C74.8,89.6 76.9,89.6 78.2,88.3 L81.1,85.4 L91.5,75 L81.1,64.6 Z" id="Path"></path>
            <path d="M98.9,41.9 C100.2,43.3 100.2,45.4 98.9,46.7 L81.1,64.5 L91.5,74.9 L119.7,46.7 C121,45.4 121,43.2 119.7,41.9 C119.7,41.9 119.7,41.9 119.7,41.9 L92.5,14.7 L82,25.1 L98.9,41.9 Z" id="Path"></path>
            <path d="M32.8,42.9 L61,14.7 L50.6,4.3 L47.6,1.4 C46.2,0.1 44.1,0.1 42.8,1.4 L1.4,42.9 C0.1,44.2 0.1,46.4 1.4,47.7 C1.4,47.7 1.4,47.7 1.4,47.7 L41.9,88.2 C43.3,89.5 45.4,89.5 46.7,88.2 L49.7,85.3 L60.1,74.9 L32.9,47.7 C31.5,46.4 31.5,44.3 32.8,42.9 C32.8,42.9 32.8,42.9 32.8,42.9" id="Path"></path>
            <path d="M64.2,42.9 L76.6,30.5 L66.2,20.1 L60.9,14.8 L32.9,43 C31.6,44.3 31.6,46.5 32.9,47.8 C32.9,47.8 32.9,47.8 32.9,47.8 L60,74.9 L65.3,69.6 L75.7,59.2 L64.2,47.7 C62.9,46.5 62.9,44.3 64.2,42.9" id="Path"></path>
            <path d="M64.2,47.7 L75.7,59.2 L88.1,46.8 C89.4,45.5 89.4,43.3 88.1,42 C88.1,42 88.1,42 88.1,42 L76.6,30.5 L64.2,42.9 C63,44.3 63,46.4 64.2,47.7" id="Path"></path>
            <path d="M183.5,33.4 C183.6,28.8 184.5,24.3 186.2,20 C187.8,16.1 190.2,12.5 193.2,9.6 C196.5,6.6 200.4,4.3 204.6,2.9 C209.7,1.2 215.1,0.4 220.4,0.5 C226.4,0.3 232.4,1.2 238,3.2 C242,4.7 245.8,6.9 249,9.8 C251.5,12 253.4,14.7 254.7,17.7 C255.7,19.9 256.3,22.2 256.6,24.6 C256.7,25.5 256.4,26.4 255.7,27 C255,27.6 254.2,27.9 253.3,27.9 L243.4,27.9 C242.6,27.9 241.9,27.7 241.3,27.2 C240.8,26.8 240.4,26.3 240.2,25.8 C240,25.5 239.6,24.8 238.9,23.7 C238,22.4 236.9,21.2 235.6,20.3 C233.8,19 231.8,17.9 229.7,17.1 C226.8,16.1 223.6,15.6 220.5,15.7 C215.2,15.4 209.9,17.2 205.8,20.6 C202.1,24 200,28.8 199.9,33.9 C199.7,37 199.7,40.3 199.7,43.9 C199.7,47.4 199.7,50.8 199.9,53.9 C200.1,60.7 202.1,65.6 205.8,68.6 C210,71.8 215.2,73.4 220.4,73.2 C223.2,73.2 226,72.9 228.7,72.2 C231.1,71.6 233.3,70.5 235.2,69 C237.1,67.5 238.6,65.5 239.5,63.2 C240.6,60.4 241.1,57.4 241,54.4 L241,53.4 L226.1,53.4 C225.2,53.4 224.4,53.1 223.8,52.4 C223.2,51.8 222.8,51 222.8,50.1 L222.8,41.4 C222.8,39.6 224.3,38.1 226.1,38.1 L254.3,38.1 C256.1,38.1 257.6,39.6 257.6,41.4 L257.6,54.8 C257.7,59.4 256.9,64 255.3,68.3 C253.8,72.3 251.4,75.9 248.3,78.9 C245,82 241,84.4 236.7,85.9 C226.2,89.2 214.9,89.2 204.3,85.9 C200.1,84.5 196.2,82.2 193,79.2 C190,76.2 187.6,72.6 186.1,68.6 C184.5,64.3 183.6,59.7 183.5,55.1 C183.5,53.6 183.4,51.8 183.3,50 C183.3,48.1 183.3,46.2 183.3,44.2 C183.3,42.2 183.3,40.3 183.3,38.5 C183.3,36.6 183.4,35 183.5,33.4" id="Path"></path>
            <path d="M295.3,37.2 C293.2,37.1 291.2,37.5 289.2,38.2 C287.6,38.8 286.2,39.7 285,40.9 C283.9,41.9 283,43.2 282.4,44.6 C281.8,45.8 281.4,47.1 281.3,48.4 L308.9,48.4 C308.7,47.1 308.4,45.8 308,44.6 C307.5,43.2 306.8,42 305.8,40.9 C304.7,39.7 303.3,38.8 301.8,38.2 C299.7,37.4 297.5,37.1 295.3,37.2 M265.4,55.5 C265.4,51.1 266.1,46.8 267.5,42.6 C268.8,38.7 270.8,35.1 273.5,32 C276.1,29 279.4,26.6 283,25 C286.9,23.3 291.1,22.4 295.3,22.4 C299.5,22.3 303.7,23.2 307.6,24.9 C311.2,26.5 314.5,28.8 317.2,31.7 C319.8,34.6 321.9,37.9 323.3,41.6 C324.7,45.4 325.5,49.4 325.4,53.5 L325.4,59 C325.4,60.8 323.9,62.3 322.1,62.3 L281.3,62.3 C281.3,64 281.7,65.7 282.4,67.2 C283.2,68.6 284.2,69.8 285.5,70.7 C286.9,71.7 288.4,72.4 290,72.9 C291.7,73.4 293.5,73.6 295.3,73.6 C297.4,73.7 299.6,73.4 301.7,72.8 C303.1,72.4 304.5,71.7 305.7,70.8 C306.4,70.3 307.1,69.8 307.9,69.4 C308.6,69.1 309.4,69 310.2,69 L320,69 C320.9,69 321.8,69.4 322.4,70 C323.1,70.6 323.4,71.4 323.3,72.3 C323,73.9 322.4,75.4 321.4,76.7 C320,78.8 318.2,80.6 316.1,82 C313.4,83.9 310.4,85.4 307.3,86.4 C303.4,87.7 299.3,88.3 295.3,88.2 C291.1,88.2 286.9,87.4 283,85.8 C279.4,84.3 276.1,82 273.5,79.1 C270.8,76 268.8,72.5 267.5,68.6 C266,64.5 265.3,60 265.4,55.5" id="Shape"></path>
            <path d="M354.7,64.3 C354.6,66.5 355.3,68.7 356.7,70.3 C358,71.8 360.5,72.6 364.2,72.6 L371.6,72.6 C373.4,72.6 374.9,74.1 374.9,75.9 L374.9,84 C374.9,85.8 373.4,87.3 371.6,87.3 L362.5,87.3 C354.8,87.3 349,85.4 344.9,81.7 C340.8,78 338.8,72.3 338.7,64.7 L338.7,38.4 L330.6,38.4 C329.7,38.4 328.9,38.1 328.3,37.4 C327.7,36.8 327.3,36 327.3,35.1 L327.3,27 C327.3,26.1 327.6,25.3 328.3,24.7 C328.9,24.1 329.7,23.7 330.6,23.7 L338.7,23.7 L338.7,3.8 C338.7,2 340.2,0.5 342,0.5 L351.3,0.5 C353.1,0.5 354.6,2 354.6,3.8 L354.6,23.7 L370.4,23.7 C372.2,23.8 373.5,25.2 373.6,27 L373.6,35.1 C373.6,36.9 372.1,38.4 370.3,38.4 L354.5,38.4 L354.7,64.3 Z" id="Path"></path>
            <path d="M435,55.4 L421.5,20.6 L408.1,55.4 L435,55.4 Z M428.2,1.7 C429.3,1.6 430.3,2 431.1,2.7 C431.9,3.6 432.5,4.7 432.9,5.8 L462.8,83.1 C462.9,83.4 462.9,83.7 462.9,83.9 C462.9,85.7 461.4,87.2 459.6,87.2 L450.8,87.2 C449.6,87.3 448.3,87 447.4,86.2 C446.8,85.6 446.4,84.9 446.1,84.2 L440.8,70.6 L402.2,70.6 L396.9,84.2 C396.6,85 396.1,85.6 395.6,86.2 C394.6,87 393.4,87.4 392.2,87.2 L383.4,87.2 C381.6,87.2 380.1,85.7 380.1,83.9 C380.1,83.6 380.1,83.3 380.2,83.1 L410.1,5.8 C410.5,4.7 411.1,3.6 411.9,2.7 C412.7,2 413.8,1.6 414.8,1.7 L428.2,1.7 Z" id="Shape"></path>
            <path d="M515.3,58.9 C515.5,56.6 515.5,54.3 515.3,52.1 C514.8,46.8 513.2,43 510.4,40.7 C507.6,38.3 504,37.1 500.3,37.2 C496.6,37.1 493,38.3 490.2,40.7 C487.3,43.3 485.7,47 485.5,50.8 C485.3,52.3 485.2,53.9 485.3,55.4 C485.3,57 485.4,58.5 485.5,60 C485.7,63.8 487.4,67.4 490.2,70 C493,72.5 496.6,73.8 500.3,73.7 C504,73.8 507.6,72.5 510.4,70.2 C513.2,67.9 514.8,64.1 515.3,58.9 M504,88.5 C501.7,88.5 499.4,88.3 497.2,87.8 C495.4,87.4 493.6,86.8 491.9,86 C490.6,85.3 489.3,84.5 488.1,83.5 C487.2,82.8 486.3,82 485.5,81.1 L485.5,107.1 C485.5,108.9 484,110.4 482.2,110.4 L473,110.4 C471.2,110.4 469.7,108.9 469.7,107.1 L469.7,27 C469.7,25.2 471.2,23.7 473,23.7 L482.3,23.7 C484.1,23.7 485.6,25.2 485.6,27 L485.6,29.8 C486.4,28.9 487.2,28.1 488.2,27.4 C489.4,26.5 490.7,25.7 492.1,25 C493.8,24.2 495.6,23.6 497.4,23.2 C499.6,22.7 501.9,22.5 504.2,22.5 C508,22.4 511.8,23.3 515.3,24.9 C518.5,26.4 521.4,28.6 523.7,31.3 C526.1,34 527.9,37.1 529.2,40.5 C530.5,44 531.3,47.6 531.5,51.3 C531.6,52.5 531.6,53.9 531.6,55.6 C531.6,57.3 531.6,58.7 531.5,59.9 C531.3,63.6 530.6,67.3 529.2,70.7 C527.9,74.1 526.1,77.2 523.7,79.9 C521.4,82.6 518.5,84.7 515.3,86.3 C511.6,87.8 507.8,88.6 504,88.5" id="Shape"></path>
            <path d="M584.4,58.9 C584.6,56.6 584.6,54.3 584.4,52.1 C583.9,46.8 582.3,43 579.5,40.7 C576.7,38.3 573.1,37.1 569.4,37.2 C565.7,37.1 562.1,38.3 559.3,40.7 C556.4,43.3 554.8,47 554.6,50.8 C554.4,52.3 554.3,53.9 554.4,55.4 C554.4,57 554.5,58.5 554.6,60 C554.8,63.8 556.5,67.4 559.3,70 C562.1,72.5 565.7,73.8 569.4,73.7 C573.1,73.8 576.7,72.5 579.5,70.2 C582.3,67.9 583.9,64.1 584.4,58.9 M573,88.4 C570.7,88.4 568.4,88.2 566.2,87.7 C564.4,87.3 562.6,86.7 560.9,85.9 C559.5,85.2 558.2,84.4 557.1,83.5 C556.2,82.8 555.3,82 554.5,81.1 L554.5,107.1 C554.5,108 554.1,108.8 553.5,109.4 C552.9,110 552.1,110.4 551.2,110.4 L541.9,110.4 C540.1,110.4 538.6,108.9 538.6,107.1 L538.6,27 C538.6,25.2 540.1,23.7 541.9,23.7 L551.2,23.7 C553,23.7 554.5,25.2 554.5,27 L554.5,29.8 C555.3,28.9 556.2,28.1 557.1,27.4 C558.3,26.5 559.6,25.7 560.9,25 C562.6,24.2 564.4,23.6 566.2,23.2 C568.4,22.7 570.7,22.5 573,22.5 C576.8,22.4 580.6,23.3 584.1,24.9 C587.3,26.4 590.2,28.6 592.5,31.3 C594.9,34 596.7,37.1 598,40.5 C599.3,44 600.1,47.6 600.3,51.3 C600.4,52.5 600.4,53.9 600.4,55.6 C600.4,57.3 600.4,58.7 600.3,59.9 C600.1,63.6 599.4,67.3 598,70.7 C596.7,74.1 594.9,77.2 592.5,79.9 C590.1,82.6 587.3,84.7 584.1,86.3 C580.6,87.9 576.8,88.7 573,88.7" id="Shape"></path>
        </g>
    </g>
</svg>