<?xml version="1.0" encoding="UTF-8"?>
<svg width="601px" height="133px" viewBox="0 0 601 133" version="1.1" xmlns="http://www.w3.org/2000/svg" xmlns:xlink="http://www.w3.org/1999/xlink">
    <title>Artboard</title>
    <g id="Artboard" stroke="none" stroke-width="1" fill="none" fill-rule="evenodd">
        <g id="capterra-inc-vector-logo" fill="#FFFFFF" fill-rule="nonzero">
            <polygon id="Path" points="0.4 49 55.4 49 88.8 49 88.8 15.9"></polygon>
            <polygon id="Path" points="88.8 15.9 88.8 132.9 130.6 0.3"></polygon>
            <polygon id="Path" points="88.8 49 55.4 49 88.8 132.8 88.8 49"></polygon>
            <polygon id="Path" points="0.4 49 64 70.5 55.4 49"></polygon>
            <path d="M203,102 C202.5,102.5 201.7,103.1 200.6,103.8 C199.5,104.5 198,105.3 196.2,106 C194.4,106.7 192.2,107.4 189.5,107.9 C186.9,108.4 183.9,108.7 180.5,108.7 C174,108.7 168.3,107.6 163.5,105.6 C158.7,103.5 154.8,100.6 151.7,96.8 C148.6,93 146.3,88.6 144.9,83.5 C143.4,78.4 142.7,72.7 142.7,66.6 C142.7,60.5 143.5,54.8 145.1,49.6 C146.7,44.4 149,39.9 152.2,36.1 C155.3,32.3 159.3,29.3 164,27.2 C168.7,25.1 174.3,24 180.7,24 C183.8,24 186.7,24.3 189.2,24.8 C191.7,25.4 194,26 195.9,26.8 C197.8,27.6 199.4,28.4 200.6,29.2 C201.9,30 202.8,30.8 203.4,31.3 C204.1,31.9 204.8,32.7 205.3,33.6 C205.8,34.5 206.1,35.5 206.1,36.5 C206.1,38.1 205.5,39.7 204.3,41.3 C203.1,42.9 201.8,44.4 200.3,45.8 C199.3,44.8 198.2,43.8 197,42.8 C195.8,41.8 194.4,40.9 192.9,40.1 C191.4,39.3 189.7,38.7 187.8,38.2 C185.9,37.7 183.8,37.4 181.4,37.4 C177.3,37.4 173.8,38.2 171,39.9 C168.2,41.6 166,43.7 164.3,46.4 C162.6,49.1 161.4,52.1 160.7,55.5 C160,58.9 159.6,62.4 159.6,66 C159.6,69.8 160,73.4 160.7,76.9 C161.4,80.4 162.7,83.4 164.5,86.1 C166.3,88.8 168.6,90.9 171.5,92.5 C174.4,94.1 177.9,94.9 182.2,94.9 C184.5,94.9 186.5,94.6 188.4,94.1 C190.3,93.5 192,92.8 193.4,92 C194.9,91.2 196.1,90.3 197.2,89.5 C198.3,88.6 199.2,87.8 199.9,87.2 C200.4,87.8 200.9,88.5 201.6,89.3 C202.3,90.1 202.9,91 203.4,91.8 C204,92.7 204.4,93.6 204.9,94.5 C205.3,95.4 205.5,96.2 205.5,96.9 C205.5,98 205.3,98.8 204.9,99.6 C204.5,100.3 203.8,101.1 203,102 L203,102 Z M265.4,92.7 C265.4,99.1 266.3,103.8 268.2,106.7 C266.7,107.3 265.4,107.7 264.1,107.9 C262.8,108.1 261.5,108.3 260.1,108.3 C257.2,108.3 255,107.7 253.5,106.6 C252,105.5 251,103.8 250.6,101.7 C248.8,103.6 246.5,105.2 243.5,106.5 C240.6,107.8 237,108.4 232.8,108.4 C230.6,108.4 228.4,108.1 226.2,107.5 C224,106.9 222,105.9 220.2,104.5 C218.4,103.1 217,101.3 215.8,99 C214.7,96.7 214.1,93.9 214.1,90.6 C214.1,86.5 215.1,83.1 217.1,80.5 C219.1,77.9 221.6,75.9 224.6,74.4 C227.6,72.9 230.9,71.9 234.3,71.3 C237.8,70.7 241,70.4 243.9,70.2 C244.9,70.1 245.8,70.1 246.8,70.1 L249.4,70.1 L249.4,67.9 C249.4,64.8 248.6,62.6 246.9,61.2 C245.2,59.9 242.5,59.2 238.8,59.2 C235.3,59.2 232.2,59.8 229.5,60.9 C226.8,62 224.1,63.3 221.5,64.8 C220.4,63.4 219.4,61.9 218.8,60.2 C218.1,58.5 217.8,57.3 217.8,56.5 C217.8,55.4 218.4,54.3 219.7,53.2 C221,52.1 222.7,51.2 224.9,50.3 C227.1,49.4 229.6,48.8 232.5,48.2 C235.3,47.7 238.3,47.4 241.5,47.4 C245.9,47.4 249.6,47.8 252.6,48.7 C255.6,49.6 258.1,51 260,52.8 C261.9,54.7 263.3,57 264.1,59.8 C264.9,62.6 265.3,65.9 265.3,69.6 L265.4,92.7 L265.4,92.7 Z M249.8,78.6 L248.1,78.6 C247.5,78.6 247,78.6 246.4,78.7 C244.4,78.9 242.4,79.1 240.4,79.4 C238.4,79.7 236.6,80.3 235.1,81.1 C233.6,81.9 232.3,83 231.3,84.3 C230.3,85.6 229.8,87.3 229.8,89.3 C229.8,91.6 230.4,93.5 231.7,95.1 C233,96.7 235.2,97.5 238.3,97.5 C239.8,97.5 241.3,97.3 242.7,96.9 C244.1,96.5 245.3,96 246.4,95.3 C247.5,94.6 248.3,93.9 248.9,93.2 C249.5,92.4 249.8,91.7 249.8,91.1 L249.8,78.6 L249.8,78.6 Z M295.7,54.6 C297,53.1 299,51.5 301.8,49.9 C304.6,48.3 308,47.5 312.2,47.5 C315.2,47.5 318.1,48 320.8,49 C323.5,50 325.9,51.7 328,53.9 C330.1,56.2 331.8,59.2 333,62.9 C334.3,66.6 334.9,71.2 334.9,76.7 C334.9,83 334.2,88.3 332.7,92.4 C331.2,96.5 329.4,99.8 327.1,102.1 C324.8,104.5 322.2,106.2 319.4,107.2 C316.6,108.2 313.7,108.7 310.9,108.7 C308.6,108.7 306.5,108.4 304.8,107.9 C303.1,107.4 301.6,106.8 300.4,106.1 C299.2,105.5 298.3,104.8 297.6,104.2 C297,103.6 296.5,103.1 296.4,102.9 L296.4,132.9 L279.8,132.9 L279.8,49.3 C280.2,49.2 280.7,49.1 281.3,49.1 C281.8,49 282.4,49 283,48.9 C283.7,48.9 284.4,48.8 285.3,48.8 C288,48.8 290.3,49.2 292.2,50.1 C294,51 295.2,52.5 295.7,54.6 L295.7,54.6 Z M317.7,77.1 C317.7,74.7 317.5,72.4 317.1,70.3 C316.7,68.2 316,66.4 315.1,64.8 C314.2,63.3 312.9,62.1 311.3,61.2 C309.7,60.3 307.8,59.9 305.5,59.9 C302.1,59.9 299.7,60.6 298.4,61.8 C297.1,63.1 296.4,64.5 296.4,66.1 L296.4,92 C297,92.7 298.2,93.4 299.9,94.3 C301.6,95.2 303.5,95.6 305.7,95.6 C309.8,95.6 312.8,94 314.8,90.7 C316.7,87.5 317.7,83 317.7,77.1 Z M347.7,98.1 C347.1,96.5 346.8,94.8 346.6,93 C346.4,91.2 346.4,89.4 346.4,87.6 L346.4,31.1 C347,31 347.6,30.9 348.2,30.9 C348.8,30.8 349.4,30.8 350,30.7 C350.6,30.7 351.3,30.6 351.9,30.6 C353.2,30.6 354.5,30.7 355.8,31 C357.1,31.2 358.3,31.7 359.3,32.5 C360.4,33.2 361.2,34.2 361.9,35.5 C362.5,36.8 362.9,38.4 362.9,40.4 L362.9,49.1 L380,49.1 L380,61.4 L363,61.4 L363,87.4 C363,93.1 365.3,95.9 369.9,95.9 C371,95.9 372.1,95.7 373.1,95.4 C374.1,95 375,94.6 375.8,94.2 C376.6,93.8 377.3,93.3 377.9,92.8 C378.5,92.3 378.9,91.9 379.2,91.7 C380.4,93.5 381.4,95 382,96.3 C382.6,97.6 383,98.8 383,100 C383,101.1 382.6,102.1 381.7,103.1 C380.8,104.1 379.6,105.1 378.1,105.9 C376.6,106.8 374.7,107.5 372.5,108 C370.3,108.5 367.9,108.8 365.3,108.8 C360.3,108.8 356.3,107.8 353.5,105.9 C350.9,103.8 348.9,101.3 347.7,98.1 L347.7,98.1 Z M422,96.5 C424,96.5 425.8,96.3 427.4,95.8 C428.9,95.4 430.3,94.8 431.6,94.2 C432.8,93.6 433.9,92.8 434.8,92.1 C435.7,91.3 436.5,90.6 437.2,90 C438.2,91.2 439.2,92.8 440.3,94.7 C441.4,96.6 441.9,98.2 441.9,99.4 C441.9,101.2 440.9,102.8 438.9,104.3 C437.2,105.6 434.8,106.7 431.6,107.7 C428.5,108.6 424.8,109.1 420.6,109.1 C416.8,109.1 413,108.6 409.3,107.6 C405.6,106.6 402.3,104.9 399.4,102.5 C396.5,100.1 394.2,96.8 392.4,92.7 C390.6,88.6 389.7,83.4 389.7,77.2 C389.7,72.1 390.5,67.7 392.1,64 C393.7,60.3 395.8,57.2 398.4,54.8 C401,52.4 404,50.6 407.4,49.4 C410.7,48.3 414.1,47.7 417.6,47.7 C422.1,47.7 426,48.4 429.2,49.8 C432.4,51.2 434.9,53.1 436.9,55.5 C438.9,57.9 440.3,60.6 441.2,63.7 C442.1,66.8 442.5,70 442.5,73.4 L442.5,75.1 C442.5,75.8 442.5,76.4 442.4,77.2 C442.4,77.9 442.3,78.6 442.3,79.3 C442.3,80 442.2,80.5 442.1,80.9 L406.2,80.9 C406.5,85.4 407.9,89.1 410.4,92.1 C412.8,95 416.7,96.5 422,96.5 L422,96.5 Z M427.6,71.8 C427.6,67.9 426.8,64.7 425.3,62.3 C423.8,59.9 421.1,58.6 417.2,58.6 C413.8,58.6 411.2,59.8 409.2,62.1 C407.2,64.4 406.2,67.6 406.2,71.8 L427.6,71.8 L427.6,71.8 Z M471.4,54.9 C471.9,54.2 472.5,53.4 473.3,52.5 C474.1,51.6 475.1,50.8 476.3,50.1 C477.5,49.4 478.8,48.8 480.2,48.3 C481.6,47.8 483.1,47.6 484.8,47.6 C485.8,47.6 486.8,47.7 487.9,47.8 C489,48 490,48.3 490.9,48.7 C491.8,49.1 492.6,49.7 493.2,50.5 C493.8,51.3 494.1,52.2 494.1,53.3 C494.1,55.1 493.7,57.1 492.8,59.4 C491.9,61.7 491,63.7 490.1,65.3 C488.7,64.2 487.3,63.3 486,62.7 C484.6,62.1 483,61.8 481.1,61.8 C478.6,61.8 476.5,62.5 474.8,64 C473.1,65.5 472.2,67.2 472.2,69.3 L472.2,108.7 L455.6,108.7 L455.6,49.2 C456,49.1 456.5,49 457.1,49 C457.6,48.9 458.2,48.9 458.8,48.8 C459.4,48.8 460.2,48.7 461.1,48.7 C463.7,48.7 466,49.2 467.9,50.2 C469.7,51.3 470.9,52.8 471.4,54.9 L471.4,54.9 Z M518.5,54.9 C519,54.2 519.6,53.4 520.4,52.5 C521.2,51.6 522.2,50.8 523.4,50.1 C524.6,49.4 525.9,48.8 527.3,48.3 C528.7,47.8 530.2,47.6 531.9,47.6 C532.9,47.6 533.9,47.7 535,47.8 C536.1,48 537.1,48.3 538,48.7 C538.9,49.1 539.7,49.7 540.3,50.5 C540.9,51.3 541.2,52.2 541.2,53.3 C541.2,55.1 540.8,57.1 539.9,59.4 C539,61.7 538.1,63.7 537.2,65.3 C535.8,64.2 534.4,63.3 533.1,62.7 C531.7,62.1 530.1,61.8 528.2,61.8 C525.7,61.8 523.6,62.5 521.9,64 C520.2,65.5 519.3,67.2 519.3,69.3 L519.3,108.7 L502.7,108.7 L502.7,49.2 C503.1,49.1 503.6,49 504.2,49 C504.7,48.9 505.3,48.9 505.9,48.8 C506.5,48.8 507.3,48.7 508.2,48.7 C510.8,48.7 513.1,49.2 515,50.2 C516.8,51.3 518,52.8 518.5,54.9 L518.5,54.9 Z M597.6,92.7 C597.6,99.1 598.5,103.8 600.4,106.7 C598.9,107.3 597.6,107.7 596.3,107.9 C595,108.1 593.7,108.3 592.3,108.3 C589.4,108.3 587.2,107.7 585.7,106.6 C584.2,105.5 583.2,103.8 582.8,101.7 C581,103.6 578.7,105.2 575.7,106.5 C572.8,107.8 569.2,108.4 565,108.4 C562.8,108.4 560.6,108.1 558.4,107.5 C556.2,106.9 554.2,105.9 552.4,104.5 C550.6,103.1 549.2,101.3 548,99 C546.9,96.7 546.3,93.9 546.3,90.6 C546.3,86.5 547.3,83.1 549.3,80.5 C551.3,77.9 553.8,75.9 556.8,74.4 C559.8,72.9 563.1,71.9 566.5,71.3 C570,70.7 573.2,70.4 576.1,70.2 C577.1,70.1 578,70.1 579,70.1 L581.6,70.1 L581.6,67.9 C581.6,64.8 580.8,62.6 579.1,61.2 C577.4,59.9 574.7,59.2 571,59.2 C567.5,59.2 564.4,59.8 561.7,60.9 C559,62 556.3,63.3 553.7,64.8 C552.6,63.4 551.6,61.9 551,60.2 C550.3,58.5 550,57.3 550,56.5 C550,55.4 550.6,54.3 551.9,53.2 C553.2,52.1 554.9,51.2 557.1,50.3 C559.3,49.4 561.8,48.8 564.7,48.2 C567.5,47.7 570.5,47.4 573.7,47.4 C578.1,47.4 581.8,47.8 584.8,48.7 C587.8,49.6 590.3,51 592.2,52.8 C594.1,54.7 595.5,57 596.3,59.8 C597.1,62.6 597.5,65.9 597.5,69.6 L597.6,92.7 L597.6,92.7 Z M582,78.6 L580.3,78.6 C579.7,78.6 579.2,78.6 578.6,78.7 C576.6,78.9 574.6,79.1 572.6,79.4 C570.6,79.7 568.8,80.3 567.3,81.1 C565.8,81.9 564.5,83 563.5,84.3 C562.5,85.6 562,87.3 562,89.3 C562,91.6 562.6,93.5 563.9,95.1 C565.2,96.7 567.4,97.5 570.5,97.5 C572,97.5 573.5,97.3 574.9,96.9 C576.3,96.5 577.5,96 578.6,95.3 C579.7,94.6 580.5,93.9 581.1,93.2 C581.7,92.4 582,91.7 582,91.1 L582,78.6 L582,78.6 Z" id="Shape"></path>
        </g>
    </g>
</svg>