<?xml version="1.0" encoding="UTF-8"?>
<svg width="2500px" height="699px" viewBox="0 0 2500 699" version="1.1" xmlns="http://www.w3.org/2000/svg" xmlns:xlink="http://www.w3.org/1999/xlink">
    <title>Group</title>
    <g id="Page-1" stroke="none" stroke-width="1" fill="none" fill-rule="evenodd">
        <g id="g2-crowd-logo" fill="#FFFFFF" fill-rule="nonzero">
            <g id="Group">
                <path d="M516.5,116.1 C527.7,103 534.9,89.3 534.9,74.8 C534.9,50.5 514.8,35.1 490.2,35.1 C467.3,35.1 448.3,49.9 444.7,74.8 L411.2,66.7 C417.6,25.9 450.9,0.2 490,0.2 C533.9,0.2 568.8,30.1 568.8,74.5 C568.8,98.8 557.6,120.9 541.4,139.6 C509,177.3 508.2,178.7 473.2,220 L569.6,220 L569.6,254.6 L414.2,254.6 L414.2,239.8 L516.5,116.1 Z" id="Path"></path>
                <path d="M414.8,424.2 L415.1,297.9 L689.1,297.9 C691.9,315.5 693.3,333.7 693.3,351.8 C693.3,542.9 537.7,698.400433 346.7,698.400433 C155.6,698.7 0,543.2 0,352.1 C0,161 155.6,5.5 346.6,5.5 L346.6,127.8 C222.9,127.8 122.3,228.4 122.3,352.1 C122.3,475.8 222.9,576.4 346.6,576.4 C444.9,576.4 529,512.7 559.2,424.2 M949.7,337 C949.7,245.7 955.3,208.5 970.4,186.2 C989.4,158.3 1026,142.9 1073.8,142.9 C1116,142.9 1151.2,155.2 1169.9,177.3 C1184.1,192.9 1190,214.7 1190,249.1 L1190,269.8 L1112.6,269.8 C1111.5,230.7 1110.4,223.7 1104.8,215.3 C1098.7,205.8 1086.9,199.9 1072.7,199.9 C1057.3,199.9 1044.8,206.6 1039.5,216.7 C1031.7,232.3 1029.4,261.1 1029.4,336.5 C1029.4,398.8 1032.2,435.1 1037.2,450.5 C1041.7,463.3 1054.5,470.6 1071.6,470.6 C1101.8,470.6 1110.1,455.2 1112.7,397.7 L1189.8,397.7 C1189.2,446.3 1186.4,466.1 1176.1,485.1 C1161.9,512.5 1124.4,527.8 1070.5,527.8 C1007.7,527.8 969.7,504.6 957.1,459.9 C952.2,441.8 949.7,397.9 949.7,337 Z M1234.4,148.8 L1354.2,148.8 C1411.7,148.8 1422.1,151 1442.2,167.2 C1460.1,182 1469,206.3 1469,242.3 C1469,272.5 1462.9,295.7 1451.1,311.3 C1441,325 1428.8,330.9 1402.5,336.7 C1452.5,342.8 1469.8,366.3 1470.4,429.2 C1470.4,439.3 1471.5,459.9 1472.6,485.6 C1473.7,503.5 1474.3,506.8 1478.7,522.5 L1396.3,522.5 C1392.9,498.2 1392.9,497.6 1392.9,451.8 C1392.9,406.8 1389.5,384.5 1380.6,374.4 C1374.5,367.7 1367.8,366 1347.9,366 L1310.5,366 L1310.5,522.7 L1234.2,522.7 L1234.4,148.8 Z M1341.9,310.8 C1376.8,310.8 1389.4,296 1389.4,256.9 C1389.4,236.2 1383.8,219.5 1374.6,211.4 C1367.9,205.8 1362.9,204.7 1343.9,204.7 L1310.1,204.7 L1310.1,310.8 L1341.9,310.8 Z M1517.6,335.1 C1517.6,247.9 1521.5,217.8 1536.6,191.5 C1554.5,159.4 1591.6,142.9 1644.4,142.9 C1702.8,142.9 1742.4,164.7 1757.8,205.7 C1765.6,225.8 1769,265.2 1769,337 C1769,415.5 1765.1,452.6 1754.2,473.9 C1736.3,509.4 1698.1,528.4 1645,528.4 C1591.9,528.4 1555.3,512.2 1536.9,479.8 C1521.8,453.8 1517.6,422.8 1517.6,335.1 L1517.6,335.1 Z M1643.3,470.8 C1666.5,470.8 1680.2,459.6 1684.9,437.6 C1687.7,423.4 1689.9,374.8 1689.9,322.5 C1689.9,266.4 1687.1,233.4 1681.5,220 C1676.5,207.7 1661.9,199.9 1643.5,199.9 C1622.3,199.9 1607.5,209.4 1603.3,225.6 C1599.4,241.2 1597.2,280.1 1597.2,339.6 C1597.2,389 1598.9,421.4 1601.7,437.1 C1605.9,459.6 1619.5,470.8 1643.3,470.8 L1643.3,470.8 Z M1794.1,148.8 L1872,148.8 L1897.4,285.1 C1906.3,334.5 1908.6,379.5 1912.8,465.5 C1928.4,351 1933.5,319.1 1940.7,285.1 L1970.3,148.8 L2057.7,148.8 L2085.6,285.1 C2098.4,347.4 2101.2,389.6 2105.2,465.5 C2110.2,402.1 2115.3,355.7 2127.5,285.1 L2151.8,148.8 L2220.2,148.8 L2144.8,522.8 L2060.2,522.8 L2024.9,349 C2018.8,318.8 2011.2,248.2 2009.5,209.9 C1998.3,294 1997.8,306 1988.8,349 L1952.5,522.7 L1865.9,522.7 L1794.1,148.8 Z M2253.6,148.8 L2358.1,148.8 C2418.7,148.8 2437.2,152.2 2456.1,165.6 C2479.8,182.9 2491.6,213.1 2496.6,272.3 C2498.3,295.5 2499.4,325.1 2499.4,351.4 C2499.4,418.7 2494.7,451.7 2483.8,473.7 C2468.2,505.3 2432.1,523.1 2385.8,523.1 L2254,523.1 L2253.6,148.8 Z M2365.1,463.8 C2391.9,463.8 2406.7,457.7 2412,443.7 C2417.6,428.9 2419.3,407.4 2419.3,346.2 C2419.3,279.4 2417.1,250.1 2410.9,231.7 C2405.3,216.1 2390.2,207.4 2367,207.4 L2332.1,207.4 L2332.1,463.8 L2365.1,463.8 Z M836.3,1.5 L811.4,1.5 L811.4,691.7 L836.3,691.7 L836.3,1.5 Z" id="Shape"></path>
            </g>
        </g>
    </g>
</svg>