<?xml version="1.0" encoding="utf-8"?>
<!-- Generator: Adobe Illustrator 21.0.0, SVG Export Plug-In . SVG Version: 6.00 Build 0)  -->
<svg version="1.1" id="Layer_1" xmlns="http://www.w3.org/2000/svg" xmlns:xlink="http://www.w3.org/1999/xlink" x="0px" y="0px"
	 viewBox="0 0 388.9 128.8" style="enable-background:new 0 0 388.9 128.8;" xml:space="preserve">
<style type="text/css">
	.st0{fill:#394857;}
	.st1{fill:#98252B;}
	.st2{fill:#FFFFFF;}
	.st3{fill:#333E48;}
	.st4{fill:#3A3A3A;}
	.st5{fill:#676767;}
	.st6{fill:#9D9FA2;}
	.st7{fill:none;stroke:#9D9FA2;stroke-width:0.2562;stroke-miterlimit:10;stroke-dasharray:2.0497;}
	.st8{fill:none;stroke:#9D9FA2;stroke-width:0.5;stroke-miterlimit:10;}
	.st9{fill:none;stroke:#9D9FA2;stroke-width:0.2346;stroke-miterlimit:10;stroke-dasharray:1.8766;}
	.st10{fill:none;stroke:#9D9FA2;stroke-width:0.2591;stroke-miterlimit:10;stroke-dasharray:2.0725;}
	.st11{fill:none;stroke:#9D9FA2;stroke-width:0.584;stroke-miterlimit:10;}
	.st12{fill:#ED1C24;}
</style>
<g>
	<g>
		<path class="st1" d="M55.3,28.9c-14.8,0-26.8,12-26.8,26.8c0,6,1.9,11.7,5.6,16.4l21.2,26.7l21.2-26.7c3.7-4.7,5.6-10.4,5.6-16.4
			C82.1,40.9,70.1,28.9,55.3,28.9z"/>
		<g>
			<g>
				<g>
					<path class="st2" d="M66.5,63.2c-1.3,0-2.4,1.1-2.4,2.4c0,1.3,1.1,2.4,2.4,2.4c1.3,0,2.4-1.1,2.4-2.4
						C68.9,64.2,67.8,63.2,66.5,63.2z"/>
				</g>
			</g>
			<g>
				<g>
					<path class="st2" d="M44.2,63.2c-1.3,0-2.4,1.1-2.4,2.4c0,1.3,1.1,2.4,2.4,2.4c1.3,0,2.4-1.1,2.4-2.4
						C46.6,64.2,45.5,63.2,44.2,63.2z"/>
				</g>
			</g>
		</g>
		<path class="st2" d="M55.3,30.5c-13.9,0-25.2,11.3-25.2,25.2c0,5.6,1.8,11,5.3,15.4L55.3,96l19.9-24.9c3.5-4.5,5.3-9.8,5.3-15.4
			C80.5,41.8,69.2,30.5,55.3,30.5z M72.3,68.9L55.3,89.8L38.4,68.9c-2.9-3.7-4.6-8.3-4.6-13.3c0-11.9,9.6-21.5,21.5-21.5
			c11.9,0,21.5,9.6,21.5,21.5C76.9,60.7,75.2,65.3,72.3,68.9z"/>
		<g>
			<path class="st2" d="M51.2,41.6c-0.5,0-1,0.4-1.1,0.9h2.2C52.1,41.9,51.7,41.6,51.2,41.6z"/>
			<path class="st2" d="M55.3,41.6c-0.5,0-1,0.4-1.1,0.9h2.2C56.3,41.9,55.9,41.6,55.3,41.6z"/>
			<path class="st2" d="M59.5,41.6c-0.5,0-1,0.4-1.1,0.9h2.2C60.5,41.9,60.1,41.6,59.5,41.6z"/>
		</g>
		<path class="st2" d="M68.1,44.5c0,0-4-0.8-12.8-0.8c-8.8,0-12.7,0.8-12.7,0.8l-1,8.3c0,0,3.4-1.1,13.7-1.1
			c10.4,0,13.7,1.1,13.7,1.1L68.1,44.5z"/>
		<path class="st2" d="M52.3,77.1V55.6c0.6,0,1.2-0.1,1.9-0.1v22.1c0.4,0.1,0.8,0.1,1.1,0.1c0.4,0,0.7,0,1.1-0.1V55.5
			c0.7,0,1.4,0,2,0.1v21.5c0.9-0.3,1.7-0.7,2.2-0.9V53.8c-0.2,0-3.2-0.6-5.4-0.6c-2.2,0-5,0.6-5.2,0.6v22.4
			C50.6,76.5,51.4,76.8,52.3,77.1z"/>
	</g>
	<g>
		<g>
			<path class="st4" d="M113.1,79.6c-2.6,0.4-3.9,0.5-5.7,0.5c-7.2,0-10.9-4-10.9-11.6v-23h-6.7v-4.7h6.7l0-9.6l5.8,0v9.6h8.6v4.7
				h-8.6v24c0,4,2.1,6,6.2,6c1.4,0,2.5-0.1,4.6-0.5V79.6z"/>
			<path class="st4" d="M116.2,79V40.7h5.2v8.9c1.9-3.8,2.6-5,4-6.7c1.7-2,4.6-3.3,7.5-3.3c0.5,0,1.3,0.1,2.2,0.2v5.7
				c-7.2-0.6-12.7,5.1-12.9,13.3V79H116.2z"/>
			<path class="st4" d="M162.9,79v-7.3c-2.7,5.4-6.8,8.3-12.2,8.3c-7.8,0-12.6-5.6-12.6-14.8V40.7h6v24.4c0,3.5,0.6,5.7,1.9,7.3
				c1.4,1.7,3.5,2.6,5.6,2.6c5.9,0,10.6-5.7,10.6-12.8V40.7h6V79H162.9z"/>
			<path class="st4" d="M202.3,66.5c-0.9,4.7-2,6.9-4.5,9.4c-2.7,2.8-6,4.1-10.3,4.1c-9.8,0-16.1-7.9-16.1-20.1
				c0-12.1,6.5-20.2,16.4-20.2c7.8,0,12.9,4.7,14.5,13.3l-5.3,1c-0.5-2.9-1-4.3-2-5.8c-1.7-2.3-4.3-3.6-7.2-3.6
				c-6.3,0-10.2,5.8-10.2,15.1c0,9.6,3.7,15.3,10.1,15.3c4.8,0,8.1-3.3,9.3-9.5L202.3,66.5z"/>
			<path class="st4" d="M230.8,79l-11.2-21.3l-8.3,9.5V79h-6V31.1h6v29.3l17.8-19.6h6.4l-11.9,13.5L237,79H230.8z"/>
			<path class="st4" d="M241.4,67.9c0.6,2.2,1.2,3.3,2.5,4.3c2.2,1.8,5.8,2.9,9.4,2.9c5.3,0,9-2.5,9-6.2c0-3.1-2.2-5-6.6-5.9
				l-8.1-1.5c-6.5-1.2-10.3-5.1-10.3-10.5c0-6.7,5.7-11.2,14.4-11.2c8,0,13.2,3.3,15,9.7l-5.4,1.2c-1.8-4.1-4.9-6-9.8-6
				c-5,0-8.2,2.2-8.2,5.7c0,2.9,1.9,4.6,6,5.3l7.5,1.3c7.8,1.4,11.6,5.1,11.6,11.3c0,7-6.3,11.7-15.7,11.7c-5.4,0-9.8-1.4-13-4.3
				c-2-1.7-3-3.3-4-6.7L241.4,67.9z"/>
			<path class="st4" d="M324.6,60.3c0,11.5-7.4,19.7-17.7,19.7c-10,0-16.7-8.1-16.7-20.2c0-11.9,7.1-20,17.3-20
				C317.9,39.7,324.6,47.8,324.6,60.3z M299.4,48.8c-1.7,2.5-2.6,6.2-2.6,10.9c0,9.8,3.9,15.4,10.6,15.4c6.7,0,10.7-5.7,10.7-15.1
				c0-5.2-0.9-8.6-2.7-11.2c-1.9-2.6-5-4.1-8.1-4.1C304.3,44.6,301.2,46.2,299.4,48.8z"/>
			<path class="st4" d="M327.6,100.2V40.7h5.3v7.4c3-5.9,6.7-8.4,12-8.4c9.1,0,15.2,8.1,15.2,20.1c0,12-6.2,20.2-15.3,20.2
				c-5,0-8.1-1.9-11.3-6.8v27H327.6z M333.6,65.1c0.9,5.8,5.3,10,10.2,10c2.6,0,5.4-1.5,7.1-3.6c1.9-2.5,2.9-6.2,2.9-11.3
				c0-9.6-3.7-15.3-9.9-15.3c-4.7,0-8.6,3.6-10.2,9.5V65.1z"/>
			<path class="st4" d="M291,79.6c-2.6,0.4-3.9,0.5-5.7,0.5c-7.2,0-10.9-4-10.9-11.6v-23h-6.7v-4.7h6.7l0-9.6l5.8,0v9.6h8.6v4.7
				h-8.6v24c0,4,2.1,6,6.2,6c1.4,0,2.5-0.1,4.6-0.5V79.6z"/>
		</g>
		<g>
			<path class="st5" d="M273.5,100.2h-3.4v-3.6h3.4V100.2z"/>
			<path class="st5" d="M286.6,95.4c-0.3,1.5-0.6,2.2-1.3,3.1c-1,1.3-2.5,2-4.4,2c-3.5,0-5.9-2.9-5.9-7.2c0-4.3,2.5-7.2,6.2-7.2
				c1.7,0,3.2,0.6,4.1,1.7c0.7,0.8,1,1.5,1.3,3l-2.7,0.4c-0.2-1.7-1.1-2.6-2.5-2.6c-1.9,0-3,1.8-3,4.8c0,2.7,1.1,4.4,2.8,4.4
				c1.4,0,2.3-0.9,2.7-2.6L286.6,95.4z"/>
			<path class="st5" d="M299.1,88.9c0.8,1.3,1.2,2.6,1.2,4.4c0,4.2-2.7,7.2-6.6,7.2c-2.1,0-3.8-0.9-4.9-2.6
				c-0.9-1.3-1.4-2.9-1.4-4.7c0-4.2,2.7-7.2,6.5-7.2C296.2,86,297.9,86.9,299.1,88.9z M290.7,93.2c0,3,1.1,4.7,3.1,4.7
				c2,0,3.1-1.7,3.1-4.7c0-3-1.1-4.6-3.1-4.6C291.8,88.6,290.7,90.3,290.7,93.2z"/>
			<path class="st5" d="M318.8,100.2v-8.6c0-1.8-0.8-2.7-2.4-2.7c-1.9,0-3,1.5-3,4v7.3h-3.3v-8.6c0-0.9-0.1-1.2-0.3-1.7
				c-0.4-0.7-1.1-1.1-1.9-1.1c-1.9,0-3.2,1.7-3.2,4.1v7.3h-3.2V86.3h3v2.9c0.6-1.2,1-1.7,1.5-2.2c0.8-0.7,1.9-1.1,3.1-1.1
				c2,0,3.3,1,4,3.2c1.2-2.2,2.6-3.2,4.6-3.2c2.6,0,4.4,1.8,4.4,4.3v9.8H318.8z"/>
		</g>
	</g>
</g>
</svg>
