<svg width="540" height="305" viewBox="0 0 540 305" fill="none" xmlns="http://www.w3.org/2000/svg">
<g clip-path="url(#clip0)">
<path d="M549.742 0H-5.31445V312.845H549.742V0Z" fill="white"/>
<g opacity="0.04">
<path d="M-0.117188 0V313" stroke="#073E4B" stroke-width="0.5"/>
<path d="M14.543 0V313" stroke="#073E4B" stroke-width="0.5"/>
<path d="M29.2021 0V313" stroke="#073E4B" stroke-width="0.5"/>
<path d="M43.8623 0V313" stroke="#073E4B" stroke-width="0.5"/>
<path d="M58.5225 0V313" stroke="#073E4B" stroke-width="0.5"/>
<path d="M73.1816 0V313" stroke="#073E4B" stroke-width="0.5"/>
<path d="M87.8418 0V313" stroke="#073E4B" stroke-width="0.5"/>
<path d="M102.424 0V313" stroke="#073E4B" stroke-width="0.5"/>
<path d="M117.084 0V313" stroke="#073E4B" stroke-width="0.5"/>
<path d="M131.743 0V313" stroke="#073E4B" stroke-width="0.5"/>
<path d="M146.403 0V313" stroke="#073E4B" stroke-width="0.5"/>
<path d="M161.063 0V313" stroke="#073E4B" stroke-width="0.5"/>
<path d="M175.723 0V313" stroke="#073E4B" stroke-width="0.5"/>
<path d="M190.383 0V313" stroke="#073E4B" stroke-width="0.5"/>
<path d="M205.043 0V313" stroke="#073E4B" stroke-width="0.5"/>
<path d="M219.702 0V313" stroke="#073E4B" stroke-width="0.5"/>
<path d="M234 0V313" stroke="#073E4B" stroke-width="0.5"/>
<path d="M249.022 0V313" stroke="#073E4B" stroke-width="0.5"/>
<path d="M263.682 0V313" stroke="#073E4B" stroke-width="0.5"/>
<path d="M278.342 0V313" stroke="#073E4B" stroke-width="0.5"/>
<path d="M293.002 0V313" stroke="#073E4B" stroke-width="0.5"/>
<path d="M307.661 0V313" stroke="#073E4B" stroke-width="0.5"/>
<path d="M322.321 0V313" stroke="#073E4B" stroke-width="0.5"/>
<path d="M336.981 0V313" stroke="#073E4B" stroke-width="0.5"/>
<path d="M351.641 0V313" stroke="#073E4B" stroke-width="0.5"/>
<path d="M366.301 0V313" stroke="#073E4B" stroke-width="0.5"/>
<path d="M380.961 0V313" stroke="#073E4B" stroke-width="0.5"/>
<path d="M439.6 0V313" stroke="#073E4B" stroke-width="0.5"/>
<path d="M395.62 0V313" stroke="#073E4B" stroke-width="0.5"/>
<path d="M454.26 0V313" stroke="#073E4B" stroke-width="0.5"/>
<path d="M410.28 0V313" stroke="#073E4B" stroke-width="0.5"/>
<path d="M468.919 0V313" stroke="#073E4B" stroke-width="0.5"/>
<path d="M424.94 0V313" stroke="#073E4B" stroke-width="0.5"/>
<path d="M483.579 0V313" stroke="#073E4B" stroke-width="0.5"/>
<path d="M497.464 0V313" stroke="#073E4B" stroke-width="0.5"/>
<path d="M512.123 0V313" stroke="#073E4B" stroke-width="0.5"/>
<path d="M526.783 0V313" stroke="#073E4B" stroke-width="0.5"/>
<path d="M550.983 108.89H-5.31445" stroke="#073E4B" stroke-width="0.5"/>
<path d="M550.983 93.8999H-5.31445" stroke="#073E4B" stroke-width="0.5"/>
<path d="M550.983 78.9878H-5.31445" stroke="#073E4B" stroke-width="0.5"/>
<path d="M550.983 63.998H-5.31445" stroke="#073E4B" stroke-width="0.5"/>
<path d="M550.983 49.0083H-5.31445" stroke="#073E4B" stroke-width="0.5"/>
<path d="M550.983 33.7078H-5.31445" stroke="#073E4B" stroke-width="0.5"/>
<path d="M550.983 18.7957H-5.31445" stroke="#073E4B" stroke-width="0.5"/>
<path d="M550.983 3.80566H-5.31445" stroke="#073E4B" stroke-width="0.5"/>
<path d="M550.983 123.802H-5.31445" stroke="#073E4B" stroke-width="0.5"/>
<path d="M550.983 138.792H-5.31445" stroke="#073E4B" stroke-width="0.5"/>
<path d="M550.983 153.782H-5.31445" stroke="#073E4B" stroke-width="0.5"/>
<path d="M550.983 168.694H-5.31445" stroke="#073E4B" stroke-width="0.5"/>
<path d="M550.983 183.684H-5.31445" stroke="#073E4B" stroke-width="0.5"/>
<path d="M550.983 198.673H-5.31445" stroke="#073E4B" stroke-width="0.5"/>
<path d="M550.983 213.586H-5.31445" stroke="#073E4B" stroke-width="0.5"/>
<path d="M550.983 228.575H-5.31445" stroke="#073E4B" stroke-width="0.5"/>
<path d="M550.983 243.565H-5.31445" stroke="#073E4B" stroke-width="0.5"/>
<path d="M550.983 258.477H-5.31445" stroke="#073E4B" stroke-width="0.5"/>
<path d="M550.983 273.467H-5.31445" stroke="#073E4B" stroke-width="0.5"/>
<path d="M550.983 288.379H-5.31445" stroke="#073E4B" stroke-width="0.5"/>
<path d="M550.983 303.369H-5.31445" stroke="#073E4B" stroke-width="0.5"/>
</g>
<path d="M39.0848 65L-29 89.911L-8.8994 144.848L59.1854 119.937L39.0848 65Z" fill="white" stroke="#187186" stroke-opacity="0.1" stroke-miterlimit="10" stroke-linecap="round" stroke-linejoin="round"/>
<path d="M17.3506 83.4727L31.6506 78.1727" stroke="#187186" stroke-opacity="0.1" stroke-miterlimit="10" stroke-linecap="round" stroke-linejoin="round"/>
<path d="M18.3506 86.1728L32.6506 80.8728" stroke="#187186" stroke-opacity="0.1" stroke-miterlimit="10" stroke-linecap="round" stroke-linejoin="round"/>
<path d="M34.2512 104.973C36.0737 104.973 37.5512 103.495 37.5512 101.673C37.5512 99.8503 36.0737 98.3728 34.2512 98.3728C32.4286 98.3728 30.9512 99.8503 30.9512 101.673C30.9512 103.495 32.4286 104.973 34.2512 104.973Z" fill="white" stroke="#187186" stroke-opacity="0.1" stroke-miterlimit="10" stroke-linecap="round" stroke-linejoin="round"/>
<path d="M-5.24902 131.173L1.75098 113.573L7.35098 117.573L18.351 94.7728" fill="white"/>
<path d="M-5.24902 131.173L1.75098 113.573L7.35098 117.573L18.351 94.7728" stroke="#187186" stroke-opacity="0.1" stroke-miterlimit="10" stroke-linecap="round" stroke-linejoin="round"/>
<path d="M15.1514 94.7728L19.3514 92.7728L21.3514 96.5728L15.1514 94.7728Z" fill="white"/>
<path d="M19.1326 93.4308L20.361 95.7646L16.5531 94.6591L19.1326 93.4308Z" stroke="#187186" stroke-opacity="0.1"/>
<path d="M171.168 42.7327L146.789 33.1749L147.401 56.3178L124 64.0077L154.506 75.7542L154.565 92.6371L187.201 72.6753L204.49 75.4478L180.111 49.2115L180.417 31.6282L171.168 42.7327Z" fill="#2FBECA"/>
<path d="M408.407 46.0608C408.276 45.9587 408.101 45.9295 407.955 45.9879L336.058 68.1822C335.839 68.2552 335.693 68.4449 335.693 68.6784V281.706C335.693 281.867 335.766 282.027 335.898 282.115C335.985 282.173 336.087 282.217 336.204 282.217C336.248 282.217 336.306 282.202 336.35 282.188L408.246 259.993C408.465 259.92 408.611 259.731 408.611 259.497V46.484C408.611 46.3235 408.538 46.163 408.407 46.0608Z" fill="#073E4B"/>
<path d="M416.796 130.387L401.142 143.169V120.45L416.796 107.667V130.387Z" fill="#2FBECA"/>
<path d="M410.843 97.1473L401.842 104.502V91.4272L410.843 84.0729V97.1473Z" fill="#FFD43B"/>
<path d="M336.204 282.217H161.759C161.481 282.217 161.248 281.983 161.248 281.706V68.6781C161.248 68.4008 161.481 68.1674 161.759 68.1674H336.204C336.482 68.1674 336.715 68.4008 336.715 68.6781V281.706C336.715 281.983 336.482 282.217 336.204 282.217ZM162.269 281.181H335.694V69.1888H162.269V281.181Z" fill="#073E4B"/>
<path d="M392.665 21.5171L336.204 68.6783V281.706L401.506 227.161V30.3598C398.559 27.4122 395.612 24.4647 392.665 21.5171Z" fill="white"/>
<path d="M336.204 282.217C336.131 282.217 336.058 282.202 335.985 282.173C335.81 282.085 335.693 281.91 335.693 281.706V68.6779C335.693 68.532 335.766 68.386 335.883 68.2839L392.344 21.1227C392.548 20.9476 392.84 20.9622 393.03 21.1519L401.871 29.9946C401.973 30.0968 402.017 30.2135 402.017 30.3594V227.161C402.017 227.307 401.944 227.453 401.827 227.555L336.525 282.1C336.437 282.173 336.321 282.217 336.204 282.217ZM336.715 68.9113V280.611L400.996 226.913V30.5637L392.636 22.2025L336.715 68.9113Z" fill="#073E4B"/>
<path d="M343.994 80.4536C343.848 80.4536 343.702 80.3952 343.6 80.2638C343.425 80.045 343.454 79.724 343.659 79.5488L376.062 52.4808C376.281 52.3057 376.602 52.3203 376.777 52.5392C376.952 52.758 376.923 53.0791 376.718 53.2542L344.315 80.3368C344.228 80.4098 344.111 80.4536 343.994 80.4536Z" fill="#073E4B"/>
<path d="M343.994 91.2799C343.848 91.2799 343.702 91.2216 343.6 91.0902C343.425 90.8714 343.454 90.5503 343.659 90.3752L366.01 71.7121C366.229 71.537 366.55 71.5662 366.725 71.7705C366.9 71.9894 366.871 72.3104 366.666 72.4855L344.315 91.1632C344.228 91.2362 344.111 91.2799 343.994 91.2799Z" fill="#073E4B"/>
<path d="M371.904 191.717C371.758 191.717 371.613 191.659 371.51 191.527C371.335 191.308 371.365 190.987 371.569 190.812L393.92 172.149C394.139 171.974 394.46 171.989 394.635 172.207C394.81 172.426 394.781 172.747 394.576 172.922L372.225 191.586C372.138 191.688 372.021 191.717 371.904 191.717Z" fill="#073E4B"/>
<path d="M373.217 221.879C373.071 221.879 372.925 221.821 372.823 221.689C372.648 221.47 372.677 221.149 372.881 220.974L384.057 211.635C384.276 211.46 384.597 211.475 384.772 211.694C384.947 211.913 384.918 212.234 384.713 212.409L373.538 221.748C373.45 221.85 373.334 221.879 373.217 221.879Z" fill="#073E4B"/>
<path d="M362.042 231.218C361.896 231.218 361.75 231.16 361.648 231.028C361.473 230.809 361.502 230.488 361.707 230.313L366.083 226.665C366.302 226.49 366.623 226.505 366.798 226.724C366.973 226.942 366.944 227.263 366.74 227.439L362.363 231.087C362.275 231.174 362.159 231.218 362.042 231.218Z" fill="#073E4B"/>
<path d="M254.912 107.725H202.857C198.655 107.725 195.241 104.311 195.241 100.108C195.241 95.906 198.655 92.4915 202.857 92.4915H254.926C259.128 92.4915 262.542 95.906 262.542 100.108C262.528 104.311 259.114 107.725 254.912 107.725ZM202.857 93.5275C199.224 93.5275 196.277 96.4896 196.277 100.123C196.277 103.756 199.239 106.719 202.857 106.719H254.926C258.559 106.719 261.521 103.756 261.521 100.123C261.521 96.4896 258.559 93.5275 254.926 93.5275H202.857Z" fill="#073E4B"/>
<path d="M251.308 121.661H208.867C208.59 121.661 208.356 121.428 208.356 121.151C208.356 120.873 208.59 120.64 208.867 120.64H251.308C251.585 120.64 251.818 120.873 251.818 121.151C251.818 121.428 251.599 121.661 251.308 121.661Z" fill="#073E4B"/>
<path d="M250.214 251.383H234.545C234.268 251.383 234.034 251.149 234.034 250.872C234.034 250.595 234.268 250.361 234.545 250.361H250.214C250.491 250.361 250.724 250.595 250.724 250.872C250.724 251.149 250.491 251.383 250.214 251.383Z" fill="#073E4B"/>
<path d="M269.428 265.1H234.545C234.268 265.1 234.034 264.866 234.034 264.589C234.034 264.312 234.268 264.078 234.545 264.078H269.428C269.705 264.078 269.939 264.312 269.939 264.589C269.939 264.866 269.705 265.1 269.428 265.1Z" fill="#073E4B"/>
<path d="M320.199 265.1H303.859C303.582 265.1 303.349 264.866 303.349 264.589C303.349 264.312 303.582 264.078 303.859 264.078H320.199C320.477 264.078 320.71 264.312 320.71 264.589C320.71 264.866 320.491 265.1 320.199 265.1Z" fill="#073E4B"/>
<path d="M174.947 207.651L178.565 210.497L174.947 207.651Z" fill="white"/>
<path d="M203.659 123.31C202.171 123.31 200.96 122.099 200.96 120.61C200.96 119.122 202.171 117.911 203.659 117.911C205.147 117.911 206.358 119.122 206.358 120.61C206.358 122.099 205.147 123.31 203.659 123.31ZM203.659 118.932C202.74 118.932 201.981 119.691 201.981 120.61C201.981 121.53 202.74 122.288 203.659 122.288C204.578 122.288 205.337 121.53 205.337 120.61C205.337 119.691 204.578 118.932 203.659 118.932Z" fill="#073E4B"/>
<path d="M154.157 169.449C153.88 169.449 153.646 169.216 153.646 168.938V62.3589C153.646 62.0816 153.88 61.8481 154.157 61.8481H275.308C275.585 61.8481 275.818 62.0816 275.818 62.3589C275.818 62.6361 275.585 62.8696 275.308 62.8696H154.668V168.938C154.668 169.216 154.449 169.449 154.157 169.449Z" fill="#073E4B"/>
<path d="M161.919 261.335L183.278 281.822L161.759 281.706L161.919 261.335Z" fill="#073E4B"/>
<path d="M315.224 261.73C315.093 261.73 314.962 261.686 314.86 261.584L307.755 254.478C307.55 254.274 307.55 253.953 307.755 253.748C307.959 253.544 308.28 253.544 308.484 253.748L315.589 260.855C315.793 261.059 315.793 261.38 315.589 261.584C315.487 261.686 315.356 261.73 315.224 261.73Z" fill="#073E4B"/>
<path d="M308.119 261.73C307.988 261.73 307.857 261.686 307.755 261.584C307.55 261.38 307.55 261.059 307.755 260.855L314.86 253.748C315.064 253.544 315.385 253.544 315.589 253.748C315.793 253.953 315.793 254.274 315.589 254.478L308.484 261.584C308.382 261.686 308.251 261.73 308.119 261.73Z" fill="#073E4B"/>
<path d="M339.676 118.684H333.125C332.848 118.684 332.614 118.45 332.614 118.173C332.614 117.896 332.848 117.662 333.125 117.662H339.676C339.953 117.662 340.186 117.896 340.186 118.173C340.186 118.45 339.967 118.684 339.676 118.684Z" fill="#073E4B"/>
<path d="M339.676 123.5H333.125C332.848 123.5 332.614 123.266 332.614 122.989C332.614 122.712 332.848 122.478 333.125 122.478H339.676C339.953 122.478 340.186 122.712 340.186 122.989C340.186 123.266 339.967 123.5 339.676 123.5Z" fill="#073E4B"/>
<path d="M339.676 218.362H333.125C332.848 218.362 332.614 218.128 332.614 217.851C332.614 217.574 332.848 217.34 333.125 217.34H339.676C339.953 217.34 340.186 217.574 340.186 217.851C340.186 218.128 339.967 218.362 339.676 218.362Z" fill="#073E4B"/>
<path d="M339.676 223.163H333.125C332.848 223.163 332.614 222.93 332.614 222.652C332.614 222.375 332.848 222.142 333.125 222.142H339.676C339.953 222.142 340.186 222.375 340.186 222.652C340.186 222.93 339.967 223.163 339.676 223.163Z" fill="#073E4B"/>
<path d="M388.507 212.482C390.159 212.482 391.498 211.143 391.498 209.491C391.498 207.838 390.159 206.499 388.507 206.499C386.856 206.499 385.517 207.838 385.517 209.491C385.517 211.143 386.856 212.482 388.507 212.482Z" fill="white"/>
<path d="M388.507 212.977C386.582 212.977 385.006 211.401 385.006 209.475C385.006 207.549 386.582 205.973 388.507 205.973C390.433 205.973 392.009 207.549 392.009 209.475C392.009 211.401 390.448 212.977 388.507 212.977ZM388.507 207.009C387.151 207.009 386.027 208.118 386.027 209.49C386.027 210.861 387.136 211.97 388.507 211.97C389.879 211.97 390.988 210.861 390.988 209.49C390.988 208.118 389.879 207.009 388.507 207.009Z" fill="#073E4B"/>
<path d="M401.506 30.9136H392.665C392.388 30.9136 392.154 30.6801 392.154 30.4028V21.5163C392.154 21.2391 392.388 21.0056 392.665 21.0056C392.942 21.0056 393.176 21.2391 393.176 21.5163V29.8921H401.506C401.783 29.8921 402.017 30.1256 402.017 30.4028C402.017 30.6801 401.798 30.9136 401.506 30.9136Z" fill="#073E4B"/>
<path d="M363.689 111.14L288.671 217.632L229.058 184.64L179.338 234.369L168.089 223.119L142.572 248.64L152.333 258.402L168.089 242.643L179.338 253.893L231.466 201.756L292.829 235.727L375.405 118.495C371.509 116.043 367.57 113.65 363.689 111.14Z" fill="#FFD43B"/>
<path d="M381.051 98.5621L379.402 127.265L354.746 110.148L381.051 98.5621Z" fill="#FFD43B"/>
<path d="M170.817 79.1699V136.648C170.817 139.77 172.189 142.587 174.348 144.513C176.201 146.162 178.637 147.154 181.322 147.154C184.707 147.154 187.727 145.549 189.652 143.053C191.024 141.273 191.826 139.055 191.826 136.648V79.1699H170.817Z" fill="#073E4B"/>
<path d="M192.876 84.8898V55.6621C192.876 49.2855 187.712 38.5458 181.336 38.5458C174.961 38.5458 169.796 49.2855 169.796 55.6621V84.8898H192.876Z" fill="#073E4B"/>
<path d="M192.876 85.6191H169.533C169.256 85.6191 169.022 85.3856 169.022 85.1084C169.022 84.8311 169.256 84.5977 169.533 84.5977H192.876C193.153 84.5977 193.387 84.8311 193.387 85.1084C193.387 85.3856 193.153 85.6191 192.876 85.6191Z" fill="white"/>
<path d="M196.611 62.0243C196.334 62.0243 196.1 61.7908 196.1 61.5136V53.9696H185.231C184.954 53.9696 184.721 53.7361 184.721 53.4588C184.721 53.1816 184.954 52.9481 185.231 52.9481H196.611C196.888 52.9481 197.122 53.1816 197.122 53.4588V61.499C197.122 61.7908 196.888 62.0243 196.611 62.0243Z" fill="#073E4B"/>
<path d="M191.84 137.172H170.831C170.554 137.172 170.32 136.939 170.32 136.662C170.32 136.384 170.554 136.151 170.831 136.151H191.84C192.117 136.151 192.35 136.384 192.35 136.662C192.35 136.939 192.117 137.172 191.84 137.172Z" fill="white"/>
<path d="M173.224 73.5083C172.947 73.5083 172.714 73.2748 172.714 72.9976V60.4923C172.714 60.215 172.947 59.9816 173.224 59.9816C173.502 59.9816 173.735 60.215 173.735 60.4923V72.9976C173.735 73.2748 173.502 73.5083 173.224 73.5083Z" fill="white"/>
<path d="M210.297 174.105C210.297 174.105 206.431 182.364 202.812 191.659L209.261 193.469L223.967 175.141L210.297 174.105Z" fill="white"/>
<path d="M209.261 193.964C209.217 193.964 209.174 193.964 209.13 193.95L202.681 192.14C202.535 192.097 202.433 192.009 202.36 191.878C202.302 191.746 202.287 191.6 202.346 191.469C205.92 182.262 209.801 173.973 209.845 173.886C209.932 173.696 210.136 173.579 210.341 173.594L224.026 174.63C224.215 174.645 224.376 174.761 224.463 174.936C224.536 175.112 224.507 175.316 224.39 175.462L209.684 193.789C209.568 193.906 209.422 193.964 209.261 193.964ZM203.498 191.309L209.086 192.87L222.975 175.564L210.618 174.63C209.888 176.206 206.606 183.371 203.498 191.309Z" fill="#073E4B"/>
<path d="M181.906 198.882L174.932 207.652C174.932 207.652 170.803 203.011 164.865 208.688L186.02 225.979L198.406 211.008L181.906 198.882Z" fill="white"/>
<path d="M186.034 226.491C185.918 226.491 185.801 226.447 185.713 226.374L164.559 209.082C164.442 208.995 164.384 208.849 164.369 208.703C164.369 208.557 164.427 208.411 164.53 208.309C166.674 206.266 168.834 205.259 170.993 205.347C172.889 205.42 174.246 206.339 174.903 206.894L181.526 198.547C181.701 198.328 182.008 198.284 182.227 198.459L198.742 210.585C198.859 210.673 198.931 210.79 198.946 210.936C198.961 211.082 198.917 211.213 198.829 211.33L186.443 226.301C186.326 226.432 186.18 226.491 186.034 226.491ZM165.653 208.659L185.961 225.25L197.677 211.096L181.993 199.583L175.326 207.973C175.238 208.09 175.092 208.163 174.946 208.163C174.815 208.178 174.655 208.105 174.553 207.988C174.538 207.973 173.152 206.456 170.92 206.368C169.198 206.31 167.448 207.083 165.653 208.659Z" fill="#073E4B"/>
<path d="M316.07 184.422C320.607 181.256 323.131 175.011 319.863 169.933C316.77 165.132 310.482 163.118 305.376 166.139C299.627 169.539 294.011 173.128 288.51 176.893C286.935 177.973 285.622 179.432 284.688 181.096C281.93 180.089 279.217 179.067 276.532 178.133C264.277 173.843 252.037 170.881 238.994 171.406C215.84 172.34 194.292 182.978 179.046 200.255C184.867 205.056 190.717 209.812 196.393 214.774C208.21 200.941 227.147 193.046 244.917 193.951C256.122 194.52 266.349 198.635 276.824 202.312C277.028 202.385 277.233 202.458 277.437 202.531C287.27 205.946 298.183 203.45 305.638 196.184C309.169 192.74 312.67 189.267 316.391 185.925C315.515 185.517 314.903 185.473 314.304 185.575C314.611 185.415 314.917 185.225 315.209 185.021C315.501 184.816 315.793 184.627 316.07 184.422Z" fill="#073E4B"/>
<path d="M297.132 166.065C294.885 166.065 293.018 166.649 291.515 167.612C279.114 152.918 263.372 140.383 243.006 141.945C223.645 143.433 213.754 159.44 207.685 175.856C214.687 177.783 221.676 179.738 228.65 181.781C231.801 172.953 236.309 163.512 246.697 163.424C259.36 163.322 274.096 179.738 281.405 188.697C285.942 194.257 291.194 191.893 294.039 186.815C294.973 187.078 296.009 187.238 297.132 187.238C310.759 187.238 310.788 166.065 297.132 166.065Z" fill="#073E4B"/>
<path d="M212.281 177.402C212.091 177.402 211.902 177.3 211.814 177.111C211.683 176.862 211.8 176.556 212.048 176.425C212.15 176.366 223.019 171.142 232.663 171.142C232.94 171.142 233.173 171.376 233.173 171.653C233.173 171.93 232.94 172.164 232.663 172.164C223.252 172.164 212.602 177.3 212.485 177.344C212.442 177.388 212.354 177.402 212.281 177.402Z" fill="white"/>
<path d="M199.735 210.701C199.603 210.701 199.472 210.643 199.37 210.541L184.839 195.307C184.649 195.103 184.649 194.782 184.853 194.577C185.058 194.388 185.379 194.388 185.583 194.592L200.114 209.811C200.303 210.016 200.303 210.337 200.099 210.541C199.997 210.643 199.866 210.701 199.735 210.701Z" fill="white"/>
<path d="M219.56 173.463C219.954 173.39 220.348 173.317 220.728 173.244C220.669 173.099 220.567 172.982 220.407 172.938L210.486 169.626C210.223 169.538 209.931 169.684 209.844 169.947C209.756 170.209 209.902 170.501 210.165 170.589L219.166 173.595C219.298 173.536 219.429 173.493 219.56 173.463Z" fill="white"/>
<path d="M178.55 211.008C178.433 211.008 178.331 210.979 178.229 210.891L174.611 208.046C174.392 207.871 174.348 207.55 174.523 207.331C174.698 207.112 175.019 207.068 175.238 207.244L178.856 210.089C179.075 210.264 179.119 210.585 178.944 210.804C178.856 210.935 178.71 211.008 178.55 211.008Z" fill="#073E4B"/>
<path d="M314.012 121.604C313.881 121.107 313.75 120.48 313.589 119.823C312.116 118.773 310.54 117.839 308.965 116.949C307.885 116.993 306.82 117.255 305.813 117.708C304.515 116.905 302.939 116.409 301.495 117.138C300.007 117.883 299.569 119.546 300.211 121.02C300.546 121.779 301.655 121.954 302.312 121.574C302.647 121.385 302.852 121.107 302.954 120.801C304.879 122.275 308.22 123.107 309.694 123.077C311.255 123.048 311.343 125.135 310.248 125.791C309.271 126.39 312.101 128.068 312.772 128.141C313.064 128.17 313.356 128.155 313.648 128.126C314.596 126.565 314.786 124.449 314.012 121.604Z" fill="#073E4B"/>
<path d="M314.903 148.584C314.859 148.584 314.815 148.584 314.771 148.569C314.625 148.526 314.494 148.424 314.436 148.292L306.791 132.197C303.1 132.329 301.801 129.089 301.48 128.082L300.08 127.615C299.875 127.542 299.729 127.353 299.729 127.134C299.729 127.017 299.744 124.201 301.976 120.261C303.275 117.97 306.441 116.511 309.329 116.876C311.912 117.197 313.794 118.86 314.494 121.458C315.209 124.07 315.151 126.258 314.319 127.966L321.409 143.448C321.512 143.667 321.439 143.929 321.249 144.075L315.194 148.496C315.121 148.555 315.005 148.584 314.903 148.584ZM307.112 131.161C307.301 131.161 307.491 131.278 307.579 131.453L315.107 147.3L320.315 143.491L313.283 128.17C313.21 128.024 313.225 127.849 313.298 127.703C314.115 126.215 314.188 124.201 313.517 121.735C312.7 118.758 310.467 118.058 309.213 117.897C306.703 117.591 303.99 118.816 302.881 120.772C301.232 123.676 300.867 125.923 300.78 126.769L302.049 127.192C302.224 127.251 302.341 127.396 302.385 127.572C302.414 127.732 303.348 131.511 307.053 131.161C307.083 131.161 307.097 131.161 307.112 131.161Z" fill="#073E4B"/>
<path d="M281.638 158.609C281.507 158.609 281.375 158.565 281.288 158.463C281.084 158.259 281.084 157.938 281.273 157.734C281.361 157.646 290.144 148.687 298.854 143.696C299.102 143.55 299.408 143.638 299.554 143.886C299.7 144.134 299.612 144.44 299.364 144.586C290.771 149.504 282.09 158.346 282.003 158.449C281.915 158.565 281.769 158.609 281.638 158.609Z" fill="#073E4B"/>
<path d="M317.426 141.172C294.594 139.947 295.44 148.833 289.152 159.617C285.709 165.512 283.258 169.247 283.258 169.247L313.779 187.75C313.779 187.75 324.415 174.515 329.142 162.083C335.109 146.338 331.972 141.96 317.426 141.172Z" fill="white"/>
<path d="M313.779 188.262C313.692 188.262 313.59 188.232 313.517 188.189L282.996 169.686C282.879 169.613 282.791 169.496 282.762 169.365C282.733 169.234 282.762 169.088 282.835 168.971C282.864 168.927 285.33 165.192 288.715 159.37C289.838 157.458 290.713 155.62 291.56 153.839C295.513 145.609 298.387 139.656 317.456 140.677C325.188 141.086 329.317 142.531 331.243 145.493C333.344 148.703 332.848 153.723 329.609 162.273C324.911 174.647 314.275 187.955 314.173 188.087C314.071 188.189 313.925 188.262 313.779 188.262ZM283.973 169.073L313.648 187.065C315.355 184.891 324.429 172.984 328.646 161.879C331.724 153.781 332.249 148.893 330.382 146.033C328.646 143.377 324.765 142.078 317.397 141.67C298.986 140.677 296.272 146.368 292.493 154.248C291.633 156.043 290.743 157.896 289.605 159.851C286.862 164.564 284.732 167.921 283.973 169.073Z" fill="#073E4B"/>
<path d="M310.54 139.042L308.381 140.925L309.242 148.994L312.276 145.959L310.54 139.042Z" fill="white"/>
<path d="M309.242 149.505C309.183 149.505 309.125 149.49 309.067 149.476C308.877 149.403 308.746 149.242 308.731 149.053L307.87 140.983C307.856 140.823 307.914 140.648 308.045 140.546L310.205 138.678C310.336 138.561 310.526 138.532 310.701 138.576C310.876 138.634 311.007 138.765 311.051 138.941L312.787 145.857C312.831 146.032 312.772 146.222 312.656 146.339L309.621 149.374C309.504 149.447 309.373 149.505 309.242 149.505ZM308.921 141.129L309.636 147.871L311.707 145.799L310.248 139.962L308.921 141.129Z" fill="#073E4B"/>
<path d="M318.9 138.75L312.276 145.959L315.734 150.147L321.351 141.639L318.9 138.75Z" fill="white"/>
<path d="M315.734 150.657C315.588 150.657 315.442 150.584 315.34 150.468L311.882 146.28C311.722 146.075 311.722 145.798 311.897 145.608L318.535 138.4C318.637 138.298 318.739 138.225 318.929 138.24C319.075 138.24 319.221 138.312 319.308 138.415L321.759 141.304C321.905 141.479 321.92 141.727 321.803 141.917L316.186 150.424C316.099 150.555 315.953 150.643 315.792 150.657C315.748 150.657 315.734 150.657 315.734 150.657ZM312.947 145.988L315.676 149.286L320.709 141.683L318.885 139.538L312.947 145.988Z" fill="#073E4B"/>
<path d="M281.23 155.08L260.63 177.377V150.557L281.23 128.26V155.08Z" fill="#073E4B"/>
<path d="M260.63 177.886C260.571 177.886 260.498 177.872 260.44 177.857C260.25 177.784 260.119 177.594 260.119 177.375V150.555C260.119 150.424 260.163 150.307 260.25 150.205L280.851 127.909C280.997 127.748 281.215 127.704 281.42 127.777C281.609 127.85 281.741 128.04 281.741 128.259V155.079C281.741 155.21 281.697 155.327 281.609 155.429L261.009 177.726C260.907 177.828 260.761 177.886 260.63 177.886ZM261.14 150.76V176.062L280.719 154.875V129.558L261.14 150.76Z" fill="white"/>
<path d="M277.67 154.292L264.189 168.869V151.344L277.67 136.752V154.292Z" fill="white"/>
<path d="M281.23 155.08L260.63 177.377L284.338 178.223L304.938 155.927L281.23 155.08Z" fill="#073E4B"/>
<path d="M284.338 178.733H284.324L260.616 177.886C260.411 177.886 260.236 177.755 260.163 177.565C260.09 177.376 260.12 177.171 260.266 177.025L280.866 154.729C280.968 154.627 281.128 154.554 281.26 154.568L304.968 155.415C305.172 155.415 305.347 155.546 305.42 155.736C305.493 155.925 305.464 156.13 305.318 156.276L284.717 178.572C284.615 178.674 284.484 178.733 284.338 178.733ZM261.754 176.909L284.119 177.711L303.815 156.407L281.449 155.604L261.754 176.909Z" fill="white"/>
<path d="M270.084 173.291C269.982 173.291 269.88 173.261 269.778 173.189C269.544 173.028 269.5 172.707 269.661 172.474L271.412 170.066C271.572 169.832 271.893 169.789 272.126 169.949C272.36 170.11 272.404 170.431 272.243 170.664L270.492 173.072C270.39 173.218 270.244 173.291 270.084 173.291Z" fill="white"/>
<path d="M279.509 164.915C279.407 164.915 279.305 164.886 279.217 164.827C278.984 164.667 278.925 164.346 279.086 164.112L281.435 160.654C281.595 160.421 281.916 160.362 282.15 160.523C282.383 160.683 282.441 161.004 282.281 161.238L279.932 164.696C279.83 164.842 279.669 164.915 279.509 164.915Z" fill="white"/>
<path d="M279.785 169.95C279.683 169.95 279.596 169.92 279.508 169.877C279.275 169.731 279.202 169.41 279.348 169.176L284.177 161.588C284.323 161.355 284.644 161.282 284.877 161.428C285.111 161.574 285.183 161.895 285.038 162.128L280.208 169.716C280.121 169.862 279.96 169.95 279.785 169.95Z" fill="white"/>
<path d="M305.011 169.335C296.738 162.652 294.462 159.748 292.653 160.39C290.611 161.12 294.214 163.528 294.185 164.461C294.141 165.877 287.591 161.733 285.315 163.863C283.462 165.585 289.371 166.446 290.625 166.927C290.625 166.927 283.885 165.133 282.966 167.482C282.047 169.831 287.08 168.533 288.816 170.473C288.816 170.473 282.878 168.357 282.47 170.605C282.061 172.852 287.051 172.647 288.991 174.88C290.932 177.127 290.056 179.535 295.484 185.109L305.011 169.335Z" fill="white"/>
<path d="M295.484 185.635C295.353 185.635 295.221 185.576 295.119 185.474C291.589 181.855 290.64 179.477 289.955 177.726C289.561 176.748 289.254 175.96 288.612 175.216C287.839 174.311 286.409 173.815 285.155 173.377C283.448 172.779 281.668 172.166 281.974 170.503C282.062 170.036 282.324 169.657 282.762 169.408C282.893 169.335 283.039 169.263 283.214 169.219C282.922 169.073 282.674 168.883 282.529 168.62C282.31 168.256 282.31 167.803 282.514 167.293C282.908 166.286 284.06 165.892 285.388 165.79C284.921 165.512 284.615 165.177 284.513 164.783C284.44 164.476 284.454 163.995 284.994 163.484C286.555 162.025 289.546 163.003 291.734 163.703C292.362 163.907 293.164 164.17 293.602 164.228C293.441 163.98 293.106 163.601 292.872 163.338C292.128 162.477 291.355 161.602 291.574 160.77C291.676 160.361 291.997 160.07 292.508 159.88C294.054 159.325 295.601 160.668 299.365 163.893C300.926 165.235 302.866 166.899 305.361 168.912C305.58 169.087 305.609 169.408 305.434 169.627C305.259 169.846 304.938 169.875 304.719 169.7C302.21 167.672 300.269 166.009 298.694 164.651C295.353 161.791 293.85 160.478 292.843 160.828C292.668 160.887 292.566 160.96 292.566 161.003C292.493 161.31 293.237 162.171 293.646 162.638C294.258 163.338 294.74 163.893 294.725 164.447C294.711 164.71 294.594 164.929 294.39 165.075C293.879 165.439 293.062 165.191 291.413 164.651C289.458 164.024 286.803 163.163 285.68 164.199C285.534 164.33 285.476 164.447 285.49 164.491C285.651 165.104 288.393 165.775 289.429 166.038C290.042 166.184 290.524 166.3 290.815 166.417C291.063 166.519 291.209 166.797 291.122 167.059C291.034 167.322 290.772 167.468 290.509 167.395C288.452 166.84 284.031 166.184 283.462 167.628C283.404 167.774 283.346 167.964 283.418 168.066C283.594 168.372 284.6 168.518 285.403 168.635C286.774 168.839 288.321 169.073 289.225 170.08C289.386 170.255 289.4 170.517 289.269 170.707C289.138 170.897 288.89 170.984 288.671 170.911C287.11 170.357 284.265 169.686 283.287 170.255C283.127 170.357 283.039 170.474 282.995 170.649C282.864 171.378 283.696 171.743 285.505 172.371C286.891 172.852 288.452 173.392 289.415 174.501C290.173 175.377 290.524 176.267 290.947 177.303C291.647 179.054 292.508 181.228 295.892 184.715C296.097 184.92 296.082 185.241 295.878 185.445C295.747 185.576 295.615 185.635 295.484 185.635Z" fill="#073E4B"/>
<path d="M321.029 161.221C323.583 164.081 325.99 167.145 327.463 170.662C328.893 174.077 330.031 180.147 326.194 182.584C322.882 184.685 318.403 181.022 315.967 178.907C312.276 175.696 308.891 172.253 305.01 169.334C302.092 174.748 298.824 179.943 295.483 185.108C301.378 189.632 306.061 195.687 313.034 198.854C322.27 203.042 332.847 202.327 340.112 194.695C346.751 187.735 348.399 177.812 346.123 168.678C343.731 159.091 336.888 150.16 329.345 144.076L321.029 161.221Z" fill="white"/>
<path d="M324.269 201.904C320.548 201.904 316.653 201.058 312.845 199.321C308.206 197.22 304.515 193.82 300.969 190.537C299.116 188.83 297.205 187.064 295.192 185.518C294.988 185.357 294.929 185.051 295.075 184.832C298.241 179.929 301.597 174.632 304.587 169.087C304.66 168.956 304.777 168.868 304.923 168.824C305.069 168.795 305.229 168.824 305.346 168.912C307.899 170.838 310.292 173.012 312.582 175.128C313.793 176.237 315.048 177.39 316.317 178.499C319.337 181.125 323.145 183.898 325.932 182.132C329.565 179.827 328.222 173.727 327.011 170.838C325.48 167.19 322.941 164.097 320.665 161.543C320.475 161.339 320.49 161.003 320.709 160.813C320.913 160.624 321.249 160.638 321.438 160.857C323.773 163.469 326.37 166.65 327.96 170.429C329.39 173.829 330.703 180.308 326.486 182.993C322.708 185.401 317.762 181.096 315.661 179.272C314.377 178.163 313.122 176.996 311.897 175.887C309.752 173.917 307.549 171.889 305.2 170.094C302.341 175.332 299.204 180.337 296.199 184.978C298.11 186.481 299.919 188.144 301.67 189.764C305.171 192.989 308.789 196.33 313.283 198.373C323.029 202.794 333.183 201.248 339.777 194.331C345.861 187.954 348.064 178.411 345.671 168.795C343.541 160.23 337.224 151.139 328.966 144.47C328.748 144.295 328.718 143.974 328.893 143.755C329.069 143.536 329.39 143.507 329.608 143.682C338.158 150.584 344.446 159.646 346.663 168.547C349.144 178.499 346.853 188.407 340.521 195.046C336.188 199.57 330.44 201.904 324.269 201.904Z" fill="#073E4B"/>
<path d="M22.3809 279.525V236.682H39.2527V279.525H22.3809Z" stroke="#164854"/>
<path d="M43.2451 279.526V186.5H60.117V279.526H43.2451Z" stroke="#164854"/>
<path d="M64.1982 279.436V205.075H81.0701V279.436H64.1982Z" stroke="#164854"/>
<path d="M85.0635 279.526V247.071H101.935V279.526H85.0635Z" stroke="#164854"/>
<path d="M21 284.516H94.3364" stroke="#164854" stroke-miterlimit="10" stroke-linecap="round" stroke-linejoin="round"/>
<path d="M520 55.9121C520 79.5925 500.826 98.8628 477.049 98.8628C465.832 98.8628 455.67 94.5486 448 87.5499L467.366 68.1837C470.051 70.2929 473.406 71.5393 477.049 71.5393C485.678 71.5393 492.676 64.5406 492.676 55.9121C492.676 51.7896 491.526 48.4341 489.609 45.9414L509.55 26C515.973 33.1904 520 43.1611 520 55.9121Z" fill="white" stroke="#187186" stroke-miterlimit="10" stroke-linecap="round" stroke-linejoin="round"/>
<path d="M491.238 62.4314L517.603 70.1012" stroke="#187186" stroke-miterlimit="10" stroke-linecap="round" stroke-linejoin="round"/>
<path d="M492.676 55.9114H519.999" stroke="#187186" stroke-miterlimit="10" stroke-linecap="round" stroke-linejoin="round"/>
<path d="M472.975 92.1829L462.177 89.1597L469.821 75.9412L474.68 77.0119L472.975 92.1829Z" fill="white" stroke="#187186"/>
</g>
<defs>
<clipPath id="clip0">
<rect width="540" height="304.027" fill="white"/>
</clipPath>
</defs>
</svg>
