<svg width="784" height="488" viewBox="0 0 784 488" fill="none" xmlns="http://www.w3.org/2000/svg">
<rect width="784" height="488" fill="white"/>
<path d="M574.873 87.6914H455.262V207.303H574.873V87.6914Z" fill="#FFD43B"/>
<path d="M577.454 205.925V207.99H544.238L548.885 195.427L577.454 205.925Z" fill="#164854"/>
<path d="M621.683 222.275L594.663 295.074L521.863 268.054L544.237 207.99L548.883 195.427L577.452 205.925L621.683 222.275Z" stroke="#164854" stroke-width="1.89706" stroke-miterlimit="10" stroke-linecap="round" stroke-linejoin="round"/>
<path d="M485.378 274.249H341.672V417.955H485.378V274.249Z" stroke="#164854" stroke-width="1.89706" stroke-miterlimit="10" stroke-linecap="round" stroke-linejoin="round"/>
<path d="M606.679 84.0298L584.59 103.214L595.31 115.558L617.4 96.3738L606.679 84.0298Z" fill="#164854"/>
<path d="M332.723 299.722C354.109 299.722 371.446 282.385 371.446 260.998C371.446 239.612 354.109 222.275 332.723 222.275C311.337 222.275 294 239.612 294 260.998C294 282.385 311.337 299.722 332.723 299.722Z" fill="white" stroke="#164854" stroke-width="1.89706" stroke-miterlimit="10" stroke-linecap="round" stroke-linejoin="round"/>
<path d="M340.466 235.698L330.828 260.309" stroke="#164854" stroke-width="1.89706" stroke-miterlimit="10" stroke-linecap="round" stroke-linejoin="round"/>
<path d="M343.219 263.752L350.275 266.506" stroke="#164854" stroke-width="1.89706" stroke-miterlimit="10" stroke-linecap="round" stroke-linejoin="round"/>
<path d="M461.114 140.181L377.645 96.1231C384.529 85.9691 389.692 75.9871 393.306 66.5215L476.776 110.58L461.114 140.181Z" stroke="#164854" stroke-width="1.89706" stroke-miterlimit="10" stroke-linecap="round" stroke-linejoin="round"/>
<path d="M359.745 115.571L443.215 159.63C436.847 168.751 432.2 177.7 429.103 186.478L345.633 142.419L359.745 115.571Z" fill="white" stroke="#164854" stroke-width="1.89706" stroke-miterlimit="10" stroke-linecap="round" stroke-linejoin="round"/>
<path d="M342.534 139.838L432.716 187.51C427.381 194.567 423.767 201.623 421.529 208.507L331.52 160.834L342.534 139.838Z" fill="white" stroke="#164854" stroke-width="1.89706" stroke-miterlimit="10" stroke-linecap="round" stroke-linejoin="round"/>
<path d="M412.408 236.56L307.941 181.315C314.309 172.71 318.784 164.105 321.538 155.672L426.004 210.917L412.408 236.56Z" fill="white" stroke="#164854" stroke-width="1.89706" stroke-miterlimit="10" stroke-linecap="round" stroke-linejoin="round"/>
<path d="M457.671 167.375L355.27 113.163C361.121 105.762 364.907 98.1897 367.145 90.6172L469.546 144.83L457.671 167.375Z" stroke="#164854" stroke-width="1.89706" stroke-miterlimit="10" stroke-linecap="round" stroke-linejoin="round"/>
<path d="M391.582 70.998L473.675 114.368" stroke="#164854" stroke-width="1.89706" stroke-miterlimit="10" stroke-linecap="round" stroke-linejoin="round"/>
<path d="M380.566 91.6484L462.659 135.19" stroke="#164854" stroke-width="1.89706" stroke-miterlimit="10" stroke-linecap="round" stroke-linejoin="round"/>
<path d="M419.121 91.4756L451.304 108.514" stroke="#164854" stroke-width="1.89706" stroke-miterlimit="10" stroke-linecap="round" stroke-linejoin="round"/>
<path d="M486.069 115.055L418.949 79.6017C425.661 69.2755 430.824 59.4656 434.611 50L501.731 85.4531L486.069 115.055Z" stroke="#164854" stroke-width="1.89706" stroke-miterlimit="10" stroke-linecap="round" stroke-linejoin="round"/>
<path d="M474.878 100.943L469.543 98.1891C472.813 92.1655 475.739 86.4861 478.492 81.4951L483.827 84.2488L474.878 100.943Z" fill="white" stroke="#164854" stroke-width="1.89706" stroke-miterlimit="10" stroke-linecap="round" stroke-linejoin="round"/>
<path d="M392.441 90.0996L412.405 100.77" stroke="#164854" stroke-width="1.89706" stroke-miterlimit="10" stroke-linecap="round" stroke-linejoin="round"/>
<path d="M447.875 142.539L405.434 120.082L401.811 126.927L444.253 149.385L447.875 142.539Z" stroke="#164854" stroke-width="1.89706" stroke-miterlimit="10" stroke-linecap="round" stroke-linejoin="round"/>
<path d="M376.653 130.442L366.309 124.969L357.615 141.398L367.96 146.871L376.653 130.442Z" fill="#164854"/>
<path d="M357.68 154.123L414.301 184.241" stroke="#164854" stroke-width="1.89706" stroke-miterlimit="10" stroke-linecap="round" stroke-linejoin="round"/>
<path d="M375.406 172.363L408.966 190.09" stroke="#164854" stroke-width="1.89706" stroke-miterlimit="10" stroke-linecap="round" stroke-linejoin="round"/>
<path d="M337.715 158.253L354.753 167.374" stroke="#164854" stroke-width="1.89706" stroke-miterlimit="10" stroke-linecap="round" stroke-linejoin="round"/>
<path d="M403.063 204.821L360.926 182.524L352.957 197.584L395.095 219.881L403.063 204.821Z" fill="white" stroke="#164854" stroke-width="1.89706" stroke-miterlimit="10" stroke-linecap="round" stroke-linejoin="round"/>
<path d="M491.751 132.609C496.915 122.627 509.994 127.618 512.404 135.19C514.813 142.763 513.608 147.582 513.608 147.582L510.511 147.926C510.511 147.926 507.069 155.154 499.84 152.917L481.253 168.062L461.117 165.997L489.686 143.795C488.826 140.87 489.342 137.083 491.751 132.609Z" stroke="#164854" stroke-width="1.89706" stroke-miterlimit="10" stroke-linecap="round" stroke-linejoin="round"/>
<path d="M511.889 133.985C510.168 138.632 502.251 137.771 498.809 136.739C496.055 136.05 495.195 139.664 496.744 141.213C498.293 142.59 492.613 144.483 491.409 144.311C490.892 144.311 490.376 144.139 489.86 143.967C488.827 140.869 489.343 137.083 491.753 132.436C496.744 123.315 508.619 127.273 511.889 133.985Z" fill="#164854"/>
<path d="M569.368 403.153C569.368 403.153 566.443 431.894 565.41 437.745L625.99 437.573C625.99 437.573 624.269 419.33 609.813 418.986L606.887 395.408L569.368 403.153Z" fill="white" stroke="#164854" stroke-width="1.89706" stroke-miterlimit="10" stroke-linecap="round" stroke-linejoin="round"/>
<path d="M608.265 417.094L599.832 412.447" stroke="#164854" stroke-width="1.89706" stroke-miterlimit="10" stroke-linecap="round" stroke-linejoin="round"/>
<path d="M600.691 418.987L608.608 410.898" stroke="#164854" stroke-width="1.89706" stroke-miterlimit="10" stroke-linecap="round" stroke-linejoin="round"/>
<path d="M326.188 355.826C326.188 355.826 305.02 359.612 298.996 360.301L314.141 418.988C314.141 418.988 331.351 411.932 328.081 397.991L350.111 389.386L326.188 355.826Z" fill="white" stroke="#164854" stroke-width="1.89706" stroke-miterlimit="10" stroke-linecap="round" stroke-linejoin="round"/>
<path d="M326.188 355.826C397.094 339.477 427.384 282.166 428.933 228.815C429.277 212.465 445.455 206.958 457.158 211.604C461.116 210.4 465.591 210.4 469.893 211.26C559.387 230.88 613.427 320.889 609.813 405.908L569.024 403.843C571.434 338.96 533.227 274.594 468.344 253.081C461.632 317.62 422.737 380.781 339.439 394.377C335.137 381.47 331.006 368.562 326.188 355.826Z" fill="white" stroke="#164854" stroke-width="1.89706" stroke-miterlimit="10" stroke-linecap="round" stroke-linejoin="round"/>
<path d="M464.901 274.251C452.682 330.356 414.303 381.299 341.676 394.034V351.353C383.153 337.068 408.28 307.467 420.327 274.251H464.901V274.251Z" fill="#164854"/>
<path d="M329.457 395.755L331.866 386.634" stroke="#164854" stroke-width="1.89706" stroke-miterlimit="10" stroke-linecap="round" stroke-linejoin="round"/>
<path d="M325.844 389.042L335.481 394.549" stroke="#164854" stroke-width="1.89706" stroke-miterlimit="10" stroke-linecap="round" stroke-linejoin="round"/>
<path d="M435.816 230.189V287.5" stroke="#164854" stroke-width="1.89706" stroke-miterlimit="10" stroke-linecap="round" stroke-linejoin="round"/>
<path d="M451.82 216.077V287.5" stroke="#164854" stroke-width="1.89706" stroke-miterlimit="10" stroke-linecap="round" stroke-linejoin="round"/>
<path d="M467.828 257.038V216.077" stroke="#164854" stroke-width="1.89706" stroke-miterlimit="10" stroke-linecap="round" stroke-linejoin="round"/>
<path d="M483.66 259.447V216.077" stroke="#164854" stroke-width="1.89706" stroke-miterlimit="10" stroke-linecap="round" stroke-linejoin="round"/>
<path d="M499.664 268.225V220.896" stroke="#164854" stroke-width="1.89706" stroke-miterlimit="10" stroke-linecap="round" stroke-linejoin="round"/>
<path d="M515.672 280.099V228.812" stroke="#164854" stroke-width="1.89706" stroke-miterlimit="10" stroke-linecap="round" stroke-linejoin="round"/>
<path d="M531.676 296.106V239.14" stroke="#164854" stroke-width="1.89706" stroke-miterlimit="10" stroke-linecap="round" stroke-linejoin="round"/>
<path d="M547.684 318.649V252.39" stroke="#164854" stroke-width="1.89706" stroke-miterlimit="10" stroke-linecap="round" stroke-linejoin="round"/>
<path d="M563.688 357.373V269.257" stroke="#164854" stroke-width="1.89706" stroke-miterlimit="10" stroke-linecap="round" stroke-linejoin="round"/>
<path d="M579.695 404.529V291.458" stroke="#164854" stroke-width="1.89706" stroke-miterlimit="10" stroke-linecap="round" stroke-linejoin="round"/>
<path d="M595.699 405.219V323.471" stroke="#164854" stroke-width="1.89706" stroke-miterlimit="10" stroke-linecap="round" stroke-linejoin="round"/>
<path d="M478.328 161.35C444.768 159.629 443.392 163.76 437.54 185.272C431.689 206.613 427.902 224.856 427.902 224.856L493.129 218.66C493.129 218.66 497.088 197.836 500.013 185.961C502.939 174.086 504.66 162.727 478.328 161.35Z" fill="#164854"/>
<path d="M359.403 222.275C347.528 216.768 330.49 209.712 332.727 206.786C334.964 203.86 339.955 208.335 340.3 205.925C340.644 203.516 326.703 195.083 327.392 191.641C328.08 188.199 338.406 196.804 339.955 196.116C341.504 195.427 329.973 188.543 331.867 185.273C333.76 182.003 344.086 190.953 345.807 188.715C347.528 186.478 334.62 183.208 338.062 180.799C341.332 178.389 354.584 184.757 370.418 198.525" fill="white"/>
<path d="M359.403 222.275C347.528 216.768 330.49 209.712 332.727 206.786C334.964 203.86 339.955 208.335 340.3 205.925C340.644 203.516 326.703 195.083 327.392 191.641C328.08 188.199 338.406 196.804 339.955 196.116C341.504 195.427 329.973 188.543 331.867 185.273C333.76 182.003 344.086 190.953 345.807 188.715C347.528 186.478 334.62 183.208 338.062 180.799C341.332 178.389 354.584 184.757 370.418 198.525" stroke="#164854" stroke-width="1.89706" stroke-miterlimit="10" stroke-linecap="round" stroke-linejoin="round"/>
<path d="M471.271 170.645C463.354 168.407 457.158 173.398 454.405 180.282C440.808 213.842 396.578 221.759 370.763 197.493C370.246 196.976 369.73 196.632 369.214 196.288C363.534 203.688 359.06 211.949 355.273 220.382C374.893 236.732 401.397 243.444 426.524 237.076C451.823 230.536 471.271 211.433 480.908 187.683C483.662 180.627 477.81 172.366 471.271 170.645Z" fill="#164854"/>
<path d="M457.848 219.349C464.732 212.465 478.5 188.198 480.049 180.97" stroke="white" stroke-width="1.89706" stroke-miterlimit="10" stroke-linecap="round" stroke-linejoin="round"/>
<path d="M428.418 206.097C439.777 201.622 453.029 181.142 456.299 174.946" stroke="white" stroke-width="1.89706" stroke-miterlimit="10" stroke-linecap="round" stroke-linejoin="round"/>
</svg>
