<svg width="784" height="488" viewBox="0 0 784 488" fill="none" xmlns="http://www.w3.org/2000/svg">
<rect width="784" height="488" fill="white"/>
<path d="M441.278 155.266H349.145V415.417H441.278V155.266Z" fill="#FFD43B"/>
<path d="M407.735 353.846L409.971 173.455H380.602L382.838 353.846H407.735Z" fill="#164854"/>
<path d="M407.288 380.53H383.285" stroke="#164854" stroke-width="1.49084" stroke-miterlimit="10" stroke-linecap="round" stroke-linejoin="round"/>
<path d="M407.434 372.183L407.583 362.194H382.984L383.133 372.183H407.434Z" fill="#164854"/>
<path d="M367.48 181.504H423.089L395.955 135.885L367.48 181.504Z" fill="#164854"/>
<path d="M485.293 361.908C489.765 375.921 497.518 398.88 497.518 398.88C497.518 398.88 488.871 402.458 490.809 410.658H523.309C523.607 410.062 510.19 365.038 504.823 354.155C500.052 356.392 485.293 361.908 485.293 361.908Z" fill="white" stroke="#003946" stroke-width="1.49084" stroke-miterlimit="10" stroke-linecap="round" stroke-linejoin="round"/>
<path d="M545.82 344.017C559.089 350.428 588.309 362.354 588.309 362.354C588.309 362.354 586.52 372.343 596.956 376.368L607.839 347.893C607.69 347.297 571.015 333.283 556.405 323.443C554.467 328.363 545.82 344.017 545.82 344.017Z" fill="#003946"/>
<path d="M552.081 350.576C555.51 343.569 561.622 332.686 565.2 325.828C531.507 307.342 513.17 269.624 507.505 231.757C496.771 228.924 486.186 225.793 475.899 221.917C475.601 222.662 475.303 223.408 475.154 224.302C465.612 271.86 467.699 321.356 481.862 367.721C489.466 366.23 503.181 362.503 510.636 360.714C501.392 330.599 491.106 301.08 492.596 269.624C502.883 303.019 522.115 334.475 552.081 350.576Z" fill="#003946"/>
<path d="M551.78 349.534C541.941 344.167 532.996 336.862 524.945 327.917V285.875C535.083 303.616 548.351 317.183 564.303 326.128C562.813 328.96 561.024 332.389 559.085 335.967C556.402 340.738 553.718 345.658 551.78 349.534Z" fill="white"/>
<path d="M525.69 288.558C535.53 305.106 548.202 317.778 563.259 326.425C561.917 329.109 560.128 332.24 558.339 335.669C555.954 340.141 553.42 344.763 551.482 348.639C542.089 343.421 533.442 336.265 525.69 327.767V288.558ZM524.199 283.042V328.214C532.25 337.159 541.493 344.912 552.227 350.577C555.656 343.57 561.768 332.687 565.346 325.829C547.307 315.989 533.741 300.783 524.199 283.042Z" fill="#003946"/>
<path d="M495.879 391.725H517.794" stroke="#003946" stroke-width="1.49084" stroke-miterlimit="10" stroke-linecap="round" stroke-linejoin="round"/>
<path d="M589.652 340.291L583.391 359.672" stroke="white" stroke-width="1.49084" stroke-miterlimit="10" stroke-linecap="round" stroke-linejoin="round"/>
<path d="M497.516 399.029H502.435" stroke="#003946" stroke-width="1.49084" stroke-miterlimit="10" stroke-linecap="round" stroke-linejoin="round"/>
<path d="M588.309 362.354L590.098 359.224" stroke="white" stroke-width="1.49084" stroke-miterlimit="10" stroke-linecap="round" stroke-linejoin="round"/>
<path d="M488.422 249.35C488.869 255.164 492 266.792 492 266.792" stroke="white" stroke-width="1.49084" stroke-miterlimit="10" stroke-linecap="round" stroke-linejoin="round"/>
<path d="M410.303 159.749L408.066 156.32L417.757 145.139L434.901 141.412L431.622 159.749L419.248 157.512L410.303 159.749Z" fill="white"/>
<path d="M435.051 141.114C422.528 138.878 418.055 142.009 413.881 145.14C411.794 146.78 408.365 151.998 408.066 155.725" fill="white"/>
<path d="M435.051 141.114C422.528 138.878 418.055 142.009 413.881 145.14C411.794 146.78 408.365 151.998 408.066 155.725C408.215 158.408 409.587 162.732 413.881 158.558C418.174 154.383 423.72 158.061 425.211 158.558L431.174 148.867L435.051 141.114Z" stroke="#003946" stroke-width="1.49084" stroke-miterlimit="10" stroke-linecap="round" stroke-linejoin="round"/>
<path d="M408.512 154.531C411.941 151.102 414.475 149.015 414.475 149.015L408.512 154.531Z" fill="white"/>
<path d="M408.512 154.531C411.941 151.102 414.475 149.015 414.475 149.015" stroke="#003946" stroke-width="1.49084" stroke-miterlimit="10" stroke-linecap="round" stroke-linejoin="round"/>
<path d="M409.559 157.799C412.988 154.37 415.522 152.283 415.522 152.283L409.559 157.799Z" fill="white"/>
<path d="M409.559 157.799C412.988 154.37 415.522 152.283 415.522 152.283" stroke="#003946" stroke-width="1.49084" stroke-miterlimit="10" stroke-linecap="round" stroke-linejoin="round"/>
<path d="M417.459 152.742C416.118 157.96 412.092 158.258 413.434 161.538C414.776 164.967 421.186 156.469 427.001 157.96" fill="white"/>
<path d="M417.459 152.742C416.118 157.96 412.092 158.258 413.434 161.538C414.776 164.967 421.186 156.469 427.001 157.96" stroke="#003946" stroke-width="1.49084" stroke-miterlimit="10" stroke-linecap="round" stroke-linejoin="round"/>
<path d="M547.312 261.724C552.53 265.749 552.381 269.923 554.767 272.309C557.152 274.694 557.45 269.774 557.45 267.389C557.45 265.004 562.519 273.8 564.755 272.458C566.992 271.116 562.072 265.153 562.072 265.153C562.072 265.153 566.544 271.712 568.482 269.774C570.42 267.836 564.755 261.575 564.755 261.575C564.755 261.575 568.93 267.687 570.719 266.345C572.508 265.004 566.693 255.91 556.108 246.815" fill="white"/>
<path d="M547.312 261.724C552.53 265.749 552.381 269.923 554.767 272.309C557.152 274.694 557.45 269.774 557.45 267.389C557.45 265.004 562.519 273.8 564.755 272.458C566.992 271.116 562.072 265.153 562.072 265.153C562.072 265.153 566.544 271.712 568.482 269.774C570.42 267.836 564.755 261.575 564.755 261.575C564.755 261.575 568.93 267.687 570.719 266.345C572.508 265.004 566.693 255.91 556.108 246.815" stroke="#003946" stroke-width="1.49084" stroke-miterlimit="10" stroke-linecap="round" stroke-linejoin="round"/>
<path d="M547.314 261.722C537.474 255.61 518.69 240.403 509.446 231.011C509.297 232.651 508.701 235.931 508.254 239.062C505.123 237.72 471.43 224.75 471.43 224.75L477.095 210.587C476.499 207.456 477.99 203.431 481.866 198.66C469.343 181.515 446.682 163.476 425.363 157.96L435.203 141.263C460.1 147.673 480.971 169.141 495.582 189.119C496.029 189.715 496.476 190.311 496.923 190.908C499.756 194.635 503.185 198.511 506.763 202.387C522.566 219.383 543.885 236.825 556.11 247.112L547.314 261.722Z" fill="white" stroke="#003946" stroke-width="1.49084" stroke-miterlimit="10" stroke-linecap="round" stroke-linejoin="round"/>
<path d="M511.086 169.141C505.868 169.44 503.185 171.229 503.185 171.229L503.632 173.167C503.632 173.167 500.054 176.894 503.185 180.621L499.457 194.187C498.861 193.442 498.116 192.548 497.519 191.653L493.047 203.878L506.017 202.238L506.613 202.089C506.464 201.94 511.086 184.497 511.086 184.497C511.235 184.497 511.682 184.497 511.682 184.348C511.831 184.348 512.13 184.199 512.428 184.199H512.577C512.726 184.199 512.875 184.05 513.173 184.05C513.471 183.901 513.919 183.752 514.217 183.603C514.366 183.453 514.664 183.304 514.813 183.155C515.708 182.559 516.602 181.814 517.497 180.77C521.969 175.552 516.155 168.843 511.086 169.141Z" fill="white" stroke="#003946" stroke-width="1.49084" stroke-miterlimit="10" stroke-linecap="round" stroke-linejoin="round"/>
<path d="M510.937 179.876C509.744 179.279 509.893 183.156 510.34 183.752C510.489 184.05 511.682 191.355 513.024 194.784C514.664 199.108 518.093 203.282 521.372 206.413C525.845 210.736 534.641 213.121 540.306 209.842C545.226 207.009 546.568 200.747 543.735 196.126C541.797 192.846 538.07 191.057 534.641 189.566C532.554 188.672 530.318 188.224 528.23 187.33C521.969 184.795 521.074 182.112 519.882 176.149C519.733 175.552 519.285 175.254 518.838 175.105C517.944 171.676 514.366 168.844 511.086 169.142C510.638 171.974 512.129 176.149 513.173 177.639C514.216 179.13 512.278 180.621 510.937 179.876Z" fill="#003946"/>
<path d="M348.134 241.734H256V415.119H348.134V241.734Z" stroke="white" stroke-width="1.49084" stroke-miterlimit="10" stroke-linecap="round" stroke-linejoin="round"/>
<path d="M296.552 392.31L295.36 364.58L267.928 366.369L276.873 374.569L261.07 392.011L271.804 401.702L287.607 384.259L296.552 392.31Z" fill="#FFD43B"/>
<path d="M296.403 322.986L332.631 324.775L333.674 288.846L322.046 299.431L301.025 276.621L287.16 289.442L308.032 312.252L296.403 322.986Z" fill="white" stroke="#164854" stroke-width="1.49084" stroke-miterlimit="10" stroke-linecap="round" stroke-linejoin="round"/>
<path d="M275.68 339.235L307.435 336.999L308.776 380.83H326.368L336.208 405.13" stroke="white" stroke-width="1.49084" stroke-miterlimit="10" stroke-linecap="round" stroke-linejoin="round"/>
<path d="M262.262 352.802L262.709 301.368L278.512 302.262L291.184 262.904L308.776 266.482L317.274 246.207" stroke="white" stroke-width="1.49084" stroke-miterlimit="10" stroke-linecap="round" stroke-linejoin="round"/>
<path d="M331.883 271.998C331.883 275.291 329.213 277.961 325.92 277.961C322.626 277.961 319.956 275.291 319.956 271.998C319.956 268.704 322.626 266.034 325.92 266.034C329.213 266.034 331.883 268.704 331.883 271.998Z" stroke="white" stroke-width="1.49084"/>
<path d="M275.68 355.932C278.15 355.932 280.152 353.93 280.152 351.46C280.152 348.99 278.15 346.987 275.68 346.987C273.209 346.987 271.207 348.99 271.207 351.46C271.207 353.93 273.209 355.932 275.68 355.932Z" fill="#FFD43B"/>
<path d="M321.279 362.841L315.082 366.419L318.66 372.616L324.857 369.038L321.279 362.841Z" stroke="white" stroke-width="1.49084" stroke-miterlimit="10" stroke-linecap="round" stroke-linejoin="round"/>
<path d="M319.363 338.788H332.184" stroke="white" stroke-width="1.49084" stroke-miterlimit="10" stroke-linecap="round" stroke-linejoin="round"/>
<path d="M319.363 345.199H332.184" stroke="white" stroke-width="1.49084" stroke-miterlimit="10" stroke-linecap="round" stroke-linejoin="round"/>
<g opacity="0.3">
<path d="M352.331 35.9997L294.762 61.748L325.197 129.797L382.767 104.049L352.331 35.9997Z" fill="#187186" stroke="#164854" stroke-width="1.49084" stroke-miterlimit="10" stroke-linecap="round" stroke-linejoin="round"/>
<path d="M316.938 76.3478L351.525 60.9922" stroke="#164854" stroke-width="1.49084" stroke-miterlimit="10" stroke-linecap="round" stroke-linejoin="round"/>
<path d="M351.973 77.093C353.911 76.1985 355.7 75.4531 357.638 74.5586L351.973 77.093Z" fill="#187186"/>
<path d="M351.973 77.093C353.911 76.1985 355.7 75.4531 357.638 74.5586" stroke="#164854" stroke-width="1.49084" stroke-miterlimit="10" stroke-linecap="round" stroke-linejoin="round"/>
<path d="M322.902 90.0638C329.313 87.2313 335.724 84.3987 342.134 81.417L322.902 90.0638Z" fill="#187186"/>
<path d="M322.902 90.0638C329.313 87.2313 335.724 84.3987 342.134 81.417" stroke="#164854" stroke-width="1.49084" stroke-miterlimit="10" stroke-linecap="round" stroke-linejoin="round"/>
</g>
</svg>
