<svg width="778" height="448" viewBox="0 0 778 448" fill="none" xmlns="http://www.w3.org/2000/svg">
<g clip-path="url(#clip0)">
<rect width="778" height="448" fill="#164855"/>
<g opacity="0.1">
<line x1="0.0683594" y1="-154" x2="0.068327" y2="601.529" stroke="white"/>
<line x1="32.9766" y1="-154" x2="32.9765" y2="601.529" stroke="white"/>
<line x1="65.8887" y1="-154" x2="65.8886" y2="601.529" stroke="white"/>
<line x1="98.7988" y1="-154" x2="98.7988" y2="601.529" stroke="white"/>
<line x1="131.709" y1="-154" x2="131.709" y2="601.529" stroke="white"/>
<line x1="164.617" y1="-154" x2="164.617" y2="601.529" stroke="white"/>
<line x1="197.527" y1="-154" x2="197.527" y2="601.529" stroke="white"/>
<line x1="230.438" y1="-154" x2="230.437" y2="601.529" stroke="white"/>
<line x1="263.348" y1="-154" x2="263.348" y2="601.529" stroke="white"/>
<line x1="296.258" y1="-154" x2="296.258" y2="601.529" stroke="white"/>
<line x1="329.164" y1="-154" x2="329.164" y2="601.529" stroke="white"/>
<line x1="362.076" y1="-154" x2="362.076" y2="601.529" stroke="white"/>
<line x1="394.986" y1="-154" x2="394.986" y2="601.529" stroke="white"/>
<line x1="427.896" y1="-154" x2="427.896" y2="601.529" stroke="white"/>
<line x1="460.807" y1="-154" x2="460.807" y2="601.529" stroke="white"/>
<line x1="493.715" y1="-154" x2="493.715" y2="601.529" stroke="white"/>
<line x1="526.625" y1="-154" x2="526.625" y2="601.529" stroke="white"/>
<line x1="559.535" y1="-154" x2="559.535" y2="601.529" stroke="white"/>
<line x1="592.445" y1="-154" x2="592.445" y2="601.529" stroke="white"/>
<line x1="625.355" y1="-154" x2="625.355" y2="601.529" stroke="white"/>
<line x1="658.266" y1="-154" x2="658.266" y2="601.529" stroke="white"/>
<line x1="691.174" y1="-154" x2="691.174" y2="601.529" stroke="white"/>
<line x1="724.084" y1="-154" x2="724.084" y2="601.529" stroke="white"/>
<line x1="756.994" y1="-154" x2="756.994" y2="601.529" stroke="white"/>
<path d="M1105.97 95.1807H-327.963" stroke="white"/>
<path d="M1105.97 61.6377H-327.963" stroke="white"/>
<path d="M1105.97 28.0938H-327.963" stroke="white"/>
<path d="M1105.97 128.725H-327.963" stroke="white"/>
<path d="M1105.97 162.269H-327.963" stroke="white"/>
<path d="M1105.97 195.812H-327.963" stroke="white"/>
<path d="M1105.97 229.355H-327.963" stroke="white"/>
<path d="M1105.97 262.898H-327.963" stroke="white"/>
<path d="M1105.97 296.442H-327.963" stroke="white"/>
<path d="M1105.97 329.986H-327.963" stroke="white"/>
<path d="M1105.97 363.529H-327.963" stroke="white"/>
<path d="M1105.97 397.073H-327.963" stroke="white"/>
<path d="M1105.97 430.617H-327.963" stroke="white"/>
</g>
<path d="M678.169 102.074L657.18 286.704L410.306 258.63L431.259 74.0686L678.169 102.074Z" stroke="white"/>
<path d="M429.397 82.7442C429.121 82.6022 428.951 82.2528 428.954 81.9054C429.029 81.4196 429.45 81.1115 429.866 81.1508L677.804 109.373C678.29 109.448 678.598 109.868 678.558 110.285C678.484 110.771 678.063 111.079 677.647 111.04L429.709 82.8172C429.604 82.8508 429.466 82.7798 429.397 82.7442Z" fill="white"/>
<path d="M427.284 228.855C427.008 228.713 426.838 228.363 426.842 228.016C426.916 227.53 427.337 227.222 427.754 227.261L642.438 251.679C642.924 251.754 643.232 252.175 643.193 252.591C643.118 253.077 642.698 253.385 642.281 253.346L427.596 228.928C427.423 228.926 427.353 228.89 427.284 228.855Z" fill="white"/>
<path d="M440.333 214.679C440.195 214.608 440.126 214.573 440.023 214.432C439.784 214.048 439.859 213.562 440.244 213.323L488.522 180.906C488.803 180.701 489.324 180.706 489.529 180.987L520.855 211.668L583.261 129.815C583.437 129.643 583.681 129.507 583.96 129.475C584.203 129.513 584.515 129.585 584.582 129.795L602.06 152.401L635.569 139.041C635.987 138.907 636.507 139.086 636.641 139.504C636.776 139.923 636.596 140.442 636.178 140.577L602.041 154.139C601.692 154.309 601.311 154.2 601.036 153.884L583.902 131.629L521.567 213.344C521.391 213.516 521.216 213.688 520.973 213.651C520.695 213.682 520.487 213.576 520.315 213.4L488.817 182.543L441.133 214.653C440.888 214.789 440.61 214.821 440.333 214.679Z" fill="white"/>
<path d="M434.338 126.865C434.062 126.723 433.892 126.373 433.895 126.026C433.97 125.54 434.391 125.232 434.807 125.271L439.771 125.812C442.062 126.115 444.13 124.47 444.364 122.144C444.48 121.068 444.179 119.952 443.494 119.076C442.808 118.2 441.771 117.667 440.695 117.551C437.502 117.134 435.205 114.294 435.553 111.066C435.744 109.504 436.454 108.122 437.715 107.197C438.907 106.237 440.441 105.802 442.003 105.993L446.967 106.534C447.452 106.609 447.761 107.029 447.721 107.446C447.646 107.931 447.226 108.239 446.809 108.2L441.846 107.659C440.769 107.543 439.654 107.844 438.778 108.529C437.901 109.215 437.369 110.251 437.253 111.327C436.95 113.618 438.596 115.686 440.922 115.92C442.483 116.111 443.866 116.821 444.79 118.082C445.75 119.275 446.186 120.808 445.995 122.37C445.578 125.563 442.738 127.86 439.509 127.512L434.545 126.971C434.476 126.936 434.407 126.9 434.338 126.865Z" fill="white"/>
<path d="M438.955 130.459C438.678 130.317 438.509 129.968 438.512 129.62L441.436 103.692C441.511 103.207 441.931 102.898 442.348 102.938C442.834 103.013 443.142 103.433 443.103 103.85L440.179 129.777C440.104 130.263 439.684 130.571 439.267 130.532C439.129 130.461 439.024 130.495 438.955 130.459Z" fill="white"/>
<path d="M412.551 136.113C412.275 135.971 412.105 135.621 412.108 135.274C412.183 134.788 412.604 134.48 413.02 134.519L475.43 141.597C475.673 141.634 476.019 141.812 476.119 142.126L488.933 171.771C489.068 172.189 488.888 172.709 488.47 172.843C488.051 172.977 487.532 172.798 487.397 172.379L474.718 143.153L412.725 136.115C412.689 136.184 412.62 136.148 412.551 136.113Z" fill="white"/>
<path d="M739 163L647.5 170.5L652 229L743.5 221.5L739 163Z" fill="#164855" stroke="#4EC6D0"/>
<path d="M687.333 209.021C686.96 208.914 686.726 208.604 686.662 208.262C686.642 207.771 687.017 207.313 687.508 207.293L692.899 206.826C695.376 206.65 697.228 204.435 697.053 201.958C696.928 200.709 696.418 199.673 695.427 198.902C694.511 198.152 693.338 197.733 692.163 197.88C688.683 198.17 685.626 195.59 685.335 192.11C685.168 190.445 685.738 188.749 686.819 187.524C687.922 186.225 689.439 185.449 691.18 185.304L696.571 184.837C697.062 184.817 697.52 185.192 697.54 185.683C697.561 186.174 697.186 186.632 696.695 186.652L691.303 187.119C690.054 187.244 689.018 187.754 688.247 188.744C687.497 189.66 687.078 190.833 687.225 192.008C687.4 194.485 689.616 196.336 692.093 196.161C693.758 195.994 695.454 196.564 696.679 197.645C697.978 198.748 698.754 200.265 698.899 202.005C699.19 205.486 696.61 208.543 693.129 208.833L687.738 209.3C687.557 209.086 687.482 209.065 687.333 209.021Z" fill="white"/>
<path d="M692.984 211.864C692.61 211.757 692.376 211.447 692.313 211.105L690.001 182.943C689.981 182.452 690.355 181.994 690.846 181.974C691.338 181.954 691.796 182.328 691.816 182.819L694.128 210.981C694.148 211.472 693.773 211.93 693.282 211.951C693.208 211.929 693.133 211.907 692.984 211.864Z" fill="white"/>
<path d="M706.038 207.541C705.665 207.433 705.431 207.123 705.368 206.782C705.348 206.29 705.722 205.832 706.213 205.812L711.605 205.345C712.854 205.22 713.891 204.71 714.662 203.72C715.411 202.804 715.83 201.631 715.683 200.456C715.508 197.98 713.292 196.128 710.816 196.303C709.15 196.47 707.454 195.9 706.229 194.819C704.93 193.716 704.154 192.199 704.009 190.459C703.842 188.793 704.412 187.097 705.493 185.873C706.596 184.573 708.113 183.798 709.853 183.653L715.245 183.186C715.736 183.165 716.194 183.54 716.214 184.031C716.234 184.522 715.86 184.98 715.369 185L709.977 185.467C708.728 185.592 707.691 186.102 706.92 187.093C706.171 188.009 705.752 189.182 705.899 190.357C706.024 191.606 706.533 192.642 707.524 193.413C708.44 194.162 709.614 194.582 710.788 194.435C714.268 194.145 717.326 196.725 717.616 200.205C717.783 201.87 717.213 203.566 716.132 204.791C715.029 206.09 713.512 206.866 711.772 207.011L706.38 207.478C706.284 207.531 706.113 207.562 706.038 207.541Z" fill="white"/>
<path d="M711.689 210.384C711.315 210.276 711.081 209.966 711.018 209.624L708.706 181.462C708.686 180.971 709.06 180.513 709.552 180.493C710.043 180.473 710.501 180.848 710.521 181.339L712.833 209.501C712.853 209.992 712.478 210.45 711.987 210.47C711.913 210.449 711.838 210.427 711.689 210.384Z" fill="white"/>
<path d="M651.888 229.854C651.515 229.747 651.281 229.437 651.217 229.095L646.449 170.465C646.439 170.219 646.504 169.995 646.643 169.793C646.782 169.591 647.049 169.506 647.22 169.474L738.821 162.004C739.312 161.984 739.77 162.358 739.79 162.849L744.558 221.479C744.568 221.725 744.504 221.949 744.364 222.151C744.225 222.354 743.958 222.438 743.787 222.47L652.283 229.887C652.037 229.897 651.963 229.876 651.888 229.854ZM648.369 171.099L652.992 227.989L742.756 220.717L738.133 163.827L648.369 171.099Z" fill="white"/>
<path opacity="0.7" d="M148 229C154.627 229 160 223.18 160 216C160 208.82 154.627 203 148 203C141.373 203 136 208.82 136 216C136 223.18 141.373 229 148 229Z" fill="#FFD43B"/>
<path d="M661.342 75C661.236 75 661.183 75 661.077 74.9483L655.339 72.1568C655.02 72.0017 654.914 71.6399 655.073 71.3297C655.233 71.0196 655.605 70.9162 655.923 71.0712L661.661 73.8627C661.98 74.0178 662.086 74.3797 661.927 74.6898C661.767 74.8966 661.555 75 661.342 75Z" fill="white"/>
<path d="M202.342 406C202.236 406 202.183 406 202.077 405.948L196.339 403.157C196.02 403.002 195.914 402.64 196.073 402.33C196.233 402.02 196.605 401.916 196.923 402.071L202.661 404.863C202.98 405.018 203.086 405.38 202.927 405.69C202.767 405.897 202.555 406 202.342 406Z" fill="white"/>
<path d="M716.586 135C716.38 135 716.226 134.936 716.123 134.679C715.918 134.359 715.969 133.91 716.278 133.654L719.054 131.154C719.311 130.897 719.671 130.962 719.877 131.346C720.082 131.667 720.031 132.115 719.722 132.372L716.946 134.872C716.843 134.936 716.74 135 716.586 135Z" fill="white"/>
<path d="M179.586 370C179.38 370 179.226 369.936 179.123 369.679C178.918 369.359 178.969 368.91 179.278 368.654L182.054 366.154C182.311 365.897 182.671 365.962 182.877 366.346C183.082 366.667 183.031 367.115 182.722 367.372L179.946 369.872C179.843 369.936 179.74 370 179.586 370Z" fill="white"/>
<path d="M178.235 395.219H131.75V411.431H178.235V395.219Z" fill="white"/>
<path d="M178.235 412.078H131.75C131.427 412.078 131.104 411.809 131.104 411.432V395.22C131.104 394.896 131.373 394.573 131.75 394.573H178.235C178.559 394.573 178.882 394.843 178.882 395.22V411.432C178.828 411.809 178.559 412.078 178.235 412.078ZM132.396 410.786H177.643V395.866H132.396V410.786Z" fill="#053844"/>
<path d="M171.017 381.7H122.646V394.95H171.017V381.7Z" fill="white"/>
<path d="M171.017 395.543H122.646C122.323 395.543 122 395.273 122 394.896V381.646C122 381.323 122.269 381 122.646 381H171.017C171.34 381 171.663 381.269 171.663 381.646V394.896C171.61 395.273 171.34 395.543 171.017 395.543ZM123.239 394.304H170.371V382.293H123.239V394.304Z" fill="#053844"/>
<path d="M131.75 395.004C131.427 395.004 131.104 394.735 131.104 394.358V381.646C131.104 381.323 131.373 381 131.75 381C132.073 381 132.396 381.269 132.396 381.646V394.358C132.396 394.735 132.127 395.004 131.75 395.004Z" fill="#053844"/>
<path d="M135.896 395.004C135.573 395.004 135.25 394.735 135.25 394.358V381.646C135.25 381.323 135.519 381 135.896 381C136.22 381 136.543 381.269 136.543 381.646V394.358C136.543 394.735 136.22 395.004 135.896 395.004Z" fill="#053844"/>
<path d="M162.453 400.121H139.668V405.777H162.453V400.121Z" fill="#FFE176"/>
<path d="M162.398 406.368H139.613C139.29 406.368 138.967 406.099 138.967 405.722V400.066C138.967 399.743 139.236 399.42 139.613 399.42H162.398C162.721 399.42 163.044 399.689 163.044 400.066V405.722C163.044 406.099 162.775 406.368 162.398 406.368ZM140.26 405.129H161.752V400.713H140.26V405.129Z" fill="#FFE176"/>
<g opacity="0.3">
<path d="M131.459 251L49 281.193L73.3449 347.781L155.804 317.588L131.459 251Z" fill="white" stroke="#073E4B" stroke-width="0.936119" stroke-miterlimit="10" stroke-linecap="round" stroke-linejoin="round"/>
<path d="M105.137 273.39L122.456 266.966" stroke="#073E4B" stroke-width="0.936119" stroke-miterlimit="10" stroke-linecap="round" stroke-linejoin="round"/>
<path d="M106.342 276.662L123.661 270.238" stroke="#073E4B" stroke-width="0.936119" stroke-miterlimit="10" stroke-linecap="round" stroke-linejoin="round"/>
<path d="M125.608 299.449C127.815 299.449 129.605 297.658 129.605 295.449C129.605 293.24 127.815 291.449 125.608 291.449C123.401 291.449 121.611 293.24 121.611 295.449C121.611 297.658 123.401 299.449 125.608 299.449Z" stroke="#073E4B" stroke-width="0.936119" stroke-miterlimit="10" stroke-linecap="round" stroke-linejoin="round"/>
<path d="M77.7676 331.205L86.2454 309.873L93.0276 314.721L106.35 287.086" stroke="#073E4B" stroke-width="0.936119" stroke-miterlimit="10" stroke-linecap="round" stroke-linejoin="round"/>
<path d="M102.473 287.085L107.559 284.661L109.982 289.267L102.473 287.085Z" fill="#073E4B"/>
</g>
<path opacity="0.3" d="M131.75 146.25V122.1H139.7V146.25H131.75Z" fill="white" stroke="white" stroke-width="1.5"/>
<path opacity="0.3" d="M143.9 146.25V93.75H151.85V146.25H143.9Z" fill="white" stroke="white" stroke-width="1.5"/>
<path opacity="0.3" d="M156.051 146.25V104.55H164.001V146.25H156.051Z" fill="white" stroke="white" stroke-width="1.5"/>
<path opacity="0.3" d="M168.199 146.25V128.85H176.149V146.25H168.199Z" fill="white" stroke="white" stroke-width="1.5"/>
<path d="M721.262 367L713 397.86L743.836 406.129L752.098 375.269L721.262 367Z" fill="#FFE176"/>
</g>
<defs>
<clipPath id="clip0">
<rect width="778" height="448" fill="white"/>
</clipPath>
</defs>
</svg>
