<svg width="778" height="448" viewBox="0 0 778 448" fill="none" xmlns="http://www.w3.org/2000/svg">
<g clip-path="url(#clip0)">
<rect width="778" height="448" fill="#164855"/>
<rect x="-648" y="-48" width="1440" height="464" fill="#164855"/>
<mask id="mask0" mask-type="alpha" maskUnits="userSpaceOnUse" x="-3" y="-48" width="793" height="464">
<rect x="-3" y="-48" width="793" height="464" fill="#164855"/>
</mask>
<g mask="url(#mask0)">
<g opacity="0.2">
<circle cx="6.74796" cy="38.0605" r="2.06046" fill="white"/>
<circle cx="6.74796" cy="314.045" r="2.06046" fill="white"/>
<circle cx="6.74796" cy="69.0253" r="2.06046" fill="white"/>
<circle cx="6.74796" cy="345.01" r="2.06046" fill="white"/>
<circle cx="6.74796" cy="99.9902" r="2.06046" fill="white"/>
<circle cx="6.74796" cy="375.975" r="2.06046" fill="white"/>
<circle cx="6.74796" cy="130.955" r="2.06046" fill="white"/>
<circle cx="6.74796" cy="406.937" r="2.06046" fill="white"/>
<circle cx="6.74796" cy="161.918" r="2.06046" fill="white"/>
<circle cx="6.74796" cy="192.883" r="2.06046" fill="white"/>
<circle cx="6.74796" cy="223.844" r="2.06046" fill="white"/>
<circle cx="6.74796" cy="254.812" r="2.06046" fill="white"/>
<circle cx="6.74796" cy="285.773" r="2.06046" fill="white"/>
<circle cx="43.0976" cy="38.0605" r="2.06046" fill="white"/>
<circle cx="43.0976" cy="314.045" r="2.06046" fill="white"/>
<circle cx="43.0976" cy="69.0253" r="2.06046" fill="white"/>
<circle cx="43.0976" cy="345.01" r="2.06046" fill="white"/>
<circle cx="43.0976" cy="99.9902" r="2.06046" fill="white"/>
<circle cx="43.0976" cy="375.975" r="2.06046" fill="white"/>
<circle cx="43.0976" cy="130.955" r="2.06046" fill="white"/>
<circle cx="43.0976" cy="406.937" r="2.06046" fill="white"/>
<circle cx="43.0976" cy="161.918" r="2.06046" fill="white"/>
<circle cx="43.0976" cy="192.883" r="2.06046" fill="white"/>
<circle cx="43.0976" cy="223.844" r="2.06046" fill="white"/>
<circle cx="43.0976" cy="254.812" r="2.06046" fill="white"/>
<circle cx="43.0976" cy="285.773" r="2.06046" fill="white"/>
<circle cx="79.4472" cy="38.0605" r="2.06046" fill="white"/>
<circle cx="79.4472" cy="314.045" r="2.06046" fill="white"/>
<circle cx="79.4472" cy="69.0253" r="2.06046" fill="white"/>
<circle cx="79.4472" cy="345.01" r="2.06046" fill="white"/>
<circle cx="79.4472" cy="99.9902" r="2.06046" fill="white"/>
<circle cx="79.4472" cy="375.975" r="2.06046" fill="white"/>
<circle cx="79.4472" cy="130.955" r="2.06046" fill="white"/>
<circle cx="79.4472" cy="406.937" r="2.06046" fill="white"/>
<circle cx="79.4472" cy="161.918" r="2.06046" fill="white"/>
<circle cx="79.4472" cy="192.883" r="2.06046" fill="white"/>
<circle cx="79.4472" cy="223.844" r="2.06046" fill="white"/>
<circle cx="79.4472" cy="254.812" r="2.06046" fill="white"/>
<circle cx="79.4472" cy="285.773" r="2.06046" fill="white"/>
<circle cx="115.799" cy="38.0605" r="2.06046" fill="white"/>
<circle cx="115.799" cy="314.045" r="2.06046" fill="white"/>
<circle cx="115.799" cy="69.0253" r="2.06046" fill="white"/>
<circle cx="115.799" cy="345.01" r="2.06046" fill="white"/>
<circle cx="115.799" cy="99.9902" r="2.06046" fill="white"/>
<circle cx="115.799" cy="375.975" r="2.06046" fill="white"/>
<circle cx="115.799" cy="130.955" r="2.06046" fill="white"/>
<circle cx="115.799" cy="406.937" r="2.06046" fill="white"/>
<circle cx="115.799" cy="161.918" r="2.06046" fill="white"/>
<circle cx="115.799" cy="192.883" r="2.06046" fill="white"/>
<circle cx="115.799" cy="223.844" r="2.06046" fill="white"/>
<circle cx="115.799" cy="254.812" r="2.06046" fill="white"/>
<circle cx="115.799" cy="285.773" r="2.06046" fill="white"/>
<circle cx="152.146" cy="38.0605" r="2.06046" fill="white"/>
<circle cx="152.146" cy="314.045" r="2.06046" fill="white"/>
<circle cx="152.146" cy="69.0253" r="2.06046" fill="white"/>
<circle cx="152.146" cy="345.01" r="2.06046" fill="white"/>
<circle cx="152.146" cy="99.9902" r="2.06046" fill="white"/>
<circle cx="152.146" cy="375.975" r="2.06046" fill="white"/>
<circle cx="152.146" cy="130.955" r="2.06046" fill="white"/>
<circle cx="152.146" cy="406.937" r="2.06046" fill="white"/>
<circle cx="152.146" cy="161.918" r="2.06046" fill="white"/>
<circle cx="152.146" cy="192.883" r="2.06046" fill="white"/>
<circle cx="152.146" cy="223.844" r="2.06046" fill="white"/>
<circle cx="152.146" cy="254.812" r="2.06046" fill="white"/>
<circle cx="152.146" cy="285.773" r="2.06046" fill="white"/>
<circle cx="188.496" cy="38.0605" r="2.06046" fill="white"/>
<circle cx="188.496" cy="314.045" r="2.06046" fill="white"/>
<circle cx="188.496" cy="69.0253" r="2.06046" fill="white"/>
<circle cx="188.496" cy="345.01" r="2.06046" fill="white"/>
<circle cx="188.496" cy="99.9902" r="2.06046" fill="white"/>
<circle cx="188.496" cy="375.975" r="2.06046" fill="white"/>
<circle cx="188.496" cy="130.955" r="2.06046" fill="white"/>
<circle cx="188.496" cy="406.937" r="2.06046" fill="white"/>
<circle cx="188.496" cy="161.918" r="2.06046" fill="white"/>
<circle cx="188.496" cy="192.883" r="2.06046" fill="white"/>
<circle cx="188.496" cy="223.844" r="2.06046" fill="white"/>
<circle cx="188.496" cy="254.812" r="2.06046" fill="white"/>
<circle cx="188.496" cy="285.773" r="2.06046" fill="white"/>
<circle cx="221.465" cy="38.0605" r="2.06046" fill="white"/>
<circle cx="221.465" cy="314.045" r="2.06046" fill="white"/>
<circle cx="221.465" cy="69.0253" r="2.06046" fill="white"/>
<circle cx="221.465" cy="345.01" r="2.06046" fill="white"/>
<circle cx="221.465" cy="99.9902" r="2.06046" fill="white"/>
<circle cx="221.465" cy="375.975" r="2.06046" fill="white"/>
<circle cx="221.465" cy="130.955" r="2.06046" fill="white"/>
<circle cx="221.465" cy="406.937" r="2.06046" fill="white"/>
<circle cx="221.465" cy="161.918" r="2.06046" fill="white"/>
<circle cx="221.465" cy="192.883" r="2.06046" fill="white"/>
<circle cx="221.465" cy="223.844" r="2.06046" fill="white"/>
<circle cx="221.465" cy="254.812" r="2.06046" fill="white"/>
<circle cx="221.465" cy="285.773" r="2.06046" fill="white"/>
<circle cx="257.816" cy="38.0605" r="2.06046" fill="white"/>
<circle cx="584.105" cy="38.0605" r="2.06046" fill="white"/>
<circle cx="257.816" cy="314.045" r="2.06046" fill="white"/>
<circle cx="584.105" cy="314.045" r="2.06046" fill="white"/>
<circle cx="257.816" cy="69.0253" r="2.06046" fill="white"/>
<circle cx="584.105" cy="69.0253" r="2.06046" fill="white"/>
<circle cx="257.816" cy="345.01" r="2.06046" fill="white"/>
<circle cx="584.105" cy="345.01" r="2.06046" fill="white"/>
<circle cx="257.816" cy="99.9902" r="2.06046" fill="white"/>
<circle cx="584.105" cy="99.9902" r="2.06046" fill="white"/>
<circle cx="257.816" cy="375.975" r="2.06046" fill="white"/>
<circle cx="584.105" cy="375.975" r="2.06046" fill="white"/>
<circle cx="257.816" cy="130.955" r="2.06046" fill="white"/>
<circle cx="584.105" cy="130.955" r="2.06046" fill="white"/>
<circle cx="257.816" cy="406.937" r="2.06046" fill="white"/>
<circle cx="584.105" cy="406.937" r="2.06046" fill="white"/>
<circle cx="257.816" cy="161.918" r="2.06046" fill="white"/>
<circle cx="584.105" cy="161.918" r="2.06046" fill="white"/>
<circle cx="257.816" cy="192.883" r="2.06046" fill="white"/>
<circle cx="584.105" cy="192.883" r="2.06046" fill="white"/>
<circle cx="257.816" cy="223.844" r="2.06046" fill="white"/>
<circle cx="584.105" cy="223.844" r="2.06046" fill="white"/>
<circle cx="257.816" cy="254.812" r="2.06046" fill="white"/>
<circle cx="584.105" cy="254.812" r="2.06046" fill="white"/>
<circle cx="257.816" cy="285.773" r="2.06046" fill="white"/>
<circle cx="584.105" cy="285.773" r="2.06046" fill="white"/>
<circle cx="294.164" cy="38.0605" r="2.06046" fill="white"/>
<circle cx="620.455" cy="38.0605" r="2.06046" fill="white"/>
<circle cx="294.164" cy="314.045" r="2.06046" fill="white"/>
<circle cx="620.455" cy="314.045" r="2.06046" fill="white"/>
<circle cx="294.164" cy="69.0253" r="2.06046" fill="white"/>
<circle cx="620.455" cy="69.0253" r="2.06046" fill="white"/>
<circle cx="294.164" cy="345.01" r="2.06046" fill="white"/>
<circle cx="620.455" cy="345.01" r="2.06046" fill="white"/>
<circle cx="294.164" cy="99.9902" r="2.06046" fill="white"/>
<circle cx="620.455" cy="99.9902" r="2.06046" fill="white"/>
<circle cx="294.164" cy="375.975" r="2.06046" fill="white"/>
<circle cx="620.455" cy="375.975" r="2.06046" fill="white"/>
<circle cx="294.164" cy="130.955" r="2.06046" fill="white"/>
<circle cx="620.455" cy="130.955" r="2.06046" fill="white"/>
<circle cx="294.164" cy="406.937" r="2.06046" fill="white"/>
<circle cx="620.455" cy="406.937" r="2.06046" fill="white"/>
<circle cx="294.164" cy="161.918" r="2.06046" fill="white"/>
<circle cx="620.455" cy="161.918" r="2.06046" fill="white"/>
<circle cx="294.164" cy="192.883" r="2.06046" fill="white"/>
<circle cx="620.455" cy="192.883" r="2.06046" fill="white"/>
<circle cx="294.164" cy="223.844" r="2.06046" fill="white"/>
<circle cx="620.455" cy="223.844" r="2.06046" fill="white"/>
<circle cx="294.164" cy="254.812" r="2.06046" fill="white"/>
<circle cx="620.455" cy="254.812" r="2.06046" fill="white"/>
<circle cx="294.164" cy="285.773" r="2.06046" fill="white"/>
<circle cx="620.455" cy="285.773" r="2.06046" fill="white"/>
<circle cx="330.512" cy="38.0605" r="2.06046" fill="white"/>
<circle cx="656.803" cy="38.0605" r="2.06046" fill="white"/>
<circle cx="330.512" cy="314.045" r="2.06046" fill="white"/>
<circle cx="656.803" cy="314.045" r="2.06046" fill="white"/>
<circle cx="330.512" cy="69.0253" r="2.06046" fill="white"/>
<circle cx="656.803" cy="69.0253" r="2.06046" fill="white"/>
<circle cx="330.512" cy="345.01" r="2.06046" fill="white"/>
<circle cx="656.803" cy="345.01" r="2.06046" fill="white"/>
<circle cx="330.512" cy="99.9902" r="2.06046" fill="white"/>
<circle cx="656.803" cy="99.9902" r="2.06046" fill="white"/>
<circle cx="330.512" cy="375.975" r="2.06046" fill="white"/>
<circle cx="656.803" cy="375.975" r="2.06046" fill="white"/>
<circle cx="330.512" cy="130.955" r="2.06046" fill="white"/>
<circle cx="656.803" cy="130.955" r="2.06046" fill="white"/>
<circle cx="330.512" cy="406.937" r="2.06046" fill="white"/>
<circle cx="656.803" cy="406.937" r="2.06046" fill="white"/>
<circle cx="330.512" cy="161.918" r="2.06046" fill="white"/>
<circle cx="656.803" cy="161.918" r="2.06046" fill="white"/>
<circle cx="330.512" cy="192.883" r="2.06046" fill="white"/>
<circle cx="656.803" cy="192.883" r="2.06046" fill="white"/>
<circle cx="330.512" cy="223.844" r="2.06046" fill="white"/>
<circle cx="656.803" cy="223.844" r="2.06046" fill="white"/>
<circle cx="330.512" cy="254.812" r="2.06046" fill="white"/>
<circle cx="656.803" cy="254.812" r="2.06046" fill="white"/>
<circle cx="330.512" cy="285.773" r="2.06046" fill="white"/>
<circle cx="656.803" cy="285.773" r="2.06046" fill="white"/>
<circle cx="366.861" cy="38.0605" r="2.06046" fill="white"/>
<circle cx="693.156" cy="38.0605" r="2.06046" fill="white"/>
<circle cx="366.861" cy="314.045" r="2.06046" fill="white"/>
<circle cx="693.156" cy="314.045" r="2.06046" fill="white"/>
<circle cx="366.861" cy="69.0253" r="2.06046" fill="white"/>
<circle cx="693.156" cy="69.0253" r="2.06046" fill="white"/>
<circle cx="366.861" cy="345.01" r="2.06046" fill="white"/>
<circle cx="693.156" cy="345.01" r="2.06046" fill="white"/>
<circle cx="366.861" cy="99.9902" r="2.06046" fill="white"/>
<circle cx="693.156" cy="99.9902" r="2.06046" fill="white"/>
<circle cx="366.861" cy="375.975" r="2.06046" fill="white"/>
<circle cx="693.156" cy="375.975" r="2.06046" fill="white"/>
<circle cx="366.861" cy="130.955" r="2.06046" fill="white"/>
<circle cx="693.156" cy="130.955" r="2.06046" fill="white"/>
<circle cx="366.861" cy="406.937" r="2.06046" fill="white"/>
<circle cx="693.156" cy="406.937" r="2.06046" fill="white"/>
<circle cx="366.861" cy="161.918" r="2.06046" fill="white"/>
<circle cx="693.156" cy="161.918" r="2.06046" fill="white"/>
<circle cx="366.861" cy="192.883" r="2.06046" fill="white"/>
<circle cx="693.156" cy="192.883" r="2.06046" fill="white"/>
<circle cx="366.861" cy="223.844" r="2.06046" fill="white"/>
<circle cx="693.156" cy="223.844" r="2.06046" fill="white"/>
<circle cx="366.861" cy="254.812" r="2.06046" fill="white"/>
<circle cx="693.156" cy="254.812" r="2.06046" fill="white"/>
<circle cx="366.861" cy="285.773" r="2.06046" fill="white"/>
<circle cx="693.156" cy="285.773" r="2.06046" fill="white"/>
<circle cx="403.213" cy="38.0605" r="2.06046" fill="white"/>
<circle cx="729.504" cy="38.0605" r="2.06046" fill="white"/>
<circle cx="403.213" cy="314.045" r="2.06046" fill="white"/>
<circle cx="729.504" cy="314.045" r="2.06046" fill="white"/>
<circle cx="403.213" cy="69.0253" r="2.06046" fill="white"/>
<circle cx="729.504" cy="69.0253" r="2.06046" fill="white"/>
<circle cx="403.213" cy="345.01" r="2.06046" fill="white"/>
<circle cx="729.504" cy="345.01" r="2.06046" fill="white"/>
<circle cx="403.213" cy="99.9902" r="2.06046" fill="white"/>
<circle cx="729.504" cy="99.9902" r="2.06046" fill="white"/>
<circle cx="403.213" cy="375.975" r="2.06046" fill="white"/>
<circle cx="729.504" cy="375.975" r="2.06046" fill="white"/>
<circle cx="403.213" cy="130.955" r="2.06046" fill="white"/>
<circle cx="729.504" cy="130.955" r="2.06046" fill="white"/>
<circle cx="403.213" cy="406.937" r="2.06046" fill="white"/>
<circle cx="729.504" cy="406.937" r="2.06046" fill="white"/>
<circle cx="403.213" cy="161.918" r="2.06046" fill="white"/>
<circle cx="729.504" cy="161.918" r="2.06046" fill="white"/>
<circle cx="403.213" cy="192.883" r="2.06046" fill="white"/>
<circle cx="729.504" cy="192.883" r="2.06046" fill="white"/>
<circle cx="403.213" cy="223.844" r="2.06046" fill="white"/>
<circle cx="729.504" cy="223.844" r="2.06046" fill="white"/>
<circle cx="403.213" cy="254.812" r="2.06046" fill="white"/>
<circle cx="729.504" cy="254.812" r="2.06046" fill="white"/>
<circle cx="403.213" cy="285.773" r="2.06046" fill="white"/>
<circle cx="729.504" cy="285.773" r="2.06046" fill="white"/>
<circle cx="439.562" cy="38.0605" r="2.06046" fill="white"/>
<circle cx="765.853" cy="38.0605" r="2.06046" fill="white"/>
<circle cx="439.562" cy="314.045" r="2.06046" fill="white"/>
<circle cx="765.853" cy="314.045" r="2.06046" fill="white"/>
<circle cx="439.562" cy="69.0253" r="2.06046" fill="white"/>
<circle cx="765.853" cy="69.0253" r="2.06046" fill="white"/>
<circle cx="439.562" cy="345.01" r="2.06046" fill="white"/>
<circle cx="765.853" cy="345.01" r="2.06046" fill="white"/>
<circle cx="439.562" cy="99.9902" r="2.06046" fill="white"/>
<circle cx="765.853" cy="99.9902" r="2.06046" fill="white"/>
<circle cx="439.562" cy="375.975" r="2.06046" fill="white"/>
<circle cx="765.853" cy="375.975" r="2.06046" fill="white"/>
<circle cx="439.562" cy="130.955" r="2.06046" fill="white"/>
<circle cx="765.853" cy="130.955" r="2.06046" fill="white"/>
<circle cx="439.562" cy="406.937" r="2.06046" fill="white"/>
<circle cx="765.853" cy="406.937" r="2.06046" fill="white"/>
<circle cx="439.562" cy="161.918" r="2.06046" fill="white"/>
<circle cx="439.562" cy="192.883" r="2.06046" fill="white"/>
<circle cx="439.562" cy="223.844" r="2.06046" fill="white"/>
<circle cx="765.853" cy="223.844" r="2.06046" fill="white"/>
<circle cx="439.562" cy="254.812" r="2.06046" fill="white"/>
<circle cx="765.853" cy="254.812" r="2.06046" fill="white"/>
<circle cx="439.562" cy="285.773" r="2.06046" fill="white"/>
<circle cx="765.853" cy="285.773" r="2.06046" fill="white"/>
<circle cx="475.91" cy="38.0605" r="2.06046" fill="white"/>
<circle cx="475.91" cy="314.045" r="2.06046" fill="white"/>
<circle cx="475.91" cy="69.0253" r="2.06046" fill="white"/>
<circle cx="475.91" cy="345.01" r="2.06046" fill="white"/>
<circle cx="475.91" cy="99.9902" r="2.06046" fill="white"/>
<circle cx="475.91" cy="375.975" r="2.06046" fill="white"/>
<circle cx="475.91" cy="130.955" r="2.06046" fill="white"/>
<circle cx="475.91" cy="406.937" r="2.06046" fill="white"/>
<circle cx="475.91" cy="161.918" r="2.06046" fill="white"/>
<circle cx="475.91" cy="192.883" r="2.06046" fill="white"/>
<circle cx="475.91" cy="223.844" r="2.06046" fill="white"/>
<circle cx="475.91" cy="254.812" r="2.06046" fill="white"/>
<circle cx="475.91" cy="285.773" r="2.06046" fill="white"/>
<circle cx="512.262" cy="38.0605" r="2.06046" fill="white"/>
<circle cx="512.262" cy="314.045" r="2.06046" fill="white"/>
<circle cx="512.262" cy="69.0253" r="2.06046" fill="white"/>
<circle cx="512.262" cy="345.01" r="2.06046" fill="white"/>
<circle cx="512.262" cy="99.9902" r="2.06046" fill="white"/>
<circle cx="512.262" cy="375.975" r="2.06046" fill="white"/>
<circle cx="512.262" cy="130.955" r="2.06046" fill="white"/>
<circle cx="512.262" cy="406.937" r="2.06046" fill="white"/>
<circle cx="512.262" cy="161.918" r="2.06046" fill="white"/>
<circle cx="512.262" cy="192.883" r="2.06046" fill="white"/>
<circle cx="512.262" cy="223.844" r="2.06046" fill="white"/>
<circle cx="512.262" cy="254.812" r="2.06046" fill="white"/>
<circle cx="512.262" cy="285.773" r="2.06046" fill="white"/>
<circle cx="548.609" cy="38.0605" r="2.06046" fill="white"/>
<circle cx="548.609" cy="314.045" r="2.06046" fill="white"/>
<circle cx="548.609" cy="69.0253" r="2.06046" fill="white"/>
<circle cx="548.609" cy="345.01" r="2.06046" fill="white"/>
<circle cx="548.609" cy="99.9902" r="2.06046" fill="white"/>
<circle cx="548.609" cy="375.975" r="2.06046" fill="white"/>
<circle cx="548.609" cy="130.955" r="2.06046" fill="white"/>
<circle cx="548.609" cy="406.937" r="2.06046" fill="white"/>
<circle cx="548.609" cy="161.918" r="2.06046" fill="white"/>
<circle cx="548.609" cy="192.883" r="2.06046" fill="white"/>
<circle cx="548.609" cy="223.844" r="2.06046" fill="white"/>
<circle cx="548.609" cy="254.812" r="2.06046" fill="white"/>
<circle cx="548.609" cy="285.773" r="2.06046" fill="white"/>
</g>
<rect x="-277" y="-19" width="989" height="477" fill="url(#paint0_linear)"/>
</g>
<path d="M712.385 353.307C712.385 325.899 690.101 303.615 662.693 303.615C635.284 303.615 613.001 325.899 613.001 353.307C613.001 380.716 635.284 402.999 662.693 402.999C695.227 402.999 712.385 380.716 712.385 353.307ZM645.98 353.307C645.98 343.948 653.557 336.372 662.916 336.372C672.275 336.372 679.851 343.948 679.851 353.307C679.851 362.666 674.057 370.02 662.916 370.02C653.334 370.02 645.98 362.443 645.98 353.307Z" fill="#FFD43B"/>
<path d="M678.449 353.713L714.809 353.713" stroke="white" stroke-width="2" stroke-miterlimit="10" stroke-linecap="round" stroke-linejoin="round"/>
<path d="M662.289 338.36L662.289 302" stroke="white" stroke-width="2" stroke-miterlimit="10" stroke-linecap="round" stroke-linejoin="round"/>
<path d="M672.001 341.997L697.84 316.158" stroke="white" stroke-width="2" stroke-miterlimit="10" stroke-linecap="round" stroke-linejoin="round"/>
<path opacity="0.16" d="M804.36 207.56L747.961 236L720.949 182.44L777.366 154L804.36 207.56Z" fill="#4EC6D0"/>
<g opacity="0.8">
<path d="M751.122 199.185C750.337 199.185 749.569 199.06 748.801 198.81C746.927 198.185 745.409 196.882 744.517 195.114C742.678 191.472 744.142 187.027 747.784 185.188C749.551 184.295 751.551 184.152 753.425 184.759C755.3 185.384 756.818 186.687 757.71 188.455C759.549 192.097 758.085 196.542 754.443 198.381C753.408 198.917 752.265 199.185 751.122 199.185ZM751.122 185.58C750.158 185.58 749.212 185.813 748.337 186.241C746.855 186.991 745.749 188.276 745.231 189.847C744.713 191.418 744.838 193.114 745.588 194.596C746.338 196.078 747.623 197.185 749.194 197.703C750.765 198.221 752.461 198.096 753.943 197.346C756.996 195.81 758.246 192.061 756.693 188.99C755.943 187.509 754.657 186.402 753.086 185.884C752.426 185.67 751.765 185.58 751.122 185.58Z" fill="#4EC6D0"/>
<path d="M777.581 207.9C774.886 207.9 772.261 206.419 770.976 203.83C769.137 200.188 770.601 195.742 774.243 193.903C777.885 192.065 782.33 193.528 784.169 197.171C785.062 198.938 785.205 200.938 784.598 202.812C783.973 204.687 782.67 206.204 780.902 207.097C779.831 207.65 778.688 207.9 777.581 207.9ZM777.546 194.296C776.599 194.296 775.653 194.51 774.761 194.957C771.708 196.492 770.458 200.241 772.011 203.312C772.761 204.794 774.046 205.901 775.617 206.419C777.189 206.936 778.885 206.811 780.366 206.061C781.848 205.312 782.955 204.026 783.473 202.455C783.991 200.884 783.866 199.188 783.116 197.706C782.027 195.546 779.831 194.296 777.546 194.296Z" fill="#4EC6D0"/>
<path d="M762.226 214.128C762.208 214.128 762.172 214.128 762.154 214.128C761.833 214.093 761.601 213.789 761.636 213.468L765.868 178.672C765.903 178.35 766.207 178.118 766.528 178.154C766.85 178.19 767.082 178.493 767.046 178.815L762.815 213.611C762.779 213.914 762.511 214.128 762.226 214.128Z" fill="#4EC6D0"/>
</g>
<path opacity="0.3" d="M71.75 254.25V225.35H81.45V254.25H71.75Z" fill="white" stroke="white" stroke-width="1.5"/>
<path opacity="0.3" d="M87.75 254.25V191.75H97.45V254.25H87.75Z" fill="white" stroke="white" stroke-width="1.5"/>
<path opacity="0.3" d="M103.75 254.251V204.551H113.45V254.251H103.75Z" fill="white" stroke="white" stroke-width="1.5"/>
<path opacity="0.3" d="M119.75 254.25V233.35H129.45V254.25H119.75Z" fill="white" stroke="white" stroke-width="1.5"/>
</g>
<defs>
<linearGradient id="paint0_linear" x1="863.121" y1="252.472" x2="23.1254" y2="402.604" gradientUnits="userSpaceOnUse">
<stop stop-color="#164855" stop-opacity="0"/>
<stop offset="1" stop-color="#164855"/>
</linearGradient>
<clipPath id="clip0">
<rect width="778" height="448" fill="white"/>
</clipPath>
</defs>
</svg>
