<svg width="716" height="403" viewBox="0 0 716 403" fill="none" xmlns="http://www.w3.org/2000/svg">
<g clip-path="url(#clip0)">
<rect width="715.672" height="402.933" fill="white"/>
<rect width="715.672" height="402.933" fill="white"/>
<g opacity="0.3">
<path opacity="0.3" d="M162.75 237.249V217.374H169.125V237.249H162.75Z" fill="#187186" stroke="#187186" stroke-width="1.5"/>
<path opacity="0.3" d="M174 237.25V193.75H180.375V237.25H174Z" fill="#187186" stroke="#187186" stroke-width="1.5"/>
<path opacity="0.3" d="M185.25 237.251V202.751H191.625V237.251H185.25Z" fill="#187186" stroke="#187186" stroke-width="1.5"/>
<path opacity="0.3" d="M196.5 237.249V222.999H202.875V237.249H196.5Z" fill="#187186" stroke="#187186" stroke-width="1.5"/>
</g>
<path d="M371.41 299.679C371.41 266.196 344.188 238.974 310.705 238.974C277.221 238.974 249.999 266.196 249.999 299.679C249.999 333.162 277.221 360.385 310.705 360.385C350.449 360.385 371.41 333.162 371.41 299.679ZM290.288 299.679C290.288 288.246 299.544 278.99 310.977 278.99C322.41 278.99 331.666 288.246 331.666 299.679C331.666 311.112 324.588 320.096 310.977 320.096C299.271 320.096 290.288 310.84 290.288 299.679Z" fill="#FFD43B"/>
<path d="M329.952 300.174L374.371 300.174" stroke="white" stroke-width="2" stroke-miterlimit="10" stroke-linecap="round" stroke-linejoin="round"/>
<path d="M310.213 281.419L310.213 237" stroke="white" stroke-width="2" stroke-miterlimit="10" stroke-linecap="round" stroke-linejoin="round"/>
<path d="M322.077 285.861L353.643 254.296" stroke="white" stroke-width="2" stroke-miterlimit="10" stroke-linecap="round" stroke-linejoin="round"/>
<path d="M652.947 168.886L628.228 93.0312C628.121 92.6008 627.691 92.3856 627.368 92.4932L613.074 95.8287C612.967 96.3667 612.752 96.797 612.215 97.2274L612.107 97.335C612 97.4426 612 97.5502 611.892 97.6578L626.938 94.2148L650.797 167.487L636.826 159.633C636.503 159.417 635.966 159.525 635.751 159.955L555.362 302.304L485.72 262.709L566.109 120.36C566.216 120.145 566.216 119.93 566.216 119.715C566.109 119.5 566.002 119.392 565.894 119.284L551.923 111.43L594.052 101.746C593.837 101.208 593.837 100.67 593.944 100.132L549.666 110.354C549.343 110.462 549.128 110.677 549.021 111C549.021 111.322 549.128 111.645 549.451 111.753L564.497 120.253L484.107 262.601C484 262.816 484 263.031 484 263.247C484.107 263.462 484.215 263.569 484.322 263.677L555.362 303.918C555.469 304.025 555.577 304.025 555.792 304.025C556.114 304.025 556.329 303.918 556.436 303.595L636.826 161.247L651.872 169.747C652.194 169.854 652.517 169.854 652.732 169.639C652.947 169.531 653.054 169.209 652.947 168.886Z" fill="#053844"/>
<path d="M602.865 120.574C602.65 120.574 602.542 120.574 602.327 120.574C596.524 119.928 591.258 108.416 592.977 93.0295C594.052 83.5612 596.309 76.6751 605.014 67.9599C605.336 67.6371 605.766 67.6371 606.089 67.9599C606.411 68.2826 606.411 68.713 606.089 69.0358C597.706 77.4282 595.556 83.9915 594.482 93.1371C592.762 108.093 598.136 118.422 602.435 118.96C604.907 119.283 606.841 116.162 607.486 110.568C608.991 97.8713 613.612 89.0485 620.275 86.4662C624.896 84.6371 630.163 86.0358 635.106 90.3396C639.513 94.1055 641.77 98.6245 641.662 103.574C641.555 109.707 637.901 114.871 635.644 116.7C635.321 116.916 634.784 116.916 634.569 116.593C634.354 116.27 634.354 115.732 634.676 115.517C636.718 113.903 640.05 109.169 640.158 103.574C640.265 99.0548 638.223 94.9662 634.139 91.5232C629.518 87.5422 625.004 86.3586 620.812 87.9725C614.794 90.3396 610.495 98.6245 608.991 110.783C608.346 117.023 606.089 120.574 602.865 120.574Z" fill="#053844"/>
<path d="M640.265 131.873C639.943 131.873 639.513 131.55 639.513 131.227C639.406 130.797 639.728 130.366 640.158 130.366C650.905 128.645 664.447 115.948 669.283 95.1826C672.292 82.1636 682.287 70.8661 690.992 60.8598C694.109 57.3092 697.118 53.8661 699.483 50.7458C699.698 50.4231 700.235 50.3155 700.557 50.6383C700.88 50.8534 700.987 51.3914 700.665 51.7142C698.193 54.9421 695.291 58.3851 692.067 61.9357C683.469 71.8345 673.689 83.0244 670.68 95.613C665.414 117.993 651.228 130.151 640.265 131.98C640.265 131.873 640.265 131.873 640.265 131.873Z" fill="#053844"/>
<path d="M582.229 99.3779C582.014 99.3779 581.906 99.2703 581.691 99.1627C576.21 94.5361 574.061 88.2956 575.673 81.7323C578.682 68.8209 594.266 57.3082 616.405 51.7133C631.451 47.9474 649.077 19.6499 649.184 19.3271C649.399 19.0044 649.936 18.8968 650.259 19.112C650.581 19.3271 650.689 19.8651 650.474 20.1879C649.721 21.3715 632.311 49.2386 616.727 53.2196C590.934 59.7829 579.327 72.4791 577.07 82.0551C575.673 88.0804 577.607 93.6754 582.659 97.9792C582.981 98.302 582.981 98.7323 582.766 99.0551C582.659 99.2703 582.444 99.3779 582.229 99.3779Z" fill="#053844"/>
<path d="M585.133 103.25C584.918 103.25 584.703 103.142 584.596 103.035C584.166 102.605 575.46 92.383 586.96 73.0158C587.175 72.6931 587.605 72.4779 588.035 72.6931C588.357 72.9083 588.572 73.3386 588.357 73.769C577.502 92.1678 585.67 101.959 585.778 101.959C586.1 102.282 585.993 102.82 585.67 103.035C585.455 103.25 585.24 103.25 585.133 103.25Z" fill="#053844"/>
<path d="M607.7 65.4843C607.593 65.4843 607.378 65.4843 607.27 65.3767C606.948 65.1615 606.84 64.6235 607.055 64.3007L609.205 61.2881C609.42 60.9653 609.957 60.8577 610.279 61.0729C610.602 61.2881 610.709 61.8261 610.494 62.1488L608.345 65.1615C608.237 65.3767 607.915 65.4843 607.7 65.4843Z" fill="#053844"/>
<path d="M597.169 66.453C597.061 66.453 596.846 66.453 596.739 66.3454C596.416 66.1303 596.309 65.5923 596.524 65.2695L598.673 62.2568C598.888 61.934 599.426 61.8265 599.748 62.0416C600.071 62.2568 600.178 62.7948 599.963 63.1176L597.814 66.1303C597.706 66.3454 597.491 66.453 597.169 66.453Z" fill="#053844"/>
<path d="M435.171 214.608L387.45 237.569L324.069 105.972L320.493 98.4414L297.928 109.305L315.808 63.9989L323.576 44L390.533 64.6161L368.091 75.4797L435.171 214.608Z" fill="url(#paint0_linear)"/>
<path d="M377.094 94.2447C369.448 99.6765 364.146 89.6771 368.585 76.7148L377.094 94.2447Z" fill="url(#paint1_linear)"/>
<path d="M346.389 85.2315C326.783 83.8736 328.633 93.6261 323.824 106.218L320.371 98.6876L297.436 110.045L315.439 64.245C320.371 62.2698 325.797 61.4057 331.592 62.6402C341.704 64.7388 351.815 67.8251 357.241 69.9237C365.995 73.3803 359.953 86.2191 346.389 85.2315Z" fill="white"/>
<path d="M295.215 133.624C294.846 133.624 294.599 133.377 294.352 133.13C294.106 132.636 294.352 132.142 294.846 131.895C319.014 121.279 322.837 108.193 325.55 98.6873C328.139 89.552 329.989 83.0091 346.512 84.1202C354.281 84.7374 359.336 80.5401 360.323 76.3428C360.939 73.6269 359.706 71.5283 356.993 70.5407C351.938 68.5655 341.703 65.3558 331.468 63.2572C320.001 60.9116 311.492 66.5903 300.764 73.8738C286.954 83.1326 269.814 94.6134 238.863 94.3665C238.37 94.3665 238 93.9962 238 93.5024C238 93.0086 238.37 92.6382 238.863 92.6382C239.233 92.6382 239.603 92.6382 239.973 92.6382C269.69 92.6382 286.337 81.4043 299.655 72.3924C310.752 64.862 319.507 59.0599 331.715 61.5289C342.196 63.751 352.184 66.8372 357.487 68.9358C360.939 70.2938 362.666 73.38 361.926 76.8366C360.816 81.7746 354.897 86.5892 346.265 85.9719C331.222 84.8609 329.742 90.2927 327.153 99.1811C324.316 109.057 320.371 122.637 295.462 133.5C295.462 133.624 295.339 133.624 295.215 133.624Z" fill="#053844"/>
<path d="M383.998 105.232C383.381 113.874 389.916 120.787 395.835 113.38C410.386 94.8627 396.945 86.5916 394.602 87.4557L383.998 105.232Z" fill="white"/>
<path d="M390.656 117.451C389.916 117.451 389.176 117.327 388.683 117.081C385.107 115.723 382.764 110.661 383.134 105.229C383.134 104.736 383.627 104.365 384.12 104.365C384.614 104.365 384.984 104.859 384.984 105.353C384.614 110.044 386.587 114.365 389.423 115.476C391.272 116.216 393.369 115.352 395.218 112.883C403.973 101.649 402 94.983 399.904 91.8967C398.054 89.1808 395.588 88.1932 394.972 88.3167C394.478 88.4401 393.985 88.3167 393.862 87.8229C393.739 87.3291 393.862 86.8353 394.355 86.7119C395.835 86.0946 398.918 87.576 401.014 90.4153C403.603 93.8719 406.439 101.526 396.575 113.994C394.355 116.71 392.259 117.451 390.656 117.451Z" fill="#053844"/>
<path d="M258.222 174.243C253.906 174.243 249.344 174.119 244.658 173.749C244.165 173.749 243.795 173.255 243.795 172.761C243.795 172.267 244.288 171.897 244.781 171.897C293.982 175.107 326.535 159.799 326.782 159.676C327.275 159.429 327.768 159.676 328.015 160.046C328.262 160.54 328.015 161.034 327.645 161.28C327.275 161.527 300.271 174.243 258.222 174.243Z" fill="#053844"/>
<path d="M374.504 96.2212C373.887 106.221 380.052 111.282 386.835 102.764C403.605 81.4072 386.588 73.3829 383.998 74.494L374.504 96.2212Z" fill="white"/>
<path d="M380.176 107.948C379.436 107.948 378.819 107.824 378.326 107.577C375.12 106.343 373.271 101.775 373.641 96.0964C373.641 95.6026 374.134 95.2323 374.627 95.2323C375.12 95.2323 375.49 95.7261 375.49 96.2199C375.12 101.034 376.6 104.985 379.066 105.972C381.162 106.713 383.752 105.355 386.341 102.145C396.206 89.677 393.617 82.5169 391.274 79.3072C388.808 75.9741 385.232 74.9865 384.492 75.2334C383.998 75.3568 383.505 75.2334 383.382 74.7396C383.259 74.2458 383.382 73.752 383.875 73.6285C385.478 73.0113 389.917 74.4927 392.753 78.3196C395.466 81.8997 398.302 89.9239 387.698 103.257C384.615 107.083 382.026 107.948 380.176 107.948Z" fill="#053844"/>
<path d="M379.683 91.7767C378.82 92.7643 377.957 93.505 377.094 94.1222C369.448 99.554 364.146 89.5546 368.585 76.5924C368.832 75.9751 368.955 75.3579 369.202 74.7406L381.163 68.9385C382.396 70.9137 388.315 82.1476 379.683 91.7767Z" fill="white"/>
<path d="M372.777 96.8361C371.421 96.8361 370.434 96.3423 369.941 95.9719C366.119 93.5029 364.516 85.6021 368.955 75.3558C369.201 74.862 369.694 74.7386 370.188 74.862C370.681 75.1089 370.804 75.6027 370.681 76.0965C366.858 85.1083 367.845 92.5153 370.928 94.4905C373.024 95.8485 375.983 94.614 379.066 91.1574C387.944 81.2814 380.792 70.7882 380.669 70.6647C380.422 70.2944 380.546 69.6771 380.916 69.4302C381.286 69.1833 381.902 69.3068 382.149 69.6771C382.272 69.8006 390.164 81.4048 380.422 92.3919C377.34 95.8485 374.627 96.8361 372.777 96.8361Z" fill="#053844"/>
<path d="M601.479 320.455L512.45 347.861L467.689 361.688L444.877 368.724L401.965 381.933L401.102 378.971L335.748 166.02L418 94.001L535.262 104.665L601.479 320.455Z" fill="white"/>
<path d="M401.965 382.797C401.595 382.797 401.225 382.55 401.102 382.18L400.239 379.341L334.885 166.39C334.762 165.896 335.008 165.402 335.501 165.279L417.507 93.3945L535.139 103.924C535.386 103.801 535.632 103.924 535.879 104.047C536.126 104.171 536.249 104.294 536.372 104.541L602.589 320.332C602.712 320.579 602.589 320.826 602.466 321.072C602.343 321.319 602.219 321.443 601.973 321.566L402.212 382.674C402.088 382.797 401.965 382.797 401.965 382.797ZM336.858 166.637L402.582 380.699L600.493 319.838L534.769 105.776L418 94.9994L336.858 166.637Z" fill="#053844"/>
<path d="M500.119 177.252C499.749 177.252 499.379 177.005 499.255 176.634L494.076 159.598C493.953 159.351 494.076 159.104 494.2 158.857C494.323 158.611 494.446 158.487 494.693 158.364L526.014 148.735C526.507 148.611 527 148.858 527.123 149.352L532.302 166.388C532.426 166.635 532.302 166.882 532.179 167.129C532.056 167.376 531.932 167.499 531.686 167.622L500.365 177.252C500.365 177.252 500.242 177.252 500.119 177.252ZM496.049 159.845L500.735 175.153L530.453 166.018L525.767 150.71L496.049 159.845Z" fill="#053844"/>
<path d="M490.131 144.662C489.761 144.662 489.391 144.415 489.268 144.045C489.144 143.551 489.391 143.057 489.884 142.934L521.205 133.305C521.698 133.181 522.191 133.428 522.315 133.922C522.438 134.416 522.191 134.91 521.698 135.033L490.378 144.662C490.378 144.662 490.254 144.662 490.131 144.662Z" fill="#053844"/>
<path d="M637.986 265.753C637.863 265.753 637.74 265.753 637.493 265.63C637 265.383 636.877 264.889 637.123 264.395L640.453 258.47C640.699 258.099 641.192 257.852 641.686 258.099C642.179 258.346 642.302 258.84 642.056 259.334L638.726 265.259C638.603 265.63 638.233 265.753 637.986 265.753Z" fill="#053844"/>
<path d="M353.63 25.9024C353.383 25.9024 353.26 25.9024 353.137 25.6555L347.218 20.9644C346.848 20.7175 346.725 20.1002 347.094 19.7299C347.341 19.3595 347.958 19.2361 348.328 19.6064L354.246 24.2975C354.616 24.5444 354.74 25.1617 354.37 25.532C354.246 25.7789 354 25.9024 353.63 25.9024Z" fill="#053844"/>
<path d="M379.525 39.1128C379.402 39.1128 379.279 39.1128 379.155 38.9893C378.662 38.7424 378.539 38.2486 378.785 37.7548L382.115 31.0885C382.361 30.5947 382.855 30.4713 383.348 30.7182C383.841 30.9651 383.964 31.4589 383.718 31.9527L380.388 38.619C380.142 38.9893 379.895 39.1128 379.525 39.1128Z" fill="#053844"/>
<path d="M274.833 218.59C274.71 218.59 274.463 218.59 274.34 218.467C273.97 218.22 273.847 217.602 274.093 217.232L279.395 209.949C279.642 209.578 280.259 209.455 280.629 209.702C280.998 209.949 281.122 210.566 280.875 210.936L275.573 218.22C275.326 218.467 275.08 218.59 274.833 218.59Z" fill="#053844"/>
<path d="M372.165 374.345C368.713 374.345 366 371.506 366 368.172C366 364.839 368.836 362 372.165 362C375.618 362 378.331 364.839 378.331 368.172C378.331 371.506 375.618 374.345 372.165 374.345ZM372.165 363.728C369.699 363.728 367.726 365.703 367.726 368.172C367.726 370.641 369.699 372.617 372.165 372.617C374.632 372.617 376.605 370.641 376.605 368.172C376.605 365.703 374.632 363.728 372.165 363.728Z" fill="#053844"/>
<path d="M512.45 347.861L499.502 351.811L490.377 354.65L467.689 361.687C466.702 360.576 465.716 359.465 464.606 358.477C463.373 357.243 462.14 356.008 460.907 354.774C456.344 350.206 451.535 346.009 446.603 341.935C446.356 346.132 445.986 350.453 445.739 354.774C445.493 359.465 445.123 364.156 444.876 368.724L429.833 373.291L401.965 381.933L401.102 379.093C401.595 370.946 402.211 362.922 402.705 354.774C403.444 343.17 404.184 331.565 404.924 319.838C405.294 314.406 405.664 308.974 406.034 303.542C406.527 295.765 410.473 288.852 416.639 285.025C419.721 283.049 423.544 281.938 427.613 281.938C428.353 281.938 429.093 281.938 429.956 282.062C432.915 282.432 435.751 283.42 438.341 285.025C440.807 286.383 442.903 288.358 444.753 290.456C444.753 288.852 444.63 287.247 444.506 285.642C444.506 285.395 444.506 285.272 444.506 285.025C444.506 277.124 451.905 270.581 459.55 270.581C467.689 270.581 473.977 277.124 474.471 285.025C474.471 285.272 474.471 285.395 474.471 285.642C474.84 293.79 475.087 301.937 475.457 309.962C479.28 313.171 483.102 316.504 486.801 319.838C491.241 323.911 495.433 328.232 499.502 332.553C504.065 337.491 508.381 342.552 512.45 347.861Z" fill="white"/>
<path d="M401.965 382.797C401.595 382.797 401.225 382.55 401.101 382.18L400.238 379.341C400.238 379.217 400.238 379.094 400.238 378.97L405.171 303.419C405.664 295.271 409.856 288.111 416.145 284.161C420.214 281.692 425.023 280.581 430.079 281.075C433.162 281.445 436.121 282.556 438.834 284.161C440.56 285.148 442.287 286.506 443.766 287.988L443.643 284.902C443.643 276.754 451.165 269.594 459.55 269.594C467.935 269.594 474.84 276.137 475.457 284.902C475.457 285.025 475.457 285.272 475.457 285.519L476.443 309.468C480.513 312.801 484.089 316.011 487.541 319.221C491.98 323.294 496.173 327.615 500.242 332.059C504.804 337.121 509.244 342.182 513.189 347.491C513.313 347.738 513.436 347.984 513.313 348.355C513.189 348.602 512.943 348.849 512.696 348.972L467.935 362.798C467.565 362.922 467.195 362.798 467.072 362.551C466.085 361.44 465.099 360.453 463.989 359.342C463.003 358.231 461.77 356.996 460.29 355.638C456.221 351.564 451.905 347.738 447.342 344.034L445.739 369.094C445.739 369.465 445.493 369.835 445.123 369.835L402.211 382.674C402.088 382.797 401.965 382.797 401.965 382.797ZM401.965 378.847L402.581 380.699L444.136 367.983L445.863 341.812C445.863 341.442 446.109 341.195 446.356 341.071C446.603 340.948 446.972 340.948 447.219 341.195C452.275 345.269 457.207 349.589 461.646 354.033C463.126 355.515 464.359 356.626 465.346 357.86C466.209 358.725 467.072 359.712 468.058 360.7L510.97 347.491C507.147 342.676 503.078 337.862 498.886 333.294C494.816 328.85 490.624 324.652 486.185 320.579C482.732 317.369 479.033 314.159 474.964 310.703C474.717 310.579 474.594 310.332 474.594 310.085L473.607 285.766C473.607 285.642 473.607 285.395 473.607 285.272C472.991 277.371 466.949 271.569 459.55 271.569C452.028 271.569 445.369 277.865 445.369 285.148L445.616 290.58C445.616 290.951 445.369 291.321 445 291.444C444.63 291.568 444.26 291.444 444.013 291.197C442.287 289.099 440.19 287.247 437.848 286.013C435.381 284.531 432.545 283.544 429.709 283.173C428.969 283.05 428.229 283.05 427.49 283.05C423.667 283.05 420.091 284.037 416.885 286.013C410.966 289.716 407.267 296.382 406.774 303.913L401.965 378.847Z" fill="#053844"/>
<path d="M429.832 374.153C429.339 374.153 428.969 373.783 428.969 373.289V281.936C428.969 281.443 429.339 281.072 429.832 281.072C430.325 281.072 430.695 281.443 430.695 281.936V373.289C430.695 373.783 430.325 374.153 429.832 374.153Z" fill="#053844"/>
<path d="M464.728 359.34C464.235 359.34 463.865 358.969 463.865 358.476V273.172C463.865 272.678 464.235 272.308 464.728 272.308C465.222 272.308 465.592 272.678 465.592 273.172V358.476C465.592 358.846 465.222 359.34 464.728 359.34Z" fill="#053844"/>
<path d="M499.502 352.799C499.009 352.799 498.639 352.429 498.639 351.935V332.677C498.639 332.183 499.009 331.812 499.502 331.812C499.995 331.812 500.365 332.183 500.365 332.677V351.811C500.365 352.305 499.995 352.799 499.502 352.799Z" fill="#053844"/>
<path d="M486.799 320.702H404.922C404.429 320.702 404.059 320.332 404.059 319.838C404.059 319.344 404.429 318.974 404.922 318.974H486.922C487.416 318.974 487.786 319.344 487.786 319.838C487.662 320.332 487.292 320.702 486.799 320.702Z" fill="#053844"/>
<path d="M445.861 355.516H402.703C402.21 355.516 401.84 355.146 401.84 354.652C401.84 354.158 402.21 353.788 402.703 353.788H445.861C446.354 353.788 446.724 354.158 446.724 354.652C446.724 355.146 446.354 355.516 445.861 355.516Z" fill="#053844"/>
<path d="M490.377 355.516H460.906C460.413 355.516 460.043 355.146 460.043 354.652C460.043 354.158 460.413 353.788 460.906 353.788H490.377C490.87 353.788 491.24 354.158 491.24 354.652C491.364 355.146 490.87 355.516 490.377 355.516Z" fill="#053844"/>
<path d="M424.038 261.202C423.544 261.326 423.051 261.449 422.558 261.572C411.337 264.288 399.252 267.992 391.237 276.757C389.758 278.362 388.401 280.213 387.291 282.189C379.153 276.386 371.385 269.72 365.959 262.19C366.206 261.943 366.329 261.572 366.576 261.326C377.18 247.869 392.347 240.216 408.377 235.401C411.46 234.413 414.543 233.673 417.749 232.932C418.859 232.685 419.845 232.562 420.955 232.562C426.257 232.438 430.203 235.154 432.546 238.981C437.232 246.512 435.382 258.486 424.038 261.202Z" fill="#156274" stroke="#156274" stroke-miterlimit="10" stroke-linecap="round" stroke-linejoin="round"/>
<path d="M543.153 220.71C535.508 241.943 515.778 254.905 494.076 258.732C470.77 262.806 446.972 257.004 423.789 261.448C423.419 261.571 422.926 261.571 422.556 261.571C408.622 263.3 402.334 246.264 409.609 237.622C411.458 235.524 414.048 233.795 417.624 233.178C418.734 232.931 419.967 232.808 421.077 232.561C426.009 231.82 430.941 231.326 435.874 231.203C449.684 230.709 463.618 231.943 477.552 231.45C491.979 230.956 510.352 226.759 515.901 211.574C516.148 210.834 516.518 210.093 516.888 209.476C525.889 212.191 535.014 214.537 544.262 216.883C544.016 217.994 543.646 219.352 543.153 220.71Z" fill="#156274" stroke="#156274" stroke-miterlimit="10" stroke-linecap="round" stroke-linejoin="round"/>
<path d="M515.779 211.45C519.725 199.599 519.602 190.957 522.315 188.859C525.027 186.76 523.055 196.019 526.261 197.747C529.467 199.476 530.206 184.044 535.016 183.55C539.825 183.057 535.385 196.389 535.385 196.389C535.385 196.389 538.345 184.168 541.674 185.155C545.004 186.266 540.811 198.241 540.811 198.241C540.811 198.241 545.127 186.513 546.73 187.501C548.456 188.488 550.799 194.291 543.154 220.462" stroke="#053844" stroke-miterlimit="10" stroke-linecap="round" stroke-linejoin="round"/>
<path d="M526.262 197.872C531.071 202.069 532.057 206.637 532.057 206.637L526.262 197.872Z" fill="#053844"/>
<path d="M526.262 197.872C531.071 202.069 532.057 206.637 532.057 206.637" stroke="#053844" stroke-miterlimit="10" stroke-linecap="round" stroke-linejoin="round"/>
<path d="M478.127 309.917L404.388 323.373C401.552 323.867 398.962 322.015 398.346 319.176L388.974 267.697C388.481 264.858 390.33 262.265 393.167 261.648L466.906 248.192C469.742 247.698 472.331 249.55 472.948 252.389L482.319 303.868C482.689 306.707 480.839 309.423 478.127 309.917Z" fill="white" stroke="#053844" stroke-miterlimit="10" stroke-linecap="round" stroke-linejoin="round"/>
<path d="M437.949 279.283L429.578 280.805L431.187 289.671L439.558 288.149L437.949 279.283Z" stroke="#053844" stroke-miterlimit="10" stroke-linecap="round" stroke-linejoin="round"/>
<path d="M390.25 268.235L473.114 253.051" stroke="#053844" stroke-miterlimit="10" stroke-linecap="round" stroke-linejoin="round"/>
<path d="M453.508 315.889C451.658 309.84 449.192 304.161 446.726 298.359C429.339 310.21 401.101 323.789 386.798 303.05C381.372 295.149 384.208 285.52 389.757 278.607C384.085 270.583 378.536 262.558 373.234 254.287C370.891 256.509 368.671 258.855 366.575 261.447C354.244 277.125 350.668 299.593 361.396 317C372.247 334.529 392.223 343.294 412.446 342.183C428.723 341.196 442.903 335.023 456.221 326.752C455.481 322.925 454.618 319.469 453.508 315.889Z" fill="#156274" stroke="#156274" stroke-miterlimit="10" stroke-linecap="round" stroke-linejoin="round"/>
<path d="M446.85 298.362C463.25 287.621 471.635 283.301 463.743 292.806C458.811 298.732 463.743 297.127 472.868 292.312C481.993 287.498 473.854 297.991 469.908 301.571C469.908 301.571 480.143 294.411 481.746 297.127C483.596 300.09 473.114 307.373 473.114 307.373C473.114 307.373 483.472 300.584 483.719 304.287C483.842 307.497 462.88 321.817 456.468 326.508" fill="white"/>
<path d="M446.85 298.362C463.25 287.621 471.635 283.301 463.743 292.806C458.811 298.732 463.743 297.127 472.868 292.312C481.993 287.498 473.854 297.991 469.908 301.571C469.908 301.571 480.143 294.411 481.746 297.127C483.596 300.09 473.114 307.373 473.114 307.373C473.114 307.373 483.472 300.584 483.719 304.287C483.842 307.497 462.88 321.817 456.468 326.508" stroke="#053844" stroke-miterlimit="10" stroke-linecap="round" stroke-linejoin="round"/>
<path d="M441.917 206.757L444.26 205.029C444.26 205.029 442.78 200.708 437.354 195.77C431.805 190.832 419.105 193.054 419.598 203.547C419.844 208.238 421.201 211.448 423.297 213.423L415.529 233.422C413.186 234.04 410.843 234.657 408.5 235.274C408.747 236.015 409.117 236.755 409.61 237.496C411.459 240.459 414.542 242.804 419.105 243.669C425.147 244.78 429.709 242.558 432.669 238.854C434.395 236.632 435.505 233.916 435.875 231.077C434.025 231.2 432.175 231.2 430.202 231.447L435.751 215.892C442.657 214.288 441.917 206.757 441.917 206.757Z" fill="white" stroke="#053844" stroke-miterlimit="10" stroke-linecap="round" stroke-linejoin="round"/>
<path d="M436.369 195.03C437.232 199.474 430.45 202.561 427.244 203.548C424.778 204.289 425.764 207.622 427.737 208.116C429.587 208.486 426.011 212.683 425.024 213.177C424.531 213.424 424.161 213.548 423.668 213.671C421.325 211.696 419.968 208.486 419.722 203.548C418.982 193.672 436.615 179.722 436.369 195.03Z" fill="#053844"/>
<path d="M434.024 201.451L431.557 197.871C430.818 196.883 429.215 196.636 428.228 197.377C427.242 198.118 426.995 199.476 427.735 200.587C428.598 201.821 429.461 202.932 430.201 204.167C430.941 205.154 432.544 205.401 433.53 204.661C434.64 203.796 434.764 202.438 434.024 201.451Z" fill="#053844"/>
<path d="M493.306 298.706C493.415 298.529 493.633 298.353 493.852 298.353L498.215 298C498.652 298 498.979 298.529 499.088 299.235C499.088 299.941 498.761 300.471 498.324 300.647L493.961 301C493.524 301 493.197 300.471 493.088 299.765C493.088 299.235 493.088 298.882 493.306 298.706Z" fill="#053844"/>
<path d="M491.36 307.283C491.609 307.142 491.857 307 492.105 307L497.319 307.991C497.816 308.132 498.188 308.557 498.064 309.123C497.94 309.689 497.567 310.114 497.071 309.973L491.857 308.982C491.36 308.84 490.988 308.416 491.112 307.849C491.112 307.708 491.236 307.425 491.36 307.283Z" fill="#053844"/>
</g>
<defs>
<linearGradient id="paint0_linear" x1="320.847" y1="42.6184" x2="433.385" y2="254.948" gradientUnits="userSpaceOnUse">
<stop stop-color="#4EC6D0"/>
<stop offset="1" stop-color="white"/>
</linearGradient>
<linearGradient id="paint1_linear" x1="365.206" y1="78.1967" x2="376.06" y2="98.6758" gradientUnits="userSpaceOnUse">
<stop stop-color="#FF647E"/>
<stop offset="1" stop-color="white"/>
</linearGradient>
<clipPath id="clip0">
<rect width="715.672" height="402.933" fill="white"/>
</clipPath>
</defs>
</svg>
