<svg width="556" height="423" viewBox="0 0 556 423" fill="none" xmlns="http://www.w3.org/2000/svg">
<g clip-path="url(#clip0)">
<path d="M217.663 308.315L60.8555 341.974L79.5271 116.247H239.273L217.663 308.315Z" stroke="black" stroke-miterlimit="10" stroke-linecap="round" stroke-linejoin="round"/>
<path d="M102.348 160.316H127.589" stroke="black" stroke-miterlimit="10" stroke-linecap="round" stroke-linejoin="round"/>
<path d="M100.621 174.717H118.428" stroke="black" stroke-miterlimit="10" stroke-linecap="round" stroke-linejoin="round"/>
<path d="M307.046 0L122.75 65.0636L206.254 302.762L350.959 251.753L382.943 216.705L307.046 0Z" fill="white"/>
<path d="M242.561 61.4201L162.688 89.7011C159.23 90.9156 155.427 89.1806 154.217 85.537L153.352 83.108C152.142 79.6379 153.871 75.8208 157.501 74.6063L237.374 46.3254C240.832 45.1108 244.636 46.8459 245.846 50.4894L246.71 52.9185C247.92 56.3885 246.019 60.2056 242.561 61.4201Z" stroke="black" stroke-miterlimit="10" stroke-linecap="round" stroke-linejoin="round"/>
<path d="M162.168 103.408L256.391 70.0952" stroke="black" stroke-miterlimit="10" stroke-linecap="round" stroke-linejoin="round"/>
<path d="M166.488 115.379L260.538 82.0669" stroke="black" stroke-miterlimit="10" stroke-linecap="round" stroke-linejoin="round"/>
<path d="M214.245 189.06L200.711 193.843L211.62 224.936L225.154 220.153L214.245 189.06Z" stroke="black" stroke-miterlimit="10" stroke-linecap="round" stroke-linejoin="round"/>
<path d="M236.999 191.73L223.465 196.512L230.986 217.95L244.521 213.168L236.999 191.73Z" stroke="black" stroke-miterlimit="10" stroke-linecap="round" stroke-linejoin="round"/>
<path d="M258.448 189.68L244.914 194.463L250.713 210.991L264.247 206.209L258.448 189.68Z" stroke="black" stroke-miterlimit="10" stroke-linecap="round" stroke-linejoin="round"/>
<path d="M212.996 228.33L266.764 209.591" stroke="black" stroke-miterlimit="10" stroke-linecap="round" stroke-linejoin="round"/>
<path d="M401.787 59.5116C396.081 65.9312 398.156 87.966 349.402 86.7515L363.233 105.49C363.233 105.49 395.563 101.846 412.851 80.5054C430.14 59.1646 401.787 59.5116 401.787 59.5116Z" fill="white" stroke="black" stroke-miterlimit="10" stroke-linecap="round" stroke-linejoin="round"/>
<path d="M174.789 167.951C217.665 162.746 220.604 134.465 221.468 130.127L237.028 137.935C237.028 137.935 219.739 170.38 203.661 176.626C187.583 183.045 175.653 178.014 175.653 178.014L174.789 167.951Z" fill="white" stroke="black" stroke-miterlimit="10" stroke-linecap="round" stroke-linejoin="round"/>
<path d="M280.075 159.102C321.515 159.102 355.108 125.389 355.108 83.8017C355.108 42.2145 321.515 8.50146 280.075 8.50146C238.636 8.50146 205.043 42.2145 205.043 83.8017C205.043 125.389 238.636 159.102 280.075 159.102Z" fill="url(#paint0_linear)"/>
<path d="M215.418 45.6311L344.736 122.146" stroke="white" stroke-miterlimit="10" stroke-linecap="round" stroke-linejoin="round"/>
<path d="M280.074 159.275V83.9751" stroke="white" stroke-miterlimit="10" stroke-linecap="round" stroke-linejoin="round"/>
<path d="M230.457 54.4797V27.2397" stroke="white" stroke-miterlimit="10" stroke-linecap="round" stroke-linejoin="round"/>
<path d="M245.324 63.3283V17.1765" stroke="white" stroke-miterlimit="10" stroke-linecap="round" stroke-linejoin="round"/>
<path d="M260.195 72.1771V11.2776" stroke="white" stroke-miterlimit="10" stroke-linecap="round" stroke-linejoin="round"/>
<path d="M275.062 81.0257V8.67505" stroke="white" stroke-miterlimit="10" stroke-linecap="round" stroke-linejoin="round"/>
<path d="M289.93 86.2306V9.19531" stroke="white" stroke-miterlimit="10" stroke-linecap="round" stroke-linejoin="round"/>
<path d="M304.797 89.7009V12.8391" stroke="white" stroke-miterlimit="10" stroke-linecap="round" stroke-linejoin="round"/>
<path d="M319.668 93.3444V19.9526" stroke="white" stroke-miterlimit="10" stroke-linecap="round" stroke-linejoin="round"/>
<path d="M334.535 116.594V31.5774" stroke="white" stroke-miterlimit="10" stroke-linecap="round" stroke-linejoin="round"/>
<path d="M349.402 102.02V51.3567" stroke="white" stroke-miterlimit="10" stroke-linecap="round" stroke-linejoin="round"/>
<path d="M188.62 172.635C188.274 170.206 187.583 167.951 187.064 165.521C183.433 166.563 179.284 167.43 174.789 167.951L175.653 178.014C175.653 178.014 181.013 180.269 189.657 179.749C189.311 177.493 188.966 175.064 188.62 172.635Z" fill="white" stroke="black" stroke-miterlimit="10" stroke-linecap="round" stroke-linejoin="round"/>
<path d="M35.0983 356.027L7.26368 408.078L2.25 418.488V422.132H156.291C156.291 422.132 151.45 406.343 168.22 392.289C176.173 385.696 196.228 385.87 210.231 378.583C253.28 356.201 216.282 351.169 216.282 351.169L156.291 334.166L35.0983 356.027Z" fill="white"/>
<path d="M2.42175 422.132C0.692892 373.031 -8.47004 292.873 47.372 289.403C103.214 285.933 127.418 296.863 186.199 288.882C244.98 280.728 265.208 274.481 273.161 289.229" fill="white"/>
<path d="M2.42175 422.132C0.692892 373.031 -8.47004 292.873 47.372 289.403C103.214 285.933 127.418 296.863 186.199 288.882C244.98 280.728 265.208 274.481 273.161 289.229" stroke="black" stroke-miterlimit="10" stroke-linecap="round" stroke-linejoin="round"/>
<path d="M266.936 278.472C281.977 277.951 295.808 280.207 291.14 297.037L285.781 311.958L227 330.523L200.375 336.075H191.731L189.656 332.084" fill="white"/>
<path d="M266.936 278.472C281.977 277.951 295.808 280.207 291.14 297.037L285.781 311.958L227 330.523L200.375 336.075H191.731L189.656 332.084" stroke="black" stroke-miterlimit="10" stroke-linecap="round" stroke-linejoin="round"/>
<path d="M198.473 313.519C198.473 313.519 269.356 299.292 288.892 297.557C308.428 295.822 307.391 314.387 298.055 318.377L273.332 339.545L237.026 359.324L232.531 369.04L215.588 374.592" fill="white"/>
<path d="M198.473 313.519C198.473 313.519 269.356 299.292 288.892 297.557C308.428 295.822 307.391 314.387 298.055 318.377L273.332 339.545L237.026 359.324L232.531 369.04L215.588 374.592" stroke="black" stroke-miterlimit="10" stroke-linecap="round" stroke-linejoin="round"/>
<path d="M261.854 326.532C261.854 326.532 305.076 312.132 311.991 323.583C318.907 335.207 301.1 358.804 235.403 375.113C169.706 391.249 157.086 385.176 156.394 422.306H113" fill="white"/>
<path d="M261.46 327.532C261.46 327.532 304.682 313.131 311.597 324.582C318.512 336.207 300.705 359.803 235.009 376.113C169.312 392.248 156.692 386.176 156 423.305" stroke="black" stroke-miterlimit="10" stroke-linecap="round" stroke-linejoin="round"/>
<path d="M319.837 188.945L297.707 198.487L291.656 221.91L297.707 235.79L369.973 251.059L421.839 221.91L401.266 185.128L365.133 180.79L319.837 188.945Z" fill="white"/>
<path d="M290.62 226.422C273.331 212.541 288.891 204.734 305.315 202.999C321.739 201.264 334.705 201.264 334.705 201.264" fill="white"/>
<path d="M290.62 226.422C273.331 212.541 288.891 204.734 305.315 202.999C321.739 201.264 334.705 201.264 334.705 201.264" stroke="black" stroke-miterlimit="10" stroke-linecap="round" stroke-linejoin="round"/>
<path d="M292.348 205.254C287.162 197.446 286.297 186.516 317.417 184.781C348.536 183.046 372.74 182.178 372.74 182.178" fill="white"/>
<path d="M292.348 205.254C287.162 197.446 286.297 186.516 317.417 184.781C348.536 183.046 372.74 182.178 372.74 182.178" stroke="black" stroke-miterlimit="10" stroke-linecap="round" stroke-linejoin="round"/>
<path d="M355.622 222.084C252.755 216.011 286.814 247.762 330.035 254.702C373.257 261.643 415.959 246.548 436.014 276.737C456.069 306.927 450.364 421.417 450.364 421.417L489 425.5L555.305 421.417C555.305 421.417 555.824 239.261 539.745 203.346C523.667 167.43 414.749 182.525 376.714 182.525" fill="white"/>
<path d="M355.622 222.084C252.755 216.011 286.814 247.762 330.035 254.702C373.257 261.643 415.959 246.548 436.014 276.737C456.069 306.927 450.364 421.417 450.364 421.417M555.305 421.417C555.305 421.417 555.824 239.261 539.745 203.346C523.667 167.43 414.749 182.525 376.714 182.525" stroke="black" stroke-miterlimit="10" stroke-linecap="round" stroke-linejoin="round"/>
<path d="M383.977 196.926C383.977 196.926 393.485 196.926 398.672 196.926H383.977Z" fill="white"/>
<path d="M383.977 196.926C383.977 196.926 393.485 196.926 398.672 196.926" stroke="black" stroke-miterlimit="10" stroke-linecap="round" stroke-linejoin="round"/>
<path d="M411.293 30.363C414.578 31.4041 415.096 32.9656 417.863 35.3946C419.246 36.4356 423.222 38.3442 424.086 39.3852C425.642 40.9467 425.297 43.3758 423.568 44.4168L411.466 51.8774V30.363H411.293Z" fill="black"/>
<path d="M490.475 193.629L508.109 199.528L494.451 228.676C494.451 228.676 484.77 224.859 488.573 216.011L478.027 211.673L490.475 193.629Z" fill="white" stroke="black" stroke-miterlimit="10" stroke-linecap="round" stroke-linejoin="round"/>
<path d="M456.936 161.358C444.315 142.793 435.844 116.594 438.091 90.5685C439.302 77.7293 426.162 77.0353 418.555 83.6284C416.308 83.2814 413.888 83.6284 411.467 84.6694C362.541 107.051 350.093 167.257 368.246 214.276C368.246 214.45 368.419 214.623 368.419 214.623C376.026 212.194 383.633 209.592 391.24 206.989C378.446 173.156 382.941 132.73 412.85 111.736C413.888 133.771 423.569 155.459 436.017 173.676C447.6 190.853 462.641 205.427 480.621 214.97C481.486 213.409 482.35 211.847 483.215 210.459C485.981 204.907 488.747 199.355 491.513 193.803C491.513 193.629 491.686 193.456 491.859 193.456C477.855 185.995 466.099 174.717 456.936 161.358Z" fill="black"/>
<path d="M401.783 88.4864C402.82 79.6377 402.993 77.2087 402.301 71.6566C398.325 67.8395 398.325 58.6439 408.525 55.0003C410.427 54.3063 412.502 53.9593 415.095 53.6123C417.688 53.4388 419.763 53.2653 421.665 53.4388C430.136 53.7858 432.383 57.4294 433.766 64.196C435.495 72.3506 438.089 88.6599 438.089 88.6599L401.783 88.4864Z" fill="white" stroke="black" stroke-miterlimit="10" stroke-linecap="round" stroke-linejoin="round"/>
<path d="M348.536 94.0385C344.041 87.9659 340.929 82.4138 340.41 87.6189C340.064 91.9565 342.139 94.0385 337.125 90.5685C332.284 87.0984 330.728 86.2309 330.21 88.4864C329.691 90.742 335.396 94.559 335.396 94.559C335.396 94.559 328.827 89.701 327.616 91.436C326.406 93.171 333.322 98.8966 333.322 98.8966C333.322 98.8966 326.06 93.3445 324.677 95.7736C323.294 98.0291 331.247 102.367 338.854 108.092" fill="white"/>
<path d="M348.536 94.0385C344.041 87.9659 340.929 82.4138 340.41 87.6189C340.064 91.9565 342.139 94.0385 337.125 90.5685C332.284 87.0984 330.728 86.2309 330.21 88.4864C329.691 90.742 335.396 94.559 335.396 94.559C335.396 94.559 328.827 89.701 327.616 91.436C326.406 93.171 333.322 98.8966 333.322 98.8966C333.322 98.8966 326.06 93.3445 324.677 95.7736C323.294 98.0291 331.247 102.367 338.854 108.092" stroke="black" stroke-miterlimit="10" stroke-linecap="round" stroke-linejoin="round"/>
<path d="M428.234 77.9027C424.777 84.8428 419.417 92.8239 414.404 98.5495C406.797 107.572 397.115 112.777 385.532 115.726C382.42 116.594 379.481 117.114 376.369 117.288C371.009 117.808 365.823 117.461 360.636 116.42C353.029 115.032 345.595 112.083 338.68 108.092C339.371 107.572 340.063 106.878 340.581 106.01C343.175 101.846 345.595 97.682 347.843 93.518C357.697 99.2435 369.108 101.846 380.864 99.07C389.681 96.8145 396.251 91.6094 401.956 84.8428C407.315 78.5967 410.946 71.1361 414.749 62.9814" fill="white"/>
<path d="M428.234 77.9027C424.777 84.8428 419.417 92.8239 414.404 98.5495C406.797 107.572 397.115 112.777 385.532 115.726C382.42 116.594 379.481 117.114 376.369 117.288C371.009 117.808 365.823 117.461 360.636 116.42C353.029 115.032 345.595 112.083 338.68 108.092C339.371 107.572 340.063 106.878 340.581 106.01C343.175 101.846 345.595 97.682 347.843 93.518C357.697 99.2435 369.108 101.846 380.864 99.07C389.681 96.8145 396.251 91.6094 401.956 84.8428C407.315 78.5967 410.946 71.1361 414.749 62.9814" stroke="black" stroke-miterlimit="10" stroke-linecap="round" stroke-linejoin="round"/>
<path d="M419.936 54.4798L421.665 53.4388C420.973 53.4388 420.282 53.4388 419.417 53.4388L414.058 40.9466C414.749 39.2116 414.576 36.7825 413.366 34.0065C410.773 27.5869 402.302 29.8424 400.573 34.527C398.671 39.0381 399.19 42.1611 399.19 42.1611L401.091 42.5081C401.091 42.5081 402.82 47.1927 407.315 46.1517L410.773 54.4798C409.909 54.6533 409.217 54.8268 408.525 55.1738L405.759 62.1139L419.936 54.4798Z" fill="white" stroke="black" stroke-miterlimit="10" stroke-linecap="round" stroke-linejoin="round"/>
<path d="M399.364 32.6185C400.056 35.5681 406.625 36.6091 408.873 36.2621C412.158 35.5681 413.541 38.8646 410.948 40.2526C409.737 40.7731 412.331 41.4672 413.022 41.4672C413.368 41.4672 413.714 41.4672 414.06 41.2936C414.924 39.3851 415.443 34.18 413.368 31.5775C411.293 28.8014 403.514 27.7604 403.341 30.016C400.402 28.6279 398.846 29.8425 399.364 32.6185Z" fill="black"/>
<path d="M410.949 41.1202C410.949 44.5903 408.874 52.9184 417.518 47.7133C426.163 42.5082 415.098 38.1707 415.098 38.1707L410.949 41.1202Z" fill="black"/>
<path d="M69.1547 296.169L52.0391 298.251L60.8562 332.258C60.8562 332.258 70.3649 330.523 67.9445 320.46L78.3177 318.551L69.1547 296.169Z" fill="white" stroke="black" stroke-miterlimit="10" stroke-linecap="round" stroke-linejoin="round"/>
<path d="M66.7344 310.223L71.5752 319.592" stroke="black" stroke-miterlimit="10" stroke-linecap="round" stroke-linejoin="round"/>
<path d="M253.276 303.456L252.758 320.807L287.508 316.99C287.508 316.99 287.162 307.273 276.789 308.141L276.27 297.384L253.276 303.456Z" fill="white" stroke="black" stroke-miterlimit="10" stroke-linecap="round" stroke-linejoin="round"/>
<path d="M266.762 307.794L276.789 304.498" stroke="black" stroke-miterlimit="10" stroke-linecap="round" stroke-linejoin="round"/>
<path d="M252.931 306.58C260.883 304.498 269.009 302.763 277.308 301.201C277.135 272.747 265.378 244.639 244.114 225.554C223.886 207.336 194.841 196.058 167.352 197.099C161.128 192.762 151.274 193.629 149.026 202.999C147.989 204.907 147.471 207.336 147.816 209.765C146.26 220.175 145.569 230.759 143.494 241.169C140.728 254.182 134.677 263.378 124.477 271.706C108.571 284.718 89.2081 293.047 68.9805 296.517C71.228 304.324 73.3026 312.132 74.8586 319.94C98.371 315.602 120.5 305.886 139.345 290.618C150.928 281.422 159.918 270.144 164.586 255.917C168.217 244.639 168.908 232.668 170.464 221.043C191.211 220.522 214.55 230.933 228.9 244.639C245.842 260.775 253.968 283.157 252.931 306.58Z" fill="black" stroke="black" stroke-miterlimit="10" stroke-linecap="round" stroke-linejoin="round"/>
<path d="M182.568 198.661L146.781 206.469C144.706 180.617 142.631 170.033 157.672 166.91C158.537 166.737 159.574 166.563 160.611 166.563C166.662 165.869 170.812 166.042 173.751 166.91C182.568 170.033 179.975 180.617 182.568 198.661Z" fill="black" stroke="black" stroke-miterlimit="10" stroke-linecap="round" stroke-linejoin="round"/>
<path d="M169.084 166.216L169.949 155.979C174.098 153.55 172.023 149.039 172.023 149.039L173.233 147.478C173.233 147.478 171.504 145.049 167.009 142.793C162.514 140.711 154.907 144.702 157.328 151.121C158.365 154.071 159.921 155.806 161.65 156.673L160.786 166.563C160.786 166.563 160.613 166.563 160.44 166.563C159.402 166.737 158.538 166.736 157.501 166.91C157.674 167.778 158.192 168.645 158.884 169.166C159.402 169.513 159.748 169.86 160.267 170.207C162.86 171.768 165.799 171.942 168.565 170.901C170.294 170.207 171.85 168.992 173.06 167.257C173.233 167.084 173.233 166.91 173.406 166.737C172.369 166.563 170.813 166.216 169.084 166.216Z" fill="white" stroke="black" stroke-miterlimit="10" stroke-linecap="round" stroke-linejoin="round"/>
<path d="M166.662 140.537C168.045 143.14 164.068 148.519 161.994 149.733C159.228 151.468 160.956 154.071 163.204 152.509C164.241 151.815 163.031 155.806 162.34 156.326C162.167 156.5 161.821 156.673 161.475 156.847C159.573 155.979 158.017 154.244 156.98 151.121C156.289 149.213 154.041 145.742 157.326 144.181C158.363 141.578 159.919 139.67 161.648 141.058C163.204 138.282 165.106 138.282 166.662 140.537Z" fill="black"/>
<path d="M255.526 121.973C254.315 121.799 251.895 126.31 251.03 128.045C251.722 125.79 253.278 120.238 252.068 119.891C250.858 119.544 248.437 124.055 247.573 125.79C248.091 123.708 249.475 118.503 248.091 118.329C244.807 117.982 243.769 128.392 241.695 126.831C239.793 125.443 243.251 123.361 241.695 120.758C240.139 117.982 235.644 127.004 232.705 134.812C226.999 147.478 218.009 158.061 206.253 165.522C196.399 171.768 176.863 180.443 165.452 173.676C155.943 168.124 145.57 181.831 155.079 187.557C172.022 197.62 194.497 191.894 210.921 182.872C227.518 173.676 240.484 159.796 248.264 142.619C250.339 138.108 258.292 122.493 255.526 121.973Z" fill="white" stroke="black" stroke-miterlimit="10" stroke-linecap="round" stroke-linejoin="round"/>
<path d="M174.961 176.105C171.503 176.105 168.218 175.238 165.452 173.676C155.943 168.124 145.57 181.831 155.079 187.556C161.13 191.2 168.045 192.762 174.961 192.935C174.788 187.209 174.788 181.657 174.961 176.105Z" fill="white" stroke="black" stroke-miterlimit="10" stroke-linecap="round" stroke-linejoin="round"/>
<path d="M142.457 207.856C158.881 206.121 183.777 196.405 183.777 196.405" stroke="white" stroke-miterlimit="10" stroke-linecap="round" stroke-linejoin="round"/>
<path d="M51.1653 191.739L43.5859 199.345L85.0278 240.935L92.6071 233.329L51.1653 191.739Z" fill="#FFD43B" stroke="black" stroke-miterlimit="10" stroke-linecap="round" stroke-linejoin="round"/>
<path d="M535.334 94.8482L523.879 77.9065L506.997 89.4023L518.452 106.344L535.334 94.8482Z" fill="#FFD43B" stroke="black" stroke-miterlimit="10" stroke-linecap="round" stroke-linejoin="round"/>
<path d="M375.505 288.362L374.641 297.904" stroke="black" stroke-miterlimit="10" stroke-linecap="round" stroke-linejoin="round"/>
<path d="M333.148 320.46L338.335 325.665" stroke="black" stroke-miterlimit="10" stroke-linecap="round" stroke-linejoin="round"/>
<path d="M116.176 95.4268L121.362 98.8968" stroke="black" stroke-miterlimit="10" stroke-linecap="round" stroke-linejoin="round"/>
<path d="M505.172 135.853L497.219 141.058" stroke="black" stroke-miterlimit="10" stroke-linecap="round" stroke-linejoin="round"/>
<path d="M115.488 334.514C175.998 313.693 207.636 337.463 235.298 319.419C262.96 301.548 271.085 328.615 257.254 342.495C243.424 356.375 204.179 372.511 192.077 375.981" fill="white"/>
<path d="M115.488 334.514C175.998 313.693 207.636 337.463 235.298 319.419C262.96 301.548 271.085 328.615 257.254 342.495C243.424 356.375 204.179 372.511 192.077 375.981" stroke="black" stroke-miterlimit="10" stroke-linecap="round" stroke-linejoin="round"/>
<path d="M386.227 245.506C343.524 214.796 325.717 203.866 341.277 191.721C356.837 179.575 380.522 207.336 396.082 210.806C411.641 214.276 435.327 191.721 457.802 230.412" fill="white"/>
<path d="M386.227 245.506C343.524 214.796 325.717 203.866 341.277 191.721C356.837 179.575 380.522 207.336 396.082 210.806C411.641 214.276 435.327 191.721 457.802 230.412" stroke="black" stroke-miterlimit="10" stroke-linecap="round" stroke-linejoin="round"/>
<path d="M417.674 351.679C400.124 369.385 371.622 369.636 353.761 352.339L417.771 287.763C435.225 305.47 435.225 333.973 417.674 351.679Z" fill="#4EC6D0" stroke="#073E4B" stroke-width="1.07546"/>
<mask id="mask0" mask-type="alpha" maskUnits="userSpaceOnUse" x="351" y="285" width="82" height="82">
<path d="M352.617 351.966L352.238 352.347L352.62 352.726C370.875 370.821 400.343 370.691 418.438 352.436C436.533 334.181 436.403 304.713 418.148 286.618L417.766 286.24L417.388 286.621L352.617 351.966Z" fill="#FFCE2B" stroke="#073E4B" stroke-width="1.07546"/>
</mask>
<g mask="url(#mask0)">
<g opacity="0.45">
<path d="M431.12 308.815C430.43 308.586 429.704 308.482 428.978 308.507C428.323 308.522 427.55 308.577 427.032 309.004C426.801 309.189 426.956 309.564 427.206 309.631C427.785 309.78 428.483 309.603 429.086 309.566C429.743 309.519 430.401 309.522 431.057 309.49C431.138 309.486 431.214 309.454 431.273 309.4C431.332 309.345 431.37 309.271 431.38 309.192C431.39 309.112 431.371 309.031 431.327 308.964C431.283 308.896 431.217 308.847 431.14 308.824L431.12 308.815Z" fill="white"/>
<path d="M425.972 326.894C426.109 326.366 426.137 325.816 426.052 325.278C426.02 325.01 425.963 324.746 425.883 324.489C425.801 324.232 425.657 324 425.464 323.812C425.417 323.767 425.359 323.737 425.295 323.726C425.232 323.714 425.166 323.721 425.106 323.745C425.047 323.77 424.996 323.812 424.959 323.865C424.923 323.919 424.903 323.982 424.902 324.046C424.884 324.275 424.901 324.505 424.952 324.728C425.015 324.969 425.076 325.215 425.138 325.453C425.251 325.929 425.332 326.415 425.445 326.891C425.445 326.96 425.473 327.026 425.523 327.074C425.572 327.122 425.638 327.149 425.707 327.149C425.741 327.148 425.775 327.141 425.806 327.128C425.838 327.115 425.866 327.095 425.89 327.071C425.938 327.022 425.965 326.956 425.965 326.887L425.972 326.894Z" fill="white"/>
<path d="M413.279 314.945C413.247 314.285 413.208 313.624 413.185 312.966C413.164 312.419 413.28 311.734 412.875 311.319C412.834 311.28 412.785 311.251 412.731 311.234C412.678 311.217 412.621 311.212 412.565 311.22C412.509 311.227 412.456 311.248 412.409 311.279C412.362 311.31 412.322 311.351 412.294 311.4C411.969 311.848 412.202 312.555 412.257 313.067C412.324 313.696 412.379 314.321 412.439 314.95C412.488 315.479 413.306 315.494 413.279 314.945Z" fill="white"/>
<path d="M412.192 328.074C411.475 327.967 410.75 327.913 410.025 327.913C409.357 327.916 408.573 327.868 407.965 328.159C407.656 328.306 407.763 328.758 408.056 328.841C408.667 329.018 409.398 328.867 410.027 328.837C410.724 328.801 411.413 328.758 412.115 328.699C412.452 328.67 412.574 328.129 412.192 328.074Z" fill="white"/>
<path d="M408.567 345.804L408.307 344.396C408.229 343.955 408.17 343.533 407.884 343.177C407.836 343.13 407.776 343.096 407.71 343.08C407.645 343.063 407.576 343.063 407.511 343.081C407.445 343.099 407.386 343.133 407.338 343.181C407.29 343.229 407.255 343.288 407.237 343.353C407.113 343.779 407.276 344.23 407.378 344.644L407.72 346.032C407.857 346.586 408.668 346.355 408.567 345.804Z" fill="white"/>
<path d="M396.809 331.894C396.774 331.303 396.764 330.712 396.759 330.112C396.761 329.62 396.884 329.041 396.545 328.639C396.496 328.591 396.431 328.564 396.362 328.565C396.294 328.565 396.228 328.592 396.18 328.641C395.817 329.007 395.909 329.647 395.909 330.116C395.919 330.707 395.966 331.301 396.027 331.888C396.076 332.38 396.837 332.393 396.805 331.886L396.809 331.894Z" fill="white"/>
<path d="M396.862 344.374C396.039 344.647 395.173 344.802 394.35 345.076C394.259 345.103 394.18 345.161 394.129 345.241C394.077 345.32 394.055 345.416 394.068 345.51C394.08 345.604 394.126 345.69 394.197 345.753C394.268 345.817 394.359 345.852 394.454 345.854C395.364 345.818 396.263 345.638 397.118 345.321C397.715 345.129 397.461 344.179 396.867 344.379L396.862 344.374Z" fill="white"/>
<path d="M394.703 359.937C394.46 358.97 394.352 357.686 393.725 356.894C393.683 356.85 393.63 356.819 393.571 356.803C393.512 356.788 393.45 356.788 393.392 356.805C393.334 356.822 393.281 356.854 393.24 356.898C393.198 356.943 393.17 356.997 393.157 357.057C393.013 358.062 393.557 359.218 393.849 360.18C393.88 360.294 393.956 360.391 394.058 360.45C394.161 360.509 394.283 360.524 394.398 360.493C394.512 360.462 394.609 360.386 394.668 360.284C394.726 360.181 394.742 360.059 394.711 359.944L394.703 359.937Z" fill="white"/>
<path d="M381.191 350.968C381.179 350.327 381.169 349.687 381.16 349.046C381.152 348.49 381.232 347.849 380.949 347.354C380.824 347.136 380.446 347.103 380.334 347.355C380.097 347.89 380.226 348.483 380.274 349.05C380.33 349.69 380.382 350.33 380.436 350.971C380.474 351.449 381.198 351.462 381.191 350.968Z" fill="white"/>
<path d="M380.013 362.126C380.094 362.061 380.148 361.968 380.167 361.866C380.185 361.763 380.166 361.657 380.112 361.568C379.962 361.328 379.643 361.309 379.387 361.314C378.629 361.346 377.76 361.644 377.267 362.241C377.228 362.282 377.203 362.333 377.193 362.388C377.183 362.443 377.19 362.5 377.211 362.551C377.233 362.603 377.269 362.647 377.315 362.679C377.361 362.711 377.415 362.729 377.471 362.73C377.888 362.713 378.299 362.631 378.69 362.486C378.889 362.418 379.089 362.355 379.284 362.283C379.404 362.238 379.688 362.047 379.816 362.083L379.633 361.946L379.64 361.905C379.628 361.953 379.633 362.003 379.653 362.048C379.672 362.093 379.706 362.13 379.748 362.155C379.791 362.179 379.84 362.189 379.889 362.183C379.938 362.176 379.983 362.155 380.018 362.121L380.013 362.126Z" fill="white"/>
<path d="M366.114 353.482C365.535 353.572 364.951 353.648 364.372 353.741C363.849 353.822 363.232 353.85 362.796 354.17C362.545 354.357 362.529 354.806 362.894 354.888C363.434 355.006 363.981 354.803 364.504 354.667C365.103 354.51 365.697 354.328 366.294 354.165C366.744 354.045 366.554 353.413 366.113 353.484L366.114 353.482Z" fill="white"/>
<path d="M364.166 370.012C364.119 369.381 364.069 368.75 364.028 368.117C363.991 367.55 363.994 367.052 363.624 366.587C363.591 366.556 363.552 366.532 363.51 366.518C363.467 366.504 363.421 366.5 363.377 366.506C363.332 366.512 363.289 366.529 363.252 366.554C363.215 366.579 363.183 366.612 363.161 366.651C362.904 367.181 363.029 367.682 363.119 368.24C363.222 368.869 363.312 369.489 363.404 370.114C363.472 370.544 364.199 370.448 364.166 370.012Z" fill="white"/>
<path d="M383.079 334.101C381.939 334.177 380.779 334.157 379.747 334.688C379.71 334.714 379.68 334.749 379.662 334.791C379.644 334.833 379.638 334.879 379.645 334.923C379.652 334.968 379.671 335.01 379.701 335.044C379.731 335.079 379.77 335.104 379.813 335.117C380.941 335.382 382.067 335.078 383.19 334.879C383.633 334.799 383.535 334.063 383.086 334.094L383.079 334.101Z" fill="white"/>
<path d="M399.167 314.764C398.554 314.815 397.957 314.989 397.341 315.024C396.724 315.06 396.105 314.918 395.577 315.172C395.518 315.206 395.467 315.254 395.429 315.311C395.391 315.368 395.366 315.433 395.357 315.501C395.348 315.569 395.355 315.638 395.377 315.703C395.399 315.768 395.435 315.827 395.484 315.875C396.006 316.334 396.846 316.252 397.49 316.153C398.194 316.08 398.865 315.813 399.427 315.382C399.476 315.33 399.509 315.265 399.522 315.196C399.535 315.126 399.527 315.053 399.5 314.988C399.472 314.922 399.427 314.866 399.368 314.826C399.309 314.786 399.24 314.764 399.169 314.763L399.167 314.764Z" fill="white"/>
<path d="M413.605 297.227L412.099 297.263C411.657 297.272 411.139 297.213 410.744 297.442C410.694 297.472 410.653 297.515 410.624 297.566C410.596 297.617 410.581 297.674 410.581 297.733C410.582 297.791 410.597 297.848 410.627 297.899C410.656 297.949 410.698 297.991 410.749 298.021C411.171 298.218 411.65 298.119 412.1 298.086L413.606 297.977C414.084 297.942 414.092 297.216 413.614 297.236L413.605 297.227Z" fill="white"/>
<path d="M429.159 295.758L429.204 293.987C429.225 293.464 429.357 292.803 429.18 292.304C429.157 292.227 429.11 292.161 429.046 292.113C428.982 292.066 428.905 292.04 428.825 292.041C428.745 292.041 428.668 292.067 428.604 292.115C428.541 292.163 428.495 292.23 428.472 292.307C428.279 292.798 428.39 293.467 428.39 293.991L428.396 295.769C428.397 296.249 429.123 296.242 429.126 295.766L429.159 295.758Z" fill="white"/>
</g>
</g>
</g>
<defs>
<linearGradient id="paint0_linear" x1="280.702" y1="9.02857" x2="280.702" y2="165.466" gradientUnits="userSpaceOnUse">
<stop stop-color="#4EC6D0"/>
<stop offset="0.4118" stop-color="#4EC6D0"/>
<stop offset="0.9989" stop-color="#FFFEFE"/>
<stop offset="1" stop-color="white"/>
</linearGradient>
<clipPath id="clip0">
<rect width="556" height="423" fill="white"/>
</clipPath>
</defs>
</svg>
