<?xml version="1.0" encoding="UTF-8"?>
<svg width="398px" height="178px" viewBox="0 0 398 178" version="1.1" xmlns="http://www.w3.org/2000/svg" xmlns:xlink="http://www.w3.org/1999/xlink">
    <title>logo-tipalti</title>
    <g id="Page-1" stroke="none" stroke-width="1" fill="none" fill-rule="evenodd">
        <g id="Artboard" transform="translate(-442.000000, -1146.000000)" fill="#FFFFFF" fill-rule="nonzero">
            <g id="logo-tipalti" transform="translate(442.000000, 1146.000000)">
                <path d="M165.308229,100.379485 C165.244101,99.2916457 165.308229,98.2038067 165.115845,97.1159676 C164.089799,89.3731133 159.472591,84.5098328 152.418525,83.7419465 C147.865445,83.2300222 143.504749,83.9979086 139.400565,85.9816151 C125.677198,92.7006209 123.240339,111.001913 128.434697,121.688332 C130.422662,125.847716 140.362483,131.222921 150.366432,127.319499 C162.101835,122.840161 165.308229,112.281724 165.308229,100.379485 M121.38063,131.734845 C118.815515,147.476516 116.378656,162.706263 113.877668,178 L99,178 C100.154302,170.83306 101.244476,163.922083 102.398778,156.947115 C106.054067,134.166486 109.773484,111.385856 113.428773,88.6052269 C113.428773,88.4772458 113.492901,88.4132553 113.492901,88.2852742 C114.13418,82.718098 113.044006,81.3103063 107.336624,80.4144388 C107.849648,77.2149122 108.298543,74.0153856 108.939822,70.8798495 C109.003949,70.4319158 109.837612,69.856001 110.414763,69.856001 C113.364645,69.6000389 116.378656,69.1521052 119.328538,69.4720578 C125.677198,70.2399442 128.691209,74.2073572 128.178186,80.6064104 C128.114058,81.1823252 128.114058,81.6942494 127.985802,83.0380506 C132.538882,75.9990921 138.502775,72.1596602 145.877481,70.1759537 C157.356371,67.0404176 169.091774,70.3039348 175.632817,78.4307323 C179.352235,83.0380506 181.211943,88.4132553 181.724966,94.0444221 C183.135779,109.786093 179.223979,123.608048 167.552704,134.166486 C158.446545,142.421264 147.352422,144.788914 134.911613,141.653378 C129.26836,140.309577 125.100047,136.790097 121.38063,131.734845" id="Shape"></path>
                <path d="M247.750302,85.1646561 C245.380832,84.3328735 243.715799,83.6930408 241.986726,83.2451579 C228.79454,79.9180278 216.62699,83.7570241 210.479175,93.4824813 C206.060433,100.392675 204.523479,108.13465 205.612155,116.388492 C206.70083,124.514368 211.75997,128.86523 219.828976,128.545314 C230.843811,128.097431 238.272421,122.01902 241.666527,112.22958 C244.612355,103.655821 245.76507,94.3782471 247.750302,85.1646561 M262.92772,131.104645 C262.479442,134.111859 262.095203,137.055089 261.454806,139.934336 C261.262687,140.766119 260.302091,141.917818 259.533614,141.981801 C256.459707,142.237734 253.321759,142.429684 250.311892,141.981801 C245.82911,141.277985 243.267521,138.270771 242.691163,133.727959 C242.435004,132.064394 242.499044,130.336846 242.435004,129.24913 C239.104938,132.128377 235.774871,135.71144 231.804407,138.334754 C224.824076,142.877567 216.819109,144.029266 208.429903,142.109767 C198.439704,139.870353 191.459373,132.064394 189.60222,120.611388 C186.592353,101.992256 194.853479,80.6218438 214.641758,72.879868 C230.459573,66.6734907 246.405468,68.3370557 262.415402,74.8633494 C264.336594,75.6311487 264.080435,76.9108141 263.824276,78.2544628 C261.518846,92.3307824 259.149376,106.471085 256.843945,120.547405 C256.587786,122.083004 256.331627,123.682585 256.267587,125.218184 C255.947389,129.313113 257.228183,130.656762 261.326727,130.912695 C261.903084,130.976678 262.351362,131.040662 262.92772,131.104645" id="Shape"></path>
                <path d="M29.9039548,53.0248293 L0,53.0248293 C0.82889427,47.8460583 1.59402744,42.9869646 2.42292171,38 L79,38 C78.2986279,42.2197393 77.4697337,46.3755431 77.023406,50.531347 C76.7683616,52.5133457 76.0032284,53.0887647 74.0266344,53.0887647 C65.9927361,52.9608939 57.9588378,53.0248293 49.8611784,53.0248293 L46.6731235,53.0248293 C41.8910412,82.4351335 37.1089588,111.653631 32.3268765,141 L15.5577078,141 C20.3397902,111.781502 25.0581114,82.6269398 29.9039548,53.0248293" id="Path"></path>
                <path d="M327.079275,81.5699842 C322.386183,81.185715 317.946772,80.8654907 313,80.4812215 C313.570781,76.9587542 314.078143,73.6284215 314.648924,70.0419093 L328.98188,70.0419093 C330.440544,63.7014682 331.518686,60.6273149 332.787089,54.4790083 C333.294451,51.9812588 334.182333,50.8284513 336.97282,51.0205858 C340.397508,51.2767653 343.885617,51.0846307 347.690827,51.0846307 C346.549264,58.5138345 345.851642,62.5486607 344.646659,69.9138196 L369,69.9138196 C368.492639,73.5003318 368.112118,76.8306645 367.414496,80.0329075 C367.287656,80.6733561 365.765572,81.3778496 364.81427,81.3778496 C358.281993,81.5059393 351.749717,81.5059393 345.217441,81.3778496 C343.314836,81.3778496 342.490374,81.8261636 342.236693,83.8755991 C340.651189,94.8272702 338.621744,105.650852 337.289921,116.666568 C336.211778,125.568803 340.778029,129.987898 349.593431,129.34745 C353.398641,129.09127 357.07701,128.066553 361.07248,127.362059 C361.00906,130.820482 361.00906,134.406994 360.88222,137.929461 C360.88222,138.44182 360.248018,139.146313 359.740657,139.274403 C352.257078,141.323839 344.710079,142.92496 336.782559,141.387884 C326.381653,139.402493 320.420159,131.845199 321.498301,120.829483 C322.576444,109.621633 324.605889,98.5418721 326.254813,87.3980664 C326.508494,85.6048103 326.825595,83.6834645 327.079275,81.5699842" id="Path"></path>
                <path d="M306,127.865399 C305.487556,131.881554 305.103223,135.515218 304.526723,139.085133 C304.398612,139.722618 303.501835,140.551349 302.925335,140.551349 C297.800894,140.742594 292.548342,141.380079 287.487956,140.678846 C280.569961,139.786367 276.72663,135.260224 276.15013,128.056644 C275.829853,123.657998 276.022019,119.131855 276.72663,114.796958 C281.018349,87.8313453 284.669514,66.5393488 289.1534,39.6374849 C289.1534,39.4462394 289.345566,39.3187425 289.473677,39 L305.231334,39 C304.206446,45.1836038 303.245613,51.2397106 302.220725,57.2958174 C298.697671,78.5878139 296.071395,94.2699431 292.548342,115.625688 C292.356175,116.900658 292.29212,118.175628 292.29212,119.450598 C292.420231,126.590429 295.558951,129.267866 302.605058,128.311638 C303.501835,128.184141 304.526723,128.056644 306,127.865399" id="Path"></path>
                <path d="M69,140.932036 C70.037037,134.692402 71.0092593,128.834787 71.9814815,122.913502 C74.7685185,106.104694 77.5555556,89.2958848 80.2777778,72.4234064 C80.6018519,70.6406539 81.1851852,69.9402869 83.0648148,70.0039566 C87.6018519,70.1312961 92.0740741,70.0676264 97,70.0676264 C95.7685185,77.3896453 94.6666667,84.3296459 93.5,91.2696464 C90.9074074,107.059739 88.25,122.786163 85.7222222,138.576256 C85.3981481,140.422678 84.8148148,141.059375 82.9351852,140.995706 C78.3333333,140.868366 73.8611111,140.932036 69,140.932036" id="Path"></path>
                <path d="M397,70.1316212 C395.49652,79.4273042 394.118329,88.2136347 392.740139,96.9999651 C390.547564,110.94349 388.229698,124.823345 386.099768,138.766869 C385.849188,140.485934 385.222738,141.058956 383.531323,140.995287 C379.146172,140.867949 374.761021,140.931618 370,140.931618 C370.814385,135.519747 371.62877,130.426222 372.443155,125.332698 C375.262181,107.760037 378.143852,90.1237065 380.837587,72.5510455 C381.150812,70.5773046 381.839907,69.940614 383.781903,70.0042831 C388.041763,70.2589593 392.301624,70.1316212 397,70.1316212" id="Path"></path>
                <path d="M393.54122,29.2690058 C393.477523,29.2046784 392.649464,28.3684211 390.865952,27.0175439 C389.910499,26.245614 388.955046,25.5380117 387.362624,24.5087719 C386.152384,23.7368421 384.687356,22.9005848 383.158632,22.0643275 L381.56621,21.1637427 C380.101182,20.3918129 378.636155,19.6842105 377.043733,18.9122807 C376.279371,18.5263158 375.451312,18.1403509 374.623252,17.754386 C372.903437,16.9824561 371.119925,16.2748538 369.209019,15.502924 C368.253567,15.1169591 367.36181,14.7309942 366.342661,14.3450292 C359.590794,11.9005848 352.902623,9.77777778 346.405544,8.16959064 C331.755266,4.24561404 314.42972,1.60818713 296.212418,0.514619883 C289.587945,0.192982456 283.027168,0 276.848573,0 C273.918517,0 270.924765,0.0643274854 267.931012,0.128654971 L260.733267,0.450292398 L250.350679,1.22222222 C246.719958,1.54385965 243.02554,1.86549708 239.203729,2.31578947 C234.362767,2.83040936 229.585503,3.40935673 224.871935,4.18128655 C220.604246,4.76023392 216.081769,5.53216374 210.731232,6.56140351 C201.941066,8.10526316 193.53308,10.0994152 183.59637,12.6081871 C176.526019,14.5380117 167.353671,17.1754386 158.818292,20.1988304 C151.620547,22.7076023 144.295408,25.4736842 137.161359,28.4327485 C123.657625,34.0935673 112.956553,39.625731 105.949898,43.2280702 C102.956146,44.7719298 100.471968,46.122807 98.6247593,47.0877193 L94.4207665,49.3391813 C93.1468293,50.0467836 92.6372544,51.5906433 93.274223,52.9415205 C93.9111916,54.2280702 95.5036131,54.871345 96.904944,54.1637427 L101.108937,52.1052632 C103.019843,51.2046784 105.50402,49.9181287 108.561469,48.502924 C112.319584,46.7017544 117.096849,44.6432749 122.065204,42.5204678 C128.43489,39.8830409 134.295001,37.6315789 139.964021,35.6374269 C146.397404,33.3859649 153.722543,30.877193 161.557257,28.9473684 C170.028939,26.6315789 179.13759,24.7660819 186.080548,23.4152047 C195.953561,21.6783626 204.680031,20.4561404 212.705835,19.6842105 C217.928978,19.1052632 222.324061,18.7836257 226.464357,18.5263158 C231.305318,18.1403509 236.146279,17.9473684 240.286575,17.8187135 C243.853599,17.625731 247.611714,17.625731 251.242435,17.5614035 L257.866909,17.625731 L267.994709,17.754386 C277.230754,18.0760234 286.084617,18.7836257 294.301512,19.9415205 C301.180773,21.0350877 310.16203,22.5146199 318.315228,24.7017544 C324.876005,26.502924 332.455931,28.6900585 338.889314,31.3918129 C345.195303,33.8362573 350.545839,36.6666667 354.940923,39.0467836 C359.909278,41.9415205 363.794786,44.5146199 366.087873,46.1871345 L372.776044,51.2046784 C374.623252,52.5555556 375.706099,53.1345029 375.769796,53.1988304 C377.935489,54.4210526 380.419667,55 382.967541,55 C386.980443,55 390.802255,53.3918129 393.604917,50.5614035 C396.407579,47.7309942 398,43.9356725 398,39.8830409 C397.936303,35.8947368 396.407579,32.0994152 393.54122,29.2690058" id="Path"></path>
            </g>
        </g>
    </g>
</svg>