<?xml version="1.0" encoding="UTF-8"?>
<svg width="366px" height="191px" viewBox="0 0 366 191" version="1.1" xmlns="http://www.w3.org/2000/svg" xmlns:xlink="http://www.w3.org/1999/xlink">
    <title>logo=harness copy</title>
    <g id="Page-1" stroke="none" stroke-width="1" fill="none" fill-rule="evenodd">
        <g id="Artboard" transform="translate(-890.000000, -227.000000)" fill="#FFFFFF" fill-rule="nonzero">
            <g id="logo=harness-copy" transform="translate(890.777778, 227.000000)">
                <path d="M103.499923,176.03995 C103.302046,167.701894 102.986513,159.363839 102.719112,151.031173 C102.430319,141.960101 98.5369628,136.909837 89.7234303,133.993943 C85.0760032,132.463234 80.369748,133.110012 75.6421006,133.287876 C70.3101274,133.48191 65.8498809,135.686348 62.0902247,139.222071 C58.779802,142.342779 56.7796435,146.067146 57.555106,150.939546 C60.7585684,150.939546 63.8711145,150.831749 66.9729645,150.971885 L69.7860217,150.971885 C70.1069027,149.791513 70.5989203,148.67043 71.2513784,147.630195 L71.5080832,147.247517 C74.0804796,143.550099 79.471281,142.132575 84.6802499,143.765692 C88.5949986,144.989181 90.0229192,147.47389 90.0122232,152.653509 C90.0122232,154.308185 89.4827695,155.100489 87.7393158,155.240624 C82.1773778,155.68798 76.6154398,156.135335 71.0748938,156.744385 C64.1492114,157.50974 58.6407535,160.722074 55.7421281,167.017387 C51.9557319,175.236866 55.5068154,184.329497 63.4753612,188.851559 C67.4596341,191.115284 71.6631757,190.797284 75.9469376,190.980538 C81.2200827,191.212301 85.5680208,189.363592 89.3972012,185.994952 C90.1459236,185.337394 90.9588223,184.755293 91.8840293,184.027667 C92.113994,184.636717 92.2209544,184.992445 92.3706989,185.321225 C93.2638177,187.099866 94.7238265,188.549728 96.5314563,189.439049 C102.553324,192.904705 108.222222,189.439049 108.222222,189.439049 L108.222222,179.413979 L106.291588,179.413979 C104.179121,179.257674 103.564099,178.007235 103.499923,176.03995 Z M89.9854831,168.089962 C89.8571307,176.65439 80.2627876,182.820347 72.1551933,179.559504 C69.4063124,178.449201 67.8019072,176.233984 67.8177146,173.560632 C67.8177146,170.736364 69.5293168,168.063012 72.4546823,167.421623 C76.4870874,166.532303 80.6424968,166.138846 84.7337301,165.556745 C85.5145406,165.448948 86.2953512,165.465118 87.0708137,165.39505 C89.5736858,165.168678 90.0175712,165.578304 89.9854831,168.089962 Z" id="Shape"></path>
                <path d="M195.01033,136.93642 C188.798438,131.564404 174.8799,131.586109 168.722166,137.647263 C167.790653,138.564304 166.745409,139.378246 165.331892,140.620863 C165.223576,139.041816 165.158587,138.113923 165.093598,137.180603 C164.93654,134.890713 164.427457,134.337233 162.136585,134.212428 C160.165244,134.103903 158.188486,134.060492 156.217145,134.076771 C153.363032,134.103903 153.222222,134.217854 153.222222,137.039519 C153.222222,154.235397 153.243885,171.425848 153.281796,188.60002 C153.281796,188.985286 153.357617,189.337994 153.41719,189.95659 L166.685835,189.95659 C166.685835,189.191484 166.685835,188.507773 166.685835,187.81321 C166.739993,181.204002 166.685835,174.600221 166.886219,167.99644 C167.027029,163.584875 167.238244,159.140753 167.94771,154.794303 C168.67884,150.301345 173.58553,145.748697 177.457808,145.694434 C184.05422,145.607614 187.211616,147.425417 187.282021,154.164855 C187.395753,165.332137 187.736946,176.493992 187.980656,187.634142 C187.980656,188.328706 187.980656,189.017844 187.980656,190 L201.065165,190 C201.146401,189.48993 201.200559,188.974433 201.222222,188.458937 C201.17348,174.98006 201.254717,161.50661 200.967681,148.065718 C200.875613,143.594464 198.44393,139.893742 195.01033,136.93642 Z" id="Path"></path>
                <path d="M299.759118,157.434201 C297.030892,156.803526 294.243473,156.426199 291.477579,155.962625 C288.787021,155.509833 286.010364,155.364293 283.422047,154.598858 C280.473195,153.725615 279.327017,151.962959 279.370066,149.628922 C279.418496,147.095441 281.005926,145.041704 283.685722,144.055263 C290.089251,141.694275 295.814759,143.801915 298.935807,149.612751 C299.199482,150.097886 299.786023,150.760903 300.232656,150.760903 C304.198539,150.847149 308.169803,150.814807 312.135686,150.814807 C312.350931,147.208639 309.224502,141.581076 305.829018,138.260599 C298.80666,131.398638 281.242695,131.544178 273.822135,136.988468 C268.021291,141.246873 265.239253,146.788189 266.600676,153.779519 C267.913668,160.522892 272.670576,164.226087 279.327017,165.746175 C281.743139,166.295995 284.202309,166.662541 286.645336,167.06682 C289.852482,167.605858 293.091914,168.026308 296.288297,168.646203 C298.015636,168.975016 299.425489,169.891382 299.990506,171.702551 C301.061348,175.125446 299.597684,178.305774 296.159151,179.701884 C292.720617,181.097994 289.179842,181.270486 285.574494,180.585907 C282.195152,179.939061 279.633741,178.25187 278.121647,175.260206 C278.121647,175.260206 277.901021,174.737339 277.379053,173.395133 L272.756674,173.395133 C270.103783,173.395133 267.337889,173.395133 264.222222,173.395133 C264.641949,175.249425 265.287683,177.049814 266.143281,178.753176 C266.38005,179.302995 266.659868,179.831253 266.977354,180.337949 C267.068833,180.48349 267.171074,180.62364 267.267934,180.76918 C268.462542,182.731281 269.996161,184.477765 271.798835,185.93856 C275.350372,188.941005 279.719839,190.665928 284.982571,190.854592 C291.041709,191.070207 297.111608,191.425973 302.842498,188.714609 C310.193103,185.232419 313.916836,178.958011 313.11505,171.055705 C312.420886,164.12906 307.723171,159.283103 299.759118,157.434201 Z" id="Path"></path>
                <path d="M361.692268,163.294713 C359.43272,160.627553 356.609627,158.695606 353.163951,157.885261 C349.814883,157.096383 346.406776,156.565097 343.025505,155.915749 C340.052133,155.341531 336.885546,155.196635 334.148326,154.080399 C330.0747,152.411411 330.069333,147.055624 333.853136,144.710455 C339.789145,141.039755 348.070576,143.535187 350.727289,149.76035 C350.931239,150.232604 351.543088,150.87122 351.967088,150.87122 C355.418132,150.892686 358.869175,150.785356 362.320219,150.704858 C363.758601,150.672659 364.118196,149.840848 363.753234,148.649481 C361.79961,142.338453 358.278795,137.229526 351.736303,134.825325 C346.390675,132.855813 340.803527,132.625052 335.173442,133.44613 C329.543357,134.267207 324.793476,136.644576 321.267293,141.10952 C319.97919,142.735576 319.039948,144.592392 318.503238,146.572637 C317.971896,148.55825 317.848453,150.62436 318.14901,152.652904 C318.449567,154.681449 319.163391,156.634862 320.247545,158.389714 C321.337066,160.144566 322.775448,161.668658 324.482185,162.876125 C327.815152,165.253493 331.66336,166.020906 335.613544,166.60049 C339.72474,167.206906 343.846671,167.80259 347.941766,168.505604 C349.675338,168.811496 351.097619,169.718438 351.618227,171.526955 C352.788254,175.589411 351.618227,177.950679 347.603639,179.52307 C346.519485,179.941658 345.397762,180.274382 344.249203,180.505143 C337.744281,181.841406 333.380831,180.150952 330.085434,175.106424 C330.085434,175.106424 329.865383,174.591238 329.344774,173.249608 L316.222222,173.249608 C316.431539,174.199482 316.710628,175.133256 317.054122,176.045565 C318.175846,179.855794 320.451495,183.247434 323.585879,185.775065 C332.243007,192.939369 349.943693,192.19879 357.543502,186.805437 C361.064318,184.310005 363.860575,181.261822 364.118196,176.737846 C364.252374,174.398043 364.177234,172.047507 364.220171,169.702338 C364.273842,167.233739 363.270195,165.156896 361.692268,163.294713 Z" id="Path"></path>
                <path d="M128.638606,141.446167 C128.246905,139.210981 128.005445,137.745812 127.769352,136.275296 C127.613744,135.307428 127.254238,134.612275 126.057672,134.62297 C122.870407,134.639012 119.693873,134.639012 116.222222,134.639012 C116.222222,135.280692 116.222222,135.842162 116.222222,136.403632 C116.222222,148.79875 116.222222,161.193868 116.222222,173.583639 C116.222222,178.45506 116.270514,183.321133 116.286611,188.187206 C116.286611,189.112295 116.254417,190.0053 117.628053,190 C121.582623,190 125.537193,190 129.674199,190 C129.674199,188.72194 129.674199,187.97866 129.674199,187.230034 C129.878098,177.685044 129.96395,168.145401 130.323456,158.605759 C130.543453,152.846681 134.93265,148.221238 140.74914,147.162466 C142.578867,146.825584 144.440788,146.681206 146.222222,146.451271 L146.222222,134.104278 C139.144776,133.414472 133.612671,136.179044 128.638606,141.446167 Z" id="Path"></path>
                <path d="M29.8776653,132.835906 C29.5299107,132.835906 29.1875062,132.835906 28.8397516,132.835906 C18.310812,132.626455 13.7044009,138.93147 13.7044009,138.93147 C13.7044009,135.386913 13.7258012,132.47608 13.7044009,129.565247 C13.6562503,124.490087 13.5813493,119.409556 13.5010983,114.323654 C13.5010983,113.211952 13.4368974,112.041174 11.8693266,112.014321 C8.05472605,111.982098 4.24012548,112.014321 0.307823357,112.014321 C0.275722931,112.707121 0.222222222,113.324733 0.222222222,113.920863 C0.222222222,135.515806 0.232922364,157.094637 0.248972577,178.662727 C0.248972577,181.901163 0.291773144,185.139599 0.275722931,188.378035 C0.275722931,189.312509 0.404124634,190.005309 1.59719045,190 C5.53484265,190 9.47784492,190 13.7900021,190 C13.7900021,185.520908 13.7525516,181.541337 13.7900021,177.556396 C13.8702531,170.896926 13.9291039,164.221344 14.1431068,157.572615 C14.1752072,156.439431 14.3571096,155.311618 14.688814,154.221398 C14.7316146,154.103246 17.9042066,145.505011 25.9935139,145.027033 C27.1705295,145.155926 28.3207947,145.456676 29.401509,145.929284 C31.3489348,146.863758 33.5210636,148.7703 34.2005226,152.658571 C34.2754236,156.466284 34.4198756,160.279368 34.451976,164.087081 C34.5161768,171.954923 34.5696775,179.828135 34.532227,187.712088 C34.532227,189.237321 35.0297836,189.956974 36.5866543,189.951603 C40.4012548,189.951603 44.2158554,189.951603 47.9876554,189.951603 C48.0786066,189.704558 48.1481575,189.452143 48.1909581,189.194357 C48.1909581,175.929122 48.2979595,162.663888 48.1160571,149.398653 C48.0251059,132.084031 29.8776653,132.835906 29.8776653,132.835906 Z" id="Path"></path>
                <path d="M260.222222,166.097349 L260.195344,163.96316 C260.211471,163.684321 260.222222,163.367947 260.222222,163.014036 C260.222222,161.946941 260.189968,160.869122 260.141587,159.791303 L260.141587,159.571449 C260.0502,157.501608 259.797543,155.437128 259.383614,153.404822 C258.012813,146.996892 255.174447,141.302146 249.540722,137.280433 C244.616588,133.768137 239.058123,132.835099 233.085729,133.022779 C223.92555,133.317705 217.189807,137.403766 212.582839,144.900239 C208.395175,151.726427 207.658705,159.265799 208.567197,166.96604 C210.088518,179.937406 218.936907,190.742409 234.316762,190.994436 C244.541329,191.166029 252.604867,187.380256 257.163453,178.028432 C257.856918,176.612789 258.147205,175.014828 258.711653,173.213101 L258.561133,173.213101 L258.711653,173.143391 L245.379936,173.143391 L244.600461,175.047002 L244.664969,175.068451 C242.315792,179.331467 238.396913,180.269867 233.435149,180.076825 C226.710158,179.819435 221.29146,171.963689 222.538621,166.108074 L260.222222,166.108074 L260.222222,166.097349 Z M246.22392,156.166399 L222.393477,156.166399 C222.001052,149.03456 227.425125,143.661551 234.779072,143.725899 C241.52019,143.779522 246.680854,149.302675 246.22392,156.161036 L246.22392,156.166399 Z" id="Shape"></path>
                <path d="M227.529225,32.9023608 L226.685374,32.0818129 L201.342957,7.46537673 C196.39272,2.681529 189.695658,0 182.719102,0 C175.737173,0 169.04011,2.681529 164.089873,7.46537673 L140.096544,30.7785898 L137.90898,32.9023608 C137.575739,33.2134182 137.263998,33.5352016 136.973756,33.8677112 C133.592975,37.5360429 131.362413,42.07319 130.556185,46.9321205 C129.755333,51.7964141 130.400315,56.778695 132.432008,61.2943898 C133.738096,64.2118934 135.597794,66.861244 137.914355,69.1083653 L164.100623,94.5453494 C167.59965,97.9455282 172.028526,100.316 176.865891,101.367159 C178.677215,101.764025 180.526164,101.973185 182.385862,102 L183.068468,102 C184.933541,101.973185 186.787864,101.764025 188.604563,101.361796 C193.436553,100.310637 197.85468,97.9455282 201.353707,94.5453494 L227.539975,69.1083653 C232.259093,64.4907724 235.000266,58.3071665 235.209886,51.8071402 C235.41413,45.3017509 233.07607,38.9679794 228.657944,34.0768705 C228.281704,33.6692781 227.916214,33.2831379 227.529225,32.9023608 Z M168.508,24.3536464 L176.452028,16.6308428 C177.709742,15.4187917 179.306073,14.5982439 181.042149,14.2764604 C182.783601,13.9546769 184.578801,14.1423839 186.20738,14.8181292 C187.244726,15.2418108 188.185325,15.8585625 188.980802,16.6308428 L190.018149,17.6337347 L197.11295,24.5306273 L197.408567,24.8148693 L182.385862,39.8475209 L167.696397,25.1366528 L168.508,24.3536464 Z M156.952073,65.3113203 L155.866353,64.2547978 L149.873395,58.4358799 L147.911575,56.5319943 C147.390215,56.0171408 146.938727,55.4432935 146.567863,54.8211788 C145.842258,53.6198538 145.42302,52.2683632 145.347772,50.8793312 C145.277899,49.4849361 145.552016,48.0959041 146.148624,46.8302224 C146.578612,45.9077764 147.180596,45.0657763 147.91695,44.3417635 L151.286981,41.0702981 L156.285591,36.2167306 L156.887574,35.6321573 L171.738284,50.5039171 L156.952073,65.3113203 Z M189.996649,83.2668384 L188.980802,84.248278 C188.330446,84.8864819 187.572592,85.4174247 186.75024,85.819654 C185.385028,86.4953993 183.858571,86.8118198 182.326738,86.7474631 C180.800281,86.6777433 179.311448,86.2272464 178.010734,85.44424 C177.446375,85.1010043 176.91964,84.6987749 176.446653,84.242915 L176.328406,84.1302908 L168.787492,76.8097166 L167.755521,75.8014617 L182.385862,61.1603134 L182.514858,61.2890268 L197.338694,76.1286082 L189.996649,83.2668384 Z M217.521255,56.5266313 L216.139919,57.8405805 L208.351761,65.4507598 L208.147517,65.6491929 L193.028064,50.4985541 L208.20664,35.3050108 L208.991368,36.066565 L215.914175,42.7918397 L217.50513,44.3417635 C218.741346,45.5430885 219.579822,47.0769231 219.907688,48.7501972 C219.939937,48.9003628 219.966812,49.0505284 219.993686,49.200694 L219.993686,49.2543246 C220.18718,50.5682738 220.063559,51.9090383 219.638946,53.169357 C219.208958,54.4350386 218.483353,55.5827331 217.521255,56.5266313 Z" id="Shape"></path>
            </g>
        </g>
    </g>
</svg>