<?xml version="1.0" encoding="UTF-8"?>
<svg width="342px" height="216px" viewBox="0 0 342 216" version="1.1" xmlns="http://www.w3.org/2000/svg" xmlns:xlink="http://www.w3.org/1999/xlink">
    <title>logo-gong copy</title>
    <g id="Page-1" stroke="none" stroke-width="1" fill="none" fill-rule="evenodd">
        <g id="Artboard" transform="translate(-187.000000, -180.000000)" fill="#FFFFFF" fill-rule="nonzero">
            <g id="logo-gong-copy" transform="translate(187.098901, 180.000000)">
                <polygon id="Path" fill-opacity="0.2" points="210.216328 66.7008 217.270457 37.8 177.339814 40.392 169.43064 8.2944 140.53009 25.5312 125.524035 0 105.002934 21.2544 79.8218328 3.9744 69.7322916 30.7152 24.3721081 23.112 38.651374 55.0368 5.30458515 67.608 26.0821997 98.1504 0.901098901 133.5312 46.21853 137.8512 5.56109889 216 69.5612824 167.184 85.8071539 194.7888 102.566053 170.64 130.996328 198.7632 150.448622 172.5408 188.198897 182.5632 189.011191 146.4912 224.025319 141.3504 210.515594 107.6976 233.901099 87.4368"></polygon>
                <path d="M119.901099,96.1688312 L117.333811,129.70872 C113.996337,131.415584 110.059829,132.738404 105.524287,133.634508 C100.988746,134.530612 96.153687,135 90.9763231,135 C84.2157987,135 78.3538249,133.67718 73.3904018,131.03154 C68.4269789,128.3859 64.6188351,124.588126 61.9231832,119.680891 C59.227531,114.773655 57.9010989,109.012987 57.9010989,102.356215 C57.9010989,95.0593693 59.3986834,88.6586271 62.3938526,83.1966604 C65.3890216,77.6920222 69.6678345,73.4675324 75.1875032,70.4805195 C80.707172,67.4935064 87.1681796,66 94.570526,66 C104.925253,66 113.226151,68.4322821 119.387641,73.3821891 L112.926634,85.9703155 C110.188193,83.8794063 107.535329,82.3432282 104.882465,81.4044527 C102.229601,80.4230055 99.1488559,79.9536178 95.6830173,79.9536178 C89.3075862,79.9536178 84.3869512,81.9591837 80.9211128,85.9276437 C77.4552741,89.8961038 75.7437489,95.4434138 75.7437489,102.569573 C75.7437489,108.756957 77.1985455,113.493507 80.1509263,116.736549 C83.1033072,120.022264 87.5104847,121.643785 93.4580348,121.643785 C96.1108986,121.643785 98.9349154,121.25974 101.972872,120.491651 L102.914211,108.202226 L91.0618995,108.202226 L92.0032384,96.2115027 L119.901099,96.2115027 L119.901099,96.1688312 Z" id="Path"></path>
                <path d="M173.206602,114.720543 C176.26163,110.515731 177.789144,104.734115 177.789144,97.3318938 C177.789144,91.1998766 176.39256,86.4256631 173.643034,83.0092536 C170.849865,79.5928439 167.009258,77.9284392 162.033926,77.9284392 C156.665805,77.9284392 152.476051,80.030845 149.464666,84.235657 C146.409638,88.4404689 144.925767,94.2220851 144.925767,101.624306 C144.925767,107.843924 146.278708,112.618137 149.028234,115.990746 C151.777759,119.363356 155.66201,121.027761 160.768272,121.027761 C166.005463,121.027761 170.151573,118.925355 173.206602,114.720543 M142.918177,130.970389 C137.768272,128.298581 133.796735,124.40037 131.047209,119.363356 C128.25404,114.326342 126.901099,108.413325 126.901099,101.624306 C126.901099,94.1344848 128.341327,87.5206663 131.221782,81.8266502 C134.102237,76.1326341 138.161061,71.7526218 143.441896,68.6428131 C148.722731,65.5330043 154.832788,64 161.81571,64 C168.711346,64 174.734116,65.3578038 179.884021,68.0296114 C185.033926,70.7014188 189.005463,74.5996298 191.754989,79.6366441 C194.548158,84.6736584 195.901099,90.5866749 195.901099,97.375694 C195.901099,104.909315 194.460871,111.479334 191.580416,117.17335 C188.69996,122.867366 184.641137,127.291178 179.360302,130.357187 C174.079467,133.466996 167.96941,135 160.986488,135 C154.090852,135 148.068082,133.685996 142.918177,130.970389" id="Shape"></path>
                <polygon id="Path" points="252.702794 66 268.901099 66 263.724321 135 250.782377 135 223.93828 96.5209125 220.974158 135 204.901099 135 210.077876 66 222.727583 66 249.655176 104.56654"></polygon>
                <path d="M340.901099,96.1688312 L338.33381,129.70872 C334.996336,131.415584 331.059827,132.738404 326.524286,133.634508 C321.988745,134.530612 317.153685,135 311.976322,135 C305.215797,135 299.353823,133.67718 294.390402,131.03154 C289.426977,128.3859 285.618835,124.588126 282.923182,119.680891 C280.227529,114.773655 278.901099,109.012987 278.901099,102.356215 C278.901099,95.0593693 280.398683,88.6586271 283.393853,83.1966604 C286.38902,77.6920222 290.667833,73.4675324 296.187503,70.4805195 C301.707172,67.4935064 308.16818,66 315.570524,66 C325.925252,66 334.22615,68.4322821 340.387641,73.3821891 L333.926633,85.9703155 C331.188193,83.8794063 328.535328,82.3432282 325.882465,81.4044527 C323.229601,80.4230055 320.148855,79.9536178 316.683017,79.9536178 C310.307585,79.9536178 305.38695,81.9591837 301.921112,85.9276437 C298.455274,89.8961038 296.743747,95.4434138 296.743747,102.569573 C296.743747,108.756957 298.198544,113.493507 301.150924,116.736549 C304.103307,120.022264 308.510484,121.643785 314.458035,121.643785 C317.110898,121.643785 319.934914,121.25974 322.972871,120.491651 L323.91421,108.202226 L312.061899,108.202226 L313.003238,96.2115027 L340.901099,96.2115027 L340.901099,96.1688312 Z" id="Path"></path>
            </g>
        </g>
    </g>
</svg>