<?xml version="1.0" encoding="UTF-8"?>
<svg width="656px" height="142px" viewBox="0 0 656 142" version="1.1" xmlns="http://www.w3.org/2000/svg" xmlns:xlink="http://www.w3.org/1999/xlink">
    <title>Group</title>
    <g id="Page-1" stroke="none" stroke-width="1" fill="none" fill-rule="evenodd">
        <g id="Artboard" transform="translate(-397.000000, -1389.000000)" fill="#FFFFFF" fill-rule="nonzero">
            <g id="Group" transform="translate(397.000000, 1389.000000)">
                <path d="M52.9531388,0 C82.2882405,0 106,23.7814557 106,52.9094349 C106,64.5839677 102.295844,75.5224908 95.2423428,84.796038 L94.847038,85.3095162 L52.9531388,138 L11.152962,85.3095162 C3.84261715,75.9273689 0,64.8001627 0,52.9094349 C0,23.6729159 23.8054819,0 52.9531388,0 Z M52.8588899,3 C25.3894638,3 3,25.3606581 3,52.9833665 C3,64.1636955 6.57478833,74.7959139 13.5362183,83.5647442 L53.0470367,133 L92.4637817,83.5647442 C99.4252117,74.6859157 103,64.1636955 103,52.9833665 C102.905927,25.4706563 80.5164628,3 52.8588899,3 Z M52.8588899,10.3435545 C76.4713076,10.3435545 95.5682032,29.4164889 95.5682032,52.9833665 C95.6622766,62.848418 92.275635,72.0553607 86.537159,79.2898572 L53.0470367,120.613451 L19.3687676,79.2898572 C13.6302916,72.0553607 10.24365,62.957476 10.24365,52.9833665 C10.24365,29.4164889 29.3405456,10.3435545 52.8588899,10.3435545 Z M62.9750507,49.2154914 C62.4709454,49.1627619 56.6925448,47.8983787 52.3587444,48.0065629 C48.1210762,48.0065629 42.3766816,49.2171867 42,49.2171867 L42,49.2171867 L42,93.9167809 L42.2304841,94.0379614 C43.2655349,94.5762807 44.764574,95.2772151 46.426009,95.7884318 L46.426009,95.7884318 L46.426009,52.9604886 L46.8584203,52.9240196 C47.8871216,52.8500026 49.051009,52.8500026 50.2869955,52.8500026 L50.2869955,52.8500026 L50.2869955,96.7799724 L50.7390135,96.8449193 C51.341704,96.929289 51.9443946,97 52.5470852,97 C53.3946188,97 54.0538117,96.889514 54.8071749,96.7799724 L54.8071749,96.7799724 L54.8071749,52.8500026 L55.3322852,52.8547501 C56.5463845,52.8758978 57.6793722,52.9604886 58.6681614,52.9604886 L58.6681614,52.9604886 L58.6681614,95.7884318 L59.0069517,95.6755203 C60.5858894,95.1361261 62.1210762,94.4306193 63,93.9167809 L63,93.9167809 L63,49.2171867 Z M74.5,68 C71.98,68 70,70.1845426 70,73.0571767 C70,75.8154574 71.98,78 74.5,78 C77.02,78 79,75.8154574 79,73.0571767 C79,70.2988959 77.02,68 74.5,68 Z M30.5,68 C27.98,68 26,70.1845426 26,73.0571767 C26,75.8154574 27.98,78 30.5,78 C33.02,78 35,75.8154574 35,73.0571767 C35,70.2988959 33.02,68 30.5,68 Z M52.8137931,29 C35.5896552,29 27.9551724,30.6266405 27.9551724,30.6266405 L27.9551724,30.6266405 L26,47 C26.0253995,46.9913778 26.2610152,46.9125251 26.7493654,46.7885543 L26.921565,46.745595 C29.313572,46.1588933 36.6606629,44.7582811 52.392437,44.72301 L52.392437,44.72301 L53,44.7223313 C73.3896552,44.7223313 80,47 80,47 L80,47 L78.0448276,30.6266405 L78.0386451,30.6253846 L78.0200727,30.6216717 L77.9456081,30.6072023 C76.9845527,30.423522 69.0137931,29 52.8137931,29 Z M44.59,24.6603 C43.51,24.6603 42.7,25.3947 42.43,26.3397 L42.43,26.3397 L46.57,26.3397 L46.5334568,26.1842398 C46.29,25.3153667 45.44,24.6603 44.59,24.6603 Z M52.545,24.6603 C51.555,24.6603 50.655,25.3947 50.475,26.3397 L50.475,26.3397 L54.525,26.3397 L54.5048717,26.192316 C54.3489889,25.3194291 53.5681579,24.6603 52.545,24.6603 Z M61.545,24.6603 C60.555,24.6603 59.655,25.3947 59.475,26.3397 L59.475,26.3397 L63.525,26.3397 L63.5048717,26.192316 C63.3489889,25.3194291 62.5681579,24.6603 61.545,24.6603 Z" id="Combined-Shape"></path>
                <path d="M166.906694,100.121904 C161.681542,100.890826 159.255578,101 155.803245,101 C141.713996,101 134.249493,93.0999563 134.249493,77.9567943 L134.249493,32.2007277 L121,32.2007277 L121,23.0931839 L134.249493,23.0931839 L134.249493,4 L145.819473,4 L145.819473,23.0931839 L162.801217,23.0931839 L162.801217,32.3099015 L145.819473,32.3099015 L145.819473,79.8221608 C145.819473,87.7231456 149.924949,91.6731674 157.94929,91.6731674 C160.748479,91.6731674 162.894523,91.5639936 167,90.7950711 L167,100.121904 L166.906694,100.121904 Z" id="Path"></path>
                <path d="M173,99 L173,23.194294 L183.226131,23.194294 L183.226131,40.8568551 C186.851759,33.2869172 188.153266,30.9834731 191.035176,27.582882 C194.38191,23.6337174 199.959799,21 205.723618,21 C206.560302,21 208.326633,21.1100911 210,21.3293323 L210,32.5191025 C195.869347,31.3128054 184.992462,42.7218168 184.713568,58.8487484 L184.713568,99 L173,99 Z" id="Path"></path>
                <path d="M265.484227,99.0447727 L265.484227,84.7098546 C260.179811,95.35229 252.176656,101 241.660883,101 C226.492114,101 217,90.0315381 217,71.8942198 L217,24 L228.725552,24 L228.725552,72.0032058 C228.725552,78.8451042 229.935331,83.2976942 232.541009,86.3390554 C235.239748,89.7055116 239.334385,91.5517529 243.522082,91.5517529 C255.061514,91.5517529 264.274448,80.2572645 264.274448,66.4644819 L264.274448,24.108986 L276,24.108986 L276,99.1537587 L265.484227,99.1537587 L265.484227,99.0447727 Z" id="Path"></path>
                <path d="M343,74.1872379 C341.225115,83.4176446 339.07657,87.9230407 334.218989,92.8686083 C328.894334,98.4730195 322.355283,101 313.854518,101 C294.611026,101 282,85.2857816 282,61.1102785 C282,37.0441114 294.891271,21 314.415008,21 C329.828484,21 339.917305,30.2304067 342.906585,47.4838117 L332.350689,49.4612847 C331.509954,43.6372591 330.388974,40.7803855 328.427259,37.9225694 C325.064319,33.3078373 320.019908,30.6696357 314.321593,30.6696357 C301.897397,30.6696357 294.237366,42.208351 294.237366,60.670107 C294.237366,79.791649 301.523737,91.2200858 314.041348,91.2200858 C323.569678,91.2200858 329.921899,84.7362741 332.350689,72.3191008 L343,74.1872379 Z" id="Path"></path>
                <polygon id="Path" points="399.626687 99 377.430285 56.6561912 360.901049 75.6343621 360.901049 99 349 99 349 4 360.901049 4 360.901049 62.0316146 396.226387 23.1974031 408.883058 23.1974031 385.08096 49.9644336 412 99"></polygon>
                <path d="M420.382055,76.9341164 C421.60492,81.2198475 422.733719,83.5271864 425.273517,85.6149133 C429.600579,89.1315315 436.843705,91.3295357 443.898698,91.3295357 C454.622287,91.3295357 461.865412,86.3849688 461.865412,79.0218434 C461.865412,72.8679972 457.350217,69.0214899 448.790159,67.2636521 L432.798842,64.296535 C419.817656,61.8789189 412.29233,54.0765696 412.29233,43.3080458 C412.29233,29.9013514 423.674385,21 440.888567,21 C456.691751,21 466.945007,27.59307 470.70767,40.2306514 L459.984081,42.5379903 C456.409551,34.4066944 450.295224,30.6704643 440.512301,30.6704643 C430.635311,30.6704643 424.238784,35.1758073 424.238784,41.8791545 C424.238784,47.5937769 428.001447,51.0001178 436.091172,52.5383437 L450.95369,55.1755717 C466.568741,57.9230769 474,65.3955371 474,77.7032294 C474,91.5491476 461.489146,101 442.769899,101 C431.952243,101 423.298119,98.2524948 416.807525,92.5378725 C412.950796,89.1315315 410.787265,85.9448025 409,79.2414553 L420.382055,76.9341164 Z" id="Path"></path>
                <path d="M585,61.8794005 C585,84.7362741 570.462069,101 550.015172,101 C530.224828,101 517,84.9558886 517,60.7803855 C517,37.1534474 531.068966,21 551.234483,21 C571.775172,21 585,37.0441114 585,61.8794005 Z M535.195862,39.131863 C531.81931,44.0764881 529.943448,51.4397003 529.943448,60.670107 C529.943448,80.230878 537.54069,91.3303643 550.953103,91.3303643 C564.177931,91.3303643 572.150345,80.1205995 572.150345,61.329893 C572.150345,50.9995287 570.462069,44.1867666 566.804138,39.0215844 C562.958621,33.9666808 556.955862,30.8901928 550.85931,30.8901928 C544.950345,30.7799142 538.666207,33.9666808 535.195862,39.131863 Z" id="Shape"></path>
                <path d="M592,140.890865 L592,22.974786 L602.542274,22.974786 L602.542274,37.7823878 C608.51312,26.0456299 615.696793,21 626.145773,21 C643.965015,21 656,37.124753 656,60.8174805 C656,84.6202841 643.87172,100.854173 626.052478,100.854173 C616.25656,100.854173 610.099125,97.124753 603.755102,87.3618402 L603.755102,141 L592,141 L592,140.890865 Z M603.755102,71.238028 C605.620991,82.7555744 614.017493,91.0912598 623.720117,91.0912598 C628.758017,91.0912598 634.355685,88.1304921 637.620991,83.9617085 C641.446064,79.0261549 643.311953,71.6764512 643.311953,61.4751153 C643.311953,42.3895945 636.034985,31.201336 623.813411,31.201336 C614.483965,31.201336 606.833819,38.3308872 603.848397,49.9585097 L603.848397,71.238028 L603.755102,71.238028 Z" id="Shape"></path>
                <path d="M519,100.121904 C513.764228,100.890826 511.333333,101 507.873984,101 C493.662602,101 486.276423,93.0999563 486.276423,77.9567943 L486.276423,32.2007277 L473,32.2007277 L473,23.0931839 L486.276423,23.0931839 L486.276423,4 L497.869919,4 L497.869919,23.0931839 L514.792683,23.0931839 L514.792683,32.3099015 L497.682927,32.3099015 L497.682927,79.8221608 C497.682927,87.7231456 501.890244,91.6731674 509.930894,91.6731674 C512.642276,91.6731674 514.792683,91.5639936 519,90.7950711 L519,100.121904 Z" id="Path"></path>
                <polygon id="Path" points="483.695 134.08945 477.305 134.08945 477.305 140.91055 483.695 140.91055"></polygon>
                <path d="M509.812245,131.777712 C509.155102,134.777876 508.497959,136.222682 507.371429,137.889546 C505.4,140.556147 502.302041,142 498.734694,142 C491.693878,142 487,136.222682 487,127.555753 C487,118.888823 491.881633,113 499.204082,113 C502.677551,113 505.587755,114.221795 507.465306,116.44428 C508.873469,118.111144 509.436735,119.554997 510,122.555161 L504.555102,123.33284 C504.179592,119.88856 502.395918,118.111144 499.579592,118.111144 C495.730612,118.111144 493.571429,121.66693 493.571429,127.666305 C493.571429,133.111013 495.636735,136.44474 499.110204,136.44474 C501.832653,136.44474 503.710204,134.667324 504.461224,131.111538 L509.812245,131.777712 Z" id="Path"></path>
                <path d="M534.785978,118.495928 C536.354244,121.080013 537,123.556966 537,127.00272 C537,135.293403 531.741697,141 524.269373,141 C520.02583,141 516.797048,139.277585 514.675277,136.047017 C512.830258,133.462932 512,130.34042 512,126.894665 C512,118.711115 517.166052,113.004517 524.546125,113.004517 C529.066421,112.896462 532.295203,114.726933 534.785978,118.495928 Z M518.365314,126.894665 C518.365314,132.709318 520.487085,135.938962 524.361624,135.938962 C528.328413,135.938962 530.450185,132.601263 530.450185,126.78661 C530.450185,120.972882 528.328413,117.849445 524.453875,117.849445 C520.579336,117.9575 518.365314,121.188068 518.365314,126.894665 Z" id="Shape"></path>
                <path d="M573.511468,140.780558 L573.511468,123.650925 C573.511468,120.137033 571.912844,118.380558 568.809633,118.380558 C564.954128,118.380558 562.791284,121.235183 562.791284,126.3963 L562.791284,140.89075 L556.208716,140.89075 L556.208716,123.761117 C556.208716,122.0037 556.114679,121.455567 555.550459,120.466667 C554.798165,119.149075 553.387615,118.380558 551.694954,118.380558 C547.933486,118.380558 545.300459,121.784258 545.300459,126.506492 L545.300459,141 L539,141 L539,113.549075 L545.018349,113.549075 L545.018349,119.368517 C546.240826,117.062967 546.899083,116.075008 547.933486,115.086108 C549.53211,113.768517 551.788991,113 554.139908,113 C558.183486,113 560.722477,114.976858 562.038991,119.368517 C564.295872,114.976858 567.305046,113 571.254587,113 C576.332569,113 580,116.513892 580,121.564817 L580,141 L573.511468,141 L573.511468,140.780558 Z" id="Path"></path>
            </g>
        </g>
    </g>
</svg>