<svg width="43" height="34" viewBox="0 0 43 34" fill="none" xmlns="http://www.w3.org/2000/svg">
<path d="M41.655 33.214L1.2112 33.3064C1.10765 33.3066 1.0211 33.1981 1.0208 33.0677L1.00055 24.204C1.00025 24.0736 1.0863 23.9646 1.18985 23.9644L41.6337 23.872C41.7372 23.8717 41.8238 23.9803 41.8241 24.1107L41.8443 32.9744C41.8446 33.1048 41.7586 33.2137 41.655 33.214ZM1.39996 32.8276L41.4641 32.7361L41.4449 24.3508L1.3808 24.4423L1.39996 32.8276V32.8276Z" fill="white" stroke="white" stroke-width="0.4" stroke-linejoin="round"/>
<path d="M35.9007 28.3866L16.3039 28.4314C16.1707 28.4317 16.0594 28.3258 16.0591 28.1984C16.0588 28.071 16.1696 27.9646 16.3028 27.9643L35.8997 27.9195C36.0329 27.9192 36.1441 28.0251 36.1444 28.1525C36.1447 28.2799 36.0339 28.3863 35.9007 28.3866Z" fill="white" stroke="white" stroke-width="0.4" stroke-linejoin="round"/>
<path d="M11.8608 29.7642C12.6347 29.7625 13.2607 29.1336 13.2589 28.3597C13.2572 27.5858 12.6283 26.9599 11.8544 26.9616C11.0805 26.9634 10.4546 27.5922 10.4563 28.3661C10.4581 29.1401 11.0869 29.766 11.8608 29.7642Z" fill="white"/>
<path d="M41.655 21.7784L1.2112 21.8709C1.10765 21.8711 1.0211 21.7626 1.0208 21.6321L1.00055 12.7685C1.00025 12.638 1.0863 12.5291 1.18985 12.5289L41.6337 12.4364C41.7372 12.4362 41.8238 12.5447 41.8241 12.6752L41.8443 21.5388C41.8446 21.6693 41.7586 21.7782 41.655 21.7784ZM1.39996 21.3921L41.4641 21.3005L41.4449 12.9152L1.3808 13.0068L1.39996 21.3921V21.3921Z" fill="white" stroke="white" stroke-width="0.4" stroke-linejoin="round"/>
<path d="M35.9007 16.9511L16.3039 16.9958C16.1707 16.9961 16.0594 16.8902 16.0591 16.7628C16.0588 16.6355 16.1696 16.529 16.3028 16.5287L35.8997 16.484C36.0329 16.4837 36.1441 16.5896 36.1444 16.7169C36.1447 16.8443 36.0339 16.9508 35.9007 16.9511Z" fill="white" stroke="white" stroke-width="0.4" stroke-linejoin="round"/>
<path d="M11.8608 18.3287C12.6347 18.3269 13.2607 17.6981 13.2589 16.9242C13.2572 16.1503 12.6283 15.5243 11.8544 15.5261C11.0805 15.5279 10.4546 16.1567 10.4563 16.9306C10.4581 17.7045 11.0869 18.3305 11.8608 18.3287Z" fill="white"/>
<path d="M41.655 10.3429L1.2112 10.4353C1.10765 10.4355 1.0211 10.327 1.0208 10.1966L1.00055 1.33292C1.00025 1.20246 1.0863 1.09355 1.18985 1.09332L41.6337 1.00089C41.7372 1.00066 41.8238 1.10917 41.8241 1.23962L41.8443 10.1033C41.8446 10.2337 41.7586 10.3426 41.655 10.3429ZM1.39996 9.95654L41.4641 9.86499L41.4449 1.47966L1.3808 1.57122L1.39996 9.95654V9.95654Z" fill="white" stroke="white" stroke-width="0.4" stroke-linejoin="round"/>
<path d="M35.9007 5.51551L16.3039 5.56029C16.1707 5.5606 16.0594 5.45469 16.0591 5.3273C16.0588 5.1999 16.1696 5.0935 16.3028 5.09319L35.8997 5.04841C36.0329 5.0481 36.1441 5.154 36.1444 5.2814C36.1447 5.40879 36.0339 5.5152 35.9007 5.51551Z" fill="white" stroke="white" stroke-width="0.4" stroke-linejoin="round"/>
<path d="M11.8608 6.89315C12.6347 6.89138 13.2607 6.26256 13.2589 5.48864C13.2572 4.71472 12.6283 4.08878 11.8544 4.09055C11.0805 4.09232 10.4546 4.72113 10.4563 5.49504C10.4581 6.26896 11.0869 6.89491 11.8608 6.89315Z" fill="white"/>
</svg>
