<svg width="48" height="30" viewBox="0 0 48 30" fill="none" xmlns="http://www.w3.org/2000/svg">
<path fill-rule="evenodd" clip-rule="evenodd" d="M16 27.821H46.6311C46.8389 27.821 47.003 27.6569 47.003 27.4491V0.371971C47.003 0.164106 46.8389 0 46.6311 0H7.12586C6.918 0 6.75391 0.164106 6.75391 0.371971V14H7.49783V0.743941H46.2591V27.0771H16V27.821Z" fill="white"/>
<path d="M26.6033 17.4059C26.6689 17.4606 26.7564 17.4934 26.844 17.4934C26.9315 17.4934 27.019 17.4606 27.0956 17.4168L46.8755 0.667324C46.8974 0.645444 46.9083 0.623566 46.9302 0.601686L46.3504 0.109375L26.844 16.6291L7.62196 0.306305L6.82331 0.153139C6.70297 0.306302 6.72485 0.525104 6.87802 0.656387L26.6033 17.4059Z" fill="white"/>
<path d="M46.6264 27.8212C46.5389 27.8212 46.4514 27.7884 46.3857 27.7337C40.5546 22.7996 35.5658 18.336 31.1241 14.1131C30.9709 13.9709 30.9709 13.7302 31.1132 13.588C31.2554 13.4348 31.4961 13.4348 31.6383 13.577C36.0691 17.8 41.0469 22.2417 46.8671 27.1757C47.0203 27.307 47.0421 27.5477 46.9109 27.7009C46.8343 27.7774 46.7249 27.8212 46.6264 27.8212Z" fill="white"/>
<path fill-rule="evenodd" clip-rule="evenodd" d="M16 20.3384L23.0158 14.3326C23.1799 14.2013 23.1908 13.9606 23.0595 13.8074C22.9282 13.6433 22.6876 13.6324 22.5344 13.7637L16 19.3535V20.3384Z" fill="white"/>
<path d="M0.4 13.5719H15.715V28.8868H0.4V13.5719Z" stroke="white" stroke-width="0.8"/>
<path d="M11.4549 20.4588H4.55166C4.34379 20.4588 4.17969 20.2947 4.17969 20.0868C4.17969 19.8789 4.34379 19.7148 4.55166 19.7148H11.4549C11.6628 19.7148 11.8269 19.8789 11.8269 20.0868C11.8269 20.2947 11.6628 20.4588 11.4549 20.4588Z" fill="white"/>
<path d="M11.4549 23.5213H4.55166C4.34379 23.5213 4.17969 23.3572 4.17969 23.1493C4.17969 22.9414 4.34379 22.7773 4.55166 22.7773H11.4549C11.6628 22.7773 11.8269 22.9414 11.8269 23.1493C11.8269 23.3572 11.6628 23.5213 11.4549 23.5213Z" fill="white"/>
<path d="M46.6311 0.743941H7.12586C6.918 0.743941 6.75391 0.579835 6.75391 0.371971C6.75391 0.164106 6.918 0 7.12586 0H46.6311C46.8389 0 47.003 0.164106 47.003 0.371971C47.003 0.579835 46.8389 0.743941 46.6311 0.743941Z" fill="white"/>
</svg>
