<?xml version="1.0" encoding="UTF-8"?>
<svg width="289px" height="40px" viewBox="0 0 289 40" version="1.1" xmlns="http://www.w3.org/2000/svg" xmlns:xlink="http://www.w3.org/1999/xlink">
    <title>vectra_logo 1</title>
    <g id="Page-1" stroke="none" stroke-width="1" fill="none" fill-rule="evenodd">
        <g id="vectra_logo-1" fill-rule="nonzero">
            <path d="M0.137595,20.6634 L8.54208,38.8007 L4.95477,38.8007 C2.18755,38.8007 0.0351562,36.5463 0.0351562,33.8821 L0.137595,33.8821 L0.137595,20.6634 Z M26.0683,7.13712 L35.4978,28.0413 L35.4978,33.8821 C35.4978,36.6487 33.2428,38.8007 30.578,38.8007 L13.2568,38.8007 L26.0683,7.13712 Z M22.891,3.44814 L10.4894,32.7549 L0.0351562,9.4938 L0.0351562,8.36678 C0.0351562,5.59995 2.28999,3.44814 4.95477,3.44814 L22.891,3.44814 Z M30.4755,3.3457 C33.2428,3.3457 35.3952,5.59995 35.3952,8.26434 L35.2927,8.26434 L35.2927,17.2817 L28.9382,3.3457 L30.4755,3.3457 Z" id="Shape" fill="#4BA30F"></path>
            <path d="M145.778,2.21854 C156.437,2.21854 162.587,7.44449 164.535,9.18654 L161.971,13.0804 C158.999,10.7237 154.08,6.93229 145.983,6.93229 C135.323,6.93229 129.481,13.9003 129.481,21.2782 C129.481,28.656 135.221,35.3167 146.905,35.3167 C155.924,35.3167 159.512,32.345 162.587,30.2956 L164.33,34.497 C161.971,36.2388 156.437,39.9278 146.905,39.9278 C132.761,39.9278 124.767,31.5253 124.767,20.9707 C124.767,8.46927 136.246,2.21854 145.778,2.21854 Z M48.2046,3.34576 L64.1934,33.4722 L80.2848,3.34576 L85.6145,3.34576 L66.5509,38.8006 L61.9386,38.8006 L42.875,3.34576 L48.2046,3.34576 Z M269.178,3.34576 L288.242,38.8006 L282.913,38.8006 L266.925,8.67415 L250.833,38.8006 L245.502,38.8006 L264.566,3.34576 L269.178,3.34576 Z M122.409,3.34576 L122.409,8.05932 L95.8637,8.05932 L95.8637,18.409 L111.033,18.409 L111.033,23.0201 L95.8637,23.0201 L95.8637,34.1895 L123.127,34.1895 L123.127,38.8006 L91.2516,38.8006 L91.2516,3.34576 L122.409,3.34576 Z M201.225,3.34576 L201.225,8.05932 L186.979,8.05932 L186.979,38.8006 L182.367,38.8006 L182.367,8.05932 L168.121,8.05932 L168.121,3.34576 L201.225,3.34576 Z M228.285,3.34576 C234.741,3.34576 241.813,5.90751 241.813,13.9003 C241.813,20.5608 236.074,23.7374 232.179,24.1473 L242.429,38.8006 L236.585,38.8006 L226.542,24.4546 L210.86,24.4546 L210.86,38.8006 L206.248,38.8006 L206.248,3.34576 L228.285,3.34576 Z M228.181,8.16176 L210.86,8.16176 L210.86,19.946 L228.181,19.946 L228.181,19.8435 C232.691,19.8435 236.997,18.7163 236.997,14.0027 C236.997,8.87922 232.179,8.16176 228.181,8.16176 Z M284.974,0 C285.301,0 285.696,0.0657561 286.025,0.197073 C286.353,0.328585 286.683,0.459902 286.944,0.722732 C287.338,1.05132 287.668,1.37971 287.865,1.8398 C288.062,2.29971 288.193,2.75961 288.193,3.21951 C288.193,3.67941 288.127,4.07376 287.93,4.4679 C287.799,4.86205 287.536,5.19063 287.208,5.45346 C286.88,5.78205 286.55,5.97912 286.156,6.1762 C285.762,6.37327 285.368,6.43902 284.974,6.43902 C284.579,6.43902 284.119,6.37327 283.791,6.1762 C283.397,5.97912 283.067,5.78205 282.739,5.45346 C282.412,5.12488 282.215,4.79649 282.017,4.40215 C281.885,4.008 281.754,3.61366 281.754,3.21951 C281.754,2.89093 281.82,2.49678 281.951,2.1682 C282.082,1.83981 282.215,1.51122 282.476,1.24839 C282.806,0.854244 283.134,0.525659 283.594,0.328585 C284.055,0.131317 284.513,0 284.974,0 Z M285.04,0.394146 C284.646,0.394146 284.316,0.459902 283.988,0.591415 C283.66,0.722732 283.331,0.919805 283.134,1.18263 C282.87,1.44546 282.673,1.77405 282.542,2.10263 C282.412,2.43102 282.345,2.82537 282.345,3.15376 C282.345,3.5481 282.412,3.87649 282.542,4.20507 C282.673,4.53366 282.87,4.86205 283.134,5.12488 C283.397,5.38771 283.725,5.58478 284.055,5.71629 C284.382,5.84761 284.71,5.91337 285.104,5.91337 C285.498,5.91337 285.828,5.84761 286.222,5.71629 C286.55,5.58478 286.88,5.38771 287.141,5.12488 C287.405,4.86205 287.602,4.59922 287.733,4.27083 C287.733,3.94224 287.799,3.61366 287.799,3.21951 C287.799,2.82537 287.733,2.49678 287.602,2.10263 C287.471,1.77405 287.274,1.44546 287.011,1.18263 C286.747,0.919805 286.419,0.722732 286.09,0.591415 C285.762,0.459902 285.368,0.394146 285.04,0.394146 Z M285.171,1.37971 C285.696,1.37971 286.025,1.44546 286.287,1.64254 C286.55,1.83981 286.683,2.03688 286.683,2.36527 C286.683,2.6281 286.616,2.82537 286.484,3.02244 C286.353,3.21951 286.025,3.28527 285.762,3.35083 L286.55,4.99356 L285.828,4.99356 L285.104,3.48234 L284.449,3.48234 L284.449,4.99356 L283.791,4.99356 L283.791,1.37971 L285.171,1.37971 Z M285.08,1.83999 L284.382,1.8398 L284.382,3.02244 L284.974,3.02244 C285.301,3.02244 285.565,2.95668 285.696,2.89093 C285.828,2.82537 285.893,2.6281 285.893,2.43102 C285.893,2.23395 285.828,2.03688 285.696,1.97112 C285.579,1.8544 285.358,1.84143 285.08,1.83999 Z" id="Shape" fill="#000000"></path>
        </g>
    </g>
</svg>