<svg width="39" height="41" viewBox="0 0 39 41" fill="none" xmlns="http://www.w3.org/2000/svg">
<path d="M37.4397 39.9986C37.1225 39.9986 36.8239 39.756 36.7679 39.4387C33.6327 20.7956 27.9782 8.60942 25.5708 8.60942C25.5522 8.60942 25.5521 8.60942 25.5335 8.60942C25.3095 8.62808 25.2536 8.70272 25.2162 8.7587C24.9177 9.31856 25.1789 10.6435 25.7388 12.1925C26.8025 14.1893 27.6982 16.3541 28.2581 17.735C28.3887 18.0709 28.2395 18.4442 27.9222 18.5935C27.605 18.7428 27.213 18.6121 27.0451 18.3136C26.6532 17.5857 25.4029 15.2344 24.5631 12.9016C23.2008 10.345 21.9504 8.60942 21.3346 8.60942H21.3159C21.0173 8.964 21.3719 10.6995 22.1184 12.9016C23.4807 14.8238 23.8353 17.1565 23.8726 17.3058C23.9286 17.6417 23.7233 17.959 23.3874 18.0523C23.0515 18.1456 22.7156 17.9963 22.5849 17.6791C22.2117 16.8766 21.5025 15.253 20.9054 13.5175C20.3269 12.7523 19.5804 12.1178 18.5913 11.8566C16.5945 11.334 14.9709 12.3044 14.1871 13.3122C13.5899 14.0773 13.422 14.9358 13.7392 15.5329C13.9259 15.8875 14.1684 15.9062 15.1948 15.7009C16.6131 15.421 18.7779 14.9917 20.0283 18.5748C20.98 21.3368 19.767 24.3413 18.0314 25.629C16.7251 26.5994 15.2322 26.6181 13.9072 25.685C10.6787 23.3896 11.4998 20.4223 12.0037 18.6495C12.1343 18.2016 12.3209 17.5297 12.2463 17.3431C12.2276 17.3431 12.1716 17.3245 11.9477 17.3245C11.7797 17.3245 11.5371 17.3431 11.1826 17.3991C8.21533 17.903 8.28997 21.6727 9.03645 34.6799C9.11109 36.0982 9.20441 37.6285 9.29772 39.2707C9.31638 39.644 9.03645 39.9612 8.66321 39.9799C8.27131 39.9986 7.97274 39.7186 7.95408 39.3454C7.86077 37.7032 7.78612 36.1916 7.69281 34.7733C6.92767 21.3368 6.6664 16.8019 10.9773 16.0928C11.4625 16.0182 12.0037 15.9435 12.4889 16.0555C11.985 14.9917 12.2276 13.6481 13.1234 12.4911C14.1498 11.1661 16.2959 9.87842 18.9272 10.5689C19.3751 10.6809 19.8043 10.8675 20.1776 11.0914C19.879 9.74778 19.7857 8.57209 20.1589 7.93759C20.3828 7.54569 20.7561 7.32175 21.204 7.28443C22.0437 7.20978 22.9208 7.95625 23.7979 9.09462C23.8166 8.72139 23.9099 8.40413 24.0592 8.14287C24.2645 7.76963 24.6751 7.34041 25.4775 7.28443C29.9563 7.06049 35.4989 23.6695 38.1302 39.2334C38.1862 39.6067 37.9436 39.9612 37.5703 40.0172C37.5144 39.9986 37.477 39.9986 37.4397 39.9986ZM13.5526 17.0819C13.6646 17.6231 13.478 18.2949 13.2727 19.0227C12.8061 20.7209 12.209 22.8297 14.6723 24.5839C15.7174 25.3304 16.6318 24.9758 17.1917 24.5466C18.498 23.5575 19.4497 21.1688 18.7033 19.0227C17.8448 16.5593 16.7811 16.7646 15.4188 17.0259C14.8589 17.1379 14.1685 17.2871 13.5526 17.0819Z" fill="white"/>
<path d="M21.6865 31.973C21.3879 31.973 21.1266 31.7864 21.0333 31.4878C21.0333 31.4692 20.1749 28.8378 15.5094 26.2998C15.1735 26.1132 15.0616 25.7027 15.2295 25.3854C15.4161 25.0495 15.8267 24.9375 16.1439 25.1055C21.3692 27.9421 22.3023 30.984 22.3396 31.0959C22.4516 31.4505 22.2277 31.8238 21.8731 31.9357C21.8171 31.9544 21.7425 31.973 21.6865 31.973Z" fill="white"/>
<path d="M7.91016 38.5771H38.0187L38.1328 39.1861C38.219 39.6454 37.8666 40.0701 37.3992 40.0701H8.6888C8.28878 40.0701 7.95987 39.7548 7.943 39.3551L7.91016 38.5771Z" fill="white"/>
<path d="M7.231 1.00006L10.1945 6.65891" stroke="white" stroke-width="1.25749" stroke-linejoin="round"/>
<path d="M1.00015 8.53382L7.74157 12.7834" stroke="white" stroke-width="1.25749" stroke-linejoin="round"/>
</svg>
