<svg width="289" height="40" viewBox="0 0 289 40" fill="none" xmlns="http://www.w3.org/2000/svg">
<path d="M0.137595 20.6634L8.54208 38.8007H4.95477C2.18755 38.8007 0.0351562 36.5463 0.0351562 33.8821H0.137595V20.6634ZM26.0683 7.13712L35.4978 28.0413V33.8821C35.4978 36.6487 33.2428 38.8007 30.578 38.8007H13.2568L26.0683 7.13712ZM22.891 3.44814L10.4894 32.7549L0.0351562 9.4938V8.36678C0.0351562 5.59995 2.28999 3.44814 4.95477 3.44814H22.891ZM30.4755 3.3457C33.2428 3.3457 35.3952 5.59995 35.3952 8.26434H35.2927V17.2817L28.9382 3.3457H30.4755Z" fill="white"/>
<path d="M145.778 2.21854C156.437 2.21854 162.587 7.44449 164.535 9.18654L161.971 13.0804C158.999 10.7237 154.08 6.93229 145.983 6.93229C135.323 6.93229 129.481 13.9003 129.481 21.2782C129.481 28.656 135.221 35.3167 146.905 35.3167C155.924 35.3167 159.512 32.345 162.587 30.2956L164.33 34.497C161.971 36.2388 156.437 39.9278 146.905 39.9278C132.761 39.9278 124.767 31.5253 124.767 20.9707C124.767 8.46927 136.246 2.21854 145.778 2.21854ZM48.2046 3.34576L64.1934 33.4722L80.2848 3.34576H85.6145L66.5509 38.8006H61.9386L42.875 3.34576H48.2046ZM269.178 3.34576L288.242 38.8006H282.913L266.925 8.67415L250.833 38.8006H245.502L264.566 3.34576H269.178ZM122.409 3.34576V8.05932H95.8637V18.409H111.033V23.0201H95.8637V34.1895H123.127V38.8006H91.2516V3.34576H122.409ZM201.225 3.34576V8.05932H186.979V38.8006H182.367V8.05932H168.121V3.34576H201.225ZM228.285 3.34576C234.741 3.34576 241.813 5.90751 241.813 13.9003C241.813 20.5608 236.074 23.7374 232.179 24.1473L242.429 38.8006H236.585L226.542 24.4546H210.86V38.8006H206.248V3.34576H228.285ZM228.181 8.16176H210.86V19.946H228.181V19.8435C232.691 19.8435 236.997 18.7163 236.997 14.0027C236.997 8.87922 232.179 8.16176 228.181 8.16176ZM284.974 0C285.301 0 285.696 0.0657561 286.025 0.197073C286.353 0.328585 286.683 0.459902 286.944 0.722732C287.338 1.05132 287.668 1.37971 287.865 1.8398C288.062 2.29971 288.193 2.75961 288.193 3.21951C288.193 3.67941 288.127 4.07376 287.93 4.4679C287.799 4.86205 287.536 5.19063 287.208 5.45346C286.88 5.78205 286.55 5.97912 286.156 6.1762C285.762 6.37327 285.368 6.43902 284.974 6.43902C284.579 6.43902 284.119 6.37327 283.791 6.1762C283.397 5.97912 283.067 5.78205 282.739 5.45346C282.412 5.12488 282.215 4.79649 282.017 4.40215C281.885 4.008 281.754 3.61366 281.754 3.21951C281.754 2.89093 281.82 2.49678 281.951 2.1682C282.082 1.83981 282.215 1.51122 282.476 1.24839C282.806 0.854244 283.134 0.525659 283.594 0.328585C284.055 0.131317 284.513 0 284.974 0ZM285.04 0.394146C284.646 0.394146 284.316 0.459902 283.988 0.591415C283.66 0.722732 283.331 0.919805 283.134 1.18263C282.87 1.44546 282.673 1.77405 282.542 2.10263C282.412 2.43102 282.345 2.82537 282.345 3.15376C282.345 3.5481 282.412 3.87649 282.542 4.20507C282.673 4.53366 282.87 4.86205 283.134 5.12488C283.397 5.38771 283.725 5.58478 284.055 5.71629C284.382 5.84761 284.71 5.91337 285.104 5.91337C285.498 5.91337 285.828 5.84761 286.222 5.71629C286.55 5.58478 286.88 5.38771 287.141 5.12488C287.405 4.86205 287.602 4.59922 287.733 4.27083C287.733 3.94224 287.799 3.61366 287.799 3.21951C287.799 2.82537 287.733 2.49678 287.602 2.10263C287.471 1.77405 287.274 1.44546 287.011 1.18263C286.747 0.919805 286.419 0.722732 286.09 0.591415C285.762 0.459902 285.368 0.394146 285.04 0.394146ZM285.171 1.37971C285.696 1.37971 286.025 1.44546 286.287 1.64254C286.55 1.83981 286.683 2.03688 286.683 2.36527C286.683 2.6281 286.616 2.82537 286.484 3.02244C286.353 3.21951 286.025 3.28527 285.762 3.35083L286.55 4.99356H285.828L285.104 3.48234H284.449V4.99356H283.791V1.37971H285.171ZM285.08 1.83999L284.382 1.8398V3.02244H284.974C285.301 3.02244 285.565 2.95668 285.696 2.89093C285.828 2.82537 285.893 2.6281 285.893 2.43102C285.893 2.23395 285.828 2.03688 285.696 1.97112C285.579 1.8544 285.358 1.84143 285.08 1.83999Z" fill="white"/>
</svg>
