<svg width="57" height="47" viewBox="0 0 57 47" fill="none" xmlns="http://www.w3.org/2000/svg">
<path d="M7.85146 28.2316C7.83031 28.2328 7.81315 28.2296 7.79574 28.2221C7.76093 28.2071 7.73409 28.1832 7.71946 28.15L1.59921 14.3043C1.5697 14.2338 1.59918 14.1557 1.66964 14.1262L28.057 2.45708C28.1232 2.42782 28.2055 2.45705 28.235 2.52751L34.3595 16.373C34.3741 16.4061 34.3763 16.4442 34.3614 16.479C34.3464 16.5138 34.3224 16.5407 34.2893 16.5553L7.90198 28.2245C7.88506 28.2254 7.86838 28.2306 7.85146 28.2316ZM1.90125 14.3167L7.91389 27.914L34.053 16.3566L28.0404 2.75937L1.90125 14.3167Z" fill="white" stroke="white" stroke-width="0.5"/>
<path d="M28.893 45.4105C28.8592 45.4124 28.8246 45.4017 28.798 45.382L7.76345 28.1981C7.72766 28.1662 7.70808 28.1207 7.71387 28.0736C7.71966 28.0266 7.75132 27.9866 7.79265 27.9673L34.18 16.2981C34.2256 16.2785 34.281 16.2838 34.3211 16.3155L55.3556 33.4993C55.3914 33.5312 55.411 33.5768 55.4052 33.6238C55.3994 33.6708 55.3678 33.7108 55.3264 33.7302L28.9391 45.3993C28.9226 45.4088 28.9057 45.4097 28.893 45.4105ZM8.10742 28.1275L28.9059 45.1169L55.0159 33.5697L34.2174 16.5803L8.10742 28.1275Z" fill="white" stroke="white" stroke-width="0.5"/>
<path d="M21.5241 33.6613C21.4903 33.6633 21.4557 33.6525 21.4291 33.6328L17.7245 30.607C17.6887 30.5751 17.6691 30.5295 17.6749 30.4825C17.6807 30.4355 17.7124 30.3954 17.7537 30.3761L23.1884 27.9721C23.234 27.9525 23.2895 27.9579 23.3295 27.9895L27.0341 31.0154C27.0699 31.0473 27.0895 31.0928 27.0837 31.1399C27.0779 31.1869 27.0462 31.2269 27.0049 31.2462L21.5744 33.65C21.558 33.6594 21.541 33.6604 21.5241 33.6613ZM18.0727 30.5361L21.537 33.3677L26.6904 31.0903L23.2261 28.2586L18.0727 30.5361Z" fill="white" stroke="white" stroke-width="0.2"/>
<path d="M21.034 31.2694C20.979 31.2725 20.9263 31.2416 20.902 31.1878C20.8725 31.1174 20.9019 31.0393 20.9724 31.0098L23.6546 29.8246C23.7209 29.7954 23.8032 29.8246 23.8327 29.8951C23.8622 29.9655 23.8327 30.0436 23.7623 30.0731L21.08 31.2582C21.0636 31.2677 21.0467 31.2686 21.034 31.2694Z" fill="white" stroke="white" stroke-width="0.2"/>
<path d="M23.33 31.4612C23.2962 31.4631 23.2616 31.4523 23.235 31.4326L21.3153 29.8657C21.2574 29.8181 21.2483 29.7337 21.2959 29.6758C21.3435 29.6179 21.4322 29.6085 21.4859 29.6564L23.4055 31.2233C23.4635 31.271 23.4725 31.3553 23.4249 31.4133C23.4012 31.4443 23.3681 31.459 23.33 31.4612Z" fill="white" stroke="white" stroke-width="0.2"/>
<path d="M27.4616 38.7316C27.4278 38.7336 27.3932 38.7228 27.3666 38.7031L23.662 35.6773C23.6262 35.6454 23.6066 35.5998 23.6124 35.5528C23.6182 35.5058 23.6499 35.4657 23.6912 35.4464L29.1259 33.0424C29.1715 33.0229 29.227 33.0282 29.267 33.0598L32.9716 36.0857C33.0074 36.1176 33.027 36.1631 33.0212 36.2102C33.0154 36.2572 32.9837 36.2972 32.9424 36.3165L27.5077 38.7205C27.4952 38.7254 27.4785 38.7306 27.4616 38.7316ZM24.0099 35.6021L27.4742 38.4338L32.6276 36.1563L29.1633 33.3247L24.0099 35.6021Z" fill="white" stroke="white" stroke-width="0.2"/>
<path d="M35.778 35.05C35.7442 35.052 35.7096 35.0412 35.683 35.0215L31.9784 31.9956C31.9426 31.9637 31.923 31.9182 31.9288 31.8712C31.9346 31.8241 31.9663 31.7841 32.0076 31.7648L37.4423 29.3608C37.4879 29.3412 37.5434 29.3465 37.5834 29.3782L41.288 32.4041C41.3238 32.436 41.3434 32.4815 41.3376 32.5286C41.3318 32.5756 41.3001 32.6156 41.2588 32.6349L35.8241 35.0389C35.8116 35.0439 35.7949 35.0491 35.778 35.05ZM32.3266 31.9247L35.7909 34.7564L40.9443 32.4789L37.48 29.6472L32.3266 31.9247Z" fill="white" stroke="white" stroke-width="0.2"/>
<path d="M36.4283 33.6001C36.1153 33.618 35.8041 33.5213 35.5504 33.3151C35.2032 33.0337 35.0339 32.5978 35.0935 32.1572C35.1529 31.7124 35.4329 31.3399 35.8427 31.1593L37.0515 30.6274C37.1177 30.5982 37.2001 30.6274 37.2296 30.6978C37.2591 30.7683 37.2296 30.8464 37.1591 30.8759L35.9503 31.4078C35.6274 31.5494 35.4065 31.8422 35.363 32.1927C35.3149 32.5392 35.4493 32.8838 35.7251 33.1056C36.0191 33.3477 36.4211 33.401 36.7645 33.2455L39.0287 32.2457C39.0992 32.2162 39.1772 32.2456 39.2067 32.3161C39.2363 32.3866 39.2068 32.4646 39.1363 32.4941L36.8721 33.494C36.7272 33.5575 36.5764 33.5916 36.4283 33.6001Z" fill="white" stroke="white" stroke-width="0.2"/>
<path fill-rule="evenodd" clip-rule="evenodd" d="M7.06098 17.9219L27.2387 8.99929L30.0473 15.3506L9.86953 24.2732L7.06098 17.9219ZM24.6824 15.8115C24.7067 15.8652 24.7594 15.8962 24.8144 15.893C24.8313 15.892 24.848 15.8868 24.8604 15.8819L27.9234 14.5264C27.9938 14.4969 28.0233 14.4188 27.9938 14.3483C27.9643 14.2779 27.8862 14.2484 27.8158 14.2779L24.7528 15.6334C24.6823 15.6629 24.6529 15.741 24.6824 15.8115Z" fill="white"/>
<path d="M29.8483 29.9826C29.8145 29.9846 29.7799 29.9738 29.7533 29.9541L26.0487 26.9283C26.0129 26.8964 25.9933 26.8508 25.9991 26.8038C26.0049 26.7568 26.0366 26.7167 26.0779 26.6974L31.5126 24.2934C31.5582 24.2738 31.6137 24.2791 31.6537 24.3108L35.3583 27.3367C35.3941 27.3686 35.4137 27.4141 35.4079 27.4612C35.4021 27.5082 35.3704 27.5482 35.3291 27.5675L29.8944 29.9715C29.8777 29.9767 29.8653 29.9817 29.8483 29.9826ZM26.3924 26.8534L29.8567 29.6851L35.0101 27.4076L31.5458 24.5759L26.3924 26.8534Z" fill="white" stroke="white" stroke-width="0.2"/>
<path d="M35.3589 27.3378L35.341 27.3218L35.2714 27.4404L34.9773 27.4191L29.857 29.6819L26.3927 26.8502L26.4259 26.8356L26.1318 26.8143L26.0493 26.7086C26.0209 26.7315 26.0015 26.7623 25.9992 26.7964C25.9934 26.8434 26.013 26.889 26.0488 26.9209L29.7534 29.9467C29.7802 29.9707 29.8148 29.9814 29.8486 29.9795C29.8656 29.9785 29.8822 29.9733 29.8947 29.9684L35.3294 27.5644C35.375 27.5448 35.4024 27.505 35.4082 27.458C35.4142 27.4152 35.3946 27.3697 35.3589 27.3378Z" fill="white" stroke="white" stroke-width="0.2"/>
</svg>
