<svg width="40" height="40" viewBox="0 0 40 40" fill="none" xmlns="http://www.w3.org/2000/svg">
<path d="M19.7792 20.2221C19.674 20.2221 19.5811 20.148 19.5688 20.043L16.5484 1.49796C16.5422 1.44238 16.5546 1.38679 16.5856 1.33739C16.6165 1.29416 16.6722 1.25711 16.7279 1.25094C21.7474 0.43577 26.7854 1.62147 30.9137 4.59189C35.0419 7.55613 37.759 11.9531 38.5759 16.9614C38.5821 17.017 38.5697 17.0726 38.5388 17.122C38.5079 17.1652 38.4521 17.2023 38.3964 17.2084L19.8163 20.2221C19.804 20.2159 19.7916 20.2221 19.7792 20.2221ZM17.0064 1.63999L19.9587 19.7589L38.1117 16.8132C36.3788 6.89535 26.9835 0.139341 17.0064 1.63999Z" fill="white" stroke="white" stroke-width="0.4" stroke-linejoin="round"/>
<path d="M20.0015 39C16.0404 39 12.1907 37.7649 8.91042 35.412C4.78219 32.4478 2.06512 28.0508 1.24814 23.0486C-0.435336 12.7047 6.62659 2.92882 16.9874 1.24908C27.3482 -0.43684 37.1519 6.6156 38.8354 16.9596C39.6524 21.9679 38.4641 26.9948 35.4932 31.1077C32.5224 35.2268 28.1218 37.944 23.0962 38.753C22.0626 38.9135 21.029 39 20.0015 39ZM20.0511 1.42199C19.0608 1.42199 18.0643 1.50227 17.0555 1.66283C6.92986 3.30552 0.0288588 12.8652 1.6752 22.9745C2.47361 27.8717 5.13498 32.1637 9.16418 35.06C13.1996 37.9625 18.12 39.1173 23.0281 38.3207C27.9362 37.5241 32.2377 34.8686 35.1404 30.8483C38.0432 26.8219 39.2068 21.9124 38.4084 17.0213C36.9291 7.91246 29.0131 1.42199 20.0511 1.42199Z" fill="white" stroke="white" stroke-width="0.4" stroke-linejoin="round"/>
<path d="M35.2033 17.4122C35.16 17.4122 35.1166 17.3998 35.0795 17.3689L17.1369 4.47445C17.0379 4.40652 17.0193 4.27065 17.0874 4.17185C17.1555 4.07304 17.2916 4.05452 17.3907 4.12245L35.3333 17.0231C35.4323 17.091 35.4509 17.2269 35.3828 17.3257C35.3395 17.3813 35.2714 17.4122 35.2033 17.4122Z" fill="white" stroke="white" stroke-width="0.4" stroke-linejoin="round"/>
<path d="M35.9417 10.5816C35.8984 10.5816 35.8551 10.5693 35.8179 10.5384L23.6994 1.83089C23.6004 1.76296 23.5818 1.6271 23.6499 1.5283C23.718 1.42949 23.8541 1.41096 23.9532 1.47889L36.0717 10.1864C36.1707 10.2543 36.1893 10.3902 36.1212 10.489C36.0779 10.5508 36.0098 10.5816 35.9417 10.5816Z" fill="white" stroke="white" stroke-width="0.4" stroke-linejoin="round"/>
<path d="M26.944 18.8516C26.9007 18.8516 26.8573 18.8393 26.8202 18.8084L18.4338 12.7811C18.3347 12.7132 18.3162 12.5773 18.3843 12.4785C18.4523 12.3797 18.5885 12.3612 18.6875 12.4291L27.074 18.4564C27.173 18.5243 27.1916 18.6602 27.1235 18.759C27.0802 18.8207 27.0121 18.8516 26.944 18.8516Z" fill="white" stroke="white" stroke-width="0.4" stroke-linejoin="round"/>
</svg>
