<svg width="61" height="58" viewBox="0 0 61 58" fill="none" xmlns="http://www.w3.org/2000/svg">
<path d="M13.4297 4.75391L12.934 7.40046" stroke="white" stroke-width="0.688885" stroke-miterlimit="10" stroke-linecap="round" stroke-linejoin="round"/>
<path d="M5.78631 15.1759L1.8276 15.7492M4.56808 6.76363L7.40057 8.87952" stroke="white" stroke-width="0.688885" stroke-miterlimit="10" stroke-linecap="round" stroke-linejoin="round"/>
<path d="M50.116 13.012L10.5078 12.7578L10.2871 44.7364L49.8953 44.9906L50.116 13.012Z" stroke="white" stroke-width="0.688885" stroke-miterlimit="10" stroke-linecap="round" stroke-linejoin="round"/>
<path d="M35.4628 18.3199L43.7948 18.3385" stroke="white" stroke-width="0.688885" stroke-miterlimit="10" stroke-linecap="round" stroke-linejoin="round"/>
<path d="M35.455 19.8922L43.787 19.9107" stroke="white" stroke-width="0.688885" stroke-miterlimit="10" stroke-linecap="round" stroke-linejoin="round"/>
<path d="M40.0007 32.5618C40.9334 32.9101 41.9721 32.4357 42.3207 31.5023C42.6693 30.5689 42.1958 29.5298 41.263 29.1815C40.3303 28.8332 39.2916 29.3075 38.943 30.2409C38.5944 31.1744 39.068 32.2134 40.0007 32.5618Z" stroke="white" stroke-width="0.688885" stroke-miterlimit="10" stroke-linecap="round" stroke-linejoin="round"/>
<path d="M14.7722 38.4307L21.7209 30.7545L23.8217 33.8735L33.812 24.2985" stroke="white" stroke-width="0.688885" stroke-miterlimit="10" stroke-linecap="round" stroke-linejoin="round"/>
<path d="M32.1761 23.6864L34.708 23.4648L35.0047 25.7933L32.1761 23.6864Z" fill="white"/>
</svg>
