<svg width="44" height="41" viewBox="0 0 44 41" fill="none" xmlns="http://www.w3.org/2000/svg">
<path d="M6.09997 6.03027L1 34.7132L8.5 34.0469L6.09997 6.03027Z" fill="white" stroke="white" stroke-width="0.362791"/>
<path d="M42.6862 29.5106L43.3551 36.8535L27.536 38.2554L15.4566 39.3273L14.6857 39.3964L9.69407 39.8396L9.21306 39.8805L9.04742 38.0322L8.82125 35.571L6.09766 5.67785L40.2365 2.64453L42.2944 25.1917L42.6862 29.5106Z" stroke="white" stroke-width="0.5"/>
<path d="M32.5 3.5L35.5 37.5" stroke="white" stroke-width="0.5"/>
<path d="M34.5679 9.67008C34.5392 9.67008 34.5137 9.66065 34.4946 9.64493C34.4723 9.62607 34.4564 9.59778 34.4532 9.56635L34.4404 9.43433C34.3576 8.53219 35.0361 7.73378 35.9504 7.65206L39.5213 7.33458C39.5531 7.33144 39.5818 7.34087 39.6073 7.35973C39.6296 7.37859 39.6455 7.40688 39.6487 7.43831L39.7984 9.09171C39.8048 9.15457 39.757 9.21115 39.6933 9.2143L34.5774 9.66694C34.5742 9.67008 34.571 9.67008 34.5679 9.67008ZM39.4257 7.57033L35.9695 7.87838C35.1827 7.94753 34.5997 8.63592 34.6698 9.41233V9.43119L39.5531 8.99741L39.4257 7.57033Z" fill="white" stroke="white" stroke-width="0.362791"/>
<path d="M34.9785 14.137C34.918 14.137 34.8702 14.093 34.8639 14.0333C34.8575 13.9704 34.9053 13.9138 34.969 13.9107L38.9922 13.5523C39.056 13.546 39.1133 13.5932 39.1165 13.6561C39.1229 13.7189 39.0751 13.7755 39.0114 13.7786L34.9881 14.137C34.9849 14.137 34.9817 14.137 34.9785 14.137Z" fill="white" stroke="white" stroke-width="0.362791"/>
<path d="M35.3067 17.7766C35.2461 17.7766 35.1983 17.7326 35.192 17.6729C35.1856 17.61 35.2334 17.5535 35.2971 17.5503L39.3204 17.192C39.3841 17.1857 39.4414 17.2328 39.4446 17.2957C39.451 17.3586 39.4032 17.4151 39.3395 17.4183L35.3162 17.7766C35.313 17.7766 35.3098 17.7766 35.3067 17.7766Z" fill="white" stroke="white" stroke-width="0.362791"/>
<path d="M36.1817 27.3733C36.1211 27.3733 36.0733 27.3293 36.067 27.2696C36.0606 27.2067 36.1084 27.1501 36.1721 27.147L39.0741 26.8892C39.1378 26.8829 39.1951 26.9301 39.1983 26.993C39.2047 27.0558 39.1569 27.1124 39.0932 27.1156L36.1912 27.3733C36.188 27.3733 36.1848 27.3733 36.1817 27.3733Z" fill="white" stroke="white" stroke-width="0.362791"/>
<path d="M34.5739 3.24512C34.5133 3.24512 34.4656 3.20111 34.4592 3.14139L34.2935 1.32139C34.2872 1.25853 34.335 1.20195 34.3987 1.1988C34.4592 1.19252 34.5197 1.23967 34.5229 1.30253L34.6885 3.12253C34.6949 3.18539 34.6471 3.24197 34.5834 3.24512C34.5802 3.24512 34.577 3.24512 34.5739 3.24512Z" fill="white" stroke="white" stroke-width="0.362791"/>
<path d="M36.8356 3.04688C36.7751 3.04688 36.7273 3.00287 36.7209 2.94315L36.5553 1.12315C36.5489 1.06029 36.5967 1.00371 36.6604 1.00056C36.7241 0.994276 36.7814 1.04143 36.7846 1.10429L36.9503 2.92428C36.9566 2.98715 36.9088 3.04373 36.8451 3.04688C36.8451 3.04688 36.842 3.04688 36.8356 3.04688Z" fill="white" stroke="white" stroke-width="0.362791"/>
<path d="M8.62464 5.54883C8.56412 5.54883 8.51634 5.50482 8.50997 5.4451L8.34432 3.6251C8.33795 3.56224 8.38573 3.50566 8.44944 3.50252C8.51315 3.49623 8.57049 3.54338 8.57368 3.60625L8.73932 5.42624C8.74569 5.4891 8.69791 5.54568 8.6342 5.54883C8.63101 5.54883 8.62783 5.54883 8.62464 5.54883Z" fill="white" stroke="white" stroke-width="0.362791"/>
<path d="M10.8903 5.34766C10.8297 5.34766 10.782 5.30365 10.7756 5.24393L10.6099 3.42393C10.6036 3.36107 10.6514 3.30449 10.7151 3.30134C10.7756 3.29506 10.8361 3.34221 10.8393 3.40507L11.0081 5.22507C11.0145 5.28793 10.9667 5.34451 10.903 5.34766C10.8998 5.34766 10.8966 5.34766 10.8903 5.34766Z" fill="white" stroke="white" stroke-width="0.362791"/>
<path d="M10.2294 13.4959C10.1689 13.4959 10.1211 13.4519 10.1148 13.3922L9.73888 9.26186C9.7357 9.23043 9.74526 9.20214 9.76437 9.17699C9.78348 9.15499 9.81215 9.13927 9.84401 9.13613L14.0297 8.76521C14.0903 8.75892 14.1508 8.80608 14.154 8.86894L14.5299 12.9993C14.533 13.0307 14.5235 13.059 14.5044 13.0842C14.4853 13.1062 14.4566 13.1219 14.4247 13.125L10.2422 13.4959C10.239 13.4959 10.2358 13.4959 10.2294 13.4959ZM9.98098 9.35616L10.3378 13.257L14.2941 12.905L13.9374 9.00096L9.98098 9.35616Z" fill="white" stroke="white" stroke-width="0.362791"/>
<path d="M10.2351 13.4955C10.2096 13.4955 10.1842 13.4861 10.1619 13.4703C10.1141 13.4295 10.1077 13.3572 10.1459 13.31L13.9558 8.80877C13.9972 8.76162 14.0704 8.75534 14.1182 8.79306C14.166 8.83392 14.1724 8.90622 14.1342 8.95337L10.3211 13.4546C10.2988 13.4829 10.267 13.4955 10.2351 13.4955Z" fill="white" stroke="white" stroke-width="0.362791"/>
<path d="M17.6747 12.8356C17.6492 12.8356 17.6206 12.8262 17.6015 12.8104C17.5792 12.7916 17.5632 12.7633 17.5601 12.7319L17.1842 8.60152C17.1778 8.53866 17.2256 8.48207 17.2893 8.47893L21.475 8.10802C21.5069 8.10487 21.5355 8.1143 21.561 8.13316C21.5833 8.15202 21.5992 8.18031 21.6024 8.21175L21.9783 12.3421C21.9815 12.3735 21.972 12.4018 21.9528 12.427C21.9337 12.449 21.9051 12.4647 21.8732 12.4678L17.6875 12.8387C17.6843 12.8356 17.6779 12.8356 17.6747 12.8356ZM17.4263 8.69268L17.783 12.5967L21.7394 12.2446L21.3826 8.34062L17.4263 8.69268Z" fill="white" stroke="white" stroke-width="0.362791"/>
<path d="M17.6726 12.8344C17.6471 12.8344 17.6217 12.8249 17.5994 12.8092C17.5516 12.7683 17.5452 12.696 17.5834 12.6489L21.3933 8.14764C21.4347 8.10049 21.5079 8.0942 21.5557 8.13192C21.6035 8.17279 21.6099 8.24508 21.5717 8.29223L17.7618 12.7935C17.7395 12.8186 17.7077 12.8344 17.6726 12.8344Z" fill="white" stroke="white" stroke-width="0.362791"/>
<path d="M25.1201 12.1746C25.0596 12.1746 25.0118 12.1306 25.0054 12.0709L24.6295 7.94057C24.6263 7.90914 24.6359 7.88085 24.655 7.8557C24.6741 7.8337 24.7028 7.81798 24.7346 7.81484L28.9204 7.44392C28.9841 7.43764 29.0414 7.48479 29.0446 7.54765L29.4205 11.678C29.4237 11.7094 29.4141 11.7377 29.395 11.7629C29.3759 11.7849 29.3472 11.8006 29.3154 11.8037L25.1296 12.1715C25.1264 12.1746 25.1233 12.1746 25.1201 12.1746ZM24.8684 8.03173L25.2252 11.9358L29.1816 11.5837L28.8248 7.67967L24.8684 8.03173Z" fill="white" stroke="white" stroke-width="0.362791"/>
<path d="M25.1179 12.1752C25.0924 12.1752 25.067 12.1657 25.0447 12.15C24.9969 12.1092 24.9905 12.0369 25.0287 11.9897L28.8386 7.48846C28.88 7.44131 28.9533 7.43502 29.001 7.47274C29.0488 7.51361 29.0552 7.5859 29.017 7.63305L25.2071 12.1343C25.1848 12.1595 25.153 12.1752 25.1179 12.1752Z" fill="white" stroke="white" stroke-width="0.362791"/>
<path d="M10.956 21.495C10.8955 21.495 10.8477 21.451 10.8413 21.3912L10.4654 17.2609C10.4623 17.2294 10.4718 17.2012 10.4909 17.176C10.51 17.154 10.5387 17.1383 10.5706 17.1351L14.7563 16.7642C14.82 16.7579 14.8774 16.8051 14.8805 16.868L15.2564 20.9983C15.2596 21.0297 15.2501 21.058 15.2309 21.0832C15.2118 21.1052 15.1832 21.1209 15.1513 21.124L10.9656 21.495C10.9656 21.495 10.9624 21.495 10.956 21.495ZM10.7075 17.3552L11.0643 21.2592L15.0207 20.9072L14.6639 17.0031L10.7075 17.3552Z" fill="white" stroke="white" stroke-width="0.362791"/>
<path d="M10.9578 21.4955C10.9323 21.4955 10.9068 21.4861 10.8845 21.4703C10.8367 21.4295 10.8304 21.3572 10.8686 21.31L14.6784 16.8088C14.7198 16.7616 14.7931 16.7553 14.8409 16.7931C14.8887 16.8339 14.895 16.9062 14.8568 16.9534L11.047 21.4546C11.0215 21.4798 10.9896 21.4955 10.9578 21.4955Z" fill="white" stroke="white" stroke-width="0.362791"/>
<path d="M24.0263 20.2782C23.9658 20.2782 23.918 20.2342 23.9116 20.1744L23.5358 16.0441C23.5326 16.0126 23.5421 15.9844 23.5612 15.9592C23.5804 15.9372 23.609 15.9215 23.6409 15.9183L27.8266 15.5474C27.8903 15.5412 27.9477 15.5883 27.9508 15.6512L28.3267 19.7815C28.3299 19.8129 28.3204 19.8412 28.3013 19.8664C28.2821 19.8884 28.2535 19.9041 28.2216 19.9072L24.0359 20.2782C24.0327 20.2782 24.0295 20.2782 24.0263 20.2782ZM23.7747 16.1384L24.1314 20.0424L28.0878 19.6904L27.731 15.7863L23.7747 16.1384Z" fill="white" stroke="white" stroke-width="0.362791"/>
</svg>
