<?xml version="1.0" encoding="UTF-8"?>
<svg width="96px" height="20px" viewBox="0 0 96 20" version="1.1" xmlns="http://www.w3.org/2000/svg" xmlns:xlink="http://www.w3.org/1999/xlink">
    <title>Group 2</title>
    <g id="Page-1" stroke="none" stroke-width="1" fill="none" fill-rule="evenodd">
        <g id="Group-2" transform="translate(0.087900, 0.000000)" fill-rule="nonzero">
            <g id="Group" transform="translate(26.912100, 1.728556)" fill="#000000">
                <path d="M19.302,11.9442444 C19.2648,10.3975444 19.2058,8.85084444 19.1562,7.30484444 C19.1016,5.62184444 18.3743,4.68464444 16.7258,4.14324444 C15.8572,3.85944444 14.9768,3.97934444 14.0929,4.01204444 C13.0959,4.04894444 12.2622,4.45754444 11.559,5.11384444 C10.9396,5.69214444 10.5657,6.38314444 10.7107,7.28704444 C11.3105,7.28704444 11.892,7.26794444 12.4721,7.29344444 L12.9976,7.29344444 C13.0579,7.07494444 13.1504,6.86604444 13.2723,6.67334444 L13.3197,6.60244444 C13.8014,5.91634444 14.8092,5.65304444 15.7828,5.95604444 C16.5152,6.18374444 16.782,6.64424444 16.7805,7.60564444 C16.7805,7.91214444 16.6807,8.05974444 16.3549,8.08524444 C15.315,8.16824444 14.2751,8.25124444 13.2388,8.36404444 C11.9438,8.50594444 10.9141,9.10194444 10.3719,10.2705444 C9.6643,11.7959444 10.3281,13.4824444 11.8184,14.3214444 C12.5632,14.7414444 13.3488,14.6824444 14.1504,14.7164444 C15.1364,14.7594444 15.949,14.4164444 16.6653,13.7910444 C16.8053,13.6690444 16.9569,13.5611444 17.1296,13.4263444 C17.1726,13.5398444 17.193,13.6051444 17.2214,13.6668444 C17.3884,13.9969444 17.6614,14.2649444 17.999,14.4304444 C19.1249,15.0734444 20.1852,14.4304444 20.1852,14.4304444 L20.1852,12.5707444 L19.8238,12.5707444 C19.4295,12.5416444 19.3136,12.3096444 19.302,11.9442444 Z M16.7747,10.4691444 C16.7506,12.0584444 14.9572,13.2021444 13.4406,12.5976444 C12.9269,12.3919444 12.6266,11.9803444 12.6294792,11.4844444 C12.6294792,10.9601444 12.9502,10.4649444 13.4975,10.3450444 C14.251,10.1804444 15.0279,10.1073444 15.793,9.99944444 C15.9388,9.97964444 16.0845,9.98244444 16.2303,9.96964444 C16.6981,9.92714444 16.7812,10.0030444 16.7747,10.4691444 Z" id="Shape"></path>
                <path d="M36.1957,4.67294444 C35.0494,3.68394444 32.4791,3.68744444 31.3415,4.80494444 C31.1696,4.97384444 30.9772,5.12354444 30.7155,5.35194444 C30.6959,5.06104444 30.6842,4.89004444 30.6718,4.71834444 C30.6427,4.29694444 30.5487,4.19404444 30.126,4.17134444 C29.7616,4.15144444 29.3972,4.14294444 29.0329,4.14654444 C28.506,4.15144444 28.4805,4.17274444 28.4805,4.69284444 C28.4805,7.86194444 28.4841,11.0291444 28.4914,14.1944444 C28.4914,14.2653444 28.5045,14.3304444 28.5162,14.4444444 L30.9655,14.4444444 C30.9655,14.3034444 30.9655,14.1774444 30.9655,14.0489444 C30.9757,12.8314444 30.9655,11.6139444 31.0034,10.3972444 C31.0289,9.58484444 31.0683,8.76534444 31.1987,7.96434444 C31.3335,7.13634444 32.2401,6.29704444 32.955,6.28774444 C34.1735,6.27144444 34.7565,6.60634444 34.7688,7.84864444 C34.79,9.90624444 34.8527,11.9637444 34.8978,14.0163444 C34.8978,14.1440444 34.8978,14.2714444 34.8978,14.4524444 L37.3136,14.4524444 C37.3289,14.3584444 37.3387,14.2632444 37.3428,14.1681444 C37.334,11.6849444 37.3493,9.20174444 37.2962,6.72414444 C37.2794,5.90044444 36.8305,5.21854444 36.1957,4.67294444 Z" id="Path"></path>
                <path d="M55.538,8.49344444 C55.031,8.37644444 54.513,8.30614444 53.999,8.22034444 C53.499,8.13654444 52.983,8.10964444 52.502,7.96774444 C51.954,7.80524444 51.741,7.47884444 51.749,7.04534444 C51.758,6.57494444 52.053,6.19394444 52.551,6.01164444 C53.741,5.57314444 54.805,5.96414444 55.385,7.04254444 C55.434,7.13264444 55.543,7.25534444 55.626,7.25534444 C56.363,7.27174444 57.101,7.26534444 57.838,7.26534444 C57.878,6.59624444 57.297,5.55264444 56.666,4.93674444 C55.361,3.66394444 52.097,3.69084444 50.718,4.70044444 C49.64,5.49084444 49.123,6.51824444 49.376,7.81514444 C49.62,9.06604444 50.504,9.75354444 51.741,10.0352444 C52.19,10.1373444 52.647,10.2054444 53.101,10.2806444 C53.697,10.3800444 54.299,10.4580444 54.893,10.5730444 C55.214,10.6347444 55.476,10.8043444 55.581,11.1406444 C55.78,11.7756444 55.508,12.3652444 54.869,12.6241444 C54.23,12.8831444 53.572,12.9150444 52.902,12.7880444 C52.274,12.6688444 51.798,12.3552444 51.517,11.8004444 C51.517,11.8004444 51.476,11.7032444 51.379,11.4549444 L50.52,11.4549444 C50.027,11.4549444 49.513,11.4549444 48.934,11.4549444 C49.012,11.7987444 49.132,12.1322444 49.291,12.4482444 C49.335,12.5500444 49.387,12.6485444 49.446,12.7426444 C49.463,12.7696444 49.482,12.7951444 49.5,12.8221444 C49.722,13.1863444 50.007,13.5108444 50.342,13.7813444 C51.002,14.3384444 51.814,14.6584444 52.792,14.6934444 C53.918,14.7334444 55.046,14.7994444 56.111,14.2964444 C57.477,13.6508444 58.169,12.4865444 58.02,11.0207444 C57.891,9.73584444 57.018,8.83684444 55.538,8.49344444 Z" id="Path"></path>
                <path d="M67.171,9.59324444 C66.75,9.09654444 66.224,8.73614444 65.582,8.58504444 C64.958,8.43814444 64.323,8.33954444 63.693,8.21824444 C63.139,8.11174444 62.549,8.08484444 62.039,7.87624444 C61.28,7.56544444 61.279,6.56714444 61.984,6.13084444 C63.09,5.44614444 64.633,5.91164444 65.128,7.07164444 C65.166,7.15964444 65.28,7.27814444 65.359,7.27884444 C66.002,7.28234444 66.645,7.26254444 67.288,7.24764444 C67.556,7.24124444 67.623,7.08654444 67.555,6.86444444 C67.191,5.68884444 66.535,4.73594444 65.316,4.28824444 C64.32,3.92144444 63.279,3.87824444 62.23,4.03144444 C61.181,4.18474444 60.296,4.62744444 59.639,5.45964444 C59.399,5.76214444 59.224,6.10844444 59.124,6.47784444 C59.025,6.84734444 59.002,7.23254444 59.058,7.61064444 C59.114,7.98874444 59.247,8.35214444 59.449,8.67924444 C59.652,9.00644444 59.92,9.29064444 60.238,9.51514444 C60.859,9.95864444 61.576,10.1019444 62.312,10.2097444 C63.078,10.3225444 63.846,10.4332444 64.609,10.5645444 C64.932,10.6212444 65.197,10.7901444 65.294,11.1271444 C65.512,11.8848444 65.294,12.3247444 64.546,12.6170444 C64.344,12.6959444 64.135,12.7571444 63.921,12.8001444 C62.709,13.0491444 61.896,12.7341444 61.282,11.7940444 C61.282,11.7940444 61.241,11.6982444 61.144,11.4485444 L58.699,11.4485444 C58.738,11.6254444 58.79,11.7995444 58.854,11.9693444 C59.063,12.6793444 59.487,13.3113444 60.071,13.7827444 C61.684,15.1174444 64.982,14.9794444 66.398,13.9743444 C67.054,13.5096444 67.575,12.9413444 67.623,12.0984444 C67.648,11.6621444 67.634,11.2243444 67.642,10.7872444 C67.652,10.3275444 67.465,9.94084444 67.171,9.59324444 Z" id="Path"></path>
                <path d="M23.9595,5.44874444 C23.8867,5.03084444 23.8422,4.75624444 23.7985,4.48094444 C23.7693,4.30004444 23.7016,4.17094444 23.4793,4.17234444 C22.8854,4.17584444 22.2929,4.17584444 21.6465,4.17584444 C21.6465,4.29504444 21.6465,4.40004444 21.6465,4.50584444 C21.6465,6.82344444 21.6465,9.14114444 21.6465,11.4588444 C21.6465,12.3691444 21.6552,13.2794444 21.6581,14.1897444 C21.6581,14.3624444 21.6516,14.5294444 21.9081,14.5284489 C22.6449,14.5284489 23.3816,14.5284489 24.1534,14.5284489 C24.1534,14.2894444 24.1534,14.1500444 24.1534,14.0102444 C24.1905,12.2258444 24.2073,10.4414444 24.2744,8.65774444 C24.3152,7.58074444 25.1328,6.71584444 26.2172,6.51724444 C26.5575,6.45474444 26.9051,6.42714444 27.2374,6.38454444 L27.2374,4.07514444 C25.9184,3.94604444 24.8872,4.46394444 23.9595,5.44874444 Z" id="Path"></path>
                <path d="M5.5429,3.87954444 C5.4783,3.87954444 5.4136,3.87954444 5.349,3.87954444 C3.3814,3.84044444 2.52,5.01464444 2.52,5.01464444 C2.52,4.35414444 2.5244,3.81284444 2.52,3.27074444 C2.5105,2.32574444 2.4967,1.37994444 2.4821,0.432744444 C2.4821,0.225544444 2.4697,0.00704444444 2.1768,0.00284444444 C1.4641,-0.00355555556 0.7513,0.00284444444 0.016,0.00284444444 C0.0102,0.131244444 0,0.246144444 0,0.357544444 C0,4.37804444 0.0017,8.39644444 0.0051,12.4126444 C0.0051,13.0157444 0.0131,13.6187444 0.0102,14.2211444 C0.0102,14.3954444 0.0335,14.5244444 0.2565,14.5234502 C0.9933,14.5234502 1.7301,14.5234502 2.536,14.5234502 C2.536,13.6890444 2.5288,12.9483444 2.536,12.2068444 C2.5506,10.9666444 2.5623,9.72364444 2.6016,8.48554444 C2.6077,8.27424444 2.642,8.06464444 2.7037,7.86194444 C2.7117,7.83994444 3.3049,6.23854444 4.817,6.14914444 C5.0369,6.17314444 5.2518,6.22984444 5.454,6.31734444 C5.8183,6.49184444 6.2235,6.84664444 6.3511,7.57034444 C6.3649,8.27984444 6.3919,8.98934444 6.3977,9.69884444 C6.4101,11.1639444 6.4196,12.6297444 6.413,14.0976444 C6.413,14.3814444 6.5063,14.5154444 6.797,14.5144444 C7.5098,14.5144444 8.2232,14.5144444 8.9279,14.5144444 C8.9451,14.4684444 8.9578,14.4214444 8.9658,14.3734444 C8.9658,11.9032444 8.9862,9.43344444 8.952,6.96364444 C8.9352,3.73974444 5.5429,3.87954444 5.5429,3.87954444 Z" id="Path"></path>
                <path d="M48.31,10.1258444 L48.305,9.72704444 C48.308,9.67524444 48.31,9.61634444 48.31,9.55044444 C48.31,9.35104444 48.304,9.15024444 48.295,8.94944444 L48.295,8.90834444 C48.278,8.52194444 48.231,8.13744444 48.154,7.75824444 C47.899,6.56344444 47.371,5.50134444 46.3226,4.75134444 C45.4073,4.09644444 44.3732,3.92194444 43.2619,3.95744444 C41.558,4.01204444 40.3053,4.77474444 39.4483,6.17244444 C38.6686,7.44534444 38.5323,8.85154444 38.7006,10.2875444 C38.9841,12.7062444 40.6303,14.7214444 43.4907,14.7684444 C45.3935,14.8004444 46.8932,14.0940444 47.741,12.3500444 C47.87,12.0861444 47.924,11.7881444 48.029,11.4525444 L48.001,11.4525444 L48.029,11.4398444 L45.5494,11.4398444 L45.4037,11.7945444 L45.416,11.7988444 C44.9788,12.5934444 44.2501,12.7679444 43.3267,12.7325444 C42.0762,12.6842444 41.0676,11.2198444 41.3001,10.1272444 L48.31,10.1272444 L48.31,10.1258444 Z M45.7061,8.27334444 L41.2731,8.27334444 C41.2002,6.94374444 42.2088,5.94194444 43.5767,5.95324444 C44.8309,5.96314444 45.7906,6.99334444 45.7061,8.27264444 L45.7061,8.27334444 Z" id="Shape"></path>
            </g>
            <path d="M18.1040997,6.1348 L17.9473997,5.9823 L13.2323997,1.3918 C12.3113997,0.5004 11.0654997,-7.10542736e-15 9.76679969,-7.10542736e-15 C8.46809969,-7.10542736e-15 7.22219969,0.5004 6.30119969,1.3918 L1.83689969,5.7389 L1.43029969,6.1348 C1.36809969,6.193 1.30999969,6.253 1.25609969,6.315 C0.626699689,6.999 0.212399689,7.8446 0.0624996892,8.7513 C-0.0873003108,9.6579 0.0334996892,10.5874 0.410699689,11.4291 C0.653999689,11.9726 1.00009969,12.4667 1.43099969,12.8857 L6.30269969,17.6287 C6.95439969,18.2634 7.77809969,18.7046 8.67769969,18.9008 C9.01499969,18.9749 9.35939969,19.0143 9.70519969,19.0186 L9.83199969,19.0186 C10.1787997,19.0143 10.5241997,18.9746 10.8624997,18.9001 C11.7608997,18.7036 12.5834997,18.2627 13.2345997,17.6287 L18.1061997,12.8857 C18.9842997,12.0251 19.4940997,10.8721 19.5326997,9.6597 C19.5711997,8.4473 19.1355997,7.2658 18.3138997,6.354 C18.2439997,6.2781 18.1761997,6.2057 18.1040997,6.1348 Z M7.12329969,4.5413 L8.60119969,3.101 C8.83469969,2.8751 9.13209969,2.7223 9.45539969,2.662 C9.77859969,2.6017 10.1129997,2.6367 10.4157997,2.7626 C10.6086997,2.842 10.7840997,2.9569 10.9323997,3.101 L11.1247997,3.2883 L12.4452997,4.5739 L12.4999997,4.6271 L9.70519969,7.4303 L6.97169969,4.6874 L7.12329969,4.5413 Z M4.97269969,12.1776 L4.77089969,11.9811 L3.65589969,10.8955 L3.29149969,10.5408 C3.19439969,10.4453 3.11019969,10.3383 3.04079969,10.2222 C2.90569969,9.9983 2.82809969,9.7459 2.81449969,9.4865 C2.80089969,9.2272 2.85179969,8.9684 2.96279969,8.7323 C3.04329969,8.5597 3.15489969,8.4025 3.29219969,8.2683 L3.91889969,7.6581 L4.84879969,6.7535 L4.96109969,6.6442 L7.72449969,9.4169 L4.97269969,12.1776 Z M11.1211997,15.5257 L10.9323997,15.7095 C10.8106997,15.8278 10.6704997,15.9267 10.5169997,16.0025 C10.2625997,16.1277 9.97939969,16.1869 9.69459969,16.1745 C9.40979969,16.1621 9.13309969,16.0784 8.89119969,15.9315 C8.78559969,15.8681 8.68779969,15.7931 8.59969969,15.7081 L8.57859969,15.6875 L7.17499969,14.3217 L6.98259969,14.1344 L9.70519969,11.4035 L9.72929969,11.4276 L12.4875997,14.1947 L11.1211997,15.5257 Z M16.2420997,10.5401 L15.9848997,10.7848 L14.5360997,12.2038 L14.4981997,12.2407 L11.6851997,9.4162 L14.5090997,6.5832 L14.6548997,6.7251 L15.9432997,7.9795 L16.2391997,8.2675 C16.4690997,8.4921 16.6246997,8.7785 16.6858997,9.0899 C16.6916997,9.1182 16.6975997,9.1459 16.7018997,9.1743 L16.7018997,9.1835 C16.7381997,9.4288 16.7155997,9.679 16.6357997,9.9144 C16.5559997,10.1498 16.4211997,10.3639 16.2420997,10.5401 Z" id="Shape" fill="#00A6EA"></path>
        </g>
    </g>
</svg>