<?xml version="1.0" encoding="UTF-8"?>
<svg width="177px" height="80px" viewBox="0 0 177 80" version="1.1" xmlns="http://www.w3.org/2000/svg" xmlns:xlink="http://www.w3.org/1999/xlink">
    <title>Group 2</title>
    <g id="Page-1" stroke="none" stroke-width="1" fill="none" fill-rule="evenodd">
        <g id="Group-2">
            <polygon id="Path" fill="#E51C23" points="167.9 27 0 27 0 53 167.9 53 177 40"></polygon>
            <g id="logo-reserve" fill="#002E62">
                <path d="M149,0 L0,0 L0,26 L167.2,26 L149,0 Z M0,80 L0,54 L167.2,54 L149,80 L0,80 Z M10.4194,7.01806 L13.0594,7.10606 C13.9541,7.12074 14.8854,7.12806 15.8534,7.12806 L17.2394,7.12806 L18.4274,7.12806 C18.8381,7.12806 19.2341,7.12074 19.6154,7.10606 C20.0114,7.0914 20.3854,7.07674 20.7374,7.06206 C21.0894,7.0474 21.3974,7.03274 21.6614,7.01806 C21.5442,7.32606 21.4634,7.5974 21.4194,7.83206 C21.3754,8.05206 21.3314,8.3674 21.2874,8.77806 C20.5834,8.70474 19.9381,8.66074 19.3514,8.64606 C18.7648,8.61674 18.2148,8.60206 17.7014,8.60206 C17.4814,9.43806 17.2468,10.3254 16.9974,11.2641 C16.7628,12.2027 16.5061,13.2954 16.2274,14.5421 C15.9488,15.8181 15.6774,17.0721 15.4134,18.3041 C15.1494,19.5361 14.9221,20.7828 14.7314,22.044 C14.4088,22.0148 14.0934,22 13.7854,22 L12.8614,22 L11.9374,22 C11.6441,22 11.3728,22.0148 11.1234,22.044 C11.4608,20.7828 11.7981,19.5067 12.1354,18.2161 C12.4728,16.9107 12.7808,15.5907 13.0594,14.2561 C13.2648,13.3174 13.4554,12.3861 13.6314,11.4621 C13.8221,10.5234 13.9981,9.57006 14.1594,8.60206 L13.0154,8.60206 C12.4874,8.60206 11.9961,8.61674 11.5414,8.64606 C11.0868,8.66074 10.5808,8.69006 10.0234,8.73406 C10.1408,8.39674 10.2288,8.11806 10.2874,7.89806 C10.3461,7.6634 10.3901,7.37006 10.4194,7.01806 Z M24.206,7.01806 C24.47,7.0474 24.7488,7.07674 25.042,7.10606 C25.3354,7.12074 25.658,7.12806 26.01,7.12806 C26.3914,7.12806 26.7214,7.12074 27,7.10606 C27.2788,7.07674 27.528,7.0474 27.748,7.01806 C27.572,7.59006 27.396,8.19874 27.22,8.84406 C27.0588,9.47474 26.9048,10.0834 26.758,10.6701 C26.626,11.2567 26.5088,11.7847 26.406,12.2541 C26.3034,12.7087 26.23,13.0387 26.186,13.2441 C26.6994,13.2587 27.3008,13.2734 27.99,13.2881 L30.058,13.2881 L31.466,13.2881 C31.95,13.2734 32.4268,13.2587 32.896,13.2441 C32.9548,12.9947 33.0354,12.6134 33.138,12.1001 C33.2554,11.5867 33.3728,11.0294 33.49,10.4281 C33.622,9.82674 33.7394,9.2254 33.842,8.62406 C33.9594,8.00806 34.0548,7.47274 34.128,7.01806 C34.3774,7.0474 34.6708,7.07674 35.008,7.10606 C35.36,7.12074 35.7048,7.12806 36.042,7.12806 C36.3794,7.12806 36.6728,7.12074 36.922,7.10606 C37.186,7.07674 37.4354,7.0474 37.67,7.01806 C37.4208,7.7514 37.1568,8.6534 36.878,9.72406 C36.614,10.7801 36.3354,11.9607 36.042,13.2661 C35.7634,14.5567 35.4774,15.9501 35.184,17.4461 C34.9054,18.9421 34.634,20.4748 34.37,22.044 C34.0768,22.0148 33.7688,22 33.446,22 L32.544,22 L31.62,22 C31.3268,22 31.048,22.0148 30.784,22.044 C30.9454,21.5308 31.092,21.01 31.224,20.482 C31.3708,19.9541 31.51,19.4041 31.642,18.8321 C31.7888,18.2601 31.928,17.6514 32.06,17.0061 C32.2068,16.3607 32.3608,15.6494 32.522,14.8721 C32.1848,14.8574 31.7814,14.8501 31.312,14.8501 C30.8428,14.8354 30.1754,14.8281 29.31,14.8281 L28.166,14.8281 C27.6528,14.8281 27.2348,14.8354 26.912,14.8501 C26.5894,14.8647 26.2374,14.8721 25.856,14.8721 C25.6654,15.7081 25.504,16.4194 25.372,17.0061 C25.2548,17.5781 25.1448,18.1207 25.042,18.6341 C24.954,19.1327 24.866,19.6534 24.778,20.196 C24.7048,20.724 24.6168,21.34 24.514,22.044 C24.2208,22.0148 23.9054,22 23.568,22 L22.578,22 L21.654,22 C21.4048,22 21.1554,22.0148 20.906,22.044 C21.126,21.3694 21.3534,20.5994 21.588,19.7341 C21.8228,18.8687 22.05,17.9667 22.27,17.0281 C22.49,16.0747 22.6954,15.1141 22.886,14.1461 C23.0914,13.1781 23.2748,12.2541 23.436,11.3741 C23.612,10.4794 23.766,9.65806 23.898,8.91006 C24.03,8.16206 24.1328,7.5314 24.206,7.01806 Z M43.529,7.12806 C42.693,7.1134 41.945,7.07674 41.285,7.01806 C41.2264,7.4874 41.1238,8.1254 40.977,8.93206 C40.845,9.73874 40.6838,10.6261 40.493,11.5941 C40.317,12.5474 40.119,13.5521 39.899,14.6081 C39.6938,15.6494 39.481,16.6541 39.261,17.6221 C39.041,18.5754 38.8284,19.4481 38.623,20.24 C38.4324,21.0174 38.2638,21.6188 38.117,22.044 C38.7038,22.0148 39.327,22 39.987,22 L42.187,22 L44.299,22 C45.0618,22 45.883,22.0148 46.763,22.044 C46.7338,21.868 46.7338,21.67 46.763,21.45 C46.807,21.23 46.9244,20.9 47.115,20.46 C46.807,20.4894 46.5284,20.5188 46.279,20.548 L45.531,20.592 C45.2818,20.592 45.0178,20.5994 44.739,20.614 L43.771,20.614 L42.011,20.614 C42.1284,19.6314 42.275,18.6561 42.451,17.6881 C42.6418,16.7054 42.8398,15.7301 43.045,14.7621 C43.837,14.7621 44.6804,14.7767 45.575,14.8061 C46.4698,14.8207 47.2984,14.8721 48.061,14.9601 C48.0464,14.7254 48.0464,14.4907 48.061,14.2561 C48.0904,14.0214 48.2078,13.6841 48.413,13.2441 L47.709,13.2881 C47.4744,13.3027 47.2324,13.3174 46.983,13.3321 C46.7338,13.3467 46.455,13.3541 46.147,13.3541 L45.135,13.3541 L43.353,13.3541 C43.4704,12.7674 43.6244,12.0341 43.815,11.1541 C44.0204,10.2741 44.2478,9.39406 44.497,8.51406 C45.2744,8.51406 45.9124,8.5214 46.411,8.53606 C46.9244,8.53606 47.3644,8.55074 47.731,8.58006 C48.0978,8.59474 48.413,8.61674 48.677,8.64606 C48.941,8.66074 49.2198,8.68274 49.513,8.71206 C49.4838,8.40406 49.491,8.14006 49.535,7.92006 C49.579,7.70006 49.6964,7.3994 49.887,7.01806 C49.3884,7.0474 48.8018,7.07674 48.127,7.10606 C47.467,7.12074 46.7558,7.12806 45.993,7.12806 L43.529,7.12806 Z M73.942,71.502 C73.7806,70.9592 73.7,70.3652 73.7,69.72 C73.7,69.1186 73.7512,68.488 73.854,67.828 C73.9566,67.168 74.118,66.5152 74.338,65.87 C74.558,65.21 74.8292,64.5866 75.152,64 C75.4892,63.4132 75.8852,62.8926 76.34,62.438 C76.7946,61.9832 77.3152,61.624 77.902,61.36 C78.4886,61.096 79.1412,60.964 79.86,60.964 C80.5052,60.964 81.0772,61.074 81.576,61.294 C82.0892,61.4992 82.522,61.8 82.874,62.196 C83.2258,62.5772 83.49,63.032 83.666,63.56 C83.8566,64.088 83.952,64.6746 83.952,65.32 C83.952,65.892 83.8932,66.508 83.776,67.168 C83.6586,67.8132 83.4826,68.466 83.248,69.126 C83.0132,69.7712 82.72,70.3946 82.368,70.996 C82.016,71.5972 81.6052,72.1326 81.136,72.602 C80.6812,73.0566 80.168,73.4232 79.596,73.702 C79.024,73.9806 78.4006,74.12 77.726,74.12 C77.066,74.12 76.4792,74.0172 75.966,73.812 C75.4672,73.592 75.0492,73.2912 74.712,72.91 C74.3746,72.514 74.118,72.0446 73.942,71.502 Z M71.082,65.188 C70.642,66.2732 70.422,67.4246 70.422,68.642 C70.422,69.7272 70.6126,70.688 70.994,71.524 C71.39,72.36 71.9252,73.064 72.6,73.636 C73.2746,74.1932 74.0592,74.6112 74.954,74.89 C75.8632,75.154 76.8312,75.286 77.858,75.286 C79.31,75.286 80.6152,75.044 81.774,74.56 C82.9326,74.076 83.9152,73.4232 84.722,72.602 C85.5286,71.7806 86.1446,70.8346 86.57,69.764 C87.01,68.6932 87.23,67.5786 87.23,66.42 C87.23,65.3052 87.0246,64.33 86.614,63.494 C86.218,62.658 85.668,61.9612 84.964,61.404 C84.2746,60.8466 83.468,60.4286 82.544,60.15 C81.6346,59.8712 80.6666,59.732 79.64,59.732 C78.276,59.732 77.0292,59.9666 75.9,60.436 C74.7706,60.9052 73.7952,61.5432 72.974,62.35 C72.1672,63.1566 71.5366,64.1026 71.082,65.188 Z M14.0734,59.776 C14.3667,60.3186 14.7114,60.9272 15.1074,61.602 C15.518,62.2766 15.9507,62.9806 16.4054,63.714 C16.8747,64.4326 17.344,65.1586 17.8134,65.892 C18.2827,66.6106 18.73,67.2926 19.1554,67.938 C19.5954,68.5832 19.9914,69.1626 20.3434,69.676 C20.71,70.1746 21.0034,70.5706 21.2234,70.864 C21.3408,70.468 21.4654,69.9766 21.5974,69.39 C21.744,68.7886 21.8908,68.1506 22.0374,67.476 C22.184,66.7866 22.3308,66.0752 22.4774,65.342 C22.6388,64.6086 22.778,63.912 22.8954,63.252 C23.0274,62.5772 23.1448,61.9612 23.2474,61.404 C23.35,60.832 23.4308,60.37 23.4894,60.018 C23.7534,60.0912 24.0394,60.128 24.3474,60.128 C24.626,60.128 24.9268,60.0912 25.2494,60.018 C25.1614,60.3552 25.0808,60.6706 25.0074,60.964 C24.934,61.2426 24.8314,61.6312 24.6994,62.13 C24.582,62.614 24.428,63.274 24.2374,64.11 C24.0468,64.9312 23.79,66.046 23.4674,67.454 C23.2914,68.246 23.064,69.324 22.7854,70.688 C22.5214,72.052 22.2428,73.5846 21.9494,75.286 C21.656,75.2126 21.348,75.176 21.0254,75.176 C20.8494,75.176 20.688,75.1832 20.5414,75.198 L20.1454,75.286 C19.0454,73.394 17.8794,71.5312 16.6474,69.698 C15.4154,67.85 14.1614,65.9946 12.8854,64.132 C12.6654,65.0412 12.438,66.0386 12.2034,67.124 C11.9687,68.1946 11.7487,69.2432 11.5434,70.27 C11.3527,71.2966 11.1767,72.2426 11.0154,73.108 C10.8687,73.9586 10.766,74.604 10.7074,75.044 C10.5607,75.0146 10.4067,75 10.2454,75 L9.76138,75 C9.3947,75 9.09404,75.0146 8.85938,75.044 C8.94738,74.7946 9.07204,74.3546 9.23338,73.724 C9.3947,73.0932 9.5707,72.3526 9.76138,71.502 C9.9667,70.6512 10.1794,69.7272 10.3994,68.73 C10.6194,67.718 10.832,66.6986 11.0374,65.672 C11.2574,64.6306 11.4627,63.604 11.6534,62.592 C11.844,61.58 12.0054,60.6412 12.1374,59.776 C12.4307,59.8492 12.7534,59.886 13.1054,59.886 C13.4574,59.886 13.78,59.8492 14.0734,59.776 Z M29.0624,60.018 C29.7224,60.0766 30.4704,60.1132 31.3064,60.128 L33.7704,60.128 C34.533,60.128 35.2444,60.1206 35.9044,60.106 C36.579,60.0766 37.1658,60.0472 37.6644,60.018 C37.4738,60.3992 37.3564,60.7 37.3124,60.92 C37.2684,61.14 37.261,61.404 37.2904,61.712 C36.997,61.6826 36.7184,61.6606 36.4544,61.646 C36.1904,61.6166 35.875,61.5946 35.5084,61.58 C35.1418,61.5506 34.7018,61.536 34.1884,61.536 C33.6898,61.5212 33.0518,61.514 32.2744,61.514 C32.025,62.394 31.7978,63.274 31.5924,64.154 C31.4018,65.034 31.2478,65.7672 31.1304,66.354 L32.9124,66.354 L33.9244,66.354 C34.2324,66.354 34.511,66.3466 34.7604,66.332 C35.0098,66.3172 35.2518,66.3026 35.4864,66.288 L36.1904,66.244 C35.985,66.684 35.8678,67.0212 35.8384,67.256 C35.8238,67.4906 35.8238,67.7252 35.8384,67.96 C35.0758,67.872 34.247,67.8206 33.3524,67.806 C32.4578,67.7766 31.6144,67.762 30.8224,67.762 C30.617,68.73 30.419,69.7052 30.2284,70.688 C30.0524,71.656 29.9058,72.6312 29.7884,73.614 L31.5484,73.614 L32.5164,73.614 C32.795,73.5992 33.059,73.592 33.3084,73.592 L34.0564,73.548 C34.3058,73.5186 34.5844,73.4892 34.8924,73.46 C34.7018,73.9 34.5844,74.23 34.5404,74.45 C34.511,74.67 34.511,74.868 34.5404,75.044 C33.6604,75.0146 32.839,75 32.0764,75 L29.9644,75 L27.7644,75 C27.1044,75 26.481,75.0146 25.8944,75.044 C26.041,74.6186 26.2098,74.0172 26.4004,73.24 C26.6058,72.448 26.8184,71.5752 27.0384,70.622 C27.2584,69.654 27.471,68.6492 27.6764,67.608 C27.8964,66.552 28.0944,65.5472 28.2704,64.594 C28.461,63.626 28.6224,62.7386 28.7544,61.932 C28.901,61.1252 29.0038,60.4872 29.0624,60.018 Z M41.5926,60.106 L38.9526,60.018 C38.9232,60.37 38.8792,60.6632 38.8206,60.898 C38.762,61.118 38.674,61.3966 38.5566,61.734 C39.114,61.69 39.62,61.6606 40.0746,61.646 C40.5292,61.6166 41.0206,61.602 41.5486,61.602 L42.6926,61.602 C42.5312,62.57 42.3552,63.5232 42.1646,64.462 C41.9886,65.386 41.798,66.3172 41.5926,67.256 C41.314,68.5906 41.006,69.9106 40.6686,71.216 C40.3312,72.5066 39.994,73.7826 39.6566,75.044 C39.906,75.0146 40.1772,75 40.4706,75 L41.3946,75 L42.3186,75 C42.6266,75 42.942,75.0146 43.2646,75.044 C43.4552,73.7826 43.6826,72.536 43.9466,71.304 C44.2106,70.072 44.482,68.818 44.7606,67.542 C45.0392,66.2952 45.296,65.2026 45.5306,64.264 C45.78,63.3252 46.0146,62.438 46.2346,61.602 C46.748,61.602 47.298,61.6166 47.8846,61.646 C48.4712,61.6606 49.1166,61.7046 49.8206,61.778 C49.8646,61.3672 49.9086,61.052 49.9526,60.832 C49.9966,60.5972 50.0772,60.326 50.1946,60.018 C49.9306,60.0326 49.6226,60.0472 49.2706,60.062 C48.9186,60.0766 48.5446,60.0912 48.1486,60.106 C47.7672,60.1206 47.3712,60.128 46.9606,60.128 L45.7726,60.128 L44.3866,60.128 C43.4186,60.128 42.4872,60.1206 41.5926,60.106 Z M50.9792,60.018 L51.7712,60.106 C52.0352,60.1206 52.3506,60.128 52.7172,60.128 C53.0986,60.128 53.4358,60.1206 53.7292,60.106 C54.0372,60.0766 54.3086,60.0472 54.5432,60.018 C54.5872,61.03 54.646,62.086 54.7192,63.186 C54.8072,64.2712 54.8952,65.3126 54.9832,66.31 C55.0712,67.3072 55.1592,68.2092 55.2472,69.016 C55.3352,69.808 55.416,70.4092 55.4892,70.82 C55.7972,70.2332 56.1198,69.6026 56.4572,68.928 C56.8092,68.2386 57.1612,67.542 57.5132,66.838 C57.8652,66.134 58.2026,65.4372 58.5252,64.748 C58.8626,64.0586 59.1706,63.4132 59.4492,62.812 C59.7426,62.2106 59.9992,61.668 60.2192,61.184 C60.4392,60.7 60.608,60.3112 60.7252,60.018 C61.0918,60.0912 61.466,60.128 61.8472,60.128 C62.0818,60.128 62.2798,60.1206 62.4412,60.106 C62.6172,60.0766 62.786,60.0472 62.9472,60.018 C62.9912,60.8246 63.0572,61.712 63.1452,62.68 C63.2478,63.6332 63.358,64.594 63.4752,65.562 C63.5926,66.53 63.7098,67.476 63.8272,68.4 C63.9592,69.3092 64.084,70.1232 64.2012,70.842 C64.6558,69.962 65.1252,68.994 65.6092,67.938 C66.108,66.8672 66.5772,65.826 67.0172,64.814 C67.4572,63.7872 67.8532,62.8486 68.2052,61.998 C68.5718,61.1472 68.8506,60.4872 69.0412,60.018 C69.3638,60.0912 69.7158,60.128 70.0972,60.128 C70.2732,60.128 70.442,60.1206 70.6032,60.106 C70.7792,60.0766 70.9478,60.0472 71.1092,60.018 C71.0066,60.194 70.904,60.3772 70.8012,60.568 C70.6986,60.744 70.5738,60.964 70.4272,61.228 L69.9432,62.196 C69.7526,62.5772 69.5178,63.054 69.2392,63.626 L67.5012,67.146 L65.7632,70.666 C65.3966,71.414 65.0372,72.1546 64.6852,72.888 C64.348,73.6066 64.0032,74.3252 63.6512,75.044 C63.4606,75.0146 63.2846,75 63.1232,75 L62.5952,75 C62.0966,75 61.7226,75.0146 61.4732,75.044 C61.3998,74.1052 61.3046,73.108 61.1872,72.052 C61.07,70.996 60.9452,69.9986 60.8132,69.06 C60.6812,68.1066 60.5566,67.2632 60.4392,66.53 C60.3218,65.782 60.2338,65.232 60.1752,64.88 C59.9112,65.3346 59.5666,65.9726 59.1412,66.794 C58.7158,67.6152 58.2612,68.51 57.7772,69.478 C57.2932,70.4312 56.8092,71.4066 56.3252,72.404 C55.8412,73.4012 55.4158,74.2812 55.0492,75.044 C54.8,75.0146 54.4626,75 54.0372,75 C53.5238,75 53.1206,75.0146 52.8272,75.044 C52.8126,74.7946 52.7686,74.3472 52.6952,73.702 C52.6366,73.0566 52.5558,72.3012 52.4532,71.436 C52.3652,70.5706 52.2552,69.632 52.1232,68.62 C52.006,67.608 51.8812,66.596 51.7492,65.584 C51.6172,64.5572 51.4852,63.5672 51.3532,62.614 C51.2212,61.646 51.0966,60.7806 50.9792,60.018 Z M93.4332,67.1222 C93.5162,67.1302 93.5972,67.138 93.676,67.146 L94.116,67.146 C94.644,67.146 95.106,67.0506 95.502,66.86 C95.898,66.6692 96.2208,66.4126 96.47,66.09 C96.734,65.7526 96.9248,65.364 97.042,64.924 C97.174,64.484 97.24,64.0146 97.24,63.516 C97.24,63.0466 97.1668,62.6652 97.02,62.372 C96.888,62.064 96.712,61.8292 96.492,61.668 C96.272,61.492 96.03,61.3746 95.766,61.316 C95.502,61.2572 95.2454,61.228 94.996,61.228 L94.732,61.228 C94.6148,61.228 94.5194,61.2352 94.446,61.25 C94.3728,61.514 94.2848,61.8586 94.182,62.284 C94.094,62.6946 93.9914,63.164 93.874,63.692 L93.544,65.342 C93.4268,65.9286 93.3168,66.5152 93.214,67.102 L93.4332,67.1222 Z M93.016,68.092 C92.8548,68.7812 92.7008,69.4706 92.554,70.16 C92.422,70.8492 92.29,71.502 92.158,72.118 C92.0408,72.734 91.9308,73.2986 91.828,73.812 C91.74,74.3252 91.6668,74.736 91.608,75.044 C91.3588,75.0146 91.08,75 90.772,75 L89.848,75 L88.924,75 C88.66,75 88.4254,75.0146 88.22,75.044 C88.3668,74.56 88.5428,73.9072 88.748,73.086 C88.9534,72.25 89.166,71.3406 89.386,70.358 C89.606,69.3752 89.826,68.3632 90.046,67.322 C90.2808,66.266 90.4934,65.2686 90.684,64.33 C90.8748,63.3766 91.036,62.5186 91.168,61.756 C91.3148,60.9932 91.4174,60.414 91.476,60.018 C91.7254,60.0472 92.004,60.0766 92.312,60.106 C92.62,60.1206 92.9428,60.128 93.28,60.128 C93.7494,60.128 94.2188,60.1132 94.688,60.084 C95.172,60.04 95.722,60.018 96.338,60.018 C96.9394,60.018 97.4968,60.0912 98.01,60.238 C98.5234,60.37 98.9634,60.5826 99.33,60.876 C99.7114,61.1692 100.005,61.5432 100.21,61.998 C100.415,62.4526 100.518,63.0026 100.518,63.648 C100.518,64.264 100.408,64.814 100.188,65.298 C99.968,65.782 99.6748,66.2 99.308,66.552 C98.9414,66.8892 98.5088,67.168 98.01,67.388 C97.526,67.5932 97.0128,67.7326 96.47,67.806 C96.558,68.0406 96.6754,68.3632 96.822,68.774 C96.9834,69.17 97.1594,69.6026 97.35,70.072 C97.5408,70.5412 97.7388,71.0326 97.944,71.546 C98.164,72.0592 98.3694,72.5432 98.56,72.998 C98.7654,73.4526 98.9488,73.8632 99.11,74.23 C99.2714,74.5966 99.396,74.868 99.484,75.044 C99.1908,75.0146 98.89,75 98.582,75 L97.702,75 L96.69,75 C96.4114,75 96.1548,75.0146 95.92,75.044 C95.5534,73.8852 95.1648,72.7266 94.754,71.568 C94.3434,70.4092 93.9034,69.2506 93.434,68.092 L93.016,68.092 Z M113.879,62.262 C114.671,61.514 115.463,60.81 116.255,60.15 L116.255,60.018 C116.05,60.0472 115.823,60.0766 115.573,60.106 C115.339,60.1206 115.111,60.128 114.891,60.128 C114.715,60.128 114.517,60.1206 114.297,60.106 C114.077,60.0766 113.887,60.0472 113.725,60.018 C112.831,61.0446 111.914,62.0346 110.975,62.988 C110.051,63.9266 109.105,64.8652 108.137,65.804 C107.8,66.1266 107.573,66.3392 107.455,66.442 C107.338,66.5446 107.25,66.596 107.191,66.596 C107.118,66.596 107.081,66.5446 107.081,66.442 C107.081,66.4272 107.125,66.2072 107.213,65.782 C107.301,65.3566 107.419,64.8286 107.565,64.198 C107.712,63.5526 107.873,62.856 108.049,62.108 C108.225,61.36 108.401,60.6632 108.577,60.018 C108.328,60.0472 108.057,60.0766 107.763,60.106 C107.47,60.1206 107.155,60.128 106.817,60.128 C106.465,60.128 106.157,60.1206 105.893,60.106 C105.644,60.0766 105.402,60.0472 105.167,60.018 C105.109,60.4432 105.006,61.0372 104.859,61.8 C104.713,62.5626 104.537,63.4206 104.331,64.374 C104.141,65.3126 103.928,66.3026 103.693,67.344 C103.473,68.3706 103.253,69.3752 103.033,70.358 C102.813,71.326 102.601,72.228 102.395,73.064 C102.205,73.8852 102.043,74.5452 101.911,75.044 C102.131,75.0146 102.366,75 102.615,75 L103.517,75 L104.419,75 C104.742,75 105.079,75.0146 105.431,75.044 C105.461,74.9266 105.483,74.78 105.497,74.604 C105.527,74.428 105.563,74.2152 105.607,73.966 C105.637,73.8046 105.688,73.5186 105.761,73.108 C105.849,72.6972 105.937,72.2646 106.025,71.81 C106.113,71.3406 106.194,70.9006 106.267,70.49 C106.341,70.0646 106.392,69.764 106.421,69.588 C106.509,69.016 106.575,68.664 106.619,68.532 C106.678,68.4 106.737,68.334 106.795,68.334 C106.883,68.334 106.971,68.4292 107.059,68.62 C107.338,69.192 107.587,69.7346 107.807,70.248 C108.027,70.7466 108.24,71.2526 108.445,71.766 C108.651,72.2646 108.856,72.7852 109.061,73.328 C109.267,73.856 109.494,74.428 109.743,75.044 C109.978,75.0146 110.235,75 110.513,75 L111.393,75 L112.339,75 C112.647,75 112.963,75.0146 113.285,75.044 C113.124,74.78 112.889,74.318 112.581,73.658 C112.288,72.998 111.958,72.2572 111.591,71.436 C111.239,70.6146 110.88,69.764 110.513,68.884 C110.147,68.004 109.824,67.1972 109.545,66.464 C109.663,66.332 109.773,66.2146 109.875,66.112 C109.978,66.0092 110.103,65.892 110.249,65.76 L110.755,65.254 C110.961,65.0632 111.217,64.814 111.525,64.506 C112.317,63.758 113.102,63.01 113.879,62.262 Z" id="Shape"></path>
            </g>
            <g id="Group" transform="translate(8.746100, 32.754000)" fill="#FFFFFF">
                <path d="M33.3715,2.046 C33.7967,2.5006 34.0461,3.08 34.1195,3.784 L34.6035,3.784 C34.7061,3.388 34.8161,2.992 34.9335,2.596 C35.0507,2.1852 35.2561,1.7086 35.5495,1.166 C34.8895,0.7406 34.2295,0.44 33.5695,0.264 C32.9095,0.088 32.1835,-8.8817842e-15 31.3915,-8.8817842e-15 C30.6875,-8.8817842e-15 30.0201,0.1026 29.3895,0.308 C28.7735,0.5132 28.2381,0.814 27.7835,1.21 C27.3287,1.5912 26.9695,2.0752 26.7055,2.662 C26.4415,3.234 26.3095,3.894 26.3095,4.642 C26.3095,5.1552 26.3755,5.6172 26.5075,6.028 C26.6541,6.4386 26.8521,6.8126 27.1015,7.15 C27.3507,7.4872 27.6367,7.81 27.9595,8.118 C28.2967,8.4112 28.6561,8.712 29.0375,9.02 C29.3601,9.284 29.6607,9.5406 29.9395,9.79 C30.2181,10.0392 30.4601,10.296 30.6655,10.56 C30.8855,10.8092 31.0541,11.066 31.1715,11.33 C31.3035,11.594 31.3695,11.8726 31.3695,12.166 C31.3695,12.518 31.2961,12.826 31.1495,13.09 C31.0027,13.354 30.8121,13.5812 30.5775,13.772 C30.3427,13.9626 30.0715,14.1092 29.7635,14.212 C29.4701,14.3 29.1621,14.344 28.8395,14.344 C27.9595,14.344 27.2481,14.0946 26.7055,13.596 C26.1627,13.0826 25.8621,12.408 25.8035,11.572 L25.3415,11.572 C25.2681,11.9532 25.1507,12.386 24.9895,12.87 C24.8281,13.354 24.6301,13.816 24.3955,14.256 C25.1435,14.7252 25.8767,15.0552 26.5955,15.246 C27.3141,15.4366 28.1135,15.532 28.9935,15.532 C29.6975,15.532 30.3721,15.4366 31.0175,15.246 C31.6627,15.0552 32.2275,14.762 32.7115,14.366 C33.2101,13.97 33.5987,13.4786 33.8775,12.892 C34.1707,12.3052 34.3175,11.6232 34.3175,10.846 C34.3175,10.362 34.2441,9.9292 34.0975,9.548 C33.9655,9.152 33.7821,8.7926 33.5475,8.47 C33.3275,8.1326 33.0635,7.8246 32.7555,7.546 C32.4475,7.2526 32.1247,6.9666 31.7875,6.688 C31.3621,6.336 30.9881,6.0206 30.6655,5.742 C30.3427,5.4486 30.0715,5.1772 29.8515,4.928 C29.6461,4.664 29.4847,4.4072 29.3675,4.158 C29.2647,3.894 29.2135,3.6226 29.2135,3.344 C29.2135,3.0946 29.2575,2.8526 29.3455,2.618 C29.4481,2.3686 29.5947,2.156 29.7855,1.98 C29.9761,1.7892 30.2107,1.6352 30.4895,1.518 C30.7827,1.4006 31.1127,1.342 31.4795,1.342 C32.3155,1.342 32.9461,1.5766 33.3715,2.046 Z" id="Path"></path>
                <path d="M8.118,0.264 C8.7193,0.264 9.2767,0.3372 9.79,0.484 C10.3033,0.616 10.7433,0.8286 11.11,1.122 C11.4913,1.4152 11.7847,1.7892 11.9899,2.244 C12.1953,2.6986 12.2979,3.2486 12.2979,3.894 C12.2979,4.51 12.1879,5.06 11.9679,5.544 C11.7479,6.028 11.4547,6.446 11.088,6.798 C10.7213,7.1352 10.2887,7.414 9.79,7.634 C9.306,7.8392 8.7927,7.9786 8.25,8.052 C8.338,8.2866 8.4553,8.6092 8.602,9.02 C8.7633,9.416 8.9393,9.8486 9.13,10.318 C9.3207,10.7872 9.5187,11.2786 9.724,11.792 C9.944,12.3052 10.1493,12.7892 10.34,13.244 C10.5453,13.6986 10.7287,14.1092 10.89,14.476 C11.0513,14.8426 11.176,15.114 11.2639,15.29 C10.9707,15.2606 10.67,15.246 10.362,15.246 L8.47,15.246 C8.1913,15.246 7.9347,15.2606 7.7,15.29 C7.3333,14.1312 6.9447,12.9726 6.534,11.814 C6.1233,10.6552 5.6833,9.4966 5.214,8.338 L4.796,8.338 C4.6347,9.0272 4.4807,9.7166 4.334,10.406 C4.202,11.0952 4.07,11.748 3.938,12.364 C3.8207,12.98 3.7107,13.5446 3.608,14.058 C3.52,14.5712 3.4467,14.982 3.388,15.29 C3.1387,15.2606 2.86,15.246 2.552,15.246 L0.704,15.246 C0.44,15.246 0.20532,15.2606 -8.8817842e-16,15.29 C0.14666,14.806 0.32266,14.1532 0.528,13.332 C0.73332,12.496 0.946,11.5866 1.166,10.604 C1.386,9.6212 1.606,8.6092 1.826,7.568 C2.0607,6.512 2.2733,5.5146 2.464,4.576 C2.6547,3.6226 2.816,2.7646 2.948,2.002 C3.0947,1.2392 3.1973,0.66 3.256,0.264 C3.5053,0.2932 3.784,0.3226 4.092,0.352 C4.4,0.3666 4.7227,0.374 5.06,0.374 C5.5293,0.374 5.9987,0.3592 6.468,0.33 C6.952,0.286 7.502,0.264 8.118,0.264 Z M6.776,1.474 L6.512,1.474 C6.3947,1.474 6.2993,1.4812 6.226,1.496 C6.1527,1.76 6.0647,2.1046 5.962,2.53 C5.874,2.9406 5.7713,3.41 5.654,3.938 L5.324,5.588 C5.2067,6.1746 5.0967,6.7612 4.994,7.348 C5.1553,7.3626 5.3093,7.3772 5.456,7.392 L5.896,7.392 C6.424,7.392 6.886,7.2966 7.282,7.106 C7.678,6.9152 8.0007,6.6586 8.25,6.336 C8.514,5.9986 8.7047,5.61 8.822,5.17 C8.954,4.73 9.02,4.2606 9.02,3.762 C9.02,3.2926 8.9467,2.9112 8.8,2.618 C8.668,2.31 8.492,2.0752 8.272,1.914 C8.052,1.738 7.81,1.6206 7.546,1.562 C7.282,1.5032 7.0253,1.474 6.776,1.474 Z" id="Combined-Shape"></path>
                <path d="M16.6393,0.264 C17.2993,0.3226 18.0473,0.3592 18.8833,0.374 L21.3473,0.374 C22.1099,0.374 22.8213,0.3666 23.4813,0.352 C24.1559,0.3226 24.7425,0.2932 25.2413,0.264 C25.0505,0.6452 24.9333,0.946 24.8893,1.166 C24.8453,1.386 24.8379,1.65 24.8673,1.958 C24.5739,1.9286 24.2953,1.9066 24.0313,1.892 C23.7673,1.8626 23.4519,1.8406 23.0853,1.826 C22.7185,1.7966 22.2785,1.782 21.7653,1.782 C21.2665,1.7672 20.6285,1.76 19.8513,1.76 C19.6019,2.64 19.3745,3.52 19.1693,4.4 C18.9785,5.28 18.8245,6.0132 18.7073,6.6 L20.4893,6.6 L21.5013,6.6 C21.8093,6.6 22.0879,6.5926 22.3373,6.578 C22.5865,6.5632 22.8285,6.5486 23.0633,6.534 L23.7673,6.49 C23.5619,6.93 23.4445,7.2672 23.4153,7.502 C23.4005,7.7366 23.4005,7.9712 23.4153,8.206 C22.6525,8.118 21.8239,8.0666 20.9293,8.052 C20.0345,8.0226 19.1913,8.008 18.3993,8.008 C18.1939,8.976 17.9959,9.9512 17.8053,10.934 C17.6293,11.902 17.4825,12.8772 17.3653,13.86 L19.1253,13.86 L20.0933,13.86 C20.3719,13.8452 20.6359,13.838 20.8853,13.838 L21.6333,13.794 C21.8825,13.7646 22.1613,13.7352 22.4693,13.706 C22.2785,14.146 22.1613,14.476 22.1173,14.696 C22.0879,14.916 22.0879,15.114 22.1173,15.29 C21.2373,15.2606 20.4159,15.246 19.6533,15.246 L17.5413,15.246 L15.3413,15.246 C14.6813,15.246 14.0579,15.2606 13.4713,15.29 C13.6179,14.8646 13.7865,14.2632 13.9773,13.486 C14.1825,12.694 14.3953,11.8212 14.6153,10.868 C14.8353,9.9 15.0479,8.8952 15.2533,7.854 C15.4733,6.798 15.6713,5.7932 15.8473,4.84 C16.0379,3.872 16.1993,2.9846 16.3313,2.178 C16.4779,1.3712 16.5805,0.7332 16.6393,0.264 Z" id="Path"></path>
                <path d="M39.4557,0.264 C40.1157,0.3226 40.8637,0.3592 41.6997,0.374 L44.1637,0.374 C44.9263,0.374 45.6377,0.3666 46.2977,0.352 C46.9723,0.3226 47.5589,0.2932 48.0577,0.264 C47.8669,0.6452 47.7497,0.946 47.7057,1.166 C47.6617,1.386 47.6543,1.65 47.6837,1.958 C47.3903,1.9286 47.1117,1.9066 46.8477,1.892 C46.5837,1.8626 46.2683,1.8406 45.9017,1.826 C45.5349,1.7966 45.0949,1.782 44.5817,1.782 C44.0829,1.7672 43.4449,1.76 42.6677,1.76 C42.4183,2.64 42.1909,3.52 41.9857,4.4 C41.7949,5.28 41.6409,6.0132 41.5237,6.6 L43.3057,6.6 L44.3177,6.6 C44.6257,6.6 44.9043,6.5926 45.1537,6.578 C45.4029,6.5632 45.6449,6.5486 45.8797,6.534 L46.5837,6.49 C46.3783,6.93 46.2609,7.2672 46.2317,7.502 C46.2169,7.7366 46.2169,7.9712 46.2317,8.206 C45.4689,8.118 44.6403,8.0666 43.7457,8.052 C42.8509,8.0226 42.0077,8.008 41.2157,8.008 C41.0103,8.976 40.8123,9.9512 40.6217,10.934 C40.4457,11.902 40.2989,12.8772 40.1817,13.86 L41.9417,13.86 L42.9097,13.86 C43.1883,13.8452 43.4523,13.838 43.7017,13.838 L44.4497,13.794 C44.6989,13.7646 44.9777,13.7352 45.2857,13.706 C45.0949,14.146 44.9777,14.476 44.9337,14.696 C44.9043,14.916 44.9043,15.114 44.9337,15.29 C44.0537,15.2606 43.2323,15.246 42.4697,15.246 L40.3577,15.246 L38.1577,15.246 C37.4977,15.246 36.8743,15.2606 36.2877,15.29 C36.4343,14.8646 36.6029,14.2632 36.7937,13.486 C36.9989,12.694 37.2117,11.8212 37.4317,10.868 C37.6517,9.9 37.8643,8.8952 38.0697,7.854 C38.2897,6.798 38.4877,5.7932 38.6637,4.84 C38.8543,3.872 39.0157,2.9846 39.1477,2.178 C39.2943,1.3712 39.3969,0.7332 39.4557,0.264 Z" id="Path"></path>
                <path d="M55.7919,0.264 C56.3931,0.264 56.9505,0.3372 57.4639,0.484 C57.9771,0.616 58.4171,0.8286 58.7839,1.122 C59.1651,1.4152 59.4585,1.7892 59.6639,2.244 C59.8691,2.6986 59.9719,3.2486 59.9719,3.894 C59.9719,4.51 59.8619,5.06 59.6419,5.544 C59.4219,6.028 59.1285,6.446 58.7619,6.798 C58.3951,7.1352 57.9625,7.414 57.4639,7.634 C56.9799,7.8392 56.4665,7.9786 55.9239,8.052 C56.0119,8.2866 56.1291,8.6092 56.2759,9.02 C56.4371,9.416 56.6131,9.8486 56.8039,10.318 C56.9945,10.7872 57.1925,11.2786 57.3979,11.792 C57.6179,12.3052 57.8231,12.7892 58.0139,13.244 C58.2191,13.6986 58.4025,14.1092 58.5639,14.476 C58.7251,14.8426 58.8499,15.114 58.9379,15.29 C58.6445,15.2606 58.3439,15.246 58.0359,15.246 L58.0359,15.246 L56.1439,15.246 C55.8651,15.246 55.6085,15.2606 55.3739,15.29 C55.0071,14.1312 54.6185,12.9726 54.2079,11.814 C53.7971,10.6552 53.3571,9.4966 52.8879,8.338 L52.8879,8.338 L52.4699,8.338 C52.3085,9.0272 52.1545,9.7166 52.0079,10.406 C51.8759,11.0952 51.7439,11.748 51.6119,12.364 C51.4945,12.98 51.3845,13.5446 51.2819,14.058 C51.1939,14.5712 51.1205,14.982 51.0619,15.29 C50.8125,15.2606 50.5339,15.246 50.2259,15.246 L50.2259,15.246 L48.3779,15.246 C48.1139,15.246 47.8791,15.2606 47.6739,15.29 C47.8205,14.806 47.9965,14.1532 48.2019,13.332 C48.4071,12.496 48.6199,11.5866 48.8399,10.604 C49.0599,9.6212 49.2799,8.6092 49.4999,7.568 C49.7345,6.512 49.9471,5.5146 50.1379,4.576 C50.3285,3.6226 50.4899,2.7646 50.6219,2.002 C50.7685,1.2392 50.8711,0.66 50.9299,0.264 C51.1791,0.2932 51.4579,0.3226 51.7659,0.352 C52.0739,0.3666 52.3965,0.374 52.7339,0.374 C53.2031,0.374 53.6725,0.3592 54.1419,0.33 C54.6259,0.286 55.1759,0.264 55.7919,0.264 Z M54.4499,1.474 L54.1859,1.474 C54.0685,1.474 53.9731,1.4812 53.8999,1.496 C53.8265,1.76 53.7385,2.1046 53.6359,2.53 C53.5479,2.9406 53.4451,3.41 53.3279,3.938 L53.3279,3.938 L52.9979,5.588 C52.8805,6.1746 52.7705,6.7612 52.6679,7.348 C52.8291,7.3626 52.9831,7.3772 53.1299,7.392 L53.1299,7.392 L53.5699,7.392 C54.0979,7.392 54.5599,7.2966 54.9559,7.106 C55.3519,6.9152 55.6745,6.6586 55.9239,6.336 C56.1879,5.9986 56.3785,5.61 56.4959,5.17 C56.6279,4.73 56.6939,4.2606 56.6939,3.762 C56.6939,3.2926 56.6205,2.9112 56.4739,2.618 C56.3419,2.31 56.1659,2.0752 55.9459,1.914 C55.7259,1.738 55.4839,1.6206 55.2199,1.562 C54.9559,1.5032 54.6991,1.474 54.4499,1.474 L54.4499,1.474 Z" id="Combined-Shape"></path>
                <path d="M65.7627,0.264 C65.9387,2.1852 66.1587,4.0772 66.4227,5.94 C66.6867,7.8026 66.9873,9.68 67.3247,11.572 C67.7207,10.9706 68.1313,10.318 68.5567,9.614 C68.9967,8.91 69.4293,8.1912 69.8547,7.458 C70.2799,6.71 70.6907,5.9766 71.0867,5.258 C71.4973,4.5392 71.8713,3.8646 72.2087,3.234 C72.5459,2.5886 72.8393,2.0092 73.0887,1.496 C73.3527,0.9826 73.5507,0.572 73.6827,0.264 C73.8439,0.2932 74.0199,0.3226 74.2107,0.352 C74.4013,0.3666 74.6139,0.374 74.8487,0.374 C75.0539,0.374 75.2373,0.3666 75.3987,0.352 C75.5599,0.3372 75.7433,0.308 75.9487,0.264 C75.1567,1.452 74.3939,2.6472 73.6607,3.85 C72.9419,5.038 72.2087,6.248 71.4607,7.48 C70.6539,8.8146 69.8619,10.1272 69.0847,11.418 C68.3073,12.7086 67.5227,13.9992 66.7307,15.29 C66.5107,15.2606 66.1807,15.246 65.7407,15.246 C65.3007,15.246 64.9633,15.2606 64.7287,15.29 C64.5819,14.0286 64.3987,12.7672 64.1787,11.506 C63.9587,10.2446 63.7387,8.9686 63.5187,7.678 C63.4013,7.0472 63.2767,6.3946 63.1447,5.72 C63.0127,5.0306 62.8807,4.356 62.7487,3.696 C62.6167,3.036 62.4847,2.4126 62.3527,1.826 C62.2207,1.2246 62.1033,0.704 62.0007,0.264 C62.2499,0.2932 62.5287,0.3226 62.8367,0.352 C63.1593,0.3666 63.5113,0.374 63.8927,0.374 C64.2739,0.374 64.6113,0.3666 64.9047,0.352 C65.2127,0.3226 65.4987,0.2932 65.7627,0.264 Z" id="Path"></path>
                <path d="M80.4145,0.374 C79.5785,0.3592 78.8305,0.3226 78.1705,0.264 C78.1117,0.7332 78.0091,1.3712 77.8625,2.178 C77.7305,2.9846 77.5691,3.872 77.3785,4.84 C77.2025,5.7932 77.0045,6.798 76.7845,7.854 C76.5791,8.8952 76.3665,9.9 76.1465,10.868 C75.9265,11.8212 75.7137,12.694 75.5085,13.486 C75.3177,14.2632 75.1491,14.8646 75.0025,15.29 C75.5891,15.2606 76.2125,15.246 76.8725,15.246 L79.0725,15.246 L81.1845,15.246 C81.9471,15.246 82.7685,15.2606 83.6485,15.29 C83.6191,15.114 83.6191,14.916 83.6485,14.696 C83.6925,14.476 83.8097,14.146 84.0005,13.706 C83.6925,13.7352 83.4137,13.7646 83.1645,13.794 L82.4165,13.838 C82.1671,13.838 81.9031,13.8452 81.6245,13.86 L80.6565,13.86 L78.8965,13.86 C79.0137,12.8772 79.1605,11.902 79.3365,10.934 C79.5271,9.9512 79.7251,8.976 79.9305,8.008 C80.7225,8.008 81.5657,8.0226 82.4605,8.052 C83.3551,8.0666 84.1837,8.118 84.9465,8.206 C84.9317,7.9712 84.9317,7.7366 84.9465,7.502 C84.9757,7.2672 85.0931,6.93 85.2985,6.49 L84.5945,6.534 C84.3597,6.5486 84.1177,6.5632 83.8685,6.578 C83.6191,6.5926 83.3405,6.6 83.0325,6.6 L82.0205,6.6 L80.2385,6.6 C80.3557,6.0132 80.5097,5.28 80.7005,4.4 C80.9059,3.52 81.1331,2.64 81.3825,1.76 C82.1597,1.76 82.7977,1.7672 83.2965,1.782 C83.8099,1.782 84.2497,1.7966 84.6165,1.826 C84.9831,1.8406 85.2985,1.8626 85.5625,1.892 C85.8265,1.9066 86.1051,1.9286 86.3985,1.958 C86.3691,1.65 86.3765,1.386 86.4205,1.166 C86.4645,0.946 86.5817,0.6452 86.7725,0.264 C86.2737,0.2932 85.6871,0.3226 85.0125,0.352 C84.3525,0.3666 83.6411,0.374 82.8785,0.374 L80.4145,0.374 Z" id="Path"></path>
                <path d="M95.6509,3.784 C95.5769,3.08 95.3279,2.5006 94.9029,2.046 C94.4769,1.5766 93.8469,1.342 93.0109,1.342 C92.6439,1.342 92.3139,1.4006 92.0209,1.518 C91.7419,1.6352 91.5069,1.7892 91.3169,1.98 C91.1261,2.156 90.9793,2.3686 90.8767,2.618 C90.7887,2.8526 90.7447,3.0946 90.7447,3.344 C90.7447,3.6226 90.7959,3.894 90.8987,4.158 C91.0161,4.4072 91.1773,4.664 91.3829,4.928 C91.6029,5.1772 91.8739,5.4486 92.1969,5.742 C92.5189,6.0206 92.8929,6.336 93.3189,6.688 C93.6559,6.9666 93.9789,7.2526 94.2869,7.546 C94.5949,7.8246 94.8589,8.1326 95.0789,8.47 C95.3129,8.7926 95.4969,9.152 95.6289,9.548 C95.7749,9.9292 95.8489,10.362 95.8489,10.846 C95.8489,11.6232 95.7019,12.3052 95.4089,12.892 C95.1299,13.4786 94.7409,13.97 94.2429,14.366 C93.7589,14.762 93.1939,15.0552 92.5489,15.246 C91.9029,15.4366 91.2287,15.532 90.5247,15.532 C89.6447,15.532 88.8453,15.4366 88.1267,15.246 C87.4079,15.0552 86.6747,14.7252 85.9267,14.256 C86.1613,13.816 86.3593,13.354 86.5207,12.87 C86.6819,12.386 86.7993,11.9532 86.8727,11.572 L87.3347,11.572 C87.3933,12.408 87.6941,13.0826 88.2367,13.596 C88.7793,14.0946 89.4907,14.344 90.3707,14.344 C90.6933,14.344 91.0013,14.3 91.2949,14.212 C91.6029,14.1092 91.8739,13.9626 92.1089,13.772 C92.3429,13.5812 92.5339,13.354 92.6809,13.09 C92.8269,12.826 92.9009,12.518 92.9009,12.166 C92.9009,11.8726 92.8349,11.594 92.7029,11.33 C92.5849,11.066 92.4169,10.8092 92.1969,10.56 C91.9909,10.296 91.7489,10.0392 91.4709,9.79 C91.1921,9.5406 90.8913,9.284 90.5687,9.02 C90.1873,8.712 89.8279,8.4112 89.4907,8.118 C89.1679,7.81 88.8819,7.4872 88.6327,7.15 C88.3833,6.8126 88.1853,6.4386 88.0387,6.028 C87.9067,5.6172 87.8407,5.1552 87.8407,4.642 C87.8407,3.894 87.9727,3.234 88.2367,2.662 C88.5007,2.0752 88.8601,1.5912 89.3147,1.21 C89.7693,0.814 90.3047,0.5132 90.9207,0.308 C91.5509,0.1026 92.2189,-8.8817842e-15 92.9229,-8.8817842e-15 C93.7149,-8.8817842e-15 94.4409,0.088 95.1009,0.264 C95.7609,0.44 96.4209,0.7406 97.0809,1.166 C96.7869,1.7086 96.5819,2.1852 96.4649,2.596 C96.3469,2.992 96.2369,3.388 96.1349,3.784 L95.6509,3.784 Z" id="Path"></path>
            </g>
        </g>
    </g>
</svg>