<svg width="261" height="49" viewBox="0 0 261 49" fill="none" xmlns="http://www.w3.org/2000/svg">
<path d="M1.785 20.96C1.785 18.0661 2.41109 15.4922 3.66326 13.2383C4.91543 10.9566 6.65458 9.1896 8.88065 7.93743C11.1346 6.65743 13.6807 6.01743 16.5189 6.01743C19.9972 6.01743 22.9745 6.93569 25.4511 8.77221C27.9277 10.6087 29.5832 13.1131 30.418 16.2853H22.5711C21.9867 15.0609 21.1519 14.1287 20.0667 13.4887C19.0094 12.8487 17.7989 12.5287 16.4354 12.5287C14.2372 12.5287 12.4563 13.294 11.0928 14.8244C9.72936 16.3548 9.04761 18.4 9.04761 20.96C9.04761 23.5201 9.72936 25.5653 11.0928 27.0957C12.4563 28.6261 14.2372 29.3913 16.4354 29.3913C17.7989 29.3913 19.0094 29.0714 20.0667 28.4313C21.1519 27.7913 21.9867 26.8592 22.5711 25.6348H30.418C29.5832 28.807 27.9277 31.3113 25.4511 33.1479C22.9745 34.9566 19.9972 35.8609 16.5189 35.8609C13.6807 35.8609 11.1346 35.2348 8.88065 33.9826C6.65458 32.7027 4.91543 30.9357 3.66326 28.6818C2.41109 26.4279 1.785 23.854 1.785 20.96ZM33.3698 23.9653C33.3698 21.5721 33.815 19.4713 34.7055 17.6626C35.6237 15.8539 36.8619 14.4627 38.4203 13.4887C39.9786 12.5148 41.7176 12.0279 43.6376 12.0279C45.2795 12.0279 46.7124 12.3618 47.9368 13.0296C49.1889 13.6974 50.149 14.5739 50.8168 15.6592V12.3618H57.9542V35.6522H50.8168V32.3548C50.1212 33.44 49.1472 34.3166 47.895 34.9844C46.6706 35.6522 45.2377 35.9861 43.5959 35.9861C41.7037 35.9861 39.9786 35.4992 38.4203 34.5253C36.8619 33.5235 35.6237 32.1184 34.7055 30.3096C33.815 28.4731 33.3698 26.3584 33.3698 23.9653ZM50.8168 24.007C50.8168 22.2262 50.3159 20.8209 49.3142 19.7913C48.3402 18.7618 47.1437 18.247 45.7246 18.247C44.3055 18.247 43.095 18.7618 42.0933 19.7913C41.1193 20.7931 40.6324 22.1845 40.6324 23.9653C40.6324 25.7461 41.1193 27.1652 42.0933 28.2226C43.095 29.2521 44.3055 29.767 45.7246 29.767C47.1437 29.767 48.3402 29.2521 49.3142 28.2226C50.3159 27.1931 50.8168 25.7878 50.8168 24.007ZM70.2551 15.6592C70.9507 14.5739 71.9107 13.6974 73.1351 13.0296C74.3595 12.3618 75.7924 12.0279 77.4342 12.0279C79.3542 12.0279 81.0933 12.5148 82.6516 13.4887C84.21 14.4627 85.4342 15.8539 86.3247 17.6626C87.2429 19.4713 87.7021 21.5721 87.7021 23.9653C87.7021 26.3584 87.2429 28.4731 86.3247 30.3096C85.4342 32.1184 84.21 33.5235 82.6516 34.5253C81.0933 35.4992 79.3542 35.9861 77.4342 35.9861C75.8204 35.9861 74.3873 35.6522 73.1351 34.9844C71.9107 34.3166 70.9507 33.454 70.2551 32.3966V46.7548H63.1177V12.3618H70.2551V15.6592ZM80.4395 23.9653C80.4395 22.1845 79.9386 20.7931 78.9368 19.7913C77.9629 18.7618 76.7524 18.247 75.3055 18.247C73.8864 18.247 72.676 18.7618 71.6742 19.7913C70.7003 20.8209 70.2134 22.2262 70.2134 24.007C70.2134 25.7878 70.7003 27.1931 71.6742 28.2226C72.676 29.2521 73.8864 29.767 75.3055 29.767C76.7247 29.767 77.9351 29.2521 78.9368 28.2226C79.9386 27.1652 80.4395 25.7461 80.4395 23.9653ZM104.427 29.6V35.6522H100.796C98.2082 35.6522 96.191 35.0261 94.7439 33.774C93.297 32.494 92.5734 30.4208 92.5734 27.5548V18.2887H89.7352V12.3618H92.5734V6.68525H99.7108V12.3618H104.386V18.2887H99.7108V27.6383C99.7108 28.3339 99.8778 28.8348 100.212 29.1409C100.546 29.4471 101.102 29.6 101.881 29.6H104.427ZM111.993 9.9409C110.74 9.9409 109.711 9.57917 108.904 8.85569C108.125 8.10438 107.735 7.18612 107.735 6.1009C107.735 4.98787 108.125 4.06961 108.904 3.34612C109.711 2.59482 110.74 2.21916 111.993 2.21916C113.217 2.21916 114.219 2.59482 114.998 3.34612C115.805 4.06961 116.208 4.98787 116.208 6.1009C116.208 7.18612 115.805 8.10438 114.998 8.85569C114.219 9.57917 113.217 9.9409 111.993 9.9409ZM115.54 12.3618V35.6522H108.403V12.3618H115.54ZM131.189 28.974L136.24 12.3618H143.836L135.572 35.6522H126.765L118.501 12.3618H126.139L131.189 28.974ZM145.421 23.9653C145.421 21.5721 145.867 19.4713 146.757 17.6626C147.675 15.8539 148.914 14.4627 150.472 13.4887C152.03 12.5148 153.769 12.0279 155.689 12.0279C157.331 12.0279 158.764 12.3618 159.988 13.0296C161.241 13.6974 162.201 14.5739 162.868 15.6592V12.3618H170.006V35.6522H162.868V32.3548C162.173 33.44 161.199 34.3166 159.947 34.9844C158.722 35.6522 157.289 35.9861 155.648 35.9861C153.755 35.9861 152.03 35.4992 150.472 34.5253C148.914 33.5235 147.675 32.1184 146.757 30.3096C145.867 28.4731 145.421 26.3584 145.421 23.9653ZM162.868 24.007C162.868 22.2262 162.368 20.8209 161.366 19.7913C160.392 18.7618 159.195 18.247 157.776 18.247C156.357 18.247 155.147 18.7618 154.145 19.7913C153.171 20.7931 152.684 22.1845 152.684 23.9653C152.684 25.7461 153.171 27.1652 154.145 28.2226C155.147 29.2521 156.357 29.767 157.776 29.767C159.195 29.767 160.392 29.2521 161.366 28.2226C162.368 27.1931 162.868 25.7878 162.868 24.007ZM188.15 29.6V35.6522H184.519C181.931 35.6522 179.914 35.0261 178.467 33.774C177.02 32.494 176.296 30.4208 176.296 27.5548V18.2887H173.458V12.3618H176.296V6.68525H183.434V12.3618H188.108V18.2887H183.434V27.6383C183.434 28.3339 183.601 28.8348 183.935 29.1409C184.268 29.4471 184.825 29.6 185.604 29.6H188.15ZM214.08 23.6313C214.08 24.2992 214.038 24.9947 213.955 25.7183H197.802C197.914 27.1652 198.373 28.2784 199.18 29.0574C200.015 29.8087 201.03 30.1844 202.227 30.1844C204.008 30.1844 205.246 29.4331 205.942 27.9305H213.537C213.149 29.4608 212.44 30.8382 211.409 32.0626C210.407 33.2871 209.142 34.2471 207.611 34.9426C206.081 35.6382 204.369 35.9861 202.477 35.9861C200.196 35.9861 198.164 35.4992 196.383 34.5253C194.602 33.5513 193.211 32.1601 192.209 30.3513C191.208 28.5426 190.707 26.4279 190.707 24.007C190.707 21.5861 191.194 19.4713 192.168 17.6626C193.169 15.8539 194.561 14.4627 196.342 13.4887C198.122 12.5148 200.168 12.0279 202.477 12.0279C204.731 12.0279 206.735 12.5009 208.488 13.447C210.24 14.3931 211.605 15.7426 212.577 17.4957C213.579 19.2487 214.08 21.2939 214.08 23.6313ZM206.776 21.7531C206.776 20.5287 206.359 19.5548 205.524 18.8313C204.689 18.1079 203.646 17.7461 202.394 17.7461C201.197 17.7461 200.182 18.094 199.347 18.7896C198.54 19.4852 198.039 20.4731 197.844 21.7531H206.776Z" fill="white"/>
<path d="M224.984 6.35134V35.6522H217.847V6.35134H224.984ZM251.025 40.6609L247.269 35.6105C246.157 35.8331 245.071 35.9444 244.013 35.9444C241.258 35.9444 238.727 35.3043 236.417 34.0244C234.136 32.7444 232.312 30.9634 230.949 28.6818C229.613 26.3721 228.945 23.7843 228.945 20.9183C228.945 18.0522 229.613 15.4783 230.949 13.1966C232.312 10.9148 234.136 9.13394 236.417 7.85394C238.727 6.57395 241.258 5.93394 244.013 5.93394C246.768 5.93394 249.287 6.57395 251.568 7.85394C253.878 9.13394 255.686 10.9148 256.994 13.1966C258.33 15.4783 258.998 18.0522 258.998 20.9183C258.998 23.4226 258.482 25.7183 257.453 27.8052C256.451 29.8644 255.047 31.5757 253.238 32.9392L259.665 40.6609H251.025ZM236.25 20.9183C236.25 23.5061 236.945 25.5791 238.337 27.1374C239.756 28.6678 241.649 29.4331 244.013 29.4331C246.351 29.4331 248.214 28.654 249.606 27.0957C251.025 25.5373 251.735 23.4784 251.735 20.9183C251.735 18.3305 251.025 16.2713 249.606 14.7409C248.214 13.1826 246.351 12.4035 244.013 12.4035C241.649 12.4035 239.756 13.1687 238.337 14.6992C236.945 16.2296 236.25 18.3026 236.25 20.9183Z" fill="#4BBFA9"/>
</svg>
