<?xml version="1.0" encoding="UTF-8"?>
<svg width="120px" height="20px" viewBox="0 0 120 20" version="1.1" xmlns="http://www.w3.org/2000/svg" xmlns:xlink="http://www.w3.org/1999/xlink">
    <!-- Generator: Sketch 51.2 (57519) - http://www.bohemiancoding.com/sketch -->
    <title>Logo</title>
    <desc>Created with Sketch.</desc>
    <defs></defs>
    <g id="Symbols" stroke="none" stroke-width="1" fill="none" fill-rule="evenodd">
        <g id="Nav---DARK" transform="translate(0.000000, -13.000000)">
            <g id="Nav">
                <g id="Logo" transform="translate(0.000000, 13.000000)">
                    <path d="M7.42471254,4.97171017 C6.30041416,4.97171017 5.43895171,5.31483504 4.84029932,6.00109509 C4.24164694,6.68735514 3.94232524,7.65832553 3.94232524,8.91403541 C3.94232524,10.1843466 4.27449932,11.1626175 4.93885746,11.8488775 C5.60321559,12.5351376 6.49753043,12.8782625 7.6218288,12.8782625 C8.22048118,12.8782625 8.72786797,12.7979566 9.14400438,12.6373426 C9.56014079,12.4767285 9.95801964,12.2942153 10.3376529,12.0897974 C10.5858746,12.2942153 10.7793386,12.538783 10.9180507,12.8235079 C11.0567629,13.1082329 11.1261179,13.4404069 11.1261179,13.8200402 C11.1261179,14.4186925 10.7939438,14.9260793 10.1295857,15.3422157 C9.46522756,15.7583521 8.45410425,15.9664172 7.09618544,15.9664172 C6.11789984,15.9664172 5.19803314,15.8277072 4.33655777,15.5502829 C3.47508239,15.2728586 2.72312787,14.8457777 2.08067166,14.2690272 C1.43821544,13.6922767 0.930828655,12.9622238 0.558496076,12.0788465 C0.186163497,11.1954692 0,10.1405427 0,8.91403541 C0,7.77513575 0.178862968,6.77131298 0.536594269,5.90253696 C0.89432557,5.03376094 1.38346103,4.30005775 2.00401533,3.70140537 C2.62456963,3.10275298 3.35097229,2.65012017 4.18324512,2.34349334 C5.01551794,2.03686651 5.90618252,1.88355539 6.85526556,1.88355539 C8.1985831,1.88355539 9.23890852,2.10257127 9.97627304,2.5406096 C10.7136376,2.97864793 11.0823143,3.54078868 11.0823143,4.22704873 C11.0823143,4.60668195 10.9874074,4.93520577 10.7975908,5.21263004 C10.6077742,5.49005432 10.3887583,5.7090702 10.1405366,5.86968425 C9.76090338,5.62146253 9.355724,5.40974718 8.92498631,5.23453185 C8.49424862,5.05931652 7.99416237,4.97171017 7.42471254,4.97171017 Z M17.6528564,13.2067896 C17.9010781,13.2067896 18.1748479,13.1812377 18.4741741,13.1301332 C18.7735003,13.0790288 18.9961665,13.0096737 19.1421792,12.9220661 L19.1421792,11.1699215 L17.5652491,11.3013324 C17.1564134,11.3305349 16.820589,11.4181413 16.557766,11.564154 C16.294943,11.7101668 16.1635335,11.9291827 16.1635335,12.2212082 C16.1635335,12.5132338 16.2766917,12.750501 16.5030115,12.933017 C16.7293313,13.1155329 17.1126091,13.2067896 17.6528564,13.2067896 Z M17.4776419,4.59937945 C18.2661109,4.59937945 18.985213,4.67968527 19.6349699,4.84029932 C20.2847267,5.00091338 20.839567,5.24548111 21.2995072,5.57400986 C21.7594475,5.9025386 22.1135231,6.31866877 22.3617448,6.82241285 C22.6099666,7.32615693 22.7340756,7.92115006 22.7340756,8.60741011 L22.7340756,13.5134149 C22.7340756,13.8930481 22.6282179,14.2033206 22.4164994,14.4442416 C22.2047808,14.6851627 21.9529126,14.8932278 21.660887,15.0684431 C20.711804,15.637893 19.3758071,15.9226136 17.6528564,15.9226136 C16.8789886,15.9226136 16.1817881,15.8496083 15.5612338,15.7035955 C14.9406795,15.5575828 14.4077409,15.3385669 13.9624019,15.0465413 C13.5170629,14.7545158 13.1739381,14.3821888 12.933017,13.9295492 C12.6920959,13.4769096 12.5716372,12.9512715 12.5716372,12.3526191 C12.5716372,11.3451309 12.8709589,10.5712748 13.4696112,10.0310276 C14.0682636,9.49078029 14.9954308,9.15495594 16.2511407,9.02354444 L19.1202774,8.71691915 L19.1202774,8.5636065 C19.1202774,8.14016945 18.9341139,7.83719748 18.5617813,7.65468151 C18.1894488,7.47216554 17.6528599,7.38090892 16.9519985,7.38090892 C16.39715,7.38090892 15.8569108,7.43931316 15.3312648,7.55612338 C14.8056188,7.6729336 14.3310844,7.81894419 13.9076474,7.99415952 C13.7178308,7.86274802 13.5572191,7.66198346 13.4258076,7.39185983 C13.2943961,7.12173619 13.2286914,6.84066581 13.2286914,6.54864026 C13.2286914,6.16900705 13.319948,5.86603508 13.502464,5.63971528 C13.6849799,5.41339547 13.9660503,5.21993145 14.3456835,5.05931739 C14.7691206,4.89870334 15.2692068,4.78189487 15.8459573,4.70888848 C16.4227078,4.6358821 16.9665972,4.59937945 17.4776419,4.59937945 Z M30.1149845,4.59937945 C30.9910611,4.59937945 31.8050702,4.71253765 32.557036,4.93885746 C33.3090018,5.16517726 33.9550986,5.5119524 34.4953459,5.97919328 C35.0355931,6.44643417 35.4590238,7.03412677 35.7656507,7.74228874 C36.0722775,8.4504507 36.2255886,9.29366184 36.2255886,10.2719474 C36.2255886,11.2064292 36.0941791,12.0240885 35.8313561,12.7249498 C35.5685331,13.4258111 35.1962061,14.0135037 34.7143639,14.4880453 C34.2325218,14.9625868 33.6521297,15.3166625 32.9731703,15.5502829 C32.2942109,15.7839033 31.5386061,15.9007118 30.7063333,15.9007118 C30.0784783,15.9007118 29.494436,15.8058049 28.9541887,15.6159883 L28.9541887,19.2516883 C28.8081759,19.2954921 28.574559,19.3429455 28.2533309,19.39405 C27.9321028,19.4451545 27.603579,19.4707063 27.2677496,19.4707063 C26.9465215,19.4707063 26.6581506,19.4488047 26.4026282,19.4050009 C26.1471059,19.3611971 25.9317402,19.2735907 25.7565249,19.1421792 C25.5813096,19.0107677 25.4499001,18.8319048 25.3622924,18.605585 C25.2746847,18.3792652 25.2308815,18.0835937 25.2308815,17.7185618 L25.2308815,7.20569447 C25.2308815,6.81145997 25.3148376,6.49023669 25.4827523,6.24201497 C25.650667,5.99379325 25.8806337,5.76747684 26.1726592,5.56305895 C26.6252989,5.2710334 27.1874396,5.03741646 27.8590984,4.86220113 C28.5307571,4.6869858 29.2827117,4.59937945 30.1149845,4.59937945 Z M30.1587881,12.9658697 C31.6627197,12.9658697 32.4146742,12.0679046 32.4146742,10.2719474 C32.4146742,9.33746567 32.2285107,8.64391539 31.8561781,8.19127578 C31.4838456,7.73863617 30.9472567,7.51231977 30.2463953,7.51231977 C29.9689711,7.51231977 29.7207531,7.54517215 29.5017339,7.6108779 C29.2827147,7.67658365 29.092901,7.7532392 28.9322869,7.84084687 L28.9322869,12.6592444 C29.1075022,12.7468521 29.297316,12.8198573 29.5017339,12.8782625 C29.7061518,12.9366676 29.9251677,12.9658697 30.1587881,12.9658697 Z M41.9857638,11.914583 C41.9857638,12.2942162 42.1062226,12.5643358 42.3471436,12.7249498 C42.5880647,12.8855639 42.9275393,12.9658697 43.3655777,12.9658697 C43.5845968,12.9658697 43.8109132,12.9476184 44.0445337,12.9111152 C44.2781541,12.874612 44.4825689,12.8271585 44.6577843,12.7687534 C44.7891958,12.9293675 44.902354,13.1082304 44.9972623,13.3053477 C45.0921706,13.5024649 45.139624,13.7397321 45.139624,14.0171564 C45.139624,14.572005 44.9315589,15.0246378 44.5154225,15.3750684 C44.0992861,15.7254991 43.3655829,15.9007118 42.3142909,15.9007118 C41.0293785,15.9007118 40.0401568,15.6086906 39.3465961,15.0246395 C38.6530354,14.4405884 38.3062603,13.4915196 38.3062603,12.1774046 L38.3062603,2.80343128 C38.4668743,2.75962745 38.696841,2.71217401 38.9961672,2.66106954 C39.2954934,2.60996507 39.6130664,2.58441321 39.9488958,2.58441321 C40.591352,2.58441321 41.0914383,2.69757142 41.4491696,2.92389122 C41.8069009,3.15021102 41.9857638,3.62839569 41.9857638,4.35845957 L41.9857638,5.76017521 L44.8549005,5.76017521 C44.9425082,5.92078927 45.0264643,6.12155382 45.1067713,6.3624749 C45.1870783,6.60339598 45.2272312,6.8698653 45.2272312,7.16189086 C45.2272312,7.67293557 45.114073,8.0416123 44.8877532,8.2679321 C44.6614334,8.49425191 44.3584615,8.60741011 43.9788283,8.60741011 L41.9857638,8.60741011 L41.9857638,11.914583 Z M47.1545903,1.97116262 C47.1545903,1.41631407 47.3407538,0.949080197 47.7130863,0.569446979 C48.0854189,0.189813762 48.5782046,0 49.1914583,0 C49.804712,0 50.2974977,0.189813762 50.6698303,0.569446979 C51.0421628,0.949080197 51.2283263,1.41631407 51.2283263,1.97116262 C51.2283263,2.52601117 51.0421628,2.99324504 50.6698303,3.37287826 C50.2974977,3.75251148 49.804712,3.94232524 49.1914583,3.94232524 C48.5782046,3.94232524 48.0854189,3.75251148 47.7130863,3.37287826 C47.3407538,2.99324504 47.1545903,2.52601117 47.1545903,1.97116262 Z M51.0531119,15.5502829 C50.8924978,15.5794855 50.6552306,15.6196384 50.3413032,15.6707428 C50.0273757,15.7218473 49.7098027,15.7473992 49.3885746,15.7473992 C49.0673465,15.7473992 48.7789755,15.7254976 48.5234532,15.6816937 C48.2679308,15.6378899 48.0525652,15.5502836 47.8773499,15.4188721 C47.7021346,15.2874606 47.5670748,15.1085976 47.4721665,14.8822778 C47.3772581,14.655958 47.3298047,14.3602865 47.3298047,13.9952546 L47.3298047,5.0812192 C47.4904188,5.05201665 47.727686,5.01186373 48.0416134,4.96075926 C48.3555409,4.90965479 48.6731139,4.88410294 48.994342,4.88410294 C49.3155701,4.88410294 49.603941,4.90600453 49.8594634,4.94980836 C50.1149858,4.99361219 50.3303514,5.08121854 50.5055667,5.21263004 C50.680782,5.34404154 50.8158418,5.52290451 50.9107501,5.74922431 C51.0056584,5.97554411 51.0531119,6.27121555 51.0531119,6.63624749 L51.0531119,15.5502829 Z M60.7556123,15.2874612 C60.5511945,15.4480753 60.2518728,15.5794848 59.8576383,15.6816937 C59.4634038,15.7839027 59.0180715,15.8350064 58.521628,15.8350064 C57.9521782,15.8350064 57.4593925,15.7620011 57.0432561,15.6159883 C56.6271197,15.4699755 56.3387487,15.2363586 56.1781347,14.9151305 C56.0467232,14.6669088 55.8897618,14.3201336 55.7072458,13.8747947 C55.5247299,13.4294557 55.3312659,12.9330197 55.126848,12.3854718 C54.9224301,11.8379239 54.7107147,11.2502313 54.4916956,10.6223763 C54.2726764,9.99452141 54.0646113,9.37397642 53.8674941,8.76072276 C53.6703768,8.1474691 53.4915139,7.55612623 53.3308998,6.9866764 C53.1702857,6.41722657 53.0388762,5.91349005 52.9366673,5.47545172 C53.1410852,5.27103384 53.414855,5.09217087 53.757985,4.93885746 C54.1011151,4.78554404 54.4770923,4.70888848 54.8859281,4.70888848 C55.3969728,4.70888848 55.8167532,4.81474616 56.145282,5.02646468 C56.4738107,5.23818321 56.7183785,5.63606206 56.8789925,6.22011316 L57.733163,9.57108961 C57.893777,10.2281471 58.0470882,10.8231402 58.1931009,11.3560869 C58.3391137,11.8890335 58.4486216,12.3015134 58.521628,12.593539 L58.6311371,12.593539 C58.9085613,11.5130444 59.2005825,10.3157576 59.5072093,9.00164264 C59.8138362,7.68752765 60.0912563,6.39533397 60.339478,5.12502281 C60.5876997,4.99361132 60.8687701,4.89140391 61.1826976,4.81839752 C61.496625,4.74539113 61.799597,4.70888848 62.0916226,4.70888848 C62.6026673,4.70888848 63.0333985,4.81839642 63.3838292,5.03741559 C63.7342598,5.25643475 63.9094725,5.63606227 63.9094725,6.17630955 C63.9094725,6.40992999 63.8547186,6.7494046 63.745209,7.19474357 C63.6356994,7.64008253 63.4969893,8.14381905 63.3290746,8.70596824 C63.16116,9.26811743 62.9640457,9.86311057 62.7377259,10.4909655 C62.5114061,11.1188204 62.2814394,11.7320649 62.0478189,12.3307173 C61.8141985,12.9293697 61.5842318,13.4878602 61.357912,14.0062055 C61.1315922,14.5245509 60.9308277,14.9516318 60.7556123,15.2874612 Z M70.1295857,13.2067896 C70.3778074,13.2067896 70.6515773,13.1812377 70.9509034,13.1301332 C71.2502296,13.0790288 71.4728958,13.0096737 71.6189086,12.9220661 L71.6189086,11.1699215 L70.0419785,11.3013324 C69.6331427,11.3305349 69.2973183,11.4181413 69.0344953,11.564154 C68.7716723,11.7101668 68.6402628,11.9291827 68.6402628,12.2212082 C68.6402628,12.5132338 68.753421,12.750501 68.9797408,12.933017 C69.2060606,13.1155329 69.5893384,13.2067896 70.1295857,13.2067896 Z M69.9543712,4.59937945 C70.7428402,4.59937945 71.4619424,4.67968527 72.1116992,4.84029932 C72.7614561,5.00091338 73.3162963,5.24548111 73.7762365,5.57400986 C74.2361768,5.9025386 74.5902525,6.31866877 74.8384742,6.82241285 C75.0866959,7.32615693 75.2108049,7.92115006 75.2108049,8.60741011 L75.2108049,13.5134149 C75.2108049,13.8930481 75.1049472,14.2033206 74.8932287,14.4442416 C74.6815102,14.6851627 74.4296419,14.8932278 74.1376164,15.0684431 C73.1885333,15.637893 71.8525364,15.9226136 70.1295857,15.9226136 C69.355718,15.9226136 68.6585174,15.8496083 68.0379631,15.7035955 C67.4174088,15.5575828 66.8844702,15.3385669 66.4391312,15.0465413 C65.9937923,14.7545158 65.6506674,14.3821888 65.4097463,13.9295492 C65.1688252,13.4769096 65.0483665,12.9512715 65.0483665,12.3526191 C65.0483665,11.3451309 65.3476882,10.5712748 65.9463406,10.0310276 C66.544993,9.49078029 67.4721602,9.15495594 68.72787,9.02354444 L71.5970068,8.71691915 L71.5970068,8.5636065 C71.5970068,8.14016945 71.4108433,7.83719748 71.0385107,7.65468151 C70.6661781,7.47216554 70.1295892,7.38090892 69.4287279,7.38090892 C68.8738793,7.38090892 68.3336402,7.43931316 67.8079942,7.55612338 C67.2823482,7.6729336 66.8078138,7.81894419 66.3843767,7.99415952 C66.1945601,7.86274802 66.0339485,7.66198346 65.902537,7.39185983 C65.7711255,7.12173619 65.7054207,6.84066581 65.7054207,6.54864026 C65.7054207,6.16900705 65.7966773,5.86603508 65.9791933,5.63971528 C66.1617093,5.41339547 66.4427796,5.21993145 66.8224128,5.05931739 C67.2458499,4.89870334 67.7459362,4.78189487 68.3226866,4.70888848 C68.8994371,4.6358821 69.4433265,4.59937945 69.9543712,4.59937945 Z M81.4309181,11.914583 C81.4309181,12.2942162 81.5513768,12.5643358 81.7922979,12.7249498 C82.0332189,12.8855639 82.3726936,12.9658697 82.8107319,12.9658697 C83.029751,12.9658697 83.2560675,12.9476184 83.4896879,12.9111152 C83.7233083,12.874612 83.9277232,12.8271585 84.1029385,12.7687534 C84.23435,12.9293675 84.3475082,13.1082304 84.4424165,13.3053477 C84.5373248,13.5024649 84.5847782,13.7397321 84.5847782,14.0171564 C84.5847782,14.572005 84.3767132,15.0246378 83.9605767,15.3750684 C83.5444403,15.7254991 82.8107371,15.9007118 81.7594452,15.9007118 C80.4745327,15.9007118 79.485311,15.6086906 78.7917503,15.0246395 C78.0981896,14.4405884 77.7514145,13.4915196 77.7514145,12.1774046 L77.7514145,2.80343128 C77.9120285,2.75962745 78.1419952,2.71217401 78.4413214,2.66106954 C78.7406476,2.60996507 79.0582206,2.58441321 79.39405,2.58441321 C80.0365062,2.58441321 80.5365925,2.69757142 80.8943238,2.92389122 C81.2520551,3.15021102 81.4309181,3.62839569 81.4309181,4.35845957 L81.4309181,5.76017521 L84.3000548,5.76017521 C84.3876624,5.92078927 84.4716185,6.12155382 84.5519255,6.3624749 C84.6322326,6.60339598 84.6723855,6.8698653 84.6723855,7.16189086 C84.6723855,7.67293557 84.5592273,8.0416123 84.3329075,8.2679321 C84.1065877,8.49425191 83.8036157,8.60741011 83.4239825,8.60741011 L81.4309181,8.60741011 L81.4309181,11.914583 Z M92.1847052,15.9226136 C91.3232299,15.9226136 90.5238219,15.8021549 89.7864574,15.5612338 C89.0490929,15.3203127 88.4066463,14.9589365 87.8590984,14.4770944 C87.3115505,13.9952522 86.8808192,13.3893083 86.5668918,12.6592444 C86.2529643,11.9291805 86.0960029,11.0750186 86.0960029,10.096733 C86.0960029,9.13304866 86.2529643,8.30443858 86.5668918,7.6108779 C86.8808192,6.91731721 87.2932991,6.34787593 87.8043439,5.90253696 C88.3153886,5.45719799 88.8994309,5.12867417 89.5564884,4.91695565 C90.2135459,4.70523712 90.8851946,4.59937945 91.5714546,4.59937945 C92.3453224,4.59937945 93.0498234,4.71618792 93.684979,4.94980836 C94.3201346,5.1834288 94.8676743,5.50465209 95.3276145,5.91348786 C95.7875548,6.32232364 96.1452807,6.8114591 96.4008031,7.38090892 C96.6563254,7.95035875 96.7840847,8.57090374 96.7840847,9.24256251 C96.7840847,9.73900595 96.6453746,10.1186335 96.3679504,10.3814565 C96.0905261,10.6442795 95.703598,10.8121916 95.2071546,10.885198 L89.7974083,11.6955649 C89.9580223,12.177407 90.2865462,12.5387832 90.7829896,12.7797043 C91.279433,13.0206254 91.8488743,13.1410841 92.4913305,13.1410841 C93.0899829,13.1410841 93.6557739,13.0644286 94.1887206,12.9111152 C94.7216672,12.7578018 95.1560487,12.5789388 95.4918781,12.3745209 C95.7254985,12.5205337 95.9226128,12.7249485 96.0832269,12.9877715 C96.2438409,13.2505945 96.3241467,13.5280146 96.3241467,13.8200402 C96.3241467,14.4770976 96.0175245,14.9662331 95.4042709,15.2874612 C94.93703,15.5356829 94.4113919,15.7035951 93.8273408,15.7912028 C93.2432897,15.8788104 92.69575,15.9226136 92.1847052,15.9226136 Z M91.5714546,7.3152035 C91.221024,7.3152035 90.918052,7.37360774 90.6625297,7.49041796 C90.4070073,7.60722818 90.1989422,7.75688903 90.0383282,7.939405 C89.8777141,8.12192097 89.7572554,8.32633579 89.6769483,8.55265559 C89.5966413,8.7789754 89.5491879,9.00894207 89.5345866,9.24256251 L93.2797956,8.62931192 C93.2359918,8.33728637 93.0753801,8.04526519 92.7979558,7.75323964 C92.5205316,7.46121409 92.1117019,7.3152035 91.5714546,7.3152035 Z" id="CaptivateIQ" fill="#FFFFFF"></path>
                    <path d="M102.916591,15.4845775 C102.755977,15.5283813 102.504108,15.5721845 102.160978,15.6159883 C101.817848,15.6597922 101.478374,15.6816937 101.142544,15.6816937 C100.806715,15.6816937 100.511043,15.6561419 100.255521,15.6050374 C99.9999987,15.5539329 99.7846331,15.4626763 99.6094178,15.3312648 C99.4342024,15.1998533 99.3027929,15.0173401 99.2151853,14.7837197 C99.1275776,14.5500992 99.0837744,14.243477 99.0837744,13.8638438 L99.0837744,2.29968972 C99.2443885,2.27048717 99.499907,2.23033426 99.8503377,2.17922979 C100.200768,2.12812531 100.536593,2.10257346 100.857821,2.10257346 C101.19365,2.10257346 101.489322,2.12812531 101.744844,2.17922979 C102.000366,2.23033426 102.215732,2.32159087 102.390947,2.45300237 C102.566163,2.58441387 102.697572,2.7669271 102.78518,3.00054755 C102.872787,3.23416799 102.916591,3.54079022 102.916591,3.92042343 L102.916591,15.4845775 Z M105.325789,8.91403541 C105.325789,7.77513575 105.504652,6.76766271 105.862384,5.89158606 C106.220115,5.0155094 106.70925,4.28180621 107.329805,3.69045446 C107.950359,3.09910272 108.680412,2.65012017 109.519985,2.34349334 C110.359559,2.03686651 111.268475,1.88355539 112.24676,1.88355539 C113.225046,1.88355539 114.133962,2.03686651 114.973535,2.34349334 C115.813109,2.65012017 116.546812,3.09910272 117.174667,3.69045446 C117.802522,4.28180621 118.295308,5.0155094 118.653039,5.89158606 C119.01077,6.76766271 119.189633,7.77513575 119.189633,8.91403541 C119.189633,10.3449606 118.926814,11.5604987 118.401168,12.5606863 C117.875522,13.5608738 117.16007,14.3456807 116.254791,14.9151305 C116.47381,15.0173394 116.732979,15.1268474 117.032305,15.2436576 C117.331631,15.3604678 117.645554,15.4772763 117.974083,15.5940865 C118.302612,15.7108967 118.642086,15.8240549 118.992517,15.9335645 C119.342948,16.0430741 119.671471,16.1416312 119.978098,16.2292389 C119.992699,16.3168466 120,16.3935021 120,16.4592079 L120,16.6453732 C120,17.4776461 119.784634,18.08359 119.353897,18.4632232 C118.923159,18.8428564 118.357368,19.0326702 117.656507,19.0326702 C116.984848,19.0326702 116.291298,18.8465067 115.575835,18.4741741 C114.860372,18.1018415 114.130319,17.5652526 113.385654,16.8643913 L112.421975,15.9664172 L112.24676,15.9664172 C111.253873,15.9664172 110.334007,15.8094558 109.487133,15.4955284 C108.640259,15.1816009 107.910206,14.7253178 107.296952,14.1266654 C106.683698,13.5280131 106.201863,12.7906596 105.851433,11.914583 C105.501002,11.0385063 105.325789,10.0383338 105.325789,8.91403541 Z M109.268115,9.22404305 C109.268115,10.6572439 109.559475,11.7281911 110.142205,12.4369168 C110.724935,13.1456425 111.504522,13.5 112.480988,13.5 C113.473204,13.5 114.260665,13.1456425 114.843396,12.4369168 C115.426126,11.7281911 115.717486,10.6572439 115.717486,9.22404305 C115.717486,7.80659167 115.430063,6.74351908 114.855208,6.03479339 C114.280352,5.3260677 113.496828,4.97171017 112.504612,4.97171017 C111.528146,4.97171017 110.744622,5.32213039 110.154017,6.02298135 C109.563413,6.72383231 109.268115,7.79084221 109.268115,9.22404305 Z" id="Combined-Shape" fill="#4BBFA9"></path>
                </g>
            </g>
        </g>
    </g>
</svg>