<?xml version="1.0" encoding="UTF-8"?>
<svg width="986px" height="427px" viewBox="0 0 986 427" version="1.1" xmlns="http://www.w3.org/2000/svg" xmlns:xlink="http://www.w3.org/1999/xlink">
    <!-- Generator: Sketch 51.2 (57519) - http://www.bohemiancoding.com/sketch -->
    <title>Texture</title>
    <desc>Created with Sketch.</desc>
    <defs></defs>
    <g id="Screens" stroke="none" stroke-width="1" fill="none" fill-rule="evenodd" opacity="0.0549665179">
        <g id="Landing-1600px-(Desktop)---Dark" transform="translate(-546.000000, -162.000000)" fill="#FFFFFF" fill-rule="nonzero">
            <g id="Hero" transform="translate(0.000000, -293.000000)">
                <g id="Background">
                    <g id="Texture" transform="translate(546.000000, 455.000000)">
                        <path d="M897.789286,211.524211 C897.789286,211.613684 898.082143,211.712105 897.60381,211.738947 C896.110238,211.738947 894.919286,211.434737 893.415952,211.479474 L893.308571,211.622632 L889.71619,211.300526 L888.78881,211.300526 L888.613095,211.300526 C888.613095,211.300526 888.525238,211.300526 888.515476,211.300526 L888.515476,211.246842 L888.515476,210.289474 C888.456905,210.343158 888.398333,210.37 888.388571,210.164211 C888.388571,209.269474 888.476429,208.115263 888.535,206.889474 L888.535,206.352632 C888.526154,206.272814 888.484224,206.199153 888.417857,206.146842 L888.505714,204.679474 L888.505714,204.563158 C888.495506,204.48889 888.495506,204.413742 888.505714,204.339474 C888.513647,204.261977 888.577989,204.199318 888.661905,204.187368 L888.905952,204.187368 L888.984048,204.187368 L889.833333,204.187368 L894.714286,204.106842 L904.866667,203.936842 C906.399286,203.847368 907.941667,203.766842 909.415714,203.748947 C911.602381,203.748947 914.394286,203.936842 916.522381,204.017368 C916.346667,203.704211 918.142857,203.543158 919.450952,203.346316 C919.9,203.283684 920.319762,203.212105 920.573571,203.194211 C920.827381,203.176316 920.944524,203.140526 920.798095,202.970526 C921.227657,203.12359 921.550868,203.456445 921.666905,203.865263 C921.743635,204.284883 921.766569,204.711287 921.735238,205.135789 L921.735238,206.102105 C921.723746,206.234422 921.750692,206.367167 921.813333,206.486842 C922.272143,206.808947 922.789524,207.828947 922.945714,211.291579 C922.945714,211.971579 922.896905,212.830526 922.838333,213.573158 L922.838333,213.957895 C922.808773,214.222728 922.736394,214.482058 922.623571,214.727368 C922.407178,215.170164 922.071203,215.55509 921.647381,215.845789 C921.086696,216.237786 920.400172,216.448582 919.695,216.445263 C919.49,216.445263 919.499762,216.507895 919.626667,216.552632 L919.685238,216.552632 L919.860952,216.552632 C920.020072,216.565822 920.180166,216.565822 920.339286,216.552632 C920.717602,216.512235 921.084758,216.409157 921.422857,216.248421 C922.030173,215.954959 922.529391,215.503622 922.857857,214.951053 C923.053095,214.584211 923.140952,214.539474 922.857857,215.165789 C923.084646,214.765982 923.217655,214.327105 923.248333,213.877368 L923.248333,213.438947 L923.248333,212.687368 L923.316667,211.193158 L923.453333,208.204737 C923.453333,207.014737 923.54119,205.824737 923.59,204.625789 C923.630039,204.160383 923.570347,203.692293 923.414286,203.247895 C922.951726,201.955066 921.656953,201.065013 920.173333,201.02 L899.800238,200.483158 C898.950952,200.483158 896.979048,200.483158 894.372619,200.483158 L890.048095,200.402632 L888.74,200.402632 C887.994675,200.335524 887.242922,200.359595 886.504524,200.474211 C885.833604,200.633299 885.237392,200.988187 884.805952,201.485263 C884.378994,202.001913 884.136893,202.626985 884.112857,203.274737 L883.917619,209.412632 L883.86881,210.781579 L883.86881,211.676316 C883.844471,212.087592 883.844471,212.499776 883.86881,212.911053 C883.907869,213.269726 884.010066,213.620231 884.171429,213.948947 C884.343585,214.286636 884.585597,214.590498 884.884048,214.843684 C885.476889,215.312776 886.229162,215.578456 887.012143,215.595263 L893.064524,215.792105 L896.852143,215.935263 L897.447619,215.935263 C901.000952,216.069474 905.315714,216.158947 908.332143,216.060526 L912.529762,215.774211 C911.885476,215.675789 911.280238,215.568421 910.762857,215.47 C911.894284,215.530249 913.028573,215.530249 914.16,215.47 C917.195952,215.335789 915.487619,215.031579 914.335714,214.637895 C913.505952,214.458947 914.648095,214.262105 913.359524,214.065263 L915.731667,214.154737 C915.839048,214.011579 912.803095,214.154737 913.476667,213.922105 C914.384524,214.002632 915.429048,213.922105 916.356429,213.984737 C916.034286,213.778947 913.076429,213.805789 913.232619,213.617895 C913.740238,213.617895 915.878095,213.966842 916.073333,213.725263 C915.614915,213.658299 915.151344,213.625384 914.687143,213.626842 C917.615714,213.626842 919.226429,213.456842 916.57119,213.107895 C917.498571,213.107895 918.796905,213.286842 919.773095,213.286842 L917.996429,213.170526 L919.655952,213.233158 L919.372857,213.116842 C918.953095,213.116842 918.543095,213.045263 918.10381,213.027368 L919.216667,213.027368 C918.943333,212.946842 918.62119,212.857368 918.240476,212.776842 C916.932381,212.58 915.682857,212.311579 914.970238,212.284737 C909.279048,211.971579 903.5,211.712105 897.789286,211.524211 Z" id="Shape"></path>
                        <path d="M916.789286,191.524211 C916.789286,191.613684 917.082143,191.712105 916.60381,191.738947 C915.110238,191.738947 913.919286,191.434737 912.415952,191.479474 L912.308571,191.622632 L908.71619,191.300526 L907.78881,191.300526 L907.613095,191.300526 C907.613095,191.300526 907.525238,191.300526 907.515476,191.300526 L907.515476,191.246842 L907.515476,190.289474 C907.456905,190.343158 907.398333,190.37 907.388571,190.164211 C907.388571,189.269474 907.476429,188.115263 907.535,186.889474 L907.535,186.352632 C907.526154,186.272814 907.484224,186.199153 907.417857,186.146842 L907.505714,184.679474 L907.505714,184.563158 C907.495506,184.48889 907.495506,184.413742 907.505714,184.339474 C907.513647,184.261977 907.577989,184.199318 907.661905,184.187368 L907.905952,184.187368 L907.984048,184.187368 L908.833333,184.187368 L913.714286,184.106842 L923.866667,183.936842 C925.399286,183.847368 926.941667,183.766842 928.415714,183.748947 C930.602381,183.748947 933.394286,183.936842 935.522381,184.017368 C935.346667,183.704211 937.142857,183.543158 938.450952,183.346316 C938.9,183.283684 939.319762,183.212105 939.573571,183.194211 C939.827381,183.176316 939.944524,183.140526 939.798095,182.970526 C940.227657,183.12359 940.550868,183.456445 940.666905,183.865263 C940.743635,184.284883 940.766569,184.711287 940.735238,185.135789 L940.735238,186.102105 C940.723746,186.234422 940.750692,186.367167 940.813333,186.486842 C941.272143,186.808947 941.789524,187.828947 941.945714,191.291579 C941.945714,191.971579 941.896905,192.830526 941.838333,193.573158 L941.838333,193.957895 C941.808773,194.222728 941.736394,194.482058 941.623571,194.727368 C941.407178,195.170164 941.071203,195.55509 940.647381,195.845789 C940.086696,196.237786 939.400172,196.448582 938.695,196.445263 C938.49,196.445263 938.499762,196.507895 938.626667,196.552632 L938.685238,196.552632 L938.860952,196.552632 C939.020072,196.565822 939.180166,196.565822 939.339286,196.552632 C939.717602,196.512235 940.084758,196.409157 940.422857,196.248421 C941.030173,195.954959 941.529391,195.503622 941.857857,194.951053 C942.053095,194.584211 942.140952,194.539474 941.857857,195.165789 C942.084646,194.765982 942.217655,194.327105 942.248333,193.877368 L942.248333,193.438947 L942.248333,192.687368 L942.316667,191.193158 L942.453333,188.204737 C942.453333,187.014737 942.54119,185.824737 942.59,184.625789 C942.630039,184.160383 942.570347,183.692293 942.414286,183.247895 C941.951726,181.955066 940.656953,181.065013 939.173333,181.02 L918.800238,180.483158 C917.950952,180.483158 915.979048,180.483158 913.372619,180.483158 L909.048095,180.402632 L907.74,180.402632 C906.994675,180.335524 906.242922,180.359595 905.504524,180.474211 C904.833604,180.633299 904.237392,180.988187 903.805952,181.485263 C903.378994,182.001913 903.136893,182.626985 903.112857,183.274737 L902.917619,189.412632 L902.86881,190.781579 L902.86881,191.676316 C902.844471,192.087592 902.844471,192.499776 902.86881,192.911053 C902.907869,193.269726 903.010066,193.620231 903.171429,193.948947 C903.343585,194.286636 903.585597,194.590498 903.884048,194.843684 C904.476889,195.312776 905.229162,195.578456 906.012143,195.595263 L912.064524,195.792105 L915.852143,195.935263 L916.447619,195.935263 C920.000952,196.069474 924.315714,196.158947 927.332143,196.060526 L931.529762,195.774211 C930.885476,195.675789 930.280238,195.568421 929.762857,195.47 C930.894284,195.530249 932.028573,195.530249 933.16,195.47 C936.195952,195.335789 934.487619,195.031579 933.335714,194.637895 C932.505952,194.458947 933.648095,194.262105 932.359524,194.065263 L934.731667,194.154737 C934.839048,194.011579 931.803095,194.154737 932.476667,193.922105 C933.384524,194.002632 934.429048,193.922105 935.356429,193.984737 C935.034286,193.778947 932.076429,193.805789 932.232619,193.617895 C932.740238,193.617895 934.878095,193.966842 935.073333,193.725263 C934.614915,193.658299 934.151344,193.625384 933.687143,193.626842 C936.615714,193.626842 938.226429,193.456842 935.57119,193.107895 C936.498571,193.107895 937.796905,193.286842 938.773095,193.286842 L936.996429,193.170526 L938.655952,193.233158 L938.372857,193.116842 C937.953095,193.116842 937.543095,193.045263 937.10381,193.027368 L938.216667,193.027368 C937.943333,192.946842 937.62119,192.857368 937.240476,192.776842 C935.932381,192.58 934.682857,192.311579 933.970238,192.284737 C928.279048,191.971579 922.5,191.712105 916.789286,191.524211 Z" id="Shape"></path>
                        <path d="M916.789286,231.524211 C916.789286,231.613684 917.082143,231.712105 916.60381,231.738947 C915.110238,231.738947 913.919286,231.434737 912.415952,231.479474 L912.308571,231.622632 L908.71619,231.300526 L907.78881,231.300526 L907.613095,231.300526 C907.613095,231.300526 907.525238,231.300526 907.515476,231.300526 L907.515476,231.246842 L907.515476,230.289474 C907.456905,230.343158 907.398333,230.37 907.388571,230.164211 C907.388571,229.269474 907.476429,228.115263 907.535,226.889474 L907.535,226.352632 C907.526154,226.272814 907.484224,226.199153 907.417857,226.146842 L907.505714,224.679474 L907.505714,224.563158 C907.495506,224.48889 907.495506,224.413742 907.505714,224.339474 C907.513647,224.261977 907.577989,224.199318 907.661905,224.187368 L907.905952,224.187368 L907.984048,224.187368 L908.833333,224.187368 L913.714286,224.106842 L923.866667,223.936842 C925.399286,223.847368 926.941667,223.766842 928.415714,223.748947 C930.602381,223.748947 933.394286,223.936842 935.522381,224.017368 C935.346667,223.704211 937.142857,223.543158 938.450952,223.346316 C938.9,223.283684 939.319762,223.212105 939.573571,223.194211 C939.827381,223.176316 939.944524,223.140526 939.798095,222.970526 C940.227657,223.12359 940.550868,223.456445 940.666905,223.865263 C940.743635,224.284883 940.766569,224.711287 940.735238,225.135789 L940.735238,226.102105 C940.723746,226.234422 940.750692,226.367167 940.813333,226.486842 C941.272143,226.808947 941.789524,227.828947 941.945714,231.291579 C941.945714,231.971579 941.896905,232.830526 941.838333,233.573158 L941.838333,233.957895 C941.808773,234.222728 941.736394,234.482058 941.623571,234.727368 C941.407178,235.170164 941.071203,235.55509 940.647381,235.845789 C940.086696,236.237786 939.400172,236.448582 938.695,236.445263 C938.49,236.445263 938.499762,236.507895 938.626667,236.552632 L938.685238,236.552632 L938.860952,236.552632 C939.020072,236.565822 939.180166,236.565822 939.339286,236.552632 C939.717602,236.512235 940.084758,236.409157 940.422857,236.248421 C941.030173,235.954959 941.529391,235.503622 941.857857,234.951053 C942.053095,234.584211 942.140952,234.539474 941.857857,235.165789 C942.084646,234.765982 942.217655,234.327105 942.248333,233.877368 L942.248333,233.438947 L942.248333,232.687368 L942.316667,231.193158 L942.453333,228.204737 C942.453333,227.014737 942.54119,225.824737 942.59,224.625789 C942.630039,224.160383 942.570347,223.692293 942.414286,223.247895 C941.951726,221.955066 940.656953,221.065013 939.173333,221.02 L918.800238,220.483158 C917.950952,220.483158 915.979048,220.483158 913.372619,220.483158 L909.048095,220.402632 L907.74,220.402632 C906.994675,220.335524 906.242922,220.359595 905.504524,220.474211 C904.833604,220.633299 904.237392,220.988187 903.805952,221.485263 C903.378994,222.001913 903.136893,222.626985 903.112857,223.274737 L902.917619,229.412632 L902.86881,230.781579 L902.86881,231.676316 C902.844471,232.087592 902.844471,232.499776 902.86881,232.911053 C902.907869,233.269726 903.010066,233.620231 903.171429,233.948947 C903.343585,234.286636 903.585597,234.590498 903.884048,234.843684 C904.476889,235.312776 905.229162,235.578456 906.012143,235.595263 L912.064524,235.792105 L915.852143,235.935263 L916.447619,235.935263 C920.000952,236.069474 924.315714,236.158947 927.332143,236.060526 L931.529762,235.774211 C930.885476,235.675789 930.280238,235.568421 929.762857,235.47 C930.894284,235.530249 932.028573,235.530249 933.16,235.47 C936.195952,235.335789 934.487619,235.031579 933.335714,234.637895 C932.505952,234.458947 933.648095,234.262105 932.359524,234.065263 L934.731667,234.154737 C934.839048,234.011579 931.803095,234.154737 932.476667,233.922105 C933.384524,234.002632 934.429048,233.922105 935.356429,233.984737 C935.034286,233.778947 932.076429,233.805789 932.232619,233.617895 C932.740238,233.617895 934.878095,233.966842 935.073333,233.725263 C934.614915,233.658299 934.151344,233.625384 933.687143,233.626842 C936.615714,233.626842 938.226429,233.456842 935.57119,233.107895 C936.498571,233.107895 937.796905,233.286842 938.773095,233.286842 L936.996429,233.170526 L938.655952,233.233158 L938.372857,233.116842 C937.953095,233.116842 937.543095,233.045263 937.10381,233.027368 L938.216667,233.027368 C937.943333,232.946842 937.62119,232.857368 937.240476,232.776842 C935.932381,232.58 934.682857,232.311579 933.970238,232.284737 C928.279048,231.971579 922.5,231.712105 916.789286,231.524211 Z" id="Shape"></path>
                        <path d="M959.789286,191.524211 C959.789286,191.613684 960.082143,191.712105 959.60381,191.738947 C958.110238,191.738947 956.919286,191.434737 955.415952,191.479474 L955.308571,191.622632 L951.71619,191.300526 L950.78881,191.300526 L950.613095,191.300526 C950.613095,191.300526 950.525238,191.300526 950.515476,191.300526 L950.515476,191.246842 L950.515476,190.289474 C950.456905,190.343158 950.398333,190.37 950.388571,190.164211 C950.388571,189.269474 950.476429,188.115263 950.535,186.889474 L950.535,186.352632 C950.526154,186.272814 950.484224,186.199153 950.417857,186.146842 L950.505714,184.679474 L950.505714,184.563158 C950.495506,184.48889 950.495506,184.413742 950.505714,184.339474 C950.513647,184.261977 950.577989,184.199318 950.661905,184.187368 L950.905952,184.187368 L950.984048,184.187368 L951.833333,184.187368 L956.714286,184.106842 L966.866667,183.936842 C968.399286,183.847368 969.941667,183.766842 971.415714,183.748947 C973.602381,183.748947 976.394286,183.936842 978.522381,184.017368 C978.346667,183.704211 980.142857,183.543158 981.450952,183.346316 C981.9,183.283684 982.319762,183.212105 982.573571,183.194211 C982.827381,183.176316 982.944524,183.140526 982.798095,182.970526 C983.227657,183.12359 983.550868,183.456445 983.666905,183.865263 C983.743635,184.284883 983.766569,184.711287 983.735238,185.135789 L983.735238,186.102105 C983.723746,186.234422 983.750692,186.367167 983.813333,186.486842 C984.272143,186.808947 984.789524,187.828947 984.945714,191.291579 C984.945714,191.971579 984.896905,192.830526 984.838333,193.573158 L984.838333,193.957895 C984.808773,194.222728 984.736394,194.482058 984.623571,194.727368 C984.407178,195.170164 984.071203,195.55509 983.647381,195.845789 C983.086696,196.237786 982.400172,196.448582 981.695,196.445263 C981.49,196.445263 981.499762,196.507895 981.626667,196.552632 L981.685238,196.552632 L981.860952,196.552632 C982.020072,196.565822 982.180166,196.565822 982.339286,196.552632 C982.717602,196.512235 983.084758,196.409157 983.422857,196.248421 C984.030173,195.954959 984.529391,195.503622 984.857857,194.951053 C985.053095,194.584211 985.140952,194.539474 984.857857,195.165789 C985.084646,194.765982 985.217655,194.327105 985.248333,193.877368 L985.248333,193.438947 L985.248333,192.687368 L985.316667,191.193158 L985.453333,188.204737 C985.453333,187.014737 985.54119,185.824737 985.59,184.625789 C985.630039,184.160383 985.570347,183.692293 985.414286,183.247895 C984.951726,181.955066 983.656953,181.065013 982.173333,181.02 L961.800238,180.483158 C960.950952,180.483158 958.979048,180.483158 956.372619,180.483158 L952.048095,180.402632 L950.74,180.402632 C949.994675,180.335524 949.242922,180.359595 948.504524,180.474211 C947.833604,180.633299 947.237392,180.988187 946.805952,181.485263 C946.378994,182.001913 946.136893,182.626985 946.112857,183.274737 L945.917619,189.412632 L945.86881,190.781579 L945.86881,191.676316 C945.844471,192.087592 945.844471,192.499776 945.86881,192.911053 C945.907869,193.269726 946.010066,193.620231 946.171429,193.948947 C946.343585,194.286636 946.585597,194.590498 946.884048,194.843684 C947.476889,195.312776 948.229162,195.578456 949.012143,195.595263 L955.064524,195.792105 L958.852143,195.935263 L959.447619,195.935263 C963.000952,196.069474 967.315714,196.158947 970.332143,196.060526 L974.529762,195.774211 C973.885476,195.675789 973.280238,195.568421 972.762857,195.47 C973.894284,195.530249 975.028573,195.530249 976.16,195.47 C979.195952,195.335789 977.487619,195.031579 976.335714,194.637895 C975.505952,194.458947 976.648095,194.262105 975.359524,194.065263 L977.731667,194.154737 C977.839048,194.011579 974.803095,194.154737 975.476667,193.922105 C976.384524,194.002632 977.429048,193.922105 978.356429,193.984737 C978.034286,193.778947 975.076429,193.805789 975.232619,193.617895 C975.740238,193.617895 977.878095,193.966842 978.073333,193.725263 C977.614915,193.658299 977.151344,193.625384 976.687143,193.626842 C979.615714,193.626842 981.226429,193.456842 978.57119,193.107895 C979.498571,193.107895 980.796905,193.286842 981.773095,193.286842 L979.996429,193.170526 L981.655952,193.233158 L981.372857,193.116842 C980.953095,193.116842 980.543095,193.045263 980.10381,193.027368 L981.216667,193.027368 C980.943333,192.946842 980.62119,192.857368 980.240476,192.776842 C978.932381,192.58 977.682857,192.311579 976.970238,192.284737 C971.279048,191.971579 965.5,191.712105 959.789286,191.524211 Z" id="Shape"></path>
                        <path d="M938.789286,173.524211 C938.789286,173.613684 939.082143,173.712105 938.60381,173.738947 C937.110238,173.738947 935.919286,173.434737 934.415952,173.479474 L934.308571,173.622632 L930.71619,173.300526 L929.78881,173.300526 L929.613095,173.300526 C929.613095,173.300526 929.525238,173.300526 929.515476,173.300526 L929.515476,173.246842 L929.515476,172.289474 C929.456905,172.343158 929.398333,172.37 929.388571,172.164211 C929.388571,171.269474 929.476429,170.115263 929.535,168.889474 L929.535,168.352632 C929.526154,168.272814 929.484224,168.199153 929.417857,168.146842 L929.505714,166.679474 L929.505714,166.563158 C929.495506,166.48889 929.495506,166.413742 929.505714,166.339474 C929.513647,166.261977 929.577989,166.199318 929.661905,166.187368 L929.905952,166.187368 L929.984048,166.187368 L930.833333,166.187368 L935.714286,166.106842 L945.866667,165.936842 C947.399286,165.847368 948.941667,165.766842 950.415714,165.748947 C952.602381,165.748947 955.394286,165.936842 957.522381,166.017368 C957.346667,165.704211 959.142857,165.543158 960.450952,165.346316 C960.9,165.283684 961.319762,165.212105 961.573571,165.194211 C961.827381,165.176316 961.944524,165.140526 961.798095,164.970526 C962.227657,165.12359 962.550868,165.456445 962.666905,165.865263 C962.743635,166.284883 962.766569,166.711287 962.735238,167.135789 L962.735238,168.102105 C962.723746,168.234422 962.750692,168.367167 962.813333,168.486842 C963.272143,168.808947 963.789524,169.828947 963.945714,173.291579 C963.945714,173.971579 963.896905,174.830526 963.838333,175.573158 L963.838333,175.957895 C963.808773,176.222728 963.736394,176.482058 963.623571,176.727368 C963.407178,177.170164 963.071203,177.55509 962.647381,177.845789 C962.086696,178.237786 961.400172,178.448582 960.695,178.445263 C960.49,178.445263 960.499762,178.507895 960.626667,178.552632 L960.685238,178.552632 L960.860952,178.552632 C961.020072,178.565822 961.180166,178.565822 961.339286,178.552632 C961.717602,178.512235 962.084758,178.409157 962.422857,178.248421 C963.030173,177.954959 963.529391,177.503622 963.857857,176.951053 C964.053095,176.584211 964.140952,176.539474 963.857857,177.165789 C964.084646,176.765982 964.217655,176.327105 964.248333,175.877368 L964.248333,175.438947 L964.248333,174.687368 L964.316667,173.193158 L964.453333,170.204737 C964.453333,169.014737 964.54119,167.824737 964.59,166.625789 C964.630039,166.160383 964.570347,165.692293 964.414286,165.247895 C963.951726,163.955066 962.656953,163.065013 961.173333,163.02 L940.800238,162.483158 C939.950952,162.483158 937.979048,162.483158 935.372619,162.483158 L931.048095,162.402632 L929.74,162.402632 C928.994675,162.335524 928.242922,162.359595 927.504524,162.474211 C926.833604,162.633299 926.237392,162.988187 925.805952,163.485263 C925.378994,164.001913 925.136893,164.626985 925.112857,165.274737 L924.917619,171.412632 L924.86881,172.781579 L924.86881,173.676316 C924.844471,174.087592 924.844471,174.499776 924.86881,174.911053 C924.907869,175.269726 925.010066,175.620231 925.171429,175.948947 C925.343585,176.286636 925.585597,176.590498 925.884048,176.843684 C926.476889,177.312776 927.229162,177.578456 928.012143,177.595263 L934.064524,177.792105 L937.852143,177.935263 L938.447619,177.935263 C942.000952,178.069474 946.315714,178.158947 949.332143,178.060526 L953.529762,177.774211 C952.885476,177.675789 952.280238,177.568421 951.762857,177.47 C952.894284,177.530249 954.028573,177.530249 955.16,177.47 C958.195952,177.335789 956.487619,177.031579 955.335714,176.637895 C954.505952,176.458947 955.648095,176.262105 954.359524,176.065263 L956.731667,176.154737 C956.839048,176.011579 953.803095,176.154737 954.476667,175.922105 C955.384524,176.002632 956.429048,175.922105 957.356429,175.984737 C957.034286,175.778947 954.076429,175.805789 954.232619,175.617895 C954.740238,175.617895 956.878095,175.966842 957.073333,175.725263 C956.614915,175.658299 956.151344,175.625384 955.687143,175.626842 C958.615714,175.626842 960.226429,175.456842 957.57119,175.107895 C958.498571,175.107895 959.796905,175.286842 960.773095,175.286842 L958.996429,175.170526 L960.655952,175.233158 L960.372857,175.116842 C959.953095,175.116842 959.543095,175.045263 959.10381,175.027368 L960.216667,175.027368 C959.943333,174.946842 959.62119,174.857368 959.240476,174.776842 C957.932381,174.58 956.682857,174.311579 955.970238,174.284737 C950.279048,173.971579 944.5,173.712105 938.789286,173.524211 Z" id="Shape"></path>
                        <path d="M57.7892857,401.524211 C57.7892857,401.613684 58.0821429,401.712105 57.6038095,401.738947 C56.1102381,401.738947 54.9192857,401.434737 53.4159524,401.479474 L53.3085714,401.622632 L49.7161905,401.300526 L48.7888095,401.300526 L48.6130952,401.300526 C48.6130952,401.300526 48.5252381,401.300526 48.5154762,401.300526 L48.5154762,401.246842 L48.5154762,400.289474 C48.4569048,400.343158 48.3983333,400.37 48.3885714,400.164211 C48.3885714,399.269474 48.4764286,398.115263 48.535,396.889474 L48.535,396.352632 C48.5261544,396.272814 48.4842236,396.199153 48.4178571,396.146842 L48.5057143,394.679474 L48.5057143,394.563158 C48.4955056,394.48889 48.4955056,394.413742 48.5057143,394.339474 C48.5136468,394.261977 48.577989,394.199318 48.6619048,394.187368 L48.9059524,394.187368 L48.9840476,394.187368 L49.8333333,394.187368 L54.7142857,394.106842 L64.8666667,393.936842 C66.3992857,393.847368 67.9416667,393.766842 69.4157143,393.748947 C71.602381,393.748947 74.3942857,393.936842 76.522381,394.017368 C76.3466667,393.704211 78.1428571,393.543158 79.4509524,393.346316 C79.9,393.283684 80.3197619,393.212105 80.5735714,393.194211 C80.827381,393.176316 80.9445238,393.140526 80.7980952,392.970526 C81.2276573,393.12359 81.5508676,393.456445 81.6669048,393.865263 C81.7436352,394.284883 81.7665687,394.711287 81.7352381,395.135789 L81.7352381,396.102105 C81.7237465,396.234422 81.7506916,396.367167 81.8133333,396.486842 C82.2721429,396.808947 82.7895238,397.828947 82.9457143,401.291579 C82.9457143,401.971579 82.8969048,402.830526 82.8383333,403.573158 L82.8383333,403.957895 C82.8087734,404.222728 82.7363939,404.482058 82.6235714,404.727368 C82.4071776,405.170164 82.0712026,405.55509 81.647381,405.845789 C81.0866956,406.237786 80.400172,406.448582 79.695,406.445263 C79.49,406.445263 79.4997619,406.507895 79.6266667,406.552632 L79.6852381,406.552632 L79.8609524,406.552632 C80.0200721,406.565822 80.180166,406.565822 80.3392857,406.552632 C80.7176015,406.512235 81.0847579,406.409157 81.4228571,406.248421 C82.0301731,405.954959 82.5293907,405.503622 82.8578571,404.951053 C83.0530952,404.584211 83.1409524,404.539474 82.8578571,405.165789 C83.084646,404.765982 83.2176546,404.327105 83.2483333,403.877368 L83.2483333,403.438947 L83.2483333,402.687368 L83.3166667,401.193158 L83.4533333,398.204737 C83.4533333,397.014737 83.5411905,395.824737 83.59,394.625789 C83.6300393,394.160383 83.5703467,393.692293 83.4142857,393.247895 C82.951726,391.955066 81.6569525,391.065013 80.1733333,391.02 L59.8002381,390.483158 C58.9509524,390.483158 56.9790476,390.483158 54.372619,390.483158 L50.0480952,390.402632 L48.74,390.402632 C47.9946752,390.335524 47.2429223,390.359595 46.5045238,390.474211 C45.8336039,390.633299 45.2373923,390.988187 44.8059524,391.485263 C44.378994,392.001913 44.1368925,392.626985 44.1128571,393.274737 L43.917619,399.412632 L43.8688095,400.781579 L43.8688095,401.676316 C43.8444712,402.087592 43.8444712,402.499776 43.8688095,402.911053 C43.9078687,403.269726 44.0100655,403.620231 44.1714286,403.948947 C44.3435846,404.286636 44.5855972,404.590498 44.8840476,404.843684 C45.4768886,405.312776 46.2291619,405.578456 47.0121429,405.595263 L53.0645238,405.792105 L56.8521429,405.935263 L57.447619,405.935263 C61.0009524,406.069474 65.3157143,406.158947 68.3321429,406.060526 L72.5297619,405.774211 C71.8854762,405.675789 71.2802381,405.568421 70.7628571,405.47 C71.8942842,405.530249 73.028573,405.530249 74.16,405.47 C77.1959524,405.335789 75.487619,405.031579 74.3357143,404.637895 C73.5059524,404.458947 74.6480952,404.262105 73.3595238,404.065263 L75.7316667,404.154737 C75.8390476,404.011579 72.8030952,404.154737 73.4766667,403.922105 C74.3845238,404.002632 75.4290476,403.922105 76.3564286,403.984737 C76.0342857,403.778947 73.0764286,403.805789 73.232619,403.617895 C73.7402381,403.617895 75.8780952,403.966842 76.0733333,403.725263 C75.614915,403.658299 75.151344,403.625384 74.6871429,403.626842 C77.6157143,403.626842 79.2264286,403.456842 76.5711905,403.107895 C77.4985714,403.107895 78.7969048,403.286842 79.7730952,403.286842 L77.9964286,403.170526 L79.6559524,403.233158 L79.3728571,403.116842 C78.9530952,403.116842 78.5430952,403.045263 78.1038095,403.027368 L79.2166667,403.027368 C78.9433333,402.946842 78.6211905,402.857368 78.2404762,402.776842 C76.932381,402.58 75.6828571,402.311579 74.9702381,402.284737 C69.2790476,401.971579 63.5,401.712105 57.7892857,401.524211 Z" id="Shape"></path>
                        <path d="M76.7892857,381.524211 C76.7892857,381.613684 77.0821429,381.712105 76.6038095,381.738947 C75.1102381,381.738947 73.9192857,381.434737 72.4159524,381.479474 L72.3085714,381.622632 L68.7161905,381.300526 L67.7888095,381.300526 L67.6130952,381.300526 C67.6130952,381.300526 67.5252381,381.300526 67.5154762,381.300526 L67.5154762,381.246842 L67.5154762,380.289474 C67.4569048,380.343158 67.3983333,380.37 67.3885714,380.164211 C67.3885714,379.269474 67.4764286,378.115263 67.535,376.889474 L67.535,376.352632 C67.5261544,376.272814 67.4842236,376.199153 67.4178571,376.146842 L67.5057143,374.679474 L67.5057143,374.563158 C67.4955056,374.48889 67.4955056,374.413742 67.5057143,374.339474 C67.5136468,374.261977 67.577989,374.199318 67.6619048,374.187368 L67.9059524,374.187368 L67.9840476,374.187368 L68.8333333,374.187368 L73.7142857,374.106842 L83.8666667,373.936842 C85.3992857,373.847368 86.9416667,373.766842 88.4157143,373.748947 C90.602381,373.748947 93.3942857,373.936842 95.522381,374.017368 C95.3466667,373.704211 97.1428571,373.543158 98.4509524,373.346316 C98.9,373.283684 99.3197619,373.212105 99.5735714,373.194211 C99.827381,373.176316 99.9445238,373.140526 99.7980952,372.970526 C100.227657,373.12359 100.550868,373.456445 100.666905,373.865263 C100.743635,374.284883 100.766569,374.711287 100.735238,375.135789 L100.735238,376.102105 C100.723746,376.234422 100.750692,376.367167 100.813333,376.486842 C101.272143,376.808947 101.789524,377.828947 101.945714,381.291579 C101.945714,381.971579 101.896905,382.830526 101.838333,383.573158 L101.838333,383.957895 C101.808773,384.222728 101.736394,384.482058 101.623571,384.727368 C101.407178,385.170164 101.071203,385.55509 100.647381,385.845789 C100.086696,386.237786 99.400172,386.448582 98.695,386.445263 C98.49,386.445263 98.4997619,386.507895 98.6266667,386.552632 L98.6852381,386.552632 L98.8609524,386.552632 C99.0200721,386.565822 99.180166,386.565822 99.3392857,386.552632 C99.7176015,386.512235 100.084758,386.409157 100.422857,386.248421 C101.030173,385.954959 101.529391,385.503622 101.857857,384.951053 C102.053095,384.584211 102.140952,384.539474 101.857857,385.165789 C102.084646,384.765982 102.217655,384.327105 102.248333,383.877368 L102.248333,383.438947 L102.248333,382.687368 L102.316667,381.193158 L102.453333,378.204737 C102.453333,377.014737 102.54119,375.824737 102.59,374.625789 C102.630039,374.160383 102.570347,373.692293 102.414286,373.247895 C101.951726,371.955066 100.656953,371.065013 99.1733333,371.02 L78.8002381,370.483158 C77.9509524,370.483158 75.9790476,370.483158 73.372619,370.483158 L69.0480952,370.402632 L67.74,370.402632 C66.9946752,370.335524 66.2429223,370.359595 65.5045238,370.474211 C64.8336039,370.633299 64.2373923,370.988187 63.8059524,371.485263 C63.378994,372.001913 63.1368925,372.626985 63.1128571,373.274737 L62.917619,379.412632 L62.8688095,380.781579 L62.8688095,381.676316 C62.8444712,382.087592 62.8444712,382.499776 62.8688095,382.911053 C62.9078687,383.269726 63.0100655,383.620231 63.1714286,383.948947 C63.3435846,384.286636 63.5855972,384.590498 63.8840476,384.843684 C64.4768886,385.312776 65.2291619,385.578456 66.0121429,385.595263 L72.0645238,385.792105 L75.8521429,385.935263 L76.447619,385.935263 C80.0009524,386.069474 84.3157143,386.158947 87.3321429,386.060526 L91.5297619,385.774211 C90.8854762,385.675789 90.2802381,385.568421 89.7628571,385.47 C90.8942842,385.530249 92.028573,385.530249 93.16,385.47 C96.1959524,385.335789 94.487619,385.031579 93.3357143,384.637895 C92.5059524,384.458947 93.6480952,384.262105 92.3595238,384.065263 L94.7316667,384.154737 C94.8390476,384.011579 91.8030952,384.154737 92.4766667,383.922105 C93.3845238,384.002632 94.4290476,383.922105 95.3564286,383.984737 C95.0342857,383.778947 92.0764286,383.805789 92.232619,383.617895 C92.7402381,383.617895 94.8780952,383.966842 95.0733333,383.725263 C94.614915,383.658299 94.151344,383.625384 93.6871429,383.626842 C96.6157143,383.626842 98.2264286,383.456842 95.5711905,383.107895 C96.4985714,383.107895 97.7969048,383.286842 98.7730952,383.286842 L96.9964286,383.170526 L98.6559524,383.233158 L98.3728571,383.116842 C97.9530952,383.116842 97.5430952,383.045263 97.1038095,383.027368 L98.2166667,383.027368 C97.9433333,382.946842 97.6211905,382.857368 97.2404762,382.776842 C95.932381,382.58 94.6828571,382.311579 93.9702381,382.284737 C88.2790476,381.971579 82.5,381.712105 76.7892857,381.524211 Z" id="Shape"></path>
                        <path d="M76.7892857,421.524211 C76.7892857,421.613684 77.0821429,421.712105 76.6038095,421.738947 C75.1102381,421.738947 73.9192857,421.434737 72.4159524,421.479474 L72.3085714,421.622632 L68.7161905,421.300526 L67.7888095,421.300526 L67.6130952,421.300526 C67.6130952,421.300526 67.5252381,421.300526 67.5154762,421.300526 L67.5154762,421.246842 L67.5154762,420.289474 C67.4569048,420.343158 67.3983333,420.37 67.3885714,420.164211 C67.3885714,419.269474 67.4764286,418.115263 67.535,416.889474 L67.535,416.352632 C67.5261544,416.272814 67.4842236,416.199153 67.4178571,416.146842 L67.5057143,414.679474 L67.5057143,414.563158 C67.4955056,414.48889 67.4955056,414.413742 67.5057143,414.339474 C67.5136468,414.261977 67.577989,414.199318 67.6619048,414.187368 L67.9059524,414.187368 L67.9840476,414.187368 L68.8333333,414.187368 L73.7142857,414.106842 L83.8666667,413.936842 C85.3992857,413.847368 86.9416667,413.766842 88.4157143,413.748947 C90.602381,413.748947 93.3942857,413.936842 95.522381,414.017368 C95.3466667,413.704211 97.1428571,413.543158 98.4509524,413.346316 C98.9,413.283684 99.3197619,413.212105 99.5735714,413.194211 C99.827381,413.176316 99.9445238,413.140526 99.7980952,412.970526 C100.227657,413.12359 100.550868,413.456445 100.666905,413.865263 C100.743635,414.284883 100.766569,414.711287 100.735238,415.135789 L100.735238,416.102105 C100.723746,416.234422 100.750692,416.367167 100.813333,416.486842 C101.272143,416.808947 101.789524,417.828947 101.945714,421.291579 C101.945714,421.971579 101.896905,422.830526 101.838333,423.573158 L101.838333,423.957895 C101.808773,424.222728 101.736394,424.482058 101.623571,424.727368 C101.407178,425.170164 101.071203,425.55509 100.647381,425.845789 C100.086696,426.237786 99.400172,426.448582 98.695,426.445263 C98.49,426.445263 98.4997619,426.507895 98.6266667,426.552632 L98.6852381,426.552632 L98.8609524,426.552632 C99.0200721,426.565822 99.180166,426.565822 99.3392857,426.552632 C99.7176015,426.512235 100.084758,426.409157 100.422857,426.248421 C101.030173,425.954959 101.529391,425.503622 101.857857,424.951053 C102.053095,424.584211 102.140952,424.539474 101.857857,425.165789 C102.084646,424.765982 102.217655,424.327105 102.248333,423.877368 L102.248333,423.438947 L102.248333,422.687368 L102.316667,421.193158 L102.453333,418.204737 C102.453333,417.014737 102.54119,415.824737 102.59,414.625789 C102.630039,414.160383 102.570347,413.692293 102.414286,413.247895 C101.951726,411.955066 100.656953,411.065013 99.1733333,411.02 L78.8002381,410.483158 C77.9509524,410.483158 75.9790476,410.483158 73.372619,410.483158 L69.0480952,410.402632 L67.74,410.402632 C66.9946752,410.335524 66.2429223,410.359595 65.5045238,410.474211 C64.8336039,410.633299 64.2373923,410.988187 63.8059524,411.485263 C63.378994,412.001913 63.1368925,412.626985 63.1128571,413.274737 L62.917619,419.412632 L62.8688095,420.781579 L62.8688095,421.676316 C62.8444712,422.087592 62.8444712,422.499776 62.8688095,422.911053 C62.9078687,423.269726 63.0100655,423.620231 63.1714286,423.948947 C63.3435846,424.286636 63.5855972,424.590498 63.8840476,424.843684 C64.4768886,425.312776 65.2291619,425.578456 66.0121429,425.595263 L72.0645238,425.792105 L75.8521429,425.935263 L76.447619,425.935263 C80.0009524,426.069474 84.3157143,426.158947 87.3321429,426.060526 L91.5297619,425.774211 C90.8854762,425.675789 90.2802381,425.568421 89.7628571,425.47 C90.8942842,425.530249 92.028573,425.530249 93.16,425.47 C96.1959524,425.335789 94.487619,425.031579 93.3357143,424.637895 C92.5059524,424.458947 93.6480952,424.262105 92.3595238,424.065263 L94.7316667,424.154737 C94.8390476,424.011579 91.8030952,424.154737 92.4766667,423.922105 C93.3845238,424.002632 94.4290476,423.922105 95.3564286,423.984737 C95.0342857,423.778947 92.0764286,423.805789 92.232619,423.617895 C92.7402381,423.617895 94.8780952,423.966842 95.0733333,423.725263 C94.614915,423.658299 94.151344,423.625384 93.6871429,423.626842 C96.6157143,423.626842 98.2264286,423.456842 95.5711905,423.107895 C96.4985714,423.107895 97.7969048,423.286842 98.7730952,423.286842 L96.9964286,423.170526 L98.6559524,423.233158 L98.3728571,423.116842 C97.9530952,423.116842 97.5430952,423.045263 97.1038095,423.027368 L98.2166667,423.027368 C97.9433333,422.946842 97.6211905,422.857368 97.2404762,422.776842 C95.932381,422.58 94.6828571,422.311579 93.9702381,422.284737 C88.2790476,421.971579 82.5,421.712105 76.7892857,421.524211 Z" id="Shape"></path>
                        <path d="M119.789286,381.524211 C119.789286,381.613684 120.082143,381.712105 119.60381,381.738947 C118.110238,381.738947 116.919286,381.434737 115.415952,381.479474 L115.308571,381.622632 L111.71619,381.300526 L110.78881,381.300526 L110.613095,381.300526 C110.613095,381.300526 110.525238,381.300526 110.515476,381.300526 L110.515476,381.246842 L110.515476,380.289474 C110.456905,380.343158 110.398333,380.37 110.388571,380.164211 C110.388571,379.269474 110.476429,378.115263 110.535,376.889474 L110.535,376.352632 C110.526154,376.272814 110.484224,376.199153 110.417857,376.146842 L110.505714,374.679474 L110.505714,374.563158 C110.495506,374.48889 110.495506,374.413742 110.505714,374.339474 C110.513647,374.261977 110.577989,374.199318 110.661905,374.187368 L110.905952,374.187368 L110.984048,374.187368 L111.833333,374.187368 L116.714286,374.106842 L126.866667,373.936842 C128.399286,373.847368 129.941667,373.766842 131.415714,373.748947 C133.602381,373.748947 136.394286,373.936842 138.522381,374.017368 C138.346667,373.704211 140.142857,373.543158 141.450952,373.346316 C141.9,373.283684 142.319762,373.212105 142.573571,373.194211 C142.827381,373.176316 142.944524,373.140526 142.798095,372.970526 C143.227657,373.12359 143.550868,373.456445 143.666905,373.865263 C143.743635,374.284883 143.766569,374.711287 143.735238,375.135789 L143.735238,376.102105 C143.723746,376.234422 143.750692,376.367167 143.813333,376.486842 C144.272143,376.808947 144.789524,377.828947 144.945714,381.291579 C144.945714,381.971579 144.896905,382.830526 144.838333,383.573158 L144.838333,383.957895 C144.808773,384.222728 144.736394,384.482058 144.623571,384.727368 C144.407178,385.170164 144.071203,385.55509 143.647381,385.845789 C143.086696,386.237786 142.400172,386.448582 141.695,386.445263 C141.49,386.445263 141.499762,386.507895 141.626667,386.552632 L141.685238,386.552632 L141.860952,386.552632 C142.020072,386.565822 142.180166,386.565822 142.339286,386.552632 C142.717602,386.512235 143.084758,386.409157 143.422857,386.248421 C144.030173,385.954959 144.529391,385.503622 144.857857,384.951053 C145.053095,384.584211 145.140952,384.539474 144.857857,385.165789 C145.084646,384.765982 145.217655,384.327105 145.248333,383.877368 L145.248333,383.438947 L145.248333,382.687368 L145.316667,381.193158 L145.453333,378.204737 C145.453333,377.014737 145.54119,375.824737 145.59,374.625789 C145.630039,374.160383 145.570347,373.692293 145.414286,373.247895 C144.951726,371.955066 143.656953,371.065013 142.173333,371.02 L121.800238,370.483158 C120.950952,370.483158 118.979048,370.483158 116.372619,370.483158 L112.048095,370.402632 L110.74,370.402632 C109.994675,370.335524 109.242922,370.359595 108.504524,370.474211 C107.833604,370.633299 107.237392,370.988187 106.805952,371.485263 C106.378994,372.001913 106.136893,372.626985 106.112857,373.274737 L105.917619,379.412632 L105.86881,380.781579 L105.86881,381.676316 C105.844471,382.087592 105.844471,382.499776 105.86881,382.911053 C105.907869,383.269726 106.010066,383.620231 106.171429,383.948947 C106.343585,384.286636 106.585597,384.590498 106.884048,384.843684 C107.476889,385.312776 108.229162,385.578456 109.012143,385.595263 L115.064524,385.792105 L118.852143,385.935263 L119.447619,385.935263 C123.000952,386.069474 127.315714,386.158947 130.332143,386.060526 L134.529762,385.774211 C133.885476,385.675789 133.280238,385.568421 132.762857,385.47 C133.894284,385.530249 135.028573,385.530249 136.16,385.47 C139.195952,385.335789 137.487619,385.031579 136.335714,384.637895 C135.505952,384.458947 136.648095,384.262105 135.359524,384.065263 L137.731667,384.154737 C137.839048,384.011579 134.803095,384.154737 135.476667,383.922105 C136.384524,384.002632 137.429048,383.922105 138.356429,383.984737 C138.034286,383.778947 135.076429,383.805789 135.232619,383.617895 C135.740238,383.617895 137.878095,383.966842 138.073333,383.725263 C137.614915,383.658299 137.151344,383.625384 136.687143,383.626842 C139.615714,383.626842 141.226429,383.456842 138.57119,383.107895 C139.498571,383.107895 140.796905,383.286842 141.773095,383.286842 L139.996429,383.170526 L141.655952,383.233158 L141.372857,383.116842 C140.953095,383.116842 140.543095,383.045263 140.10381,383.027368 L141.216667,383.027368 C140.943333,382.946842 140.62119,382.857368 140.240476,382.776842 C138.932381,382.58 137.682857,382.311579 136.970238,382.284737 C131.279048,381.971579 125.5,381.712105 119.789286,381.524211 Z" id="Shape"></path>
                        <path d="M98.7892857,361.524211 C98.7892857,361.613684 99.0821429,361.712105 98.6038095,361.738947 C97.1102381,361.738947 95.9192857,361.434737 94.4159524,361.479474 L94.3085714,361.622632 L90.7161905,361.300526 L89.7888095,361.300526 L89.6130952,361.300526 C89.6130952,361.300526 89.5252381,361.300526 89.5154762,361.300526 L89.5154762,361.246842 L89.5154762,360.289474 C89.4569048,360.343158 89.3983333,360.37 89.3885714,360.164211 C89.3885714,359.269474 89.4764286,358.115263 89.535,356.889474 L89.535,356.352632 C89.5261544,356.272814 89.4842236,356.199153 89.4178571,356.146842 L89.5057143,354.679474 L89.5057143,354.563158 C89.4955056,354.48889 89.4955056,354.413742 89.5057143,354.339474 C89.5136468,354.261977 89.577989,354.199318 89.6619048,354.187368 L89.9059524,354.187368 L89.9840476,354.187368 L90.8333333,354.187368 L95.7142857,354.106842 L105.866667,353.936842 C107.399286,353.847368 108.941667,353.766842 110.415714,353.748947 C112.602381,353.748947 115.394286,353.936842 117.522381,354.017368 C117.346667,353.704211 119.142857,353.543158 120.450952,353.346316 C120.9,353.283684 121.319762,353.212105 121.573571,353.194211 C121.827381,353.176316 121.944524,353.140526 121.798095,352.970526 C122.227657,353.12359 122.550868,353.456445 122.666905,353.865263 C122.743635,354.284883 122.766569,354.711287 122.735238,355.135789 L122.735238,356.102105 C122.723746,356.234422 122.750692,356.367167 122.813333,356.486842 C123.272143,356.808947 123.789524,357.828947 123.945714,361.291579 C123.945714,361.971579 123.896905,362.830526 123.838333,363.573158 L123.838333,363.957895 C123.808773,364.222728 123.736394,364.482058 123.623571,364.727368 C123.407178,365.170164 123.071203,365.55509 122.647381,365.845789 C122.086696,366.237786 121.400172,366.448582 120.695,366.445263 C120.49,366.445263 120.499762,366.507895 120.626667,366.552632 L120.685238,366.552632 L120.860952,366.552632 C121.020072,366.565822 121.180166,366.565822 121.339286,366.552632 C121.717602,366.512235 122.084758,366.409157 122.422857,366.248421 C123.030173,365.954959 123.529391,365.503622 123.857857,364.951053 C124.053095,364.584211 124.140952,364.539474 123.857857,365.165789 C124.084646,364.765982 124.217655,364.327105 124.248333,363.877368 L124.248333,363.438947 L124.248333,362.687368 L124.316667,361.193158 L124.453333,358.204737 C124.453333,357.014737 124.54119,355.824737 124.59,354.625789 C124.630039,354.160383 124.570347,353.692293 124.414286,353.247895 C123.951726,351.955066 122.656953,351.065013 121.173333,351.02 L100.800238,350.483158 C99.9509524,350.483158 97.9790476,350.483158 95.372619,350.483158 L91.0480952,350.402632 L89.74,350.402632 C88.9946752,350.335524 88.2429223,350.359595 87.5045238,350.474211 C86.8336039,350.633299 86.2373923,350.988187 85.8059524,351.485263 C85.378994,352.001913 85.1368925,352.626985 85.1128571,353.274737 L84.917619,359.412632 L84.8688095,360.781579 L84.8688095,361.676316 C84.8444712,362.087592 84.8444712,362.499776 84.8688095,362.911053 C84.9078687,363.269726 85.0100655,363.620231 85.1714286,363.948947 C85.3435846,364.286636 85.5855972,364.590498 85.8840476,364.843684 C86.4768886,365.312776 87.2291619,365.578456 88.0121429,365.595263 L94.0645238,365.792105 L97.8521429,365.935263 L98.447619,365.935263 C102.000952,366.069474 106.315714,366.158947 109.332143,366.060526 L113.529762,365.774211 C112.885476,365.675789 112.280238,365.568421 111.762857,365.47 C112.894284,365.530249 114.028573,365.530249 115.16,365.47 C118.195952,365.335789 116.487619,365.031579 115.335714,364.637895 C114.505952,364.458947 115.648095,364.262105 114.359524,364.065263 L116.731667,364.154737 C116.839048,364.011579 113.803095,364.154737 114.476667,363.922105 C115.384524,364.002632 116.429048,363.922105 117.356429,363.984737 C117.034286,363.778947 114.076429,363.805789 114.232619,363.617895 C114.740238,363.617895 116.878095,363.966842 117.073333,363.725263 C116.614915,363.658299 116.151344,363.625384 115.687143,363.626842 C118.615714,363.626842 120.226429,363.456842 117.57119,363.107895 C118.498571,363.107895 119.796905,363.286842 120.773095,363.286842 L118.996429,363.170526 L120.655952,363.233158 L120.372857,363.116842 C119.953095,363.116842 119.543095,363.045263 119.10381,363.027368 L120.216667,363.027368 C119.943333,362.946842 119.62119,362.857368 119.240476,362.776842 C117.932381,362.58 116.682857,362.311579 115.970238,362.284737 C110.279048,361.971579 104.5,361.712105 98.7892857,361.524211 Z" id="Shape"></path>
                        <path d="M13.9387299,361.524211 C13.9387299,361.613684 14.2315871,361.712105 13.7532538,361.738947 C12.2596823,361.738947 11.0687299,361.434737 9.56539661,361.479474 L9.45801566,361.622632 L5.8656347,361.300526 L4.93825375,361.300526 L4.76253947,361.300526 C4.76253947,361.300526 4.67468232,361.300526 4.66492042,361.300526 L4.66492042,361.246842 L4.66492042,360.289474 C4.60634899,360.343158 4.54777756,360.37 4.53801566,360.164211 C4.53801566,359.269474 4.6258728,358.115263 4.68444423,356.889474 L4.68444423,356.352632 C4.67559864,356.272814 4.63366783,356.199153 4.56730137,356.146842 L4.65515851,354.679474 L4.65515851,354.563158 C4.64494983,354.48889 4.64494983,354.413742 4.65515851,354.339474 C4.66309098,354.261977 4.72743324,354.199318 4.81134899,354.187368 L5.05539661,354.187368 L5.13349185,354.187368 L5.98277756,354.187368 L10.8637299,354.106842 L21.0161109,353.936842 C22.5487299,353.847368 24.0911109,353.766842 25.5651585,353.748947 C27.7518252,353.748947 30.5437299,353.936842 32.6718252,354.017368 C32.4961109,353.704211 34.2923014,353.543158 35.6003966,353.346316 C36.0494442,353.283684 36.4692061,353.212105 36.7230157,353.194211 C36.9768252,353.176316 37.093968,353.140526 36.9475395,352.970526 C37.3771016,353.12359 37.7003118,353.456445 37.816349,353.865263 C37.8930794,354.284883 37.9160129,354.711287 37.8846823,355.135789 L37.8846823,356.102105 C37.8731907,356.234422 37.9001359,356.367167 37.9627776,356.486842 C38.4215871,356.808947 38.938968,357.828947 39.0951585,361.291579 C39.0951585,361.971579 39.046349,362.830526 38.9877776,363.573158 L38.9877776,363.957895 C38.9582176,364.222728 38.8858382,364.482058 38.7730157,364.727368 C38.5566218,365.170164 38.2206468,365.55509 37.7968252,365.845789 C37.2361399,366.237786 36.5496162,366.448582 35.8444442,366.445263 C35.6394442,366.445263 35.6492061,366.507895 35.7761109,366.552632 L35.8346823,366.552632 L36.0103966,366.552632 C36.1695163,366.565822 36.3296102,366.565822 36.4887299,366.552632 C36.8670458,366.512235 37.2342021,366.409157 37.5723014,366.248421 C38.1796174,365.954959 38.6788349,365.503622 39.0073014,364.951053 C39.2025395,364.584211 39.2903966,364.539474 39.0073014,365.165789 C39.2340902,364.765982 39.3670989,364.327105 39.3977776,363.877368 L39.3977776,363.438947 L39.3977776,362.687368 L39.4661109,361.193158 L39.6027776,358.204737 C39.6027776,357.014737 39.6906347,355.824737 39.7394442,354.625789 C39.7794835,354.160383 39.7197909,353.692293 39.5637299,353.247895 C39.1011702,351.955066 37.8063968,351.065013 36.3227776,351.02 L15.9496823,350.483158 C15.1003966,350.483158 13.1284918,350.483158 10.5220633,350.483158 L6.19753947,350.402632 L4.88944423,350.402632 C4.14411942,350.335524 3.39236649,350.359595 2.65396804,350.474211 C1.98304816,350.633299 1.38683652,350.988187 0.95539661,351.485263 C0.528438264,352.001913 0.286336734,352.626985 0.262301371,353.274737 L0.0670632762,359.412632 L0.0182537524,360.781579 L0.0182537524,361.676316 C-0.00608458414,362.087592 -0.00608458414,362.499776 0.0182537524,362.911053 C0.0573129138,363.269726 0.159509732,363.620231 0.3208728,363.948947 C0.493028836,364.286636 0.735041404,364.590498 1.03349185,364.843684 C1.62633278,365.312776 2.37860618,365.578456 3.16158709,365.595263 L9.21396804,365.792105 L13.0015871,365.935263 L13.5970633,365.935263 C17.1503966,366.069474 21.4651585,366.158947 24.4815871,366.060526 L28.6792061,365.774211 C28.0349204,365.675789 27.4296823,365.568421 26.9123014,365.47 C28.0437284,365.530249 29.1780172,365.530249 30.3094442,365.47 C33.3453966,365.335789 31.6370633,365.031579 30.4851585,364.637895 C29.6553966,364.458947 30.7975395,364.262105 29.508968,364.065263 L31.8811109,364.154737 C31.9884918,364.011579 28.9525395,364.154737 29.6261109,363.922105 C30.533968,364.002632 31.5784918,363.922105 32.5058728,363.984737 C32.1837299,363.778947 29.2258728,363.805789 29.3820633,363.617895 C29.8896823,363.617895 32.0275395,363.966842 32.2227776,363.725263 C31.7643593,363.658299 31.3007882,363.625384 30.8365871,363.626842 C33.7651585,363.626842 35.3758728,363.456842 32.7206347,363.107895 C33.6480157,363.107895 34.946349,363.286842 35.9225395,363.286842 L34.1458728,363.170526 L35.8053966,363.233158 L35.5223014,363.116842 C35.1025395,363.116842 34.6925395,363.045263 34.2532538,363.027368 L35.3661109,363.027368 C35.0927776,362.946842 34.7706347,362.857368 34.3899204,362.776842 C33.0818252,362.58 31.8323014,362.311579 31.1196823,362.284737 C25.4284918,361.971579 19.6494442,361.712105 13.9387299,361.524211 Z" id="Shape"></path>
                        <path d="M137.789286,51.5242105 C137.789286,51.6136842 138.082143,51.7121053 137.60381,51.7389474 C136.110238,51.7389474 134.919286,51.4347368 133.415952,51.4794737 L133.308571,51.6226316 L129.71619,51.3005263 L128.78881,51.3005263 L128.613095,51.3005263 C128.613095,51.3005263 128.525238,51.3005263 128.515476,51.3005263 L128.515476,51.2468421 L128.515476,50.2894737 C128.456905,50.3431579 128.398333,50.37 128.388571,50.1642105 C128.388571,49.2694737 128.476429,48.1152632 128.535,46.8894737 L128.535,46.3526316 C128.526154,46.2728142 128.484224,46.1991527 128.417857,46.1468421 L128.505714,44.6794737 L128.505714,44.5631579 C128.495506,44.48889 128.495506,44.4137415 128.505714,44.3394737 C128.513647,44.2619775 128.577989,44.1993181 128.661905,44.1873684 L128.905952,44.1873684 L128.984048,44.1873684 L129.833333,44.1873684 L134.714286,44.1068421 L144.866667,43.9368421 C146.399286,43.8473684 147.941667,43.7668421 149.415714,43.7489474 C151.602381,43.7489474 154.394286,43.9368421 156.522381,44.0173684 C156.346667,43.7042105 158.142857,43.5431579 159.450952,43.3463158 C159.9,43.2836842 160.319762,43.2121053 160.573571,43.1942105 C160.827381,43.1763158 160.944524,43.1405263 160.798095,42.9705263 C161.227657,43.1235898 161.550868,43.4564454 161.666905,43.8652632 C161.743635,44.284883 161.766569,44.7112872 161.735238,45.1357895 L161.735238,46.1021053 C161.723746,46.2344216 161.750692,46.3671672 161.813333,46.4868421 C162.272143,46.8089474 162.789524,47.8289474 162.945714,51.2915789 C162.945714,51.9715789 162.896905,52.8305263 162.838333,53.5731579 L162.838333,53.9578947 C162.808773,54.2227281 162.736394,54.4820576 162.623571,54.7273684 C162.407178,55.1701637 162.071203,55.5550901 161.647381,55.8457895 C161.086696,56.2377864 160.400172,56.4485817 159.695,56.4452632 C159.49,56.4452632 159.499762,56.5078947 159.626667,56.5526316 L159.685238,56.5526316 L159.860952,56.5526316 C160.020072,56.5658218 160.180166,56.5658218 160.339286,56.5526316 C160.717602,56.5122355 161.084758,56.4091571 161.422857,56.2484211 C162.030173,55.9549592 162.529391,55.5036219 162.857857,54.9510526 C163.053095,54.5842105 163.140952,54.5394737 162.857857,55.1657895 C163.084646,54.7659824 163.217655,54.3271051 163.248333,53.8773684 L163.248333,53.4389474 L163.248333,52.6873684 L163.316667,51.1931579 L163.453333,48.2047368 C163.453333,47.0147368 163.54119,45.8247368 163.59,44.6257895 C163.630039,44.1603831 163.570347,43.6922928 163.414286,43.2478947 C162.951726,41.9550658 161.656953,41.065013 160.173333,41.02 L139.800238,40.4831579 C138.950952,40.4831579 136.979048,40.4831579 134.372619,40.4831579 L130.048095,40.4026316 L128.74,40.4026316 C127.994675,40.3355239 127.242922,40.3595947 126.504524,40.4742105 C125.833604,40.6332994 125.237392,40.9881867 124.805952,41.4852632 C124.378994,42.0019128 124.136893,42.6269846 124.112857,43.2747368 L123.917619,49.4126316 L123.86881,50.7815789 L123.86881,51.6763158 C123.844471,52.0875925 123.844471,52.499776 123.86881,52.9110526 C123.907869,53.2697261 124.010066,53.6202313 124.171429,53.9489474 C124.343585,54.2866361 124.585597,54.5904977 124.884048,54.8436842 C125.476889,55.3127757 126.229162,55.5784559 127.012143,55.5952632 L133.064524,55.7921053 L136.852143,55.9352632 L137.447619,55.9352632 C141.000952,56.0694737 145.315714,56.1589474 148.332143,56.0605263 L152.529762,55.7742105 C151.885476,55.6757895 151.280238,55.5684211 150.762857,55.47 C151.894284,55.5302486 153.028573,55.5302486 154.16,55.47 C157.195952,55.3357895 155.487619,55.0315789 154.335714,54.6378947 C153.505952,54.4589474 154.648095,54.2621053 153.359524,54.0652632 L155.731667,54.1547368 C155.839048,54.0115789 152.803095,54.1547368 153.476667,53.9221053 C154.384524,54.0026316 155.429048,53.9221053 156.356429,53.9847368 C156.034286,53.7789474 153.076429,53.8057895 153.232619,53.6178947 C153.740238,53.6178947 155.878095,53.9668421 156.073333,53.7252632 C155.614915,53.6582986 155.151344,53.6253845 154.687143,53.6268421 C157.615714,53.6268421 159.226429,53.4568421 156.57119,53.1078947 C157.498571,53.1078947 158.796905,53.2868421 159.773095,53.2868421 L157.996429,53.1705263 L159.655952,53.2331579 L159.372857,53.1168421 C158.953095,53.1168421 158.543095,53.0452632 158.10381,53.0273684 L159.216667,53.0273684 C158.943333,52.9468421 158.62119,52.8573684 158.240476,52.7768421 C156.932381,52.58 155.682857,52.3115789 154.970238,52.2847368 C149.279048,51.9715789 143.5,51.7121053 137.789286,51.5242105 Z" id="Shape"></path>
                        <path d="M156.789286,31.5242105 C156.789286,31.6136842 157.082143,31.7121053 156.60381,31.7389474 C155.110238,31.7389474 153.919286,31.4347368 152.415952,31.4794737 L152.308571,31.6226316 L148.71619,31.3005263 L147.78881,31.3005263 L147.613095,31.3005263 C147.613095,31.3005263 147.525238,31.3005263 147.515476,31.3005263 L147.515476,31.2468421 L147.515476,30.2894737 C147.456905,30.3431579 147.398333,30.37 147.388571,30.1642105 C147.388571,29.2694737 147.476429,28.1152632 147.535,26.8894737 L147.535,26.3526316 C147.526154,26.2728142 147.484224,26.1991527 147.417857,26.1468421 L147.505714,24.6794737 L147.505714,24.5631579 C147.495506,24.48889 147.495506,24.4137415 147.505714,24.3394737 C147.513647,24.2619775 147.577989,24.1993181 147.661905,24.1873684 L147.905952,24.1873684 L147.984048,24.1873684 L148.833333,24.1873684 L153.714286,24.1068421 L163.866667,23.9368421 C165.399286,23.8473684 166.941667,23.7668421 168.415714,23.7489474 C170.602381,23.7489474 173.394286,23.9368421 175.522381,24.0173684 C175.346667,23.7042105 177.142857,23.5431579 178.450952,23.3463158 C178.9,23.2836842 179.319762,23.2121053 179.573571,23.1942105 C179.827381,23.1763158 179.944524,23.1405263 179.798095,22.9705263 C180.227657,23.1235898 180.550868,23.4564454 180.666905,23.8652632 C180.743635,24.284883 180.766569,24.7112872 180.735238,25.1357895 L180.735238,26.1021053 C180.723746,26.2344216 180.750692,26.3671672 180.813333,26.4868421 C181.272143,26.8089474 181.789524,27.8289474 181.945714,31.2915789 C181.945714,31.9715789 181.896905,32.8305263 181.838333,33.5731579 L181.838333,33.9578947 C181.808773,34.2227281 181.736394,34.4820576 181.623571,34.7273684 C181.407178,35.1701637 181.071203,35.5550901 180.647381,35.8457895 C180.086696,36.2377864 179.400172,36.4485817 178.695,36.4452632 C178.49,36.4452632 178.499762,36.5078947 178.626667,36.5526316 L178.685238,36.5526316 L178.860952,36.5526316 C179.020072,36.5658218 179.180166,36.5658218 179.339286,36.5526316 C179.717602,36.5122355 180.084758,36.4091571 180.422857,36.2484211 C181.030173,35.9549592 181.529391,35.5036219 181.857857,34.9510526 C182.053095,34.5842105 182.140952,34.5394737 181.857857,35.1657895 C182.084646,34.7659824 182.217655,34.3271051 182.248333,33.8773684 L182.248333,33.4389474 L182.248333,32.6873684 L182.316667,31.1931579 L182.453333,28.2047368 C182.453333,27.0147368 182.54119,25.8247368 182.59,24.6257895 C182.630039,24.1603831 182.570347,23.6922928 182.414286,23.2478947 C181.951726,21.9550658 180.656953,21.065013 179.173333,21.02 L158.800238,20.4831579 C157.950952,20.4831579 155.979048,20.4831579 153.372619,20.4831579 L149.048095,20.4026316 L147.74,20.4026316 C146.994675,20.3355239 146.242922,20.3595947 145.504524,20.4742105 C144.833604,20.6332994 144.237392,20.9881867 143.805952,21.4852632 C143.378994,22.0019128 143.136893,22.6269846 143.112857,23.2747368 L142.917619,29.4126316 L142.86881,30.7815789 L142.86881,31.6763158 C142.844471,32.0875925 142.844471,32.499776 142.86881,32.9110526 C142.907869,33.2697261 143.010066,33.6202313 143.171429,33.9489474 C143.343585,34.2866361 143.585597,34.5904977 143.884048,34.8436842 C144.476889,35.3127757 145.229162,35.5784559 146.012143,35.5952632 L152.064524,35.7921053 L155.852143,35.9352632 L156.447619,35.9352632 C160.000952,36.0694737 164.315714,36.1589474 167.332143,36.0605263 L171.529762,35.7742105 C170.885476,35.6757895 170.280238,35.5684211 169.762857,35.47 C170.894284,35.5302486 172.028573,35.5302486 173.16,35.47 C176.195952,35.3357895 174.487619,35.0315789 173.335714,34.6378947 C172.505952,34.4589474 173.648095,34.2621053 172.359524,34.0652632 L174.731667,34.1547368 C174.839048,34.0115789 171.803095,34.1547368 172.476667,33.9221053 C173.384524,34.0026316 174.429048,33.9221053 175.356429,33.9847368 C175.034286,33.7789474 172.076429,33.8057895 172.232619,33.6178947 C172.740238,33.6178947 174.878095,33.9668421 175.073333,33.7252632 C174.614915,33.6582986 174.151344,33.6253845 173.687143,33.6268421 C176.615714,33.6268421 178.226429,33.4568421 175.57119,33.1078947 C176.498571,33.1078947 177.796905,33.2868421 178.773095,33.2868421 L176.996429,33.1705263 L178.655952,33.2331579 L178.372857,33.1168421 C177.953095,33.1168421 177.543095,33.0452632 177.10381,33.0273684 L178.216667,33.0273684 C177.943333,32.9468421 177.62119,32.8573684 177.240476,32.7768421 C175.932381,32.58 174.682857,32.3115789 173.970238,32.2847368 C168.279048,31.9715789 162.5,31.7121053 156.789286,31.5242105 Z" id="Shape"></path>
                        <path d="M199.789286,31.5242105 C199.789286,31.6136842 200.082143,31.7121053 199.60381,31.7389474 C198.110238,31.7389474 196.919286,31.4347368 195.415952,31.4794737 L195.308571,31.6226316 L191.71619,31.3005263 L190.78881,31.3005263 L190.613095,31.3005263 C190.613095,31.3005263 190.525238,31.3005263 190.515476,31.3005263 L190.515476,31.2468421 L190.515476,30.2894737 C190.456905,30.3431579 190.398333,30.37 190.388571,30.1642105 C190.388571,29.2694737 190.476429,28.1152632 190.535,26.8894737 L190.535,26.3526316 C190.526154,26.2728142 190.484224,26.1991527 190.417857,26.1468421 L190.505714,24.6794737 L190.505714,24.5631579 C190.495506,24.48889 190.495506,24.4137415 190.505714,24.3394737 C190.513647,24.2619775 190.577989,24.1993181 190.661905,24.1873684 L190.905952,24.1873684 L190.984048,24.1873684 L191.833333,24.1873684 L196.714286,24.1068421 L206.866667,23.9368421 C208.399286,23.8473684 209.941667,23.7668421 211.415714,23.7489474 C213.602381,23.7489474 216.394286,23.9368421 218.522381,24.0173684 C218.346667,23.7042105 220.142857,23.5431579 221.450952,23.3463158 C221.9,23.2836842 222.319762,23.2121053 222.573571,23.1942105 C222.827381,23.1763158 222.944524,23.1405263 222.798095,22.9705263 C223.227657,23.1235898 223.550868,23.4564454 223.666905,23.8652632 C223.743635,24.284883 223.766569,24.7112872 223.735238,25.1357895 L223.735238,26.1021053 C223.723746,26.2344216 223.750692,26.3671672 223.813333,26.4868421 C224.272143,26.8089474 224.789524,27.8289474 224.945714,31.2915789 C224.945714,31.9715789 224.896905,32.8305263 224.838333,33.5731579 L224.838333,33.9578947 C224.808773,34.2227281 224.736394,34.4820576 224.623571,34.7273684 C224.407178,35.1701637 224.071203,35.5550901 223.647381,35.8457895 C223.086696,36.2377864 222.400172,36.4485817 221.695,36.4452632 C221.49,36.4452632 221.499762,36.5078947 221.626667,36.5526316 L221.685238,36.5526316 L221.860952,36.5526316 C222.020072,36.5658218 222.180166,36.5658218 222.339286,36.5526316 C222.717602,36.5122355 223.084758,36.4091571 223.422857,36.2484211 C224.030173,35.9549592 224.529391,35.5036219 224.857857,34.9510526 C225.053095,34.5842105 225.140952,34.5394737 224.857857,35.1657895 C225.084646,34.7659824 225.217655,34.3271051 225.248333,33.8773684 L225.248333,33.4389474 L225.248333,32.6873684 L225.316667,31.1931579 L225.453333,28.2047368 C225.453333,27.0147368 225.54119,25.8247368 225.59,24.6257895 C225.630039,24.1603831 225.570347,23.6922928 225.414286,23.2478947 C224.951726,21.9550658 223.656953,21.065013 222.173333,21.02 L201.800238,20.4831579 C200.950952,20.4831579 198.979048,20.4831579 196.372619,20.4831579 L192.048095,20.4026316 L190.74,20.4026316 C189.994675,20.3355239 189.242922,20.3595947 188.504524,20.4742105 C187.833604,20.6332994 187.237392,20.9881867 186.805952,21.4852632 C186.378994,22.0019128 186.136893,22.6269846 186.112857,23.2747368 L185.917619,29.4126316 L185.86881,30.7815789 L185.86881,31.6763158 C185.844471,32.0875925 185.844471,32.499776 185.86881,32.9110526 C185.907869,33.2697261 186.010066,33.6202313 186.171429,33.9489474 C186.343585,34.2866361 186.585597,34.5904977 186.884048,34.8436842 C187.476889,35.3127757 188.229162,35.5784559 189.012143,35.5952632 L195.064524,35.7921053 L198.852143,35.9352632 L199.447619,35.9352632 C203.000952,36.0694737 207.315714,36.1589474 210.332143,36.0605263 L214.529762,35.7742105 C213.885476,35.6757895 213.280238,35.5684211 212.762857,35.47 C213.894284,35.5302486 215.028573,35.5302486 216.16,35.47 C219.195952,35.3357895 217.487619,35.0315789 216.335714,34.6378947 C215.505952,34.4589474 216.648095,34.2621053 215.359524,34.0652632 L217.731667,34.1547368 C217.839048,34.0115789 214.803095,34.1547368 215.476667,33.9221053 C216.384524,34.0026316 217.429048,33.9221053 218.356429,33.9847368 C218.034286,33.7789474 215.076429,33.8057895 215.232619,33.6178947 C215.740238,33.6178947 217.878095,33.9668421 218.073333,33.7252632 C217.614915,33.6582986 217.151344,33.6253845 216.687143,33.6268421 C219.615714,33.6268421 221.226429,33.4568421 218.57119,33.1078947 C219.498571,33.1078947 220.796905,33.2868421 221.773095,33.2868421 L219.996429,33.1705263 L221.655952,33.2331579 L221.372857,33.1168421 C220.953095,33.1168421 220.543095,33.0452632 220.10381,33.0273684 L221.216667,33.0273684 C220.943333,32.9468421 220.62119,32.8573684 220.240476,32.7768421 C218.932381,32.58 217.682857,32.3115789 216.970238,32.2847368 C211.279048,31.9715789 205.5,31.7121053 199.789286,31.5242105 Z" id="Shape"></path>
                        <path d="M178.789286,11.5242105 C178.789286,11.6136842 179.082143,11.7121053 178.60381,11.7389474 C177.110238,11.7389474 175.919286,11.4347368 174.415952,11.4794737 L174.308571,11.6226316 L170.71619,11.3005263 L169.78881,11.3005263 L169.613095,11.3005263 C169.613095,11.3005263 169.525238,11.3005263 169.515476,11.3005263 L169.515476,11.2468421 L169.515476,10.2894737 C169.456905,10.3431579 169.398333,10.37 169.388571,10.1642105 C169.388571,9.26947368 169.476429,8.11526316 169.535,6.88947368 L169.535,6.35263158 C169.526154,6.27281421 169.484224,6.19915271 169.417857,6.14684211 L169.505714,4.67947368 L169.505714,4.56315789 C169.495506,4.48889004 169.495506,4.41374153 169.505714,4.33947368 C169.513647,4.26197746 169.577989,4.19931809 169.661905,4.18736842 L169.905952,4.18736842 L169.984048,4.18736842 L170.833333,4.18736842 L175.714286,4.10684211 L185.866667,3.93684211 C187.399286,3.84736842 188.941667,3.76684211 190.415714,3.74894737 C192.602381,3.74894737 195.394286,3.93684211 197.522381,4.01736842 C197.346667,3.70421053 199.142857,3.54315789 200.450952,3.34631579 C200.9,3.28368421 201.319762,3.21210526 201.573571,3.19421053 C201.827381,3.17631579 201.944524,3.14052632 201.798095,2.97052632 C202.227657,3.12358982 202.550868,3.45644543 202.666905,3.86526316 C202.743635,4.284883 202.766569,4.71128716 202.735238,5.13578947 L202.735238,6.10210526 C202.723746,6.23442157 202.750692,6.36716722 202.813333,6.48684211 C203.272143,6.80894737 203.789524,7.82894737 203.945714,11.2915789 C203.945714,11.9715789 203.896905,12.8305263 203.838333,13.5731579 L203.838333,13.9578947 C203.808773,14.2227281 203.736394,14.4820576 203.623571,14.7273684 C203.407178,15.1701637 203.071203,15.5550901 202.647381,15.8457895 C202.086696,16.2377864 201.400172,16.4485817 200.695,16.4452632 C200.49,16.4452632 200.499762,16.5078947 200.626667,16.5526316 L200.685238,16.5526316 L200.860952,16.5526316 C201.020072,16.5658218 201.180166,16.5658218 201.339286,16.5526316 C201.717602,16.5122355 202.084758,16.4091571 202.422857,16.2484211 C203.030173,15.9549592 203.529391,15.5036219 203.857857,14.9510526 C204.053095,14.5842105 204.140952,14.5394737 203.857857,15.1657895 C204.084646,14.7659824 204.217655,14.3271051 204.248333,13.8773684 L204.248333,13.4389474 L204.248333,12.6873684 L204.316667,11.1931579 L204.453333,8.20473684 C204.453333,7.01473684 204.54119,5.82473684 204.59,4.62578947 C204.630039,4.16038314 204.570347,3.69229278 204.414286,3.24789474 C203.951726,1.95506584 202.656953,1.06501299 201.173333,1.02 L180.800238,0.483157895 C179.950952,0.483157895 177.979048,0.483157895 175.372619,0.483157895 L171.048095,0.402631579 L169.74,0.402631579 C168.994675,0.335523894 168.242922,0.359594686 167.504524,0.474210526 C166.833604,0.633299423 166.237392,0.988186673 165.805952,1.48526316 C165.378994,2.0019128 165.136893,2.62698464 165.112857,3.27473684 L164.917619,9.41263158 L164.86881,10.7815789 L164.86881,11.6763158 C164.844471,12.0875925 164.844471,12.499776 164.86881,12.9110526 C164.907869,13.2697261 165.010066,13.6202313 165.171429,13.9489474 C165.343585,14.2866361 165.585597,14.5904977 165.884048,14.8436842 C166.476889,15.3127757 167.229162,15.5784559 168.012143,15.5952632 L174.064524,15.7921053 L177.852143,15.9352632 L178.447619,15.9352632 C182.000952,16.0694737 186.315714,16.1589474 189.332143,16.0605263 L193.529762,15.7742105 C192.885476,15.6757895 192.280238,15.5684211 191.762857,15.47 C192.894284,15.5302486 194.028573,15.5302486 195.16,15.47 C198.195952,15.3357895 196.487619,15.0315789 195.335714,14.6378947 C194.505952,14.4589474 195.648095,14.2621053 194.359524,14.0652632 L196.731667,14.1547368 C196.839048,14.0115789 193.803095,14.1547368 194.476667,13.9221053 C195.384524,14.0026316 196.429048,13.9221053 197.356429,13.9847368 C197.034286,13.7789474 194.076429,13.8057895 194.232619,13.6178947 C194.740238,13.6178947 196.878095,13.9668421 197.073333,13.7252632 C196.614915,13.6582986 196.151344,13.6253845 195.687143,13.6268421 C198.615714,13.6268421 200.226429,13.4568421 197.57119,13.1078947 C198.498571,13.1078947 199.796905,13.2868421 200.773095,13.2868421 L198.996429,13.1705263 L200.655952,13.2331579 L200.372857,13.1168421 C199.953095,13.1168421 199.543095,13.0452632 199.10381,13.0273684 L200.216667,13.0273684 C199.943333,12.9468421 199.62119,12.8573684 199.240476,12.7768421 C197.932381,12.58 196.682857,12.3115789 195.970238,12.2847368 C190.279048,11.9715789 184.5,11.7121053 178.789286,11.5242105 Z" id="Shape"></path>
                    </g>
                </g>
            </g>
        </g>
    </g>
</svg>