<svg width="127" height="21" viewBox="0 0 127 21" fill="none" xmlns="http://www.w3.org/2000/svg">
<path fill-rule="evenodd" clip-rule="evenodd" d="M7.83685 5.24674C6.65002 5.24674 5.74096 5.60868 5.10966 6.33256C4.47837 7.05645 4.16226 8.08101 4.16132 9.40626C4.16132 10.7474 4.51204 11.7799 5.21348 12.5038C5.91491 13.2277 6.85858 13.5896 8.04447 13.5896C8.59093 13.604 9.13538 13.5179 9.65076 13.3357C10.0834 13.1699 10.5051 12.9769 10.9133 12.7577C11.1712 12.9686 11.3803 13.2328 11.5264 13.5321C11.6784 13.8616 11.7533 14.2215 11.7452 14.5843C11.7452 15.2156 11.395 15.751 10.6945 16.1905C9.994 16.6301 8.92594 16.8494 7.49034 16.8485C6.50277 16.8569 5.52001 16.7101 4.57798 16.4136C3.6959 16.1375 2.88285 15.6765 2.19309 15.0612C1.49328 14.4187 0.945914 13.6278 0.591014 12.7465C0.19821 11.8131 0.00180773 10.6997 0.00180773 9.40626C-0.0208572 8.32057 0.169796 7.241 0.562957 6.22875C0.910391 5.35558 1.43595 4.56439 2.10612 3.9056C2.76414 3.27216 3.548 2.78415 4.40683 2.47326C5.31039 2.14502 6.26528 1.98065 7.2266 1.98787C8.6435 1.98787 9.74101 2.21888 10.5191 2.68089C11.2973 3.1429 11.6896 3.73632 11.6961 4.46113C11.7053 4.83027 11.6005 5.19326 11.3959 5.50066C11.2136 5.77568 10.9779 6.01133 10.7029 6.19368C10.298 5.92989 9.86863 5.70579 9.42069 5.52451C8.9157 5.33027 8.3778 5.23593 7.83685 5.24674ZM18.6305 13.9361C18.9212 13.9335 19.2112 13.9067 19.4975 13.8562C19.7424 13.8241 19.9797 13.7495 20.199 13.6359V11.7841L18.5351 11.9244C18.1645 11.9396 17.8017 12.0354 17.4718 12.205C17.3423 12.2677 17.2337 12.3664 17.159 12.4894C17.0844 12.6123 17.0468 12.7542 17.0509 12.898C17.0475 13.0425 17.0783 13.1858 17.1407 13.3163C17.2031 13.4467 17.2954 13.5605 17.41 13.6485C17.6555 13.8407 18.0596 13.9361 18.6305 13.9361ZM18.4454 4.85394C19.2118 4.84624 19.9763 4.9315 20.7222 5.10786C21.3515 5.25241 21.9475 5.5152 22.4786 5.88224C22.9572 6.2203 23.3432 6.67329 23.6009 7.19954C23.8747 7.78902 24.0081 8.43389 23.9909 9.0836V14.2602C24.0058 14.6179 23.8862 14.9683 23.6556 15.2422C23.4256 15.5017 23.1568 15.7241 22.8588 15.9016C21.8571 16.502 20.4473 16.8022 18.6291 16.8022C17.8867 16.8099 17.1459 16.7327 16.421 16.5721C15.8236 16.4407 15.2539 16.2056 14.7376 15.8777C14.2805 15.5842 13.9062 15.1785 13.6503 14.6993C13.3879 14.1847 13.2573 13.613 13.2702 13.0355C13.2702 11.9721 13.5858 11.1556 14.2171 10.5861C14.8484 10.0165 15.8267 9.66205 17.1519 9.5227L20.1807 9.19863V9.0373C20.1916 8.83625 20.141 8.63666 20.0354 8.46519C19.9299 8.29372 19.7745 8.15855 19.5901 8.07774C19.1973 7.88601 18.6315 7.78968 17.8926 7.78875C17.3171 7.78759 16.7431 7.84969 16.1811 7.97392C15.6685 8.08469 15.1663 8.2391 14.6801 8.43547C14.4585 8.27094 14.2831 8.05206 14.1708 7.79997C14.034 7.52344 13.963 7.21905 13.9632 6.91055C13.945 6.56682 14.0472 6.2275 14.2522 5.95098C14.4942 5.67744 14.7996 5.46742 15.1416 5.33933C15.6532 5.15428 16.1848 5.02998 16.7254 4.96897C17.2958 4.89457 17.8702 4.85615 18.4454 4.85394ZM31.7811 4.85394C32.653 4.84658 33.5212 4.96711 34.3581 5.21167C35.1107 5.42852 35.8082 5.80402 36.4035 6.31292C36.9838 6.82279 37.4405 7.45794 37.7391 8.17033C38.08 9.01664 38.2447 9.92363 38.2231 10.8358C38.2392 11.7168 38.0966 12.5936 37.8022 13.4241C37.5502 14.1229 37.1479 14.7579 36.6238 15.2843C36.1038 15.7924 35.4755 16.1761 34.786 16.4066C34.0195 16.6616 33.2159 16.7877 32.4081 16.7798C31.7793 16.7848 31.1541 16.6833 30.5592 16.4795V20.315C30.3159 20.38 30.069 20.4305 29.8198 20.4665C29.4755 20.5202 29.1274 20.5469 28.7789 20.5465C28.4731 20.5492 28.1676 20.5262 27.8656 20.4777C27.6192 20.4401 27.3854 20.3439 27.1839 20.1971C26.9934 20.0536 26.8475 19.859 26.763 19.636C26.66 19.3352 26.6125 19.0181 26.6227 18.7003V7.60357C26.6069 7.24541 26.6998 6.89084 26.8892 6.58648C27.0858 6.30519 27.3327 6.06263 27.6173 5.87102C28.1674 5.53159 28.7678 5.28158 29.3962 5.1303C30.1762 4.93759 30.9776 4.84473 31.7811 4.85394ZM31.8274 13.6822C33.4173 13.6822 34.2122 12.7348 34.2122 10.84C34.2122 9.8533 34.0158 9.12147 33.623 8.6445C33.2302 8.16752 32.6639 7.92857 31.9242 7.92763C31.6586 7.92408 31.394 7.95905 31.1385 8.03144C30.9285 8.09171 30.7253 8.17401 30.5325 8.27695V13.3581C30.7255 13.4538 30.927 13.5313 31.1343 13.5896C31.3599 13.6528 31.5932 13.684 31.8274 13.6822ZM44.3129 12.5725C44.3129 12.9738 44.4401 13.259 44.6945 13.4283C44.9484 13.598 45.3076 13.6822 45.7691 13.6822C46.0092 13.6813 46.2488 13.662 46.486 13.6247C46.7053 13.5924 46.9216 13.5422 47.1327 13.4746C47.274 13.6469 47.3946 13.8352 47.4918 14.0357C47.5976 14.2715 47.6489 14.528 47.6419 14.7863C47.649 15.0596 47.5932 15.3308 47.4789 15.5791C47.3646 15.8275 47.1948 16.0462 46.9826 16.2186C46.544 16.5927 45.77 16.7798 44.6608 16.7798C43.3038 16.7798 42.2596 16.4716 41.5282 15.8553C40.7969 15.2389 40.4293 14.2373 40.4256 12.8503V2.95866C40.5939 2.91283 40.8366 2.86279 41.1537 2.80855C41.4855 2.75279 41.8216 2.72557 42.1581 2.72718C42.8362 2.72718 43.3641 2.84643 43.742 3.08492C44.1193 3.32481 44.3031 3.82844 44.3031 4.60002V6.07864H47.3319C47.4382 6.28256 47.5269 6.49516 47.597 6.71415C47.6844 6.98607 47.7275 7.27027 47.7247 7.55587C47.7247 8.09551 47.605 8.48457 47.3656 8.72306C47.2388 8.84508 47.0884 8.93988 46.9236 9.00164C46.7588 9.0634 46.5832 9.09081 46.4074 9.08219H44.3031L44.3129 12.5725ZM49.7617 2.08046C49.7551 1.80667 49.8041 1.53439 49.9056 1.28002C50.0071 1.02566 50.159 0.794483 50.3523 0.600429C50.7451 0.200143 51.2637 0 51.9081 0C52.5525 0 53.0724 0.200143 53.4681 0.600429C53.6609 0.794745 53.8124 1.026 53.9137 1.28032C54.0149 1.53465 54.0638 1.8068 54.0573 2.08046C54.0637 2.35391 54.0149 2.62584 53.9136 2.87993C53.8124 3.13402 53.6608 3.36503 53.4681 3.55909C53.0827 3.96031 52.5627 4.16045 51.9081 4.15952C51.2534 4.15858 50.7334 3.95844 50.3481 3.55909C50.1556 3.36499 50.0043 3.13391 49.9036 2.87978C49.8028 2.62566 49.7545 2.35375 49.7617 2.08046ZM53.8721 16.4136C53.7028 16.4445 53.4526 16.487 53.1216 16.5413C52.7889 16.5946 52.4526 16.6214 52.1157 16.6212C51.8113 16.6243 51.5072 16.6018 51.2066 16.5539C50.9602 16.5163 50.7264 16.4201 50.5248 16.2733C50.3346 16.1279 50.1869 15.9341 50.097 15.7122C49.9868 15.4124 49.9359 15.0942 49.9468 14.775V5.37581C50.1171 5.34494 50.3677 5.30286 50.6988 5.24955C51.0308 5.19501 51.3668 5.1678 51.7033 5.16818C52.0091 5.16534 52.3146 5.18833 52.6165 5.23692C52.863 5.27452 53.0968 5.37074 53.2983 5.5175C53.4865 5.66332 53.6319 5.85717 53.7192 6.07864C53.829 6.37415 53.8809 6.68802 53.8721 7.00314V16.4136ZM64.1131 16.133C63.829 16.3356 63.5069 16.4788 63.1661 16.5539C62.7048 16.6669 62.2311 16.7211 61.7562 16.7152C61.2271 16.7259 60.6998 16.6481 60.1962 16.4851C60.0026 16.4283 59.8221 16.3335 59.6653 16.2064C59.5086 16.0792 59.3786 15.9222 59.283 15.7444C59.1436 15.4835 58.9781 15.1178 58.7863 14.6474C58.5946 14.177 58.3903 13.6532 58.1733 13.0762C57.9601 12.4954 57.7375 11.873 57.5055 11.2089C57.2736 10.5449 57.0538 9.89025 56.8462 9.24493C56.6386 8.59774 56.4515 7.97346 56.285 7.37209C56.1186 6.77073 55.9783 6.23951 55.8642 5.77843C56.1167 5.54028 56.4105 5.35013 56.7311 5.21728C57.106 5.0531 57.5115 4.97037 57.9208 4.97458C58.3867 4.95554 58.8482 5.07201 59.2493 5.30987C59.5972 5.53293 59.8539 5.95379 60.0237 6.57246L60.9257 10.1007C61.0959 10.7937 61.2577 11.4212 61.4111 11.9833C61.5645 12.5454 61.68 12.9808 61.7576 13.2894H61.8685C62.1621 12.1484 62.4703 10.8858 62.7929 9.50165C63.1156 8.11749 63.4083 6.75389 63.6712 5.41088C63.9528 5.26474 64.2523 5.15581 64.562 5.08681C64.876 5.01264 65.1974 4.97405 65.5201 4.97178C65.9983 4.95577 66.4712 5.07594 66.8837 5.31829C67.2578 5.54929 67.4449 5.95005 67.4449 6.52055C67.4273 6.88413 67.3689 7.24459 67.2709 7.59515C67.1559 8.06277 67.0095 8.59446 66.8318 9.19022C66.6541 9.78597 66.446 10.4135 66.2075 11.0729C65.969 11.736 65.7264 12.3832 65.4794 13.0144C65.2325 13.6457 64.9898 14.2354 64.7514 14.7835C64.5129 15.3287 64.3001 15.7786 64.1131 16.133ZM74.0061 13.9375C74.2963 13.9349 74.5859 13.9082 74.8717 13.8576C75.1165 13.8255 75.3539 13.751 75.5731 13.6373V11.7841L73.9093 11.9244C73.5387 11.9396 73.1758 12.0354 72.8459 12.205C72.7165 12.2677 72.6078 12.3664 72.5332 12.4894C72.4585 12.6123 72.421 12.7542 72.4251 12.898C72.4214 13.0426 72.4521 13.186 72.5145 13.3164C72.5769 13.4468 72.6693 13.5607 72.7842 13.6485C73.0325 13.8407 73.4365 13.9361 74.0075 13.9361L74.0061 13.9375ZM73.8223 4.85394C74.5888 4.84624 75.3533 4.9315 76.0992 5.10786C76.7303 5.25203 77.3282 5.51482 77.8612 5.88224C78.3398 6.2203 78.7258 6.67329 78.9835 7.19954C79.2575 7.78903 79.3919 8.43374 79.3763 9.0836V14.2602C79.3912 14.6179 79.2716 14.9683 79.041 15.2422C78.8109 15.5017 78.5422 15.7241 78.2442 15.9016C77.2425 16.502 75.8326 16.8022 74.0145 16.8022C73.2721 16.8099 72.5313 16.7327 71.8064 16.5721C71.209 16.4409 70.6392 16.2059 70.123 15.8777C69.6659 15.5842 69.2915 15.1785 69.0357 14.6993C68.7728 14.1848 68.6417 13.6131 68.6542 13.0355C68.6542 11.9721 68.9703 11.1556 69.6025 10.5861C70.2347 10.0165 71.2106 9.66205 72.5303 9.5227L75.5577 9.19863V9.0373C75.5685 8.83645 75.518 8.63705 75.4127 8.46564C75.3074 8.29423 75.1525 8.15893 74.9685 8.07774C74.5757 7.88601 74.0094 7.78968 73.2696 7.78875C72.6945 7.78769 72.121 7.84979 71.5595 7.97392C71.0465 8.08491 70.5439 8.23931 70.057 8.43547C69.8363 8.27045 69.6615 8.05167 69.5492 7.79997C69.4124 7.52344 69.3414 7.21905 69.3416 6.91055C69.3234 6.56682 69.4256 6.2275 69.6305 5.95098C69.8726 5.67744 70.1779 5.46742 70.52 5.33933C71.0311 5.15427 71.5622 5.02996 72.1024 4.96897C72.6727 4.89462 73.2472 4.8562 73.8223 4.85394ZM85.9333 12.5697C85.9333 12.971 86.0596 13.2557 86.3149 13.4255C86.5702 13.5952 86.9266 13.6794 87.3895 13.6794C87.6291 13.6785 87.8683 13.6592 88.105 13.6219C88.3247 13.5894 88.5415 13.5392 88.7531 13.4718C88.894 13.6441 89.014 13.8325 89.1108 14.0329C89.2166 14.2687 89.2679 14.5252 89.2609 14.7835C89.2683 15.0567 89.2128 15.3279 89.0987 15.5762C88.9846 15.8246 88.815 16.0434 88.603 16.2158C88.1625 16.5899 87.3881 16.7769 86.2798 16.7769C84.9237 16.7769 83.8795 16.4688 83.1472 15.8525C82.4149 15.2361 82.0492 14.2354 82.0502 12.8503V2.95866C82.2204 2.91283 82.4631 2.86279 82.7783 2.80855C83.1106 2.75271 83.4471 2.72549 83.7841 2.72718C84.4612 2.72718 84.9887 2.84643 85.3666 3.08492C85.7439 3.32481 85.9277 3.82844 85.9277 4.60002V6.07864H88.9551C89.0634 6.28214 89.1536 6.4948 89.2245 6.71415C89.3124 6.98593 89.3555 7.27023 89.3521 7.55587C89.3521 8.09551 89.2329 8.48457 88.9944 8.72306C88.8672 8.84498 88.7166 8.93971 88.5516 9.00145C88.3866 9.0632 88.2108 9.09067 88.0348 9.08219H85.9305L85.9333 12.5697ZM97.2812 16.7994C96.4245 16.807 95.5721 16.6782 94.756 16.4178C94.0068 16.1801 93.3144 15.7909 92.7218 15.2745C92.129 14.7452 91.663 14.0893 91.3582 13.3553C91.0098 12.5009 90.839 11.5844 90.856 10.6618C90.856 9.64521 91.0215 8.77076 91.3526 8.03846C91.6414 7.36393 92.073 6.76003 92.6177 6.26839C93.1624 5.77675 93.8072 5.40905 94.5077 5.19063C95.1945 4.96758 95.9123 4.85442 96.6344 4.85534C97.3934 4.84586 98.1481 4.97077 98.8636 5.2243C99.5003 5.45146 100.089 5.7965 100.598 6.24138C101.08 6.66932 101.466 7.19543 101.73 7.78454C102.003 8.40286 102.141 9.07248 102.135 9.74856C102.135 10.2732 101.995 10.673 101.696 10.9508C101.352 11.2511 100.924 11.4369 100.47 11.4825L94.7616 12.3453C94.8462 12.5974 94.9824 12.8293 95.1613 13.0261C95.3402 13.2229 95.5581 13.3804 95.8011 13.4886C96.3651 13.7514 96.9817 13.8819 97.6038 13.8702C98.2094 13.8736 98.8124 13.7919 99.3953 13.6275C99.8766 13.5016 100.339 13.3129 100.771 13.0663C101.027 13.2304 101.241 13.4525 101.394 13.7145C101.56 13.9774 101.649 14.2818 101.65 14.5927C101.65 15.2857 101.326 15.8001 100.679 16.1358C100.158 16.4074 99.5952 16.5872 99.0137 16.6675C98.4403 16.7553 97.8612 16.8003 97.2812 16.8022V16.7994ZM96.6344 7.7158C96.3058 7.70964 95.9796 7.77373 95.6777 7.90378C95.427 8.01377 95.2024 8.17534 95.0183 8.37795C94.8509 8.56714 94.7214 8.78668 94.6367 9.02468C94.5534 9.2593 94.5029 9.50431 94.4866 9.75277L98.4399 9.10604C98.3674 8.75168 98.1865 8.42862 97.9223 8.18155C97.6333 7.87105 97.204 7.7158 96.6344 7.7158Z" fill="white"/>
<path fill-rule="evenodd" clip-rule="evenodd" d="M108.607 16.3406C108.344 16.404 108.077 16.4509 107.808 16.4809C107.452 16.5266 107.093 16.5495 106.734 16.5496C106.42 16.5535 106.106 16.5263 105.798 16.4682C105.552 16.4246 105.319 16.3258 105.116 16.1792C104.923 16.0323 104.776 15.8318 104.695 15.6027C104.592 15.2897 104.545 14.9612 104.555 14.6319V2.42689C104.724 2.39602 104.994 2.35347 105.365 2.29922C105.717 2.24724 106.072 2.22052 106.428 2.21926C106.742 2.21563 107.055 2.24241 107.364 2.29922C107.61 2.34344 107.843 2.44218 108.045 2.58822C108.239 2.73573 108.385 2.93663 108.466 3.1662C108.57 3.47909 108.617 3.80767 108.607 4.13699V16.3406ZM111.149 9.40617C111.127 8.31691 111.317 7.23381 111.71 6.21745C112.045 5.35155 112.563 4.5685 113.23 3.92214C113.896 3.27578 114.695 2.78145 115.57 2.47318C117.433 1.82665 119.459 1.82665 121.322 2.47318C122.186 2.78245 122.977 3.26619 123.645 3.89429C124.327 4.54697 124.859 5.33952 125.205 6.21745C125.598 7.23381 125.788 8.31691 125.767 9.40617C125.767 10.9166 125.489 12.1993 124.935 13.2543C124.417 14.2707 123.635 15.129 122.67 15.7387C122.902 15.8468 123.174 15.9632 123.491 16.0866C123.808 16.2101 124.138 16.3322 124.484 16.4556C124.831 16.5791 125.186 16.6983 125.559 16.8133C125.932 16.9284 126.276 17.0336 126.598 17.1262C126.613 17.2063 126.621 17.2875 126.622 17.3689V17.5653C126.622 18.4435 126.395 19.0827 125.94 19.483C125.486 19.8833 124.891 20.0839 124.156 20.0848C123.387 20.0691 122.634 19.8669 121.961 19.4956C121.116 19.0374 120.339 18.4658 119.65 17.7967L118.633 16.8484H118.448C117.455 16.858 116.469 16.6898 115.535 16.3518C114.671 16.0395 113.884 15.547 113.225 14.9068C112.557 14.245 112.037 13.4495 111.699 12.5725C111.315 11.5617 111.129 10.487 111.149 9.40617ZM115.308 9.73304C115.308 11.2472 115.616 12.3775 116.231 13.1238C116.847 13.8701 117.669 14.2442 118.699 14.2461C119.745 14.2461 120.576 13.872 121.192 13.1238C121.807 12.3756 122.115 11.2453 122.115 9.73304C122.115 8.23665 121.811 7.11435 121.204 6.36615C120.597 5.61795 119.771 5.24385 118.724 5.24385C117.695 5.24385 116.869 5.61374 116.244 6.35352C115.619 7.09331 115.307 8.21981 115.308 9.73304Z" fill="#4BBFA9"/>
</svg>
