<svg width="146" height="87" viewBox="0 0 146 87" fill="none" xmlns="http://www.w3.org/2000/svg">
<g clip-path="url(#clip0)">
<path d="M3.71631 75.8401V67.9278H5.34418V75.7928C5.34418 76.9978 5.65652 77.9443 6.28115 78.6321C6.91212 79.3133 7.81439 79.6541 8.988 79.6541C10.1616 79.6541 11.0638 79.3104 11.6948 78.6226C12.3321 77.9348 12.6507 76.9916 12.6507 75.7928V67.9278H14.2786V75.8212C14.2786 77.4681 13.8275 78.7583 12.9252 79.692C12.0229 80.626 10.7105 81.0927 8.988 81.0927C7.27807 81.0927 5.97198 80.626 5.06971 79.692C4.16744 78.7521 3.71631 77.4681 3.71631 75.8401ZM16.5311 79.0296L17.4965 77.7897C17.9634 78.3324 18.5408 78.7805 19.2285 79.1337C19.9226 79.4806 20.6955 79.6541 21.5473 79.6541C22.0962 79.6541 22.5758 79.5847 22.9859 79.4461C23.4023 79.3072 23.721 79.1242 23.9418 78.8972C24.1689 78.6699 24.333 78.4335 24.434 78.1872C24.5412 77.9348 24.5948 77.6729 24.5948 77.4016C24.5948 77.0484 24.5065 76.7392 24.3299 76.4741C24.1595 76.2027 23.926 75.9852 23.6295 75.8212C23.3329 75.6509 22.9922 75.5025 22.6073 75.3763C22.2287 75.2439 21.8281 75.1206 21.4053 75.0071C20.9826 74.8936 20.5567 74.7769 20.1276 74.6569C19.7049 74.5372 19.3011 74.3859 18.9162 74.2026C18.5376 74.0196 18.2001 73.8083 17.9035 73.5686C17.607 73.3227 17.3703 73.0102 17.1936 72.6316C17.0233 72.2468 16.9381 71.8081 16.9381 71.316C16.9381 70.2561 17.3577 69.3915 18.1969 68.723C19.0424 68.0475 20.1087 67.71 21.3959 67.71C23.2888 67.71 24.8125 68.3188 25.9672 69.5366L25.0018 70.7198C24.0869 69.685 22.8408 69.1678 21.2634 69.1678C20.4936 69.1678 19.8563 69.3602 19.3516 69.745C18.8531 70.1237 18.6039 70.6158 18.6039 71.2214C18.6039 71.5306 18.6891 71.8019 18.8594 72.0354C19.0361 72.269 19.2727 72.4614 19.5692 72.6127C19.8658 72.7578 20.2033 72.8902 20.5819 73.0102C20.9668 73.1299 21.3706 73.2467 21.7934 73.3605C22.2224 73.474 22.6483 73.5969 23.0711 73.7293C23.4938 73.8556 23.8945 74.0196 24.273 74.2215C24.6579 74.4172 24.9987 74.6474 25.2952 74.9126C25.5918 75.1712 25.8252 75.5025 25.9956 75.9063C26.1723 76.31 26.2606 76.7709 26.2606 77.2881C26.2606 77.7802 26.1723 78.244 25.9956 78.6794C25.8189 79.1147 25.5508 79.5185 25.1911 79.8909C24.8315 80.2569 24.333 80.5504 23.6957 80.7712C23.0648 80.9854 22.3297 81.0927 21.4905 81.0927C20.4242 81.0927 19.4714 80.9097 18.6322 80.5438C17.7994 80.1717 17.099 79.6669 16.5311 79.0296ZM28.6646 80.8563V67.9278H37.1352V69.3664H30.2735V73.5307H36.9934V74.9598H30.2735V79.4177H37.1352V80.8563H28.6646ZM39.7002 80.8563V67.9278H44.8961C46.095 67.9278 47.073 68.2843 47.83 68.9972C48.5873 69.7039 48.9659 70.6471 48.9659 71.827C48.9659 72.3886 48.871 72.9029 48.6818 73.37C48.4989 73.8366 48.2497 74.2247 47.934 74.5339C47.6186 74.8369 47.2589 75.0799 46.8552 75.2628C46.4576 75.4392 46.035 75.5465 45.5868 75.5844L49.0794 80.8563H47.1771L43.9024 75.7171H41.309V80.8563H39.7002ZM41.309 74.3069H44.6972C45.4606 74.3069 46.0855 74.0767 46.5711 73.6159C47.057 73.1554 47.3 72.5592 47.3 71.827C47.3 71.0952 47.057 70.502 46.5711 70.0477C46.0917 69.5934 45.4672 69.3664 44.6972 69.3664H41.309V74.3069ZM50.7358 79.0296L51.7012 77.7897C52.1678 78.3324 52.7454 78.7805 53.4329 79.1337C54.1272 79.4806 54.9002 79.6541 55.7517 79.6541C56.3009 79.6541 56.7803 79.5847 57.1902 79.4461C57.6067 79.3072 57.9253 79.1242 58.1465 78.8972C58.3734 78.6699 58.5375 78.4335 58.6386 78.1872C58.7459 77.9348 58.7994 77.6729 58.7994 77.4016C58.7994 77.0484 58.711 76.7392 58.5342 76.4741C58.364 76.2027 58.1305 75.9852 57.834 75.8212C57.5376 75.6509 57.1968 75.5025 56.8119 75.3763C56.4333 75.2439 56.0325 75.1206 55.6098 75.0071C55.1871 74.8936 54.7612 74.7769 54.332 74.6569C53.9094 74.5372 53.5056 74.3859 53.1208 74.2026C52.7422 74.0196 52.4046 73.8083 52.1078 73.5686C51.8114 73.3227 51.5749 73.0102 51.3982 72.6316C51.2279 72.2468 51.1425 71.8081 51.1425 71.316C51.1425 70.2561 51.5622 69.3915 52.4013 68.723C53.247 68.0475 54.3131 67.71 55.6003 67.71C57.4932 67.71 59.0169 68.3188 60.1717 69.5366L59.2064 70.7198C58.2916 69.685 57.0451 69.1678 55.4679 69.1678C54.6979 69.1678 54.0607 69.3602 53.5562 69.745C53.0575 70.1237 52.8083 70.6158 52.8083 71.2214C52.8083 71.5306 52.8935 71.8019 53.064 72.0354C53.2405 72.269 53.4772 72.4614 53.7737 72.6127C54.0701 72.7578 54.4077 72.8902 54.7863 73.0102C55.1711 73.1299 55.5752 73.2467 55.9979 73.3605C56.4267 73.474 56.8527 73.5969 57.2757 73.7293C57.6983 73.8556 58.0988 74.0196 58.4774 74.2215C58.8623 74.4172 59.2031 74.6474 59.4995 74.9126C59.7963 75.1712 60.0299 75.5025 60.2001 75.9063C60.3769 76.31 60.4652 76.7709 60.4652 77.2881C60.4652 77.7802 60.3769 78.244 60.2001 78.6794C60.0233 79.1147 59.7552 79.5185 59.3955 79.8909C59.0358 80.2569 58.5375 80.5504 57.9002 80.7712C57.2691 80.9854 56.534 81.0927 55.6949 81.0927C54.6288 81.0927 53.6758 80.9097 52.8367 80.5438C52.0038 80.1717 51.3036 79.6669 50.7358 79.0296ZM67.6675 80.8563V67.9278H69.2766V79.4177H75.2865V80.8563H67.6675ZM77.0466 77.818C76.5167 76.8021 76.2519 75.6633 76.2519 74.4015C76.2519 73.1394 76.5167 72.0005 77.0466 70.9846C77.5831 69.9691 78.3404 69.1707 79.3181 68.5902C80.3024 68.0035 81.4194 67.71 82.6688 67.71C83.9178 67.71 85.0349 68.0035 86.0191 68.5902C87.0034 69.1707 87.7636 69.9691 88.3001 70.9846C88.8362 72.0005 89.1046 73.1394 89.1046 74.4015C89.1046 75.6633 88.8362 76.8021 88.3001 77.818C87.7636 78.8339 87.0034 79.6352 86.0191 80.2219C85.0349 80.8024 83.9178 81.0927 82.6688 81.0927C81.4194 81.0927 80.3024 80.8024 79.3181 80.2219C78.3404 79.6352 77.5831 78.8339 77.0466 77.818ZM77.9268 74.4015C77.9268 75.3985 78.1163 76.2944 78.495 77.0895C78.8798 77.8842 79.4349 78.512 80.1605 78.9729C80.8862 79.4272 81.7224 79.6541 82.6688 79.6541C83.6152 79.6541 84.4511 79.4272 85.1767 78.9729C85.9085 78.512 86.4669 77.8842 86.8521 77.0895C87.2431 76.2944 87.4388 75.3985 87.4388 74.4015C87.4388 72.8746 87.0001 71.619 86.1231 70.6347C85.2462 69.6439 84.0946 69.1489 82.6688 69.1489C81.2364 69.1489 80.0881 69.641 79.2235 70.6253C78.3593 71.6095 77.9268 72.8684 77.9268 74.4015ZM89.8616 67.9278H91.7071L96.0704 79.0958L100.433 67.9278H102.269L97.0736 80.8563H95.0764L89.8616 67.9278ZM103.964 80.8563V67.9278H112.434V69.3664H105.573V73.5307H112.292V74.9598H105.573V79.4177H112.434V80.8563H103.964ZM120.015 75.8401V67.9278H121.643V75.7928C121.643 76.9978 121.956 77.9443 122.58 78.6321C123.211 79.3133 124.113 79.6541 125.287 79.6541C126.46 79.6541 127.363 79.3104 127.994 78.6226C128.631 77.9348 128.95 76.9916 128.95 75.7928V67.9278H130.578V75.8212C130.578 77.4681 130.127 78.7583 129.224 79.692C128.322 80.626 127.01 81.0927 125.287 81.0927C123.577 81.0927 122.271 80.626 121.369 79.692C120.467 78.7521 120.015 77.4681 120.015 75.8401ZM132.83 79.0296L133.795 77.7897C134.262 78.3324 134.84 78.7805 135.528 79.1337C136.222 79.4806 136.994 79.6541 137.846 79.6541C138.395 79.6541 138.875 79.5847 139.285 79.4461C139.701 79.3072 140.02 79.1242 140.241 78.8972C140.468 78.6699 140.632 78.4335 140.733 78.1872C140.84 77.9348 140.894 77.6729 140.894 77.4016C140.894 77.0484 140.806 76.7392 140.629 76.4741C140.459 76.2027 140.225 75.9852 139.928 75.8212C139.632 75.6509 139.291 75.5025 138.906 75.3763C138.528 75.2439 138.127 75.1206 137.704 75.0071C137.281 74.8936 136.856 74.7769 136.427 74.6569C136.004 74.5372 135.6 74.3859 135.215 74.2026C134.836 74.0196 134.499 73.8083 134.202 73.5686C133.906 73.3227 133.669 73.0102 133.493 72.6316C133.322 72.2468 133.237 71.8081 133.237 71.316C133.237 70.2561 133.657 69.3915 134.496 68.723C135.341 68.0475 136.408 67.71 137.695 67.71C139.588 67.71 141.112 68.3188 142.266 69.5366L141.301 70.7198C140.386 69.685 139.14 69.1678 137.562 69.1678C136.793 69.1678 136.155 69.3602 135.65 69.745C135.152 70.1237 134.903 70.6158 134.903 71.2214C134.903 71.5306 134.988 71.8019 135.158 72.0354C135.335 72.269 135.572 72.4614 135.868 72.6127C136.165 72.7578 136.502 72.8902 136.881 73.0102C137.266 73.1299 137.67 73.2467 138.093 73.3605C138.521 73.474 138.947 73.5969 139.37 73.7293C139.793 73.8556 140.193 74.0196 140.572 74.2215C140.957 74.4172 141.298 74.6474 141.594 74.9126C141.891 75.1712 142.124 75.5025 142.295 75.9063C142.471 76.31 142.56 76.7709 142.56 77.2881C142.56 77.7802 142.471 78.244 142.295 78.6794C142.118 79.1147 141.85 79.5185 141.49 79.8909C141.13 80.2569 140.632 80.5504 139.995 80.7712C139.364 80.9854 138.629 81.0927 137.79 81.0927C136.723 81.0927 135.771 80.9097 134.931 80.5438C134.098 80.1717 133.398 79.6669 132.83 79.0296Z" fill="#0F3B45"/>
<path d="M16.4739 46.8321C16.4739 46.9823 16.3838 47.1325 16.2034 47.3129L12.5959 50.8302L13.4377 55.7904C13.4377 55.8507 13.4377 55.9108 13.4377 56.001C13.4377 56.1512 13.4076 56.2716 13.3475 56.3618C13.2874 56.452 13.1671 56.512 13.0469 56.512C12.9266 56.512 12.7763 56.4818 12.6561 56.3916L8.20692 54.0168L3.75773 56.3618C3.60743 56.452 3.48718 56.4818 3.36694 56.4818C3.21663 56.4818 3.12644 56.4218 3.06632 56.3316C3.00619 56.2414 2.97613 56.121 2.97613 55.9708C2.97613 55.941 2.97613 55.8507 3.00619 55.7605L3.84794 50.8004L0.240495 47.2831C0.0601235 47.1027 0 46.9521 0 46.8019C0 46.5615 0.180372 46.4112 0.571177 46.3509L5.56147 45.6296L7.78605 41.1204C7.9063 40.8498 8.08667 40.6992 8.26704 40.6992C8.44742 40.6992 8.62779 40.8498 8.74804 41.1204L10.9726 45.6296L15.9629 46.3509C16.2936 46.4411 16.4739 46.5916 16.4739 46.8321Z" fill="#0F3B45"/>
<path d="M48.6093 46.8321C48.6093 46.9823 48.5191 47.1325 48.3387 47.3129L44.7312 50.8302L45.5729 55.7904C45.5729 55.8507 45.5729 55.9108 45.5729 56.001C45.5729 56.1512 45.543 56.2716 45.4827 56.3618C45.4226 56.452 45.3022 56.512 45.1822 56.512C45.0618 56.512 44.9116 56.4818 44.7912 56.3916L40.3421 54.0168L35.893 56.3618C35.7427 56.452 35.6224 56.4818 35.5022 56.4818C35.3519 56.4818 35.2617 56.4218 35.2016 56.3316C35.1414 56.2414 35.1114 56.121 35.1114 55.9708C35.1114 55.941 35.1114 55.8507 35.1414 55.7605L35.9832 50.8004L32.3758 47.2831C32.1954 47.1027 32.1353 46.9521 32.1353 46.8019C32.1353 46.5615 32.3156 46.4112 32.7064 46.3509L37.6967 45.6296L39.9212 41.1204C40.0416 40.8498 40.222 40.6992 40.4024 40.6992C40.5825 40.6992 40.7629 40.8498 40.8833 41.1204L43.1079 45.6296L48.0982 46.3509C48.4289 46.4411 48.6093 46.5916 48.6093 46.8321Z" fill="#0F3B45"/>
<path d="M81.2547 46.8321C81.2547 46.9823 81.1645 47.1325 80.9841 47.3129L77.377 50.8302L78.2187 55.7904C78.2187 55.8507 78.2187 55.9108 78.2187 56.001C78.2187 56.1512 78.1885 56.2716 78.1285 56.3618C78.0681 56.452 77.948 56.512 77.8276 56.512C77.7076 56.512 77.557 56.4818 77.437 56.3916L72.9879 54.0168L68.5387 56.3618C68.3881 56.452 68.2681 56.4818 68.1477 56.4818C67.9975 56.4818 67.9073 56.4218 67.8473 56.3316C67.7869 56.2414 67.757 56.121 67.757 55.9708C67.757 55.941 67.7571 55.8507 67.7869 55.7605L68.6289 50.8004L65.0214 47.2831C64.841 47.1027 64.781 46.9521 64.781 46.8019C64.781 46.5615 64.9611 46.4112 65.3521 46.3509L70.3424 45.6296L72.567 41.1204C72.6871 40.8498 72.8675 40.6992 73.0479 40.6992C73.2283 40.6992 73.4087 40.8498 73.5287 41.1204L75.7533 45.6296L80.7437 46.3509C81.0743 46.4411 81.2547 46.5916 81.2547 46.8321Z" fill="#0F3B45"/>
<path d="M113.39 46.8321C113.39 46.9823 113.3 47.1325 113.119 47.3129L109.512 50.8302L110.354 55.7904C110.354 55.8507 110.354 55.9108 110.354 56.001C110.354 56.1512 110.323 56.2716 110.263 56.3618C110.203 56.452 110.083 56.512 109.963 56.512C109.843 56.512 109.692 56.4818 109.572 56.3916L105.123 54.0168L100.674 56.3618C100.523 56.452 100.403 56.4818 100.283 56.4818C100.132 56.4818 100.042 56.4218 99.9823 56.3316C99.9222 56.2414 99.8921 56.121 99.8921 55.9708C99.8921 55.941 99.8921 55.8507 99.9222 55.7605L100.764 50.8004L97.1564 47.2831C96.976 47.1027 96.916 46.9521 96.916 46.8019C96.916 46.5615 97.0964 46.4112 97.4871 46.3509L102.477 45.6296L104.702 41.1204C104.822 40.8498 105.002 40.6992 105.183 40.6992C105.363 40.6992 105.544 40.8498 105.664 41.1204L107.889 45.6296L112.879 46.3509C113.209 46.4411 113.39 46.5916 113.39 46.8321Z" fill="#0F3B45"/>
<path d="M145.525 46.8321C145.525 46.9823 145.435 47.1325 145.255 47.3129L141.648 50.8302L142.489 55.7904C142.489 55.8507 142.489 55.9108 142.489 56.001C142.489 56.1512 142.459 56.2716 142.399 56.3618C142.339 56.452 142.219 56.512 142.098 56.512C141.978 56.512 141.828 56.4818 141.708 56.3916L137.258 54.0168L132.809 56.3618C132.659 56.452 132.539 56.4818 132.419 56.4818C132.268 56.4818 132.178 56.4218 132.118 56.3316C132.058 56.2414 132.028 56.121 132.028 55.9708C132.028 55.941 132.028 55.8507 132.058 55.7605L132.899 50.8004L129.292 47.2831C129.112 47.1027 129.052 46.9521 129.052 46.8019C129.052 46.5615 129.232 46.4112 129.623 46.3509L134.613 45.6296L136.838 41.1204C136.958 40.8498 137.138 40.6992 137.318 40.6992C137.499 40.6992 137.679 40.8498 137.8 41.1204L140.024 45.6296L145.014 46.3509C145.345 46.4411 145.525 46.5916 145.525 46.8321Z" fill="#0F3B45"/>
<path fill-rule="evenodd" clip-rule="evenodd" d="M39.3463 7.29581C39.0164 7.66449 38.6283 8.03316 38.2209 8.44065L36.6103 9.97352H41.2868V11.8751H33.758V10.8855L36.3776 7.72268C36.8628 7.23761 37.2702 6.81074 37.5611 6.44206C37.8521 6.09277 38.2017 5.6659 38.3566 5.39427C38.5508 5.08379 39.5402 4.13299 39.4434 2.94938C39.0164 1.62992 37.7939 1.51349 37.0759 1.61051C36.3387 1.62992 35.485 2.61951 35.3491 3.47327C35.3491 3.47327 34.0103 3.27924 33.7192 3.14341C33.7386 2.77474 34.379 1.16423 35.6208 0.446286C36.2223 0.174635 36.6103 0.03881 37.3091 0.03881C37.8521 0.03881 38.3373 0.116423 38.7836 0.25225C39.2299 0.388075 39.5984 0.601515 39.909 0.873171C40.2196 1.14482 40.7434 1.47469 40.8987 1.88217C41.1508 2.40607 41.345 2.94937 41.345 3.49268C41.4032 4.69572 40.3746 5.87934 40.1807 6.18982C39.9479 6.57788 39.6762 6.94656 39.3463 7.29581ZM30.6146 32.5595C21.6889 32.5595 14.4707 25.3219 14.4707 16.4156C14.4707 7.48986 21.7083 0.271655 30.6146 0.271655V5.97638C24.8517 5.97638 20.1754 10.6527 20.1754 16.4156C20.1754 22.1785 24.8517 26.8742 30.6146 26.8742C35.1939 26.8742 39.0746 23.9248 40.491 19.8306C37.6972 19.8306 33.7386 19.8113 33.7386 19.8113V13.8349C33.7386 13.8349 45.9437 13.8349 46.5646 13.8349C46.7002 14.6692 46.7781 15.5424 46.7781 16.4156C46.7584 25.3413 39.5402 32.5595 30.6146 32.5595ZM52.1915 0H53.2783V32.2879H52.1915V0ZM67.9668 23.8472C67.0357 24.4099 65.8714 24.701 64.5128 24.701C63.0965 24.701 61.9129 24.4681 61.001 23.9831C60.0695 23.498 59.4679 22.8382 59.1576 21.9845C58.8666 21.1307 58.7113 19.8501 58.7113 18.1425V13.0393C58.7113 11.7781 58.7502 10.8467 58.847 10.2064C58.9441 9.58546 59.2158 8.96453 59.6814 8.38242C60.1473 7.80031 60.7682 7.33462 61.583 7.00475C62.3981 6.67489 63.3292 6.50026 64.3772 6.50026C65.8132 6.50026 66.9967 6.75251 67.9279 7.27642C68.8594 7.8003 69.461 8.44065 69.7713 9.21678C70.0626 9.99294 70.1208 9.76008 70.1208 11.39V12.7483L66.1623 12.6901V11.5064C66.1623 10.6139 66.0652 10.0511 65.8517 9.81832C65.6386 9.60488 65.1923 9.48845 64.5128 9.48845C63.7173 9.48845 63.2325 9.62427 63.019 9.89594C62.8055 10.1676 62.7084 10.7497 62.7084 11.6422V19.6172C62.7084 20.471 62.8055 21.0337 63.019 21.3054C63.2325 21.577 63.6981 21.6934 64.4546 21.6934C65.1726 21.6934 65.6189 21.5576 65.8517 21.3054C66.0652 21.0337 66.1816 20.6844 66.1816 19.7142L66.1623 18.453H70.1401V18.7246C70.1401 20.5292 70.0819 21.1113 69.8102 21.8487C69.4999 22.6054 68.8983 23.2845 67.9668 23.8472ZM79.2792 11.1184C79.2792 10.5751 79.0075 9.93475 78.4837 9.76008C77.9599 9.58546 77.2808 9.50784 75.8838 9.50784V14.4558C77.2419 14.4558 77.921 14.3782 78.4448 14.2424C78.9882 14.1066 79.2599 12.8453 79.2599 12.0692V11.1184H79.2792ZM79.2792 18.9381C79.2792 18.0067 79.0853 17.444 78.6972 17.2111C78.3091 16.9977 77.5522 16.8813 75.903 16.8813V24.4293H72.0028L72.061 6.88832H75.5731C77.921 6.88832 79.512 6.96594 80.3464 7.14061C81.1808 7.31523 81.8598 7.72269 82.384 8.40184C82.9078 9.08096 83.1795 10.1676 83.1795 11.6617C83.1795 13.0199 82.9467 14.2424 82.5975 14.7081C82.2287 15.1737 81.5107 15.4648 80.4435 15.5618C81.4135 15.7947 82.0734 16.0857 82.4033 16.4544C82.7332 16.8231 82.9467 17.1723 83.0241 17.4828C83.102 17.7932 83.1987 18.3172 83.1987 19.7336V24.3323L79.3181 24.4293V18.9381H79.2792ZM93.1722 11.39C93.1722 10.5751 93.0365 10.0706 92.7841 9.8377C92.5321 9.60488 91.9886 9.50784 91.1932 9.50784C90.5141 9.50784 89.9903 9.60488 89.6215 9.77951C89.2527 9.95413 89.0781 10.4974 89.0781 11.39V19.5008C89.0781 20.5098 89.1945 21.1307 89.4273 21.3636C89.6604 21.5964 90.2231 21.7128 91.0768 21.7128C91.9694 21.7128 92.5321 21.577 92.7841 21.3054C93.0365 21.0337 93.1529 20.3934 93.1529 19.365V11.39H93.1722ZM96.2188 22.8188C95.7336 23.4203 95.0545 23.886 94.2201 24.2159C93.3857 24.5458 92.3964 24.701 91.2706 24.701C90.2034 24.701 89.2527 24.5458 88.399 24.2353C87.5453 23.9248 86.8662 23.4786 86.3617 22.8576C85.8376 22.2561 85.5466 21.577 85.4495 20.8591C85.3527 20.1411 85.2945 18.8799 85.2945 17.0753V14.0871C85.2945 12.3408 85.3331 11.0989 85.4302 10.3616C85.5273 9.62427 85.8183 8.96453 86.3228 8.36303C86.8273 7.76149 87.4871 7.29581 88.3215 6.96594C89.1559 6.63608 90.1453 6.48087 91.2706 6.48087C92.3378 6.48087 93.2886 6.63608 94.1426 6.94656C94.9963 7.257 95.6754 7.7033 96.1799 8.32422C96.6844 8.92572 96.995 9.60488 97.0918 10.3228C97.1889 11.0407 97.2471 12.302 97.2471 14.0871V17.0947C97.2471 18.841 97.2082 20.0829 97.1114 20.8202C97.0143 21.5576 96.7233 22.2173 96.2188 22.8188ZM110.694 24.3323C110.131 21.6546 108.812 15.0767 108.366 11.6422C108.171 13.117 106.619 19.6948 105.901 24.3323H101.632L98.3143 6.86894H102.059L103.126 12.9617L103.903 20.1993C104.077 17.1529 105.63 11.7975 106.367 6.86894H110.713C110.772 7.37343 111.509 9.2944 111.8 12.6318L112.887 20.0829C113.178 15.8529 114.167 10.9049 114.827 6.86894H118.3L114.73 24.3323H110.694ZM127.09 11.9139C127.09 11.1377 127.032 10.6333 126.915 10.4004C126.799 10.187 126.508 10.0123 126.062 9.91532C125.615 9.81832 124.8 9.76008 123.578 9.76008V21.4217C125.188 21.4217 126.159 21.2859 126.547 21.0337C126.915 20.7814 127.11 20.0635 127.11 18.8993V11.9139H127.09ZM130.641 22.2949C130.486 22.8188 130.195 23.2457 129.787 23.5368C129.38 23.8278 128.895 24.0413 128.293 24.1577C127.711 24.2741 127.09 24.3323 125.887 24.3323H119.62V6.86894H123.345C125.751 6.86894 127.11 6.96594 127.944 7.17938C128.798 7.37343 129.438 7.7033 129.884 8.16898C130.331 8.63467 130.602 9.13916 130.719 9.70189C130.835 10.2646 130.874 11.3706 130.874 13.0199V19.1321C130.893 20.7038 130.816 21.7516 130.641 22.2949Z" fill="#164854"/>
</g>
<defs>
<clipPath id="clip0">
<rect width="145.856" height="86.2041" fill="white"/>
</clipPath>
</defs>
</svg>
