<svg width="146" height="87" viewBox="0 0 146 87" fill="none" xmlns="http://www.w3.org/2000/svg">
<g clip-path="url(#clip0)">
<path d="M0.864746 12.4311L13.9875 12.4337L21.9671 12.4351V4.48828L0.864746 12.4311Z" fill="#286371"/>
<path d="M21.967 4.48781V32.5441L31.9333 0.735352L21.967 4.48781Z" fill="#164854"/>
<path d="M21.9668 12.434L13.9873 12.4326L21.9668 32.5434V12.434Z" fill="#42707C"/>
<path d="M0.864746 12.4307L16.0338 17.5935L13.9875 12.4333L0.864746 12.4307Z" fill="#164854"/>
<path d="M49.2061 25.1583C49.0904 25.2746 48.8977 25.4197 48.6281 25.594C48.3579 25.7685 48.0065 25.9428 47.573 26.1172C47.1394 26.2913 46.6091 26.4412 45.9831 26.5676C45.3567 26.6932 44.6391 26.7563 43.8298 26.7563C42.269 26.7563 40.92 26.5044 39.7833 26.001C38.6459 25.4977 37.7068 24.7949 36.9651 23.8944C36.223 22.9936 35.6788 21.9285 35.332 20.6981C34.9852 19.4681 34.8118 18.1171 34.8118 16.6448C34.8118 15.173 34.9996 13.8118 35.3754 12.5625C35.7511 11.313 36.3147 10.2335 37.0662 9.32262C37.8177 8.41242 38.7572 7.70045 39.8844 7.18694C41.0116 6.67404 42.3363 6.41699 43.8589 6.41699C44.6104 6.41699 45.2895 6.48501 45.8965 6.62035C46.5036 6.75599 47.0332 6.91596 47.4864 7.09979C47.9389 7.28412 48.3146 7.47745 48.6136 7.68092C48.9122 7.88428 49.1384 8.05418 49.293 8.18934C49.4662 8.34469 49.6153 8.52856 49.7408 8.74137C49.8659 8.95481 49.9288 9.18727 49.9288 9.43883C49.9288 9.82653 49.7841 10.2138 49.4953 10.6011C49.2061 10.9888 48.8882 11.3471 48.5412 11.6762C48.3099 11.4437 48.0498 11.2068 47.761 10.9644C47.4718 10.7223 47.1488 10.5094 46.7928 10.3251C46.4359 10.1413 46.0311 9.98639 45.5786 9.86021C45.1258 9.73443 44.6198 9.67129 44.0611 9.67129C43.0783 9.67129 42.2549 9.87018 41.59 10.2669C40.9251 10.6642 40.3904 11.1822 39.9855 11.8215C39.5811 12.4608 39.2919 13.1921 39.1184 14.0152C38.9453 14.8388 38.8583 15.6764 38.8583 16.5287C38.8583 17.4393 38.9453 18.311 39.1184 19.1436C39.2919 19.9766 39.5905 20.7128 40.0146 21.3518C40.438 21.991 40.9923 22.5045 41.6765 22.8918C42.3603 23.2795 43.2129 23.473 44.2346 23.473C44.7737 23.473 45.2702 23.4053 45.723 23.2697C46.1755 23.1342 46.5756 22.9694 46.9226 22.7754C47.2696 22.5822 47.573 22.3789 47.833 22.1656C48.0931 21.9525 48.3099 21.7687 48.4834 21.6134C48.599 21.7492 48.7336 21.914 48.8882 22.1074C49.0435 22.3029 49.1879 22.5066 49.3218 22.7176C49.4564 22.931 49.572 23.1439 49.6684 23.3566C49.7648 23.5701 49.8128 23.7636 49.8128 23.9377C49.8128 24.1898 49.7648 24.4028 49.6684 24.577C49.5716 24.7514 49.4178 24.9453 49.2061 25.1583ZM64.1016 22.9298C64.1016 24.4694 64.3242 25.59 64.7705 26.2915C64.4213 26.4277 64.0965 26.5252 63.7961 26.5837C63.4956 26.6423 63.1806 26.6714 62.8511 26.6714C62.1534 26.6714 61.6249 26.5349 61.2667 26.2622C60.9077 25.9896 60.68 25.5998 60.5832 25.0929C60.1566 25.5416 59.5942 25.9214 58.8966 26.2333C58.1986 26.5445 57.3453 26.7008 56.3378 26.7008C55.8144 26.7008 55.2909 26.6278 54.7675 26.4826C54.2441 26.3362 53.7687 26.0987 53.3424 25.7689C52.9158 25.4383 52.567 24.9964 52.2956 24.4427C52.0239 23.889 51.8886 23.2141 51.8886 22.4178C51.8886 21.4271 52.1258 20.6206 52.6012 19.9993C53.0758 19.3774 53.672 18.887 54.3896 18.5275C55.1065 18.1684 55.882 17.9212 56.7157 17.7849C57.549 17.6487 58.315 17.5616 59.013 17.5223C59.2458 17.5031 59.4731 17.493 59.6964 17.493H60.3213V16.961C60.3213 16.2119 60.1224 15.6797 59.7252 15.3646C59.3276 15.0494 58.6831 14.8914 57.7916 14.8914C56.9579 14.8914 56.2163 15.028 55.567 15.3006C54.9174 15.5738 54.2827 15.8853 53.6625 16.2361C53.3908 15.9049 53.1726 15.5396 53.0082 15.1399C52.8434 14.7408 52.7612 14.4434 52.7612 14.2484C52.7612 13.9757 52.9111 13.7126 53.2119 13.4591C53.5119 13.2061 53.924 12.9768 54.4478 12.7722C54.9712 12.5675 55.5717 12.4022 56.2505 12.2753C56.9288 12.1487 57.6461 12.0853 58.4023 12.0853C59.4491 12.0853 60.3359 12.1926 61.063 12.4068C61.7901 12.6215 62.3811 12.9526 62.8369 13.4006C63.2919 13.8492 63.6171 14.4092 63.811 15.0814C64.0045 15.7538 64.1016 16.5385 64.1016 17.4345V22.9298ZM60.3795 19.5391H59.9725C59.8365 19.5391 59.7008 19.5492 59.5655 19.5685C59.0807 19.6077 58.6005 19.6661 58.1259 19.7436C57.6508 19.8218 57.2289 19.9582 56.8612 20.153C56.4927 20.348 56.1923 20.6015 55.9598 20.9129C55.7271 21.2249 55.6107 21.6246 55.6107 22.1116C55.6107 22.6572 55.7656 23.1198 56.0759 23.4999C56.3858 23.88 56.9092 24.07 57.6461 24.07C58.0142 24.07 58.3634 24.0216 58.6929 23.9236C59.0225 23.8266 59.3131 23.6999 59.5655 23.5439C59.8172 23.388 60.0162 23.2176 60.1617 23.0322C60.3068 22.8472 60.3795 22.6769 60.3795 22.5208V19.5391ZM71.3416 13.7805C71.6508 13.4106 72.1342 13.0352 72.7911 12.6551C73.448 12.2751 74.2791 12.0851 75.2841 12.0851C75.9992 12.0851 76.6805 12.207 77.3279 12.4504C77.975 12.6943 78.55 13.089 79.0524 13.6343C79.555 14.1801 79.9559 14.9013 80.2559 15.7975C80.5553 16.694 80.7051 17.7953 80.7051 19.1005C80.7051 20.6205 80.5309 21.8729 80.1832 22.8568C79.8351 23.8412 79.3863 24.6207 78.8356 25.1954C78.2849 25.7703 77.6709 26.1747 76.9947 26.4084C76.3186 26.6423 75.642 26.7594 74.9658 26.7594C74.4053 26.7594 73.9172 26.6959 73.5018 26.5694C73.0861 26.4424 72.7336 26.3016 72.4437 26.1454C72.1539 25.9897 71.9316 25.834 71.7774 25.6777C71.6228 25.522 71.526 25.4145 71.4875 25.356V32.5417H67.5327V12.4942C67.6298 12.4751 67.7473 12.4555 67.8844 12.4359C68.0015 12.4168 68.1383 12.402 68.2947 12.392C68.4507 12.3824 68.6366 12.3774 68.8512 12.3774C69.4953 12.3774 70.0424 12.4848 70.4916 12.699C70.9408 12.9137 71.2245 13.274 71.3416 13.7805ZM76.5761 19.1881C76.5761 18.6036 76.5277 18.0583 76.4313 17.5514C76.3349 17.0449 76.176 16.6063 75.9545 16.236C75.7326 15.8659 75.4336 15.5783 75.0579 15.3735C74.6818 15.169 74.2242 15.0668 73.6848 15.0668C72.8751 15.0668 72.3113 15.2229 71.9931 15.5343C71.6752 15.8463 71.5162 16.1876 71.5162 16.5575V22.7546C71.6701 22.9108 71.9447 23.0956 72.3397 23.31C72.7351 23.5246 73.1927 23.6313 73.7135 23.6313C74.6967 23.6313 75.4194 23.242 75.8821 22.4623C76.3447 21.6829 76.5761 20.5913 76.5761 19.1881ZM83.7576 24.2162C83.6215 23.8266 83.5342 23.4171 83.4957 22.9884C83.4568 22.5599 83.4375 22.1313 83.4375 21.702V8.13878C83.5728 8.11965 83.7183 8.10005 83.8736 8.08033C84.0089 8.0612 84.1544 8.04669 84.3097 8.03654C84.4647 8.02697 84.6196 8.02199 84.7749 8.02199C85.0848 8.02199 85.3955 8.05127 85.7057 8.10961C86.0153 8.16817 86.2968 8.28507 86.5488 8.46032C86.8005 8.63571 87.0042 8.87468 87.1595 9.17651C87.3145 9.47884 87.392 9.87359 87.392 10.3603V12.4357H91.4632V15.3883H87.392V21.6218C87.392 22.9811 87.9445 23.6606 89.0499 23.6606C89.3208 23.6606 89.5776 23.617 89.8202 23.5291C90.0625 23.4414 90.2804 23.3441 90.4746 23.2369C90.6681 23.1297 90.8379 23.0177 90.9834 22.9007C91.1289 22.7837 91.2304 22.6962 91.2886 22.6377C91.5796 23.0667 91.8022 23.438 91.9575 23.7514C92.1125 24.0651 92.1899 24.3595 92.1899 24.6346C92.1899 24.8906 92.0884 25.1416 91.8848 25.3873C91.6811 25.633 91.3948 25.8596 91.0267 26.066C90.6586 26.2724 90.2127 26.4396 89.6893 26.5675C89.1659 26.6954 88.5937 26.7594 87.9736 26.7594C86.7714 26.7594 85.8363 26.5255 85.1674 26.0579C84.4989 25.59 84.0285 24.9761 83.7576 24.2162ZM101.479 23.8361C101.965 23.8361 102.393 23.7827 102.763 23.6753C103.133 23.5685 103.463 23.4368 103.755 23.2809C104.047 23.1252 104.3 22.9546 104.514 22.7694C104.728 22.5843 104.922 22.4139 105.098 22.2576C105.331 22.5498 105.574 22.9253 105.827 23.3829C106.08 23.8412 106.206 24.2162 106.206 24.5084C106.206 24.9372 105.964 25.327 105.48 25.6777C105.073 25.9897 104.495 26.2577 103.749 26.4814C103.003 26.7054 102.126 26.8176 101.118 26.8176C100.206 26.8176 99.31 26.7008 98.4279 26.4669C97.5459 26.2332 96.7606 25.8238 96.0728 25.2391C95.3842 24.6547 94.827 23.8704 94.4003 22.8862C93.974 21.9021 93.7609 20.6601 93.7609 19.1591C93.7609 17.9312 93.95 16.8745 94.3276 15.9875C94.7059 15.101 95.2096 14.3653 95.8403 13.7806C96.4696 13.196 97.1821 12.7676 97.9773 12.4943C98.772 12.2218 99.5864 12.0852 100.42 12.0852C101.505 12.0852 102.426 12.256 103.182 12.5967C103.938 12.9379 104.553 13.396 105.029 13.9706C105.504 14.5455 105.848 15.2032 106.061 15.9437C106.274 16.6845 106.381 17.4637 106.381 18.2822V18.6914C106.381 18.8477 106.376 19.0129 106.366 19.1883C106.357 19.3638 106.347 19.5346 106.337 19.6998C106.327 19.8658 106.313 19.9972 106.294 20.0945H97.7154C97.7932 21.1664 98.1238 22.0579 98.7073 22.7694C99.2907 23.4809 100.215 23.8361 101.479 23.8361ZM102.804 17.9021C102.804 16.9667 102.624 16.2067 102.263 15.6221C101.902 15.0375 101.254 14.7451 100.319 14.7451C99.5187 14.7451 98.8804 15.0229 98.4028 15.5783C97.9249 16.1337 97.6863 16.9082 97.6863 17.902L102.804 17.9021ZM113.263 13.8544C113.379 13.6805 113.534 13.4873 113.728 13.2744C113.922 13.0616 114.159 12.8683 114.44 12.6944C114.722 12.5204 115.032 12.3751 115.371 12.2592C115.71 12.1431 116.074 12.0852 116.462 12.0852C116.694 12.0852 116.941 12.1048 117.203 12.1431C117.465 12.182 117.707 12.2546 117.93 12.3606C118.153 12.467 118.332 12.6118 118.468 12.7954C118.603 12.9791 118.672 13.2061 118.672 13.4765C118.672 13.9016 118.565 14.39 118.352 14.9412C118.138 15.493 117.925 15.9634 117.712 16.353C117.382 16.0803 117.053 15.8707 116.723 15.7245C116.393 15.5784 116.006 15.5053 115.56 15.5053C114.959 15.5053 114.455 15.6812 114.048 16.0328C113.641 16.3845 113.437 16.8047 113.437 17.2933V26.7561H109.483V12.4942C109.58 12.4751 109.696 12.4555 109.832 12.4359C109.948 12.4168 110.084 12.402 110.239 12.392C110.394 12.3824 110.578 12.3774 110.791 12.3774C111.411 12.3774 111.949 12.4983 112.405 12.7397C112.86 12.9807 113.147 13.3525 113.263 13.8544ZM124.507 13.8544C124.623 13.6805 124.778 13.4873 124.972 13.2744C125.165 13.0616 125.403 12.8683 125.684 12.6944C125.965 12.5204 126.275 12.3751 126.615 12.2592C126.954 12.1431 127.317 12.0852 127.705 12.0852C127.938 12.0852 128.185 12.1048 128.447 12.1431C128.708 12.182 128.95 12.2546 129.174 12.3606C129.396 12.467 129.576 12.6118 129.712 12.7954C129.847 12.9791 129.915 13.2061 129.915 13.4765C129.915 13.9016 129.808 14.39 129.595 14.9412C129.382 15.493 129.169 15.9634 128.955 16.353C128.626 16.0803 128.296 15.8707 127.967 15.7245C127.637 15.5784 127.25 15.5053 126.804 15.5053C126.203 15.5053 125.699 15.6812 125.292 16.0328C124.885 16.3845 124.681 16.8047 124.681 17.2933V26.7561H120.726V12.4942C120.823 12.4751 120.94 12.4555 121.076 12.4359C121.192 12.4168 121.327 12.402 121.483 12.392C121.638 12.3824 121.821 12.3774 122.035 12.3774C122.655 12.3774 123.193 12.4983 123.649 12.7397C124.104 12.9807 124.39 13.3525 124.507 13.8544ZM143.379 22.9298C143.379 24.4694 143.601 25.59 144.047 26.2915C143.699 26.4277 143.374 26.5252 143.073 26.5837C142.773 26.6423 142.458 26.6714 142.128 26.6714C141.43 26.6714 140.902 26.5349 140.544 26.2622C140.185 25.9896 139.957 25.5998 139.86 25.0929C139.434 25.5416 138.871 25.9214 138.174 26.2333C137.476 26.5445 136.623 26.7008 135.615 26.7008C135.091 26.7008 134.568 26.6278 134.044 26.4826C133.521 26.3362 133.046 26.0987 132.62 25.7689C132.193 25.4383 131.844 24.9964 131.573 24.4427C131.301 23.889 131.166 23.2141 131.166 22.4178C131.166 21.4271 131.403 20.6206 131.878 19.9993C132.353 19.3774 132.949 18.887 133.666 18.5275C134.383 18.1684 135.159 17.9212 135.993 17.7849C136.826 17.6487 137.592 17.5616 138.29 17.5223C138.523 17.5031 138.75 17.493 138.974 17.493H139.599V16.961C139.599 16.2119 139.4 15.6797 139.002 15.3646C138.604 15.0494 137.96 14.8914 137.069 14.8914C136.235 14.8914 135.493 15.028 134.844 15.3006C134.195 15.5738 133.56 15.8853 132.939 16.2361C132.668 15.9049 132.449 15.5396 132.285 15.1399C132.121 14.7408 132.038 14.4434 132.038 14.2484C132.038 13.9757 132.188 13.7126 132.489 13.4591C132.789 13.2061 133.201 12.9768 133.725 12.7722C134.248 12.5675 134.849 12.4022 135.527 12.2753C136.206 12.1487 136.923 12.0853 137.68 12.0853C138.726 12.0853 139.613 12.1926 140.34 12.4068C141.067 12.6215 141.658 12.9526 142.114 13.4006C142.569 13.8492 142.894 14.4092 143.088 15.0814C143.281 15.7538 143.379 16.5385 143.379 17.4345V22.9298ZM139.656 19.5391H139.249C139.114 19.5391 138.978 19.5492 138.842 19.5685C138.358 19.6077 137.878 19.6661 137.403 19.7436C136.928 19.8218 136.506 19.9582 136.138 20.153C135.77 20.348 135.469 20.6015 135.237 20.9129C135.004 21.2249 134.888 21.6246 134.888 22.1116C134.888 22.6572 135.043 23.1198 135.353 23.4999C135.663 23.88 136.186 24.07 136.923 24.07C137.291 24.07 137.64 24.0216 137.97 23.9236C138.3 23.8266 138.59 23.6999 138.842 23.5439C139.094 23.388 139.293 23.2176 139.439 23.0322C139.584 22.8472 139.657 22.6769 139.657 22.5208L139.656 19.5391Z" fill="#164854"/>
<path d="M13.5998 80.6578H11.9624V74.1085H4.44766V80.6578H2.8103V66.66H4.44766V72.6699H11.9624V66.66H13.5998V80.6578ZM18.6065 80.6578H16.9691V66.66H18.6065V80.6578ZM28.1087 80.8658C27.0424 80.8658 26.0834 80.6894 25.2315 80.3359C24.3861 79.9765 23.6857 79.4778 23.1305 78.8406C22.5815 78.1972 22.1587 77.4366 21.8622 76.5596C21.572 75.6827 21.4269 74.7203 21.4269 73.6731C21.4269 72.2596 21.695 71.0102 22.2313 69.9252C22.7676 68.8398 23.5658 67.9851 24.6258 67.3602C25.6858 66.7356 26.9415 66.4232 28.3927 66.4232C30.0016 66.4232 31.415 66.7891 32.6327 67.5213L32.0081 68.8747C30.8345 68.1993 29.6357 67.8618 28.4116 67.8618C27.5598 67.8618 26.7964 68.0102 26.1212 68.3066C25.4524 68.5969 24.9035 69.0039 24.4744 69.5276C24.0516 70.0449 23.7267 70.657 23.4996 71.3638C23.2787 72.0639 23.1683 72.834 23.1683 73.6731C23.1683 75.4524 23.61 76.8594 24.4933 77.8942C25.383 78.9228 26.6922 79.4368 28.4211 79.4368C29.4054 79.4368 30.4054 79.2382 31.4213 78.8406V74.8465H28.1182L28.175 73.4174H32.9545V79.8154C32.1595 80.194 31.3898 80.4654 30.6452 80.6294C29.907 80.7873 29.0615 80.8658 28.1087 80.8658ZM46.6305 80.6578H44.9934V74.1085H37.4787V80.6578H35.8412V66.66H37.4787V72.6699H44.9934V66.66H46.6305V80.6578ZM49.9241 80.6578V66.66H57.9502L57.884 68.108H51.5616V72.6888H57.5715V74.1179H51.5616V79.2098H58.092L58.0164 80.6578H49.9241ZM60.4865 78.3485C61.9439 79.0679 63.5058 79.4273 65.1713 79.4273C67.222 79.4273 68.2474 78.4936 68.2474 76.6258C68.2474 76.0202 68.0833 75.5314 67.7553 75.1589C67.4334 74.7803 66.8434 74.4838 65.9854 74.2692L63.2028 73.5691C61.0764 73.0325 60.0133 71.897 60.0133 70.1616C60.0133 68.8304 60.4708 67.8428 61.3856 67.1994C62.3008 66.5494 63.5658 66.2246 65.1808 66.2246C66.0264 66.2246 66.8183 66.3159 67.5567 66.4989C68.2947 66.6818 68.913 66.9281 69.4117 67.2372L68.9385 68.5718C68.5155 68.3382 67.9539 68.1302 67.2537 67.9469C66.5597 67.7639 65.8562 67.6726 65.1429 67.6726C62.8591 67.6726 61.717 68.4645 61.717 70.0481C61.717 70.5846 61.8905 71.0168 62.2375 71.3448C62.591 71.6667 63.1177 71.9126 63.8179 72.0829L66.4775 72.7267C67.6134 72.998 68.4747 73.4334 69.0614 74.0328C69.6481 74.6257 69.9416 75.4714 69.9416 76.5691C69.9416 77.9953 69.503 79.0708 68.626 79.7965C67.7553 80.5159 66.5691 80.8753 65.0673 80.8753C63.9441 80.8753 62.9442 80.7618 62.0672 80.5349C61.1965 80.3013 60.5054 80.0267 59.9943 79.7114L60.4865 78.3485ZM76.7463 80.6578H75.0997V68.108H70.7935V66.66H81.0529V68.108H76.7463V80.6578ZM89.0502 67.9661V72.6983C89.3088 72.6983 89.8421 72.7045 90.6499 72.7172C91.4636 72.7299 92.0914 72.7361 92.5333 72.7361C93.7383 72.7361 94.5775 72.5371 95.0507 72.14C95.5239 71.7359 95.7607 71.0986 95.7607 70.2278C95.7607 69.4644 95.5333 68.8966 95.079 68.5245C94.6247 68.152 93.8646 67.9661 92.7981 67.9661H89.0502ZM98.0227 80.6578H96.1295L94.1988 76.2661C93.6751 75.0865 93.3408 74.3765 93.1957 74.1368C92.7352 74.1685 92.1892 74.1841 91.5585 74.1841L89.0502 74.1085V80.6578H87.3749V66.4989H91.8517C92.3693 66.4989 92.8265 66.5116 93.224 66.5367C93.6216 66.5622 94.0159 66.6094 94.4072 66.6789C94.8048 66.7418 95.1485 66.8335 95.4388 66.9532C95.729 67.067 96.0004 67.2183 96.2528 67.4075C96.5052 67.5904 96.7071 67.8116 96.8584 68.0702C97.0163 68.3288 97.1392 68.638 97.2276 68.9977C97.316 69.3509 97.36 69.7517 97.36 70.1995C97.36 71.083 97.1265 71.8432 96.6598 72.4804C96.199 73.1177 95.5428 73.5596 94.6909 73.8055C94.6909 73.8182 94.7542 73.9317 94.8805 74.1463C95.0067 74.3609 95.1547 74.6257 95.3253 74.9414C95.5017 75.2506 95.6374 75.5092 95.7323 75.7172L98.0227 80.6578ZM107.108 74.8465C105.777 70.9789 105.042 68.8053 104.903 68.3255C104.903 68.3255 104.137 70.4992 102.603 74.8465H107.108ZM109.276 80.6578L107.638 76.2188H102.054L100.36 80.6578H98.6945L104.07 66.6316H105.745L110.961 80.6578H109.276ZM115.986 80.6578H114.339V68.108H110.033V66.66H120.292V68.108H115.986V80.6578ZM122.024 80.6578V66.66H130.05L129.984 68.108H123.662V72.6888H129.672V74.1179H123.662V79.2098H130.192L130.116 80.6578H122.024ZM142.61 73.692C142.61 71.7359 142.105 70.3133 141.095 69.4236C140.086 68.5339 138.615 68.0891 136.685 68.0891H134.489V79.2287H136.959C138.802 79.2287 140.202 78.7649 141.161 77.8374C142.127 76.9037 142.61 75.5219 142.61 73.692ZM144.361 73.6447C144.361 75.9224 143.714 77.6607 142.42 78.8595C141.127 80.0584 139.322 80.6578 137.007 80.6578H132.852V66.66H136.732C137.899 66.66 138.943 66.7986 139.865 67.0765C140.786 67.3478 141.584 67.7639 142.259 68.3255C142.941 68.8809 143.461 69.6095 143.821 70.5119C144.18 71.4078 144.361 72.452 144.361 73.6447Z" fill="#164854"/>
<path d="M16.4739 46.8698C16.4739 47.0204 16.3838 47.1706 16.2034 47.351L12.5959 50.8683L13.4377 55.8285C13.4377 55.8885 13.4377 55.9485 13.4377 56.0387C13.4377 56.1893 13.4076 56.3093 13.3475 56.3995C13.2874 56.4897 13.1671 56.5498 13.0469 56.5498C12.9266 56.5498 12.7763 56.5199 12.6561 56.4297L8.20692 54.0549L3.75773 56.3995C3.60743 56.4897 3.48718 56.5199 3.36694 56.5199C3.21663 56.5199 3.12644 56.4596 3.06632 56.3694C3.00619 56.2795 2.97613 56.1591 2.97613 56.0089C2.97613 55.9787 2.97613 55.8885 3.00619 55.7983L3.84794 50.8381L0.240495 47.3208C0.0601235 47.1404 0 46.9902 0 46.84C0 46.5995 0.180372 46.449 0.571177 46.3889L5.56147 45.6673L7.78605 41.1581C7.9063 40.8875 8.08667 40.7373 8.26705 40.7373C8.44742 40.7373 8.62779 40.8875 8.74804 41.1581L10.9726 45.6673L15.9629 46.3889C16.2936 46.4792 16.4739 46.6294 16.4739 46.8698Z" fill="#164854"/>
<path d="M48.6093 46.8698C48.6093 47.0204 48.5191 47.1706 48.3387 47.351L44.7312 50.8683L45.5729 55.8285C45.5729 55.8885 45.5729 55.9485 45.5729 56.0387C45.5729 56.1893 45.543 56.3093 45.4827 56.3995C45.4226 56.4897 45.3023 56.5498 45.1822 56.5498C45.0618 56.5498 44.9116 56.5199 44.7912 56.4297L40.3421 54.0549L35.893 56.3995C35.7427 56.4897 35.6224 56.5199 35.5022 56.5199C35.3519 56.5199 35.2617 56.4596 35.2016 56.3694C35.1414 56.2795 35.1114 56.1591 35.1114 56.0089C35.1114 55.9787 35.1114 55.8885 35.1414 55.7983L35.9832 50.8381L32.3758 47.3208C32.1954 47.1404 32.1353 46.9902 32.1353 46.84C32.1353 46.5995 32.3156 46.449 32.7064 46.3889L37.6967 45.6673L39.9212 41.1581C40.0416 40.8875 40.222 40.7373 40.4024 40.7373C40.5825 40.7373 40.7629 40.8875 40.8833 41.1581L43.1079 45.6673L48.0982 46.3889C48.4289 46.4792 48.6093 46.6294 48.6093 46.8698Z" fill="#164854"/>
<path d="M81.2545 46.8698C81.2545 47.0204 81.1643 47.1706 80.9839 47.351L77.3767 50.8683L78.2184 55.8285C78.2184 55.8885 78.2184 55.9485 78.2184 56.0387C78.2184 56.1893 78.1882 56.3093 78.1282 56.3995C78.0678 56.4897 77.9478 56.5498 77.8274 56.5498C77.7074 56.5498 77.5568 56.5199 77.4368 56.4297L72.9876 54.0549L68.5385 56.3995C68.3882 56.4897 68.2678 56.5199 68.1474 56.5199C67.9972 56.5199 67.907 56.4596 67.847 56.3694C67.787 56.2795 67.7568 56.1591 67.7568 56.0089C67.7568 55.9787 67.7568 55.8885 67.787 55.7983L68.6287 50.8381L65.0212 47.3208C64.8408 47.1404 64.7808 46.9902 64.7808 46.84C64.7808 46.5995 64.9612 46.449 65.3518 46.3889L70.3422 45.6673L72.5668 41.1581C72.6868 40.8875 72.8672 40.7373 73.0476 40.7373C73.228 40.7373 73.4084 40.8875 73.5288 41.1581L75.7534 45.6673L80.7434 46.3889C81.0741 46.4792 81.2545 46.6294 81.2545 46.8698Z" fill="#164854"/>
<path d="M113.389 46.8698C113.389 47.0204 113.299 47.1706 113.119 47.351L109.511 50.8683L110.353 55.8285C110.353 55.8885 110.353 55.9485 110.353 56.0387C110.353 56.1893 110.323 56.3093 110.263 56.3995C110.203 56.4897 110.083 56.5498 109.962 56.5498C109.842 56.5498 109.692 56.5199 109.572 56.4297L105.122 54.0549L100.673 56.3995C100.523 56.4897 100.403 56.5199 100.282 56.5199C100.132 56.5199 100.042 56.4596 99.9818 56.3694C99.9218 56.2795 99.8916 56.1591 99.8916 56.0089C99.8916 55.9787 99.8916 55.8885 99.9218 55.7983L100.763 50.8381L97.1559 47.3208C96.9755 47.1404 96.9155 46.9902 96.9155 46.84C96.9155 46.5995 97.0959 46.449 97.4866 46.3889L102.477 45.6673L104.702 41.1581C104.822 40.8875 105.002 40.7373 105.182 40.7373C105.363 40.7373 105.543 40.8875 105.664 41.1581L107.888 45.6673L112.878 46.3889C113.209 46.4792 113.389 46.6294 113.389 46.8698Z" fill="#164854"/>
<path d="M145.525 46.8698C145.525 47.0204 145.435 47.1706 145.255 47.351L141.647 50.8683L142.489 55.8285C142.489 55.8885 142.489 55.9485 142.489 56.0387C142.489 56.1893 142.459 56.3093 142.399 56.3995C142.339 56.4897 142.218 56.5498 142.098 56.5498C141.978 56.5498 141.828 56.5199 141.707 56.4297L137.258 54.0549L132.809 56.3995C132.659 56.4897 132.538 56.5199 132.418 56.5199C132.268 56.5199 132.178 56.4596 132.118 56.3694C132.057 56.2795 132.027 56.1591 132.027 56.0089C132.027 55.9787 132.027 55.8885 132.057 55.7983L132.899 50.8381L129.292 47.3208C129.111 47.1404 129.051 46.9902 129.051 46.84C129.051 46.5995 129.232 46.449 129.622 46.3889L134.613 45.6673L136.837 41.1581C136.958 40.8875 137.138 40.7373 137.318 40.7373C137.499 40.7373 137.679 40.8875 137.799 41.1581L140.024 45.6673L145.014 46.3889C145.345 46.4792 145.525 46.6294 145.525 46.8698Z" fill="#164854"/>
</g>
<defs>
<clipPath id="clip0">
<rect width="145.856" height="86.2041" fill="white"/>
</clipPath>
</defs>
</svg>
