<svg width="160" height="40" viewBox="0 0 160 40" fill="none" xmlns="http://www.w3.org/2000/svg">
<path d="M18.8553 19.96C18.8553 18.5733 19.1553 17.34 19.7553 16.26C20.3553 15.1667 21.1886 14.32 22.2553 13.72C23.3353 13.1067 24.5553 12.8 25.9153 12.8C27.582 12.8 29.0086 13.24 30.1953 14.12C31.382 15 32.1753 16.2 32.5753 17.72H28.8153C28.5353 17.1333 28.1353 16.6867 27.6153 16.38C27.1086 16.0733 26.5286 15.92 25.8753 15.92C24.822 15.92 23.9686 16.2867 23.3153 17.02C22.662 17.7533 22.3353 18.7333 22.3353 19.96C22.3353 21.1867 22.662 22.1667 23.3153 22.9C23.9686 23.6333 24.822 24 25.8753 24C26.5286 24 27.1086 23.8467 27.6153 23.54C28.1353 23.2333 28.5353 22.7867 28.8153 22.2H32.5753C32.1753 23.72 31.382 24.92 30.1953 25.8C29.0086 26.6667 27.582 27.1 25.9153 27.1C24.5553 27.1 23.3353 26.8 22.2553 26.2C21.1886 25.5867 20.3553 24.74 19.7553 23.66C19.1553 22.58 18.8553 21.3467 18.8553 19.96ZM33.9897 21.4C33.9897 20.2533 34.203 19.2467 34.6297 18.38C35.0697 17.5133 35.663 16.8467 36.4097 16.38C37.1564 15.9133 37.9897 15.68 38.9097 15.68C39.6964 15.68 40.383 15.84 40.9697 16.16C41.5697 16.48 42.0297 16.9 42.3497 17.42V15.84H45.7697V27H42.3497V25.42C42.0164 25.94 41.5497 26.36 40.9497 26.68C40.363 27 39.6764 27.16 38.8897 27.16C37.983 27.16 37.1564 26.9267 36.4097 26.46C35.663 25.98 35.0697 25.3067 34.6297 24.44C34.203 23.56 33.9897 22.5467 33.9897 21.4ZM42.3497 21.42C42.3497 20.5667 42.1097 19.8933 41.6297 19.4C41.163 18.9067 40.5897 18.66 39.9097 18.66C39.2297 18.66 38.6497 18.9067 38.1697 19.4C37.703 19.88 37.4697 20.5467 37.4697 21.4C37.4697 22.2533 37.703 22.9333 38.1697 23.44C38.6497 23.9333 39.2297 24.18 39.9097 24.18C40.5897 24.18 41.163 23.9333 41.6297 23.44C42.1097 22.9467 42.3497 22.2733 42.3497 21.42ZM51.6639 17.42C51.9972 16.9 52.4572 16.48 53.0439 16.16C53.6306 15.84 54.3172 15.68 55.1039 15.68C56.0239 15.68 56.8572 15.9133 57.6039 16.38C58.3506 16.8467 58.9372 17.5133 59.3639 18.38C59.8039 19.2467 60.0239 20.2533 60.0239 21.4C60.0239 22.5467 59.8039 23.56 59.3639 24.44C58.9372 25.3067 58.3506 25.98 57.6039 26.46C56.8572 26.9267 56.0239 27.16 55.1039 27.16C54.3306 27.16 53.6439 27 53.0439 26.68C52.4572 26.36 51.9972 25.9467 51.6639 25.44V32.32H48.2439V15.84H51.6639V17.42ZM56.5439 21.4C56.5439 20.5467 56.3039 19.88 55.8239 19.4C55.3572 18.9067 54.7772 18.66 54.0839 18.66C53.4039 18.66 52.8239 18.9067 52.3439 19.4C51.8772 19.8933 51.6439 20.5667 51.6439 21.42C51.6439 22.2733 51.8772 22.9467 52.3439 23.44C52.8239 23.9333 53.4039 24.18 54.0839 24.18C54.7639 24.18 55.3439 23.9333 55.8239 23.44C56.3039 22.9333 56.5439 22.2533 56.5439 21.4ZM68.0381 24.1V27H66.2981C65.0581 27 64.0915 26.7 63.3981 26.1C62.7048 25.4867 62.3581 24.4933 62.3581 23.12V18.68H60.9981V15.84H62.3581V13.12H65.7781V15.84H68.0181V18.68H65.7781V23.16C65.7781 23.4933 65.8581 23.7333 66.0181 23.88C66.1781 24.0267 66.4448 24.1 66.8181 24.1H68.0381ZM71.6631 14.68C71.0631 14.68 70.5698 14.5067 70.1831 14.16C69.8098 13.8 69.6231 13.36 69.6231 12.84C69.6231 12.3067 69.8098 11.8667 70.1831 11.52C70.5698 11.16 71.0631 10.98 71.6631 10.98C72.2498 10.98 72.7298 11.16 73.1031 11.52C73.4898 11.8667 73.6831 12.3067 73.6831 12.84C73.6831 13.36 73.4898 13.8 73.1031 14.16C72.7298 14.5067 72.2498 14.68 71.6631 14.68ZM73.3631 15.84V27H69.9431V15.84H73.3631ZM80.8616 23.8L83.2816 15.84H86.9216L82.9616 27H78.7416L74.7816 15.84H78.4416L80.8616 23.8ZM87.6811 21.4C87.6811 20.2533 87.8944 19.2467 88.3211 18.38C88.7611 17.5133 89.3544 16.8467 90.1011 16.38C90.8478 15.9133 91.6811 15.68 92.6011 15.68C93.3878 15.68 94.0744 15.84 94.6611 16.16C95.2611 16.48 95.7211 16.9 96.0411 17.42V15.84H99.4611V27H96.0411V25.42C95.7078 25.94 95.2411 26.36 94.6411 26.68C94.0544 27 93.3678 27.16 92.5811 27.16C91.6744 27.16 90.8478 26.9267 90.1011 26.46C89.3544 25.98 88.7611 25.3067 88.3211 24.44C87.8944 23.56 87.6811 22.5467 87.6811 21.4ZM96.0411 21.42C96.0411 20.5667 95.8011 19.8933 95.3211 19.4C94.8544 18.9067 94.2811 18.66 93.6011 18.66C92.9211 18.66 92.3411 18.9067 91.8611 19.4C91.3944 19.88 91.1611 20.5467 91.1611 21.4C91.1611 22.2533 91.3944 22.9333 91.8611 23.44C92.3411 23.9333 92.9211 24.18 93.6011 24.18C94.2811 24.18 94.8544 23.9333 95.3211 23.44C95.8011 22.9467 96.0411 22.2733 96.0411 21.42ZM108.155 24.1V27H106.415C105.175 27 104.209 26.7 103.515 26.1C102.822 25.4867 102.475 24.4933 102.475 23.12V18.68H101.115V15.84H102.475V13.12H105.895V15.84H108.135V18.68H105.895V23.16C105.895 23.4933 105.975 23.7333 106.135 23.88C106.295 24.0267 106.562 24.1 106.935 24.1H108.155ZM120.58 21.24C120.58 21.56 120.56 21.8933 120.52 22.24H112.78C112.834 22.9333 113.054 23.4667 113.44 23.84C113.84 24.2 114.327 24.38 114.9 24.38C115.754 24.38 116.347 24.02 116.68 23.3H120.32C120.134 24.0333 119.794 24.6933 119.3 25.28C118.82 25.8667 118.214 26.3267 117.48 26.66C116.747 26.9933 115.927 27.16 115.02 27.16C113.927 27.16 112.954 26.9267 112.1 26.46C111.247 25.9933 110.58 25.3267 110.1 24.46C109.62 23.5933 109.38 22.58 109.38 21.42C109.38 20.26 109.614 19.2467 110.08 18.38C110.56 17.5133 111.227 16.8467 112.08 16.38C112.934 15.9133 113.914 15.68 115.02 15.68C116.1 15.68 117.06 15.9067 117.9 16.36C118.74 16.8133 119.394 17.46 119.86 18.3C120.34 19.14 120.58 20.12 120.58 21.24ZM117.08 20.34C117.08 19.7533 116.88 19.2867 116.48 18.94C116.08 18.5933 115.58 18.42 114.98 18.42C114.407 18.42 113.92 18.5867 113.52 18.92C113.134 19.2533 112.894 19.7267 112.8 20.34H117.08Z" fill="#164854"/>
<path d="M125.805 12.96V27H122.385V12.96H125.805ZM138.283 29.4L136.483 26.98C135.95 27.0867 135.43 27.14 134.923 27.14C133.603 27.14 132.39 26.8333 131.283 26.22C130.19 25.6067 129.316 24.7533 128.663 23.66C128.023 22.5533 127.703 21.3133 127.703 19.94C127.703 18.5667 128.023 17.3333 128.663 16.24C129.316 15.1467 130.19 14.2933 131.283 13.68C132.39 13.0667 133.603 12.76 134.923 12.76C136.243 12.76 137.45 13.0667 138.543 13.68C139.65 14.2933 140.516 15.1467 141.143 16.24C141.783 17.3333 142.103 18.5667 142.103 19.94C142.103 21.14 141.856 22.24 141.363 23.24C140.883 24.2267 140.21 25.0467 139.343 25.7L142.423 29.4H138.283ZM131.203 19.94C131.203 21.18 131.536 22.1733 132.203 22.92C132.883 23.6533 133.79 24.02 134.923 24.02C136.043 24.02 136.936 23.6467 137.603 22.9C138.283 22.1533 138.623 21.1667 138.623 19.94C138.623 18.7 138.283 17.7133 137.603 16.98C136.936 16.2333 136.043 15.86 134.923 15.86C133.79 15.86 132.883 16.2267 132.203 16.96C131.536 17.6933 131.203 18.6867 131.203 19.94Z" fill="#4BBFA9"/>
</svg>
