<svg width="699" height="395" viewBox="0 0 699 395" fill="none" xmlns="http://www.w3.org/2000/svg">
<g opacity="0.6">
<mask id="mask0" mask-type="alpha" maskUnits="userSpaceOnUse" x="0" y="0" width="699" height="395">
<path d="M697.999 59.0025C705.196 32.0414 516.499 133.004 336.999 59.0025C157.5 -14.9986 -21.5001 -45.4932 3.00101 133.004C27.5021 311.5 194.847 457.061 403.999 367.001C613.151 276.942 690.803 85.9637 697.999 59.0025Z" fill="#C4C4C4"/>
</mask>
<g mask="url(#mask0)">
<circle r="1.77749" transform="matrix(1 0 0 -1 140.172 391.853)" fill="#4BBFA9"/>
<circle r="1.77749" transform="matrix(1 0 0 -1 162.687 391.853)" fill="#4BBFA9"/>
<circle r="1.77749" transform="matrix(1 0 0 -1 185.203 391.853)" fill="#4BBFA9"/>
<circle r="1.77749" transform="matrix(1 0 0 -1 207.715 391.853)" fill="#4BBFA9"/>
<circle r="1.77749" transform="matrix(1 0 0 -1 230.231 391.853)" fill="#4BBFA9"/>
<circle r="1.77749" transform="matrix(1 0 0 -1 252.747 391.853)" fill="#4BBFA9"/>
<circle r="1.77749" transform="matrix(1 0 0 -1 275.262 391.853)" fill="#4BBFA9"/>
<circle r="1.77749" transform="matrix(1 0 0 -1 297.777 391.853)" fill="#4BBFA9"/>
<circle r="1.77749" transform="matrix(1 0 0 -1 320.293 391.853)" fill="#4BBFA9"/>
<circle r="1.77749" transform="matrix(1 0 0 -1 342.805 391.853)" fill="#4BBFA9"/>
<circle r="1.77749" transform="matrix(1 0 0 -1 365.321 391.853)" fill="#4BBFA9"/>
<circle r="1.77749" transform="matrix(1 0 0 -1 387.836 391.853)" fill="#4BBFA9"/>
<circle r="1.77749" transform="matrix(1 0 0 -1 140.172 369.338)" fill="#4BBFA9"/>
<circle r="1.77749" transform="matrix(1 0 0 -1 162.687 369.338)" fill="#4BBFA9"/>
<circle r="1.77749" transform="matrix(1 0 0 -1 185.203 369.338)" fill="#4BBFA9"/>
<circle r="1.77749" transform="matrix(1 0 0 -1 207.715 369.338)" fill="#4BBFA9"/>
<circle r="1.77749" transform="matrix(1 0 0 -1 230.231 369.338)" fill="#4BBFA9"/>
<circle r="1.77749" transform="matrix(1 0 0 -1 252.747 369.338)" fill="#4BBFA9"/>
<circle r="1.77749" transform="matrix(1 0 0 -1 275.262 369.338)" fill="#4BBFA9"/>
<circle r="1.77749" transform="matrix(1 0 0 -1 297.777 369.338)" fill="#4BBFA9"/>
<circle r="1.77749" transform="matrix(1 0 0 -1 320.293 369.338)" fill="#4BBFA9"/>
<circle r="1.77749" transform="matrix(1 0 0 -1 342.805 369.338)" fill="#4BBFA9"/>
<circle r="1.77749" transform="matrix(1 0 0 -1 365.321 369.338)" fill="#4BBFA9"/>
<circle r="1.77749" transform="matrix(1 0 0 -1 387.836 369.338)" fill="#4BBFA9"/>
<circle r="1.77749" transform="matrix(1 0 0 -1 140.172 346.824)" fill="#4BBFA9"/>
<circle r="1.77749" transform="matrix(1 0 0 -1 162.687 346.824)" fill="#4BBFA9"/>
<circle r="1.77749" transform="matrix(1 0 0 -1 185.203 346.824)" fill="#4BBFA9"/>
<circle r="1.77749" transform="matrix(1 0 0 -1 207.715 346.824)" fill="#4BBFA9"/>
<circle r="1.77749" transform="matrix(1 0 0 -1 230.231 346.824)" fill="#4BBFA9"/>
<circle r="1.77749" transform="matrix(1 0 0 -1 252.747 346.824)" fill="#4BBFA9"/>
<circle r="1.77749" transform="matrix(1 0 0 -1 275.262 346.824)" fill="#4BBFA9"/>
<circle r="1.77749" transform="matrix(1 0 0 -1 297.777 346.824)" fill="#4BBFA9"/>
<circle r="1.77749" transform="matrix(1 0 0 -1 320.293 346.824)" fill="#4BBFA9"/>
<circle r="1.77749" transform="matrix(1 0 0 -1 342.805 346.824)" fill="#4BBFA9"/>
<circle r="1.77749" transform="matrix(1 0 0 -1 365.321 346.824)" fill="#4BBFA9"/>
<circle r="1.77749" transform="matrix(1 0 0 -1 387.836 346.824)" fill="#4BBFA9"/>
<circle r="1.77749" transform="matrix(1 0 0 -1 140.172 324.308)" fill="#4BBFA9"/>
<circle r="1.77749" transform="matrix(1 0 0 -1 162.687 324.308)" fill="#4BBFA9"/>
<circle r="1.77749" transform="matrix(1 0 0 -1 185.203 324.308)" fill="#4BBFA9"/>
<circle r="1.77749" transform="matrix(1 0 0 -1 207.715 324.308)" fill="#4BBFA9"/>
<circle r="1.77749" transform="matrix(1 0 0 -1 230.231 324.308)" fill="#4BBFA9"/>
<circle r="1.77749" transform="matrix(1 0 0 -1 252.747 324.308)" fill="#4BBFA9"/>
<circle r="1.77749" transform="matrix(1 0 0 -1 275.262 324.308)" fill="#4BBFA9"/>
<circle r="1.77749" transform="matrix(1 0 0 -1 297.777 324.308)" fill="#4BBFA9"/>
<circle r="1.77749" transform="matrix(1 0 0 -1 320.293 324.308)" fill="#4BBFA9"/>
<circle r="1.77749" transform="matrix(1 0 0 -1 342.805 324.308)" fill="#4BBFA9"/>
<circle r="1.77749" transform="matrix(1 0 0 -1 365.321 324.308)" fill="#4BBFA9"/>
<circle r="1.77749" transform="matrix(1 0 0 -1 387.836 324.308)" fill="#4BBFA9"/>
<circle r="1.77749" transform="matrix(1 0 0 -1 140.172 301.794)" fill="#4BBFA9"/>
<circle r="1.77749" transform="matrix(1 0 0 -1 162.687 301.794)" fill="#4BBFA9"/>
<circle r="1.77749" transform="matrix(1 0 0 -1 185.203 301.793)" fill="#4BBFA9"/>
<circle r="1.77749" transform="matrix(1 0 0 -1 207.715 301.793)" fill="#4BBFA9"/>
<circle r="1.77749" transform="matrix(1 0 0 -1 230.231 301.793)" fill="#4BBFA9"/>
<circle r="1.77749" transform="matrix(1 0 0 -1 252.747 301.794)" fill="#4BBFA9"/>
<circle r="1.77749" transform="matrix(1 0 0 -1 275.262 301.794)" fill="#4BBFA9"/>
<circle r="1.77749" transform="matrix(1 0 0 -1 297.777 301.794)" fill="#4BBFA9"/>
<circle r="1.77749" transform="matrix(1 0 0 -1 320.293 301.793)" fill="#4BBFA9"/>
<circle r="1.77749" transform="matrix(1 0 0 -1 342.805 301.793)" fill="#4BBFA9"/>
<circle r="1.77749" transform="matrix(1 0 0 -1 365.321 301.794)" fill="#4BBFA9"/>
<circle r="1.77749" transform="matrix(1 0 0 -1 387.836 301.794)" fill="#4BBFA9"/>
<circle r="1.77749" transform="matrix(1 0 0 -1 140.172 279.279)" fill="#4BBFA9"/>
<circle r="1.77749" transform="matrix(1 0 0 -1 162.687 279.279)" fill="#4BBFA9"/>
<circle r="1.77749" transform="matrix(1 0 0 -1 185.203 279.279)" fill="#4BBFA9"/>
<circle r="1.77749" transform="matrix(1 0 0 -1 207.715 279.279)" fill="#4BBFA9"/>
<circle r="1.77749" transform="matrix(1 0 0 -1 230.231 279.279)" fill="#4BBFA9"/>
<circle r="1.77749" transform="matrix(1 0 0 -1 252.747 279.279)" fill="#4BBFA9"/>
<circle r="1.77749" transform="matrix(1 0 0 -1 275.262 279.279)" fill="#4BBFA9"/>
<circle r="1.77749" transform="matrix(1 0 0 -1 297.777 279.279)" fill="#4BBFA9"/>
<circle r="1.77749" transform="matrix(1 0 0 -1 320.293 279.279)" fill="#4BBFA9"/>
<circle r="1.77749" transform="matrix(1 0 0 -1 342.805 279.279)" fill="#4BBFA9"/>
<circle r="1.77749" transform="matrix(1 0 0 -1 365.321 279.279)" fill="#4BBFA9"/>
<circle r="1.77749" transform="matrix(1 0 0 -1 387.836 279.279)" fill="#4BBFA9"/>
<circle r="1.77749" transform="matrix(1 0 0 -1 140.172 256.764)" fill="#4BBFA9"/>
<circle r="1.77749" transform="matrix(1 0 0 -1 162.687 256.764)" fill="#4BBFA9"/>
<circle r="1.77749" transform="matrix(1 0 0 -1 185.203 256.764)" fill="#4BBFA9"/>
<circle r="1.77749" transform="matrix(1 0 0 -1 207.715 256.764)" fill="#4BBFA9"/>
<circle r="1.77749" transform="matrix(1 0 0 -1 230.231 256.764)" fill="#4BBFA9"/>
<circle r="1.77749" transform="matrix(1 0 0 -1 252.747 256.764)" fill="#4BBFA9"/>
<circle r="1.77749" transform="matrix(1 0 0 -1 275.262 256.764)" fill="#4BBFA9"/>
<circle r="1.77749" transform="matrix(1 0 0 -1 297.777 256.764)" fill="#4BBFA9"/>
<circle r="1.77749" transform="matrix(1 0 0 -1 320.293 256.764)" fill="#4BBFA9"/>
<circle r="1.77749" transform="matrix(1 0 0 -1 342.805 256.764)" fill="#4BBFA9"/>
<circle r="1.77749" transform="matrix(1 0 0 -1 365.321 256.764)" fill="#4BBFA9"/>
<circle r="1.77749" transform="matrix(1 0 0 -1 387.836 256.764)" fill="#4BBFA9"/>
<circle r="1.77749" transform="matrix(1 0 0 -1 140.172 234.249)" fill="#4BBFA9"/>
<circle r="1.77749" transform="matrix(1 0 0 -1 162.687 234.249)" fill="#4BBFA9"/>
<circle r="1.77749" transform="matrix(1 0 0 -1 185.203 234.248)" fill="#4BBFA9"/>
<circle r="1.77749" transform="matrix(1 0 0 -1 207.715 234.248)" fill="#4BBFA9"/>
<circle r="1.77749" transform="matrix(1 0 0 -1 230.231 234.248)" fill="#4BBFA9"/>
<circle r="1.77749" transform="matrix(1 0 0 -1 252.747 234.249)" fill="#4BBFA9"/>
<circle r="1.77749" transform="matrix(1 0 0 -1 275.262 234.249)" fill="#4BBFA9"/>
<circle r="1.77749" transform="matrix(1 0 0 -1 297.777 234.249)" fill="#4BBFA9"/>
<circle r="1.77749" transform="matrix(1 0 0 -1 320.293 234.248)" fill="#4BBFA9"/>
<circle r="1.77749" transform="matrix(1 0 0 -1 342.805 234.248)" fill="#4BBFA9"/>
<circle r="1.77749" transform="matrix(1 0 0 -1 365.321 234.249)" fill="#4BBFA9"/>
<circle r="1.77749" transform="matrix(1 0 0 -1 387.836 234.249)" fill="#4BBFA9"/>
<circle r="1.77749" transform="matrix(1 0 0 -1 140.172 211.734)" fill="#4BBFA9"/>
<circle r="1.77749" transform="matrix(1 0 0 -1 162.687 211.734)" fill="#4BBFA9"/>
<circle r="1.77749" transform="matrix(1 0 0 -1 185.203 211.734)" fill="#4BBFA9"/>
<circle r="1.77749" transform="matrix(1 0 0 -1 207.715 211.734)" fill="#4BBFA9"/>
<circle r="1.77749" transform="matrix(1 0 0 -1 230.231 211.734)" fill="#4BBFA9"/>
<circle r="1.77749" transform="matrix(1 0 0 -1 252.747 211.734)" fill="#4BBFA9"/>
<circle r="1.77749" transform="matrix(1 0 0 -1 275.262 211.734)" fill="#4BBFA9"/>
<circle r="1.77749" transform="matrix(1 0 0 -1 297.777 211.734)" fill="#4BBFA9"/>
<circle r="1.77749" transform="matrix(1 0 0 -1 320.293 211.734)" fill="#4BBFA9"/>
<circle r="1.77749" transform="matrix(1 0 0 -1 342.805 211.734)" fill="#4BBFA9"/>
<circle r="1.77749" transform="matrix(1 0 0 -1 365.321 211.734)" fill="#4BBFA9"/>
<circle r="1.77749" transform="matrix(1 0 0 -1 387.836 211.734)" fill="#4BBFA9"/>
<circle r="1.77749" transform="matrix(1 0 0 -1 140.172 189.219)" fill="#4BBFA9"/>
<circle r="1.77749" transform="matrix(1 0 0 -1 162.687 189.219)" fill="#4BBFA9"/>
<circle r="1.77749" transform="matrix(1 0 0 -1 185.203 189.219)" fill="#4BBFA9"/>
<circle r="1.77749" transform="matrix(1 0 0 -1 207.715 189.219)" fill="#4BBFA9"/>
<circle r="1.77749" transform="matrix(1 0 0 -1 230.231 189.219)" fill="#4BBFA9"/>
<circle r="1.77749" transform="matrix(1 0 0 -1 252.747 189.219)" fill="#4BBFA9"/>
<circle r="1.77749" transform="matrix(1 0 0 -1 275.262 189.219)" fill="#4BBFA9"/>
<circle r="1.77749" transform="matrix(1 0 0 -1 297.777 189.219)" fill="#4BBFA9"/>
<circle r="1.77749" transform="matrix(1 0 0 -1 320.293 189.219)" fill="#4BBFA9"/>
<circle r="1.77749" transform="matrix(1 0 0 -1 342.805 189.219)" fill="#4BBFA9"/>
<circle r="1.77749" transform="matrix(1 0 0 -1 365.321 189.219)" fill="#4BBFA9"/>
<circle r="1.77749" transform="matrix(1 0 0 -1 387.836 189.219)" fill="#4BBFA9"/>
<circle r="1.77749" transform="matrix(1 0 0 -1 140.172 166.704)" fill="#4BBFA9"/>
<circle r="1.77749" transform="matrix(1 0 0 -1 162.687 166.704)" fill="#4BBFA9"/>
<circle r="1.77749" transform="matrix(1 0 0 -1 185.203 166.705)" fill="#4BBFA9"/>
<circle r="1.77749" transform="matrix(1 0 0 -1 207.715 166.705)" fill="#4BBFA9"/>
<circle r="1.77749" transform="matrix(1 0 0 -1 230.231 166.705)" fill="#4BBFA9"/>
<circle r="1.77749" transform="matrix(1 0 0 -1 252.747 166.704)" fill="#4BBFA9"/>
<circle r="1.77749" transform="matrix(1 0 0 -1 275.262 166.704)" fill="#4BBFA9"/>
<circle r="1.77749" transform="matrix(1 0 0 -1 297.777 166.704)" fill="#4BBFA9"/>
<circle r="1.77749" transform="matrix(1 0 0 -1 320.293 166.705)" fill="#4BBFA9"/>
<circle r="1.77749" transform="matrix(1 0 0 -1 342.805 166.705)" fill="#4BBFA9"/>
<circle r="1.77749" transform="matrix(1 0 0 -1 365.321 166.704)" fill="#4BBFA9"/>
<circle r="1.77749" transform="matrix(1 0 0 -1 387.836 166.704)" fill="#4BBFA9"/>
<circle r="1.77749" transform="matrix(1 0 0 -1 138.988 140.634)" fill="#4BBFA9"/>
<circle r="1.77749" transform="matrix(1 0 0 -1 161.503 140.634)" fill="#4BBFA9"/>
<circle r="1.77749" transform="matrix(1 0 0 -1 184.019 140.634)" fill="#4BBFA9"/>
<circle r="1.77749" transform="matrix(1 0 0 -1 206.531 140.634)" fill="#4BBFA9"/>
<circle r="1.77749" transform="matrix(1 0 0 -1 229.047 140.634)" fill="#4BBFA9"/>
<circle r="1.77749" transform="matrix(1 0 0 -1 251.563 140.634)" fill="#4BBFA9"/>
<circle r="1.77749" transform="matrix(1 0 0 -1 274.078 140.634)" fill="#4BBFA9"/>
<circle r="1.77749" transform="matrix(1 0 0 -1 296.593 140.634)" fill="#4BBFA9"/>
<circle r="1.77749" transform="matrix(1 0 0 -1 319.109 140.634)" fill="#4BBFA9"/>
<circle r="1.77749" transform="matrix(1 0 0 -1 341.621 140.634)" fill="#4BBFA9"/>
<circle r="1.77749" transform="matrix(1 0 0 -1 364.137 140.634)" fill="#4BBFA9"/>
<circle r="1.77749" transform="matrix(1 0 0 -1 386.652 140.634)" fill="#4BBFA9"/>
<circle r="1.77749" transform="matrix(1 0 0 -1 138.988 118.119)" fill="#4BBFA9"/>
<circle r="1.77749" transform="matrix(1 0 0 -1 161.503 118.119)" fill="#4BBFA9"/>
<circle r="1.77749" transform="matrix(1 0 0 -1 184.019 118.118)" fill="#4BBFA9"/>
<circle r="1.77749" transform="matrix(1 0 0 -1 206.531 118.118)" fill="#4BBFA9"/>
<circle r="1.77749" transform="matrix(1 0 0 -1 229.047 118.118)" fill="#4BBFA9"/>
<circle r="1.77749" transform="matrix(1 0 0 -1 251.563 118.119)" fill="#4BBFA9"/>
<circle r="1.77749" transform="matrix(1 0 0 -1 274.078 118.119)" fill="#4BBFA9"/>
<circle r="1.77749" transform="matrix(1 0 0 -1 296.593 118.119)" fill="#4BBFA9"/>
<circle r="1.77749" transform="matrix(1 0 0 -1 319.109 118.118)" fill="#4BBFA9"/>
<circle r="1.77749" transform="matrix(1 0 0 -1 341.621 118.118)" fill="#4BBFA9"/>
<circle r="1.77749" transform="matrix(1 0 0 -1 364.137 118.119)" fill="#4BBFA9"/>
<circle r="1.77749" transform="matrix(1 0 0 -1 386.652 118.119)" fill="#4BBFA9"/>
<circle r="1.77749" transform="matrix(1 0 0 -1 138.988 95.6039)" fill="#4BBFA9"/>
<circle r="1.77749" transform="matrix(1 0 0 -1 161.503 95.6039)" fill="#4BBFA9"/>
<circle r="1.77749" transform="matrix(1 0 0 -1 184.019 95.6043)" fill="#4BBFA9"/>
<circle r="1.77749" transform="matrix(1 0 0 -1 206.531 95.6043)" fill="#4BBFA9"/>
<circle r="1.77749" transform="matrix(1 0 0 -1 229.047 95.6043)" fill="#4BBFA9"/>
<circle r="1.77749" transform="matrix(1 0 0 -1 251.563 95.6039)" fill="#4BBFA9"/>
<circle r="1.77749" transform="matrix(1 0 0 -1 274.078 95.6039)" fill="#4BBFA9"/>
<circle r="1.77749" transform="matrix(1 0 0 -1 296.593 95.6039)" fill="#4BBFA9"/>
<circle r="1.77749" transform="matrix(1 0 0 -1 319.109 95.6043)" fill="#4BBFA9"/>
<circle r="1.77749" transform="matrix(1 0 0 -1 341.621 95.6043)" fill="#4BBFA9"/>
<circle r="1.77749" transform="matrix(1 0 0 -1 364.137 95.6039)" fill="#4BBFA9"/>
<circle r="1.77749" transform="matrix(1 0 0 -1 386.652 95.6039)" fill="#4BBFA9"/>
<circle r="1.77749" transform="matrix(1 0 0 -1 138.988 73.0887)" fill="#4BBFA9"/>
<circle r="1.77749" transform="matrix(1 0 0 -1 161.503 73.0887)" fill="#4BBFA9"/>
<circle r="1.77749" transform="matrix(1 0 0 -1 184.019 73.0887)" fill="#4BBFA9"/>
<circle r="1.77749" transform="matrix(1 0 0 -1 206.531 73.0887)" fill="#4BBFA9"/>
<circle r="1.77749" transform="matrix(1 0 0 -1 229.047 73.0887)" fill="#4BBFA9"/>
<circle r="1.77749" transform="matrix(1 0 0 -1 251.563 73.0887)" fill="#4BBFA9"/>
<circle r="1.77749" transform="matrix(1 0 0 -1 274.078 73.0887)" fill="#4BBFA9"/>
<circle r="1.77749" transform="matrix(1 0 0 -1 296.593 73.0887)" fill="#4BBFA9"/>
<circle r="1.77749" transform="matrix(1 0 0 -1 319.109 73.0887)" fill="#4BBFA9"/>
<circle r="1.77749" transform="matrix(1 0 0 -1 341.621 73.0887)" fill="#4BBFA9"/>
<circle r="1.77749" transform="matrix(1 0 0 -1 364.137 73.0887)" fill="#4BBFA9"/>
<circle r="1.77749" transform="matrix(1 0 0 -1 386.652 73.0887)" fill="#4BBFA9"/>
<circle r="1.77749" transform="matrix(1 0 0 -1 138.988 50.5741)" fill="#4BBFA9"/>
<circle r="1.77749" transform="matrix(1 0 0 -1 161.503 50.5741)" fill="#4BBFA9"/>
<circle r="1.77749" transform="matrix(1 0 0 -1 184.019 50.5731)" fill="#4BBFA9"/>
<circle r="1.77749" transform="matrix(1 0 0 -1 206.531 50.5731)" fill="#4BBFA9"/>
<circle r="1.77749" transform="matrix(1 0 0 -1 229.047 50.5731)" fill="#4BBFA9"/>
<circle r="1.77749" transform="matrix(1 0 0 -1 251.563 50.5741)" fill="#4BBFA9"/>
<circle r="1.77749" transform="matrix(1 0 0 -1 274.078 50.5741)" fill="#4BBFA9"/>
<circle r="1.77749" transform="matrix(1 0 0 -1 296.593 50.5741)" fill="#4BBFA9"/>
<circle r="1.77749" transform="matrix(1 0 0 -1 319.109 50.5731)" fill="#4BBFA9"/>
<circle r="1.77749" transform="matrix(1 0 0 -1 341.621 50.5731)" fill="#4BBFA9"/>
<circle r="1.77749" transform="matrix(1 0 0 -1 364.137 50.5741)" fill="#4BBFA9"/>
<circle r="1.77749" transform="matrix(1 0 0 -1 386.652 50.5741)" fill="#4BBFA9"/>
<circle r="1.77749" transform="matrix(1 0 0 -1 138.988 28.0589)" fill="#4BBFA9"/>
<circle r="1.77749" transform="matrix(1 0 0 -1 161.503 28.0589)" fill="#4BBFA9"/>
<circle r="1.77749" transform="matrix(1 0 0 -1 184.019 28.0594)" fill="#4BBFA9"/>
<circle r="1.77749" transform="matrix(1 0 0 -1 206.531 28.0594)" fill="#4BBFA9"/>
<circle r="1.77749" transform="matrix(1 0 0 -1 229.047 28.0594)" fill="#4BBFA9"/>
<circle r="1.77749" transform="matrix(1 0 0 -1 251.563 28.0589)" fill="#4BBFA9"/>
<circle r="1.77749" transform="matrix(1 0 0 -1 274.078 28.0589)" fill="#4BBFA9"/>
<circle r="1.77749" transform="matrix(1 0 0 -1 296.593 28.0589)" fill="#4BBFA9"/>
<circle r="1.77749" transform="matrix(1 0 0 -1 319.109 28.0594)" fill="#4BBFA9"/>
<circle r="1.77749" transform="matrix(1 0 0 -1 341.621 28.0594)" fill="#4BBFA9"/>
<circle r="1.77749" transform="matrix(1 0 0 -1 364.137 28.0589)" fill="#4BBFA9"/>
<circle r="1.77749" transform="matrix(1 0 0 -1 386.652 28.0589)" fill="#4BBFA9"/>
<circle r="1.77749" transform="matrix(1 0 0 -1 138.988 5.54379)" fill="#4BBFA9"/>
<circle r="1.77749" transform="matrix(1 0 0 -1 161.503 5.54379)" fill="#4BBFA9"/>
<circle r="1.77749" transform="matrix(1 0 0 -1 184.019 5.54379)" fill="#4BBFA9"/>
<circle r="1.77749" transform="matrix(1 0 0 -1 206.531 5.54379)" fill="#4BBFA9"/>
<circle r="1.77749" transform="matrix(1 0 0 -1 229.047 5.54379)" fill="#4BBFA9"/>
<circle r="1.77749" transform="matrix(1 0 0 -1 251.563 5.54379)" fill="#4BBFA9"/>
<circle r="1.77749" transform="matrix(1 0 0 -1 274.078 5.54379)" fill="#4BBFA9"/>
<circle r="1.77749" transform="matrix(1 0 0 -1 296.593 5.54379)" fill="#4BBFA9"/>
<circle r="1.77749" transform="matrix(1 0 0 -1 319.109 5.54379)" fill="#4BBFA9"/>
<circle r="1.77749" transform="matrix(1 0 0 -1 341.621 5.54379)" fill="#4BBFA9"/>
<circle r="1.77749" transform="matrix(1 0 0 -1 364.137 5.54379)" fill="#4BBFA9"/>
<circle r="1.77749" transform="matrix(1 0 0 -1 386.652 5.54379)" fill="#4BBFA9"/>
<circle r="1.77749" transform="matrix(1 0 0 -1 3.89908 138.265)" fill="#4BBFA9"/>
<circle r="1.77749" transform="matrix(1 0 0 -1 26.414 138.265)" fill="#4BBFA9"/>
<circle r="1.77749" transform="matrix(1 0 0 -1 48.9306 138.265)" fill="#4BBFA9"/>
<circle r="1.77749" transform="matrix(1 0 0 -1 71.4423 138.265)" fill="#4BBFA9"/>
<circle r="1.77749" transform="matrix(1 0 0 -1 93.9588 138.265)" fill="#4BBFA9"/>
<circle r="1.77749" transform="matrix(1 0 0 -1 116.474 138.265)" fill="#4BBFA9"/>
<circle r="1.77749" transform="matrix(1 0 0 -1 3.89908 115.75)" fill="#4BBFA9"/>
<circle r="1.77749" transform="matrix(1 0 0 -1 26.414 115.75)" fill="#4BBFA9"/>
<circle r="1.77749" transform="matrix(1 0 0 -1 48.9306 115.749)" fill="#4BBFA9"/>
<circle r="1.77749" transform="matrix(1 0 0 -1 71.4423 115.749)" fill="#4BBFA9"/>
<circle r="1.77749" transform="matrix(1 0 0 -1 93.9588 115.75)" fill="#4BBFA9"/>
<circle r="1.77749" transform="matrix(1 0 0 -1 116.474 115.75)" fill="#4BBFA9"/>
<circle r="1.77749" transform="matrix(1 0 0 -1 3.89908 93.2352)" fill="#4BBFA9"/>
<circle r="1.77749" transform="matrix(1 0 0 -1 26.414 93.2352)" fill="#4BBFA9"/>
<circle r="1.77749" transform="matrix(1 0 0 -1 48.9306 93.2357)" fill="#4BBFA9"/>
<circle r="1.77749" transform="matrix(1 0 0 -1 71.4423 93.2357)" fill="#4BBFA9"/>
<circle r="1.77749" transform="matrix(1 0 0 -1 93.9588 93.2352)" fill="#4BBFA9"/>
<circle r="1.77749" transform="matrix(1 0 0 -1 116.474 93.2352)" fill="#4BBFA9"/>
<circle r="1.77749" transform="matrix(1 0 0 -1 3.89908 70.7201)" fill="#4BBFA9"/>
<circle r="1.77749" transform="matrix(1 0 0 -1 26.414 70.7201)" fill="#4BBFA9"/>
<circle r="1.77749" transform="matrix(1 0 0 -1 48.9306 70.7201)" fill="#4BBFA9"/>
<circle r="1.77749" transform="matrix(1 0 0 -1 71.4423 70.7201)" fill="#4BBFA9"/>
<circle r="1.77749" transform="matrix(1 0 0 -1 93.9588 70.7201)" fill="#4BBFA9"/>
<circle r="1.77749" transform="matrix(1 0 0 -1 116.474 70.7201)" fill="#4BBFA9"/>
<circle r="1.77749" transform="matrix(1 0 0 -1 3.89908 48.2054)" fill="#4BBFA9"/>
<circle r="1.77749" transform="matrix(1 0 0 -1 26.414 48.2054)" fill="#4BBFA9"/>
<circle r="1.77749" transform="matrix(1 0 0 -1 48.9306 48.2044)" fill="#4BBFA9"/>
<circle r="1.77749" transform="matrix(1 0 0 -1 71.4423 48.2044)" fill="#4BBFA9"/>
<circle r="1.77749" transform="matrix(1 0 0 -1 93.9588 48.2054)" fill="#4BBFA9"/>
<circle r="1.77749" transform="matrix(1 0 0 -1 116.474 48.2054)" fill="#4BBFA9"/>
<circle r="1.77749" transform="matrix(1 0 0 -1 3.89908 25.6903)" fill="#4BBFA9"/>
<circle r="1.77749" transform="matrix(1 0 0 -1 26.414 25.6903)" fill="#4BBFA9"/>
<circle r="1.77749" transform="matrix(1 0 0 -1 48.9306 25.6908)" fill="#4BBFA9"/>
<circle r="1.77749" transform="matrix(1 0 0 -1 71.4423 25.6908)" fill="#4BBFA9"/>
<circle r="1.77749" transform="matrix(1 0 0 -1 93.9588 25.6903)" fill="#4BBFA9"/>
<circle r="1.77749" transform="matrix(1 0 0 -1 116.474 25.6903)" fill="#4BBFA9"/>
<circle r="1.77749" transform="matrix(1 0 0 -1 3.89908 3.17563)" fill="#4BBFA9"/>
<circle r="1.77749" transform="matrix(1 0 0 -1 26.414 3.17563)" fill="#4BBFA9"/>
<circle r="1.77749" transform="matrix(1 0 0 -1 48.9306 3.17514)" fill="#4BBFA9"/>
<circle r="1.77749" transform="matrix(1 0 0 -1 71.4423 3.17514)" fill="#4BBFA9"/>
<circle r="1.77749" transform="matrix(1 0 0 -1 93.9588 3.17563)" fill="#4BBFA9"/>
<circle r="1.77749" transform="matrix(1 0 0 -1 116.474 3.17563)" fill="#4BBFA9"/>
<circle r="1.77749" transform="matrix(1 0 0 -1 5.08157 385.928)" fill="#4BBFA9"/>
<circle r="1.77749" transform="matrix(1 0 0 -1 27.5965 385.928)" fill="#4BBFA9"/>
<circle r="1.77749" transform="matrix(1 0 0 -1 50.1131 385.928)" fill="#4BBFA9"/>
<circle r="1.77749" transform="matrix(1 0 0 -1 72.6248 385.928)" fill="#4BBFA9"/>
<circle r="1.77749" transform="matrix(1 0 0 -1 95.1413 385.928)" fill="#4BBFA9"/>
<circle r="1.77749" transform="matrix(1 0 0 -1 117.656 385.928)" fill="#4BBFA9"/>
<circle r="1.77749" transform="matrix(1 0 0 -1 5.08157 363.412)" fill="#4BBFA9"/>
<circle r="1.77749" transform="matrix(1 0 0 -1 27.5965 363.412)" fill="#4BBFA9"/>
<circle r="1.77749" transform="matrix(1 0 0 -1 50.1131 363.412)" fill="#4BBFA9"/>
<circle r="1.77749" transform="matrix(1 0 0 -1 72.6248 363.412)" fill="#4BBFA9"/>
<circle r="1.77749" transform="matrix(1 0 0 -1 95.1413 363.412)" fill="#4BBFA9"/>
<circle r="1.77749" transform="matrix(1 0 0 -1 117.656 363.412)" fill="#4BBFA9"/>
<circle r="1.77749" transform="matrix(1 0 0 -1 5.08157 340.898)" fill="#4BBFA9"/>
<circle r="1.77749" transform="matrix(1 0 0 -1 27.5965 340.898)" fill="#4BBFA9"/>
<circle r="1.77749" transform="matrix(1 0 0 -1 50.1131 340.898)" fill="#4BBFA9"/>
<circle r="1.77749" transform="matrix(1 0 0 -1 72.6248 340.898)" fill="#4BBFA9"/>
<circle r="1.77749" transform="matrix(1 0 0 -1 95.1413 340.898)" fill="#4BBFA9"/>
<circle r="1.77749" transform="matrix(1 0 0 -1 117.656 340.898)" fill="#4BBFA9"/>
<circle r="1.77749" transform="matrix(1 0 0 -1 5.08157 318.383)" fill="#4BBFA9"/>
<circle r="1.77749" transform="matrix(1 0 0 -1 27.5965 318.383)" fill="#4BBFA9"/>
<circle r="1.77749" transform="matrix(1 0 0 -1 50.1131 318.383)" fill="#4BBFA9"/>
<circle r="1.77749" transform="matrix(1 0 0 -1 72.6248 318.383)" fill="#4BBFA9"/>
<circle r="1.77749" transform="matrix(1 0 0 -1 95.1413 318.383)" fill="#4BBFA9"/>
<circle r="1.77749" transform="matrix(1 0 0 -1 117.656 318.383)" fill="#4BBFA9"/>
<circle r="1.77749" transform="matrix(1 0 0 -1 5.08157 295.868)" fill="#4BBFA9"/>
<circle r="1.77749" transform="matrix(1 0 0 -1 27.5965 295.868)" fill="#4BBFA9"/>
<circle r="1.77749" transform="matrix(1 0 0 -1 50.1131 295.867)" fill="#4BBFA9"/>
<circle r="1.77749" transform="matrix(1 0 0 -1 72.6248 295.867)" fill="#4BBFA9"/>
<circle r="1.77749" transform="matrix(1 0 0 -1 95.1413 295.868)" fill="#4BBFA9"/>
<circle r="1.77749" transform="matrix(1 0 0 -1 117.656 295.868)" fill="#4BBFA9"/>
<circle r="1.77749" transform="matrix(1 0 0 -1 5.08157 273.353)" fill="#4BBFA9"/>
<circle r="1.77749" transform="matrix(1 0 0 -1 27.5965 273.353)" fill="#4BBFA9"/>
<circle r="1.77749" transform="matrix(1 0 0 -1 50.1131 273.353)" fill="#4BBFA9"/>
<circle r="1.77749" transform="matrix(1 0 0 -1 72.6248 273.353)" fill="#4BBFA9"/>
<circle r="1.77749" transform="matrix(1 0 0 -1 95.1413 273.353)" fill="#4BBFA9"/>
<circle r="1.77749" transform="matrix(1 0 0 -1 117.656 273.353)" fill="#4BBFA9"/>
<circle r="1.77749" transform="matrix(1 0 0 -1 5.08157 250.838)" fill="#4BBFA9"/>
<circle r="1.77749" transform="matrix(1 0 0 -1 27.5965 250.838)" fill="#4BBFA9"/>
<circle r="1.77749" transform="matrix(1 0 0 -1 50.1131 250.838)" fill="#4BBFA9"/>
<circle r="1.77749" transform="matrix(1 0 0 -1 72.6248 250.838)" fill="#4BBFA9"/>
<circle r="1.77749" transform="matrix(1 0 0 -1 95.1413 250.838)" fill="#4BBFA9"/>
<circle r="1.77749" transform="matrix(1 0 0 -1 117.656 250.838)" fill="#4BBFA9"/>
<circle r="1.77749" transform="matrix(1 0 0 -1 5.08157 228.323)" fill="#4BBFA9"/>
<circle r="1.77749" transform="matrix(1 0 0 -1 27.5965 228.323)" fill="#4BBFA9"/>
<circle r="1.77749" transform="matrix(1 0 0 -1 50.1131 228.322)" fill="#4BBFA9"/>
<circle r="1.77749" transform="matrix(1 0 0 -1 72.6248 228.322)" fill="#4BBFA9"/>
<circle r="1.77749" transform="matrix(1 0 0 -1 95.1413 228.323)" fill="#4BBFA9"/>
<circle r="1.77749" transform="matrix(1 0 0 -1 117.656 228.323)" fill="#4BBFA9"/>
<circle r="1.77749" transform="matrix(1 0 0 -1 5.08157 205.808)" fill="#4BBFA9"/>
<circle r="1.77749" transform="matrix(1 0 0 -1 27.5965 205.808)" fill="#4BBFA9"/>
<circle r="1.77749" transform="matrix(1 0 0 -1 50.1131 205.808)" fill="#4BBFA9"/>
<circle r="1.77749" transform="matrix(1 0 0 -1 72.6248 205.808)" fill="#4BBFA9"/>
<circle r="1.77749" transform="matrix(1 0 0 -1 95.1413 205.808)" fill="#4BBFA9"/>
<circle r="1.77749" transform="matrix(1 0 0 -1 117.656 205.808)" fill="#4BBFA9"/>
<circle r="1.77749" transform="matrix(1 0 0 -1 5.08157 183.293)" fill="#4BBFA9"/>
<circle r="1.77749" transform="matrix(1 0 0 -1 27.5965 183.293)" fill="#4BBFA9"/>
<circle r="1.77749" transform="matrix(1 0 0 -1 50.1131 183.293)" fill="#4BBFA9"/>
<circle r="1.77749" transform="matrix(1 0 0 -1 72.6248 183.293)" fill="#4BBFA9"/>
<circle r="1.77749" transform="matrix(1 0 0 -1 95.1413 183.293)" fill="#4BBFA9"/>
<circle r="1.77749" transform="matrix(1 0 0 -1 117.656 183.293)" fill="#4BBFA9"/>
<circle r="1.77749" transform="matrix(1 0 0 -1 5.08157 160.778)" fill="#4BBFA9"/>
<circle r="1.77749" transform="matrix(1 0 0 -1 27.5965 160.778)" fill="#4BBFA9"/>
<circle r="1.77749" transform="matrix(1 0 0 -1 50.1131 160.779)" fill="#4BBFA9"/>
<circle r="1.77749" transform="matrix(1 0 0 -1 72.6248 160.779)" fill="#4BBFA9"/>
<circle r="1.77749" transform="matrix(1 0 0 -1 95.1413 160.778)" fill="#4BBFA9"/>
<circle r="1.77749" transform="matrix(1 0 0 -1 117.656 160.778)" fill="#4BBFA9"/>
<circle r="1.77749" transform="matrix(1 0 0 -1 410.348 388.299)" fill="#4BBFA9"/>
<circle r="1.77749" transform="matrix(1 0 0 -1 432.863 388.299)" fill="#4BBFA9"/>
<circle r="1.77749" transform="matrix(1 0 0 -1 455.379 388.299)" fill="#4BBFA9"/>
<circle r="1.77749" transform="matrix(1 0 0 -1 477.891 388.299)" fill="#4BBFA9"/>
<circle r="1.77749" transform="matrix(1 0 0 -1 500.406 388.299)" fill="#4BBFA9"/>
<circle r="1.77749" transform="matrix(1 0 0 -1 522.922 388.299)" fill="#4BBFA9"/>
<circle r="1.77749" transform="matrix(1 0 0 -1 545.437 388.299)" fill="#4BBFA9"/>
<circle r="1.77749" transform="matrix(1 0 0 -1 567.952 388.299)" fill="#4BBFA9"/>
<circle r="1.77749" transform="matrix(1 0 0 -1 590.469 388.299)" fill="#4BBFA9"/>
<circle r="1.77749" transform="matrix(1 0 0 -1 612.981 388.299)" fill="#4BBFA9"/>
<circle r="1.77749" transform="matrix(1 0 0 -1 635.497 388.299)" fill="#4BBFA9"/>
<circle r="1.77749" transform="matrix(1 0 0 -1 658.012 388.299)" fill="#4BBFA9"/>
<circle r="1.77749" transform="matrix(1 0 0 -1 410.348 365.784)" fill="#4BBFA9"/>
<circle r="1.77749" transform="matrix(1 0 0 -1 432.863 365.784)" fill="#4BBFA9"/>
<circle r="1.77749" transform="matrix(1 0 0 -1 455.379 365.783)" fill="#4BBFA9"/>
<circle r="1.77749" transform="matrix(1 0 0 -1 477.891 365.783)" fill="#4BBFA9"/>
<circle r="1.77749" transform="matrix(1 0 0 -1 500.406 365.783)" fill="#4BBFA9"/>
<circle r="1.77749" transform="matrix(1 0 0 -1 522.922 365.784)" fill="#4BBFA9"/>
<circle r="1.77749" transform="matrix(1 0 0 -1 545.437 365.784)" fill="#4BBFA9"/>
<circle r="1.77749" transform="matrix(1 0 0 -1 567.952 365.784)" fill="#4BBFA9"/>
<circle r="1.77749" transform="matrix(1 0 0 -1 590.469 365.783)" fill="#4BBFA9"/>
<circle r="1.77749" transform="matrix(1 0 0 -1 612.981 365.783)" fill="#4BBFA9"/>
<circle r="1.77749" transform="matrix(1 0 0 -1 635.497 365.784)" fill="#4BBFA9"/>
<circle r="1.77749" transform="matrix(1 0 0 -1 658.012 365.784)" fill="#4BBFA9"/>
<circle r="1.77749" transform="matrix(1 0 0 -1 410.348 343.269)" fill="#4BBFA9"/>
<circle r="1.77749" transform="matrix(1 0 0 -1 432.863 343.269)" fill="#4BBFA9"/>
<circle r="1.77749" transform="matrix(1 0 0 -1 455.379 343.269)" fill="#4BBFA9"/>
<circle r="1.77749" transform="matrix(1 0 0 -1 477.891 343.269)" fill="#4BBFA9"/>
<circle r="1.77749" transform="matrix(1 0 0 -1 500.406 343.269)" fill="#4BBFA9"/>
<circle r="1.77749" transform="matrix(1 0 0 -1 522.922 343.269)" fill="#4BBFA9"/>
<circle r="1.77749" transform="matrix(1 0 0 -1 545.437 343.269)" fill="#4BBFA9"/>
<circle r="1.77749" transform="matrix(1 0 0 -1 567.952 343.269)" fill="#4BBFA9"/>
<circle r="1.77749" transform="matrix(1 0 0 -1 590.469 343.269)" fill="#4BBFA9"/>
<circle r="1.77749" transform="matrix(1 0 0 -1 612.981 343.269)" fill="#4BBFA9"/>
<circle r="1.77749" transform="matrix(1 0 0 -1 635.497 343.269)" fill="#4BBFA9"/>
<circle r="1.77749" transform="matrix(1 0 0 -1 658.012 343.269)" fill="#4BBFA9"/>
<circle r="1.77749" transform="matrix(1 0 0 -1 410.348 320.754)" fill="#4BBFA9"/>
<circle r="1.77749" transform="matrix(1 0 0 -1 432.863 320.754)" fill="#4BBFA9"/>
<circle r="1.77749" transform="matrix(1 0 0 -1 455.379 320.754)" fill="#4BBFA9"/>
<circle r="1.77749" transform="matrix(1 0 0 -1 477.891 320.754)" fill="#4BBFA9"/>
<circle r="1.77749" transform="matrix(1 0 0 -1 500.406 320.754)" fill="#4BBFA9"/>
<circle r="1.77749" transform="matrix(1 0 0 -1 522.922 320.754)" fill="#4BBFA9"/>
<circle r="1.77749" transform="matrix(1 0 0 -1 545.437 320.754)" fill="#4BBFA9"/>
<circle r="1.77749" transform="matrix(1 0 0 -1 567.952 320.754)" fill="#4BBFA9"/>
<circle r="1.77749" transform="matrix(1 0 0 -1 590.469 320.754)" fill="#4BBFA9"/>
<circle r="1.77749" transform="matrix(1 0 0 -1 612.981 320.754)" fill="#4BBFA9"/>
<circle r="1.77749" transform="matrix(1 0 0 -1 635.497 320.754)" fill="#4BBFA9"/>
<circle r="1.77749" transform="matrix(1 0 0 -1 658.012 320.754)" fill="#4BBFA9"/>
<circle r="1.77749" transform="matrix(1 0 0 -1 410.348 298.239)" fill="#4BBFA9"/>
<circle r="1.77749" transform="matrix(1 0 0 -1 432.863 298.239)" fill="#4BBFA9"/>
<circle r="1.77749" transform="matrix(1 0 0 -1 455.379 298.238)" fill="#4BBFA9"/>
<circle r="1.77749" transform="matrix(1 0 0 -1 477.891 298.238)" fill="#4BBFA9"/>
<circle r="1.77749" transform="matrix(1 0 0 -1 500.406 298.238)" fill="#4BBFA9"/>
<circle r="1.77749" transform="matrix(1 0 0 -1 522.922 298.239)" fill="#4BBFA9"/>
<circle r="1.77749" transform="matrix(1 0 0 -1 545.437 298.239)" fill="#4BBFA9"/>
<circle r="1.77749" transform="matrix(1 0 0 -1 567.952 298.239)" fill="#4BBFA9"/>
<circle r="1.77749" transform="matrix(1 0 0 -1 590.469 298.238)" fill="#4BBFA9"/>
<circle r="1.77749" transform="matrix(1 0 0 -1 612.981 298.238)" fill="#4BBFA9"/>
<circle r="1.77749" transform="matrix(1 0 0 -1 635.497 298.239)" fill="#4BBFA9"/>
<circle r="1.77749" transform="matrix(1 0 0 -1 658.012 298.239)" fill="#4BBFA9"/>
<circle r="1.77749" transform="matrix(1 0 0 -1 410.348 275.724)" fill="#4BBFA9"/>
<circle r="1.77749" transform="matrix(1 0 0 -1 432.863 275.724)" fill="#4BBFA9"/>
<circle r="1.77749" transform="matrix(1 0 0 -1 455.379 275.724)" fill="#4BBFA9"/>
<circle r="1.77749" transform="matrix(1 0 0 -1 477.891 275.724)" fill="#4BBFA9"/>
<circle r="1.77749" transform="matrix(1 0 0 -1 500.406 275.724)" fill="#4BBFA9"/>
<circle r="1.77749" transform="matrix(1 0 0 -1 522.922 275.724)" fill="#4BBFA9"/>
<circle r="1.77749" transform="matrix(1 0 0 -1 545.437 275.724)" fill="#4BBFA9"/>
<circle r="1.77749" transform="matrix(1 0 0 -1 567.952 275.724)" fill="#4BBFA9"/>
<circle r="1.77749" transform="matrix(1 0 0 -1 590.469 275.724)" fill="#4BBFA9"/>
<circle r="1.77749" transform="matrix(1 0 0 -1 612.981 275.724)" fill="#4BBFA9"/>
<circle r="1.77749" transform="matrix(1 0 0 -1 635.497 275.724)" fill="#4BBFA9"/>
<circle r="1.77749" transform="matrix(1 0 0 -1 658.012 275.724)" fill="#4BBFA9"/>
<circle r="1.77749" transform="matrix(1 0 0 -1 410.348 253.209)" fill="#4BBFA9"/>
<circle r="1.77749" transform="matrix(1 0 0 -1 432.863 253.209)" fill="#4BBFA9"/>
<circle r="1.77749" transform="matrix(1 0 0 -1 455.379 253.209)" fill="#4BBFA9"/>
<circle r="1.77749" transform="matrix(1 0 0 -1 477.891 253.209)" fill="#4BBFA9"/>
<circle r="1.77749" transform="matrix(1 0 0 -1 500.406 253.209)" fill="#4BBFA9"/>
<circle r="1.77749" transform="matrix(1 0 0 -1 522.922 253.209)" fill="#4BBFA9"/>
<circle r="1.77749" transform="matrix(1 0 0 -1 545.437 253.209)" fill="#4BBFA9"/>
<circle r="1.77749" transform="matrix(1 0 0 -1 567.952 253.209)" fill="#4BBFA9"/>
<circle r="1.77749" transform="matrix(1 0 0 -1 590.469 253.209)" fill="#4BBFA9"/>
<circle r="1.77749" transform="matrix(1 0 0 -1 612.981 253.209)" fill="#4BBFA9"/>
<circle r="1.77749" transform="matrix(1 0 0 -1 635.497 253.209)" fill="#4BBFA9"/>
<circle r="1.77749" transform="matrix(1 0 0 -1 658.012 253.209)" fill="#4BBFA9"/>
<circle r="1.77749" transform="matrix(1 0 0 -1 410.348 230.694)" fill="#4BBFA9"/>
<circle r="1.77749" transform="matrix(1 0 0 -1 432.863 230.694)" fill="#4BBFA9"/>
<circle r="1.77749" transform="matrix(1 0 0 -1 455.379 230.693)" fill="#4BBFA9"/>
<circle r="1.77749" transform="matrix(1 0 0 -1 477.891 230.693)" fill="#4BBFA9"/>
<circle r="1.77749" transform="matrix(1 0 0 -1 500.406 230.693)" fill="#4BBFA9"/>
<circle r="1.77749" transform="matrix(1 0 0 -1 522.922 230.694)" fill="#4BBFA9"/>
<circle r="1.77749" transform="matrix(1 0 0 -1 545.437 230.694)" fill="#4BBFA9"/>
<circle r="1.77749" transform="matrix(1 0 0 -1 567.952 230.694)" fill="#4BBFA9"/>
<circle r="1.77749" transform="matrix(1 0 0 -1 590.469 230.693)" fill="#4BBFA9"/>
<circle r="1.77749" transform="matrix(1 0 0 -1 612.981 230.693)" fill="#4BBFA9"/>
<circle r="1.77749" transform="matrix(1 0 0 -1 635.497 230.694)" fill="#4BBFA9"/>
<circle r="1.77749" transform="matrix(1 0 0 -1 658.012 230.694)" fill="#4BBFA9"/>
<circle r="1.77749" transform="matrix(1 0 0 -1 410.348 208.179)" fill="#4BBFA9"/>
<circle r="1.77749" transform="matrix(1 0 0 -1 432.863 208.179)" fill="#4BBFA9"/>
<circle r="1.77749" transform="matrix(1 0 0 -1 455.379 208.18)" fill="#4BBFA9"/>
<circle r="1.77749" transform="matrix(1 0 0 -1 477.891 208.18)" fill="#4BBFA9"/>
<circle r="1.77749" transform="matrix(1 0 0 -1 500.406 208.18)" fill="#4BBFA9"/>
<circle r="1.77749" transform="matrix(1 0 0 -1 522.922 208.179)" fill="#4BBFA9"/>
<circle r="1.77749" transform="matrix(1 0 0 -1 545.437 208.179)" fill="#4BBFA9"/>
<circle r="1.77749" transform="matrix(1 0 0 -1 567.952 208.179)" fill="#4BBFA9"/>
<circle r="1.77749" transform="matrix(1 0 0 -1 590.469 208.18)" fill="#4BBFA9"/>
<circle r="1.77749" transform="matrix(1 0 0 -1 612.981 208.18)" fill="#4BBFA9"/>
<circle r="1.77749" transform="matrix(1 0 0 -1 635.497 208.179)" fill="#4BBFA9"/>
<circle r="1.77749" transform="matrix(1 0 0 -1 658.012 208.179)" fill="#4BBFA9"/>
<circle r="1.77749" transform="matrix(1 0 0 -1 410.348 185.664)" fill="#4BBFA9"/>
<circle r="1.77749" transform="matrix(1 0 0 -1 432.863 185.664)" fill="#4BBFA9"/>
<circle r="1.77749" transform="matrix(1 0 0 -1 455.379 185.664)" fill="#4BBFA9"/>
<circle r="1.77749" transform="matrix(1 0 0 -1 477.891 185.664)" fill="#4BBFA9"/>
<circle r="1.77749" transform="matrix(1 0 0 -1 500.406 185.664)" fill="#4BBFA9"/>
<circle r="1.77749" transform="matrix(1 0 0 -1 522.922 185.664)" fill="#4BBFA9"/>
<circle r="1.77749" transform="matrix(1 0 0 -1 545.437 185.664)" fill="#4BBFA9"/>
<circle r="1.77749" transform="matrix(1 0 0 -1 567.952 185.664)" fill="#4BBFA9"/>
<circle r="1.77749" transform="matrix(1 0 0 -1 590.469 185.664)" fill="#4BBFA9"/>
<circle r="1.77749" transform="matrix(1 0 0 -1 612.981 185.664)" fill="#4BBFA9"/>
<circle r="1.77749" transform="matrix(1 0 0 -1 635.497 185.664)" fill="#4BBFA9"/>
<circle r="1.77749" transform="matrix(1 0 0 -1 658.012 185.664)" fill="#4BBFA9"/>
<circle r="1.77749" transform="matrix(1 0 0 -1 410.348 163.149)" fill="#4BBFA9"/>
<circle r="1.77749" transform="matrix(1 0 0 -1 432.863 163.149)" fill="#4BBFA9"/>
<circle r="1.77749" transform="matrix(1 0 0 -1 455.379 163.15)" fill="#4BBFA9"/>
<circle r="1.77749" transform="matrix(1 0 0 -1 477.891 163.15)" fill="#4BBFA9"/>
<circle r="1.77749" transform="matrix(1 0 0 -1 500.406 163.15)" fill="#4BBFA9"/>
<circle r="1.77749" transform="matrix(1 0 0 -1 522.922 163.149)" fill="#4BBFA9"/>
<circle r="1.77749" transform="matrix(1 0 0 -1 545.437 163.149)" fill="#4BBFA9"/>
<circle r="1.77749" transform="matrix(1 0 0 -1 567.952 163.149)" fill="#4BBFA9"/>
<circle r="1.77749" transform="matrix(1 0 0 -1 590.469 163.15)" fill="#4BBFA9"/>
<circle r="1.77749" transform="matrix(1 0 0 -1 612.981 163.15)" fill="#4BBFA9"/>
<circle r="1.77749" transform="matrix(1 0 0 -1 635.497 163.149)" fill="#4BBFA9"/>
<circle r="1.77749" transform="matrix(1 0 0 -1 658.012 163.149)" fill="#4BBFA9"/>
<circle r="1.77749" transform="matrix(1 0 0 -1 409.164 137.08)" fill="#4BBFA9"/>
<circle r="1.77749" transform="matrix(1 0 0 -1 431.68 137.079)" fill="#4BBFA9"/>
<circle r="1.77749" transform="matrix(1 0 0 -1 454.195 137.079)" fill="#4BBFA9"/>
<circle r="1.77749" transform="matrix(1 0 0 -1 476.711 137.08)" fill="#4BBFA9"/>
<circle r="1.77749" transform="matrix(1 0 0 -1 499.227 137.08)" fill="#4BBFA9"/>
<circle r="1.77749" transform="matrix(1 0 0 -1 521.738 137.08)" fill="#4BBFA9"/>
<circle r="1.77749" transform="matrix(1 0 0 -1 544.255 137.079)" fill="#4BBFA9"/>
<circle r="1.77749" transform="matrix(1 0 0 -1 566.77 137.079)" fill="#4BBFA9"/>
<circle r="1.77749" transform="matrix(1 0 0 -1 589.285 137.079)" fill="#4BBFA9"/>
<circle r="1.77749" transform="matrix(1 0 0 -1 611.801 137.08)" fill="#4BBFA9"/>
<circle r="1.77749" transform="matrix(1 0 0 -1 634.313 137.08)" fill="#4BBFA9"/>
<circle r="1.77749" transform="matrix(1 0 0 -1 656.828 137.08)" fill="#4BBFA9"/>
<circle r="1.77749" transform="matrix(1 0 0 -1 409.165 114.564)" fill="#4BBFA9"/>
<circle r="1.77749" transform="matrix(1 0 0 -1 431.68 114.564)" fill="#4BBFA9"/>
<circle r="1.77749" transform="matrix(1 0 0 -1 454.195 114.564)" fill="#4BBFA9"/>
<circle r="1.77749" transform="matrix(1 0 0 -1 476.711 114.564)" fill="#4BBFA9"/>
<circle r="1.77749" transform="matrix(1 0 0 -1 499.227 114.564)" fill="#4BBFA9"/>
<circle r="1.77749" transform="matrix(1 0 0 -1 521.738 114.564)" fill="#4BBFA9"/>
<circle r="1.77749" transform="matrix(1 0 0 -1 544.255 114.564)" fill="#4BBFA9"/>
<circle r="1.77749" transform="matrix(1 0 0 -1 566.77 114.564)" fill="#4BBFA9"/>
<circle r="1.77749" transform="matrix(1 0 0 -1 589.285 114.564)" fill="#4BBFA9"/>
<circle r="1.77749" transform="matrix(1 0 0 -1 611.801 114.564)" fill="#4BBFA9"/>
<circle r="1.77749" transform="matrix(1 0 0 -1 634.313 114.564)" fill="#4BBFA9"/>
<circle r="1.77749" transform="matrix(1 0 0 -1 656.828 114.564)" fill="#4BBFA9"/>
<circle r="1.77749" transform="matrix(1 0 0 -1 409.165 92.0497)" fill="#4BBFA9"/>
<circle r="1.77749" transform="matrix(1 0 0 -1 431.68 92.0497)" fill="#4BBFA9"/>
<circle r="1.77749" transform="matrix(1 0 0 -1 454.195 92.0497)" fill="#4BBFA9"/>
<circle r="1.77749" transform="matrix(1 0 0 -1 476.711 92.0487)" fill="#4BBFA9"/>
<circle r="1.77749" transform="matrix(1 0 0 -1 499.227 92.0487)" fill="#4BBFA9"/>
<circle r="1.77749" transform="matrix(1 0 0 -1 521.738 92.0487)" fill="#4BBFA9"/>
<circle r="1.77749" transform="matrix(1 0 0 -1 544.255 92.0497)" fill="#4BBFA9"/>
<circle r="1.77749" transform="matrix(1 0 0 -1 566.77 92.0497)" fill="#4BBFA9"/>
<circle r="1.77749" transform="matrix(1 0 0 -1 589.285 92.0497)" fill="#4BBFA9"/>
<circle r="1.77749" transform="matrix(1 0 0 -1 611.801 92.0487)" fill="#4BBFA9"/>
<circle r="1.77749" transform="matrix(1 0 0 -1 634.313 92.0487)" fill="#4BBFA9"/>
<circle r="1.77749" transform="matrix(1 0 0 -1 656.828 92.0487)" fill="#4BBFA9"/>
<circle r="1.77749" transform="matrix(1 0 0 -1 409.165 69.5345)" fill="#4BBFA9"/>
<circle r="1.77749" transform="matrix(1 0 0 -1 431.68 69.5345)" fill="#4BBFA9"/>
<circle r="1.77749" transform="matrix(1 0 0 -1 454.195 69.5345)" fill="#4BBFA9"/>
<circle r="1.77749" transform="matrix(1 0 0 -1 476.711 69.535)" fill="#4BBFA9"/>
<circle r="1.77749" transform="matrix(1 0 0 -1 499.227 69.535)" fill="#4BBFA9"/>
<circle r="1.77749" transform="matrix(1 0 0 -1 521.738 69.535)" fill="#4BBFA9"/>
<circle r="1.77749" transform="matrix(1 0 0 -1 544.255 69.5345)" fill="#4BBFA9"/>
<circle r="1.77749" transform="matrix(1 0 0 -1 566.77 69.5345)" fill="#4BBFA9"/>
<circle r="1.77749" transform="matrix(1 0 0 -1 589.285 69.5345)" fill="#4BBFA9"/>
<circle r="1.77749" transform="matrix(1 0 0 -1 611.801 69.535)" fill="#4BBFA9"/>
<circle r="1.77749" transform="matrix(1 0 0 -1 634.313 69.535)" fill="#4BBFA9"/>
<circle r="1.77749" transform="matrix(1 0 0 -1 656.828 69.535)" fill="#4BBFA9"/>
<circle r="1.77749" transform="matrix(1 0 0 -1 409.165 47.0199)" fill="#4BBFA9"/>
<circle r="1.77749" transform="matrix(1 0 0 -1 431.68 47.0199)" fill="#4BBFA9"/>
<circle r="1.77749" transform="matrix(1 0 0 -1 454.195 47.0199)" fill="#4BBFA9"/>
<circle r="1.77749" transform="matrix(1 0 0 -1 476.711 47.0194)" fill="#4BBFA9"/>
<circle r="1.77749" transform="matrix(1 0 0 -1 499.227 47.0194)" fill="#4BBFA9"/>
<circle r="1.77749" transform="matrix(1 0 0 -1 521.738 47.0194)" fill="#4BBFA9"/>
<circle r="1.77749" transform="matrix(1 0 0 -1 544.255 47.0199)" fill="#4BBFA9"/>
<circle r="1.77749" transform="matrix(1 0 0 -1 566.77 47.0199)" fill="#4BBFA9"/>
<circle r="1.77749" transform="matrix(1 0 0 -1 589.285 47.0199)" fill="#4BBFA9"/>
<circle r="1.77749" transform="matrix(1 0 0 -1 611.801 47.0194)" fill="#4BBFA9"/>
<circle r="1.77749" transform="matrix(1 0 0 -1 634.313 47.0194)" fill="#4BBFA9"/>
<circle r="1.77749" transform="matrix(1 0 0 -1 656.828 47.0194)" fill="#4BBFA9"/>
<circle r="1.77749" transform="matrix(1 0 0 -1 409.165 24.5047)" fill="#4BBFA9"/>
<circle r="1.77749" transform="matrix(1 0 0 -1 431.68 24.5047)" fill="#4BBFA9"/>
<circle r="1.77749" transform="matrix(1 0 0 -1 454.195 24.5047)" fill="#4BBFA9"/>
<circle r="1.77749" transform="matrix(1 0 0 -1 476.711 24.5057)" fill="#4BBFA9"/>
<circle r="1.77749" transform="matrix(1 0 0 -1 499.227 24.5057)" fill="#4BBFA9"/>
<circle r="1.77749" transform="matrix(1 0 0 -1 521.738 24.5057)" fill="#4BBFA9"/>
<circle r="1.77749" transform="matrix(1 0 0 -1 544.255 24.5047)" fill="#4BBFA9"/>
<circle r="1.77749" transform="matrix(1 0 0 -1 566.77 24.5047)" fill="#4BBFA9"/>
<circle r="1.77749" transform="matrix(1 0 0 -1 589.285 24.5047)" fill="#4BBFA9"/>
<circle r="1.77749" transform="matrix(1 0 0 -1 611.801 24.5057)" fill="#4BBFA9"/>
<circle r="1.77749" transform="matrix(1 0 0 -1 634.313 24.5057)" fill="#4BBFA9"/>
<circle r="1.77749" transform="matrix(1 0 0 -1 656.828 24.5057)" fill="#4BBFA9"/>
<circle r="1.77749" transform="matrix(1 0 0 -1 409.165 1.9896)" fill="#4BBFA9"/>
<circle r="1.77749" transform="matrix(1 0 0 -1 431.68 1.9896)" fill="#4BBFA9"/>
<circle r="1.77749" transform="matrix(1 0 0 -1 454.195 1.9896)" fill="#4BBFA9"/>
<circle r="1.77749" transform="matrix(1 0 0 -1 476.711 1.99008)" fill="#4BBFA9"/>
<circle r="1.77749" transform="matrix(1 0 0 -1 499.227 1.99008)" fill="#4BBFA9"/>
<circle r="1.77749" transform="matrix(1 0 0 -1 521.738 1.99008)" fill="#4BBFA9"/>
<circle r="1.77749" transform="matrix(1 0 0 -1 544.255 1.9896)" fill="#4BBFA9"/>
<circle r="1.77749" transform="matrix(1 0 0 -1 566.77 1.9896)" fill="#4BBFA9"/>
<circle r="1.77749" transform="matrix(1 0 0 -1 589.285 1.9896)" fill="#4BBFA9"/>
<circle r="1.77749" transform="matrix(1 0 0 -1 611.801 1.99008)" fill="#4BBFA9"/>
<circle r="1.77749" transform="matrix(1 0 0 -1 634.313 1.99008)" fill="#4BBFA9"/>
<circle r="1.77749" transform="matrix(1 0 0 -1 656.828 1.99008)" fill="#4BBFA9"/>
</g>
</g>
</svg>
