<svg width="698" height="394" viewBox="0 0 698 394" fill="none" xmlns="http://www.w3.org/2000/svg">
<g opacity="0.6">
<mask id="mask0" mask-type="alpha" maskUnits="userSpaceOnUse" x="0" y="0" width="698" height="394">
<path d="M697.257 58.4028C704.454 31.4416 515.757 132.404 336.257 58.4028C156.757 -15.5983 -22.2423 -46.0929 2.25883 132.404C26.7599 310.901 194.105 456.461 403.257 366.402C612.409 276.342 690.061 85.3639 697.257 58.4028Z" fill="#C4C4C4"/>
</mask>
<g mask="url(#mask0)">
<circle r="1.77749" transform="matrix(1 0 0 -1 135.428 391.254)" fill="#4BBFA9"/>
<circle r="1.77749" transform="matrix(1 0 0 -1 157.944 391.254)" fill="#4BBFA9"/>
<circle r="1.77749" transform="matrix(1 0 0 -1 180.46 391.254)" fill="#4BBFA9"/>
<circle r="1.77749" transform="matrix(1 0 0 -1 202.971 391.254)" fill="#4BBFA9"/>
<circle r="1.77749" transform="matrix(1 0 0 -1 225.487 391.254)" fill="#4BBFA9"/>
<circle r="1.77749" transform="matrix(1 0 0 -1 248.003 391.254)" fill="#4BBFA9"/>
<circle r="1.77749" transform="matrix(1 0 0 -1 270.518 391.254)" fill="#4BBFA9"/>
<circle r="1.77749" transform="matrix(1 0 0 -1 293.033 391.254)" fill="#4BBFA9"/>
<circle r="1.77749" transform="matrix(1 0 0 -1 315.549 391.254)" fill="#4BBFA9"/>
<circle r="1.77749" transform="matrix(1 0 0 -1 338.061 391.254)" fill="#4BBFA9"/>
<circle r="1.77749" transform="matrix(1 0 0 -1 360.578 391.254)" fill="#4BBFA9"/>
<circle r="1.77749" transform="matrix(1 0 0 -1 383.092 391.254)" fill="#4BBFA9"/>
<circle r="1.77749" transform="matrix(1 0 0 -1 135.428 368.739)" fill="#4BBFA9"/>
<circle r="1.77749" transform="matrix(1 0 0 -1 157.944 368.739)" fill="#4BBFA9"/>
<circle r="1.77749" transform="matrix(1 0 0 -1 180.46 368.738)" fill="#4BBFA9"/>
<circle r="1.77749" transform="matrix(1 0 0 -1 202.971 368.738)" fill="#4BBFA9"/>
<circle r="1.77749" transform="matrix(1 0 0 -1 225.487 368.738)" fill="#4BBFA9"/>
<circle r="1.77749" transform="matrix(1 0 0 -1 248.003 368.739)" fill="#4BBFA9"/>
<circle r="1.77749" transform="matrix(1 0 0 -1 270.518 368.739)" fill="#4BBFA9"/>
<circle r="1.77749" transform="matrix(1 0 0 -1 293.033 368.739)" fill="#4BBFA9"/>
<circle r="1.77749" transform="matrix(1 0 0 -1 315.549 368.738)" fill="#4BBFA9"/>
<circle r="1.77749" transform="matrix(1 0 0 -1 338.061 368.738)" fill="#4BBFA9"/>
<circle r="1.77749" transform="matrix(1 0 0 -1 360.578 368.739)" fill="#4BBFA9"/>
<circle r="1.77749" transform="matrix(1 0 0 -1 383.092 368.739)" fill="#4BBFA9"/>
<circle r="1.77749" transform="matrix(1 0 0 -1 135.428 346.224)" fill="#4BBFA9"/>
<circle r="1.77749" transform="matrix(1 0 0 -1 157.944 346.224)" fill="#4BBFA9"/>
<circle r="1.77749" transform="matrix(1 0 0 -1 180.46 346.225)" fill="#4BBFA9"/>
<circle r="1.77749" transform="matrix(1 0 0 -1 202.971 346.225)" fill="#4BBFA9"/>
<circle r="1.77749" transform="matrix(1 0 0 -1 225.487 346.225)" fill="#4BBFA9"/>
<circle r="1.77749" transform="matrix(1 0 0 -1 248.003 346.224)" fill="#4BBFA9"/>
<circle r="1.77749" transform="matrix(1 0 0 -1 270.518 346.224)" fill="#4BBFA9"/>
<circle r="1.77749" transform="matrix(1 0 0 -1 293.033 346.224)" fill="#4BBFA9"/>
<circle r="1.77749" transform="matrix(1 0 0 -1 315.549 346.225)" fill="#4BBFA9"/>
<circle r="1.77749" transform="matrix(1 0 0 -1 338.061 346.225)" fill="#4BBFA9"/>
<circle r="1.77749" transform="matrix(1 0 0 -1 360.578 346.224)" fill="#4BBFA9"/>
<circle r="1.77749" transform="matrix(1 0 0 -1 383.092 346.224)" fill="#4BBFA9"/>
<circle r="1.77749" transform="matrix(1 0 0 -1 135.428 323.709)" fill="#4BBFA9"/>
<circle r="1.77749" transform="matrix(1 0 0 -1 157.944 323.709)" fill="#4BBFA9"/>
<circle r="1.77749" transform="matrix(1 0 0 -1 180.46 323.709)" fill="#4BBFA9"/>
<circle r="1.77749" transform="matrix(1 0 0 -1 202.971 323.709)" fill="#4BBFA9"/>
<circle r="1.77749" transform="matrix(1 0 0 -1 225.487 323.709)" fill="#4BBFA9"/>
<circle r="1.77749" transform="matrix(1 0 0 -1 248.003 323.709)" fill="#4BBFA9"/>
<circle r="1.77749" transform="matrix(1 0 0 -1 270.518 323.709)" fill="#4BBFA9"/>
<circle r="1.77749" transform="matrix(1 0 0 -1 293.033 323.709)" fill="#4BBFA9"/>
<circle r="1.77749" transform="matrix(1 0 0 -1 315.549 323.709)" fill="#4BBFA9"/>
<circle r="1.77749" transform="matrix(1 0 0 -1 338.061 323.709)" fill="#4BBFA9"/>
<circle r="1.77749" transform="matrix(1 0 0 -1 360.578 323.709)" fill="#4BBFA9"/>
<circle r="1.77749" transform="matrix(1 0 0 -1 383.092 323.709)" fill="#4BBFA9"/>
<circle r="1.77749" transform="matrix(1 0 0 -1 135.428 301.194)" fill="#4BBFA9"/>
<circle r="1.77749" transform="matrix(1 0 0 -1 157.944 301.194)" fill="#4BBFA9"/>
<circle r="1.77749" transform="matrix(1 0 0 -1 180.46 301.193)" fill="#4BBFA9"/>
<circle r="1.77749" transform="matrix(1 0 0 -1 202.971 301.193)" fill="#4BBFA9"/>
<circle r="1.77749" transform="matrix(1 0 0 -1 225.487 301.193)" fill="#4BBFA9"/>
<circle r="1.77749" transform="matrix(1 0 0 -1 248.003 301.194)" fill="#4BBFA9"/>
<circle r="1.77749" transform="matrix(1 0 0 -1 270.518 301.194)" fill="#4BBFA9"/>
<circle r="1.77749" transform="matrix(1 0 0 -1 293.033 301.194)" fill="#4BBFA9"/>
<circle r="1.77749" transform="matrix(1 0 0 -1 315.549 301.193)" fill="#4BBFA9"/>
<circle r="1.77749" transform="matrix(1 0 0 -1 338.061 301.193)" fill="#4BBFA9"/>
<circle r="1.77749" transform="matrix(1 0 0 -1 360.578 301.194)" fill="#4BBFA9"/>
<circle r="1.77749" transform="matrix(1 0 0 -1 383.092 301.194)" fill="#4BBFA9"/>
<circle r="1.77749" transform="matrix(1 0 0 -1 135.428 278.679)" fill="#4BBFA9"/>
<circle r="1.77749" transform="matrix(1 0 0 -1 157.944 278.679)" fill="#4BBFA9"/>
<circle r="1.77749" transform="matrix(1 0 0 -1 180.46 278.68)" fill="#4BBFA9"/>
<circle r="1.77749" transform="matrix(1 0 0 -1 202.971 278.68)" fill="#4BBFA9"/>
<circle r="1.77749" transform="matrix(1 0 0 -1 225.487 278.68)" fill="#4BBFA9"/>
<circle r="1.77749" transform="matrix(1 0 0 -1 248.003 278.679)" fill="#4BBFA9"/>
<circle r="1.77749" transform="matrix(1 0 0 -1 270.518 278.679)" fill="#4BBFA9"/>
<circle r="1.77749" transform="matrix(1 0 0 -1 293.033 278.679)" fill="#4BBFA9"/>
<circle r="1.77749" transform="matrix(1 0 0 -1 315.549 278.68)" fill="#4BBFA9"/>
<circle r="1.77749" transform="matrix(1 0 0 -1 338.061 278.68)" fill="#4BBFA9"/>
<circle r="1.77749" transform="matrix(1 0 0 -1 360.578 278.679)" fill="#4BBFA9"/>
<circle r="1.77749" transform="matrix(1 0 0 -1 383.092 278.679)" fill="#4BBFA9"/>
<circle r="1.77749" transform="matrix(1 0 0 -1 135.428 256.164)" fill="#4BBFA9"/>
<circle r="1.77749" transform="matrix(1 0 0 -1 157.944 256.164)" fill="#4BBFA9"/>
<circle r="1.77749" transform="matrix(1 0 0 -1 180.46 256.164)" fill="#4BBFA9"/>
<circle r="1.77749" transform="matrix(1 0 0 -1 202.971 256.164)" fill="#4BBFA9"/>
<circle r="1.77749" transform="matrix(1 0 0 -1 225.487 256.164)" fill="#4BBFA9"/>
<circle r="1.77749" transform="matrix(1 0 0 -1 248.003 256.164)" fill="#4BBFA9"/>
<circle r="1.77749" transform="matrix(1 0 0 -1 270.518 256.164)" fill="#4BBFA9"/>
<circle r="1.77749" transform="matrix(1 0 0 -1 293.033 256.164)" fill="#4BBFA9"/>
<circle r="1.77749" transform="matrix(1 0 0 -1 315.549 256.164)" fill="#4BBFA9"/>
<circle r="1.77749" transform="matrix(1 0 0 -1 338.061 256.164)" fill="#4BBFA9"/>
<circle r="1.77749" transform="matrix(1 0 0 -1 360.578 256.164)" fill="#4BBFA9"/>
<circle r="1.77749" transform="matrix(1 0 0 -1 383.092 256.164)" fill="#4BBFA9"/>
<circle r="1.77749" transform="matrix(1 0 0 -1 135.428 233.649)" fill="#4BBFA9"/>
<circle r="1.77749" transform="matrix(1 0 0 -1 157.944 233.649)" fill="#4BBFA9"/>
<circle r="1.77749" transform="matrix(1 0 0 -1 180.46 233.648)" fill="#4BBFA9"/>
<circle r="1.77749" transform="matrix(1 0 0 -1 202.971 233.648)" fill="#4BBFA9"/>
<circle r="1.77749" transform="matrix(1 0 0 -1 225.487 233.648)" fill="#4BBFA9"/>
<circle r="1.77749" transform="matrix(1 0 0 -1 248.003 233.649)" fill="#4BBFA9"/>
<circle r="1.77749" transform="matrix(1 0 0 -1 270.518 233.649)" fill="#4BBFA9"/>
<circle r="1.77749" transform="matrix(1 0 0 -1 293.033 233.649)" fill="#4BBFA9"/>
<circle r="1.77749" transform="matrix(1 0 0 -1 315.549 233.648)" fill="#4BBFA9"/>
<circle r="1.77749" transform="matrix(1 0 0 -1 338.061 233.648)" fill="#4BBFA9"/>
<circle r="1.77749" transform="matrix(1 0 0 -1 360.578 233.649)" fill="#4BBFA9"/>
<circle r="1.77749" transform="matrix(1 0 0 -1 383.092 233.649)" fill="#4BBFA9"/>
<circle r="1.77749" transform="matrix(1 0 0 -1 135.428 211.134)" fill="#4BBFA9"/>
<circle r="1.77749" transform="matrix(1 0 0 -1 157.944 211.134)" fill="#4BBFA9"/>
<circle r="1.77749" transform="matrix(1 0 0 -1 180.46 211.135)" fill="#4BBFA9"/>
<circle r="1.77749" transform="matrix(1 0 0 -1 202.971 211.135)" fill="#4BBFA9"/>
<circle r="1.77749" transform="matrix(1 0 0 -1 225.487 211.135)" fill="#4BBFA9"/>
<circle r="1.77749" transform="matrix(1 0 0 -1 248.003 211.134)" fill="#4BBFA9"/>
<circle r="1.77749" transform="matrix(1 0 0 -1 270.518 211.134)" fill="#4BBFA9"/>
<circle r="1.77749" transform="matrix(1 0 0 -1 293.033 211.134)" fill="#4BBFA9"/>
<circle r="1.77749" transform="matrix(1 0 0 -1 315.549 211.135)" fill="#4BBFA9"/>
<circle r="1.77749" transform="matrix(1 0 0 -1 338.061 211.135)" fill="#4BBFA9"/>
<circle r="1.77749" transform="matrix(1 0 0 -1 360.578 211.134)" fill="#4BBFA9"/>
<circle r="1.77749" transform="matrix(1 0 0 -1 383.092 211.134)" fill="#4BBFA9"/>
<circle r="1.77749" transform="matrix(1 0 0 -1 135.428 188.619)" fill="#4BBFA9"/>
<circle r="1.77749" transform="matrix(1 0 0 -1 157.944 188.619)" fill="#4BBFA9"/>
<circle r="1.77749" transform="matrix(1 0 0 -1 180.46 188.619)" fill="#4BBFA9"/>
<circle r="1.77749" transform="matrix(1 0 0 -1 202.971 188.619)" fill="#4BBFA9"/>
<circle r="1.77749" transform="matrix(1 0 0 -1 225.487 188.619)" fill="#4BBFA9"/>
<circle r="1.77749" transform="matrix(1 0 0 -1 248.003 188.619)" fill="#4BBFA9"/>
<circle r="1.77749" transform="matrix(1 0 0 -1 270.518 188.619)" fill="#4BBFA9"/>
<circle r="1.77749" transform="matrix(1 0 0 -1 293.033 188.619)" fill="#4BBFA9"/>
<circle r="1.77749" transform="matrix(1 0 0 -1 315.549 188.619)" fill="#4BBFA9"/>
<circle r="1.77749" transform="matrix(1 0 0 -1 338.061 188.619)" fill="#4BBFA9"/>
<circle r="1.77749" transform="matrix(1 0 0 -1 360.578 188.619)" fill="#4BBFA9"/>
<circle r="1.77749" transform="matrix(1 0 0 -1 383.092 188.619)" fill="#4BBFA9"/>
<circle r="1.77749" transform="matrix(1 0 0 -1 135.428 166.105)" fill="#4BBFA9"/>
<circle r="1.77749" transform="matrix(1 0 0 -1 157.944 166.105)" fill="#4BBFA9"/>
<circle r="1.77749" transform="matrix(1 0 0 -1 180.46 166.105)" fill="#4BBFA9"/>
<circle r="1.77749" transform="matrix(1 0 0 -1 202.971 166.105)" fill="#4BBFA9"/>
<circle r="1.77749" transform="matrix(1 0 0 -1 225.487 166.105)" fill="#4BBFA9"/>
<circle r="1.77749" transform="matrix(1 0 0 -1 248.003 166.105)" fill="#4BBFA9"/>
<circle r="1.77749" transform="matrix(1 0 0 -1 270.518 166.105)" fill="#4BBFA9"/>
<circle r="1.77749" transform="matrix(1 0 0 -1 293.033 166.105)" fill="#4BBFA9"/>
<circle r="1.77749" transform="matrix(1 0 0 -1 315.549 166.105)" fill="#4BBFA9"/>
<circle r="1.77749" transform="matrix(1 0 0 -1 338.061 166.105)" fill="#4BBFA9"/>
<circle r="1.77749" transform="matrix(1 0 0 -1 360.578 166.105)" fill="#4BBFA9"/>
<circle r="1.77749" transform="matrix(1 0 0 -1 383.092 166.105)" fill="#4BBFA9"/>
<circle r="1.77749" transform="matrix(1 0 0 -1 134.246 140.034)" fill="#4BBFA9"/>
<circle r="1.77749" transform="matrix(1 0 0 -1 156.761 140.034)" fill="#4BBFA9"/>
<circle r="1.77749" transform="matrix(1 0 0 -1 179.277 140.034)" fill="#4BBFA9"/>
<circle r="1.77749" transform="matrix(1 0 0 -1 201.789 140.034)" fill="#4BBFA9"/>
<circle r="1.77749" transform="matrix(1 0 0 -1 224.304 140.034)" fill="#4BBFA9"/>
<circle r="1.77749" transform="matrix(1 0 0 -1 246.82 140.034)" fill="#4BBFA9"/>
<circle r="1.77749" transform="matrix(1 0 0 -1 269.335 140.034)" fill="#4BBFA9"/>
<circle r="1.77749" transform="matrix(1 0 0 -1 291.85 140.034)" fill="#4BBFA9"/>
<circle r="1.77749" transform="matrix(1 0 0 -1 314.367 140.034)" fill="#4BBFA9"/>
<circle r="1.77749" transform="matrix(1 0 0 -1 336.879 140.034)" fill="#4BBFA9"/>
<circle r="1.77749" transform="matrix(1 0 0 -1 359.395 140.034)" fill="#4BBFA9"/>
<circle r="1.77749" transform="matrix(1 0 0 -1 381.91 140.034)" fill="#4BBFA9"/>
<circle r="1.77749" transform="matrix(1 0 0 -1 134.246 117.519)" fill="#4BBFA9"/>
<circle r="1.77749" transform="matrix(1 0 0 -1 156.761 117.519)" fill="#4BBFA9"/>
<circle r="1.77749" transform="matrix(1 0 0 -1 179.277 117.519)" fill="#4BBFA9"/>
<circle r="1.77749" transform="matrix(1 0 0 -1 201.789 117.519)" fill="#4BBFA9"/>
<circle r="1.77749" transform="matrix(1 0 0 -1 224.304 117.519)" fill="#4BBFA9"/>
<circle r="1.77749" transform="matrix(1 0 0 -1 246.82 117.519)" fill="#4BBFA9"/>
<circle r="1.77749" transform="matrix(1 0 0 -1 269.335 117.519)" fill="#4BBFA9"/>
<circle r="1.77749" transform="matrix(1 0 0 -1 291.85 117.519)" fill="#4BBFA9"/>
<circle r="1.77749" transform="matrix(1 0 0 -1 314.367 117.519)" fill="#4BBFA9"/>
<circle r="1.77749" transform="matrix(1 0 0 -1 336.879 117.519)" fill="#4BBFA9"/>
<circle r="1.77749" transform="matrix(1 0 0 -1 359.395 117.519)" fill="#4BBFA9"/>
<circle r="1.77749" transform="matrix(1 0 0 -1 381.91 117.519)" fill="#4BBFA9"/>
<circle r="1.77749" transform="matrix(1 0 0 -1 134.246 95.0042)" fill="#4BBFA9"/>
<circle r="1.77749" transform="matrix(1 0 0 -1 156.761 95.0042)" fill="#4BBFA9"/>
<circle r="1.77749" transform="matrix(1 0 0 -1 179.277 95.0049)" fill="#4BBFA9"/>
<circle r="1.77749" transform="matrix(1 0 0 -1 201.789 95.0049)" fill="#4BBFA9"/>
<circle r="1.77749" transform="matrix(1 0 0 -1 224.304 95.0049)" fill="#4BBFA9"/>
<circle r="1.77749" transform="matrix(1 0 0 -1 246.82 95.0042)" fill="#4BBFA9"/>
<circle r="1.77749" transform="matrix(1 0 0 -1 269.335 95.0042)" fill="#4BBFA9"/>
<circle r="1.77749" transform="matrix(1 0 0 -1 291.85 95.0042)" fill="#4BBFA9"/>
<circle r="1.77749" transform="matrix(1 0 0 -1 314.367 95.0049)" fill="#4BBFA9"/>
<circle r="1.77749" transform="matrix(1 0 0 -1 336.879 95.0049)" fill="#4BBFA9"/>
<circle r="1.77749" transform="matrix(1 0 0 -1 359.395 95.0042)" fill="#4BBFA9"/>
<circle r="1.77749" transform="matrix(1 0 0 -1 381.91 95.0042)" fill="#4BBFA9"/>
<circle r="1.77749" transform="matrix(1 0 0 -1 134.246 72.4894)" fill="#4BBFA9"/>
<circle r="1.77749" transform="matrix(1 0 0 -1 156.761 72.4894)" fill="#4BBFA9"/>
<circle r="1.77749" transform="matrix(1 0 0 -1 179.277 72.4892)" fill="#4BBFA9"/>
<circle r="1.77749" transform="matrix(1 0 0 -1 201.789 72.4892)" fill="#4BBFA9"/>
<circle r="1.77749" transform="matrix(1 0 0 -1 224.304 72.4892)" fill="#4BBFA9"/>
<circle r="1.77749" transform="matrix(1 0 0 -1 246.82 72.4894)" fill="#4BBFA9"/>
<circle r="1.77749" transform="matrix(1 0 0 -1 269.335 72.4894)" fill="#4BBFA9"/>
<circle r="1.77749" transform="matrix(1 0 0 -1 291.85 72.4894)" fill="#4BBFA9"/>
<circle r="1.77749" transform="matrix(1 0 0 -1 314.367 72.4892)" fill="#4BBFA9"/>
<circle r="1.77749" transform="matrix(1 0 0 -1 336.879 72.4892)" fill="#4BBFA9"/>
<circle r="1.77749" transform="matrix(1 0 0 -1 359.395 72.4894)" fill="#4BBFA9"/>
<circle r="1.77749" transform="matrix(1 0 0 -1 381.91 72.4894)" fill="#4BBFA9"/>
<circle r="1.77749" transform="matrix(1 0 0 -1 134.246 49.9745)" fill="#4BBFA9"/>
<circle r="1.77749" transform="matrix(1 0 0 -1 156.761 49.9745)" fill="#4BBFA9"/>
<circle r="1.77749" transform="matrix(1 0 0 -1 179.277 49.9736)" fill="#4BBFA9"/>
<circle r="1.77749" transform="matrix(1 0 0 -1 201.789 49.9736)" fill="#4BBFA9"/>
<circle r="1.77749" transform="matrix(1 0 0 -1 224.304 49.9736)" fill="#4BBFA9"/>
<circle r="1.77749" transform="matrix(1 0 0 -1 246.82 49.9745)" fill="#4BBFA9"/>
<circle r="1.77749" transform="matrix(1 0 0 -1 269.335 49.9745)" fill="#4BBFA9"/>
<circle r="1.77749" transform="matrix(1 0 0 -1 291.85 49.9745)" fill="#4BBFA9"/>
<circle r="1.77749" transform="matrix(1 0 0 -1 314.367 49.9736)" fill="#4BBFA9"/>
<circle r="1.77749" transform="matrix(1 0 0 -1 336.879 49.9736)" fill="#4BBFA9"/>
<circle r="1.77749" transform="matrix(1 0 0 -1 359.395 49.9745)" fill="#4BBFA9"/>
<circle r="1.77749" transform="matrix(1 0 0 -1 381.91 49.9745)" fill="#4BBFA9"/>
<circle r="1.77749" transform="matrix(1 0 0 -1 134.246 27.4594)" fill="#4BBFA9"/>
<circle r="1.77749" transform="matrix(1 0 0 -1 156.761 27.4594)" fill="#4BBFA9"/>
<circle r="1.77749" transform="matrix(1 0 0 -1 179.277 27.4599)" fill="#4BBFA9"/>
<circle r="1.77749" transform="matrix(1 0 0 -1 201.789 27.4599)" fill="#4BBFA9"/>
<circle r="1.77749" transform="matrix(1 0 0 -1 224.304 27.4599)" fill="#4BBFA9"/>
<circle r="1.77749" transform="matrix(1 0 0 -1 246.82 27.4594)" fill="#4BBFA9"/>
<circle r="1.77749" transform="matrix(1 0 0 -1 269.335 27.4594)" fill="#4BBFA9"/>
<circle r="1.77749" transform="matrix(1 0 0 -1 291.85 27.4594)" fill="#4BBFA9"/>
<circle r="1.77749" transform="matrix(1 0 0 -1 314.367 27.4599)" fill="#4BBFA9"/>
<circle r="1.77749" transform="matrix(1 0 0 -1 336.879 27.4599)" fill="#4BBFA9"/>
<circle r="1.77749" transform="matrix(1 0 0 -1 359.395 27.4594)" fill="#4BBFA9"/>
<circle r="1.77749" transform="matrix(1 0 0 -1 381.91 27.4594)" fill="#4BBFA9"/>
<circle r="1.77749" transform="matrix(1 0 0 -1 134.246 4.94455)" fill="#4BBFA9"/>
<circle r="1.77749" transform="matrix(1 0 0 -1 156.761 4.94455)" fill="#4BBFA9"/>
<circle r="1.77749" transform="matrix(1 0 0 -1 179.277 4.94431)" fill="#4BBFA9"/>
<circle r="1.77749" transform="matrix(1 0 0 -1 201.789 4.94431)" fill="#4BBFA9"/>
<circle r="1.77749" transform="matrix(1 0 0 -1 224.304 4.94431)" fill="#4BBFA9"/>
<circle r="1.77749" transform="matrix(1 0 0 -1 246.82 4.94455)" fill="#4BBFA9"/>
<circle r="1.77749" transform="matrix(1 0 0 -1 269.335 4.94455)" fill="#4BBFA9"/>
<circle r="1.77749" transform="matrix(1 0 0 -1 291.85 4.94455)" fill="#4BBFA9"/>
<circle r="1.77749" transform="matrix(1 0 0 -1 314.367 4.94431)" fill="#4BBFA9"/>
<circle r="1.77749" transform="matrix(1 0 0 -1 336.879 4.94431)" fill="#4BBFA9"/>
<circle r="1.77749" transform="matrix(1 0 0 -1 359.395 4.94455)" fill="#4BBFA9"/>
<circle r="1.77749" transform="matrix(1 0 0 -1 381.91 4.94455)" fill="#4BBFA9"/>
<circle r="1.77749" transform="matrix(1 0 0 -1 -0.843111 137.665)" fill="#4BBFA9"/>
<circle r="1.77749" transform="matrix(1 0 0 -1 21.672 137.665)" fill="#4BBFA9"/>
<circle r="1.77749" transform="matrix(1 0 0 -1 44.1886 137.665)" fill="#4BBFA9"/>
<circle r="1.77749" transform="matrix(1 0 0 -1 66.7003 137.665)" fill="#4BBFA9"/>
<circle r="1.77749" transform="matrix(1 0 0 -1 89.2169 137.665)" fill="#4BBFA9"/>
<circle r="1.77749" transform="matrix(1 0 0 -1 111.732 137.665)" fill="#4BBFA9"/>
<circle r="1.77749" transform="matrix(1 0 0 -1 -0.843111 115.15)" fill="#4BBFA9"/>
<circle r="1.77749" transform="matrix(1 0 0 -1 21.672 115.15)" fill="#4BBFA9"/>
<circle r="1.77749" transform="matrix(1 0 0 -1 44.1886 115.15)" fill="#4BBFA9"/>
<circle r="1.77749" transform="matrix(1 0 0 -1 66.7003 115.15)" fill="#4BBFA9"/>
<circle r="1.77749" transform="matrix(1 0 0 -1 89.2169 115.15)" fill="#4BBFA9"/>
<circle r="1.77749" transform="matrix(1 0 0 -1 111.732 115.15)" fill="#4BBFA9"/>
<circle r="1.77749" transform="matrix(1 0 0 -1 -0.843111 92.6353)" fill="#4BBFA9"/>
<circle r="1.77749" transform="matrix(1 0 0 -1 21.672 92.6353)" fill="#4BBFA9"/>
<circle r="1.77749" transform="matrix(1 0 0 -1 44.1886 92.636)" fill="#4BBFA9"/>
<circle r="1.77749" transform="matrix(1 0 0 -1 66.7003 92.636)" fill="#4BBFA9"/>
<circle r="1.77749" transform="matrix(1 0 0 -1 89.2169 92.6353)" fill="#4BBFA9"/>
<circle r="1.77749" transform="matrix(1 0 0 -1 111.732 92.6353)" fill="#4BBFA9"/>
<circle r="1.77749" transform="matrix(1 0 0 -1 -0.843111 70.1205)" fill="#4BBFA9"/>
<circle r="1.77749" transform="matrix(1 0 0 -1 21.672 70.1205)" fill="#4BBFA9"/>
<circle r="1.77749" transform="matrix(1 0 0 -1 44.1886 70.1203)" fill="#4BBFA9"/>
<circle r="1.77749" transform="matrix(1 0 0 -1 66.7003 70.1203)" fill="#4BBFA9"/>
<circle r="1.77749" transform="matrix(1 0 0 -1 89.2169 70.1205)" fill="#4BBFA9"/>
<circle r="1.77749" transform="matrix(1 0 0 -1 111.732 70.1205)" fill="#4BBFA9"/>
<circle r="1.77749" transform="matrix(1 0 0 -1 -0.843111 47.6056)" fill="#4BBFA9"/>
<circle r="1.77749" transform="matrix(1 0 0 -1 21.672 47.6056)" fill="#4BBFA9"/>
<circle r="1.77749" transform="matrix(1 0 0 -1 44.1886 47.6047)" fill="#4BBFA9"/>
<circle r="1.77749" transform="matrix(1 0 0 -1 66.7003 47.6047)" fill="#4BBFA9"/>
<circle r="1.77749" transform="matrix(1 0 0 -1 89.2169 47.6056)" fill="#4BBFA9"/>
<circle r="1.77749" transform="matrix(1 0 0 -1 111.732 47.6056)" fill="#4BBFA9"/>
<circle r="1.77749" transform="matrix(1 0 0 -1 -0.843111 25.0905)" fill="#4BBFA9"/>
<circle r="1.77749" transform="matrix(1 0 0 -1 21.672 25.0905)" fill="#4BBFA9"/>
<circle r="1.77749" transform="matrix(1 0 0 -1 44.1886 25.091)" fill="#4BBFA9"/>
<circle r="1.77749" transform="matrix(1 0 0 -1 66.7003 25.091)" fill="#4BBFA9"/>
<circle r="1.77749" transform="matrix(1 0 0 -1 89.2169 25.0905)" fill="#4BBFA9"/>
<circle r="1.77749" transform="matrix(1 0 0 -1 111.732 25.0905)" fill="#4BBFA9"/>
<circle r="1.77749" transform="matrix(1 0 0 -1 -0.843111 2.57565)" fill="#4BBFA9"/>
<circle r="1.77749" transform="matrix(1 0 0 -1 21.672 2.57565)" fill="#4BBFA9"/>
<circle r="1.77749" transform="matrix(1 0 0 -1 44.1886 2.57541)" fill="#4BBFA9"/>
<circle r="1.77749" transform="matrix(1 0 0 -1 66.7003 2.57541)" fill="#4BBFA9"/>
<circle r="1.77749" transform="matrix(1 0 0 -1 89.2169 2.57565)" fill="#4BBFA9"/>
<circle r="1.77749" transform="matrix(1 0 0 -1 111.732 2.57565)" fill="#4BBFA9"/>
<circle r="1.77749" transform="matrix(1 0 0 -1 0.339018 385.328)" fill="#4BBFA9"/>
<circle r="1.77749" transform="matrix(1 0 0 -1 22.8542 385.328)" fill="#4BBFA9"/>
<circle r="1.77749" transform="matrix(1 0 0 -1 45.3708 385.328)" fill="#4BBFA9"/>
<circle r="1.77749" transform="matrix(1 0 0 -1 67.8825 385.328)" fill="#4BBFA9"/>
<circle r="1.77749" transform="matrix(1 0 0 -1 90.3991 385.328)" fill="#4BBFA9"/>
<circle r="1.77749" transform="matrix(1 0 0 -1 112.914 385.328)" fill="#4BBFA9"/>
<circle r="1.77749" transform="matrix(1 0 0 -1 0.339018 362.813)" fill="#4BBFA9"/>
<circle r="1.77749" transform="matrix(1 0 0 -1 22.8542 362.813)" fill="#4BBFA9"/>
<circle r="1.77749" transform="matrix(1 0 0 -1 45.3708 362.812)" fill="#4BBFA9"/>
<circle r="1.77749" transform="matrix(1 0 0 -1 67.8825 362.812)" fill="#4BBFA9"/>
<circle r="1.77749" transform="matrix(1 0 0 -1 90.3991 362.813)" fill="#4BBFA9"/>
<circle r="1.77749" transform="matrix(1 0 0 -1 112.914 362.813)" fill="#4BBFA9"/>
<circle r="1.77749" transform="matrix(1 0 0 -1 0.339018 340.298)" fill="#4BBFA9"/>
<circle r="1.77749" transform="matrix(1 0 0 -1 22.8542 340.298)" fill="#4BBFA9"/>
<circle r="1.77749" transform="matrix(1 0 0 -1 45.3708 340.298)" fill="#4BBFA9"/>
<circle r="1.77749" transform="matrix(1 0 0 -1 67.8825 340.298)" fill="#4BBFA9"/>
<circle r="1.77749" transform="matrix(1 0 0 -1 90.3991 340.298)" fill="#4BBFA9"/>
<circle r="1.77749" transform="matrix(1 0 0 -1 112.914 340.298)" fill="#4BBFA9"/>
<circle r="1.77749" transform="matrix(1 0 0 -1 0.339018 317.783)" fill="#4BBFA9"/>
<circle r="1.77749" transform="matrix(1 0 0 -1 22.8542 317.783)" fill="#4BBFA9"/>
<circle r="1.77749" transform="matrix(1 0 0 -1 45.3708 317.783)" fill="#4BBFA9"/>
<circle r="1.77749" transform="matrix(1 0 0 -1 67.8825 317.783)" fill="#4BBFA9"/>
<circle r="1.77749" transform="matrix(1 0 0 -1 90.3991 317.783)" fill="#4BBFA9"/>
<circle r="1.77749" transform="matrix(1 0 0 -1 112.914 317.783)" fill="#4BBFA9"/>
<circle r="1.77749" transform="matrix(1 0 0 -1 0.339018 295.268)" fill="#4BBFA9"/>
<circle r="1.77749" transform="matrix(1 0 0 -1 22.8542 295.268)" fill="#4BBFA9"/>
<circle r="1.77749" transform="matrix(1 0 0 -1 45.3708 295.267)" fill="#4BBFA9"/>
<circle r="1.77749" transform="matrix(1 0 0 -1 67.8825 295.267)" fill="#4BBFA9"/>
<circle r="1.77749" transform="matrix(1 0 0 -1 90.3991 295.268)" fill="#4BBFA9"/>
<circle r="1.77749" transform="matrix(1 0 0 -1 112.914 295.268)" fill="#4BBFA9"/>
<circle r="1.77749" transform="matrix(1 0 0 -1 0.339018 272.753)" fill="#4BBFA9"/>
<circle r="1.77749" transform="matrix(1 0 0 -1 22.8542 272.753)" fill="#4BBFA9"/>
<circle r="1.77749" transform="matrix(1 0 0 -1 45.3708 272.754)" fill="#4BBFA9"/>
<circle r="1.77749" transform="matrix(1 0 0 -1 67.8825 272.754)" fill="#4BBFA9"/>
<circle r="1.77749" transform="matrix(1 0 0 -1 90.3991 272.753)" fill="#4BBFA9"/>
<circle r="1.77749" transform="matrix(1 0 0 -1 112.914 272.753)" fill="#4BBFA9"/>
<circle r="1.77749" transform="matrix(1 0 0 -1 0.339018 250.238)" fill="#4BBFA9"/>
<circle r="1.77749" transform="matrix(1 0 0 -1 22.8542 250.238)" fill="#4BBFA9"/>
<circle r="1.77749" transform="matrix(1 0 0 -1 45.3708 250.238)" fill="#4BBFA9"/>
<circle r="1.77749" transform="matrix(1 0 0 -1 67.8825 250.238)" fill="#4BBFA9"/>
<circle r="1.77749" transform="matrix(1 0 0 -1 90.3991 250.238)" fill="#4BBFA9"/>
<circle r="1.77749" transform="matrix(1 0 0 -1 112.914 250.238)" fill="#4BBFA9"/>
<circle r="1.77749" transform="matrix(1 0 0 -1 0.339018 227.723)" fill="#4BBFA9"/>
<circle r="1.77749" transform="matrix(1 0 0 -1 22.8542 227.723)" fill="#4BBFA9"/>
<circle r="1.77749" transform="matrix(1 0 0 -1 45.3708 227.722)" fill="#4BBFA9"/>
<circle r="1.77749" transform="matrix(1 0 0 -1 67.8825 227.722)" fill="#4BBFA9"/>
<circle r="1.77749" transform="matrix(1 0 0 -1 90.3991 227.723)" fill="#4BBFA9"/>
<circle r="1.77749" transform="matrix(1 0 0 -1 112.914 227.723)" fill="#4BBFA9"/>
<circle r="1.77749" transform="matrix(1 0 0 -1 0.339018 205.208)" fill="#4BBFA9"/>
<circle r="1.77749" transform="matrix(1 0 0 -1 22.8542 205.208)" fill="#4BBFA9"/>
<circle r="1.77749" transform="matrix(1 0 0 -1 45.3708 205.209)" fill="#4BBFA9"/>
<circle r="1.77749" transform="matrix(1 0 0 -1 67.8825 205.209)" fill="#4BBFA9"/>
<circle r="1.77749" transform="matrix(1 0 0 -1 90.3991 205.208)" fill="#4BBFA9"/>
<circle r="1.77749" transform="matrix(1 0 0 -1 112.914 205.208)" fill="#4BBFA9"/>
<circle r="1.77749" transform="matrix(1 0 0 -1 0.339018 182.693)" fill="#4BBFA9"/>
<circle r="1.77749" transform="matrix(1 0 0 -1 22.8542 182.693)" fill="#4BBFA9"/>
<circle r="1.77749" transform="matrix(1 0 0 -1 45.3708 182.693)" fill="#4BBFA9"/>
<circle r="1.77749" transform="matrix(1 0 0 -1 67.8825 182.693)" fill="#4BBFA9"/>
<circle r="1.77749" transform="matrix(1 0 0 -1 90.3991 182.693)" fill="#4BBFA9"/>
<circle r="1.77749" transform="matrix(1 0 0 -1 112.914 182.693)" fill="#4BBFA9"/>
<circle r="1.77749" transform="matrix(1 0 0 -1 0.339018 160.178)" fill="#4BBFA9"/>
<circle r="1.77749" transform="matrix(1 0 0 -1 22.8542 160.178)" fill="#4BBFA9"/>
<circle r="1.77749" transform="matrix(1 0 0 -1 45.3708 160.179)" fill="#4BBFA9"/>
<circle r="1.77749" transform="matrix(1 0 0 -1 67.8825 160.179)" fill="#4BBFA9"/>
<circle r="1.77749" transform="matrix(1 0 0 -1 90.3991 160.178)" fill="#4BBFA9"/>
<circle r="1.77749" transform="matrix(1 0 0 -1 112.914 160.178)" fill="#4BBFA9"/>
<circle r="1.77749" transform="matrix(1 0 0 -1 405.607 387.699)" fill="#4BBFA9"/>
<circle r="1.77749" transform="matrix(1 0 0 -1 428.122 387.699)" fill="#4BBFA9"/>
<circle r="1.77749" transform="matrix(1 0 0 -1 450.638 387.699)" fill="#4BBFA9"/>
<circle r="1.77749" transform="matrix(1 0 0 -1 473.15 387.699)" fill="#4BBFA9"/>
<circle r="1.77749" transform="matrix(1 0 0 -1 495.666 387.699)" fill="#4BBFA9"/>
<circle r="1.77749" transform="matrix(1 0 0 -1 518.182 387.699)" fill="#4BBFA9"/>
<circle r="1.77749" transform="matrix(1 0 0 -1 540.696 387.699)" fill="#4BBFA9"/>
<circle r="1.77749" transform="matrix(1 0 0 -1 563.212 387.699)" fill="#4BBFA9"/>
<circle r="1.77749" transform="matrix(1 0 0 -1 585.728 387.699)" fill="#4BBFA9"/>
<circle r="1.77749" transform="matrix(1 0 0 -1 608.24 387.699)" fill="#4BBFA9"/>
<circle r="1.77749" transform="matrix(1 0 0 -1 630.756 387.699)" fill="#4BBFA9"/>
<circle r="1.77749" transform="matrix(1 0 0 -1 653.271 387.699)" fill="#4BBFA9"/>
<circle r="1.77749" transform="matrix(1 0 0 -1 405.607 365.184)" fill="#4BBFA9"/>
<circle r="1.77749" transform="matrix(1 0 0 -1 428.122 365.184)" fill="#4BBFA9"/>
<circle r="1.77749" transform="matrix(1 0 0 -1 450.638 365.183)" fill="#4BBFA9"/>
<circle r="1.77749" transform="matrix(1 0 0 -1 473.15 365.183)" fill="#4BBFA9"/>
<circle r="1.77749" transform="matrix(1 0 0 -1 495.666 365.183)" fill="#4BBFA9"/>
<circle r="1.77749" transform="matrix(1 0 0 -1 518.182 365.184)" fill="#4BBFA9"/>
<circle r="1.77749" transform="matrix(1 0 0 -1 540.696 365.184)" fill="#4BBFA9"/>
<circle r="1.77749" transform="matrix(1 0 0 -1 563.212 365.184)" fill="#4BBFA9"/>
<circle r="1.77749" transform="matrix(1 0 0 -1 585.728 365.183)" fill="#4BBFA9"/>
<circle r="1.77749" transform="matrix(1 0 0 -1 608.24 365.183)" fill="#4BBFA9"/>
<circle r="1.77749" transform="matrix(1 0 0 -1 630.756 365.184)" fill="#4BBFA9"/>
<circle r="1.77749" transform="matrix(1 0 0 -1 653.271 365.184)" fill="#4BBFA9"/>
<circle r="1.77749" transform="matrix(1 0 0 -1 405.607 342.669)" fill="#4BBFA9"/>
<circle r="1.77749" transform="matrix(1 0 0 -1 428.122 342.669)" fill="#4BBFA9"/>
<circle r="1.77749" transform="matrix(1 0 0 -1 450.638 342.669)" fill="#4BBFA9"/>
<circle r="1.77749" transform="matrix(1 0 0 -1 473.15 342.669)" fill="#4BBFA9"/>
<circle r="1.77749" transform="matrix(1 0 0 -1 495.666 342.669)" fill="#4BBFA9"/>
<circle r="1.77749" transform="matrix(1 0 0 -1 518.182 342.669)" fill="#4BBFA9"/>
<circle r="1.77749" transform="matrix(1 0 0 -1 540.696 342.669)" fill="#4BBFA9"/>
<circle r="1.77749" transform="matrix(1 0 0 -1 563.212 342.669)" fill="#4BBFA9"/>
<circle r="1.77749" transform="matrix(1 0 0 -1 585.728 342.669)" fill="#4BBFA9"/>
<circle r="1.77749" transform="matrix(1 0 0 -1 608.24 342.669)" fill="#4BBFA9"/>
<circle r="1.77749" transform="matrix(1 0 0 -1 630.756 342.669)" fill="#4BBFA9"/>
<circle r="1.77749" transform="matrix(1 0 0 -1 653.271 342.669)" fill="#4BBFA9"/>
<circle r="1.77749" transform="matrix(1 0 0 -1 405.607 320.154)" fill="#4BBFA9"/>
<circle r="1.77749" transform="matrix(1 0 0 -1 428.122 320.154)" fill="#4BBFA9"/>
<circle r="1.77749" transform="matrix(1 0 0 -1 450.638 320.154)" fill="#4BBFA9"/>
<circle r="1.77749" transform="matrix(1 0 0 -1 473.15 320.154)" fill="#4BBFA9"/>
<circle r="1.77749" transform="matrix(1 0 0 -1 495.666 320.154)" fill="#4BBFA9"/>
<circle r="1.77749" transform="matrix(1 0 0 -1 518.182 320.154)" fill="#4BBFA9"/>
<circle r="1.77749" transform="matrix(1 0 0 -1 540.696 320.154)" fill="#4BBFA9"/>
<circle r="1.77749" transform="matrix(1 0 0 -1 563.212 320.154)" fill="#4BBFA9"/>
<circle r="1.77749" transform="matrix(1 0 0 -1 585.728 320.154)" fill="#4BBFA9"/>
<circle r="1.77749" transform="matrix(1 0 0 -1 608.24 320.154)" fill="#4BBFA9"/>
<circle r="1.77749" transform="matrix(1 0 0 -1 630.756 320.154)" fill="#4BBFA9"/>
<circle r="1.77749" transform="matrix(1 0 0 -1 653.271 320.154)" fill="#4BBFA9"/>
<circle r="1.77749" transform="matrix(1 0 0 -1 405.607 297.639)" fill="#4BBFA9"/>
<circle r="1.77749" transform="matrix(1 0 0 -1 428.122 297.639)" fill="#4BBFA9"/>
<circle r="1.77749" transform="matrix(1 0 0 -1 450.638 297.638)" fill="#4BBFA9"/>
<circle r="1.77749" transform="matrix(1 0 0 -1 473.15 297.638)" fill="#4BBFA9"/>
<circle r="1.77749" transform="matrix(1 0 0 -1 495.666 297.638)" fill="#4BBFA9"/>
<circle r="1.77749" transform="matrix(1 0 0 -1 518.182 297.639)" fill="#4BBFA9"/>
<circle r="1.77749" transform="matrix(1 0 0 -1 540.696 297.639)" fill="#4BBFA9"/>
<circle r="1.77749" transform="matrix(1 0 0 -1 563.212 297.639)" fill="#4BBFA9"/>
<circle r="1.77749" transform="matrix(1 0 0 -1 585.728 297.638)" fill="#4BBFA9"/>
<circle r="1.77749" transform="matrix(1 0 0 -1 608.24 297.638)" fill="#4BBFA9"/>
<circle r="1.77749" transform="matrix(1 0 0 -1 630.756 297.639)" fill="#4BBFA9"/>
<circle r="1.77749" transform="matrix(1 0 0 -1 653.271 297.639)" fill="#4BBFA9"/>
<circle r="1.77749" transform="matrix(1 0 0 -1 405.607 275.124)" fill="#4BBFA9"/>
<circle r="1.77749" transform="matrix(1 0 0 -1 428.122 275.124)" fill="#4BBFA9"/>
<circle r="1.77749" transform="matrix(1 0 0 -1 450.638 275.124)" fill="#4BBFA9"/>
<circle r="1.77749" transform="matrix(1 0 0 -1 473.15 275.124)" fill="#4BBFA9"/>
<circle r="1.77749" transform="matrix(1 0 0 -1 495.666 275.124)" fill="#4BBFA9"/>
<circle r="1.77749" transform="matrix(1 0 0 -1 518.182 275.124)" fill="#4BBFA9"/>
<circle r="1.77749" transform="matrix(1 0 0 -1 540.696 275.124)" fill="#4BBFA9"/>
<circle r="1.77749" transform="matrix(1 0 0 -1 563.212 275.124)" fill="#4BBFA9"/>
<circle r="1.77749" transform="matrix(1 0 0 -1 585.728 275.124)" fill="#4BBFA9"/>
<circle r="1.77749" transform="matrix(1 0 0 -1 608.24 275.124)" fill="#4BBFA9"/>
<circle r="1.77749" transform="matrix(1 0 0 -1 630.756 275.124)" fill="#4BBFA9"/>
<circle r="1.77749" transform="matrix(1 0 0 -1 653.271 275.124)" fill="#4BBFA9"/>
<circle r="1.77749" transform="matrix(1 0 0 -1 405.607 252.609)" fill="#4BBFA9"/>
<circle r="1.77749" transform="matrix(1 0 0 -1 428.122 252.609)" fill="#4BBFA9"/>
<circle r="1.77749" transform="matrix(1 0 0 -1 450.638 252.609)" fill="#4BBFA9"/>
<circle r="1.77749" transform="matrix(1 0 0 -1 473.15 252.609)" fill="#4BBFA9"/>
<circle r="1.77749" transform="matrix(1 0 0 -1 495.666 252.609)" fill="#4BBFA9"/>
<circle r="1.77749" transform="matrix(1 0 0 -1 518.182 252.609)" fill="#4BBFA9"/>
<circle r="1.77749" transform="matrix(1 0 0 -1 540.696 252.609)" fill="#4BBFA9"/>
<circle r="1.77749" transform="matrix(1 0 0 -1 563.212 252.609)" fill="#4BBFA9"/>
<circle r="1.77749" transform="matrix(1 0 0 -1 585.728 252.609)" fill="#4BBFA9"/>
<circle r="1.77749" transform="matrix(1 0 0 -1 608.24 252.609)" fill="#4BBFA9"/>
<circle r="1.77749" transform="matrix(1 0 0 -1 630.756 252.609)" fill="#4BBFA9"/>
<circle r="1.77749" transform="matrix(1 0 0 -1 653.271 252.609)" fill="#4BBFA9"/>
<circle r="1.77749" transform="matrix(1 0 0 -1 405.607 230.094)" fill="#4BBFA9"/>
<circle r="1.77749" transform="matrix(1 0 0 -1 428.122 230.094)" fill="#4BBFA9"/>
<circle r="1.77749" transform="matrix(1 0 0 -1 450.638 230.093)" fill="#4BBFA9"/>
<circle r="1.77749" transform="matrix(1 0 0 -1 473.15 230.093)" fill="#4BBFA9"/>
<circle r="1.77749" transform="matrix(1 0 0 -1 495.666 230.093)" fill="#4BBFA9"/>
<circle r="1.77749" transform="matrix(1 0 0 -1 518.182 230.094)" fill="#4BBFA9"/>
<circle r="1.77749" transform="matrix(1 0 0 -1 540.696 230.094)" fill="#4BBFA9"/>
<circle r="1.77749" transform="matrix(1 0 0 -1 563.212 230.094)" fill="#4BBFA9"/>
<circle r="1.77749" transform="matrix(1 0 0 -1 585.728 230.093)" fill="#4BBFA9"/>
<circle r="1.77749" transform="matrix(1 0 0 -1 608.24 230.093)" fill="#4BBFA9"/>
<circle r="1.77749" transform="matrix(1 0 0 -1 630.756 230.094)" fill="#4BBFA9"/>
<circle r="1.77749" transform="matrix(1 0 0 -1 653.271 230.094)" fill="#4BBFA9"/>
<circle r="1.77749" transform="matrix(1 0 0 -1 405.607 207.579)" fill="#4BBFA9"/>
<circle r="1.77749" transform="matrix(1 0 0 -1 428.122 207.579)" fill="#4BBFA9"/>
<circle r="1.77749" transform="matrix(1 0 0 -1 450.638 207.579)" fill="#4BBFA9"/>
<circle r="1.77749" transform="matrix(1 0 0 -1 473.15 207.579)" fill="#4BBFA9"/>
<circle r="1.77749" transform="matrix(1 0 0 -1 495.666 207.579)" fill="#4BBFA9"/>
<circle r="1.77749" transform="matrix(1 0 0 -1 518.182 207.579)" fill="#4BBFA9"/>
<circle r="1.77749" transform="matrix(1 0 0 -1 540.696 207.579)" fill="#4BBFA9"/>
<circle r="1.77749" transform="matrix(1 0 0 -1 563.212 207.579)" fill="#4BBFA9"/>
<circle r="1.77749" transform="matrix(1 0 0 -1 585.728 207.579)" fill="#4BBFA9"/>
<circle r="1.77749" transform="matrix(1 0 0 -1 608.24 207.579)" fill="#4BBFA9"/>
<circle r="1.77749" transform="matrix(1 0 0 -1 630.756 207.579)" fill="#4BBFA9"/>
<circle r="1.77749" transform="matrix(1 0 0 -1 653.271 207.579)" fill="#4BBFA9"/>
<circle r="1.77749" transform="matrix(1 0 0 -1 405.607 185.064)" fill="#4BBFA9"/>
<circle r="1.77749" transform="matrix(1 0 0 -1 428.122 185.064)" fill="#4BBFA9"/>
<circle r="1.77749" transform="matrix(1 0 0 -1 450.638 185.064)" fill="#4BBFA9"/>
<circle r="1.77749" transform="matrix(1 0 0 -1 473.15 185.064)" fill="#4BBFA9"/>
<circle r="1.77749" transform="matrix(1 0 0 -1 495.666 185.064)" fill="#4BBFA9"/>
<circle r="1.77749" transform="matrix(1 0 0 -1 518.182 185.064)" fill="#4BBFA9"/>
<circle r="1.77749" transform="matrix(1 0 0 -1 540.696 185.064)" fill="#4BBFA9"/>
<circle r="1.77749" transform="matrix(1 0 0 -1 563.212 185.064)" fill="#4BBFA9"/>
<circle r="1.77749" transform="matrix(1 0 0 -1 585.728 185.064)" fill="#4BBFA9"/>
<circle r="1.77749" transform="matrix(1 0 0 -1 608.24 185.064)" fill="#4BBFA9"/>
<circle r="1.77749" transform="matrix(1 0 0 -1 630.756 185.064)" fill="#4BBFA9"/>
<circle r="1.77749" transform="matrix(1 0 0 -1 653.271 185.064)" fill="#4BBFA9"/>
<circle r="1.77749" transform="matrix(1 0 0 -1 405.607 162.549)" fill="#4BBFA9"/>
<circle r="1.77749" transform="matrix(1 0 0 -1 428.122 162.549)" fill="#4BBFA9"/>
<circle r="1.77749" transform="matrix(1 0 0 -1 450.638 162.55)" fill="#4BBFA9"/>
<circle r="1.77749" transform="matrix(1 0 0 -1 473.15 162.55)" fill="#4BBFA9"/>
<circle r="1.77749" transform="matrix(1 0 0 -1 495.666 162.55)" fill="#4BBFA9"/>
<circle r="1.77749" transform="matrix(1 0 0 -1 518.182 162.549)" fill="#4BBFA9"/>
<circle r="1.77749" transform="matrix(1 0 0 -1 540.696 162.549)" fill="#4BBFA9"/>
<circle r="1.77749" transform="matrix(1 0 0 -1 563.212 162.549)" fill="#4BBFA9"/>
<circle r="1.77749" transform="matrix(1 0 0 -1 585.728 162.55)" fill="#4BBFA9"/>
<circle r="1.77749" transform="matrix(1 0 0 -1 608.24 162.55)" fill="#4BBFA9"/>
<circle r="1.77749" transform="matrix(1 0 0 -1 630.756 162.549)" fill="#4BBFA9"/>
<circle r="1.77749" transform="matrix(1 0 0 -1 653.271 162.549)" fill="#4BBFA9"/>
<circle r="1.77749" transform="matrix(1 0 0 -1 404.424 136.479)" fill="#4BBFA9"/>
<circle r="1.77749" transform="matrix(1 0 0 -1 426.94 136.479)" fill="#4BBFA9"/>
<circle r="1.77749" transform="matrix(1 0 0 -1 449.455 136.479)" fill="#4BBFA9"/>
<circle r="1.77749" transform="matrix(1 0 0 -1 471.971 136.479)" fill="#4BBFA9"/>
<circle r="1.77749" transform="matrix(1 0 0 -1 494.486 136.479)" fill="#4BBFA9"/>
<circle r="1.77749" transform="matrix(1 0 0 -1 516.998 136.479)" fill="#4BBFA9"/>
<circle r="1.77749" transform="matrix(1 0 0 -1 539.514 136.479)" fill="#4BBFA9"/>
<circle r="1.77749" transform="matrix(1 0 0 -1 562.029 136.479)" fill="#4BBFA9"/>
<circle r="1.77749" transform="matrix(1 0 0 -1 584.544 136.479)" fill="#4BBFA9"/>
<circle r="1.77749" transform="matrix(1 0 0 -1 607.061 136.479)" fill="#4BBFA9"/>
<circle r="1.77749" transform="matrix(1 0 0 -1 629.574 136.479)" fill="#4BBFA9"/>
<circle r="1.77749" transform="matrix(1 0 0 -1 652.089 136.479)" fill="#4BBFA9"/>
<circle r="1.77749" transform="matrix(1 0 0 -1 404.425 113.964)" fill="#4BBFA9"/>
<circle r="1.77749" transform="matrix(1 0 0 -1 426.94 113.964)" fill="#4BBFA9"/>
<circle r="1.77749" transform="matrix(1 0 0 -1 449.455 113.964)" fill="#4BBFA9"/>
<circle r="1.77749" transform="matrix(1 0 0 -1 471.971 113.964)" fill="#4BBFA9"/>
<circle r="1.77749" transform="matrix(1 0 0 -1 494.486 113.964)" fill="#4BBFA9"/>
<circle r="1.77749" transform="matrix(1 0 0 -1 516.998 113.964)" fill="#4BBFA9"/>
<circle r="1.77749" transform="matrix(1 0 0 -1 539.514 113.964)" fill="#4BBFA9"/>
<circle r="1.77749" transform="matrix(1 0 0 -1 562.029 113.964)" fill="#4BBFA9"/>
<circle r="1.77749" transform="matrix(1 0 0 -1 584.544 113.964)" fill="#4BBFA9"/>
<circle r="1.77749" transform="matrix(1 0 0 -1 607.061 113.964)" fill="#4BBFA9"/>
<circle r="1.77749" transform="matrix(1 0 0 -1 629.574 113.964)" fill="#4BBFA9"/>
<circle r="1.77749" transform="matrix(1 0 0 -1 652.089 113.964)" fill="#4BBFA9"/>
<circle r="1.77749" transform="matrix(1 0 0 -1 404.425 91.4489)" fill="#4BBFA9"/>
<circle r="1.77749" transform="matrix(1 0 0 -1 426.94 91.4489)" fill="#4BBFA9"/>
<circle r="1.77749" transform="matrix(1 0 0 -1 449.455 91.4489)" fill="#4BBFA9"/>
<circle r="1.77749" transform="matrix(1 0 0 -1 471.971 91.4481)" fill="#4BBFA9"/>
<circle r="1.77749" transform="matrix(1 0 0 -1 494.486 91.4481)" fill="#4BBFA9"/>
<circle r="1.77749" transform="matrix(1 0 0 -1 516.998 91.4481)" fill="#4BBFA9"/>
<circle r="1.77749" transform="matrix(1 0 0 -1 539.514 91.4489)" fill="#4BBFA9"/>
<circle r="1.77749" transform="matrix(1 0 0 -1 562.029 91.4489)" fill="#4BBFA9"/>
<circle r="1.77749" transform="matrix(1 0 0 -1 584.544 91.4489)" fill="#4BBFA9"/>
<circle r="1.77749" transform="matrix(1 0 0 -1 607.061 91.4481)" fill="#4BBFA9"/>
<circle r="1.77749" transform="matrix(1 0 0 -1 629.574 91.4489)" fill="#4BBFA9"/>
<circle r="1.77749" transform="matrix(1 0 0 -1 652.089 91.4489)" fill="#4BBFA9"/>
<circle r="1.77749" transform="matrix(1 0 0 -1 404.425 68.9341)" fill="#4BBFA9"/>
<circle r="1.77749" transform="matrix(1 0 0 -1 426.94 68.9341)" fill="#4BBFA9"/>
<circle r="1.77749" transform="matrix(1 0 0 -1 449.455 68.9341)" fill="#4BBFA9"/>
<circle r="1.77749" transform="matrix(1 0 0 -1 471.971 68.9344)" fill="#4BBFA9"/>
<circle r="1.77749" transform="matrix(1 0 0 -1 494.486 68.9344)" fill="#4BBFA9"/>
<circle r="1.77749" transform="matrix(1 0 0 -1 516.998 68.9344)" fill="#4BBFA9"/>
<circle r="1.77749" transform="matrix(1 0 0 -1 539.514 68.9341)" fill="#4BBFA9"/>
<circle r="1.77749" transform="matrix(1 0 0 -1 562.029 68.9341)" fill="#4BBFA9"/>
<circle r="1.77749" transform="matrix(1 0 0 -1 584.544 68.9341)" fill="#4BBFA9"/>
<circle r="1.77749" transform="matrix(1 0 0 -1 607.061 68.9344)" fill="#4BBFA9"/>
<circle r="1.77749" transform="matrix(1 0 0 -1 629.574 68.9341)" fill="#4BBFA9"/>
<circle r="1.77749" transform="matrix(1 0 0 -1 652.089 68.9341)" fill="#4BBFA9"/>
<circle r="1.77749" transform="matrix(1 0 0 -1 404.425 46.419)" fill="#4BBFA9"/>
<circle r="1.77749" transform="matrix(1 0 0 -1 426.94 46.419)" fill="#4BBFA9"/>
<circle r="1.77749" transform="matrix(1 0 0 -1 449.455 46.419)" fill="#4BBFA9"/>
<circle r="1.77749" transform="matrix(1 0 0 -1 471.971 46.4188)" fill="#4BBFA9"/>
<circle r="1.77749" transform="matrix(1 0 0 -1 494.486 46.4188)" fill="#4BBFA9"/>
<circle r="1.77749" transform="matrix(1 0 0 -1 516.998 46.4188)" fill="#4BBFA9"/>
<circle r="1.77749" transform="matrix(1 0 0 -1 539.514 46.419)" fill="#4BBFA9"/>
<circle r="1.77749" transform="matrix(1 0 0 -1 562.029 46.419)" fill="#4BBFA9"/>
<circle r="1.77749" transform="matrix(1 0 0 -1 584.544 46.419)" fill="#4BBFA9"/>
<circle r="1.77749" transform="matrix(1 0 0 -1 607.061 46.4188)" fill="#4BBFA9"/>
<circle r="1.77749" transform="matrix(1 0 0 -1 629.574 46.419)" fill="#4BBFA9"/>
<circle r="1.77749" transform="matrix(1 0 0 -1 652.089 46.419)" fill="#4BBFA9"/>
<circle r="1.77749" transform="matrix(1 0 0 -1 404.425 23.9041)" fill="#4BBFA9"/>
<circle r="1.77749" transform="matrix(1 0 0 -1 426.94 23.9041)" fill="#4BBFA9"/>
<circle r="1.77749" transform="matrix(1 0 0 -1 449.455 23.9041)" fill="#4BBFA9"/>
<circle r="1.77749" transform="matrix(1 0 0 -1 471.971 23.9051)" fill="#4BBFA9"/>
<circle r="1.77749" transform="matrix(1 0 0 -1 494.486 23.9051)" fill="#4BBFA9"/>
<circle r="1.77749" transform="matrix(1 0 0 -1 516.998 23.9051)" fill="#4BBFA9"/>
<circle r="1.77749" transform="matrix(1 0 0 -1 539.514 23.9041)" fill="#4BBFA9"/>
<circle r="1.77749" transform="matrix(1 0 0 -1 562.029 23.9041)" fill="#4BBFA9"/>
<circle r="1.77749" transform="matrix(1 0 0 -1 584.544 23.9041)" fill="#4BBFA9"/>
<circle r="1.77749" transform="matrix(1 0 0 -1 607.061 23.9051)" fill="#4BBFA9"/>
<circle r="1.77749" transform="matrix(1 0 0 -1 629.574 23.9041)" fill="#4BBFA9"/>
<circle r="1.77749" transform="matrix(1 0 0 -1 652.089 23.9041)" fill="#4BBFA9"/>
<circle r="1.77749" transform="matrix(1 0 0 -1 404.425 1.38925)" fill="#4BBFA9"/>
<circle r="1.77749" transform="matrix(1 0 0 -1 426.94 1.38925)" fill="#4BBFA9"/>
<circle r="1.77749" transform="matrix(1 0 0 -1 449.455 1.38925)" fill="#4BBFA9"/>
<circle r="1.77749" transform="matrix(1 0 0 -1 471.971 1.3895)" fill="#4BBFA9"/>
<circle r="1.77749" transform="matrix(1 0 0 -1 494.486 1.3895)" fill="#4BBFA9"/>
<circle r="1.77749" transform="matrix(1 0 0 -1 516.998 1.3895)" fill="#4BBFA9"/>
<circle r="1.77749" transform="matrix(1 0 0 -1 539.514 1.38925)" fill="#4BBFA9"/>
<circle r="1.77749" transform="matrix(1 0 0 -1 562.029 1.38925)" fill="#4BBFA9"/>
<circle r="1.77749" transform="matrix(1 0 0 -1 584.544 1.38925)" fill="#4BBFA9"/>
<circle r="1.77749" transform="matrix(1 0 0 -1 607.061 1.3895)" fill="#4BBFA9"/>
<circle r="1.77749" transform="matrix(1 0 0 -1 629.574 1.38925)" fill="#4BBFA9"/>
<circle r="1.77749" transform="matrix(1 0 0 -1 652.089 1.38925)" fill="#4BBFA9"/>
</g>
</g>
</svg>
