<svg width="656" height="801" viewBox="0 0 656 801" fill="none" xmlns="http://www.w3.org/2000/svg">
<g opacity="0.6">
<mask id="mask0" mask-type="alpha" maskUnits="userSpaceOnUse" x="-34" y="0" width="690" height="801">
<path d="M605.129 633.044C632.076 625.796 450.292 512.861 424.629 320.409C398.966 127.957 335.875 -42.3088 193.543 68.1582C51.2106 178.625 8.8244 396.331 191.394 532.432C373.964 668.533 578.182 640.292 605.129 633.044Z" fill="#C4C4C4"/>
</mask>
<g mask="url(#mask0)">
<circle r="1.77749" transform="matrix(0.5 0.866025 0.866025 -0.5 37.9569 316.376)" fill="#4BBFA9"/>
<circle r="1.77749" transform="matrix(0.5 0.866025 0.866025 -0.5 49.2142 335.874)" fill="#4BBFA9"/>
<circle r="1.77749" transform="matrix(0.5 0.866025 0.866025 -0.5 60.4725 355.374)" fill="#4BBFA9"/>
<circle r="1.77749" transform="matrix(0.5 0.866025 0.866025 -0.5 71.7284 374.869)" fill="#4BBFA9"/>
<circle r="1.77749" transform="matrix(0.5 0.866025 0.866025 -0.5 82.9862 394.369)" fill="#4BBFA9"/>
<circle r="1.77749" transform="matrix(0.5 0.866025 0.866025 -0.5 94.244 413.868)" fill="#4BBFA9"/>
<circle r="1.77749" transform="matrix(0.5 0.866025 0.866025 -0.5 105.502 433.367)" fill="#4BBFA9"/>
<circle r="1.77749" transform="matrix(0.5 0.866025 0.866025 -0.5 116.759 452.865)" fill="#4BBFA9"/>
<circle r="1.77749" transform="matrix(0.5 0.866025 0.866025 -0.5 128.017 472.365)" fill="#4BBFA9"/>
<circle r="1.77749" transform="matrix(0.5 0.866025 0.866025 -0.5 139.273 491.861)" fill="#4BBFA9"/>
<circle r="1.77749" transform="matrix(0.5 0.866025 0.866025 -0.5 150.532 511.361)" fill="#4BBFA9"/>
<circle r="1.77749" transform="matrix(0.5 0.866025 0.866025 -0.5 161.789 530.859)" fill="#4BBFA9"/>
<circle r="1.77749" transform="matrix(0.5 0.866025 0.866025 -0.5 57.4554 305.118)" fill="#4BBFA9"/>
<circle r="1.77749" transform="matrix(0.5 0.866025 0.866025 -0.5 68.7128 324.617)" fill="#4BBFA9"/>
<circle r="1.77749" transform="matrix(0.5 0.866025 0.866025 -0.5 79.9716 344.116)" fill="#4BBFA9"/>
<circle r="1.77749" transform="matrix(0.5 0.866025 0.866025 -0.5 91.2274 363.612)" fill="#4BBFA9"/>
<circle r="1.77749" transform="matrix(0.5 0.866025 0.866025 -0.5 102.485 383.111)" fill="#4BBFA9"/>
<circle r="1.77749" transform="matrix(0.5 0.866025 0.866025 -0.5 113.743 402.611)" fill="#4BBFA9"/>
<circle r="1.77749" transform="matrix(0.5 0.866025 0.866025 -0.5 125 422.109)" fill="#4BBFA9"/>
<circle r="1.77749" transform="matrix(0.5 0.866025 0.866025 -0.5 136.258 441.608)" fill="#4BBFA9"/>
<circle r="1.77749" transform="matrix(0.5 0.866025 0.866025 -0.5 147.516 461.107)" fill="#4BBFA9"/>
<circle r="1.77749" transform="matrix(0.5 0.866025 0.866025 -0.5 158.772 480.603)" fill="#4BBFA9"/>
<circle r="1.77749" transform="matrix(0.5 0.866025 0.866025 -0.5 170.03 500.103)" fill="#4BBFA9"/>
<circle r="1.77749" transform="matrix(0.5 0.866025 0.866025 -0.5 181.287 519.602)" fill="#4BBFA9"/>
<circle r="1.77749" transform="matrix(0.5 0.866025 0.866025 -0.5 76.954 293.861)" fill="#4BBFA9"/>
<circle r="1.77749" transform="matrix(0.5 0.866025 0.866025 -0.5 88.2113 313.359)" fill="#4BBFA9"/>
<circle r="1.77749" transform="matrix(0.5 0.866025 0.866025 -0.5 99.4691 332.859)" fill="#4BBFA9"/>
<circle r="1.77749" transform="matrix(0.5 0.866025 0.866025 -0.5 110.725 352.355)" fill="#4BBFA9"/>
<circle r="1.77749" transform="matrix(0.5 0.866025 0.866025 -0.5 121.983 371.854)" fill="#4BBFA9"/>
<circle r="1.77749" transform="matrix(0.5 0.866025 0.866025 -0.5 133.241 391.353)" fill="#4BBFA9"/>
<circle r="1.77749" transform="matrix(0.5 0.866025 0.866025 -0.5 144.499 410.852)" fill="#4BBFA9"/>
<circle r="1.77749" transform="matrix(0.5 0.866025 0.866025 -0.5 155.756 430.35)" fill="#4BBFA9"/>
<circle r="1.77749" transform="matrix(0.5 0.866025 0.866025 -0.5 167.014 449.85)" fill="#4BBFA9"/>
<circle r="1.77749" transform="matrix(0.5 0.866025 0.866025 -0.5 178.27 469.346)" fill="#4BBFA9"/>
<circle r="1.77749" transform="matrix(0.5 0.866025 0.866025 -0.5 189.529 488.846)" fill="#4BBFA9"/>
<circle r="1.77749" transform="matrix(0.5 0.866025 0.866025 -0.5 200.786 508.344)" fill="#4BBFA9"/>
<circle r="1.77749" transform="matrix(0.5 0.866025 0.866025 -0.5 96.4525 282.603)" fill="#4BBFA9"/>
<circle r="1.77749" transform="matrix(0.5 0.866025 0.866025 -0.5 107.71 302.102)" fill="#4BBFA9"/>
<circle r="1.77749" transform="matrix(0.5 0.866025 0.866025 -0.5 118.968 321.601)" fill="#4BBFA9"/>
<circle r="1.77749" transform="matrix(0.5 0.866025 0.866025 -0.5 130.224 341.097)" fill="#4BBFA9"/>
<circle r="1.77749" transform="matrix(0.5 0.866025 0.866025 -0.5 141.482 360.596)" fill="#4BBFA9"/>
<circle r="1.77749" transform="matrix(0.5 0.866025 0.866025 -0.5 152.74 380.096)" fill="#4BBFA9"/>
<circle r="1.77749" transform="matrix(0.5 0.866025 0.866025 -0.5 163.997 399.594)" fill="#4BBFA9"/>
<circle r="1.77749" transform="matrix(0.5 0.866025 0.866025 -0.5 175.255 419.093)" fill="#4BBFA9"/>
<circle r="1.77749" transform="matrix(0.5 0.866025 0.866025 -0.5 186.513 438.593)" fill="#4BBFA9"/>
<circle r="1.77749" transform="matrix(0.5 0.866025 0.866025 -0.5 197.769 458.088)" fill="#4BBFA9"/>
<circle r="1.77749" transform="matrix(0.5 0.866025 0.866025 -0.5 209.027 477.588)" fill="#4BBFA9"/>
<circle r="1.77749" transform="matrix(0.5 0.866025 0.866025 -0.5 220.285 497.087)" fill="#4BBFA9"/>
<circle r="1.77749" transform="matrix(0.5 0.866025 0.866025 -0.5 115.951 271.346)" fill="#4BBFA9"/>
<circle r="1.77749" transform="matrix(0.5 0.866025 0.866025 -0.5 127.208 290.844)" fill="#4BBFA9"/>
<circle r="1.77749" transform="matrix(0.5 0.866025 0.866025 -0.5 138.467 310.343)" fill="#4BBFA9"/>
<circle r="1.77749" transform="matrix(0.5 0.866025 0.866025 -0.5 149.723 329.839)" fill="#4BBFA9"/>
<circle r="1.77749" transform="matrix(0.5 0.866025 0.866025 -0.5 160.981 349.338)" fill="#4BBFA9"/>
<circle r="1.77749" transform="matrix(0.5 0.866025 0.866025 -0.5 172.238 368.838)" fill="#4BBFA9"/>
<circle r="1.77749" transform="matrix(0.5 0.866025 0.866025 -0.5 183.495 388.337)" fill="#4BBFA9"/>
<circle r="1.77749" transform="matrix(0.5 0.866025 0.866025 -0.5 194.753 407.835)" fill="#4BBFA9"/>
<circle r="1.77749" transform="matrix(0.5 0.866025 0.866025 -0.5 206.012 427.335)" fill="#4BBFA9"/>
<circle r="1.77749" transform="matrix(0.5 0.866025 0.866025 -0.5 217.268 446.831)" fill="#4BBFA9"/>
<circle r="1.77749" transform="matrix(0.5 0.866025 0.866025 -0.5 228.526 466.331)" fill="#4BBFA9"/>
<circle r="1.77749" transform="matrix(0.5 0.866025 0.866025 -0.5 239.783 485.829)" fill="#4BBFA9"/>
<circle r="1.77749" transform="matrix(0.5 0.866025 0.866025 -0.5 135.45 260.088)" fill="#4BBFA9"/>
<circle r="1.77749" transform="matrix(0.5 0.866025 0.866025 -0.5 146.707 279.587)" fill="#4BBFA9"/>
<circle r="1.77749" transform="matrix(0.5 0.866025 0.866025 -0.5 157.965 299.087)" fill="#4BBFA9"/>
<circle r="1.77749" transform="matrix(0.5 0.866025 0.866025 -0.5 169.221 318.582)" fill="#4BBFA9"/>
<circle r="1.77749" transform="matrix(0.5 0.866025 0.866025 -0.5 180.478 338.082)" fill="#4BBFA9"/>
<circle r="1.77749" transform="matrix(0.5 0.866025 0.866025 -0.5 191.737 357.581)" fill="#4BBFA9"/>
<circle r="1.77749" transform="matrix(0.5 0.866025 0.866025 -0.5 202.994 377.079)" fill="#4BBFA9"/>
<circle r="1.77749" transform="matrix(0.5 0.866025 0.866025 -0.5 214.252 396.578)" fill="#4BBFA9"/>
<circle r="1.77749" transform="matrix(0.5 0.866025 0.866025 -0.5 225.51 416.078)" fill="#4BBFA9"/>
<circle r="1.77749" transform="matrix(0.5 0.866025 0.866025 -0.5 236.766 435.574)" fill="#4BBFA9"/>
<circle r="1.77749" transform="matrix(0.5 0.866025 0.866025 -0.5 248.024 455.073)" fill="#4BBFA9"/>
<circle r="1.77749" transform="matrix(0.5 0.866025 0.866025 -0.5 259.282 474.572)" fill="#4BBFA9"/>
<circle r="1.77749" transform="matrix(0.5 0.866025 0.866025 -0.5 154.948 248.831)" fill="#4BBFA9"/>
<circle r="1.77749" transform="matrix(0.5 0.866025 0.866025 -0.5 166.205 268.329)" fill="#4BBFA9"/>
<circle r="1.77749" transform="matrix(0.5 0.866025 0.866025 -0.5 177.464 287.829)" fill="#4BBFA9"/>
<circle r="1.77749" transform="matrix(0.5 0.866025 0.866025 -0.5 188.72 307.325)" fill="#4BBFA9"/>
<circle r="1.77749" transform="matrix(0.5 0.866025 0.866025 -0.5 199.977 326.824)" fill="#4BBFA9"/>
<circle r="1.77749" transform="matrix(0.5 0.866025 0.866025 -0.5 211.235 346.323)" fill="#4BBFA9"/>
<circle r="1.77749" transform="matrix(0.5 0.866025 0.866025 -0.5 222.493 365.822)" fill="#4BBFA9"/>
<circle r="1.77749" transform="matrix(0.5 0.866025 0.866025 -0.5 233.75 385.32)" fill="#4BBFA9"/>
<circle r="1.77749" transform="matrix(0.5 0.866025 0.866025 -0.5 245.009 404.82)" fill="#4BBFA9"/>
<circle r="1.77749" transform="matrix(0.5 0.866025 0.866025 -0.5 256.265 424.316)" fill="#4BBFA9"/>
<circle r="1.77749" transform="matrix(0.5 0.866025 0.866025 -0.5 267.523 443.816)" fill="#4BBFA9"/>
<circle r="1.77749" transform="matrix(0.5 0.866025 0.866025 -0.5 278.78 463.314)" fill="#4BBFA9"/>
<circle r="1.77749" transform="matrix(0.5 0.866025 0.866025 -0.5 174.447 237.573)" fill="#4BBFA9"/>
<circle r="1.77749" transform="matrix(0.5 0.866025 0.866025 -0.5 185.704 257.072)" fill="#4BBFA9"/>
<circle r="1.77749" transform="matrix(0.5 0.866025 0.866025 -0.5 196.963 276.571)" fill="#4BBFA9"/>
<circle r="1.77749" transform="matrix(0.5 0.866025 0.866025 -0.5 208.219 296.067)" fill="#4BBFA9"/>
<circle r="1.77749" transform="matrix(0.5 0.866025 0.866025 -0.5 219.476 315.566)" fill="#4BBFA9"/>
<circle r="1.77749" transform="matrix(0.5 0.866025 0.866025 -0.5 230.734 335.066)" fill="#4BBFA9"/>
<circle r="1.77749" transform="matrix(0.5 0.866025 0.866025 -0.5 241.991 354.564)" fill="#4BBFA9"/>
<circle r="1.77749" transform="matrix(0.5 0.866025 0.866025 -0.5 253.249 374.063)" fill="#4BBFA9"/>
<circle r="1.77749" transform="matrix(0.5 0.866025 0.866025 -0.5 264.508 393.562)" fill="#4BBFA9"/>
<circle r="1.77749" transform="matrix(0.5 0.866025 0.866025 -0.5 275.764 413.058)" fill="#4BBFA9"/>
<circle r="1.77749" transform="matrix(0.5 0.866025 0.866025 -0.5 287.021 432.558)" fill="#4BBFA9"/>
<circle r="1.77749" transform="matrix(0.5 0.866025 0.866025 -0.5 298.279 452.057)" fill="#4BBFA9"/>
<circle r="1.77749" transform="matrix(0.5 0.866025 0.866025 -0.5 193.945 226.316)" fill="#4BBFA9"/>
<circle r="1.77749" transform="matrix(0.5 0.866025 0.866025 -0.5 205.203 245.814)" fill="#4BBFA9"/>
<circle r="1.77749" transform="matrix(0.5 0.866025 0.866025 -0.5 216.46 265.314)" fill="#4BBFA9"/>
<circle r="1.77749" transform="matrix(0.5 0.866025 0.866025 -0.5 227.716 284.81)" fill="#4BBFA9"/>
<circle r="1.77749" transform="matrix(0.5 0.866025 0.866025 -0.5 238.974 304.309)" fill="#4BBFA9"/>
<circle r="1.77749" transform="matrix(0.5 0.866025 0.866025 -0.5 250.232 323.808)" fill="#4BBFA9"/>
<circle r="1.77749" transform="matrix(0.5 0.866025 0.866025 -0.5 261.49 343.307)" fill="#4BBFA9"/>
<circle r="1.77749" transform="matrix(0.5 0.866025 0.866025 -0.5 272.747 362.805)" fill="#4BBFA9"/>
<circle r="1.77749" transform="matrix(0.5 0.866025 0.866025 -0.5 284.005 382.306)" fill="#4BBFA9"/>
<circle r="1.77749" transform="matrix(0.5 0.866025 0.866025 -0.5 295.261 401.801)" fill="#4BBFA9"/>
<circle r="1.77749" transform="matrix(0.5 0.866025 0.866025 -0.5 306.519 421.301)" fill="#4BBFA9"/>
<circle r="1.77749" transform="matrix(0.5 0.866025 0.866025 -0.5 317.777 440.799)" fill="#4BBFA9"/>
<circle r="1.77749" transform="matrix(0.5 0.866025 0.866025 -0.5 213.443 215.058)" fill="#4BBFA9"/>
<circle r="1.77749" transform="matrix(0.5 0.866025 0.866025 -0.5 224.701 234.557)" fill="#4BBFA9"/>
<circle r="1.77749" transform="matrix(0.5 0.866025 0.866025 -0.5 235.959 254.056)" fill="#4BBFA9"/>
<circle r="1.77749" transform="matrix(0.5 0.866025 0.866025 -0.5 247.215 273.552)" fill="#4BBFA9"/>
<circle r="1.77749" transform="matrix(0.5 0.866025 0.866025 -0.5 258.473 293.051)" fill="#4BBFA9"/>
<circle r="1.77749" transform="matrix(0.5 0.866025 0.866025 -0.5 269.731 312.551)" fill="#4BBFA9"/>
<circle r="1.77749" transform="matrix(0.5 0.866025 0.866025 -0.5 280.988 332.049)" fill="#4BBFA9"/>
<circle r="1.77749" transform="matrix(0.5 0.866025 0.866025 -0.5 292.245 351.548)" fill="#4BBFA9"/>
<circle r="1.77749" transform="matrix(0.5 0.866025 0.866025 -0.5 303.504 371.048)" fill="#4BBFA9"/>
<circle r="1.77749" transform="matrix(0.5 0.866025 0.866025 -0.5 314.76 390.543)" fill="#4BBFA9"/>
<circle r="1.77749" transform="matrix(0.5 0.866025 0.866025 -0.5 326.018 410.043)" fill="#4BBFA9"/>
<circle r="1.77749" transform="matrix(0.5 0.866025 0.866025 -0.5 337.276 429.542)" fill="#4BBFA9"/>
<circle r="1.77749" transform="matrix(0.5 0.866025 0.866025 -0.5 232.942 203.801)" fill="#4BBFA9"/>
<circle r="1.77749" transform="matrix(0.5 0.866025 0.866025 -0.5 244.2 223.299)" fill="#4BBFA9"/>
<circle r="1.77749" transform="matrix(0.5 0.866025 0.866025 -0.5 255.457 242.8)" fill="#4BBFA9"/>
<circle r="1.77749" transform="matrix(0.5 0.866025 0.866025 -0.5 266.713 262.295)" fill="#4BBFA9"/>
<circle r="1.77749" transform="matrix(0.5 0.866025 0.866025 -0.5 277.971 281.794)" fill="#4BBFA9"/>
<circle r="1.77749" transform="matrix(0.5 0.866025 0.866025 -0.5 289.229 301.293)" fill="#4BBFA9"/>
<circle r="1.77749" transform="matrix(0.5 0.866025 0.866025 -0.5 300.487 320.792)" fill="#4BBFA9"/>
<circle r="1.77749" transform="matrix(0.5 0.866025 0.866025 -0.5 311.744 340.291)" fill="#4BBFA9"/>
<circle r="1.77749" transform="matrix(0.5 0.866025 0.866025 -0.5 323.002 359.791)" fill="#4BBFA9"/>
<circle r="1.77749" transform="matrix(0.5 0.866025 0.866025 -0.5 334.258 379.287)" fill="#4BBFA9"/>
<circle r="1.77749" transform="matrix(0.5 0.866025 0.866025 -0.5 345.516 398.786)" fill="#4BBFA9"/>
<circle r="1.77749" transform="matrix(0.5 0.866025 0.866025 -0.5 356.774 418.285)" fill="#4BBFA9"/>
<circle r="1.77749" transform="matrix(0.5 0.866025 0.866025 -0.5 254.929 189.742)" fill="#4BBFA9"/>
<circle r="1.77749" transform="matrix(0.5 0.866025 0.866025 -0.5 266.186 209.24)" fill="#4BBFA9"/>
<circle r="1.77749" transform="matrix(0.5 0.866025 0.866025 -0.5 277.444 228.74)" fill="#4BBFA9"/>
<circle r="1.77749" transform="matrix(0.5 0.866025 0.866025 -0.5 288.7 248.236)" fill="#4BBFA9"/>
<circle r="1.77749" transform="matrix(0.5 0.866025 0.866025 -0.5 299.958 267.735)" fill="#4BBFA9"/>
<circle r="1.77749" transform="matrix(0.5 0.866025 0.866025 -0.5 311.216 287.234)" fill="#4BBFA9"/>
<circle r="1.77749" transform="matrix(0.5 0.866025 0.866025 -0.5 322.474 306.733)" fill="#4BBFA9"/>
<circle r="1.77749" transform="matrix(0.5 0.866025 0.866025 -0.5 333.731 326.231)" fill="#4BBFA9"/>
<circle r="1.77749" transform="matrix(0.5 0.866025 0.866025 -0.5 344.989 345.731)" fill="#4BBFA9"/>
<circle r="1.77749" transform="matrix(0.5 0.866025 0.866025 -0.5 356.245 365.227)" fill="#4BBFA9"/>
<circle r="1.77749" transform="matrix(0.5 0.866025 0.866025 -0.5 367.503 384.727)" fill="#4BBFA9"/>
<circle r="1.77749" transform="matrix(0.5 0.866025 0.866025 -0.5 378.761 404.225)" fill="#4BBFA9"/>
<circle r="1.77749" transform="matrix(0.5 0.866025 0.866025 -0.5 274.427 178.484)" fill="#4BBFA9"/>
<circle r="1.77749" transform="matrix(0.5 0.866025 0.866025 -0.5 285.684 197.983)" fill="#4BBFA9"/>
<circle r="1.77749" transform="matrix(0.5 0.866025 0.866025 -0.5 296.943 217.482)" fill="#4BBFA9"/>
<circle r="1.77749" transform="matrix(0.5 0.866025 0.866025 -0.5 308.199 236.978)" fill="#4BBFA9"/>
<circle r="1.77749" transform="matrix(0.5 0.866025 0.866025 -0.5 319.457 256.477)" fill="#4BBFA9"/>
<circle r="1.77749" transform="matrix(0.5 0.866025 0.866025 -0.5 330.714 275.977)" fill="#4BBFA9"/>
<circle r="1.77749" transform="matrix(0.5 0.866025 0.866025 -0.5 341.972 295.475)" fill="#4BBFA9"/>
<circle r="1.77749" transform="matrix(0.5 0.866025 0.866025 -0.5 353.229 314.974)" fill="#4BBFA9"/>
<circle r="1.77749" transform="matrix(0.5 0.866025 0.866025 -0.5 364.488 334.473)" fill="#4BBFA9"/>
<circle r="1.77749" transform="matrix(0.5 0.866025 0.866025 -0.5 375.744 353.969)" fill="#4BBFA9"/>
<circle r="1.77749" transform="matrix(0.5 0.866025 0.866025 -0.5 387.002 373.469)" fill="#4BBFA9"/>
<circle r="1.77749" transform="matrix(0.5 0.866025 0.866025 -0.5 398.259 392.968)" fill="#4BBFA9"/>
<circle r="1.77749" transform="matrix(0.5 0.866025 0.866025 -0.5 293.926 167.227)" fill="#4BBFA9"/>
<circle r="1.77749" transform="matrix(0.5 0.866025 0.866025 -0.5 305.183 186.725)" fill="#4BBFA9"/>
<circle r="1.77749" transform="matrix(0.5 0.866025 0.866025 -0.5 316.441 206.225)" fill="#4BBFA9"/>
<circle r="1.77749" transform="matrix(0.5 0.866025 0.866025 -0.5 327.697 225.721)" fill="#4BBFA9"/>
<circle r="1.77749" transform="matrix(0.5 0.866025 0.866025 -0.5 338.954 245.22)" fill="#4BBFA9"/>
<circle r="1.77749" transform="matrix(0.5 0.866025 0.866025 -0.5 350.213 264.719)" fill="#4BBFA9"/>
<circle r="1.77749" transform="matrix(0.5 0.866025 0.866025 -0.5 361.471 284.218)" fill="#4BBFA9"/>
<circle r="1.77749" transform="matrix(0.5 0.866025 0.866025 -0.5 372.728 303.716)" fill="#4BBFA9"/>
<circle r="1.77749" transform="matrix(0.5 0.866025 0.866025 -0.5 383.986 323.217)" fill="#4BBFA9"/>
<circle r="1.77749" transform="matrix(0.5 0.866025 0.866025 -0.5 395.242 342.712)" fill="#4BBFA9"/>
<circle r="1.77749" transform="matrix(0.5 0.866025 0.866025 -0.5 406.5 362.212)" fill="#4BBFA9"/>
<circle r="1.77749" transform="matrix(0.5 0.866025 0.866025 -0.5 417.758 381.71)" fill="#4BBFA9"/>
<circle r="1.77749" transform="matrix(0.5 0.866025 0.866025 -0.5 313.424 155.969)" fill="#4BBFA9"/>
<circle r="1.77749" transform="matrix(0.5 0.866025 0.866025 -0.5 324.682 175.468)" fill="#4BBFA9"/>
<circle r="1.77749" transform="matrix(0.5 0.866025 0.866025 -0.5 335.94 194.967)" fill="#4BBFA9"/>
<circle r="1.77749" transform="matrix(0.5 0.866025 0.866025 -0.5 347.196 214.463)" fill="#4BBFA9"/>
<circle r="1.77749" transform="matrix(0.5 0.866025 0.866025 -0.5 358.453 233.962)" fill="#4BBFA9"/>
<circle r="1.77749" transform="matrix(0.5 0.866025 0.866025 -0.5 369.711 253.462)" fill="#4BBFA9"/>
<circle r="1.77749" transform="matrix(0.5 0.866025 0.866025 -0.5 380.969 272.96)" fill="#4BBFA9"/>
<circle r="1.77749" transform="matrix(0.5 0.866025 0.866025 -0.5 392.226 292.459)" fill="#4BBFA9"/>
<circle r="1.77749" transform="matrix(0.5 0.866025 0.866025 -0.5 403.485 311.959)" fill="#4BBFA9"/>
<circle r="1.77749" transform="matrix(0.5 0.866025 0.866025 -0.5 414.741 331.454)" fill="#4BBFA9"/>
<circle r="1.77749" transform="matrix(0.5 0.866025 0.866025 -0.5 425.999 350.954)" fill="#4BBFA9"/>
<circle r="1.77749" transform="matrix(0.5 0.866025 0.866025 -0.5 437.256 370.453)" fill="#4BBFA9"/>
<circle r="1.77749" transform="matrix(0.5 0.866025 0.866025 -0.5 332.923 144.712)" fill="#4BBFA9"/>
<circle r="1.77749" transform="matrix(0.5 0.866025 0.866025 -0.5 344.18 164.21)" fill="#4BBFA9"/>
<circle r="1.77749" transform="matrix(0.5 0.866025 0.866025 -0.5 355.439 183.71)" fill="#4BBFA9"/>
<circle r="1.77749" transform="matrix(0.5 0.866025 0.866025 -0.5 366.695 203.205)" fill="#4BBFA9"/>
<circle r="1.77749" transform="matrix(0.5 0.866025 0.866025 -0.5 377.953 222.704)" fill="#4BBFA9"/>
<circle r="1.77749" transform="matrix(0.5 0.866025 0.866025 -0.5 389.21 242.204)" fill="#4BBFA9"/>
<circle r="1.77749" transform="matrix(0.5 0.866025 0.866025 -0.5 400.467 261.703)" fill="#4BBFA9"/>
<circle r="1.77749" transform="matrix(0.5 0.866025 0.866025 -0.5 411.725 281.201)" fill="#4BBFA9"/>
<circle r="1.77749" transform="matrix(0.5 0.866025 0.866025 -0.5 422.984 300.701)" fill="#4BBFA9"/>
<circle r="1.77749" transform="matrix(0.5 0.866025 0.866025 -0.5 434.24 320.197)" fill="#4BBFA9"/>
<circle r="1.77749" transform="matrix(0.5 0.866025 0.866025 -0.5 445.497 339.697)" fill="#4BBFA9"/>
<circle r="1.77749" transform="matrix(0.5 0.866025 0.866025 -0.5 456.755 359.195)" fill="#4BBFA9"/>
<circle r="1.77749" transform="matrix(0.5 0.866025 0.866025 -0.5 352.421 133.454)" fill="#4BBFA9"/>
<circle r="1.77749" transform="matrix(0.5 0.866025 0.866025 -0.5 363.679 152.953)" fill="#4BBFA9"/>
<circle r="1.77749" transform="matrix(0.5 0.866025 0.866025 -0.5 374.936 172.453)" fill="#4BBFA9"/>
<circle r="1.77749" transform="matrix(0.5 0.866025 0.866025 -0.5 386.192 191.949)" fill="#4BBFA9"/>
<circle r="1.77749" transform="matrix(0.5 0.866025 0.866025 -0.5 397.45 211.448)" fill="#4BBFA9"/>
<circle r="1.77749" transform="matrix(0.5 0.866025 0.866025 -0.5 408.708 230.947)" fill="#4BBFA9"/>
<circle r="1.77749" transform="matrix(0.5 0.866025 0.866025 -0.5 419.966 250.445)" fill="#4BBFA9"/>
<circle r="1.77749" transform="matrix(0.5 0.866025 0.866025 -0.5 431.224 269.944)" fill="#4BBFA9"/>
<circle r="1.77749" transform="matrix(0.5 0.866025 0.866025 -0.5 442.481 289.444)" fill="#4BBFA9"/>
<circle r="1.77749" transform="matrix(0.5 0.866025 0.866025 -0.5 453.737 308.94)" fill="#4BBFA9"/>
<circle r="1.77749" transform="matrix(0.5 0.866025 0.866025 -0.5 464.996 328.439)" fill="#4BBFA9"/>
<circle r="1.77749" transform="matrix(0.5 0.866025 0.866025 -0.5 476.253 347.938)" fill="#4BBFA9"/>
<circle r="1.77749" transform="matrix(0.5 0.866025 0.866025 -0.5 371.92 122.197)" fill="#4BBFA9"/>
<circle r="1.77749" transform="matrix(0.5 0.866025 0.866025 -0.5 383.177 141.695)" fill="#4BBFA9"/>
<circle r="1.77749" transform="matrix(0.5 0.866025 0.866025 -0.5 394.435 161.195)" fill="#4BBFA9"/>
<circle r="1.77749" transform="matrix(0.5 0.866025 0.866025 -0.5 405.691 180.691)" fill="#4BBFA9"/>
<circle r="1.77749" transform="matrix(0.5 0.866025 0.866025 -0.5 416.949 200.19)" fill="#4BBFA9"/>
<circle r="1.77749" transform="matrix(0.5 0.866025 0.866025 -0.5 428.207 219.689)" fill="#4BBFA9"/>
<circle r="1.77749" transform="matrix(0.5 0.866025 0.866025 -0.5 439.464 239.188)" fill="#4BBFA9"/>
<circle r="1.77749" transform="matrix(0.5 0.866025 0.866025 -0.5 450.722 258.686)" fill="#4BBFA9"/>
<circle r="1.77749" transform="matrix(0.5 0.866025 0.866025 -0.5 461.98 278.186)" fill="#4BBFA9"/>
<circle r="1.77749" transform="matrix(0.5 0.866025 0.866025 -0.5 473.236 297.682)" fill="#4BBFA9"/>
<circle r="1.77749" transform="matrix(0.5 0.866025 0.866025 -0.5 484.495 317.182)" fill="#4BBFA9"/>
<circle r="1.77749" transform="matrix(0.5 0.866025 0.866025 -0.5 495.752 336.68)" fill="#4BBFA9"/>
<circle r="1.77749" transform="matrix(0.5 0.866025 0.866025 -0.5 391.418 110.939)" fill="#4BBFA9"/>
<circle r="1.77749" transform="matrix(0.5 0.866025 0.866025 -0.5 402.676 130.438)" fill="#4BBFA9"/>
<circle r="1.77749" transform="matrix(0.5 0.866025 0.866025 -0.5 413.934 149.937)" fill="#4BBFA9"/>
<circle r="1.77749" transform="matrix(0.5 0.866025 0.866025 -0.5 425.19 169.433)" fill="#4BBFA9"/>
<circle r="1.77749" transform="matrix(0.5 0.866025 0.866025 -0.5 436.448 188.932)" fill="#4BBFA9"/>
<circle r="1.77749" transform="matrix(0.5 0.866025 0.866025 -0.5 447.705 208.432)" fill="#4BBFA9"/>
<circle r="1.77749" transform="matrix(0.5 0.866025 0.866025 -0.5 458.963 227.93)" fill="#4BBFA9"/>
<circle r="1.77749" transform="matrix(0.5 0.866025 0.866025 -0.5 470.221 247.429)" fill="#4BBFA9"/>
<circle r="1.77749" transform="matrix(0.5 0.866025 0.866025 -0.5 481.479 266.928)" fill="#4BBFA9"/>
<circle r="1.77749" transform="matrix(0.5 0.866025 0.866025 -0.5 492.735 286.424)" fill="#4BBFA9"/>
<circle r="1.77749" transform="matrix(0.5 0.866025 0.866025 -0.5 503.993 305.924)" fill="#4BBFA9"/>
<circle r="1.77749" transform="matrix(0.5 0.866025 0.866025 -0.5 515.25 325.423)" fill="#4BBFA9"/>
<circle r="1.77749" transform="matrix(0.5 0.866025 0.866025 -0.5 410.916 99.6819)" fill="#4BBFA9"/>
<circle r="1.77749" transform="matrix(0.5 0.866025 0.866025 -0.5 422.174 119.18)" fill="#4BBFA9"/>
<circle r="1.77749" transform="matrix(0.5 0.866025 0.866025 -0.5 433.432 138.68)" fill="#4BBFA9"/>
<circle r="1.77749" transform="matrix(0.5 0.866025 0.866025 -0.5 444.688 158.176)" fill="#4BBFA9"/>
<circle r="1.77749" transform="matrix(0.5 0.866025 0.866025 -0.5 455.946 177.675)" fill="#4BBFA9"/>
<circle r="1.77749" transform="matrix(0.5 0.866025 0.866025 -0.5 467.204 197.174)" fill="#4BBFA9"/>
<circle r="1.77749" transform="matrix(0.5 0.866025 0.866025 -0.5 478.461 216.673)" fill="#4BBFA9"/>
<circle r="1.77749" transform="matrix(0.5 0.866025 0.866025 -0.5 489.719 236.171)" fill="#4BBFA9"/>
<circle r="1.77749" transform="matrix(0.5 0.866025 0.866025 -0.5 500.977 255.672)" fill="#4BBFA9"/>
<circle r="1.77749" transform="matrix(0.5 0.866025 0.866025 -0.5 512.233 275.167)" fill="#4BBFA9"/>
<circle r="1.77749" transform="matrix(0.5 0.866025 0.866025 -0.5 523.491 294.667)" fill="#4BBFA9"/>
<circle r="1.77749" transform="matrix(0.5 0.866025 0.866025 -0.5 534.749 314.166)" fill="#4BBFA9"/>
<circle r="1.77749" transform="matrix(0.5 0.866025 0.866025 -0.5 430.415 88.4245)" fill="#4BBFA9"/>
<circle r="1.77749" transform="matrix(0.5 0.866025 0.866025 -0.5 441.673 107.923)" fill="#4BBFA9"/>
<circle r="1.77749" transform="matrix(0.5 0.866025 0.866025 -0.5 452.931 127.423)" fill="#4BBFA9"/>
<circle r="1.77749" transform="matrix(0.5 0.866025 0.866025 -0.5 464.187 146.918)" fill="#4BBFA9"/>
<circle r="1.77749" transform="matrix(0.5 0.866025 0.866025 -0.5 475.445 166.417)" fill="#4BBFA9"/>
<circle r="1.77749" transform="matrix(0.5 0.866025 0.866025 -0.5 486.703 185.917)" fill="#4BBFA9"/>
<circle r="1.77749" transform="matrix(0.5 0.866025 0.866025 -0.5 497.96 205.416)" fill="#4BBFA9"/>
<circle r="1.77749" transform="matrix(0.5 0.866025 0.866025 -0.5 509.217 224.914)" fill="#4BBFA9"/>
<circle r="1.77749" transform="matrix(0.5 0.866025 0.866025 -0.5 520.476 244.414)" fill="#4BBFA9"/>
<circle r="1.77749" transform="matrix(0.5 0.866025 0.866025 -0.5 531.732 263.91)" fill="#4BBFA9"/>
<circle r="1.77749" transform="matrix(0.5 0.866025 0.866025 -0.5 542.99 283.41)" fill="#4BBFA9"/>
<circle r="1.77749" transform="matrix(0.5 0.866025 0.866025 -0.5 554.247 302.908)" fill="#4BBFA9"/>
<circle r="1.77749" transform="matrix(0.5 0.866025 0.866025 -0.5 449.913 77.167)" fill="#4BBFA9"/>
<circle r="1.77749" transform="matrix(0.5 0.866025 0.866025 -0.5 461.171 96.6655)" fill="#4BBFA9"/>
<circle r="1.77749" transform="matrix(0.5 0.866025 0.866025 -0.5 472.429 116.166)" fill="#4BBFA9"/>
<circle r="1.77749" transform="matrix(0.5 0.866025 0.866025 -0.5 483.684 135.661)" fill="#4BBFA9"/>
<circle r="1.77749" transform="matrix(0.5 0.866025 0.866025 -0.5 494.942 155.16)" fill="#4BBFA9"/>
<circle r="1.77749" transform="matrix(0.5 0.866025 0.866025 -0.5 506.201 174.66)" fill="#4BBFA9"/>
<circle r="1.77749" transform="matrix(0.5 0.866025 0.866025 -0.5 517.458 194.158)" fill="#4BBFA9"/>
<circle r="1.77749" transform="matrix(0.5 0.866025 0.866025 -0.5 528.716 213.657)" fill="#4BBFA9"/>
<circle r="1.77749" transform="matrix(0.5 0.866025 0.866025 -0.5 539.974 233.157)" fill="#4BBFA9"/>
<circle r="1.77749" transform="matrix(0.5 0.866025 0.866025 -0.5 551.229 252.653)" fill="#4BBFA9"/>
<circle r="1.77749" transform="matrix(0.5 0.866025 0.866025 -0.5 562.488 272.152)" fill="#4BBFA9"/>
<circle r="1.77749" transform="matrix(0.5 0.866025 0.866025 -0.5 573.746 291.651)" fill="#4BBFA9"/>
<circle r="1.77749" transform="matrix(0.5 0.866025 0.866025 -0.5 155.662 13.0696)" fill="#4BBFA9"/>
<circle r="1.77749" transform="matrix(0.5 0.866025 0.866025 -0.5 166.92 32.5686)" fill="#4BBFA9"/>
<circle r="1.77749" transform="matrix(0.5 0.866025 0.866025 -0.5 178.178 52.0681)" fill="#4BBFA9"/>
<circle r="1.77749" transform="matrix(0.5 0.866025 0.866025 -0.5 189.435 71.5666)" fill="#4BBFA9"/>
<circle r="1.77749" transform="matrix(0.5 0.866025 0.866025 -0.5 200.693 91.0651)" fill="#4BBFA9"/>
<circle r="1.77749" transform="matrix(0.5 0.866025 0.866025 -0.5 211.951 110.565)" fill="#4BBFA9"/>
<circle r="1.77749" transform="matrix(0.5 0.866025 0.866025 -0.5 223.207 130.061)" fill="#4BBFA9"/>
<circle r="1.77749" transform="matrix(0.5 0.866025 0.866025 -0.5 234.465 149.561)" fill="#4BBFA9"/>
<circle r="1.77749" transform="matrix(0.5 0.866025 0.866025 -0.5 245.723 169.059)" fill="#4BBFA9"/>
<circle r="1.77749" transform="matrix(0.5 0.866025 0.866025 -0.5 175.161 1.81174)" fill="#4BBFA9"/>
<circle r="1.77749" transform="matrix(0.5 0.866025 0.866025 -0.5 186.419 21.3108)" fill="#4BBFA9"/>
<circle r="1.77749" transform="matrix(0.5 0.866025 0.866025 -0.5 197.676 40.8106)" fill="#4BBFA9"/>
<circle r="1.77749" transform="matrix(0.5 0.866025 0.866025 -0.5 208.934 60.3092)" fill="#4BBFA9"/>
<circle r="1.77749" transform="matrix(0.5 0.866025 0.866025 -0.5 220.191 79.8077)" fill="#4BBFA9"/>
<circle r="1.77749" transform="matrix(0.5 0.866025 0.866025 -0.5 231.45 99.3072)" fill="#4BBFA9"/>
<circle r="1.77749" transform="matrix(0.5 0.866025 0.866025 -0.5 242.706 118.803)" fill="#4BBFA9"/>
<circle r="1.77749" transform="matrix(0.5 0.866025 0.866025 -0.5 253.964 138.303)" fill="#4BBFA9"/>
<circle r="1.77749" transform="matrix(0.5 0.866025 0.866025 -0.5 265.221 157.802)" fill="#4BBFA9"/>
<circle r="1.77749" transform="matrix(0.5 0.866025 0.866025 -0.5 205.916 10.054)" fill="#4BBFA9"/>
<circle r="1.77749" transform="matrix(0.5 0.866025 0.866025 -0.5 217.175 29.5532)" fill="#4BBFA9"/>
<circle r="1.77749" transform="matrix(0.5 0.866025 0.866025 -0.5 228.432 49.0517)" fill="#4BBFA9"/>
<circle r="1.77749" transform="matrix(0.5 0.866025 0.866025 -0.5 239.69 68.5502)" fill="#4BBFA9"/>
<circle r="1.77749" transform="matrix(0.5 0.866025 0.866025 -0.5 250.948 88.0504)" fill="#4BBFA9"/>
<circle r="1.77749" transform="matrix(0.5 0.866025 0.866025 -0.5 262.203 107.546)" fill="#4BBFA9"/>
<circle r="1.77749" transform="matrix(0.5 0.866025 0.866025 -0.5 273.462 127.046)" fill="#4BBFA9"/>
<circle r="1.77749" transform="matrix(0.5 0.866025 0.866025 -0.5 284.72 146.544)" fill="#4BBFA9"/>
<circle r="1.77749" transform="matrix(0.5 0.866025 0.866025 -0.5 225.415 -1.20382)" fill="#4BBFA9"/>
<circle r="1.77749" transform="matrix(0.5 0.866025 0.866025 -0.5 236.673 18.2957)" fill="#4BBFA9"/>
<circle r="1.77749" transform="matrix(0.5 0.866025 0.866025 -0.5 247.931 37.7942)" fill="#4BBFA9"/>
<circle r="1.77749" transform="matrix(0.5 0.866025 0.866025 -0.5 259.188 57.2928)" fill="#4BBFA9"/>
<circle r="1.77749" transform="matrix(0.5 0.866025 0.866025 -0.5 270.447 76.7926)" fill="#4BBFA9"/>
<circle r="1.77749" transform="matrix(0.5 0.866025 0.866025 -0.5 281.703 96.2883)" fill="#4BBFA9"/>
<circle r="1.77749" transform="matrix(0.5 0.866025 0.866025 -0.5 292.961 115.788)" fill="#4BBFA9"/>
<circle r="1.77749" transform="matrix(0.5 0.866025 0.866025 -0.5 304.218 135.287)" fill="#4BBFA9"/>
<circle r="1.77749" transform="matrix(0.5 0.866025 0.866025 -0.5 256.172 7.03824)" fill="#4BBFA9"/>
<circle r="1.77749" transform="matrix(0.5 0.866025 0.866025 -0.5 267.429 26.5368)" fill="#4BBFA9"/>
<circle r="1.77749" transform="matrix(0.5 0.866025 0.866025 -0.5 278.687 46.0353)" fill="#4BBFA9"/>
<circle r="1.77749" transform="matrix(0.5 0.866025 0.866025 -0.5 289.946 65.5348)" fill="#4BBFA9"/>
<circle r="1.77749" transform="matrix(0.5 0.866025 0.866025 -0.5 301.202 85.0305)" fill="#4BBFA9"/>
<circle r="1.77749" transform="matrix(0.5 0.866025 0.866025 -0.5 312.459 104.531)" fill="#4BBFA9"/>
<circle r="1.77749" transform="matrix(0.5 0.866025 0.866025 -0.5 323.717 124.029)" fill="#4BBFA9"/>
<circle r="1.77749" transform="matrix(0.5 0.866025 0.866025 -0.5 286.928 15.2793)" fill="#4BBFA9"/>
<circle r="1.77749" transform="matrix(0.5 0.866025 0.866025 -0.5 298.185 34.7778)" fill="#4BBFA9"/>
<circle r="1.77749" transform="matrix(0.5 0.866025 0.866025 -0.5 309.443 54.2779)" fill="#4BBFA9"/>
<circle r="1.77749" transform="matrix(0.5 0.866025 0.866025 -0.5 320.699 73.7737)" fill="#4BBFA9"/>
<circle r="1.77749" transform="matrix(0.5 0.866025 0.866025 -0.5 331.958 93.2733)" fill="#4BBFA9"/>
<circle r="1.77749" transform="matrix(0.5 0.866025 0.866025 -0.5 343.215 112.772)" fill="#4BBFA9"/>
<circle r="1.77749" transform="matrix(0.5 0.866025 0.866025 -0.5 306.426 4.02182)" fill="#4BBFA9"/>
<circle r="1.77749" transform="matrix(0.5 0.866025 0.866025 -0.5 317.684 23.5203)" fill="#4BBFA9"/>
<circle r="1.77749" transform="matrix(0.5 0.866025 0.866025 -0.5 328.942 43.0201)" fill="#4BBFA9"/>
<circle r="1.77749" transform="matrix(0.5 0.866025 0.866025 -0.5 340.198 62.5158)" fill="#4BBFA9"/>
<circle r="1.77749" transform="matrix(0.5 0.866025 0.866025 -0.5 351.456 82.0158)" fill="#4BBFA9"/>
<circle r="1.77749" transform="matrix(0.5 0.866025 0.866025 -0.5 362.714 101.514)" fill="#4BBFA9"/>
<circle r="1.77749" transform="matrix(0.5 0.866025 0.866025 -0.5 337.182 12.2629)" fill="#4BBFA9"/>
<circle r="1.77749" transform="matrix(0.5 0.866025 0.866025 -0.5 348.441 31.7623)" fill="#4BBFA9"/>
<circle r="1.77749" transform="matrix(0.5 0.866025 0.866025 -0.5 359.697 51.258)" fill="#4BBFA9"/>
<circle r="1.77749" transform="matrix(0.5 0.866025 0.866025 -0.5 370.954 70.7584)" fill="#4BBFA9"/>
<circle r="1.77749" transform="matrix(0.5 0.866025 0.866025 -0.5 382.212 90.2569)" fill="#4BBFA9"/>
<circle r="1.77749" transform="matrix(0.5 0.866025 0.866025 -0.5 356.681 1.00541)" fill="#4BBFA9"/>
<circle r="1.77749" transform="matrix(0.5 0.866025 0.866025 -0.5 367.939 20.5055)" fill="#4BBFA9"/>
<circle r="1.77749" transform="matrix(0.5 0.866025 0.866025 -0.5 379.195 40.0012)" fill="#4BBFA9"/>
<circle r="1.77749" transform="matrix(0.5 0.866025 0.866025 -0.5 390.453 59.5009)" fill="#4BBFA9"/>
<circle r="1.77749" transform="matrix(0.5 0.866025 0.866025 -0.5 401.711 78.9994)" fill="#4BBFA9"/>
<circle r="1.77749" transform="matrix(0.5 0.866025 0.866025 -0.5 387.438 9.24765)" fill="#4BBFA9"/>
<circle r="1.77749" transform="matrix(0.5 0.866025 0.866025 -0.5 398.694 28.7434)" fill="#4BBFA9"/>
<circle r="1.77749" transform="matrix(0.5 0.866025 0.866025 -0.5 409.952 48.2434)" fill="#4BBFA9"/>
<circle r="1.77749" transform="matrix(0.5 0.866025 0.866025 -0.5 421.209 67.742)" fill="#4BBFA9"/>
<circle r="1.77749" transform="matrix(0.5 0.866025 0.866025 -0.5 406.935 -2.00918)" fill="#4BBFA9"/>
<circle r="1.77749" transform="matrix(0.5 0.866025 0.866025 -0.5 418.191 17.4865)" fill="#4BBFA9"/>
<circle r="1.77749" transform="matrix(0.5 0.866025 0.866025 -0.5 429.45 36.986)" fill="#4BBFA9"/>
<circle r="1.77749" transform="matrix(0.5 0.866025 0.866025 -0.5 440.708 56.4845)" fill="#4BBFA9"/>
<circle r="1.77749" transform="matrix(0.5 0.866025 0.866025 -0.5 -1.93957 235.42)" fill="#4BBFA9"/>
<circle r="1.77749" transform="matrix(0.5 0.866025 0.866025 -0.5 9.31629 254.916)" fill="#4BBFA9"/>
<circle r="1.77749" transform="matrix(0.5 0.866025 0.866025 -0.5 20.5746 274.416)" fill="#4BBFA9"/>
<circle r="1.77749" transform="matrix(0.5 0.866025 0.866025 -0.5 31.8319 293.915)" fill="#4BBFA9"/>
<circle r="1.77749" transform="matrix(0.5 0.866025 0.866025 -0.5 6.30066 204.663)" fill="#4BBFA9"/>
<circle r="1.77749" transform="matrix(0.5 0.866025 0.866025 -0.5 17.5595 224.163)" fill="#4BBFA9"/>
<circle r="1.77749" transform="matrix(0.5 0.866025 0.866025 -0.5 28.8153 243.658)" fill="#4BBFA9"/>
<circle r="1.77749" transform="matrix(0.5 0.866025 0.866025 -0.5 40.0731 263.159)" fill="#4BBFA9"/>
<circle r="1.77749" transform="matrix(0.5 0.866025 0.866025 -0.5 51.3304 282.657)" fill="#4BBFA9"/>
<circle r="1.77749" transform="matrix(0.5 0.866025 0.866025 -0.5 3.28406 154.409)" fill="#4BBFA9"/>
<circle r="1.77749" transform="matrix(0.5 0.866025 0.866025 -0.5 14.5419 173.907)" fill="#4BBFA9"/>
<circle r="1.77749" transform="matrix(0.5 0.866025 0.866025 -0.5 25.7992 193.406)" fill="#4BBFA9"/>
<circle r="1.77749" transform="matrix(0.5 0.866025 0.866025 -0.5 37.057 212.906)" fill="#4BBFA9"/>
<circle r="1.77749" transform="matrix(0.5 0.866025 0.866025 -0.5 48.3129 232.401)" fill="#4BBFA9"/>
<circle r="1.77749" transform="matrix(0.5 0.866025 0.866025 -0.5 59.5717 251.901)" fill="#4BBFA9"/>
<circle r="1.77749" transform="matrix(0.5 0.866025 0.866025 -0.5 70.829 271.4)" fill="#4BBFA9"/>
<circle r="1.77749" transform="matrix(0.5 0.866025 0.866025 -0.5 0.26697 104.152)" fill="#4BBFA9"/>
<circle r="1.77749" transform="matrix(0.5 0.866025 0.866025 -0.5 11.5248 123.652)" fill="#4BBFA9"/>
<circle r="1.77749" transform="matrix(0.5 0.866025 0.866025 -0.5 22.7826 143.151)" fill="#4BBFA9"/>
<circle r="1.77749" transform="matrix(0.5 0.866025 0.866025 -0.5 34.0404 162.65)" fill="#4BBFA9"/>
<circle r="1.77749" transform="matrix(0.5 0.866025 0.866025 -0.5 45.2977 182.148)" fill="#4BBFA9"/>
<circle r="1.77749" transform="matrix(0.5 0.866025 0.866025 -0.5 56.556 201.648)" fill="#4BBFA9"/>
<circle r="1.77749" transform="matrix(0.5 0.866025 0.866025 -0.5 67.8119 221.144)" fill="#4BBFA9"/>
<circle r="1.77749" transform="matrix(0.5 0.866025 0.866025 -0.5 79.0702 240.644)" fill="#4BBFA9"/>
<circle r="1.77749" transform="matrix(0.5 0.866025 0.866025 -0.5 90.3275 260.142)" fill="#4BBFA9"/>
<circle r="1.77749" transform="matrix(0.5 0.866025 0.866025 -0.5 8.51013 73.3989)" fill="#4BBFA9"/>
<circle r="1.77749" transform="matrix(0.5 0.866025 0.866025 -0.5 19.766 92.8946)" fill="#4BBFA9"/>
<circle r="1.77749" transform="matrix(0.5 0.866025 0.866025 -0.5 31.0238 112.394)" fill="#4BBFA9"/>
<circle r="1.77749" transform="matrix(0.5 0.866025 0.866025 -0.5 42.2811 131.894)" fill="#4BBFA9"/>
<circle r="1.77749" transform="matrix(0.5 0.866025 0.866025 -0.5 53.5385 151.392)" fill="#4BBFA9"/>
<circle r="1.77749" transform="matrix(0.5 0.866025 0.866025 -0.5 64.7963 170.891)" fill="#4BBFA9"/>
<circle r="1.77749" transform="matrix(0.5 0.866025 0.866025 -0.5 76.0551 190.39)" fill="#4BBFA9"/>
<circle r="1.77749" transform="matrix(0.5 0.866025 0.866025 -0.5 87.3109 209.886)" fill="#4BBFA9"/>
<circle r="1.77749" transform="matrix(0.5 0.866025 0.866025 -0.5 98.5687 229.386)" fill="#4BBFA9"/>
<circle r="1.77749" transform="matrix(0.5 0.866025 0.866025 -0.5 109.826 248.885)" fill="#4BBFA9"/>
<circle r="1.77749" transform="matrix(0.5 0.866025 0.866025 -0.5 5.49256 23.1436)" fill="#4BBFA9"/>
<circle r="1.77749" transform="matrix(0.5 0.866025 0.866025 -0.5 16.7499 42.6421)" fill="#4BBFA9"/>
<circle r="1.77749" transform="matrix(0.5 0.866025 0.866025 -0.5 28.0077 62.1421)" fill="#4BBFA9"/>
<circle r="1.77749" transform="matrix(0.5 0.866025 0.866025 -0.5 39.2636 81.6378)" fill="#4BBFA9"/>
<circle r="1.77749" transform="matrix(0.5 0.866025 0.866025 -0.5 50.5214 101.137)" fill="#4BBFA9"/>
<circle r="1.77749" transform="matrix(0.5 0.866025 0.866025 -0.5 61.7797 120.636)" fill="#4BBFA9"/>
<circle r="1.77749" transform="matrix(0.5 0.866025 0.866025 -0.5 73.037 140.135)" fill="#4BBFA9"/>
<circle r="1.77749" transform="matrix(0.5 0.866025 0.866025 -0.5 84.2948 159.633)" fill="#4BBFA9"/>
<circle r="1.77749" transform="matrix(0.5 0.866025 0.866025 -0.5 95.5526 179.133)" fill="#4BBFA9"/>
<circle r="1.77749" transform="matrix(0.5 0.866025 0.866025 -0.5 106.808 198.629)" fill="#4BBFA9"/>
<circle r="1.77749" transform="matrix(0.5 0.866025 0.866025 -0.5 118.067 218.129)" fill="#4BBFA9"/>
<circle r="1.77749" transform="matrix(0.5 0.866025 0.866025 -0.5 129.325 237.627)" fill="#4BBFA9"/>
<circle r="1.77749" transform="matrix(0.5 0.866025 0.866025 -0.5 24.9911 11.8861)" fill="#4BBFA9"/>
<circle r="1.77749" transform="matrix(0.5 0.866025 0.866025 -0.5 36.2484 31.3847)" fill="#4BBFA9"/>
<circle r="1.77749" transform="matrix(0.5 0.866025 0.866025 -0.5 47.5067 50.8843)" fill="#4BBFA9"/>
<circle r="1.77749" transform="matrix(0.5 0.866025 0.866025 -0.5 58.7626 70.38)" fill="#4BBFA9"/>
<circle r="1.77749" transform="matrix(0.5 0.866025 0.866025 -0.5 70.0204 89.8791)" fill="#4BBFA9"/>
<circle r="1.77749" transform="matrix(0.5 0.866025 0.866025 -0.5 81.2782 109.379)" fill="#4BBFA9"/>
<circle r="1.77749" transform="matrix(0.5 0.866025 0.866025 -0.5 92.5355 128.877)" fill="#4BBFA9"/>
<circle r="1.77749" transform="matrix(0.5 0.866025 0.866025 -0.5 103.793 148.376)" fill="#4BBFA9"/>
<circle r="1.77749" transform="matrix(0.5 0.866025 0.866025 -0.5 115.052 167.875)" fill="#4BBFA9"/>
<circle r="1.77749" transform="matrix(0.5 0.866025 0.866025 -0.5 126.307 187.371)" fill="#4BBFA9"/>
<circle r="1.77749" transform="matrix(0.5 0.866025 0.866025 -0.5 137.566 206.871)" fill="#4BBFA9"/>
<circle r="1.77749" transform="matrix(0.5 0.866025 0.866025 -0.5 148.823 226.37)" fill="#4BBFA9"/>
<circle r="1.77749" transform="matrix(0.5 0.866025 0.866025 -0.5 44.4896 0.628697)" fill="#4BBFA9"/>
<circle r="1.77749" transform="matrix(0.5 0.866025 0.866025 -0.5 55.747 20.1272)" fill="#4BBFA9"/>
<circle r="1.77749" transform="matrix(0.5 0.866025 0.866025 -0.5 67.0057 39.6264)" fill="#4BBFA9"/>
<circle r="1.77749" transform="matrix(0.5 0.866025 0.866025 -0.5 78.2616 59.1222)" fill="#4BBFA9"/>
<circle r="1.77749" transform="matrix(0.5 0.866025 0.866025 -0.5 89.5194 78.6213)" fill="#4BBFA9"/>
<circle r="1.77749" transform="matrix(0.5 0.866025 0.866025 -0.5 100.777 98.1212)" fill="#4BBFA9"/>
<circle r="1.77749" transform="matrix(0.5 0.866025 0.866025 -0.5 112.034 117.62)" fill="#4BBFA9"/>
<circle r="1.77749" transform="matrix(0.5 0.866025 0.866025 -0.5 123.292 137.118)" fill="#4BBFA9"/>
<circle r="1.77749" transform="matrix(0.5 0.866025 0.866025 -0.5 134.551 156.618)" fill="#4BBFA9"/>
<circle r="1.77749" transform="matrix(0.5 0.866025 0.866025 -0.5 145.807 176.113)" fill="#4BBFA9"/>
<circle r="1.77749" transform="matrix(0.5 0.866025 0.866025 -0.5 157.064 195.614)" fill="#4BBFA9"/>
<circle r="1.77749" transform="matrix(0.5 0.866025 0.866025 -0.5 168.322 215.112)" fill="#4BBFA9"/>
<circle r="1.77749" transform="matrix(0.5 0.866025 0.866025 -0.5 75.2455 8.86972)" fill="#4BBFA9"/>
<circle r="1.77749" transform="matrix(0.5 0.866025 0.866025 -0.5 86.5033 28.3696)" fill="#4BBFA9"/>
<circle r="1.77749" transform="matrix(0.5 0.866025 0.866025 -0.5 97.7592 47.8653)" fill="#4BBFA9"/>
<circle r="1.77749" transform="matrix(0.5 0.866025 0.866025 -0.5 109.017 67.3644)" fill="#4BBFA9"/>
<circle r="1.77749" transform="matrix(0.5 0.866025 0.866025 -0.5 120.275 86.8637)" fill="#4BBFA9"/>
<circle r="1.77749" transform="matrix(0.5 0.866025 0.866025 -0.5 131.533 106.362)" fill="#4BBFA9"/>
<circle r="1.77749" transform="matrix(0.5 0.866025 0.866025 -0.5 142.79 125.861)" fill="#4BBFA9"/>
<circle r="1.77749" transform="matrix(0.5 0.866025 0.866025 -0.5 154.048 145.361)" fill="#4BBFA9"/>
<circle r="1.77749" transform="matrix(0.5 0.866025 0.866025 -0.5 165.304 164.857)" fill="#4BBFA9"/>
<circle r="1.77749" transform="matrix(0.5 0.866025 0.866025 -0.5 176.562 184.356)" fill="#4BBFA9"/>
<circle r="1.77749" transform="matrix(0.5 0.866025 0.866025 -0.5 187.82 203.855)" fill="#4BBFA9"/>
<circle r="1.77749" transform="matrix(0.5 0.866025 0.866025 -0.5 94.744 -2.38772)" fill="#4BBFA9"/>
<circle r="1.77749" transform="matrix(0.5 0.866025 0.866025 -0.5 106.002 17.1118)" fill="#4BBFA9"/>
<circle r="1.77749" transform="matrix(0.5 0.866025 0.866025 -0.5 117.258 36.6075)" fill="#4BBFA9"/>
<circle r="1.77749" transform="matrix(0.5 0.866025 0.866025 -0.5 128.516 56.1066)" fill="#4BBFA9"/>
<circle r="1.77749" transform="matrix(0.5 0.866025 0.866025 -0.5 139.774 75.6063)" fill="#4BBFA9"/>
<circle r="1.77749" transform="matrix(0.5 0.866025 0.866025 -0.5 151.031 95.1048)" fill="#4BBFA9"/>
<circle r="1.77749" transform="matrix(0.5 0.866025 0.866025 -0.5 162.288 114.603)" fill="#4BBFA9"/>
<circle r="1.77749" transform="matrix(0.5 0.866025 0.866025 -0.5 173.547 134.103)" fill="#4BBFA9"/>
<circle r="1.77749" transform="matrix(0.5 0.866025 0.866025 -0.5 184.803 153.599)" fill="#4BBFA9"/>
<circle r="1.77749" transform="matrix(0.5 0.866025 0.866025 -0.5 196.061 173.099)" fill="#4BBFA9"/>
<circle r="1.77749" transform="matrix(0.5 0.866025 0.866025 -0.5 207.319 192.597)" fill="#4BBFA9"/>
<circle r="1.77749" transform="matrix(0.5 0.866025 0.866025 -0.5 125.5 5.85495)" fill="#4BBFA9"/>
<circle r="1.77749" transform="matrix(0.5 0.866025 0.866025 -0.5 136.756 25.3507)" fill="#4BBFA9"/>
<circle r="1.77749" transform="matrix(0.5 0.866025 0.866025 -0.5 148.014 44.8498)" fill="#4BBFA9"/>
<circle r="1.77749" transform="matrix(0.5 0.866025 0.866025 -0.5 159.272 64.3488)" fill="#4BBFA9"/>
<circle r="1.77749" transform="matrix(0.5 0.866025 0.866025 -0.5 170.53 83.8473)" fill="#4BBFA9"/>
<circle r="1.77749" transform="matrix(0.5 0.866025 0.866025 -0.5 181.787 103.346)" fill="#4BBFA9"/>
<circle r="1.77749" transform="matrix(0.5 0.866025 0.866025 -0.5 193.045 122.846)" fill="#4BBFA9"/>
<circle r="1.77749" transform="matrix(0.5 0.866025 0.866025 -0.5 204.301 142.342)" fill="#4BBFA9"/>
<circle r="1.77749" transform="matrix(0.5 0.866025 0.866025 -0.5 215.559 161.841)" fill="#4BBFA9"/>
<circle r="1.77749" transform="matrix(0.5 0.866025 0.866025 -0.5 226.817 181.34)" fill="#4BBFA9"/>
<circle r="1.77749" transform="matrix(0.5 0.866025 0.866025 -0.5 176.125 548.58)" fill="#4BBFA9"/>
<circle r="1.77749" transform="matrix(0.5 0.866025 0.866025 -0.5 187.383 568.078)" fill="#4BBFA9"/>
<circle r="1.77749" transform="matrix(0.5 0.866025 0.866025 -0.5 198.641 587.578)" fill="#4BBFA9"/>
<circle r="1.77749" transform="matrix(0.5 0.866025 0.866025 -0.5 209.897 607.074)" fill="#4BBFA9"/>
<circle r="1.77749" transform="matrix(0.5 0.866025 0.866025 -0.5 221.155 626.573)" fill="#4BBFA9"/>
<circle r="1.77749" transform="matrix(0.5 0.866025 0.866025 -0.5 232.412 646.072)" fill="#4BBFA9"/>
<circle r="1.77749" transform="matrix(0.5 0.866025 0.866025 -0.5 243.67 665.571)" fill="#4BBFA9"/>
<circle r="1.77749" transform="matrix(0.5 0.866025 0.866025 -0.5 254.928 685.069)" fill="#4BBFA9"/>
<circle r="1.77749" transform="matrix(0.5 0.866025 0.866025 -0.5 266.186 704.569)" fill="#4BBFA9"/>
<circle r="1.77749" transform="matrix(0.5 0.866025 0.866025 -0.5 277.442 724.065)" fill="#4BBFA9"/>
<circle r="1.77749" transform="matrix(0.5 0.866025 0.866025 -0.5 288.7 743.565)" fill="#4BBFA9"/>
<circle r="1.77749" transform="matrix(0.5 0.866025 0.866025 -0.5 299.957 763.063)" fill="#4BBFA9"/>
<circle r="1.77749" transform="matrix(0.5 0.866025 0.866025 -0.5 195.624 537.322)" fill="#4BBFA9"/>
<circle r="1.77749" transform="matrix(0.5 0.866025 0.866025 -0.5 206.881 556.821)" fill="#4BBFA9"/>
<circle r="1.77749" transform="matrix(0.5 0.866025 0.866025 -0.5 218.14 576.32)" fill="#4BBFA9"/>
<circle r="1.77749" transform="matrix(0.5 0.866025 0.866025 -0.5 229.396 595.816)" fill="#4BBFA9"/>
<circle r="1.77749" transform="matrix(0.5 0.866025 0.866025 -0.5 240.654 615.315)" fill="#4BBFA9"/>
<circle r="1.77749" transform="matrix(0.5 0.866025 0.866025 -0.5 251.911 634.815)" fill="#4BBFA9"/>
<circle r="1.77749" transform="matrix(0.5 0.866025 0.866025 -0.5 263.169 654.313)" fill="#4BBFA9"/>
<circle r="1.77749" transform="matrix(0.5 0.866025 0.866025 -0.5 274.426 673.812)" fill="#4BBFA9"/>
<circle r="1.77749" transform="matrix(0.5 0.866025 0.866025 -0.5 285.685 693.311)" fill="#4BBFA9"/>
<circle r="1.77749" transform="matrix(0.5 0.866025 0.866025 -0.5 296.941 712.807)" fill="#4BBFA9"/>
<circle r="1.77749" transform="matrix(0.5 0.866025 0.866025 -0.5 308.199 732.307)" fill="#4BBFA9"/>
<circle r="1.77749" transform="matrix(0.5 0.866025 0.866025 -0.5 319.456 751.806)" fill="#4BBFA9"/>
<circle r="1.77749" transform="matrix(0.5 0.866025 0.866025 -0.5 215.122 526.065)" fill="#4BBFA9"/>
<circle r="1.77749" transform="matrix(0.5 0.866025 0.866025 -0.5 226.38 545.563)" fill="#4BBFA9"/>
<circle r="1.77749" transform="matrix(0.5 0.866025 0.866025 -0.5 237.638 565.063)" fill="#4BBFA9"/>
<circle r="1.77749" transform="matrix(0.5 0.866025 0.866025 -0.5 248.893 584.559)" fill="#4BBFA9"/>
<circle r="1.77749" transform="matrix(0.5 0.866025 0.866025 -0.5 260.151 604.058)" fill="#4BBFA9"/>
<circle r="1.77749" transform="matrix(0.5 0.866025 0.866025 -0.5 271.41 623.557)" fill="#4BBFA9"/>
<circle r="1.77749" transform="matrix(0.5 0.866025 0.866025 -0.5 282.667 643.056)" fill="#4BBFA9"/>
<circle r="1.77749" transform="matrix(0.5 0.866025 0.866025 -0.5 293.925 662.554)" fill="#4BBFA9"/>
<circle r="1.77749" transform="matrix(0.5 0.866025 0.866025 -0.5 305.182 682.055)" fill="#4BBFA9"/>
<circle r="1.77749" transform="matrix(0.5 0.866025 0.866025 -0.5 316.438 701.55)" fill="#4BBFA9"/>
<circle r="1.77749" transform="matrix(0.5 0.866025 0.866025 -0.5 327.697 721.05)" fill="#4BBFA9"/>
<circle r="1.77749" transform="matrix(0.5 0.866025 0.866025 -0.5 338.954 740.548)" fill="#4BBFA9"/>
<circle r="1.77749" transform="matrix(0.5 0.866025 0.866025 -0.5 234.621 514.807)" fill="#4BBFA9"/>
<circle r="1.77749" transform="matrix(0.5 0.866025 0.866025 -0.5 245.878 534.306)" fill="#4BBFA9"/>
<circle r="1.77749" transform="matrix(0.5 0.866025 0.866025 -0.5 257.137 553.805)" fill="#4BBFA9"/>
<circle r="1.77749" transform="matrix(0.5 0.866025 0.866025 -0.5 268.392 573.301)" fill="#4BBFA9"/>
<circle r="1.77749" transform="matrix(0.5 0.866025 0.866025 -0.5 279.65 592.8)" fill="#4BBFA9"/>
<circle r="1.77749" transform="matrix(0.5 0.866025 0.866025 -0.5 290.908 612.3)" fill="#4BBFA9"/>
<circle r="1.77749" transform="matrix(0.5 0.866025 0.866025 -0.5 302.166 631.798)" fill="#4BBFA9"/>
<circle r="1.77749" transform="matrix(0.5 0.866025 0.866025 -0.5 313.423 651.297)" fill="#4BBFA9"/>
<circle r="1.77749" transform="matrix(0.5 0.866025 0.866025 -0.5 324.682 670.797)" fill="#4BBFA9"/>
<circle r="1.77749" transform="matrix(0.5 0.866025 0.866025 -0.5 335.937 690.292)" fill="#4BBFA9"/>
<circle r="1.77749" transform="matrix(0.5 0.866025 0.866025 -0.5 347.196 709.792)" fill="#4BBFA9"/>
<circle r="1.77749" transform="matrix(0.5 0.866025 0.866025 -0.5 358.453 729.291)" fill="#4BBFA9"/>
<circle r="1.77749" transform="matrix(0.5 0.866025 0.866025 -0.5 254.12 503.55)" fill="#4BBFA9"/>
<circle r="1.77749" transform="matrix(0.5 0.866025 0.866025 -0.5 265.377 523.048)" fill="#4BBFA9"/>
<circle r="1.77749" transform="matrix(0.5 0.866025 0.866025 -0.5 276.636 542.548)" fill="#4BBFA9"/>
<circle r="1.77749" transform="matrix(0.5 0.866025 0.866025 -0.5 287.891 562.043)" fill="#4BBFA9"/>
<circle r="1.77749" transform="matrix(0.5 0.866025 0.866025 -0.5 299.149 581.542)" fill="#4BBFA9"/>
<circle r="1.77749" transform="matrix(0.5 0.866025 0.866025 -0.5 310.407 601.042)" fill="#4BBFA9"/>
<circle r="1.77749" transform="matrix(0.5 0.866025 0.866025 -0.5 321.664 620.541)" fill="#4BBFA9"/>
<circle r="1.77749" transform="matrix(0.5 0.866025 0.866025 -0.5 332.922 640.039)" fill="#4BBFA9"/>
<circle r="1.77749" transform="matrix(0.5 0.866025 0.866025 -0.5 344.181 659.539)" fill="#4BBFA9"/>
<circle r="1.77749" transform="matrix(0.5 0.866025 0.866025 -0.5 355.436 679.035)" fill="#4BBFA9"/>
<circle r="1.77749" transform="matrix(0.5 0.866025 0.866025 -0.5 366.694 698.535)" fill="#4BBFA9"/>
<circle r="1.77749" transform="matrix(0.5 0.866025 0.866025 -0.5 377.952 718.033)" fill="#4BBFA9"/>
<circle r="1.77749" transform="matrix(0.5 0.866025 0.866025 -0.5 273.618 492.292)" fill="#4BBFA9"/>
<circle r="1.77749" transform="matrix(0.5 0.866025 0.866025 -0.5 284.875 511.791)" fill="#4BBFA9"/>
<circle r="1.77749" transform="matrix(0.5 0.866025 0.866025 -0.5 296.133 531.291)" fill="#4BBFA9"/>
<circle r="1.77749" transform="matrix(0.5 0.866025 0.866025 -0.5 307.389 550.786)" fill="#4BBFA9"/>
<circle r="1.77749" transform="matrix(0.5 0.866025 0.866025 -0.5 318.647 570.286)" fill="#4BBFA9"/>
<circle r="1.77749" transform="matrix(0.5 0.866025 0.866025 -0.5 329.905 589.785)" fill="#4BBFA9"/>
<circle r="1.77749" transform="matrix(0.5 0.866025 0.866025 -0.5 341.162 609.283)" fill="#4BBFA9"/>
<circle r="1.77749" transform="matrix(0.5 0.866025 0.866025 -0.5 352.42 628.782)" fill="#4BBFA9"/>
<circle r="1.77749" transform="matrix(0.5 0.866025 0.866025 -0.5 363.678 648.282)" fill="#4BBFA9"/>
<circle r="1.77749" transform="matrix(0.5 0.866025 0.866025 -0.5 374.934 667.778)" fill="#4BBFA9"/>
<circle r="1.77749" transform="matrix(0.5 0.866025 0.866025 -0.5 386.193 687.277)" fill="#4BBFA9"/>
<circle r="1.77749" transform="matrix(0.5 0.866025 0.866025 -0.5 397.45 706.776)" fill="#4BBFA9"/>
<circle r="1.77749" transform="matrix(0.5 0.866025 0.866025 -0.5 293.117 481.035)" fill="#4BBFA9"/>
<circle r="1.77749" transform="matrix(0.5 0.866025 0.866025 -0.5 304.374 500.533)" fill="#4BBFA9"/>
<circle r="1.77749" transform="matrix(0.5 0.866025 0.866025 -0.5 315.632 520.033)" fill="#4BBFA9"/>
<circle r="1.77749" transform="matrix(0.5 0.866025 0.866025 -0.5 326.888 539.529)" fill="#4BBFA9"/>
<circle r="1.77749" transform="matrix(0.5 0.866025 0.866025 -0.5 338.146 559.028)" fill="#4BBFA9"/>
<circle r="1.77749" transform="matrix(0.5 0.866025 0.866025 -0.5 349.404 578.527)" fill="#4BBFA9"/>
<circle r="1.77749" transform="matrix(0.5 0.866025 0.866025 -0.5 360.661 598.026)" fill="#4BBFA9"/>
<circle r="1.77749" transform="matrix(0.5 0.866025 0.866025 -0.5 371.919 617.524)" fill="#4BBFA9"/>
<circle r="1.77749" transform="matrix(0.5 0.866025 0.866025 -0.5 383.177 637.024)" fill="#4BBFA9"/>
<circle r="1.77749" transform="matrix(0.5 0.866025 0.866025 -0.5 394.433 656.52)" fill="#4BBFA9"/>
<circle r="1.77749" transform="matrix(0.5 0.866025 0.866025 -0.5 405.691 676.02)" fill="#4BBFA9"/>
<circle r="1.77749" transform="matrix(0.5 0.866025 0.866025 -0.5 416.949 695.518)" fill="#4BBFA9"/>
<circle r="1.77749" transform="matrix(0.5 0.866025 0.866025 -0.5 312.615 469.777)" fill="#4BBFA9"/>
<circle r="1.77749" transform="matrix(0.5 0.866025 0.866025 -0.5 323.872 489.276)" fill="#4BBFA9"/>
<circle r="1.77749" transform="matrix(0.5 0.866025 0.866025 -0.5 335.131 508.775)" fill="#4BBFA9"/>
<circle r="1.77749" transform="matrix(0.5 0.866025 0.866025 -0.5 346.387 528.271)" fill="#4BBFA9"/>
<circle r="1.77749" transform="matrix(0.5 0.866025 0.866025 -0.5 357.645 547.77)" fill="#4BBFA9"/>
<circle r="1.77749" transform="matrix(0.5 0.866025 0.866025 -0.5 368.902 567.27)" fill="#4BBFA9"/>
<circle r="1.77749" transform="matrix(0.5 0.866025 0.866025 -0.5 380.16 586.768)" fill="#4BBFA9"/>
<circle r="1.77749" transform="matrix(0.5 0.866025 0.866025 -0.5 391.417 606.267)" fill="#4BBFA9"/>
<circle r="1.77749" transform="matrix(0.5 0.866025 0.866025 -0.5 402.676 625.766)" fill="#4BBFA9"/>
<circle r="1.77749" transform="matrix(0.5 0.866025 0.866025 -0.5 413.932 645.262)" fill="#4BBFA9"/>
<circle r="1.77749" transform="matrix(0.5 0.866025 0.866025 -0.5 425.189 664.762)" fill="#4BBFA9"/>
<circle r="1.77749" transform="matrix(0.5 0.866025 0.866025 -0.5 436.447 684.261)" fill="#4BBFA9"/>
<circle r="1.77749" transform="matrix(0.5 0.866025 0.866025 -0.5 332.113 458.52)" fill="#4BBFA9"/>
<circle r="1.77749" transform="matrix(0.5 0.866025 0.866025 -0.5 343.371 478.018)" fill="#4BBFA9"/>
<circle r="1.77749" transform="matrix(0.5 0.866025 0.866025 -0.5 354.629 497.518)" fill="#4BBFA9"/>
<circle r="1.77749" transform="matrix(0.5 0.866025 0.866025 -0.5 365.885 517.014)" fill="#4BBFA9"/>
<circle r="1.77749" transform="matrix(0.5 0.866025 0.866025 -0.5 377.142 536.513)" fill="#4BBFA9"/>
<circle r="1.77749" transform="matrix(0.5 0.866025 0.866025 -0.5 388.401 556.012)" fill="#4BBFA9"/>
<circle r="1.77749" transform="matrix(0.5 0.866025 0.866025 -0.5 399.658 575.511)" fill="#4BBFA9"/>
<circle r="1.77749" transform="matrix(0.5 0.866025 0.866025 -0.5 410.916 595.009)" fill="#4BBFA9"/>
<circle r="1.77749" transform="matrix(0.5 0.866025 0.866025 -0.5 422.174 614.51)" fill="#4BBFA9"/>
<circle r="1.77749" transform="matrix(0.5 0.866025 0.866025 -0.5 433.43 634.005)" fill="#4BBFA9"/>
<circle r="1.77749" transform="matrix(0.5 0.866025 0.866025 -0.5 444.688 653.505)" fill="#4BBFA9"/>
<circle r="1.77749" transform="matrix(0.5 0.866025 0.866025 -0.5 455.946 673.004)" fill="#4BBFA9"/>
<circle r="1.77749" transform="matrix(0.5 0.866025 0.866025 -0.5 351.612 447.263)" fill="#4BBFA9"/>
<circle r="1.77749" transform="matrix(0.5 0.866025 0.866025 -0.5 362.87 466.761)" fill="#4BBFA9"/>
<circle r="1.77749" transform="matrix(0.5 0.866025 0.866025 -0.5 374.128 486.26)" fill="#4BBFA9"/>
<circle r="1.77749" transform="matrix(0.5 0.866025 0.866025 -0.5 385.384 505.756)" fill="#4BBFA9"/>
<circle r="1.77749" transform="matrix(0.5 0.866025 0.866025 -0.5 396.641 525.255)" fill="#4BBFA9"/>
<circle r="1.77749" transform="matrix(0.5 0.866025 0.866025 -0.5 407.899 544.755)" fill="#4BBFA9"/>
<circle r="1.77749" transform="matrix(0.5 0.866025 0.866025 -0.5 419.157 564.254)" fill="#4BBFA9"/>
<circle r="1.77749" transform="matrix(0.5 0.866025 0.866025 -0.5 430.414 583.752)" fill="#4BBFA9"/>
<circle r="1.77749" transform="matrix(0.5 0.866025 0.866025 -0.5 441.673 603.252)" fill="#4BBFA9"/>
<circle r="1.77749" transform="matrix(0.5 0.866025 0.866025 -0.5 452.929 622.748)" fill="#4BBFA9"/>
<circle r="1.77749" transform="matrix(0.5 0.866025 0.866025 -0.5 464.186 642.248)" fill="#4BBFA9"/>
<circle r="1.77749" transform="matrix(0.5 0.866025 0.866025 -0.5 475.444 661.746)" fill="#4BBFA9"/>
<circle r="1.77749" transform="matrix(0.5 0.866025 0.866025 -0.5 371.11 436.005)" fill="#4BBFA9"/>
<circle r="1.77749" transform="matrix(0.5 0.866025 0.866025 -0.5 382.368 455.504)" fill="#4BBFA9"/>
<circle r="1.77749" transform="matrix(0.5 0.866025 0.866025 -0.5 393.625 475.004)" fill="#4BBFA9"/>
<circle r="1.77749" transform="matrix(0.5 0.866025 0.866025 -0.5 404.881 494.499)" fill="#4BBFA9"/>
<circle r="1.77749" transform="matrix(0.5 0.866025 0.866025 -0.5 416.139 513.999)" fill="#4BBFA9"/>
<circle r="1.77749" transform="matrix(0.5 0.866025 0.866025 -0.5 427.398 533.498)" fill="#4BBFA9"/>
<circle r="1.77749" transform="matrix(0.5 0.866025 0.866025 -0.5 438.655 552.996)" fill="#4BBFA9"/>
<circle r="1.77749" transform="matrix(0.5 0.866025 0.866025 -0.5 449.912 572.495)" fill="#4BBFA9"/>
<circle r="1.77749" transform="matrix(0.5 0.866025 0.866025 -0.5 461.17 591.995)" fill="#4BBFA9"/>
<circle r="1.77749" transform="matrix(0.5 0.866025 0.866025 -0.5 472.426 611.491)" fill="#4BBFA9"/>
<circle r="1.77749" transform="matrix(0.5 0.866025 0.866025 -0.5 483.685 630.99)" fill="#4BBFA9"/>
<circle r="1.77749" transform="matrix(0.5 0.866025 0.866025 -0.5 494.943 650.489)" fill="#4BBFA9"/>
<circle r="1.77749" transform="matrix(0.5 0.866025 0.866025 -0.5 393.096 421.945)" fill="#4BBFA9"/>
<circle r="1.77749" transform="matrix(0.5 0.866025 0.866025 -0.5 404.354 441.444)" fill="#4BBFA9"/>
<circle r="1.77749" transform="matrix(0.5 0.866025 0.866025 -0.5 415.612 460.943)" fill="#4BBFA9"/>
<circle r="1.77749" transform="matrix(0.5 0.866025 0.866025 -0.5 426.87 480.443)" fill="#4BBFA9"/>
<circle r="1.77749" transform="matrix(0.5 0.866025 0.866025 -0.5 438.127 499.942)" fill="#4BBFA9"/>
<circle r="1.77749" transform="matrix(0.5 0.866025 0.866025 -0.5 449.383 519.437)" fill="#4BBFA9"/>
<circle r="1.77749" transform="matrix(0.5 0.866025 0.866025 -0.5 460.642 538.937)" fill="#4BBFA9"/>
<circle r="1.77749" transform="matrix(0.5 0.866025 0.866025 -0.5 471.899 558.435)" fill="#4BBFA9"/>
<circle r="1.77749" transform="matrix(0.5 0.866025 0.866025 -0.5 483.157 577.934)" fill="#4BBFA9"/>
<circle r="1.77749" transform="matrix(0.5 0.866025 0.866025 -0.5 494.414 597.434)" fill="#4BBFA9"/>
<circle r="1.77749" transform="matrix(0.5 0.866025 0.866025 -0.5 505.672 616.931)" fill="#4BBFA9"/>
<circle r="1.77749" transform="matrix(0.5 0.866025 0.866025 -0.5 516.929 636.429)" fill="#4BBFA9"/>
<circle r="1.77749" transform="matrix(0.5 0.866025 0.866025 -0.5 412.596 410.688)" fill="#4BBFA9"/>
<circle r="1.77749" transform="matrix(0.5 0.866025 0.866025 -0.5 423.853 430.187)" fill="#4BBFA9"/>
<circle r="1.77749" transform="matrix(0.5 0.866025 0.866025 -0.5 435.11 449.685)" fill="#4BBFA9"/>
<circle r="1.77749" transform="matrix(0.5 0.866025 0.866025 -0.5 446.369 469.185)" fill="#4BBFA9"/>
<circle r="1.77749" transform="matrix(0.5 0.866025 0.866025 -0.5 457.626 488.684)" fill="#4BBFA9"/>
<circle r="1.77749" transform="matrix(0.5 0.866025 0.866025 -0.5 468.882 508.18)" fill="#4BBFA9"/>
<circle r="1.77749" transform="matrix(0.5 0.866025 0.866025 -0.5 480.141 527.679)" fill="#4BBFA9"/>
<circle r="1.77749" transform="matrix(0.5 0.866025 0.866025 -0.5 491.398 547.178)" fill="#4BBFA9"/>
<circle r="1.77749" transform="matrix(0.5 0.866025 0.866025 -0.5 502.655 566.676)" fill="#4BBFA9"/>
<circle r="1.77749" transform="matrix(0.5 0.866025 0.866025 -0.5 513.913 586.176)" fill="#4BBFA9"/>
<circle r="1.77749" transform="matrix(0.5 0.866025 0.866025 -0.5 525.17 605.673)" fill="#4BBFA9"/>
<circle r="1.77749" transform="matrix(0.5 0.866025 0.866025 -0.5 536.428 625.172)" fill="#4BBFA9"/>
<circle r="1.77749" transform="matrix(0.5 0.866025 0.866025 -0.5 432.094 399.431)" fill="#4BBFA9"/>
<circle r="1.77749" transform="matrix(0.5 0.866025 0.866025 -0.5 443.351 418.929)" fill="#4BBFA9"/>
<circle r="1.77749" transform="matrix(0.5 0.866025 0.866025 -0.5 454.609 438.428)" fill="#4BBFA9"/>
<circle r="1.77749" transform="matrix(0.5 0.866025 0.866025 -0.5 465.868 457.927)" fill="#4BBFA9"/>
<circle r="1.77749" transform="matrix(0.5 0.866025 0.866025 -0.5 477.125 477.426)" fill="#4BBFA9"/>
<circle r="1.77749" transform="matrix(0.5 0.866025 0.866025 -0.5 488.381 496.922)" fill="#4BBFA9"/>
<circle r="1.77749" transform="matrix(0.5 0.866025 0.866025 -0.5 499.639 516.422)" fill="#4BBFA9"/>
<circle r="1.77749" transform="matrix(0.5 0.866025 0.866025 -0.5 510.896 535.92)" fill="#4BBFA9"/>
<circle r="1.77749" transform="matrix(0.5 0.866025 0.866025 -0.5 522.154 555.419)" fill="#4BBFA9"/>
<circle r="1.77749" transform="matrix(0.5 0.866025 0.866025 -0.5 533.412 574.918)" fill="#4BBFA9"/>
<circle r="1.77749" transform="matrix(0.5 0.866025 0.866025 -0.5 544.669 594.416)" fill="#4BBFA9"/>
<circle r="1.77749" transform="matrix(0.5 0.866025 0.866025 -0.5 555.926 613.914)" fill="#4BBFA9"/>
<circle r="1.77749" transform="matrix(0.5 0.866025 0.866025 -0.5 451.593 388.173)" fill="#4BBFA9"/>
<circle r="1.77749" transform="matrix(0.5 0.866025 0.866025 -0.5 462.85 407.672)" fill="#4BBFA9"/>
<circle r="1.77749" transform="matrix(0.5 0.866025 0.866025 -0.5 474.107 427.17)" fill="#4BBFA9"/>
<circle r="1.77749" transform="matrix(0.5 0.866025 0.866025 -0.5 485.365 446.67)" fill="#4BBFA9"/>
<circle r="1.77749" transform="matrix(0.5 0.866025 0.866025 -0.5 496.623 466.169)" fill="#4BBFA9"/>
<circle r="1.77749" transform="matrix(0.5 0.866025 0.866025 -0.5 507.879 485.665)" fill="#4BBFA9"/>
<circle r="1.77749" transform="matrix(0.5 0.866025 0.866025 -0.5 519.137 505.164)" fill="#4BBFA9"/>
<circle r="1.77749" transform="matrix(0.5 0.866025 0.866025 -0.5 530.395 524.663)" fill="#4BBFA9"/>
<circle r="1.77749" transform="matrix(0.5 0.866025 0.866025 -0.5 541.652 544.161)" fill="#4BBFA9"/>
<circle r="1.77749" transform="matrix(0.5 0.866025 0.866025 -0.5 552.91 563.661)" fill="#4BBFA9"/>
<circle r="1.77749" transform="matrix(0.5 0.866025 0.866025 -0.5 564.167 583.158)" fill="#4BBFA9"/>
<circle r="1.77749" transform="matrix(0.5 0.866025 0.866025 -0.5 575.425 602.657)" fill="#4BBFA9"/>
<circle r="1.77749" transform="matrix(0.5 0.866025 0.866025 -0.5 471.091 376.916)" fill="#4BBFA9"/>
<circle r="1.77749" transform="matrix(0.5 0.866025 0.866025 -0.5 482.349 396.414)" fill="#4BBFA9"/>
<circle r="1.77749" transform="matrix(0.5 0.866025 0.866025 -0.5 493.606 415.913)" fill="#4BBFA9"/>
<circle r="1.77749" transform="matrix(0.5 0.866025 0.866025 -0.5 504.864 435.412)" fill="#4BBFA9"/>
<circle r="1.77749" transform="matrix(0.5 0.866025 0.866025 -0.5 516.122 454.911)" fill="#4BBFA9"/>
<circle r="1.77749" transform="matrix(0.5 0.866025 0.866025 -0.5 527.378 474.407)" fill="#4BBFA9"/>
<circle r="1.77749" transform="matrix(0.5 0.866025 0.866025 -0.5 538.636 493.907)" fill="#4BBFA9"/>
<circle r="1.77749" transform="matrix(0.5 0.866025 0.866025 -0.5 549.893 513.405)" fill="#4BBFA9"/>
<circle r="1.77749" transform="matrix(0.5 0.866025 0.866025 -0.5 561.151 532.904)" fill="#4BBFA9"/>
<circle r="1.77749" transform="matrix(0.5 0.866025 0.866025 -0.5 572.409 552.404)" fill="#4BBFA9"/>
<circle r="1.77749" transform="matrix(0.5 0.866025 0.866025 -0.5 583.665 571.901)" fill="#4BBFA9"/>
<circle r="1.77749" transform="matrix(0.5 0.866025 0.866025 -0.5 594.923 591.4)" fill="#4BBFA9"/>
<circle r="1.77749" transform="matrix(0.5 0.866025 0.866025 -0.5 490.59 365.658)" fill="#4BBFA9"/>
<circle r="1.77749" transform="matrix(0.5 0.866025 0.866025 -0.5 501.847 385.157)" fill="#4BBFA9"/>
<circle r="1.77749" transform="matrix(0.5 0.866025 0.866025 -0.5 513.104 404.655)" fill="#4BBFA9"/>
<circle r="1.77749" transform="matrix(0.5 0.866025 0.866025 -0.5 524.362 424.155)" fill="#4BBFA9"/>
<circle r="1.77749" transform="matrix(0.5 0.866025 0.866025 -0.5 535.62 443.655)" fill="#4BBFA9"/>
<circle r="1.77749" transform="matrix(0.5 0.866025 0.866025 -0.5 546.875 463.15)" fill="#4BBFA9"/>
<circle r="1.77749" transform="matrix(0.5 0.866025 0.866025 -0.5 558.134 482.65)" fill="#4BBFA9"/>
<circle r="1.77749" transform="matrix(0.5 0.866025 0.866025 -0.5 569.392 502.148)" fill="#4BBFA9"/>
<circle r="1.77749" transform="matrix(0.5 0.866025 0.866025 -0.5 580.649 521.646)" fill="#4BBFA9"/>
<circle r="1.77749" transform="matrix(0.5 0.866025 0.866025 -0.5 591.907 541.147)" fill="#4BBFA9"/>
<circle r="1.77749" transform="matrix(0.5 0.866025 0.866025 -0.5 603.164 560.644)" fill="#4BBFA9"/>
<circle r="1.77749" transform="matrix(0.5 0.866025 0.866025 -0.5 614.422 580.142)" fill="#4BBFA9"/>
<circle r="1.77749" transform="matrix(0.5 0.866025 0.866025 -0.5 510.088 354.401)" fill="#4BBFA9"/>
<circle r="1.77749" transform="matrix(0.5 0.866025 0.866025 -0.5 521.346 373.9)" fill="#4BBFA9"/>
<circle r="1.77749" transform="matrix(0.5 0.866025 0.866025 -0.5 532.603 393.398)" fill="#4BBFA9"/>
<circle r="1.77749" transform="matrix(0.5 0.866025 0.866025 -0.5 543.861 412.898)" fill="#4BBFA9"/>
<circle r="1.77749" transform="matrix(0.5 0.866025 0.866025 -0.5 555.119 432.397)" fill="#4BBFA9"/>
<circle r="1.77749" transform="matrix(0.5 0.866025 0.866025 -0.5 566.374 451.893)" fill="#4BBFA9"/>
<circle r="1.77749" transform="matrix(0.5 0.866025 0.866025 -0.5 577.633 471.392)" fill="#4BBFA9"/>
<circle r="1.77749" transform="matrix(0.5 0.866025 0.866025 -0.5 588.89 490.891)" fill="#4BBFA9"/>
<circle r="1.77749" transform="matrix(0.5 0.866025 0.866025 -0.5 600.148 510.389)" fill="#4BBFA9"/>
<circle r="1.77749" transform="matrix(0.5 0.866025 0.866025 -0.5 611.406 529.889)" fill="#4BBFA9"/>
<circle r="1.77749" transform="matrix(0.5 0.866025 0.866025 -0.5 622.662 549.386)" fill="#4BBFA9"/>
<circle r="1.77749" transform="matrix(0.5 0.866025 0.866025 -0.5 633.92 568.884)" fill="#4BBFA9"/>
<circle r="1.77749" transform="matrix(0.5 0.866025 0.866025 -0.5 529.586 343.144)" fill="#4BBFA9"/>
<circle r="1.77749" transform="matrix(0.5 0.866025 0.866025 -0.5 540.844 362.642)" fill="#4BBFA9"/>
<circle r="1.77749" transform="matrix(0.5 0.866025 0.866025 -0.5 552.101 382.141)" fill="#4BBFA9"/>
<circle r="1.77749" transform="matrix(0.5 0.866025 0.866025 -0.5 563.36 401.64)" fill="#4BBFA9"/>
<circle r="1.77749" transform="matrix(0.5 0.866025 0.866025 -0.5 574.618 421.139)" fill="#4BBFA9"/>
<circle r="1.77749" transform="matrix(0.5 0.866025 0.866025 -0.5 585.873 440.635)" fill="#4BBFA9"/>
<circle r="1.77749" transform="matrix(0.5 0.866025 0.866025 -0.5 597.131 460.135)" fill="#4BBFA9"/>
<circle r="1.77749" transform="matrix(0.5 0.866025 0.866025 -0.5 608.389 479.633)" fill="#4BBFA9"/>
<circle r="1.77749" transform="matrix(0.5 0.866025 0.866025 -0.5 619.646 499.132)" fill="#4BBFA9"/>
<circle r="1.77749" transform="matrix(0.5 0.866025 0.866025 -0.5 630.905 518.631)" fill="#4BBFA9"/>
<circle r="1.77749" transform="matrix(0.5 0.866025 0.866025 -0.5 642.161 538.129)" fill="#4BBFA9"/>
<circle r="1.77749" transform="matrix(0.5 0.866025 0.866025 -0.5 653.419 557.627)" fill="#4BBFA9"/>
<circle r="1.77749" transform="matrix(0.5 0.866025 0.866025 -0.5 549.085 331.886)" fill="#4BBFA9"/>
<circle r="1.77749" transform="matrix(0.5 0.866025 0.866025 -0.5 560.343 351.385)" fill="#4BBFA9"/>
<circle r="1.77749" transform="matrix(0.5 0.866025 0.866025 -0.5 571.6 370.883)" fill="#4BBFA9"/>
<circle r="1.77749" transform="matrix(0.5 0.866025 0.866025 -0.5 582.857 390.383)" fill="#4BBFA9"/>
<circle r="1.77749" transform="matrix(0.5 0.866025 0.866025 -0.5 594.115 409.882)" fill="#4BBFA9"/>
<circle r="1.77749" transform="matrix(0.5 0.866025 0.866025 -0.5 605.371 429.378)" fill="#4BBFA9"/>
<circle r="1.77749" transform="matrix(0.5 0.866025 0.866025 -0.5 616.63 448.877)" fill="#4BBFA9"/>
<circle r="1.77749" transform="matrix(0.5 0.866025 0.866025 -0.5 627.887 468.376)" fill="#4BBFA9"/>
<circle r="1.77749" transform="matrix(0.5 0.866025 0.866025 -0.5 639.145 487.874)" fill="#4BBFA9"/>
<circle r="1.77749" transform="matrix(0.5 0.866025 0.866025 -0.5 650.402 507.374)" fill="#4BBFA9"/>
<circle r="1.77749" transform="matrix(0.5 0.866025 0.866025 -0.5 568.583 320.629)" fill="#4BBFA9"/>
<circle r="1.77749" transform="matrix(0.5 0.866025 0.866025 -0.5 579.841 340.127)" fill="#4BBFA9"/>
<circle r="1.77749" transform="matrix(0.5 0.866025 0.866025 -0.5 591.099 359.626)" fill="#4BBFA9"/>
<circle r="1.77749" transform="matrix(0.5 0.866025 0.866025 -0.5 602.356 379.125)" fill="#4BBFA9"/>
<circle r="1.77749" transform="matrix(0.5 0.866025 0.866025 -0.5 613.614 398.624)" fill="#4BBFA9"/>
<circle r="1.77749" transform="matrix(0.5 0.866025 0.866025 -0.5 624.87 418.12)" fill="#4BBFA9"/>
<circle r="1.77749" transform="matrix(0.5 0.866025 0.866025 -0.5 636.128 437.62)" fill="#4BBFA9"/>
<circle r="1.77749" transform="matrix(0.5 0.866025 0.866025 -0.5 647.386 457.118)" fill="#4BBFA9"/>
<circle r="1.77749" transform="matrix(0.5 0.866025 0.866025 -0.5 588.082 309.371)" fill="#4BBFA9"/>
<circle r="1.77749" transform="matrix(0.5 0.866025 0.866025 -0.5 599.339 328.87)" fill="#4BBFA9"/>
<circle r="1.77749" transform="matrix(0.5 0.866025 0.866025 -0.5 610.597 348.368)" fill="#4BBFA9"/>
<circle r="1.77749" transform="matrix(0.5 0.866025 0.866025 -0.5 621.855 367.867)" fill="#4BBFA9"/>
<circle r="1.77749" transform="matrix(0.5 0.866025 0.866025 -0.5 633.113 387.367)" fill="#4BBFA9"/>
<circle r="1.77749" transform="matrix(0.5 0.866025 0.866025 -0.5 644.369 406.862)" fill="#4BBFA9"/>
<circle r="1.77749" transform="matrix(0.5 0.866025 0.866025 -0.5 655.627 426.362)" fill="#4BBFA9"/>
<circle r="1.77749" transform="matrix(0.5 0.866025 0.866025 -0.5 435.639 7.41263)" fill="#4BBFA9"/>
<circle r="1.77749" transform="matrix(0.5 0.866025 0.866025 -0.5 446.897 26.9117)" fill="#4BBFA9"/>
<circle r="1.77749" transform="matrix(0.5 0.866025 0.866025 -0.5 458.155 46.4112)" fill="#4BBFA9"/>
<circle r="1.77749" transform="matrix(0.5 0.866025 0.866025 -0.5 469.412 65.9097)" fill="#4BBFA9"/>
<circle r="1.77749" transform="matrix(0.5 0.866025 0.866025 -0.5 480.67 85.4082)" fill="#4BBFA9"/>
<circle r="1.77749" transform="matrix(0.5 0.866025 0.866025 -0.5 491.928 104.908)" fill="#4BBFA9"/>
<circle r="1.77749" transform="matrix(0.5 0.866025 0.866025 -0.5 503.184 124.404)" fill="#4BBFA9"/>
<circle r="1.77749" transform="matrix(0.5 0.866025 0.866025 -0.5 514.442 143.904)" fill="#4BBFA9"/>
<circle r="1.77749" transform="matrix(0.5 0.866025 0.866025 -0.5 525.7 163.402)" fill="#4BBFA9"/>
<circle r="1.77749" transform="matrix(0.5 0.866025 0.866025 -0.5 466.396 15.6539)" fill="#4BBFA9"/>
<circle r="1.77749" transform="matrix(0.5 0.866025 0.866025 -0.5 477.653 35.1537)" fill="#4BBFA9"/>
<circle r="1.77749" transform="matrix(0.5 0.866025 0.866025 -0.5 488.911 54.6523)" fill="#4BBFA9"/>
<circle r="1.77749" transform="matrix(0.5 0.866025 0.866025 -0.5 500.168 74.1507)" fill="#4BBFA9"/>
<circle r="1.77749" transform="matrix(0.5 0.866025 0.866025 -0.5 511.427 93.6503)" fill="#4BBFA9"/>
<circle r="1.77749" transform="matrix(0.5 0.866025 0.866025 -0.5 522.683 113.146)" fill="#4BBFA9"/>
<circle r="1.77749" transform="matrix(0.5 0.866025 0.866025 -0.5 533.941 132.646)" fill="#4BBFA9"/>
<circle r="1.77749" transform="matrix(0.5 0.866025 0.866025 -0.5 545.198 152.145)" fill="#4BBFA9"/>
<circle r="1.77749" transform="matrix(0.5 0.866025 0.866025 -0.5 485.893 4.39707)" fill="#4BBFA9"/>
<circle r="1.77749" transform="matrix(0.5 0.866025 0.866025 -0.5 497.152 23.8963)" fill="#4BBFA9"/>
<circle r="1.77749" transform="matrix(0.5 0.866025 0.866025 -0.5 508.41 43.3947)" fill="#4BBFA9"/>
<circle r="1.77749" transform="matrix(0.5 0.866025 0.866025 -0.5 519.667 62.8933)" fill="#4BBFA9"/>
<circle r="1.77749" transform="matrix(0.5 0.866025 0.866025 -0.5 530.925 82.3935)" fill="#4BBFA9"/>
<circle r="1.77749" transform="matrix(0.5 0.866025 0.866025 -0.5 542.181 101.889)" fill="#4BBFA9"/>
<circle r="1.77749" transform="matrix(0.5 0.866025 0.866025 -0.5 553.439 121.389)" fill="#4BBFA9"/>
<circle r="1.77749" transform="matrix(0.5 0.866025 0.866025 -0.5 564.697 140.887)" fill="#4BBFA9"/>
<circle r="1.77749" transform="matrix(0.5 0.866025 0.866025 -0.5 516.65 12.6388)" fill="#4BBFA9"/>
<circle r="1.77749" transform="matrix(0.5 0.866025 0.866025 -0.5 527.908 32.1373)" fill="#4BBFA9"/>
<circle r="1.77749" transform="matrix(0.5 0.866025 0.866025 -0.5 539.165 51.6358)" fill="#4BBFA9"/>
<circle r="1.77749" transform="matrix(0.5 0.866025 0.866025 -0.5 550.424 71.1357)" fill="#4BBFA9"/>
<circle r="1.77749" transform="matrix(0.5 0.866025 0.866025 -0.5 561.68 90.6314)" fill="#4BBFA9"/>
<circle r="1.77749" transform="matrix(0.5 0.866025 0.866025 -0.5 572.938 110.131)" fill="#4BBFA9"/>
<circle r="1.77749" transform="matrix(0.5 0.866025 0.866025 -0.5 584.195 129.63)" fill="#4BBFA9"/>
<circle r="1.77749" transform="matrix(0.5 0.866025 0.866025 -0.5 536.149 1.38132)" fill="#4BBFA9"/>
<circle r="1.77749" transform="matrix(0.5 0.866025 0.866025 -0.5 547.406 20.8799)" fill="#4BBFA9"/>
<circle r="1.77749" transform="matrix(0.5 0.866025 0.866025 -0.5 558.664 40.3783)" fill="#4BBFA9"/>
<circle r="1.77749" transform="matrix(0.5 0.866025 0.866025 -0.5 569.923 59.8778)" fill="#4BBFA9"/>
<circle r="1.77749" transform="matrix(0.5 0.866025 0.866025 -0.5 581.179 79.3736)" fill="#4BBFA9"/>
<circle r="1.77749" transform="matrix(0.5 0.866025 0.866025 -0.5 592.436 98.8739)" fill="#4BBFA9"/>
<circle r="1.77749" transform="matrix(0.5 0.866025 0.866025 -0.5 603.694 118.372)" fill="#4BBFA9"/>
<circle r="1.77749" transform="matrix(0.5 0.866025 0.866025 -0.5 566.905 9.62235)" fill="#4BBFA9"/>
<circle r="1.77749" transform="matrix(0.5 0.866025 0.866025 -0.5 578.162 29.1209)" fill="#4BBFA9"/>
<circle r="1.77749" transform="matrix(0.5 0.866025 0.866025 -0.5 589.42 48.621)" fill="#4BBFA9"/>
<circle r="1.77749" transform="matrix(0.5 0.866025 0.866025 -0.5 600.676 68.1167)" fill="#4BBFA9"/>
<circle r="1.77749" transform="matrix(0.5 0.866025 0.866025 -0.5 611.935 87.6164)" fill="#4BBFA9"/>
<circle r="1.77749" transform="matrix(0.5 0.866025 0.866025 -0.5 623.192 107.115)" fill="#4BBFA9"/>
<circle r="1.77749" transform="matrix(0.5 0.866025 0.866025 -0.5 586.403 -1.6351)" fill="#4BBFA9"/>
<circle r="1.77749" transform="matrix(0.5 0.866025 0.866025 -0.5 597.661 17.8634)" fill="#4BBFA9"/>
<circle r="1.77749" transform="matrix(0.5 0.866025 0.866025 -0.5 608.919 37.3632)" fill="#4BBFA9"/>
<circle r="1.77749" transform="matrix(0.5 0.866025 0.866025 -0.5 620.175 56.8589)" fill="#4BBFA9"/>
<circle r="1.77749" transform="matrix(0.5 0.866025 0.866025 -0.5 631.433 76.3589)" fill="#4BBFA9"/>
<circle r="1.77749" transform="matrix(0.5 0.866025 0.866025 -0.5 642.691 95.8575)" fill="#4BBFA9"/>
<circle r="1.77749" transform="matrix(0.5 0.866025 0.866025 -0.5 617.16 6.60593)" fill="#4BBFA9"/>
<circle r="1.77749" transform="matrix(0.5 0.866025 0.866025 -0.5 628.418 26.1054)" fill="#4BBFA9"/>
<circle r="1.77749" transform="matrix(0.5 0.866025 0.866025 -0.5 639.674 45.6011)" fill="#4BBFA9"/>
<circle r="1.77749" transform="matrix(0.5 0.866025 0.866025 -0.5 650.932 65.1015)" fill="#4BBFA9"/>
<circle r="1.77749" transform="matrix(0.5 0.866025 0.866025 -0.5 647.916 14.8485)" fill="#4BBFA9"/>
<circle r="1.77749" transform="matrix(0.5 0.866025 0.866025 -0.5 540.036 181.123)" fill="#4BBFA9"/>
<circle r="1.77749" transform="matrix(0.5 0.866025 0.866025 -0.5 551.293 200.621)" fill="#4BBFA9"/>
<circle r="1.77749" transform="matrix(0.5 0.866025 0.866025 -0.5 562.552 220.121)" fill="#4BBFA9"/>
<circle r="1.77749" transform="matrix(0.5 0.866025 0.866025 -0.5 573.807 239.617)" fill="#4BBFA9"/>
<circle r="1.77749" transform="matrix(0.5 0.866025 0.866025 -0.5 585.065 259.116)" fill="#4BBFA9"/>
<circle r="1.77749" transform="matrix(0.5 0.866025 0.866025 -0.5 596.323 278.615)" fill="#4BBFA9"/>
<circle r="1.77749" transform="matrix(0.5 0.866025 0.866025 -0.5 607.581 298.114)" fill="#4BBFA9"/>
<circle r="1.77749" transform="matrix(0.5 0.866025 0.866025 -0.5 618.838 317.612)" fill="#4BBFA9"/>
<circle r="1.77749" transform="matrix(0.5 0.866025 0.866025 -0.5 630.097 337.112)" fill="#4BBFA9"/>
<circle r="1.77749" transform="matrix(0.5 0.866025 0.866025 -0.5 641.352 356.608)" fill="#4BBFA9"/>
<circle r="1.77749" transform="matrix(0.5 0.866025 0.866025 -0.5 652.611 376.108)" fill="#4BBFA9"/>
<circle r="1.77749" transform="matrix(0.5 0.866025 0.866025 -0.5 559.535 169.865)" fill="#4BBFA9"/>
<circle r="1.77749" transform="matrix(0.5 0.866025 0.866025 -0.5 570.792 189.364)" fill="#4BBFA9"/>
<circle r="1.77749" transform="matrix(0.5 0.866025 0.866025 -0.5 582.051 208.863)" fill="#4BBFA9"/>
<circle r="1.77749" transform="matrix(0.5 0.866025 0.866025 -0.5 593.307 228.359)" fill="#4BBFA9"/>
<circle r="1.77749" transform="matrix(0.5 0.866025 0.866025 -0.5 604.564 247.858)" fill="#4BBFA9"/>
<circle r="1.77749" transform="matrix(0.5 0.866025 0.866025 -0.5 615.822 267.358)" fill="#4BBFA9"/>
<circle r="1.77749" transform="matrix(0.5 0.866025 0.866025 -0.5 627.079 286.856)" fill="#4BBFA9"/>
<circle r="1.77749" transform="matrix(0.5 0.866025 0.866025 -0.5 638.337 306.355)" fill="#4BBFA9"/>
<circle r="1.77749" transform="matrix(0.5 0.866025 0.866025 -0.5 649.596 325.854)" fill="#4BBFA9"/>
<circle r="1.77749" transform="matrix(0.5 0.866025 0.866025 -0.5 579.033 158.608)" fill="#4BBFA9"/>
<circle r="1.77749" transform="matrix(0.5 0.866025 0.866025 -0.5 590.29 178.106)" fill="#4BBFA9"/>
<circle r="1.77749" transform="matrix(0.5 0.866025 0.866025 -0.5 601.548 197.606)" fill="#4BBFA9"/>
<circle r="1.77749" transform="matrix(0.5 0.866025 0.866025 -0.5 612.804 217.102)" fill="#4BBFA9"/>
<circle r="1.77749" transform="matrix(0.5 0.866025 0.866025 -0.5 624.062 236.601)" fill="#4BBFA9"/>
<circle r="1.77749" transform="matrix(0.5 0.866025 0.866025 -0.5 635.32 256.1)" fill="#4BBFA9"/>
<circle r="1.77749" transform="matrix(0.5 0.866025 0.866025 -0.5 646.578 275.599)" fill="#4BBFA9"/>
<circle r="1.77749" transform="matrix(0.5 0.866025 0.866025 -0.5 657.835 295.097)" fill="#4BBFA9"/>
<circle r="1.77749" transform="matrix(0.5 0.866025 0.866025 -0.5 598.532 147.35)" fill="#4BBFA9"/>
<circle r="1.77749" transform="matrix(0.5 0.866025 0.866025 -0.5 609.789 166.849)" fill="#4BBFA9"/>
<circle r="1.77749" transform="matrix(0.5 0.866025 0.866025 -0.5 621.047 186.349)" fill="#4BBFA9"/>
<circle r="1.77749" transform="matrix(0.5 0.866025 0.866025 -0.5 632.303 205.844)" fill="#4BBFA9"/>
<circle r="1.77749" transform="matrix(0.5 0.866025 0.866025 -0.5 643.561 225.343)" fill="#4BBFA9"/>
<circle r="1.77749" transform="matrix(0.5 0.866025 0.866025 -0.5 654.819 244.843)" fill="#4BBFA9"/>
<circle r="1.77749" transform="matrix(0.5 0.866025 0.866025 -0.5 618.03 136.093)" fill="#4BBFA9"/>
<circle r="1.77749" transform="matrix(0.5 0.866025 0.866025 -0.5 629.287 155.591)" fill="#4BBFA9"/>
<circle r="1.77749" transform="matrix(0.5 0.866025 0.866025 -0.5 640.546 175.091)" fill="#4BBFA9"/>
<circle r="1.77749" transform="matrix(0.5 0.866025 0.866025 -0.5 651.802 194.586)" fill="#4BBFA9"/>
<circle r="1.77749" transform="matrix(0.5 0.866025 0.866025 -0.5 637.529 124.835)" fill="#4BBFA9"/>
<circle r="1.77749" transform="matrix(0.5 0.866025 0.866025 -0.5 648.786 144.334)" fill="#4BBFA9"/>
<circle r="1.77749" transform="matrix(0.5 0.866025 0.866025 -0.5 657.027 113.578)" fill="#4BBFA9"/>
</g>
</g>
</svg>
