<svg width="880" height="611" viewBox="0 0 880 611" fill="none" xmlns="http://www.w3.org/2000/svg">
<g opacity="0.6">
<mask id="mask0" mask-type="alpha" maskUnits="userSpaceOnUse" x="0" y="0" width="880" height="611">
<path d="M648.086 141.307C219.85 47.8431 373.104 46.7589 189.698 4.43445C6.29179 -37.89 -19.9193 259.292 11.6835 489.526C43.2863 719.761 289.557 572.059 559.332 455.896C829.107 339.733 1076.32 234.771 648.086 141.307Z" fill="#C4C4C4"/>
</mask>
<g mask="url(#mask0)">
<circle r="2.2927" transform="matrix(1 0 0 -1 192.701 587.028)" fill="#164854"/>
<circle r="2.2927" transform="matrix(1 0 0 -1 221.742 587.028)" fill="#164854"/>
<circle r="2.2927" transform="matrix(1 0 0 -1 250.785 587.027)" fill="#164854"/>
<circle r="2.2927" transform="matrix(1 0 0 -1 279.822 587.027)" fill="#164854"/>
<circle r="2.2927" transform="matrix(1 0 0 -1 308.864 587.027)" fill="#164854"/>
<circle r="2.2927" transform="matrix(1 0 0 -1 337.906 587.028)" fill="#164854"/>
<circle r="2.2927" transform="matrix(1 0 0 -1 366.947 587.028)" fill="#164854"/>
<circle r="2.2927" transform="matrix(1 0 0 -1 395.988 587.028)" fill="#164854"/>
<circle r="2.2927" transform="matrix(1 0 0 -1 425.031 587.027)" fill="#164854"/>
<circle r="2.2927" transform="matrix(1 0 0 -1 454.068 587.027)" fill="#164854"/>
<circle r="2.29271" transform="matrix(1 0 0 -1 483.111 587.028)" fill="#164854"/>
<circle r="2.29271" transform="matrix(1 0 0 -1 512.151 587.028)" fill="#164854"/>
<circle r="2.2927" transform="matrix(1 0 0 -1 192.701 557.987)" fill="#164854"/>
<circle r="2.2927" transform="matrix(1 0 0 -1 221.742 557.987)" fill="#164854"/>
<circle r="2.2927" transform="matrix(1 0 0 -1 250.785 557.988)" fill="#164854"/>
<circle r="2.2927" transform="matrix(1 0 0 -1 279.822 557.988)" fill="#164854"/>
<circle r="2.2927" transform="matrix(1 0 0 -1 308.864 557.988)" fill="#164854"/>
<circle r="2.2927" transform="matrix(1 0 0 -1 337.906 557.987)" fill="#164854"/>
<circle r="2.2927" transform="matrix(1 0 0 -1 366.947 557.987)" fill="#164854"/>
<circle r="2.2927" transform="matrix(1 0 0 -1 395.988 557.987)" fill="#164854"/>
<circle r="2.2927" transform="matrix(1 0 0 -1 425.031 557.988)" fill="#164854"/>
<circle r="2.2927" transform="matrix(1 0 0 -1 454.068 557.988)" fill="#164854"/>
<circle r="2.29271" transform="matrix(1 0 0 -1 483.111 557.987)" fill="#164854"/>
<circle r="2.29271" transform="matrix(1 0 0 -1 512.151 557.987)" fill="#164854"/>
<circle r="2.2927" transform="matrix(1 0 0 -1 192.701 528.946)" fill="#164854"/>
<circle r="2.2927" transform="matrix(1 0 0 -1 221.742 528.946)" fill="#164854"/>
<circle r="2.2927" transform="matrix(1 0 0 -1 250.785 528.946)" fill="#164854"/>
<circle r="2.2927" transform="matrix(1 0 0 -1 279.822 528.946)" fill="#164854"/>
<circle r="2.2927" transform="matrix(1 0 0 -1 308.864 528.946)" fill="#164854"/>
<circle r="2.2927" transform="matrix(1 0 0 -1 337.906 528.946)" fill="#164854"/>
<circle r="2.2927" transform="matrix(1 0 0 -1 366.947 528.946)" fill="#164854"/>
<circle r="2.2927" transform="matrix(1 0 0 -1 395.988 528.946)" fill="#164854"/>
<circle r="2.2927" transform="matrix(1 0 0 -1 425.031 528.946)" fill="#164854"/>
<circle r="2.2927" transform="matrix(1 0 0 -1 454.068 528.946)" fill="#164854"/>
<circle r="2.29271" transform="matrix(1 0 0 -1 483.111 528.946)" fill="#164854"/>
<circle r="2.29271" transform="matrix(1 0 0 -1 512.151 528.946)" fill="#164854"/>
<circle r="2.2927" transform="matrix(1 0 0 -1 192.701 499.905)" fill="#164854"/>
<circle r="2.2927" transform="matrix(1 0 0 -1 221.742 499.905)" fill="#164854"/>
<circle r="2.2927" transform="matrix(1 0 0 -1 250.785 499.904)" fill="#164854"/>
<circle r="2.2927" transform="matrix(1 0 0 -1 279.822 499.904)" fill="#164854"/>
<circle r="2.2927" transform="matrix(1 0 0 -1 308.864 499.904)" fill="#164854"/>
<circle r="2.2927" transform="matrix(1 0 0 -1 337.906 499.905)" fill="#164854"/>
<circle r="2.2927" transform="matrix(1 0 0 -1 366.947 499.905)" fill="#164854"/>
<circle r="2.2927" transform="matrix(1 0 0 -1 395.988 499.905)" fill="#164854"/>
<circle r="2.2927" transform="matrix(1 0 0 -1 425.031 499.904)" fill="#164854"/>
<circle r="2.2927" transform="matrix(1 0 0 -1 454.068 499.904)" fill="#164854"/>
<circle r="2.29271" transform="matrix(1 0 0 -1 483.111 499.905)" fill="#164854"/>
<circle r="2.29271" transform="matrix(1 0 0 -1 512.151 499.905)" fill="#164854"/>
<circle r="2.2927" transform="matrix(1 0 0 -1 192.701 470.865)" fill="#164854"/>
<circle r="2.2927" transform="matrix(1 0 0 -1 221.742 470.865)" fill="#164854"/>
<circle r="2.2927" transform="matrix(1 0 0 -1 250.785 470.865)" fill="#164854"/>
<circle r="2.2927" transform="matrix(1 0 0 -1 279.822 470.865)" fill="#164854"/>
<circle r="2.2927" transform="matrix(1 0 0 -1 308.864 470.865)" fill="#164854"/>
<circle r="2.2927" transform="matrix(1 0 0 -1 337.906 470.865)" fill="#164854"/>
<circle r="2.2927" transform="matrix(1 0 0 -1 366.947 470.865)" fill="#164854"/>
<circle r="2.2927" transform="matrix(1 0 0 -1 395.988 470.865)" fill="#164854"/>
<circle r="2.2927" transform="matrix(1 0 0 -1 425.031 470.865)" fill="#164854"/>
<circle r="2.2927" transform="matrix(1 0 0 -1 454.068 470.865)" fill="#164854"/>
<circle r="2.29271" transform="matrix(1 0 0 -1 483.111 470.865)" fill="#164854"/>
<circle r="2.29271" transform="matrix(1 0 0 -1 512.151 470.865)" fill="#164854"/>
<circle r="2.2927" transform="matrix(1 0 0 -1 192.701 441.824)" fill="#164854"/>
<circle r="2.2927" transform="matrix(1 0 0 -1 221.742 441.824)" fill="#164854"/>
<circle r="2.2927" transform="matrix(1 0 0 -1 250.785 441.823)" fill="#164854"/>
<circle r="2.2927" transform="matrix(1 0 0 -1 279.822 441.823)" fill="#164854"/>
<circle r="2.2927" transform="matrix(1 0 0 -1 308.864 441.823)" fill="#164854"/>
<circle r="2.2927" transform="matrix(1 0 0 -1 337.906 441.824)" fill="#164854"/>
<circle r="2.2927" transform="matrix(1 0 0 -1 366.947 441.824)" fill="#164854"/>
<circle r="2.2927" transform="matrix(1 0 0 -1 395.988 441.824)" fill="#164854"/>
<circle r="2.2927" transform="matrix(1 0 0 -1 425.031 441.823)" fill="#164854"/>
<circle r="2.2927" transform="matrix(1 0 0 -1 454.068 441.823)" fill="#164854"/>
<circle r="2.29271" transform="matrix(1 0 0 -1 483.111 441.824)" fill="#164854"/>
<circle r="2.29271" transform="matrix(1 0 0 -1 512.151 441.824)" fill="#164854"/>
<circle r="2.2927" transform="matrix(1 0 0 -1 192.701 412.782)" fill="#164854"/>
<circle r="2.2927" transform="matrix(1 0 0 -1 221.742 412.782)" fill="#164854"/>
<circle r="2.2927" transform="matrix(1 0 0 -1 250.785 412.781)" fill="#164854"/>
<circle r="2.2927" transform="matrix(1 0 0 -1 279.822 412.781)" fill="#164854"/>
<circle r="2.2927" transform="matrix(1 0 0 -1 308.864 412.781)" fill="#164854"/>
<circle r="2.2927" transform="matrix(1 0 0 -1 337.906 412.782)" fill="#164854"/>
<circle r="2.2927" transform="matrix(1 0 0 -1 366.947 412.782)" fill="#164854"/>
<circle r="2.2927" transform="matrix(1 0 0 -1 395.988 412.782)" fill="#164854"/>
<circle r="2.2927" transform="matrix(1 0 0 -1 425.031 412.781)" fill="#164854"/>
<circle r="2.2927" transform="matrix(1 0 0 -1 454.068 412.781)" fill="#164854"/>
<circle r="2.29271" transform="matrix(1 0 0 -1 483.111 412.782)" fill="#164854"/>
<circle r="2.29271" transform="matrix(1 0 0 -1 512.151 412.782)" fill="#164854"/>
<circle r="2.2927" transform="matrix(1 0 0 -1 192.701 383.741)" fill="#164854"/>
<circle r="2.2927" transform="matrix(1 0 0 -1 221.742 383.741)" fill="#164854"/>
<circle r="2.2927" transform="matrix(1 0 0 -1 250.785 383.741)" fill="#164854"/>
<circle r="2.2927" transform="matrix(1 0 0 -1 279.822 383.741)" fill="#164854"/>
<circle r="2.2927" transform="matrix(1 0 0 -1 308.864 383.741)" fill="#164854"/>
<circle r="2.2927" transform="matrix(1 0 0 -1 337.906 383.741)" fill="#164854"/>
<circle r="2.2927" transform="matrix(1 0 0 -1 366.947 383.741)" fill="#164854"/>
<circle r="2.2927" transform="matrix(1 0 0 -1 395.988 383.741)" fill="#164854"/>
<circle r="2.2927" transform="matrix(1 0 0 -1 425.031 383.741)" fill="#164854"/>
<circle r="2.2927" transform="matrix(1 0 0 -1 454.068 383.741)" fill="#164854"/>
<circle r="2.29271" transform="matrix(1 0 0 -1 483.111 383.741)" fill="#164854"/>
<circle r="2.29271" transform="matrix(1 0 0 -1 512.151 383.741)" fill="#164854"/>
<circle r="2.2927" transform="matrix(1 0 0 -1 192.701 354.7)" fill="#164854"/>
<circle r="2.2927" transform="matrix(1 0 0 -1 221.742 354.7)" fill="#164854"/>
<circle r="2.2927" transform="matrix(1 0 0 -1 250.785 354.699)" fill="#164854"/>
<circle r="2.2927" transform="matrix(1 0 0 -1 279.822 354.699)" fill="#164854"/>
<circle r="2.2927" transform="matrix(1 0 0 -1 308.864 354.699)" fill="#164854"/>
<circle r="2.2927" transform="matrix(1 0 0 -1 337.906 354.7)" fill="#164854"/>
<circle r="2.2927" transform="matrix(1 0 0 -1 366.947 354.7)" fill="#164854"/>
<circle r="2.2927" transform="matrix(1 0 0 -1 395.988 354.7)" fill="#164854"/>
<circle r="2.2927" transform="matrix(1 0 0 -1 425.031 354.699)" fill="#164854"/>
<circle r="2.2927" transform="matrix(1 0 0 -1 454.068 354.699)" fill="#164854"/>
<circle r="2.29271" transform="matrix(1 0 0 -1 483.111 354.7)" fill="#164854"/>
<circle r="2.29271" transform="matrix(1 0 0 -1 512.151 354.7)" fill="#164854"/>
<circle r="2.2927" transform="matrix(1 0 0 -1 192.701 325.659)" fill="#164854"/>
<circle r="2.2927" transform="matrix(1 0 0 -1 221.742 325.659)" fill="#164854"/>
<circle r="2.2927" transform="matrix(1 0 0 -1 250.785 325.66)" fill="#164854"/>
<circle r="2.2927" transform="matrix(1 0 0 -1 279.822 325.66)" fill="#164854"/>
<circle r="2.2927" transform="matrix(1 0 0 -1 308.864 325.66)" fill="#164854"/>
<circle r="2.2927" transform="matrix(1 0 0 -1 337.906 325.659)" fill="#164854"/>
<circle r="2.2927" transform="matrix(1 0 0 -1 366.947 325.659)" fill="#164854"/>
<circle r="2.2927" transform="matrix(1 0 0 -1 395.988 325.659)" fill="#164854"/>
<circle r="2.2927" transform="matrix(1 0 0 -1 425.031 325.66)" fill="#164854"/>
<circle r="2.2927" transform="matrix(1 0 0 -1 454.068 325.66)" fill="#164854"/>
<circle r="2.29271" transform="matrix(1 0 0 -1 483.111 325.659)" fill="#164854"/>
<circle r="2.29271" transform="matrix(1 0 0 -1 512.151 325.659)" fill="#164854"/>
<circle r="2.2927" transform="matrix(1 0 0 -1 191.176 292.032)" fill="#164854"/>
<circle r="2.2927" transform="matrix(1 0 0 -1 220.217 292.032)" fill="#164854"/>
<circle r="2.2927" transform="matrix(1 0 0 -1 249.26 292.032)" fill="#164854"/>
<circle r="2.2927" transform="matrix(1 0 0 -1 278.296 292.032)" fill="#164854"/>
<circle r="2.2927" transform="matrix(1 0 0 -1 307.338 292.032)" fill="#164854"/>
<circle r="2.2927" transform="matrix(1 0 0 -1 336.381 292.032)" fill="#164854"/>
<circle r="2.2927" transform="matrix(1 0 0 -1 365.422 292.032)" fill="#164854"/>
<circle r="2.2927" transform="matrix(1 0 0 -1 394.463 292.032)" fill="#164854"/>
<circle r="2.2927" transform="matrix(1 0 0 -1 423.506 292.032)" fill="#164854"/>
<circle r="2.2927" transform="matrix(1 0 0 -1 452.542 292.032)" fill="#164854"/>
<circle r="2.29271" transform="matrix(1 0 0 -1 481.585 292.032)" fill="#164854"/>
<circle r="2.29271" transform="matrix(1 0 0 -1 510.626 292.032)" fill="#164854"/>
<circle r="2.2927" transform="matrix(1 0 0 -1 191.176 262.991)" fill="#164854"/>
<circle r="2.2927" transform="matrix(1 0 0 -1 220.217 262.991)" fill="#164854"/>
<circle r="2.2927" transform="matrix(1 0 0 -1 249.26 262.99)" fill="#164854"/>
<circle r="2.2927" transform="matrix(1 0 0 -1 278.296 262.99)" fill="#164854"/>
<circle r="2.2927" transform="matrix(1 0 0 -1 307.338 262.99)" fill="#164854"/>
<circle r="2.2927" transform="matrix(1 0 0 -1 336.381 262.991)" fill="#164854"/>
<circle r="2.2927" transform="matrix(1 0 0 -1 365.422 262.991)" fill="#164854"/>
<circle r="2.2927" transform="matrix(1 0 0 -1 394.463 262.991)" fill="#164854"/>
<circle r="2.2927" transform="matrix(1 0 0 -1 423.506 262.99)" fill="#164854"/>
<circle r="2.2927" transform="matrix(1 0 0 -1 452.542 262.99)" fill="#164854"/>
<circle r="2.29271" transform="matrix(1 0 0 -1 481.585 262.991)" fill="#164854"/>
<circle r="2.29271" transform="matrix(1 0 0 -1 510.626 262.991)" fill="#164854"/>
<circle r="2.2927" transform="matrix(1 0 0 -1 191.176 233.95)" fill="#164854"/>
<circle r="2.2927" transform="matrix(1 0 0 -1 220.217 233.95)" fill="#164854"/>
<circle r="2.2927" transform="matrix(1 0 0 -1 249.26 233.951)" fill="#164854"/>
<circle r="2.2927" transform="matrix(1 0 0 -1 278.296 233.951)" fill="#164854"/>
<circle r="2.2927" transform="matrix(1 0 0 -1 307.338 233.951)" fill="#164854"/>
<circle r="2.2927" transform="matrix(1 0 0 -1 336.381 233.95)" fill="#164854"/>
<circle r="2.2927" transform="matrix(1 0 0 -1 365.422 233.95)" fill="#164854"/>
<circle r="2.2927" transform="matrix(1 0 0 -1 394.463 233.95)" fill="#164854"/>
<circle r="2.2927" transform="matrix(1 0 0 -1 423.506 233.951)" fill="#164854"/>
<circle r="2.2927" transform="matrix(1 0 0 -1 452.542 233.951)" fill="#164854"/>
<circle r="2.29271" transform="matrix(1 0 0 -1 481.585 233.95)" fill="#164854"/>
<circle r="2.29271" transform="matrix(1 0 0 -1 510.626 233.95)" fill="#164854"/>
<circle r="2.2927" transform="matrix(1 0 0 -1 191.176 204.909)" fill="#164854"/>
<circle r="2.2927" transform="matrix(1 0 0 -1 220.217 204.909)" fill="#164854"/>
<circle r="2.2927" transform="matrix(1 0 0 -1 249.26 204.909)" fill="#164854"/>
<circle r="2.2927" transform="matrix(1 0 0 -1 278.296 204.909)" fill="#164854"/>
<circle r="2.2927" transform="matrix(1 0 0 -1 307.338 204.909)" fill="#164854"/>
<circle r="2.2927" transform="matrix(1 0 0 -1 336.381 204.909)" fill="#164854"/>
<circle r="2.2927" transform="matrix(1 0 0 -1 365.422 204.909)" fill="#164854"/>
<circle r="2.2927" transform="matrix(1 0 0 -1 394.463 204.909)" fill="#164854"/>
<circle r="2.2927" transform="matrix(1 0 0 -1 423.506 204.909)" fill="#164854"/>
<circle r="2.2927" transform="matrix(1 0 0 -1 452.542 204.909)" fill="#164854"/>
<circle r="2.29271" transform="matrix(1 0 0 -1 481.585 204.909)" fill="#164854"/>
<circle r="2.29271" transform="matrix(1 0 0 -1 510.626 204.909)" fill="#164854"/>
<circle r="2.2927" transform="matrix(1 0 0 -1 191.176 175.868)" fill="#164854"/>
<circle r="2.2927" transform="matrix(1 0 0 -1 220.217 175.868)" fill="#164854"/>
<circle r="2.2927" transform="matrix(1 0 0 -1 249.26 175.867)" fill="#164854"/>
<circle r="2.2927" transform="matrix(1 0 0 -1 278.296 175.867)" fill="#164854"/>
<circle r="2.2927" transform="matrix(1 0 0 -1 307.338 175.867)" fill="#164854"/>
<circle r="2.2927" transform="matrix(1 0 0 -1 336.381 175.868)" fill="#164854"/>
<circle r="2.2927" transform="matrix(1 0 0 -1 365.422 175.868)" fill="#164854"/>
<circle r="2.2927" transform="matrix(1 0 0 -1 394.463 175.868)" fill="#164854"/>
<circle r="2.2927" transform="matrix(1 0 0 -1 423.506 175.867)" fill="#164854"/>
<circle r="2.2927" transform="matrix(1 0 0 -1 452.542 175.867)" fill="#164854"/>
<circle r="2.29271" transform="matrix(1 0 0 -1 481.585 175.868)" fill="#164854"/>
<circle r="2.29271" transform="matrix(1 0 0 -1 510.626 175.868)" fill="#164854"/>
<circle r="2.2927" transform="matrix(1 0 0 -1 191.176 146.827)" fill="#164854"/>
<circle r="2.2927" transform="matrix(1 0 0 -1 220.217 146.827)" fill="#164854"/>
<circle r="2.2927" transform="matrix(1 0 0 -1 249.26 146.828)" fill="#164854"/>
<circle r="2.2927" transform="matrix(1 0 0 -1 278.296 146.828)" fill="#164854"/>
<circle r="2.2927" transform="matrix(1 0 0 -1 307.338 146.828)" fill="#164854"/>
<circle r="2.2927" transform="matrix(1 0 0 -1 336.381 146.827)" fill="#164854"/>
<circle r="2.2927" transform="matrix(1 0 0 -1 365.422 146.827)" fill="#164854"/>
<circle r="2.2927" transform="matrix(1 0 0 -1 394.463 146.827)" fill="#164854"/>
<circle r="2.2927" transform="matrix(1 0 0 -1 423.506 146.828)" fill="#164854"/>
<circle r="2.2927" transform="matrix(1 0 0 -1 452.542 146.828)" fill="#164854"/>
<circle r="2.29271" transform="matrix(1 0 0 -1 481.585 146.827)" fill="#164854"/>
<circle r="2.29271" transform="matrix(1 0 0 -1 510.626 146.827)" fill="#164854"/>
<circle r="2.2927" transform="matrix(1 0 0 -1 191.176 117.787)" fill="#164854"/>
<circle r="2.2927" transform="matrix(1 0 0 -1 220.217 117.787)" fill="#164854"/>
<circle r="2.2927" transform="matrix(1 0 0 -1 249.26 117.786)" fill="#164854"/>
<circle r="2.2927" transform="matrix(1 0 0 -1 278.296 117.786)" fill="#164854"/>
<circle r="2.2927" transform="matrix(1 0 0 -1 307.338 117.786)" fill="#164854"/>
<circle r="2.2927" transform="matrix(1 0 0 -1 336.381 117.787)" fill="#164854"/>
<circle r="2.2927" transform="matrix(1 0 0 -1 365.422 117.787)" fill="#164854"/>
<circle r="2.2927" transform="matrix(1 0 0 -1 394.463 117.787)" fill="#164854"/>
<circle r="2.2927" transform="matrix(1 0 0 -1 423.506 117.786)" fill="#164854"/>
<circle r="2.2927" transform="matrix(1 0 0 -1 452.542 117.786)" fill="#164854"/>
<circle r="2.29271" transform="matrix(1 0 0 -1 481.585 117.787)" fill="#164854"/>
<circle r="2.29271" transform="matrix(1 0 0 -1 510.626 117.787)" fill="#164854"/>
<circle r="2.2927" transform="matrix(1 0 0 -1 191.176 88.7464)" fill="#164854"/>
<circle r="2.2927" transform="matrix(1 0 0 -1 220.217 88.7464)" fill="#164854"/>
<circle r="2.2927" transform="matrix(1 0 0 -1 249.26 88.7444)" fill="#164854"/>
<circle r="2.2927" transform="matrix(1 0 0 -1 278.296 88.7444)" fill="#164854"/>
<circle r="2.2927" transform="matrix(1 0 0 -1 307.338 88.7444)" fill="#164854"/>
<circle r="2.2927" transform="matrix(1 0 0 -1 336.381 88.7464)" fill="#164854"/>
<circle r="2.2927" transform="matrix(1 0 0 -1 365.422 88.7464)" fill="#164854"/>
<circle r="2.2927" transform="matrix(1 0 0 -1 394.463 88.7464)" fill="#164854"/>
<circle r="2.2927" transform="matrix(1 0 0 -1 423.506 88.7444)" fill="#164854"/>
<circle r="2.2927" transform="matrix(1 0 0 -1 452.542 88.7444)" fill="#164854"/>
<circle r="2.29271" transform="matrix(1 0 0 -1 481.585 88.7464)" fill="#164854"/>
<circle r="2.29271" transform="matrix(1 0 0 -1 510.626 88.7464)" fill="#164854"/>
<circle r="2.2927" transform="matrix(1 0 0 -1 191.176 59.7053)" fill="#164854"/>
<circle r="2.2927" transform="matrix(1 0 0 -1 220.217 59.7053)" fill="#164854"/>
<circle r="2.2927" transform="matrix(1 0 0 -1 249.26 59.7053)" fill="#164854"/>
<circle r="2.2927" transform="matrix(1 0 0 -1 278.296 59.7053)" fill="#164854"/>
<circle r="2.2927" transform="matrix(1 0 0 -1 307.338 59.7053)" fill="#164854"/>
<circle r="2.2927" transform="matrix(1 0 0 -1 336.381 59.7053)" fill="#164854"/>
<circle r="2.2927" transform="matrix(1 0 0 -1 365.422 59.7053)" fill="#164854"/>
<circle r="2.2927" transform="matrix(1 0 0 -1 394.463 59.7053)" fill="#164854"/>
<circle r="2.2927" transform="matrix(1 0 0 -1 423.506 59.7053)" fill="#164854"/>
<circle r="2.2927" transform="matrix(1 0 0 -1 452.542 59.7053)" fill="#164854"/>
<circle r="2.29271" transform="matrix(1 0 0 -1 481.585 59.7053)" fill="#164854"/>
<circle r="2.29271" transform="matrix(1 0 0 -1 510.626 59.7053)" fill="#164854"/>
<circle r="2.2927" transform="matrix(1 0 0 -1 191.176 30.6643)" fill="#164854"/>
<circle r="2.2927" transform="matrix(1 0 0 -1 220.217 30.6643)" fill="#164854"/>
<circle r="2.2927" transform="matrix(1 0 0 -1 249.26 30.6633)" fill="#164854"/>
<circle r="2.2927" transform="matrix(1 0 0 -1 278.296 30.6633)" fill="#164854"/>
<circle r="2.2927" transform="matrix(1 0 0 -1 307.338 30.6633)" fill="#164854"/>
<circle r="2.2927" transform="matrix(1 0 0 -1 336.381 30.6643)" fill="#164854"/>
<circle r="2.2927" transform="matrix(1 0 0 -1 365.422 30.6643)" fill="#164854"/>
<circle r="2.2927" transform="matrix(1 0 0 -1 394.463 30.6643)" fill="#164854"/>
<circle r="2.2927" transform="matrix(1 0 0 -1 423.506 30.6633)" fill="#164854"/>
<circle r="2.2927" transform="matrix(1 0 0 -1 452.542 30.6633)" fill="#164854"/>
<circle r="2.29271" transform="matrix(1 0 0 -1 481.585 30.6643)" fill="#164854"/>
<circle r="2.29271" transform="matrix(1 0 0 -1 510.626 30.6643)" fill="#164854"/>
<circle r="2.2927" transform="matrix(1 0 0 -1 191.176 1.62331)" fill="#164854"/>
<circle r="2.2927" transform="matrix(1 0 0 -1 220.217 1.62331)" fill="#164854"/>
<circle r="2.2927" transform="matrix(1 0 0 -1 249.26 1.62429)" fill="#164854"/>
<circle r="2.2927" transform="matrix(1 0 0 -1 278.296 1.62429)" fill="#164854"/>
<circle r="2.2927" transform="matrix(1 0 0 -1 307.338 1.62429)" fill="#164854"/>
<circle r="2.2927" transform="matrix(1 0 0 -1 336.381 1.62331)" fill="#164854"/>
<circle r="2.2927" transform="matrix(1 0 0 -1 365.422 1.62331)" fill="#164854"/>
<circle r="2.2927" transform="matrix(1 0 0 -1 394.463 1.62331)" fill="#164854"/>
<circle r="2.2927" transform="matrix(1 0 0 -1 423.506 1.62429)" fill="#164854"/>
<circle r="2.2927" transform="matrix(1 0 0 -1 452.542 1.62429)" fill="#164854"/>
<circle r="2.29271" transform="matrix(1 0 0 -1 481.585 1.62331)" fill="#164854"/>
<circle r="2.29271" transform="matrix(1 0 0 -1 510.626 1.62331)" fill="#164854"/>
<circle r="2.2927" transform="matrix(1 0 0 -1 16.9309 288.977)" fill="#164854"/>
<circle r="2.2927" transform="matrix(1 0 0 -1 45.9719 288.977)" fill="#164854"/>
<circle r="2.2927" transform="matrix(1 0 0 -1 75.0149 288.977)" fill="#164854"/>
<circle r="2.2927" transform="matrix(1 0 0 -1 104.052 288.977)" fill="#164854"/>
<circle r="2.29271" transform="matrix(1 0 0 -1 133.095 288.977)" fill="#164854"/>
<circle r="2.29271" transform="matrix(1 0 0 -1 162.135 288.977)" fill="#164854"/>
<circle r="2.2927" transform="matrix(1 0 0 -1 16.9309 259.936)" fill="#164854"/>
<circle r="2.2927" transform="matrix(1 0 0 -1 45.9719 259.936)" fill="#164854"/>
<circle r="2.2927" transform="matrix(1 0 0 -1 75.0149 259.935)" fill="#164854"/>
<circle r="2.2927" transform="matrix(1 0 0 -1 104.052 259.935)" fill="#164854"/>
<circle r="2.29271" transform="matrix(1 0 0 -1 133.095 259.936)" fill="#164854"/>
<circle r="2.29271" transform="matrix(1 0 0 -1 162.135 259.936)" fill="#164854"/>
<circle r="2.2927" transform="matrix(1 0 0 -1 16.9309 230.895)" fill="#164854"/>
<circle r="2.2927" transform="matrix(1 0 0 -1 45.9719 230.895)" fill="#164854"/>
<circle r="2.2927" transform="matrix(1 0 0 -1 75.0149 230.896)" fill="#164854"/>
<circle r="2.2927" transform="matrix(1 0 0 -1 104.052 230.896)" fill="#164854"/>
<circle r="2.29271" transform="matrix(1 0 0 -1 133.095 230.895)" fill="#164854"/>
<circle r="2.29271" transform="matrix(1 0 0 -1 162.135 230.895)" fill="#164854"/>
<circle r="2.2927" transform="matrix(1 0 0 -1 16.9309 201.854)" fill="#164854"/>
<circle r="2.2927" transform="matrix(1 0 0 -1 45.9719 201.854)" fill="#164854"/>
<circle r="2.2927" transform="matrix(1 0 0 -1 75.0149 201.854)" fill="#164854"/>
<circle r="2.2927" transform="matrix(1 0 0 -1 104.052 201.854)" fill="#164854"/>
<circle r="2.29271" transform="matrix(1 0 0 -1 133.095 201.854)" fill="#164854"/>
<circle r="2.29271" transform="matrix(1 0 0 -1 162.135 201.854)" fill="#164854"/>
<circle r="2.2927" transform="matrix(1 0 0 -1 16.9309 172.813)" fill="#164854"/>
<circle r="2.2927" transform="matrix(1 0 0 -1 75.0149 172.812)" fill="#164854"/>
<circle r="2.2927" transform="matrix(1 0 0 -1 104.052 172.812)" fill="#164854"/>
<circle r="2.29271" transform="matrix(1 0 0 -1 133.095 172.813)" fill="#164854"/>
<circle r="2.29271" transform="matrix(1 0 0 -1 162.135 172.813)" fill="#164854"/>
<circle r="2.2927" transform="matrix(1 0 0 -1 16.9309 143.772)" fill="#164854"/>
<circle r="2.2927" transform="matrix(1 0 0 -1 45.9719 143.772)" fill="#164854"/>
<circle r="2.2927" transform="matrix(1 0 0 -1 75.0149 143.773)" fill="#164854"/>
<circle r="2.2927" transform="matrix(1 0 0 -1 104.052 143.773)" fill="#164854"/>
<circle r="2.29271" transform="matrix(1 0 0 -1 133.095 143.772)" fill="#164854"/>
<circle r="2.29271" transform="matrix(1 0 0 -1 162.135 143.772)" fill="#164854"/>
<circle r="2.2927" transform="matrix(1 0 0 -1 16.9309 114.732)" fill="#164854"/>
<circle r="2.2927" transform="matrix(1 0 0 -1 45.9719 114.732)" fill="#164854"/>
<circle r="2.2927" transform="matrix(1 0 0 -1 75.0149 114.731)" fill="#164854"/>
<circle r="2.2927" transform="matrix(1 0 0 -1 104.052 114.731)" fill="#164854"/>
<circle r="2.29271" transform="matrix(1 0 0 -1 133.095 114.732)" fill="#164854"/>
<circle r="2.29271" transform="matrix(1 0 0 -1 162.135 114.732)" fill="#164854"/>
<circle r="2.2927" transform="matrix(1 0 0 -1 16.9309 85.6907)" fill="#164854"/>
<circle r="2.2927" transform="matrix(1 0 0 -1 45.9719 85.6907)" fill="#164854"/>
<circle r="2.2927" transform="matrix(1 0 0 -1 75.0149 85.6887)" fill="#164854"/>
<circle r="2.2927" transform="matrix(1 0 0 -1 104.052 85.6887)" fill="#164854"/>
<circle r="2.29271" transform="matrix(1 0 0 -1 133.095 85.6907)" fill="#164854"/>
<circle r="2.29271" transform="matrix(1 0 0 -1 162.135 85.6907)" fill="#164854"/>
<circle r="2.2927" transform="matrix(1 0 0 -1 16.9309 56.6497)" fill="#164854"/>
<circle r="2.2927" transform="matrix(1 0 0 -1 45.9719 56.6497)" fill="#164854"/>
<circle r="2.2927" transform="matrix(1 0 0 -1 75.0149 56.6497)" fill="#164854"/>
<circle r="2.2927" transform="matrix(1 0 0 -1 104.052 56.6497)" fill="#164854"/>
<circle r="2.29271" transform="matrix(1 0 0 -1 133.095 56.6497)" fill="#164854"/>
<circle r="2.29271" transform="matrix(1 0 0 -1 162.135 56.6497)" fill="#164854"/>
<circle r="2.2927" transform="matrix(1 0 0 -1 16.9309 27.6087)" fill="#164854"/>
<circle r="2.2927" transform="matrix(1 0 0 -1 45.9719 27.6087)" fill="#164854"/>
<circle r="2.2927" transform="matrix(1 0 0 -1 75.0149 27.6077)" fill="#164854"/>
<circle r="2.2927" transform="matrix(1 0 0 -1 104.052 27.6077)" fill="#164854"/>
<circle r="2.29271" transform="matrix(1 0 0 -1 133.095 27.6087)" fill="#164854"/>
<circle r="2.29271" transform="matrix(1 0 0 -1 162.135 27.6087)" fill="#164854"/>
<circle r="2.2927" transform="matrix(1 0 0 -1 16.9309 -1.43235)" fill="#164854"/>
<circle r="2.2927" transform="matrix(1 0 0 -1 45.9719 -1.43235)" fill="#164854"/>
<circle r="2.2927" transform="matrix(1 0 0 -1 75.0149 -1.43138)" fill="#164854"/>
<circle r="2.2927" transform="matrix(1 0 0 -1 104.052 -1.43138)" fill="#164854"/>
<circle r="2.29271" transform="matrix(1 0 0 -1 133.095 -1.43235)" fill="#164854"/>
<circle r="2.29271" transform="matrix(1 0 0 -1 162.135 -1.43235)" fill="#164854"/>
<ellipse rx="2.29272" ry="2.2926" transform="matrix(1 0 0 -1 18.4563 608.424)" fill="#164854"/>
<ellipse rx="2.29269" ry="2.2926" transform="matrix(1 0 0 -1 47.4973 608.424)" fill="#164854"/>
<ellipse rx="2.29272" ry="2.2926" transform="matrix(1 0 0 -1 76.5403 608.424)" fill="#164854"/>
<ellipse rx="2.29269" ry="2.2926" transform="matrix(1 0 0 -1 105.577 608.424)" fill="#164854"/>
<ellipse rx="2.29269" ry="2.2926" transform="matrix(1 0 0 -1 134.62 608.424)" fill="#164854"/>
<ellipse rx="2.29272" ry="2.2926" transform="matrix(1 0 0 -1 163.661 608.424)" fill="#164854"/>
<circle r="2.2927" transform="matrix(1 0 0 -1 18.4563 579.383)" fill="#164854"/>
<circle r="2.2927" transform="matrix(1 0 0 -1 47.4973 579.383)" fill="#164854"/>
<circle r="2.2927" transform="matrix(1 0 0 -1 76.5403 579.382)" fill="#164854"/>
<circle r="2.2927" transform="matrix(1 0 0 -1 105.577 579.382)" fill="#164854"/>
<circle r="2.29271" transform="matrix(1 0 0 -1 134.62 579.383)" fill="#164854"/>
<circle r="2.29271" transform="matrix(1 0 0 -1 163.661 579.383)" fill="#164854"/>
<circle r="2.2927" transform="matrix(1 0 0 -1 18.4563 550.342)" fill="#164854"/>
<circle r="2.2927" transform="matrix(1 0 0 -1 47.4973 550.342)" fill="#164854"/>
<circle r="2.2927" transform="matrix(1 0 0 -1 76.5403 550.343)" fill="#164854"/>
<circle r="2.2927" transform="matrix(1 0 0 -1 105.577 550.343)" fill="#164854"/>
<circle r="2.29271" transform="matrix(1 0 0 -1 134.62 550.342)" fill="#164854"/>
<circle r="2.29271" transform="matrix(1 0 0 -1 163.661 550.342)" fill="#164854"/>
<ellipse rx="2.29272" ry="2.2926" transform="matrix(1 0 0 -1 18.4563 521.301)" fill="#164854"/>
<ellipse rx="2.29269" ry="2.2926" transform="matrix(1 0 0 -1 47.4973 521.301)" fill="#164854"/>
<circle r="2.2927" transform="matrix(1 0 0 -1 76.5403 521.301)" fill="#164854"/>
<circle r="2.2927" transform="matrix(1 0 0 -1 105.577 521.301)" fill="#164854"/>
<ellipse rx="2.29269" ry="2.2926" transform="matrix(1 0 0 -1 134.62 521.301)" fill="#164854"/>
<ellipse rx="2.29272" ry="2.2926" transform="matrix(1 0 0 -1 163.661 521.301)" fill="#164854"/>
<circle r="2.2927" transform="matrix(1 0 0 -1 18.4563 492.26)" fill="#164854"/>
<circle r="2.2927" transform="matrix(1 0 0 -1 47.4973 492.26)" fill="#164854"/>
<ellipse rx="2.29272" ry="2.2926" transform="matrix(1 0 0 -1 76.5403 492.259)" fill="#164854"/>
<ellipse rx="2.29269" ry="2.2926" transform="matrix(1 0 0 -1 105.577 492.259)" fill="#164854"/>
<circle r="2.29271" transform="matrix(1 0 0 -1 134.62 492.26)" fill="#164854"/>
<circle r="2.29271" transform="matrix(1 0 0 -1 163.661 492.26)" fill="#164854"/>
<circle r="2.2927" transform="matrix(1 0 0 -1 18.4563 463.219)" fill="#164854"/>
<circle r="2.2927" transform="matrix(1 0 0 -1 47.4973 463.219)" fill="#164854"/>
<circle r="2.2927" transform="matrix(1 0 0 -1 76.5403 463.22)" fill="#164854"/>
<circle r="2.2927" transform="matrix(1 0 0 -1 105.577 463.22)" fill="#164854"/>
<circle r="2.29271" transform="matrix(1 0 0 -1 134.62 463.219)" fill="#164854"/>
<circle r="2.29271" transform="matrix(1 0 0 -1 163.661 463.219)" fill="#164854"/>
<circle r="2.2927" transform="matrix(1 0 0 -1 18.4563 434.179)" fill="#164854"/>
<circle r="2.2927" transform="matrix(1 0 0 -1 47.4973 434.179)" fill="#164854"/>
<circle r="2.2927" transform="matrix(1 0 0 -1 76.5403 434.178)" fill="#164854"/>
<circle r="2.2927" transform="matrix(1 0 0 -1 105.577 434.178)" fill="#164854"/>
<circle r="2.29271" transform="matrix(1 0 0 -1 134.62 434.179)" fill="#164854"/>
<circle r="2.29271" transform="matrix(1 0 0 -1 163.661 434.179)" fill="#164854"/>
<circle r="2.2927" transform="matrix(1 0 0 -1 18.4563 405.138)" fill="#164854"/>
<circle r="2.2927" transform="matrix(1 0 0 -1 47.4973 405.138)" fill="#164854"/>
<circle r="2.2927" transform="matrix(1 0 0 -1 76.5403 405.136)" fill="#164854"/>
<circle r="2.2927" transform="matrix(1 0 0 -1 105.577 405.136)" fill="#164854"/>
<circle r="2.29271" transform="matrix(1 0 0 -1 134.62 405.138)" fill="#164854"/>
<circle r="2.29271" transform="matrix(1 0 0 -1 163.661 405.138)" fill="#164854"/>
<circle r="2.2927" transform="matrix(1 0 0 -1 18.4563 376.097)" fill="#164854"/>
<circle r="2.2927" transform="matrix(1 0 0 -1 47.4973 376.097)" fill="#164854"/>
<circle r="2.2927" transform="matrix(1 0 0 -1 76.5403 376.097)" fill="#164854"/>
<circle r="2.2927" transform="matrix(1 0 0 -1 105.577 376.097)" fill="#164854"/>
<circle r="2.29271" transform="matrix(1 0 0 -1 134.62 376.097)" fill="#164854"/>
<circle r="2.29271" transform="matrix(1 0 0 -1 163.661 376.097)" fill="#164854"/>
<circle r="2.2927" transform="matrix(1 0 0 -1 18.4563 347.056)" fill="#164854"/>
<circle r="2.2927" transform="matrix(1 0 0 -1 47.4973 347.056)" fill="#164854"/>
<circle r="2.2927" transform="matrix(1 0 0 -1 76.5403 347.055)" fill="#164854"/>
<circle r="2.2927" transform="matrix(1 0 0 -1 105.577 347.055)" fill="#164854"/>
<circle r="2.29271" transform="matrix(1 0 0 -1 134.62 347.056)" fill="#164854"/>
<circle r="2.29271" transform="matrix(1 0 0 -1 163.661 347.056)" fill="#164854"/>
<circle r="2.2927" transform="matrix(1 0 0 -1 18.4563 318.015)" fill="#164854"/>
<circle r="2.2927" transform="matrix(1 0 0 -1 47.4973 318.015)" fill="#164854"/>
<circle r="2.2927" transform="matrix(1 0 0 -1 76.5403 318.016)" fill="#164854"/>
<circle r="2.2927" transform="matrix(1 0 0 -1 105.577 318.016)" fill="#164854"/>
<circle r="2.29271" transform="matrix(1 0 0 -1 134.62 318.015)" fill="#164854"/>
<circle r="2.29271" transform="matrix(1 0 0 -1 163.661 318.015)" fill="#164854"/>
<circle r="2.2927" transform="matrix(1 0 0 -1 541.192 611.483)" fill="#164854"/>
<circle r="2.2927" transform="matrix(1 0 0 -1 570.233 611.483)" fill="#164854"/>
<circle r="2.2927" transform="matrix(1 0 0 -1 599.275 611.483)" fill="#164854"/>
<circle r="2.2927" transform="matrix(1 0 0 -1 628.312 611.483)" fill="#164854"/>
<circle r="2.2927" transform="matrix(1 0 0 -1 657.354 611.483)" fill="#164854"/>
<circle r="2.2927" transform="matrix(1 0 0 -1 686.396 611.483)" fill="#164854"/>
<circle r="2.2927" transform="matrix(1 0 0 -1 715.437 611.483)" fill="#164854"/>
<circle r="2.2927" transform="matrix(1 0 0 -1 744.478 611.483)" fill="#164854"/>
<circle r="2.2927" transform="matrix(1 0 0 -1 773.521 611.483)" fill="#164854"/>
<circle r="2.2927" transform="matrix(1 0 0 -1 802.558 611.483)" fill="#164854"/>
<circle r="2.29271" transform="matrix(1 0 0 -1 831.601 611.483)" fill="#164854"/>
<circle r="2.29271" transform="matrix(1 0 0 -1 860.642 611.483)" fill="#164854"/>
<circle r="2.2927" transform="matrix(1 0 0 -1 541.192 582.442)" fill="#164854"/>
<circle r="2.2927" transform="matrix(1 0 0 -1 570.233 582.442)" fill="#164854"/>
<circle r="2.2927" transform="matrix(1 0 0 -1 599.275 582.441)" fill="#164854"/>
<circle r="2.2927" transform="matrix(1 0 0 -1 628.312 582.441)" fill="#164854"/>
<circle r="2.2927" transform="matrix(1 0 0 -1 657.354 582.441)" fill="#164854"/>
<circle r="2.2927" transform="matrix(1 0 0 -1 686.396 582.442)" fill="#164854"/>
<circle r="2.2927" transform="matrix(1 0 0 -1 715.437 582.442)" fill="#164854"/>
<circle r="2.2927" transform="matrix(1 0 0 -1 744.478 582.442)" fill="#164854"/>
<circle r="2.2927" transform="matrix(1 0 0 -1 773.521 582.441)" fill="#164854"/>
<circle r="2.2927" transform="matrix(1 0 0 -1 802.558 582.441)" fill="#164854"/>
<circle r="2.29271" transform="matrix(1 0 0 -1 831.601 582.442)" fill="#164854"/>
<circle r="2.29271" transform="matrix(1 0 0 -1 860.642 582.442)" fill="#164854"/>
<circle r="2.2927" transform="matrix(1 0 0 -1 541.192 553.401)" fill="#164854"/>
<circle r="2.2927" transform="matrix(1 0 0 -1 570.233 553.401)" fill="#164854"/>
<circle r="2.2927" transform="matrix(1 0 0 -1 599.275 553.402)" fill="#164854"/>
<circle r="2.2927" transform="matrix(1 0 0 -1 628.312 553.402)" fill="#164854"/>
<circle r="2.2927" transform="matrix(1 0 0 -1 657.354 553.402)" fill="#164854"/>
<circle r="2.2927" transform="matrix(1 0 0 -1 686.396 553.401)" fill="#164854"/>
<circle r="2.2927" transform="matrix(1 0 0 -1 715.437 553.401)" fill="#164854"/>
<circle r="2.2927" transform="matrix(1 0 0 -1 744.478 553.401)" fill="#164854"/>
<circle r="2.2927" transform="matrix(1 0 0 -1 773.521 553.402)" fill="#164854"/>
<circle r="2.2927" transform="matrix(1 0 0 -1 802.558 553.402)" fill="#164854"/>
<circle r="2.29271" transform="matrix(1 0 0 -1 831.601 553.401)" fill="#164854"/>
<circle r="2.29271" transform="matrix(1 0 0 -1 860.642 553.401)" fill="#164854"/>
<circle r="2.2927" transform="matrix(1 0 0 -1 541.192 524.36)" fill="#164854"/>
<circle r="2.2927" transform="matrix(1 0 0 -1 570.233 524.36)" fill="#164854"/>
<circle r="2.2927" transform="matrix(1 0 0 -1 599.275 524.36)" fill="#164854"/>
<circle r="2.2927" transform="matrix(1 0 0 -1 628.312 524.36)" fill="#164854"/>
<circle r="2.2927" transform="matrix(1 0 0 -1 657.354 524.36)" fill="#164854"/>
<circle r="2.2927" transform="matrix(1 0 0 -1 686.396 524.36)" fill="#164854"/>
<circle r="2.2927" transform="matrix(1 0 0 -1 715.437 524.36)" fill="#164854"/>
<circle r="2.2927" transform="matrix(1 0 0 -1 744.478 524.36)" fill="#164854"/>
<circle r="2.2927" transform="matrix(1 0 0 -1 773.521 524.36)" fill="#164854"/>
<circle r="2.2927" transform="matrix(1 0 0 -1 802.558 524.36)" fill="#164854"/>
<circle r="2.29271" transform="matrix(1 0 0 -1 831.601 524.36)" fill="#164854"/>
<circle r="2.29271" transform="matrix(1 0 0 -1 860.642 524.36)" fill="#164854"/>
<circle r="2.2927" transform="matrix(1 0 0 -1 541.192 495.319)" fill="#164854"/>
<circle r="2.2927" transform="matrix(1 0 0 -1 570.233 495.319)" fill="#164854"/>
<circle r="2.2927" transform="matrix(1 0 0 -1 599.275 495.318)" fill="#164854"/>
<circle r="2.2927" transform="matrix(1 0 0 -1 628.312 495.318)" fill="#164854"/>
<circle r="2.2927" transform="matrix(1 0 0 -1 657.354 495.318)" fill="#164854"/>
<circle r="2.2927" transform="matrix(1 0 0 -1 686.396 495.319)" fill="#164854"/>
<circle r="2.2927" transform="matrix(1 0 0 -1 715.437 495.319)" fill="#164854"/>
<circle r="2.2927" transform="matrix(1 0 0 -1 744.478 495.319)" fill="#164854"/>
<circle r="2.2927" transform="matrix(1 0 0 -1 773.521 495.318)" fill="#164854"/>
<circle r="2.2927" transform="matrix(1 0 0 -1 802.558 495.318)" fill="#164854"/>
<circle r="2.29271" transform="matrix(1 0 0 -1 831.601 495.319)" fill="#164854"/>
<circle r="2.29271" transform="matrix(1 0 0 -1 860.642 495.319)" fill="#164854"/>
<circle r="2.2927" transform="matrix(1 0 0 -1 541.192 466.278)" fill="#164854"/>
<circle r="2.2927" transform="matrix(1 0 0 -1 570.233 466.278)" fill="#164854"/>
<circle r="2.2927" transform="matrix(1 0 0 -1 599.275 466.279)" fill="#164854"/>
<circle r="2.2927" transform="matrix(1 0 0 -1 628.312 466.279)" fill="#164854"/>
<circle r="2.2927" transform="matrix(1 0 0 -1 657.354 466.279)" fill="#164854"/>
<circle r="2.2927" transform="matrix(1 0 0 -1 686.396 466.278)" fill="#164854"/>
<circle r="2.2927" transform="matrix(1 0 0 -1 715.437 466.278)" fill="#164854"/>
<circle r="2.2927" transform="matrix(1 0 0 -1 744.478 466.278)" fill="#164854"/>
<circle r="2.2927" transform="matrix(1 0 0 -1 773.521 466.279)" fill="#164854"/>
<circle r="2.2927" transform="matrix(1 0 0 -1 802.558 466.279)" fill="#164854"/>
<circle r="2.29271" transform="matrix(1 0 0 -1 831.601 466.278)" fill="#164854"/>
<circle r="2.29271" transform="matrix(1 0 0 -1 860.642 466.278)" fill="#164854"/>
<circle r="2.2927" transform="matrix(1 0 0 -1 541.192 437.238)" fill="#164854"/>
<circle r="2.2927" transform="matrix(1 0 0 -1 570.233 437.238)" fill="#164854"/>
<circle r="2.2927" transform="matrix(1 0 0 -1 599.275 437.237)" fill="#164854"/>
<circle r="2.2927" transform="matrix(1 0 0 -1 628.312 437.237)" fill="#164854"/>
<circle r="2.2927" transform="matrix(1 0 0 -1 657.354 437.237)" fill="#164854"/>
<circle r="2.2927" transform="matrix(1 0 0 -1 686.396 437.238)" fill="#164854"/>
<circle r="2.2927" transform="matrix(1 0 0 -1 715.437 437.238)" fill="#164854"/>
<circle r="2.2927" transform="matrix(1 0 0 -1 744.478 437.238)" fill="#164854"/>
<circle r="2.2927" transform="matrix(1 0 0 -1 773.521 437.237)" fill="#164854"/>
<circle r="2.2927" transform="matrix(1 0 0 -1 802.558 437.237)" fill="#164854"/>
<circle r="2.29271" transform="matrix(1 0 0 -1 831.601 437.238)" fill="#164854"/>
<circle r="2.29271" transform="matrix(1 0 0 -1 860.642 437.238)" fill="#164854"/>
<circle r="2.2927" transform="matrix(1 0 0 -1 541.192 408.197)" fill="#164854"/>
<circle r="2.2927" transform="matrix(1 0 0 -1 570.233 408.197)" fill="#164854"/>
<circle r="2.2927" transform="matrix(1 0 0 -1 599.275 408.195)" fill="#164854"/>
<circle r="2.2927" transform="matrix(1 0 0 -1 628.312 408.195)" fill="#164854"/>
<circle r="2.2927" transform="matrix(1 0 0 -1 657.354 408.195)" fill="#164854"/>
<circle r="2.2927" transform="matrix(1 0 0 -1 686.396 408.197)" fill="#164854"/>
<circle r="2.2927" transform="matrix(1 0 0 -1 715.437 408.197)" fill="#164854"/>
<circle r="2.2927" transform="matrix(1 0 0 -1 744.478 408.197)" fill="#164854"/>
<circle r="2.2927" transform="matrix(1 0 0 -1 773.521 408.195)" fill="#164854"/>
<circle r="2.2927" transform="matrix(1 0 0 -1 802.558 408.195)" fill="#164854"/>
<circle r="2.29271" transform="matrix(1 0 0 -1 831.601 408.197)" fill="#164854"/>
<circle r="2.29271" transform="matrix(1 0 0 -1 860.642 408.197)" fill="#164854"/>
<circle r="2.2927" transform="matrix(1 0 0 -1 541.192 379.156)" fill="#164854"/>
<circle r="2.2927" transform="matrix(1 0 0 -1 570.233 379.156)" fill="#164854"/>
<circle r="2.2927" transform="matrix(1 0 0 -1 599.275 379.156)" fill="#164854"/>
<circle r="2.2927" transform="matrix(1 0 0 -1 628.312 379.156)" fill="#164854"/>
<circle r="2.2927" transform="matrix(1 0 0 -1 657.354 379.156)" fill="#164854"/>
<circle r="2.2927" transform="matrix(1 0 0 -1 686.396 379.156)" fill="#164854"/>
<circle r="2.2927" transform="matrix(1 0 0 -1 715.437 379.156)" fill="#164854"/>
<circle r="2.2927" transform="matrix(1 0 0 -1 744.478 379.156)" fill="#164854"/>
<circle r="2.2927" transform="matrix(1 0 0 -1 773.521 379.156)" fill="#164854"/>
<circle r="2.2927" transform="matrix(1 0 0 -1 802.558 379.156)" fill="#164854"/>
<circle r="2.29271" transform="matrix(1 0 0 -1 831.601 379.156)" fill="#164854"/>
<circle r="2.29271" transform="matrix(1 0 0 -1 860.642 379.156)" fill="#164854"/>
<circle r="2.2927" transform="matrix(1 0 0 -1 541.192 350.115)" fill="#164854"/>
<circle r="2.2927" transform="matrix(1 0 0 -1 570.233 350.115)" fill="#164854"/>
<circle r="2.2927" transform="matrix(1 0 0 -1 599.275 350.114)" fill="#164854"/>
<circle r="2.2927" transform="matrix(1 0 0 -1 628.312 350.114)" fill="#164854"/>
<circle r="2.2927" transform="matrix(1 0 0 -1 657.354 350.114)" fill="#164854"/>
<circle r="2.2927" transform="matrix(1 0 0 -1 686.396 350.115)" fill="#164854"/>
<circle r="2.2927" transform="matrix(1 0 0 -1 715.437 350.115)" fill="#164854"/>
<circle r="2.2927" transform="matrix(1 0 0 -1 744.478 350.115)" fill="#164854"/>
<circle r="2.2927" transform="matrix(1 0 0 -1 773.521 350.114)" fill="#164854"/>
<circle r="2.2927" transform="matrix(1 0 0 -1 802.558 350.114)" fill="#164854"/>
<circle r="2.29271" transform="matrix(1 0 0 -1 831.601 350.115)" fill="#164854"/>
<circle r="2.29271" transform="matrix(1 0 0 -1 860.642 350.115)" fill="#164854"/>
<circle r="2.2927" transform="matrix(1 0 0 -1 541.192 321.074)" fill="#164854"/>
<circle r="2.2927" transform="matrix(1 0 0 -1 570.233 321.074)" fill="#164854"/>
<circle r="2.2927" transform="matrix(1 0 0 -1 599.275 321.074)" fill="#164854"/>
<circle r="2.2927" transform="matrix(1 0 0 -1 628.312 321.074)" fill="#164854"/>
<circle r="2.2927" transform="matrix(1 0 0 -1 657.354 321.074)" fill="#164854"/>
<circle r="2.2927" transform="matrix(1 0 0 -1 686.396 321.074)" fill="#164854"/>
<circle r="2.2927" transform="matrix(1 0 0 -1 715.437 321.074)" fill="#164854"/>
<circle r="2.2927" transform="matrix(1 0 0 -1 744.478 321.074)" fill="#164854"/>
<circle r="2.2927" transform="matrix(1 0 0 -1 773.521 321.074)" fill="#164854"/>
<circle r="2.2927" transform="matrix(1 0 0 -1 802.558 321.074)" fill="#164854"/>
<circle r="2.29271" transform="matrix(1 0 0 -1 831.601 321.074)" fill="#164854"/>
<circle r="2.29271" transform="matrix(1 0 0 -1 860.642 321.074)" fill="#164854"/>
<circle r="2.2927" transform="matrix(1 0 0 -1 539.665 287.448)" fill="#164854"/>
<circle r="2.2927" transform="matrix(1 0 0 -1 568.707 287.447)" fill="#164854"/>
<circle r="2.2927" transform="matrix(1 0 0 -1 597.748 287.447)" fill="#164854"/>
<circle r="2.2927" transform="matrix(1 0 0 -1 626.791 287.448)" fill="#164854"/>
<circle r="2.2927" transform="matrix(1 0 0 -1 655.832 287.448)" fill="#164854"/>
<circle r="2.2927" transform="matrix(1 0 0 -1 684.869 287.448)" fill="#164854"/>
<circle r="2.2927" transform="matrix(1 0 0 -1 713.912 287.447)" fill="#164854"/>
<circle r="2.2927" transform="matrix(1 0 0 -1 742.953 287.447)" fill="#164854"/>
<circle r="2.2927" transform="matrix(1 0 0 -1 771.994 287.447)" fill="#164854"/>
<circle r="2.2927" transform="matrix(1 0 0 -1 801.037 287.448)" fill="#164854"/>
<circle r="2.29271" transform="matrix(1 0 0 -1 830.076 287.447)" fill="#164854"/>
<circle r="2.29271" transform="matrix(1 0 0 -1 859.117 287.447)" fill="#164854"/>
<circle r="2.2927" transform="matrix(1 0 0 -1 539.666 258.406)" fill="#164854"/>
<circle r="2.2927" transform="matrix(1 0 0 -1 568.707 258.406)" fill="#164854"/>
<circle r="2.2927" transform="matrix(1 0 0 -1 597.748 258.406)" fill="#164854"/>
<circle r="2.2927" transform="matrix(1 0 0 -1 626.791 258.406)" fill="#164854"/>
<circle r="2.2927" transform="matrix(1 0 0 -1 655.832 258.406)" fill="#164854"/>
<circle r="2.2927" transform="matrix(1 0 0 -1 684.869 258.406)" fill="#164854"/>
<circle r="2.2927" transform="matrix(1 0 0 -1 713.912 258.406)" fill="#164854"/>
<circle r="2.2927" transform="matrix(1 0 0 -1 742.953 258.406)" fill="#164854"/>
<circle r="2.2927" transform="matrix(1 0 0 -1 771.994 258.406)" fill="#164854"/>
<circle r="2.2927" transform="matrix(1 0 0 -1 801.037 258.406)" fill="#164854"/>
<circle r="2.29271" transform="matrix(1 0 0 -1 830.076 258.406)" fill="#164854"/>
<circle r="2.29271" transform="matrix(1 0 0 -1 859.117 258.406)" fill="#164854"/>
<circle r="2.2927" transform="matrix(1 0 0 -1 539.666 229.365)" fill="#164854"/>
<circle r="2.2927" transform="matrix(1 0 0 -1 568.707 229.365)" fill="#164854"/>
<circle r="2.2927" transform="matrix(1 0 0 -1 597.748 229.365)" fill="#164854"/>
<circle r="2.2927" transform="matrix(1 0 0 -1 626.791 229.364)" fill="#164854"/>
<circle r="2.2927" transform="matrix(1 0 0 -1 655.832 229.364)" fill="#164854"/>
<circle r="2.2927" transform="matrix(1 0 0 -1 684.869 229.364)" fill="#164854"/>
<circle r="2.2927" transform="matrix(1 0 0 -1 713.912 229.365)" fill="#164854"/>
<circle r="2.2927" transform="matrix(1 0 0 -1 742.953 229.365)" fill="#164854"/>
<circle r="2.2927" transform="matrix(1 0 0 -1 771.994 229.365)" fill="#164854"/>
<circle r="2.2927" transform="matrix(1 0 0 -1 801.037 229.364)" fill="#164854"/>
<circle r="2.29271" transform="matrix(1 0 0 -1 830.076 229.365)" fill="#164854"/>
<circle r="2.29271" transform="matrix(1 0 0 -1 859.117 229.365)" fill="#164854"/>
<circle r="2.2927" transform="matrix(1 0 0 -1 539.666 200.324)" fill="#164854"/>
<circle r="2.2927" transform="matrix(1 0 0 -1 568.707 200.324)" fill="#164854"/>
<circle r="2.2927" transform="matrix(1 0 0 -1 597.748 200.324)" fill="#164854"/>
<circle r="2.2927" transform="matrix(1 0 0 -1 626.791 200.324)" fill="#164854"/>
<circle r="2.2927" transform="matrix(1 0 0 -1 655.832 200.324)" fill="#164854"/>
<circle r="2.2927" transform="matrix(1 0 0 -1 684.869 200.324)" fill="#164854"/>
<circle r="2.2927" transform="matrix(1 0 0 -1 713.912 200.324)" fill="#164854"/>
<circle r="2.2927" transform="matrix(1 0 0 -1 742.953 200.324)" fill="#164854"/>
<circle r="2.2927" transform="matrix(1 0 0 -1 771.994 200.324)" fill="#164854"/>
<circle r="2.2927" transform="matrix(1 0 0 -1 801.037 200.324)" fill="#164854"/>
<circle r="2.29271" transform="matrix(1 0 0 -1 830.076 200.324)" fill="#164854"/>
<circle r="2.29271" transform="matrix(1 0 0 -1 859.117 200.324)" fill="#164854"/>
<circle r="2.2927" transform="matrix(1 0 0 -1 539.666 171.283)" fill="#164854"/>
<circle r="2.2927" transform="matrix(1 0 0 -1 568.707 171.283)" fill="#164854"/>
<circle r="2.2927" transform="matrix(1 0 0 -1 597.748 171.283)" fill="#164854"/>
<circle r="2.2927" transform="matrix(1 0 0 -1 626.791 171.282)" fill="#164854"/>
<circle r="2.2927" transform="matrix(1 0 0 -1 655.832 171.282)" fill="#164854"/>
<circle r="2.2927" transform="matrix(1 0 0 -1 684.869 171.282)" fill="#164854"/>
<circle r="2.2927" transform="matrix(1 0 0 -1 713.912 171.283)" fill="#164854"/>
<circle r="2.2927" transform="matrix(1 0 0 -1 742.953 171.283)" fill="#164854"/>
<circle r="2.2927" transform="matrix(1 0 0 -1 771.994 171.283)" fill="#164854"/>
<circle r="2.2927" transform="matrix(1 0 0 -1 801.037 171.282)" fill="#164854"/>
<circle r="2.29271" transform="matrix(1 0 0 -1 830.076 171.283)" fill="#164854"/>
<circle r="2.29271" transform="matrix(1 0 0 -1 859.117 171.283)" fill="#164854"/>
<circle r="2.2927" transform="matrix(1 0 0 -1 539.666 142.242)" fill="#164854"/>
<circle r="2.2927" transform="matrix(1 0 0 -1 568.707 142.242)" fill="#164854"/>
<circle r="2.2927" transform="matrix(1 0 0 -1 597.748 142.242)" fill="#164854"/>
<circle r="2.2927" transform="matrix(1 0 0 -1 626.791 142.243)" fill="#164854"/>
<circle r="2.2927" transform="matrix(1 0 0 -1 655.832 142.243)" fill="#164854"/>
<circle r="2.2927" transform="matrix(1 0 0 -1 684.869 142.243)" fill="#164854"/>
<circle r="2.2927" transform="matrix(1 0 0 -1 713.912 142.242)" fill="#164854"/>
<circle r="2.2927" transform="matrix(1 0 0 -1 742.953 142.242)" fill="#164854"/>
<circle r="2.2927" transform="matrix(1 0 0 -1 771.994 142.242)" fill="#164854"/>
<circle r="2.2927" transform="matrix(1 0 0 -1 801.037 142.243)" fill="#164854"/>
<circle r="2.29271" transform="matrix(1 0 0 -1 830.076 142.242)" fill="#164854"/>
<circle r="2.29271" transform="matrix(1 0 0 -1 859.117 142.242)" fill="#164854"/>
<circle r="2.2927" transform="matrix(1 0 0 -1 539.666 113.201)" fill="#164854"/>
<circle r="2.2927" transform="matrix(1 0 0 -1 568.707 113.201)" fill="#164854"/>
<circle r="2.2927" transform="matrix(1 0 0 -1 597.748 113.201)" fill="#164854"/>
<circle r="2.2927" transform="matrix(1 0 0 -1 626.791 113.201)" fill="#164854"/>
<circle r="2.2927" transform="matrix(1 0 0 -1 655.832 113.201)" fill="#164854"/>
<circle r="2.2927" transform="matrix(1 0 0 -1 684.869 113.201)" fill="#164854"/>
<circle r="2.2927" transform="matrix(1 0 0 -1 713.912 113.201)" fill="#164854"/>
<circle r="2.2927" transform="matrix(1 0 0 -1 742.953 113.201)" fill="#164854"/>
<circle r="2.2927" transform="matrix(1 0 0 -1 771.994 113.201)" fill="#164854"/>
<circle r="2.2927" transform="matrix(1 0 0 -1 801.037 113.201)" fill="#164854"/>
<circle r="2.29271" transform="matrix(1 0 0 -1 830.076 113.201)" fill="#164854"/>
<circle r="2.29271" transform="matrix(1 0 0 -1 859.117 113.201)" fill="#164854"/>
<circle r="2.2927" transform="matrix(1 0 0 -1 539.666 84.1604)" fill="#164854"/>
<circle r="2.2927" transform="matrix(1 0 0 -1 568.707 84.1604)" fill="#164854"/>
<circle r="2.2927" transform="matrix(1 0 0 -1 597.748 84.1604)" fill="#164854"/>
<circle r="2.2927" transform="matrix(1 0 0 -1 626.791 84.1594)" fill="#164854"/>
<circle r="2.2927" transform="matrix(1 0 0 -1 655.832 84.1594)" fill="#164854"/>
<circle r="2.2927" transform="matrix(1 0 0 -1 684.869 84.1594)" fill="#164854"/>
<circle r="2.2927" transform="matrix(1 0 0 -1 713.912 84.1604)" fill="#164854"/>
<circle r="2.2927" transform="matrix(1 0 0 -1 742.953 84.1604)" fill="#164854"/>
<circle r="2.2927" transform="matrix(1 0 0 -1 771.994 84.1604)" fill="#164854"/>
<circle r="2.2927" transform="matrix(1 0 0 -1 801.037 84.1594)" fill="#164854"/>
<circle r="2.29271" transform="matrix(1 0 0 -1 830.076 84.1604)" fill="#164854"/>
<circle r="2.29271" transform="matrix(1 0 0 -1 859.117 84.1604)" fill="#164854"/>
<circle r="2.2927" transform="matrix(1 0 0 -1 539.666 55.1194)" fill="#164854"/>
<circle r="2.2927" transform="matrix(1 0 0 -1 568.707 55.1194)" fill="#164854"/>
<circle r="2.2927" transform="matrix(1 0 0 -1 597.748 55.1194)" fill="#164854"/>
<circle r="2.2927" transform="matrix(1 0 0 -1 626.791 55.1204)" fill="#164854"/>
<circle r="2.2927" transform="matrix(1 0 0 -1 655.832 55.1204)" fill="#164854"/>
<circle r="2.2927" transform="matrix(1 0 0 -1 684.869 55.1204)" fill="#164854"/>
<circle r="2.2927" transform="matrix(1 0 0 -1 713.912 55.1194)" fill="#164854"/>
<circle r="2.2927" transform="matrix(1 0 0 -1 742.953 55.1194)" fill="#164854"/>
<circle r="2.2927" transform="matrix(1 0 0 -1 771.994 55.1194)" fill="#164854"/>
<circle r="2.2927" transform="matrix(1 0 0 -1 801.037 55.1204)" fill="#164854"/>
<circle r="2.29271" transform="matrix(1 0 0 -1 830.076 55.1194)" fill="#164854"/>
<circle r="2.29271" transform="matrix(1 0 0 -1 859.117 55.1194)" fill="#164854"/>
<circle r="2.2927" transform="matrix(1 0 0 -1 539.666 26.0784)" fill="#164854"/>
<circle r="2.2927" transform="matrix(1 0 0 -1 568.707 26.0784)" fill="#164854"/>
<circle r="2.2927" transform="matrix(1 0 0 -1 597.748 26.0784)" fill="#164854"/>
<circle r="2.2927" transform="matrix(1 0 0 -1 626.791 26.0784)" fill="#164854"/>
<circle r="2.2927" transform="matrix(1 0 0 -1 655.832 26.0784)" fill="#164854"/>
<circle r="2.2927" transform="matrix(1 0 0 -1 684.869 26.0784)" fill="#164854"/>
<circle r="2.2927" transform="matrix(1 0 0 -1 713.912 26.0784)" fill="#164854"/>
<circle r="2.2927" transform="matrix(1 0 0 -1 742.953 26.0784)" fill="#164854"/>
<circle r="2.2927" transform="matrix(1 0 0 -1 771.994 26.0784)" fill="#164854"/>
<circle r="2.2927" transform="matrix(1 0 0 -1 801.037 26.0784)" fill="#164854"/>
<circle r="2.29271" transform="matrix(1 0 0 -1 830.076 26.0784)" fill="#164854"/>
<circle r="2.29271" transform="matrix(1 0 0 -1 859.117 26.0784)" fill="#164854"/>
</g>
</g>
</svg>
