<svg width="47" height="32" viewBox="0 0 47 32" fill="none" xmlns="http://www.w3.org/2000/svg">
<path d="M44.8 28H1.6C0.716344 28 0 28.7163 0 29.6V30.4C0 31.2837 0.716344 32 1.6 32H44.8C45.6837 32 46.4 31.2837 46.4 30.4V29.6C46.4 28.7163 45.6837 28 44.8 28Z" fill="#164854"/>
<path d="M11.2 19.2C11.6418 19.2 12 18.8419 12 18.4V5.60005C12 5.15822 11.6418 4.80005 11.2 4.80005H5.6C5.15818 4.80005 4.8 5.15822 4.8 5.60005V18.4C4.8 18.8419 5.15818 19.2 5.6 19.2H11.2ZM7.2 6.40005H9.6C10.0418 6.40005 10.4 6.75822 10.4 7.20005C10.4 7.64188 10.0418 8.00005 9.6 8.00005H7.2C6.75818 8.00005 6.4 7.64188 6.4 7.20005C6.4 6.75822 6.75818 6.40005 7.2 6.40005ZM7.2 9.60005H9.6C10.0418 9.60005 10.4 9.95822 10.4 10.4C10.4 10.8419 10.0418 11.2 9.6 11.2H7.2C6.75818 11.2 6.4 10.8419 6.4 10.4C6.4 9.95822 6.75818 9.60005 7.2 9.60005Z" fill="url(#paint0_linear)"/>
<path d="M24 4.80005H18.4C17.9582 4.80005 17.6 5.15822 17.6 5.60005V11.2C17.6 11.6419 17.9582 12 18.4 12H24C24.4418 12 24.8 11.6419 24.8 11.2V5.60005C24.8 5.15822 24.4418 4.80005 24 4.80005Z" fill="url(#paint1_linear)"/>
<path d="M30.4 5.60005V11.2C30.4 11.6419 30.7582 12 31.2 12H43.256L38.456 4.80005H31.2C30.7582 4.80005 30.4 5.15822 30.4 5.60005Z" fill="url(#paint2_linear)"/>
<path d="M29.58 24H31.22C31.436 26.2574 33.3323 27.981 35.6 27.981C37.8677 27.981 39.764 26.2574 39.98 24H40.792C42.4219 24.0014 43.9716 23.2927 45.0365 22.0588C46.1014 20.8248 46.5758 19.1882 46.336 17.576C46.2788 17.5924 46.2195 17.6004 46.16 17.6H36C35.5582 17.6 35.2 17.2418 35.2 16.8C35.2 16.3582 35.5582 16 36 16H45.848C45.7317 15.7561 45.598 15.5208 45.448 15.296L44.32 13.6H31.2C29.8762 13.596 28.804 12.5238 28.8 11.2V5.6C28.804 4.27616 29.8762 3.20395 31.2 3.2H37.392L36.92 2.496C35.8801 0.936855 34.1301 0.000294888 32.256 0H1.6C0.717439 0.00263584 0.00263584 0.717438 0 1.6V16H3.2V5.6C3.20395 4.27616 4.27616 3.20395 5.6 3.2H11.2C12.5238 3.20395 13.596 4.27616 13.6 5.6V16H32C32.4418 16 32.8 16.3582 32.8 16.8C32.8 17.2418 32.4418 17.6 32 17.6H13.6V18.4C13.596 19.7238 12.5238 20.796 11.2 20.8H5.6C4.27616 20.796 3.20395 19.7238 3.2 18.4V17.6H0V24H20.82C21.036 26.2574 22.9323 27.981 25.2 27.981C27.4677 27.981 29.364 26.2574 29.58 24V24ZM26.4 11.2C26.396 12.5238 25.3238 13.596 24 13.6H18.4C17.0762 13.596 16.004 12.5238 16 11.2V5.6C16.004 4.27616 17.0762 3.20395 18.4 3.2H24C25.3238 3.20395 26.396 4.27616 26.4 5.6V11.2ZM35.6 26.4C34.2087 26.398 33.0291 25.3766 32.828 24H38.372C38.1709 25.3766 36.9913 26.398 35.6 26.4ZM25.2 26.4C23.8087 26.398 22.6291 25.3766 22.428 24H27.972C27.7709 25.3766 26.5913 26.398 25.2 26.4V26.4Z" fill="url(#paint3_linear)"/>
<defs>
<linearGradient id="paint0_linear" x1="5.91177" y1="5.12815" x2="15.491" y2="7.59472" gradientUnits="userSpaceOnUse">
<stop offset="0.0107682" stop-color="#4BBFA9"/>
<stop offset="1" stop-color="#319181"/>
</linearGradient>
<linearGradient id="paint1_linear" x1="18.7118" y1="4.9641" x2="26.7851" y2="9.12169" gradientUnits="userSpaceOnUse">
<stop offset="0.0107682" stop-color="#4BBFA9"/>
<stop offset="1" stop-color="#319181"/>
</linearGradient>
<linearGradient id="paint2_linear" x1="32.3851" y1="4.9641" x2="42.2675" y2="14.0513" gradientUnits="userSpaceOnUse">
<stop offset="0.0107682" stop-color="#4BBFA9"/>
<stop offset="1" stop-color="#319181"/>
</linearGradient>
<linearGradient id="paint3_linear" x1="7.16424" y1="0.637541" x2="45.2294" y2="33.1423" gradientUnits="userSpaceOnUse">
<stop offset="0.0107682" stop-color="#4BBFA9"/>
<stop offset="1" stop-color="#319181"/>
</linearGradient>
</defs>
</svg>
