<svg width="41" height="48" viewBox="0 0 41 48" fill="none" xmlns="http://www.w3.org/2000/svg">
<path d="M28.7127 23.4464C30.2242 22.3716 31.3259 20.7579 31.7346 18.887H29.5105C29.4027 20.5429 29.13 22.1031 28.7127 23.4464Z" fill="#164854"/>
<path d="M31.7346 15.6496C31.3259 13.7786 30.2242 12.1649 28.7127 11.0901C29.1299 12.4334 29.4027 13.9936 29.5105 15.6496H31.7346Z" fill="#164854"/>
<path d="M0 0.000976562H6.08506V48.0009H0V0.000976562Z" fill="#164854"/>
<path d="M19.9512 11.0898C18.4397 12.1647 17.3381 13.7784 16.9293 15.6493H19.1533C19.2612 13.9934 19.5339 12.4333 19.9512 11.0898V11.0898Z" fill="#164854"/>
<path d="M23.154 22.829C23.6396 24.2258 24.1564 24.7292 24.332 24.833C24.5075 24.7292 25.0243 24.2257 25.5098 22.8289C25.8968 21.7154 26.1555 20.353 26.2657 18.887H22.3981C22.5083 20.3531 22.767 21.7155 23.154 22.829V22.829Z" fill="#164854"/>
<path d="M25.5098 11.7073C25.0243 10.3105 24.5075 9.80694 24.332 9.70312C24.1564 9.80683 23.6396 10.3102 23.154 11.7072C22.767 12.8207 22.5083 14.1831 22.3981 15.6492H26.2657C26.1555 14.1832 25.8969 12.8208 25.5098 11.7073V11.7073Z" fill="#164854"/>
<path d="M9.32239 0.000107855V48H34.7292C37.8675 48 40.4208 45.4467 40.4208 42.3083V5.69172C40.4208 2.55325 37.8675 0 34.7292 0H9.32239V0.000107855ZM30.8859 41.0473H17.778V37.8099H30.8859V41.0473ZM33.5293 34.6377H15.1348V31.4003H33.5293V34.6377ZM35.148 17.2682C35.148 23.2322 30.2959 28.0842 24.332 28.0842C18.368 28.0842 13.516 23.2321 13.516 17.2682C13.516 11.3043 18.3681 6.45219 24.3321 6.45219C30.296 6.45219 35.148 11.3042 35.148 17.2682Z" fill="url(#paint0_linear)"/>
<path d="M19.9512 23.4464C19.5339 22.1031 19.2612 20.5429 19.1533 18.887H16.9293C17.3381 20.7579 18.4397 22.3715 19.9512 23.4464Z" fill="#164854"/>
<defs>
<linearGradient id="paint0_linear" x1="14.1243" y1="1.09367" x2="53.8232" y2="14.3391" gradientUnits="userSpaceOnUse">
<stop offset="0.0107682" stop-color="#4BBFA9"/>
<stop offset="1" stop-color="#319181"/>
</linearGradient>
</defs>
</svg>
