<svg width="48" height="48" viewBox="0 0 48 48" fill="none" xmlns="http://www.w3.org/2000/svg">
<g clip-path="url(#clip0)">
<mask id="mask0" mask-type="alpha" maskUnits="userSpaceOnUse" x="0" y="2" width="48" height="44">
<path d="M44.1921 6.8042C41.7074 4.10925 38.298 2.625 34.5912 2.625C31.8204 2.625 29.283 3.50098 27.0491 5.22839C25.9219 6.10034 24.9005 7.16711 24 8.41223C23.0999 7.16748 22.0781 6.10034 20.9506 5.22839C18.717 3.50098 16.1796 2.625 13.4088 2.625C9.70203 2.625 6.29224 4.10925 3.8075 6.8042C1.35242 9.46765 0 13.1063 0 17.0504C0 21.1099 1.51282 24.8258 4.76074 28.745C7.66626 32.2507 11.8422 35.8096 16.678 39.9305C18.3292 41.3379 20.2009 42.9331 22.1444 44.6323C22.6578 45.082 23.3167 45.3296 24 45.3296C24.683 45.3296 25.3422 45.082 25.8549 44.6331C27.7983 42.9335 29.6711 41.3375 31.3231 39.9294C36.1582 35.8092 40.3341 32.2507 43.2396 28.7446C46.4875 24.8258 48 21.1099 48 17.05C48 13.1063 46.6476 9.46765 44.1921 6.8042Z" fill="#4BBFA9"/>
</mask>
<g mask="url(#mask0)">
<rect width="49" height="61" fill="url(#paint0_linear)"/>
<path d="M0 0L24 -2.5V47H0V0Z" fill="#164854"/>
</g>
</g>
<defs>
<linearGradient id="paint0_linear" x1="7.56618" y1="1.38987" x2="66.9232" y2="25.9443" gradientUnits="userSpaceOnUse">
<stop offset="0.0107682" stop-color="#4BBFA9"/>
<stop offset="1" stop-color="#319181"/>
</linearGradient>
<clipPath id="clip0">
<rect width="48" height="48" fill="white"/>
</clipPath>
</defs>
</svg>
