<svg width="56" height="44" viewBox="0 0 56 44" fill="none" xmlns="http://www.w3.org/2000/svg">
<path d="M54.3562 18.8159H1.6438C0.735984 18.8159 0 19.5519 0 20.4597C0 26.6336 2.95925 32.4156 8.33273 36.7405C13.6018 40.9815 20.5864 43.3171 28 43.3171C35.4135 43.3171 42.3982 40.9814 47.6672 36.7406C53.0407 32.4157 56 26.6337 56 20.4597C56 19.5519 55.264 18.8159 54.3562 18.8159Z" fill="url(#paint0_linear)"/>
<path d="M55.4274 0.396815C54.7387 -0.194575 53.7009 -0.115934 53.1093 0.572581L46.502 8.26448C46.9821 8.96743 47.3765 9.72168 47.6772 10.515C47.9721 10.6413 48.261 10.7813 48.5438 10.9331L55.6031 2.71491C56.1945 2.02628 56.116 0.988424 55.4274 0.396815Z" fill="url(#paint1_linear)"/>
<path d="M44.9851 13.0952C44.475 10.0581 42.1384 7.63212 39.1477 6.98954C38.6723 3.29551 35.5071 0.431641 31.6859 0.431641C28.4857 0.431641 25.7459 2.43987 24.6607 5.2624C23.5745 4.67572 22.3468 4.3547 21.0868 4.3547C16.9385 4.3547 13.5635 7.72968 13.5635 11.8781C13.5635 11.9044 13.5636 11.9309 13.5639 11.9574C11.1989 12.2991 9.1526 13.6364 7.86154 15.5282H49.1203C48.0616 14.3118 46.6205 13.4368 44.9851 13.0952Z" fill="#164854"/>
<defs>
<linearGradient id="paint0_linear" x1="8.64705" y1="19.3742" x2="41.9514" y2="58.5748" gradientUnits="userSpaceOnUse">
<stop offset="0.0107682" stop-color="#4BBFA9"/>
<stop offset="1" stop-color="#319181"/>
</linearGradient>
<linearGradient id="paint1_linear" x1="47.9686" y1="0.249109" x2="59.1959" y2="5.27206" gradientUnits="userSpaceOnUse">
<stop offset="0.0107682" stop-color="#4BBFA9"/>
<stop offset="1" stop-color="#319181"/>
</linearGradient>
</defs>
</svg>
