<svg width="48" height="48" viewBox="0 0 48 48" fill="none" xmlns="http://www.w3.org/2000/svg">
<path d="M13.0302 8.53125H23.5323C25.0362 5.16056 27.6809 2.43497 27.7031 2.39062C28.1249 1.99688 28.2374 1.40625 28.0124 0.871875C27.7875 0.3375 27.2813 0 26.7188 0C24.1875 0 22.8094 0.9 21.7125 1.63125C20.7282 2.30625 19.9688 2.8125 18.2813 2.8125C16.5938 2.8125 15.8344 2.30625 14.85 1.63125C13.7532 0.9 12.375 0 9.84378 0C9.28128 0 8.77503 0.3375 8.55003 0.871875C8.32503 1.40625 8.43753 1.99688 8.8594 2.39062C8.88162 2.43497 11.5262 5.16056 13.0302 8.53125V8.53125Z" fill="url(#paint0_linear)"/>
<path d="M28.2188 43.7812V46.5938C28.2188 47.3704 28.8484 48 29.625 48H46.5938C47.3704 48 48 47.3704 48 46.5938V43.7812C48 43.0046 47.3704 42.375 46.5938 42.375H29.625C28.8484 42.375 28.2188 43.0046 28.2188 43.7812Z" fill="#164854"/>
<path d="M48 38.1562V35.3438C48 34.5671 47.3704 33.9375 46.5938 33.9375H29.625C28.8484 33.9375 28.2188 34.5671 28.2188 35.3438V38.1562C28.2188 38.9329 28.8484 39.5625 29.625 39.5625H46.5938C47.3704 39.5625 48 38.9329 48 38.1562Z" fill="#164854"/>
<path d="M28.0406 22.7438C25.2844 20.0438 23.0344 17.7563 22.5844 14.1562H23.9062C24.6937 14.1562 25.3125 13.5375 25.3125 12.75C25.3125 11.9625 24.6937 11.3438 23.9062 11.3438H12.6562C11.8688 11.3438 11.25 11.9625 11.25 12.75C11.25 13.5375 11.8688 14.1562 12.6562 14.1562H13.9781C13.5281 17.7563 11.2781 20.0438 8.52188 22.7438C4.52813 26.6531 0 31.0969 0 41.25C0.05625 44.9625 3.23438 48 7.03125 48H25.5713C25.4138 47.5584 25.3125 47.0888 25.3125 46.5938V35.3438C25.3125 33.0178 27.2053 31.125 29.5312 31.125H34.5684C32.8669 27.4781 30.3431 25.0031 28.0406 22.7438ZM18.2812 31.125C20.6076 31.125 22.5 33.0174 22.5 35.3438C22.5 37.1747 21.3208 38.721 19.6875 39.3035V40.9688C19.6875 41.746 19.0585 42.375 18.2812 42.375C17.504 42.375 16.875 41.746 16.875 40.9688V39.3035C15.2417 38.7211 14.0625 37.1747 14.0625 35.3438C14.0625 34.5665 14.6915 33.9375 15.4688 33.9375C16.246 33.9375 16.875 34.5665 16.875 35.3438C16.875 36.1196 17.5054 36.75 18.2812 36.75C19.0571 36.75 19.6875 36.1196 19.6875 35.3438C19.6875 34.5679 19.0571 33.9375 18.2812 33.9375C15.9549 33.9375 14.0625 32.0451 14.0625 29.7188C14.0625 27.8878 15.2417 26.3415 16.875 25.759V24.0938C16.875 23.3165 17.504 22.6875 18.2812 22.6875C19.0585 22.6875 19.6875 23.3165 19.6875 24.0938V25.759C21.3208 26.3414 22.5 27.8878 22.5 29.7188C22.5 30.496 21.871 31.125 21.0938 31.125C20.3165 31.125 19.6875 30.496 19.6875 29.7188C19.6875 28.9429 19.0571 28.3125 18.2812 28.3125C17.5054 28.3125 16.875 28.9429 16.875 29.7188C16.875 30.4946 17.5054 31.125 18.2812 31.125Z" fill="url(#paint1_linear)"/>
<defs>
<linearGradient id="paint0_linear" x1="11.4768" y1="0.194383" x2="23.0545" y2="13.955" gradientUnits="userSpaceOnUse">
<stop offset="0.0107682" stop-color="#4BBFA9"/>
<stop offset="1" stop-color="#319181"/>
</linearGradient>
<linearGradient id="paint1_linear" x1="5.33777" y1="12.179" x2="45.0196" y2="31.4504" gradientUnits="userSpaceOnUse">
<stop offset="0.0107682" stop-color="#4BBFA9"/>
<stop offset="1" stop-color="#319181"/>
</linearGradient>
</defs>
</svg>
