<svg width="48" height="48" viewBox="0 0 48 48" fill="none" xmlns="http://www.w3.org/2000/svg">
<path d="M10.1958 47.9999C9.92289 46.9498 10.115 45.8222 10.7563 44.9083L17.5907 35.1691L13.7351 29.8214C13.548 29.5619 13.2613 29.4321 12.9746 29.4321C12.688 29.4321 12.4013 29.5619 12.2141 29.8214L0.17871 46.5141C-0.268384 47.1342 0.174772 47.9999 0.93921 47.9999H10.1958Z" fill="url(#paint0_linear)"/>
<path d="M31.8496 19.9079V15H43.5684C44.079 15 44.5496 14.7231 44.7976 14.2767C45.0456 13.8304 45.0321 13.2845 44.7624 12.8509L42.308 8.90625L44.7624 4.96162C45.0322 4.52803 45.0457 3.98222 44.7976 3.53578C44.5495 3.08934 44.0791 2.8125 43.5684 2.8125H31.8496V1.40625C31.8496 0.629625 31.22 0 30.4434 0C29.6667 0 29.0371 0.629625 29.0371 1.40625V19.9079C29.8408 19.0254 31.0273 19.0077 31.8496 19.9079Z" fill="url(#paint1_linear)"/>
<path d="M38.1521 32.7349L34.7951 35.8624C34.5251 36.1139 34.1808 36.2397 33.8365 36.2397C33.4921 36.2397 33.1479 36.1139 32.8779 35.8624L30.443 33.594L28.0086 35.8623C27.4685 36.3655 26.6314 36.3655 26.0913 35.8623L22.7348 32.7349L13.0586 46.5238C12.6226 47.1451 13.067 47.9998 13.826 47.9998H25.01H47.0608C47.8198 47.9998 48.2642 47.1451 47.8283 46.5238L38.1521 32.7349Z" fill="#164854"/>
<path d="M27.05 32.9117L29.4843 30.6434C30.0243 30.1403 30.8614 30.1402 31.4015 30.6434L33.8364 32.9118L36.5452 30.4455L31.2108 22.8438C31.0241 22.5779 30.7338 22.4448 30.4433 22.4448C30.153 22.4448 29.8626 22.5779 29.6759 22.8438L24.3414 30.4455L27.05 32.9117Z" fill="url(#paint2_linear)"/>
<defs>
<linearGradient id="paint0_linear" x1="2.71621" y1="29.8552" x2="22.8735" y2="39.6896" gradientUnits="userSpaceOnUse">
<stop offset="0.0107682" stop-color="#4BBFA9"/>
<stop offset="1" stop-color="#319181"/>
</linearGradient>
<linearGradient id="paint1_linear" x1="31.498" y1="0.453598" x2="50.8233" y2="8.4209" gradientUnits="userSpaceOnUse">
<stop offset="0.0107682" stop-color="#4BBFA9"/>
<stop offset="1" stop-color="#319181"/>
</linearGradient>
<linearGradient id="paint2_linear" x1="26.2258" y1="22.6833" x2="38.9512" y2="30.324" gradientUnits="userSpaceOnUse">
<stop offset="0.0107682" stop-color="#4BBFA9"/>
<stop offset="1" stop-color="#319181"/>
</linearGradient>
</defs>
</svg>
