<svg width="48" height="48" viewBox="0 0 48 48" fill="none" xmlns="http://www.w3.org/2000/svg">
<path d="M24 22C26.2091 22 28 20.2091 28 18C28 15.7909 26.2091 14 24 14C21.7909 14 20 15.7909 20 18C20 20.2091 21.7909 22 24 22Z" fill="#164854"/>
<path d="M26.5 24H21.5C18.466 24 16 26.466 16 29.5V30.5C16 31.328 16.672 32 17.5 32H30.5C31.328 32 32 31.328 32 30.5V29.5C32 26.466 29.534 24 26.5 24Z" fill="#164854"/>
<path d="M24 44.5C12.696 44.5 3.5 35.304 3.5 24C3.5 12.696 12.696 3.5 24 3.5C35.304 3.5 44.5 12.696 44.5 24C44.5 35.304 35.304 44.5 24 44.5ZM24 7.5C14.902 7.5 7.5 14.902 7.5 24C7.5 33.098 14.902 40.5 24 40.5C33.098 40.5 40.5 33.098 40.5 24C40.5 14.902 33.098 7.5 24 7.5Z" fill="url(#paint0_linear)"/>
<path d="M24 11C22.896 11 22 10.104 22 9V2C22 0.896 22.896 0 24 0C25.104 0 26 0.896 26 2V9C26 10.104 25.104 11 24 11Z" fill="url(#paint1_linear)"/>
<path d="M46 26H39C37.896 26 37 25.104 37 24C37 22.896 37.896 22 39 22H46C47.104 22 48 22.896 48 24C48 25.104 47.104 26 46 26Z" fill="url(#paint2_linear)"/>
<path d="M24 48C22.896 48 22 47.104 22 46V39C22 37.896 22.896 37 24 37C25.104 37 26 37.896 26 39V46C26 47.104 25.104 48 24 48Z" fill="url(#paint3_linear)"/>
<path d="M9 26H2C0.896 26 0 25.104 0 24C0 22.896 0.896 22 2 22H9C10.104 22 11 22.896 11 24C11 25.104 10.104 26 9 26Z" fill="url(#paint4_linear)"/>
<defs>
<linearGradient id="paint0_linear" x1="2.69981" y1="44.4998" x2="59.5275" y2="44.7333" gradientUnits="userSpaceOnUse">
<stop stop-color="#214C56"/>
<stop offset="1" stop-color="#4BBFA9"/>
</linearGradient>
<linearGradient id="paint1_linear" x1="22.6176" y1="0.250633" x2="28.1" y2="1.2773" gradientUnits="userSpaceOnUse">
<stop offset="0.0107682" stop-color="#4BBFA9"/>
<stop offset="1" stop-color="#319181"/>
</linearGradient>
<linearGradient id="paint2_linear" x1="38.6985" y1="22.0911" x2="43.8906" y2="29.4441" gradientUnits="userSpaceOnUse">
<stop offset="0.0107682" stop-color="#4BBFA9"/>
<stop offset="1" stop-color="#319181"/>
</linearGradient>
<linearGradient id="paint3_linear" x1="22.6176" y1="37.2506" x2="28.1" y2="38.2773" gradientUnits="userSpaceOnUse">
<stop offset="0.0107682" stop-color="#4BBFA9"/>
<stop offset="1" stop-color="#319181"/>
</linearGradient>
<linearGradient id="paint4_linear" x1="1.69853" y1="22.0911" x2="6.89058" y2="29.4441" gradientUnits="userSpaceOnUse">
<stop offset="0.0107682" stop-color="#4BBFA9"/>
<stop offset="1" stop-color="#319181"/>
</linearGradient>
</defs>
</svg>
