<svg width="48" height="48" viewBox="0 0 48 48" fill="none" xmlns="http://www.w3.org/2000/svg">
<path d="M24 9.99997C26.7615 9.99997 29 7.7614 29 4.99999C29 2.23857 26.7615 0 24 0C21.2386 0 19.0001 2.23857 19.0001 4.99999C19.0001 7.7614 21.2386 9.99997 24 9.99997Z" fill="url(#paint0_linear)"/>
<path d="M37.9999 38C40.7613 38 42.9999 35.7614 42.9999 33C42.9999 30.2386 40.7613 28 37.9999 28C35.2385 28 32.9999 30.2386 32.9999 33C32.9999 35.7614 35.2385 38 37.9999 38Z" fill="url(#paint1_linear)"/>
<path d="M9.99986 38C12.7613 38 14.9999 35.7614 14.9999 33C14.9999 30.2386 12.7613 28 9.99986 28C7.23845 28 4.99988 30.2386 4.99988 33C4.99988 35.7614 7.23845 38 9.99986 38Z" fill="url(#paint2_linear)"/>
<path d="M32.4998 20H15.4998C14.6718 20 13.9998 19.328 13.9998 18.5V17.5C13.9998 14.466 16.4658 12 19.4998 12H28.4998C31.5338 12 33.9998 14.466 33.9998 17.5V18.5C33.9998 19.328 33.3278 20 32.4998 20Z" fill="url(#paint3_linear)"/>
<path d="M46.5 48H29.5001C28.6721 48 28.0001 47.328 28.0001 46.5V45.5C28.0001 42.466 30.4661 40 33.5 40H42.5C45.534 40 48 42.466 48 45.5V46.5C48 47.328 47.328 48 46.5 48Z" fill="url(#paint4_linear)"/>
<path d="M18.5 48H1.5C0.671998 48 0 47.328 0 46.5V45.5C0 42.466 2.46599 40 5.49999 40H14.5C17.534 40 19.9999 42.466 19.9999 45.5V46.5C19.9999 47.328 19.3279 48 18.5 48Z" fill="url(#paint5_linear)"/>
<path d="M5.50012 25.5239C4.67212 25.5239 4.00012 24.8519 4.00012 24.0239C4.00012 16.2719 8.54411 9.14995 15.5761 5.87996C16.3301 5.53196 17.2181 5.85596 17.5701 6.60796C17.9161 7.35796 17.5921 8.24995 16.8401 8.59995C10.8621 11.3799 7.00011 17.4339 7.00011 24.0239C7.00011 24.8519 6.32812 25.5239 5.50012 25.5239Z" fill="#164854"/>
<path d="M42.4999 25.5241C41.6719 25.5241 40.9999 24.8521 40.9999 24.0241C40.9999 17.4341 37.1379 11.3802 31.1599 8.60017C30.4099 8.25017 30.0839 7.35817 30.4319 6.60617C30.7819 5.85617 31.6719 5.53017 32.4259 5.87817C39.4559 9.15016 43.9999 16.2721 43.9999 24.0241C43.9999 24.8521 43.3279 25.5241 42.4999 25.5241Z" fill="#164854"/>
<path d="M24 44.0239C23.292 44.0239 22.596 43.9859 21.908 43.9159C21.084 43.8299 20.486 43.0919 20.572 42.2679C20.658 41.4459 21.386 40.8579 22.22 40.9319C23.424 41.0579 24.686 41.0519 25.894 40.9199C26.712 40.8259 27.458 41.4239 27.55 42.2479C27.64 43.0719 27.046 43.8119 26.222 43.9039C25.494 43.9819 24.752 44.0239 24 44.0239Z" fill="#164854"/>
<defs>
<linearGradient id="paint0_linear" x1="20.5442" y1="0.227848" x2="31.7571" y2="6.00227" gradientUnits="userSpaceOnUse">
<stop offset="0.0107682" stop-color="#4BBFA9"/>
<stop offset="1" stop-color="#319181"/>
</linearGradient>
<linearGradient id="paint1_linear" x1="34.5441" y1="28.2278" x2="45.7569" y2="34.0023" gradientUnits="userSpaceOnUse">
<stop offset="0.0107682" stop-color="#4BBFA9"/>
<stop offset="1" stop-color="#319181"/>
</linearGradient>
<linearGradient id="paint2_linear" x1="6.54399" y1="28.2278" x2="17.7569" y2="34.0023" gradientUnits="userSpaceOnUse">
<stop offset="0.0107682" stop-color="#4BBFA9"/>
<stop offset="1" stop-color="#319181"/>
</linearGradient>
<linearGradient id="paint3_linear" x1="17.088" y1="12.1823" x2="27.7646" y2="25.9278" gradientUnits="userSpaceOnUse">
<stop offset="0.0107682" stop-color="#4BBFA9"/>
<stop offset="1" stop-color="#319181"/>
</linearGradient>
<linearGradient id="paint4_linear" x1="31.0883" y1="40.1823" x2="41.7648" y2="53.9278" gradientUnits="userSpaceOnUse">
<stop offset="0.0107682" stop-color="#4BBFA9"/>
<stop offset="1" stop-color="#319181"/>
</linearGradient>
<linearGradient id="paint5_linear" x1="3.08823" y1="40.1823" x2="13.7647" y2="53.9278" gradientUnits="userSpaceOnUse">
<stop offset="0.0107682" stop-color="#4BBFA9"/>
<stop offset="1" stop-color="#319181"/>
</linearGradient>
</defs>
</svg>
