<svg width="48" height="48" viewBox="0 0 48 48" fill="none" xmlns="http://www.w3.org/2000/svg">
<path d="M24 13.3125C20.3298 13.3125 17.3438 10.3265 17.3438 6.65625C17.3438 2.98603 20.3298 0 24 0C27.6703 0 30.6562 2.98603 30.6562 6.65625C30.6562 10.3265 27.6703 13.3125 24 13.3125Z" fill="#164854"/>
<path d="M39.9759 47.9998H17.2223C15.5289 47.9998 14.1562 46.627 14.1562 44.9337C14.1562 43.4519 15.216 42.1821 16.6739 41.917L39.0605 37.8467C42.2019 37.2755 45.0937 39.6889 45.0937 42.882C45.0937 45.7084 42.8024 47.9998 39.9759 47.9998V47.9998Z" fill="#164854"/>
<path d="M44.4844 24.5626H40.7491L37.3068 18.6615C35.8006 16.0794 33.2875 14.263 30.4353 13.5952C28.7449 15.1641 26.4827 16.1251 24 16.1251C21.5173 16.1251 19.2551 15.1641 17.5646 13.5952C14.7124 14.2631 12.1994 16.0795 10.6931 18.6615L7.25091 24.5626H3.51562C1.57397 24.5626 0 26.1365 0 28.0782C0 30.0198 1.57397 31.5938 3.51562 31.5938H10.8711C11.3077 31.5938 11.7195 31.391 11.9857 31.045L14.1523 28.2285V35.9363L24 37.7266L33.8477 35.9361V28.2284L36.0142 31.0449C36.2805 31.3909 36.6923 31.5937 37.1289 31.5937H44.4844C46.426 31.5937 48 30.0197 48 28.0781C48 26.1364 46.426 24.5626 44.4844 24.5626V24.5626Z" fill="url(#paint0_linear)"/>
<path d="M16.1407 39.156L8.93953 37.8467C5.79806 37.2755 2.90625 39.6889 2.90625 42.882C2.90625 45.7084 5.19759 47.9998 8.02406 47.9998H12.209C11.6606 47.1064 11.3437 46.0564 11.3437 44.9337C11.3437 42.1011 13.3594 39.6765 16.1407 39.156V39.156Z" fill="#164854"/>
<defs>
<linearGradient id="paint0_linear" x1="7.41176" y1="14.145" x2="40.6406" y2="48.1831" gradientUnits="userSpaceOnUse">
<stop offset="0.0107682" stop-color="#4BBFA9"/>
<stop offset="1" stop-color="#319181"/>
</linearGradient>
</defs>
</svg>
