<svg width="48" height="48" viewBox="0 0 48 48" fill="none" xmlns="http://www.w3.org/2000/svg">
<g clip-path="url(#clip0)">
<path d="M11 35C14.3137 35 17 32.3137 17 29C17 25.6863 14.3137 23 11 23C7.68629 23 5 25.6863 5 29C5 32.3137 7.68629 35 11 35Z" fill="#164854"/>
<path d="M16.5 38H5.5C2.466 38 0 40.466 0 43.5V46.5C0 47.328 0.672 48 1.5 48H20.5C21.328 48 22 47.328 22 46.5V43.5C22 40.466 19.534 38 16.5 38Z" fill="#164854"/>
<path d="M44.5 0H13.5C11.58 0 9.99997 1.58 9.99997 3.5V20.06C10.32 20.02 10.66 20 11 20C15.62 20 19.44 23.5 19.94 28H24V34.5C24 35.16 24.42 35.74 25.06 35.94C25.2 35.98 25.36 36 25.5 36C25.98 36 26.46 35.76 26.74 35.34L31.78 28H44.5C46.42 28 48 26.42 48 24.5V3.5C48 1.58 46.42 0 44.5 0V0ZM41.66 8.46L34.16 17.46C33.62 18.1 32.68 18.18 32.04 17.66L27.06 13.5L20.52 19.6C20.24 19.86 19.86 20 19.5 20C19.1 20 18.7 19.84 18.4 19.52C17.84 18.92 17.88 17.96 18.48 17.4L25.98 10.4C26.52 9.88 27.38 9.86 27.96 10.34L32.8 14.38L39.34 6.54C39.88 5.9 40.82 5.82 41.46 6.34C42.1 6.88 42.18 7.82 41.66 8.46V8.46Z" fill="url(#paint0_linear)"/>
</g>
<defs>
<linearGradient id="paint0_linear" x1="15.8676" y1="0.820254" x2="57.4806" y2="23.4407" gradientUnits="userSpaceOnUse">
<stop offset="0.0107682" stop-color="#4BBFA9"/>
<stop offset="1" stop-color="#319181"/>
</linearGradient>
<clipPath id="clip0">
<rect width="48" height="48" fill="white"/>
</clipPath>
</defs>
</svg>
