<svg width="16" height="14" viewBox="0 0 16 14" fill="none" xmlns="http://www.w3.org/2000/svg">
<path d="M0.899379 7.89901L0.874403 7.89355L11.5809 7.89355L8.21515 11.2667C8.05034 11.4314 7.95993 11.6545 7.95993 11.8886C7.95993 12.1228 8.05034 12.3443 8.21515 12.5094L8.73886 13.0333C8.90354 13.198 9.12299 13.2891 9.357 13.2891C9.59115 13.2891 9.81073 13.1987 9.97541 13.034L15.7449 7.265C15.9102 7.09966 16.0006 6.87944 16 6.64516C16.0006 6.40958 15.9102 6.18923 15.7449 6.02415L9.97541 0.254657C9.81073 0.0901042 9.59128 -0.000432209 9.357 -0.000432209C9.12299 -0.000432209 8.90354 0.0902343 8.73886 0.254657L8.21515 0.778624C8.05034 0.943047 7.95993 1.16262 7.95993 1.39677C7.95993 1.63079 8.05034 1.83879 8.21515 2.00334L11.6189 5.39534L0.887411 5.39534C0.4052 5.39534 -3.37372e-06 5.81095 -3.37372e-06 6.2929V7.03397C-3.37372e-06 7.51592 0.417168 7.89901 0.899379 7.89901Z" fill="white"/>
</svg>
