<svg width="139" height="25" viewBox="0 0 139 25" fill="none" xmlns="http://www.w3.org/2000/svg">
<path d="M110.496 10.5273C110.496 9.86966 110.27 9.34141 109.822 8.95331C109.375 8.56521 108.809 8.36577 108.135 8.36577C107.488 8.36577 106.944 8.55443 106.491 8.92636C106.054 9.30368 105.785 9.83193 105.682 10.5219H110.496V10.5273ZM114.436 11.5407C114.436 11.9018 114.415 12.2737 114.366 12.6672H105.661C105.72 13.4488 105.968 14.0472 106.405 14.4676C106.852 14.8719 107.402 15.0767 108.049 15.0767C109.008 15.0767 109.677 14.6724 110.049 13.8639H114.145C113.935 14.6886 113.552 15.4325 112.997 16.0901C112.458 16.7477 111.774 17.2652 110.949 17.6425C110.124 18.0198 109.202 18.2031 108.184 18.2031C106.955 18.2031 105.86 17.939 104.901 17.4161C103.941 16.8932 103.192 16.144 102.653 15.1683C102.114 14.1927 101.845 13.0553 101.845 11.7509C101.845 10.4464 102.109 9.30368 102.632 8.33342C103.171 7.35778 103.92 6.60852 104.879 6.08566C105.839 5.5628 106.944 5.29868 108.189 5.29868C109.402 5.29868 110.485 5.55202 111.429 6.0641C112.372 6.57618 113.11 7.30387 113.633 8.24718C114.161 9.1797 114.436 10.2793 114.436 11.5407ZM100.459 14.7587V18.0198H98.5026C97.1065 18.0198 96.0177 17.6802 95.2414 17.0064C94.4599 16.3165 94.0717 15.2007 94.0717 13.6537V8.65684H92.5409V5.46039H94.0717V2.39869H97.9204V5.46039H100.438V8.65684H97.9204V13.6968C97.9204 14.0741 98.0121 14.3436 98.1899 14.5053C98.3678 14.6724 98.6697 14.7533 99.0901 14.7533H100.459V14.7587ZM86.8272 11.7455C86.8272 10.786 86.5576 10.026 86.0186 9.47078C85.4958 8.91558 84.8489 8.64067 84.0835 8.64067C83.3181 8.64067 82.6658 8.91558 82.1268 9.47078C81.604 10.0098 81.3398 10.7591 81.3398 11.7185C81.3398 12.678 81.604 13.4434 82.1268 14.0148C82.6658 14.57 83.3181 14.8449 84.0835 14.8449C84.8489 14.8449 85.4958 14.57 86.0186 14.0148C86.5576 13.4596 86.8272 12.705 86.8272 11.7455ZM77.4265 11.7239C77.4265 10.4356 77.669 9.30368 78.1488 8.32803C78.6447 7.35239 79.3131 6.60313 80.1486 6.08027C80.9895 5.55741 81.9274 5.29329 82.9623 5.29329C83.8463 5.29329 84.6171 5.47117 85.2802 5.83232C85.9539 6.19347 86.4714 6.66243 86.8326 7.24997V5.47117H90.6812V18.0252H86.8326V16.2464C86.4552 16.8339 85.9324 17.3029 85.2586 17.6641C84.601 18.0252 83.8248 18.2031 82.9408 18.2031C81.922 18.2031 80.9895 17.939 80.1486 17.4161C79.3077 16.8771 78.6393 16.117 78.1488 15.1414C77.6636 14.1496 77.4265 13.0122 77.4265 11.7239ZM69.7506 14.4191L72.4728 5.46578H76.5694L72.117 18.0198H67.3681L62.9157 5.46578H67.0339L69.7506 14.4191ZM61.3202 5.46578V18.0198H57.4715V5.46578H61.3202ZM59.4066 4.16132C58.7329 4.16132 58.1777 3.96727 57.741 3.57378C57.3206 3.1695 57.1104 2.6736 57.1104 2.09144C57.1104 1.49312 57.3206 0.997209 57.741 0.609106C58.1777 0.204832 58.7329 0 59.4066 0C60.0643 0 60.6087 0.204832 61.0291 0.609106C61.4657 0.997209 61.6814 1.49312 61.6814 2.09144C61.6814 2.67899 61.4657 3.1695 61.0291 3.57378C60.6033 3.96727 60.0643 4.16132 59.4066 4.16132ZM55.3262 14.7587V18.0198H53.3695C51.9734 18.0198 50.8846 17.6802 50.1084 17.0064C49.3268 16.3165 48.9387 15.2007 48.9387 13.6537V8.65684H47.4078V5.46039H48.9387V2.39869H52.7873V5.46039H55.3046V8.65684H52.7873V13.6968C52.7873 14.0741 52.879 14.3436 53.0569 14.5053C53.2347 14.667 53.5366 14.7533 53.957 14.7533H55.3262V14.7587ZM42.3948 11.7239C42.3948 10.7645 42.1253 10.0152 41.5863 9.47617C41.0634 8.92097 40.4112 8.64606 39.6296 8.64606C38.8642 8.64606 38.2119 8.92097 37.6729 9.47617C37.15 10.0314 36.8859 10.786 36.8859 11.7509C36.8859 12.7104 37.15 13.4704 37.6729 14.0256C38.2119 14.5808 38.8642 14.8557 39.6296 14.8557C40.395 14.8557 41.0472 14.5808 41.5863 14.0256C42.1253 13.4488 42.3948 12.6834 42.3948 11.7239ZM36.9075 7.24458C37.2848 6.65704 37.8023 6.18808 38.4599 5.82693C39.1175 5.46578 39.8937 5.2879 40.7777 5.2879C41.8127 5.2879 42.7506 5.55202 43.5915 6.07488C44.4324 6.59774 45.09 7.35239 45.5697 8.32264C46.0656 9.29829 46.3136 10.4303 46.3136 11.7185C46.3136 13.0068 46.0656 14.1496 45.5697 15.136C45.09 16.1116 44.4324 16.8663 43.5915 17.4107C42.7506 17.9336 41.8127 18.1977 40.7777 18.1977C39.9099 18.1977 39.1337 18.0198 38.4599 17.6587C37.8023 17.2975 37.2848 16.8339 36.9075 16.2626V24.0031H33.0588V5.46578H36.9075V7.24458ZM26.4287 11.7455C26.4287 10.786 26.1592 10.026 25.6202 9.47078C25.0973 8.91558 24.4505 8.64067 23.685 8.64067C22.9196 8.64067 22.2674 8.91558 21.7284 9.47078C21.2055 10.0098 20.9414 10.7591 20.9414 11.7185C20.9414 12.678 21.2055 13.4434 21.7284 14.0148C22.2674 14.57 22.9196 14.8449 23.685 14.8449C24.4505 14.8449 25.0973 14.57 25.6202 14.0148C26.1592 13.4596 26.4287 12.705 26.4287 11.7455ZM17.0226 11.7239C17.0226 10.4356 17.2652 9.30368 17.7449 8.32803C18.2408 7.35239 18.9092 6.60313 19.7447 6.08027C20.5856 5.55741 21.5235 5.29329 22.5585 5.29329C23.4425 5.29329 24.2133 5.47117 24.8763 5.83232C25.5501 6.19347 26.0676 6.66243 26.4287 7.24997V5.47117H30.2774V18.0252H26.4287V16.2464C26.0514 16.8339 25.5285 17.3029 24.8547 17.6641C24.1971 18.0252 23.4209 18.2031 22.5369 18.2031C21.5181 18.2031 20.5856 17.939 19.7447 17.4161C18.9038 16.8771 18.2354 16.117 17.7449 15.1414C17.2652 14.1496 17.0226 13.0122 17.0226 11.7239ZM0 10.1014C0 8.54365 0.33959 7.15295 1.01338 5.94013C1.68717 4.71113 2.62508 3.75705 3.82712 3.08326C5.03994 2.3933 6.41447 2.04832 7.94532 2.04832C9.82115 2.04832 11.4275 2.54423 12.7589 3.53066C14.0957 4.52247 14.9851 5.87005 15.4379 7.57878H11.2065C10.8938 6.92116 10.441 6.41447 9.85888 6.06949C9.28751 5.72451 8.63528 5.55202 7.9022 5.55202C6.71633 5.55202 5.75685 5.96708 5.02377 6.79179C4.29069 7.61651 3.91876 8.72153 3.91876 10.1014C3.91876 11.4814 4.2853 12.5864 5.02377 13.4111C5.75685 14.2358 6.71633 14.6509 7.9022 14.6509C8.63528 14.6509 9.28751 14.4784 9.85888 14.1334C10.4464 13.7884 10.8938 13.2871 11.2065 12.6241H15.4379C14.9905 14.3328 14.0957 15.6858 12.7589 16.6722C11.4221 17.6479 9.82115 18.133 7.94532 18.133C6.41447 18.133 5.04533 17.7934 3.82712 17.1196C2.62508 16.4297 1.68717 15.4756 1.01338 14.2628C0.33959 13.0499 0 11.6592 0 10.1014Z" fill="#164854"/>
<path d="M126.381 10.0796C126.381 11.4757 126.753 12.5915 127.508 13.4323C128.273 14.2571 129.292 14.6721 130.57 14.6721C131.831 14.6721 132.834 14.2517 133.583 13.4108C134.348 12.5699 134.731 11.4595 134.731 10.0796C134.731 8.68348 134.348 7.57308 133.583 6.74836C132.834 5.90747 131.826 5.48702 130.57 5.48702C129.297 5.48702 128.273 5.90208 127.508 6.7268C126.759 7.55152 126.381 8.66731 126.381 10.0796ZM134.348 20.7201L132.321 17.9979C131.723 18.1165 131.136 18.1758 130.564 18.1758C129.082 18.1758 127.713 17.8308 126.468 17.1409C125.239 16.4509 124.252 15.4914 123.519 14.2625C122.797 13.0173 122.441 11.6212 122.441 10.0796C122.441 8.53255 122.802 7.14724 123.519 5.91825C124.252 4.68926 125.239 3.72978 126.468 3.03982C127.713 2.34986 129.076 2.00488 130.564 2.00488C132.052 2.00488 133.405 2.34986 134.634 3.03982C135.879 3.72978 136.855 4.68926 137.561 5.91825C138.283 7.14724 138.639 8.53794 138.639 10.0796C138.639 11.4271 138.359 12.6669 137.809 13.7935C137.27 14.9039 136.51 15.8256 135.534 16.5587L139 20.7201H134.348ZM120.312 2.22589V18.0195H116.463V2.22589H120.312Z" fill="#4BBFA9"/>
</svg>
