<svg width="18" height="9" viewBox="0 0 18 9" fill="none" xmlns="http://www.w3.org/2000/svg">
<path d="M17.3571 4.54105C17.3571 4.45065 17.317 4.37029 17.2567 4.31003L13.3996 0.794401C13.2991 0.714045 13.1685 0.693955 13.048 0.744178C12.9275 0.794401 12.8571 0.904892 12.8571 1.03547V3.28547H0.321429C0.140625 3.28547 0 3.4261 0 3.6069V5.53547C0 5.71628 0.140625 5.8569 0.321429 5.8569H12.8571V8.1069C12.8571 8.23748 12.9375 8.34797 13.048 8.3982C13.1685 8.44842 13.2991 8.42833 13.3996 8.33793L17.2567 4.78212C17.317 4.72186 17.3571 4.63146 17.3571 4.54105Z" fill="#4BBFA9"/>
</svg>
