<svg width="34" height="34" viewBox="0 0 34 34" fill="none" xmlns="http://www.w3.org/2000/svg">
<rect width="165" height="53" transform="translate(-119 -8)" fill="white"/>
<path d="M-105.032 25.529V13.9107H-101.165V25.529H-105.032ZM-100.914 10.3281C-100.914 11.433 -101.751 12.3371 -103.107 12.3371H-103.124C-104.43 12.3371 -105.267 11.433 -105.267 10.3281C-105.267 9.18973 -104.396 8.3192 -103.074 8.3192C-101.751 8.3192 -100.931 9.18973 -100.914 10.3281ZM-91.1205 25.529V19.3181C-91.1205 17.7444 -91.673 16.6897 -93.0625 16.6897C-94.1339 16.6897 -94.7701 17.4096 -95.0547 18.096C-95.1551 18.3471 -95.1719 18.6987 -95.1719 19.0335V25.529H-99.0391C-98.9888 14.9989 -99.0391 13.9107 -99.0391 13.9107H-95.1719V15.6016H-95.2054C-94.7031 14.798 -93.7824 13.6429 -91.7065 13.6429C-89.1618 13.6429 -87.2533 15.3002 -87.2533 18.8661V25.529H-91.1205ZM-83.2857 8.82143C-83.2857 6.1596 -85.4453 4 -88.1071 4H-104.179C-106.84 4 -109 6.1596 -109 8.82143V24.8929C-109 27.5547 -106.84 29.7143 -104.179 29.7143H-88.1071C-85.4453 29.7143 -83.2857 27.5547 -83.2857 24.8929V8.82143Z" fill="#164854" fill-opacity="0.2"/>
<path d="M-26.1568 8.6875C-27.1278 9.10603 -28.1825 9.40737 -29.2706 9.52455C-28.149 8.85491 -27.2952 7.80022 -26.8934 6.54464C-27.9314 7.16406 -29.1032 7.61607 -30.3253 7.85045C-31.3131 6.79576 -32.7193 6.14286 -34.2762 6.14286C-37.2729 6.14286 -39.6836 8.57031 -39.6836 11.5502C-39.6836 11.9688 -39.6334 12.3873 -39.5497 12.7891C-44.0363 12.5547 -48.0374 10.4118 -50.6992 7.13058C-51.168 7.93415 -51.4358 8.85491 -51.4358 9.85937C-51.4358 11.7344 -50.4816 13.3917 -49.0251 14.3627C-49.9124 14.3292 -50.7494 14.0781 -51.4693 13.6763C-51.4693 13.6931 -51.4693 13.7266 -51.4693 13.7433C-51.4693 16.3717 -49.611 18.548 -47.1334 19.0502C-47.5854 19.1674 -48.0709 19.2344 -48.5564 19.2344C-48.9079 19.2344 -49.2427 19.2009 -49.5776 19.1507C-48.8912 21.2935 -46.899 22.8504 -44.5218 22.9007C-46.38 24.3571 -48.707 25.2109 -51.2349 25.2109C-51.6869 25.2109 -52.1055 25.1942 -52.5407 25.144C-50.1468 26.6842 -47.3008 27.5714 -44.2372 27.5714C-34.293 27.5714 -28.8521 19.3348 -28.8521 12.1864C-28.8521 11.952 -28.8521 11.7176 -28.8689 11.4833C-27.8142 10.7132 -26.8934 9.75893 -26.1568 8.6875Z" fill="#164854" fill-opacity="0.2"/>
<path d="M25.4768 4H9.40541C6.74358 4 4.58398 6.1596 4.58398 8.82143V24.8929C4.58398 27.5547 6.74358 29.7143 9.40541 29.7143H18.3117V19.7533H14.9634V15.8694H18.3117V13.0067C18.3117 9.69196 20.3541 7.88393 23.3172 7.88393C24.7235 7.88393 25.9456 7.98437 26.2971 8.0346V11.5L24.2547 11.5167C22.6309 11.5167 22.3295 12.2701 22.3295 13.3917V15.8694H26.1632L25.661 19.7533H22.3295V29.7143H25.4768C28.1387 29.7143 30.2983 27.5547 30.2983 24.8929V8.82143C30.2983 6.1596 28.1387 4 25.4768 4Z" fill="#164854" fill-opacity="0.2"/>
</svg>
