<svg width="34" height="34" viewBox="0 0 34 34" fill="none" xmlns="http://www.w3.org/2000/svg">
<rect width="165" height="53" transform="translate(-6 -8)" fill="white"/>
<path d="M7.96763 25.529V13.9107H11.8348V25.529H7.96763ZM12.0859 10.3281C12.0859 11.433 11.2489 12.3371 9.89286 12.3371H9.87612C8.57031 12.3371 7.73326 11.433 7.73326 10.3281C7.73326 9.18973 8.6038 8.3192 9.92634 8.3192C11.2489 8.3192 12.0692 9.18973 12.0859 10.3281ZM21.8795 25.529V19.3181C21.8795 17.7444 21.327 16.6897 19.9375 16.6897C18.8661 16.6897 18.2299 17.4096 17.9453 18.096C17.8449 18.3471 17.8281 18.6987 17.8281 19.0335V25.529H13.9609C14.0112 14.9989 13.9609 13.9107 13.9609 13.9107H17.8281V15.6016H17.7946C18.2969 14.798 19.2176 13.6429 21.2935 13.6429C23.8382 13.6429 25.7467 15.3002 25.7467 18.8661V25.529H21.8795ZM29.7143 8.82143C29.7143 6.1596 27.5547 4 24.8929 4H8.82143C6.1596 4 4 6.1596 4 8.82143V24.8929C4 27.5547 6.1596 29.7143 8.82143 29.7143H24.8929C27.5547 29.7143 29.7143 27.5547 29.7143 24.8929V8.82143Z" fill="#164854" fill-opacity="0.2"/>
<path d="M86.8432 8.6875C85.8722 9.10603 84.8175 9.40737 83.7294 9.52455C84.851 8.85491 85.7048 7.80022 86.1066 6.54464C85.0686 7.16406 83.8968 7.61607 82.6747 7.85045C81.6869 6.79576 80.2807 6.14286 78.7238 6.14286C75.7271 6.14286 73.3164 8.57031 73.3164 11.5502C73.3164 11.9688 73.3666 12.3873 73.4503 12.7891C68.9637 12.5547 64.9626 10.4118 62.3008 7.13058C61.832 7.93415 61.5642 8.85491 61.5642 9.85937C61.5642 11.7344 62.5184 13.3917 63.9749 14.3627C63.0876 14.3292 62.2506 14.0781 61.5307 13.6763C61.5307 13.6931 61.5307 13.7266 61.5307 13.7433C61.5307 16.3717 63.389 18.548 65.8666 19.0502C65.4146 19.1674 64.9291 19.2344 64.4436 19.2344C64.0921 19.2344 63.7573 19.2009 63.4224 19.1507C64.1088 21.2935 66.101 22.8504 68.4782 22.9007C66.62 24.3571 64.293 25.2109 61.7651 25.2109C61.3131 25.2109 60.8945 25.1942 60.4593 25.144C62.8532 26.6842 65.6992 27.5714 68.7628 27.5714C78.707 27.5714 84.1479 19.3348 84.1479 12.1864C84.1479 11.952 84.1479 11.7176 84.1311 11.4833C85.1858 10.7132 86.1066 9.75893 86.8432 8.6875Z" fill="#164854" fill-opacity="0.2"/>
<path d="M138.477 4H122.405C119.744 4 117.584 6.1596 117.584 8.82143V24.8929C117.584 27.5547 119.744 29.7143 122.405 29.7143H131.312V19.7533H127.963V15.8694H131.312V13.0067C131.312 9.69196 133.354 7.88393 136.317 7.88393C137.723 7.88393 138.946 7.98437 139.297 8.0346V11.5L137.255 11.5167C135.631 11.5167 135.33 12.2701 135.33 13.3917V15.8694H139.163L138.661 19.7533H135.33V29.7143H138.477C141.139 29.7143 143.298 27.5547 143.298 24.8929V8.82143C143.298 6.1596 141.139 4 138.477 4Z" fill="#164854" fill-opacity="0.2"/>
</svg>
