<svg width="34" height="34" viewBox="0 0 34 34" fill="none" xmlns="http://www.w3.org/2000/svg">
<rect width="165" height="53" transform="translate(-62 -8)" fill="white"/>
<path d="M-48.0324 25.529V13.9107H-44.1652V25.529H-48.0324ZM-43.9141 10.3281C-43.9141 11.433 -44.7511 12.3371 -46.1071 12.3371H-46.1239C-47.4297 12.3371 -48.2667 11.433 -48.2667 10.3281C-48.2667 9.18973 -47.3962 8.3192 -46.0737 8.3192C-44.7511 8.3192 -43.9308 9.18973 -43.9141 10.3281ZM-34.1205 25.529V19.3181C-34.1205 17.7444 -34.673 16.6897 -36.0625 16.6897C-37.1339 16.6897 -37.7701 17.4096 -38.0547 18.096C-38.1551 18.3471 -38.1719 18.6987 -38.1719 19.0335V25.529H-42.0391C-41.9888 14.9989 -42.0391 13.9107 -42.0391 13.9107H-38.1719V15.6016H-38.2054C-37.7031 14.798 -36.7824 13.6429 -34.7065 13.6429C-32.1618 13.6429 -30.2533 15.3002 -30.2533 18.8661V25.529H-34.1205ZM-26.2857 8.82143C-26.2857 6.1596 -28.4453 4 -31.1071 4H-47.1786C-49.8404 4 -52 6.1596 -52 8.82143V24.8929C-52 27.5547 -49.8404 29.7143 -47.1786 29.7143H-31.1071C-28.4453 29.7143 -26.2857 27.5547 -26.2857 24.8929V8.82143Z" fill="#164854" fill-opacity="0.2"/>
<path d="M30.8432 8.6875C29.8722 9.10603 28.8175 9.40737 27.7294 9.52455C28.851 8.85491 29.7048 7.80022 30.1066 6.54464C29.0686 7.16406 27.8968 7.61607 26.6747 7.85045C25.6869 6.79576 24.2807 6.14286 22.7238 6.14286C19.7271 6.14286 17.3164 8.57031 17.3164 11.5502C17.3164 11.9688 17.3666 12.3873 17.4503 12.7891C12.9637 12.5547 8.96261 10.4118 6.30078 7.13058C5.83203 7.93415 5.56417 8.85491 5.56417 9.85937C5.56417 11.7344 6.51841 13.3917 7.97489 14.3627C7.08761 14.3292 6.25056 14.0781 5.53069 13.6763C5.53069 13.6931 5.53069 13.7266 5.53069 13.7433C5.53069 16.3717 7.38895 18.548 9.86663 19.0502C9.41462 19.1674 8.92913 19.2344 8.44364 19.2344C8.09208 19.2344 7.75725 19.2009 7.42243 19.1507C8.10882 21.2935 10.101 22.8504 12.4782 22.9007C10.62 24.3571 8.29297 25.2109 5.76507 25.2109C5.31306 25.2109 4.89453 25.1942 4.45926 25.144C6.85324 26.6842 9.69922 27.5714 12.7628 27.5714C22.707 27.5714 28.1479 19.3348 28.1479 12.1864C28.1479 11.952 28.1479 11.7176 28.1311 11.4833C29.1858 10.7132 30.1066 9.75893 30.8432 8.6875Z" fill="#164854" fill-opacity="0.2"/>
<path d="M82.4768 4H66.4054C63.7436 4 61.584 6.1596 61.584 8.82143V24.8929C61.584 27.5547 63.7436 29.7143 66.4054 29.7143H75.3117V19.7533H71.9634V15.8694H75.3117V13.0067C75.3117 9.69196 77.3541 7.88393 80.3172 7.88393C81.7235 7.88393 82.9456 7.98437 83.2971 8.0346V11.5L81.2547 11.5167C79.6309 11.5167 79.3295 12.2701 79.3295 13.3917V15.8694H83.1632L82.661 19.7533H79.3295V29.7143H82.4768C85.1387 29.7143 87.2983 27.5547 87.2983 24.8929V8.82143C87.2983 6.1596 85.1387 4 82.4768 4Z" fill="#164854" fill-opacity="0.2"/>
</svg>
