<svg width="168" height="29" viewBox="0 0 168 29" fill="none" xmlns="http://www.w3.org/2000/svg">
<path d="M133.499 12.7188C133.499 11.9243 133.225 11.2861 132.685 10.8172C132.144 10.3483 131.461 10.1073 130.647 10.1073C129.865 10.1073 129.207 10.3353 128.66 10.7846C128.133 11.2405 127.807 11.8787 127.683 12.7123H133.499V12.7188ZM138.26 13.9432C138.26 14.3795 138.234 14.8289 138.175 15.3043H127.657C127.729 16.2486 128.029 16.9715 128.556 17.4795C129.097 17.9679 129.761 18.2154 130.542 18.2154C131.702 18.2154 132.509 17.7269 132.958 16.7501H137.908C137.654 17.7465 137.192 18.6452 136.521 19.4397C135.87 20.2342 135.042 20.8594 134.046 21.3153C133.05 21.7712 131.936 21.9926 130.705 21.9926C129.22 21.9926 127.898 21.6735 126.739 21.0418C125.58 20.4101 124.675 19.5048 124.023 18.3261C123.372 17.1473 123.047 15.7732 123.047 14.1972C123.047 12.6212 123.366 11.2405 123.997 10.0683C124.649 8.88951 125.554 7.98428 126.713 7.35257C127.872 6.72086 129.207 6.40175 130.712 6.40175C132.177 6.40175 133.486 6.70784 134.626 7.32652C135.765 7.94521 136.658 8.82439 137.289 9.96407C137.927 11.0907 138.26 12.4193 138.26 13.9432ZM121.373 17.8311V21.7712H119.009C117.322 21.7712 116.007 21.3609 115.069 20.5468C114.124 19.7132 113.656 18.3651 113.656 16.4961V10.459H111.806V6.59713H113.656V2.89805H118.305V6.59713H121.347V10.459H118.305V16.5482C118.305 17.004 118.416 17.3297 118.631 17.525C118.846 17.7269 119.211 17.8246 119.719 17.8246H121.373V17.8311ZM104.903 14.1907C104.903 13.0314 104.577 12.1132 103.926 11.4424C103.294 10.7716 102.513 10.4395 101.588 10.4395C100.663 10.4395 99.8752 10.7716 99.2239 11.4424C98.5922 12.0936 98.2731 12.9989 98.2731 14.1581C98.2731 15.3173 98.5922 16.2421 99.2239 16.9324C99.8752 17.6032 100.663 17.9353 101.588 17.9353C102.513 17.9353 103.294 17.6032 103.926 16.9324C104.577 16.2616 104.903 15.3499 104.903 14.1907ZM93.545 14.1646C93.545 12.6081 93.8381 11.2405 94.4177 10.0618C95.0169 8.883 95.8244 7.97777 96.8338 7.34606C97.8498 6.71435 98.9829 6.39524 100.233 6.39524C101.301 6.39524 102.233 6.61015 103.034 7.04649C103.848 7.48282 104.473 8.0494 104.909 8.75926V6.61015H109.559V21.7777H104.909V19.6286C104.453 20.3384 103.822 20.905 103.008 21.3413C102.213 21.7777 101.275 21.9926 100.207 21.9926C98.9764 21.9926 97.8498 21.6735 96.8338 21.0418C95.8179 20.3905 95.0103 19.4723 94.4177 18.2935C93.8316 17.0952 93.545 15.7211 93.545 14.1646ZM84.2713 17.4208L87.5601 6.60364H92.5096L87.1303 21.7712H81.3928L76.0135 6.60364H80.989L84.2713 17.4208ZM74.0858 6.60364V21.7712H69.4359V6.60364H74.0858ZM71.7739 5.02762C70.9598 5.02762 70.289 4.79317 69.7615 4.31776C69.2535 3.82933 68.9996 3.23018 68.9996 2.52684C68.9996 1.80395 69.2535 1.20481 69.7615 0.735909C70.289 0.247474 70.9598 0 71.7739 0C72.5684 0 73.2262 0.247474 73.7341 0.735909C74.2616 1.20481 74.5221 1.80395 74.5221 2.52684C74.5221 3.2367 74.2616 3.82933 73.7341 4.31776C73.2196 4.79317 72.5684 5.02762 71.7739 5.02762ZM66.8439 17.8311V21.7712H64.4799C62.7932 21.7712 61.4777 21.3609 60.5399 20.5468C59.5956 19.7132 59.1267 18.3651 59.1267 16.4961V10.459H57.2771V6.59713H59.1267V2.89805H63.7766V6.59713H66.8179V10.459H63.7766V16.5482C63.7766 17.004 63.8873 17.3297 64.1022 17.525C64.3171 17.7204 64.6818 17.8246 65.1898 17.8246H66.8439V17.8311ZM51.2205 14.1646C51.2205 13.0054 50.8949 12.1002 50.2437 11.4489C49.612 10.7781 48.8239 10.446 47.8796 10.446C46.9549 10.446 46.1669 10.7781 45.5156 11.4489C44.8839 12.1197 44.5648 13.0314 44.5648 14.1972C44.5648 15.3564 44.8839 16.2746 45.5156 16.9454C46.1669 17.6162 46.9549 17.9483 47.8796 17.9483C48.8044 17.9483 49.5924 17.6162 50.2437 16.9454C50.8949 16.2486 51.2205 15.3238 51.2205 14.1646ZM44.5908 8.75275C45.0467 8.04289 45.6719 7.47631 46.4664 7.03997C47.261 6.60364 48.1987 6.38873 49.2668 6.38873C50.5172 6.38873 51.6504 6.70784 52.6663 7.33955C53.6822 7.97126 54.4768 8.883 55.0564 10.0552C55.6555 11.234 55.9551 12.6016 55.9551 14.1581C55.9551 15.7146 55.6555 17.0952 55.0564 18.287C54.4768 19.4658 53.6822 20.3775 52.6663 21.0353C51.6504 21.667 50.5172 21.9861 49.2668 21.9861C48.2183 21.9861 47.2805 21.7712 46.4664 21.3348C45.6719 20.8985 45.0467 20.3384 44.5908 19.6481V29H39.9409V6.60364H44.5908V8.75275ZM31.9306 14.1907C31.9306 13.0314 31.605 12.1132 30.9537 11.4424C30.322 10.7716 29.5405 10.4395 28.6158 10.4395C27.691 10.4395 26.903 10.7716 26.2517 11.4424C25.62 12.0936 25.3009 12.9989 25.3009 14.1581C25.3009 15.3173 25.62 16.2421 26.2517 16.9324C26.903 17.6032 27.691 17.9353 28.6158 17.9353C29.5405 17.9353 30.322 17.6032 30.9537 16.9324C31.605 16.2616 31.9306 15.3499 31.9306 14.1907ZM20.5664 14.1646C20.5664 12.6081 20.8594 11.2405 21.439 10.0618C22.0382 8.883 22.8457 7.97777 23.8552 7.34606C24.8711 6.71435 26.0043 6.39524 27.2547 6.39524C28.3227 6.39524 29.254 6.61015 30.055 7.04649C30.8691 7.48282 31.4943 8.0494 31.9306 8.75926V6.61015H36.5805V21.7777H31.9306V19.6286C31.4747 20.3384 30.843 20.905 30.029 21.3413C29.2345 21.7777 28.2967 21.9926 27.2286 21.9926C25.9978 21.9926 24.8711 21.6735 23.8552 21.0418C22.8392 20.3905 22.0317 19.4723 21.439 18.2935C20.8594 17.0952 20.5664 15.7211 20.5664 14.1646ZM0 12.2044C0 10.3223 0.410285 8.64204 1.22434 7.17674C2.0384 5.6919 3.17157 4.53919 4.62385 3.72513C6.08915 2.89153 7.74983 2.47474 9.59937 2.47474C11.8657 2.47474 13.8064 3.07388 15.415 4.26566C17.0301 5.46396 18.1047 7.09207 18.6517 9.15652H13.5394C13.1617 8.362 12.6146 7.74983 11.9113 7.33303C11.221 6.91624 10.433 6.70784 9.54727 6.70784C8.11453 6.70784 6.95531 7.2093 6.06962 8.2057C5.18392 9.20211 4.73456 10.5372 4.73456 12.2044C4.73456 13.8715 5.17741 15.2066 6.06962 16.203C6.95531 17.1994 8.11453 17.7009 9.54727 17.7009C10.433 17.7009 11.221 17.4925 11.9113 17.0757C12.6212 16.6589 13.1617 16.0532 13.5394 15.2522H18.6517C18.1112 17.3166 17.0301 18.9513 15.415 20.1431C13.7999 21.3218 11.8657 21.9079 9.59937 21.9079C7.74983 21.9079 6.09567 21.4976 4.62385 20.6836C3.17157 19.85 2.0384 18.6973 1.22434 17.232C0.410285 15.7667 0 14.0865 0 12.2044Z" fill="#164854"/>
<path d="M152.691 12.1785C152.691 13.8652 153.141 15.2133 154.052 16.2293C154.977 17.2257 156.208 17.7271 157.751 17.7271C159.275 17.7271 160.487 17.2192 161.392 16.2032C162.317 15.1873 162.779 13.8457 162.779 12.1785C162.779 10.4918 162.317 9.15023 161.392 8.15382C160.487 7.13788 159.269 6.6299 157.751 6.6299C156.214 6.6299 154.977 7.13136 154.052 8.12777C153.147 9.12418 152.691 10.4723 152.691 12.1785ZM162.317 25.0341L159.868 21.7453C159.145 21.8886 158.435 21.9602 157.745 21.9602C155.954 21.9602 154.3 21.5434 152.795 20.7099C151.311 19.8763 150.119 18.717 149.233 17.2322C148.36 15.7278 147.931 14.0411 147.931 12.1785C147.931 10.3094 148.367 8.63574 149.233 7.1509C150.119 5.66606 151.311 4.50684 152.795 3.67324C154.3 2.83965 155.947 2.42285 157.745 2.42285C159.542 2.42285 161.177 2.83965 162.662 3.67324C164.166 4.50684 165.345 5.66606 166.198 7.1509C167.071 8.63574 167.501 10.316 167.501 12.1785C167.501 13.8066 167.162 15.3045 166.498 16.6656C165.846 18.0072 164.928 19.1208 163.749 20.0065L167.937 25.0341H162.317ZM145.358 2.68986V21.7714H140.708V2.68986H145.358Z" fill="#4BBFA9"/>
</svg>
