<?xml version="1.0" encoding="UTF-8"?>
<svg width="59px" height="11px" viewBox="0 0 59 11" version="1.1" xmlns="http://www.w3.org/2000/svg" xmlns:xlink="http://www.w3.org/1999/xlink">
    <title>Group</title>
    <g id="Page-1" stroke="none" stroke-width="1" fill="none" fill-rule="evenodd">
        <g id="Artboard" transform="translate(-20.000000, -12.000000)" fill="#FFEF27">
            <g id="Group" transform="translate(20.000000, 12.000000)">
                <polygon id="Star" points="5.5 8.25 2.26718111 9.94959347 2.88459458 6.34979673 0.26918916 3.80040653 3.88359056 3.27520327 5.5 0 7.11640944 3.27520327 10.7308108 3.80040653 8.11540542 6.34979673 8.73281889 9.94959347"></polygon>
                <polygon id="Star-Copy" points="17.5 8.25 14.2671811 9.94959347 14.8845946 6.34979673 12.2691892 3.80040653 15.8835906 3.27520327 17.5 0 19.1164094 3.27520327 22.7308108 3.80040653 20.1154054 6.34979673 20.7328189 9.94959347"></polygon>
                <polygon id="Star-Copy-2" points="29.5 8.25 26.2671811 9.94959347 26.8845946 6.34979673 24.2691892 3.80040653 27.8835906 3.27520327 29.5 0 31.1164094 3.27520327 34.7308108 3.80040653 32.1154054 6.34979673 32.7328189 9.94959347"></polygon>
                <polygon id="Star-Copy-3" points="41.5 8.25 38.2671811 9.94959347 38.8845946 6.34979673 36.2691892 3.80040653 39.8835906 3.27520327 41.5 0 43.1164094 3.27520327 46.7308108 3.80040653 44.1154054 6.34979673 44.7328189 9.94959347"></polygon>
                <polygon id="Star-Copy-4" points="53.5 8.25 50.2671811 9.94959347 50.8845946 6.34979673 48.2691892 3.80040653 51.8835906 3.27520327 53.5 0 55.1164094 3.27520327 58.7308108 3.80040653 56.1154054 6.34979673 56.7328189 9.94959347"></polygon>
            </g>
        </g>
    </g>
</svg>