<?xml version="1.0" encoding="UTF-8"?>
<svg width="735px" height="382px" viewBox="0 0 735 382" version="1.1" xmlns="http://www.w3.org/2000/svg" xmlns:xlink="http://www.w3.org/1999/xlink">
    <title>logo-white-plaid</title>
    <g id="Page-1" stroke="none" stroke-width="1" fill="none" fill-rule="evenodd">
        <g id="Artboard" transform="translate(-256.000000, -75.000000)" fill="#FFFFFF" fill-rule="nonzero">
            <g id="plaid-seeklogo.com" transform="translate(388.000000, 178.000000)">
                <path d="M247.059965,60.9811321 C243.129733,57.7122642 236.369733,56.0778302 226.779965,56.0778302 L205.242291,56.0778302 L205.242291,122 L221.356244,122 L221.356244,101.29717 L228.587872,101.29717 C237.312988,101.29717 243.75857,99.3514151 247.846012,95.5377358 C252.483686,91.2570755 254.763221,85.5754717 254.763221,78.4150943 C254.763221,71.0990566 252.169267,65.2617925 247.059965,60.9811321 M228.116244,86.3537736 L221.27764,86.3537736 L221.27764,70.9433962 L227.408802,70.9433962 C234.876244,70.9433962 238.570663,73.5117925 238.570663,78.7264151 C238.649267,83.7853774 235.112058,86.3537736 228.116244,86.3537736 M282.274849,56 L265.532058,56 L265.532058,121.92217 L301.768802,121.92217 L301.768802,106.978774 L282.274849,106.978774 L282.274849,56 Z M334.704151,56 L308.292988,121.92217 L326.372058,121.92217 L329.830663,112.349057 L352.783221,112.349057 L355.927407,121.92217 L374.242291,121.92217 L348.066942,56 L334.704151,56 Z M334.468337,99.0400943 L341.385547,76.4693396 L348.224151,99.0400943 L334.468337,99.0400943 L334.468337,99.0400943 Z" id="Shape"></path>
                <path d="M382.570908,121.966387 L399.336958,121.966387 L399.336958,55.659885 L382.570908,55.659885 L382.570908,121.966387 Z M464.285815,68.1070323 C462.170473,65.0539584 459.428362,62.4705882 456.29452,60.4352057 C451.202029,57.2255639 444.307578,55.659885 435.611169,55.659885 L413.517589,55.659885 L413.517589,121.966387 L439.293432,121.966387 C448.61661,121.966387 456.137828,118.913313 461.778742,112.807165 C467.419656,106.701017 470.240113,98.6377709 470.240113,88.539142 C470.31846,80.5541796 468.281463,73.7434763 464.285815,68.1070323 M437.491474,106.935869 L430.361985,106.935869 L430.361985,70.6904025 L437.648166,70.6904025 C442.740658,70.6904025 446.736305,72.2560814 449.478416,75.4657231 C452.220527,78.6753649 453.630756,83.2158337 453.630756,89.0871296 C453.552409,100.986289 448.22488,106.935869 437.491474,106.935869 M69.7352177,0 L15.4414202,14.1693941 L0.477328833,68.7333038 L19.2803756,87.9128704 L0.242290749,106.779301 L14.3445758,161.578063 L68.4033352,176.686864 L87.4414201,157.820433 L106.166121,177 L160.459918,162.830606 L175.42401,108.266696 L156.699309,89.0871296 L175.737394,70.2206988 L161.635109,15.4219372 L107.576349,0.313135781 L88.5382644,19.1795666 L69.7352177,0 Z M36.4381557,24.6594427 L65.034456,17.144184 L77.5698205,29.982751 L59.315196,48.0663423 L36.4381557,24.6594427 Z M99.1933243,30.2176028 L111.885381,17.6138877 L140.324989,25.5988501 L117.056219,48.6926139 C117.134565,48.6143299 99.1933243,30.2176028 99.1933243,30.2176028 Z M17.635109,64.271119 L25.5480578,35.5409111 L48.425098,58.9478107 L30.1704735,77.031402 L17.635109,64.271119 L17.635109,64.271119 Z M127.867971,59.6523662 L151.136741,36.5586024 L158.579614,65.4453782 L145.887557,78.0490933 C145.809211,78.0490933 127.867971,59.6523662 127.867971,59.6523662 Z M70.0486018,59.1826625 L88.3032264,41.0990712 L106.244467,59.4957983 L87.9898422,77.5793897 L70.0486018,59.1826625 Z M40.9038793,88.0694383 L59.1585039,69.985847 L77.0997443,88.3825741 L58.8451198,106.466165 C58.8451198,106.466165 40.9038793,88.0694383 40.9038793,88.0694383 Z M98.7232481,88.539142 L116.977873,70.4555506 L134.919113,88.8522778 L116.664489,106.936117 C116.664489,107.014153 98.7232481,88.539142 98.7232481,88.539142 Z M17.3217249,111.554622 L30.0137814,98.9509067 L47.9550219,117.347634 L24.7645976,140.441398 C24.6862515,140.441398 17.3217249,111.554622 17.3217249,111.554622 Z M69.5785256,117.504202 L87.8331502,99.4206103 L105.774391,117.817337 L87.5197661,135.900929 C87.5197661,135.900929 69.5785256,117.504202 69.5785256,117.504202 Z M127.397894,117.973905 L145.652519,99.890314 L158.187883,112.728881 L150.353281,141.459089 C150.274935,141.459089 127.397894,117.973905 127.397894,117.973905 Z M35.4196574,151.40115 L58.6100817,128.307386 L76.5513221,146.704113 L63.8592656,159.307828 L35.4196574,151.40115 L35.4196574,151.40115 Z M98.2531719,146.938965 L116.507796,128.855374 L139.384837,152.262273 L110.788536,159.777532 C110.788536,159.777532 98.2531719,146.938965 98.2531719,146.938965 Z" id="Shape"></path>
            </g>
        </g>
    </g>
</svg>