<?xml version="1.0" encoding="UTF-8"?>
<svg width="735px" height="382px" viewBox="0 0 735 382" version="1.1" xmlns="http://www.w3.org/2000/svg" xmlns:xlink="http://www.w3.org/1999/xlink">
    <title>logo-white-intercom</title>
    <g id="Page-1" stroke="none" stroke-width="1" fill="none" fill-rule="evenodd">
        <g id="Artboard" transform="translate(-254.000000, -875.000000)" fill="#FFFFFF" fill-rule="nonzero">
            <g id="intercom-vector-logo" transform="translate(321.000000, 991.000000)">
                <path d="M131.6,0.8 L19.1,0.8 C8.7,0.8 0.4,9.1 0.4,19.3 L0.4,130.6 C0.4,140.8 8.8,149.1 19.1,149.1 L131.5,149.1 C141.9,149.1 150.200884,140.8 150.200884,130.6 L150.200884,19.4 C150.3,9.1 141.9,0.8 131.6,0.8 Z M95.3,28 C95.3,25.3 97.5,23.1 100.3,23.1 C103.1,23.1 105.3,25.3 105.3,28 L105.3,94.1 C105.3,96.8 103.1,99 100.3,99 C97.5,99 95.3,96.8 95.3,94.1 L95.3,28 Z M70.4,25.5 C70.4,22.8 72.6,20.6 75.4,20.6 C78.2,20.6 80.4,22.8 80.4,25.5 L80.4,97.2 C80.4,99.9 78.2,102.1 75.4,102.1 C72.6,102.1 70.4,99.9 70.4,97.2 L70.4,25.5 Z M45.4,28 C45.4,25.3 47.6,23.1 50.4,23.1 C53.2,23.1 55.4,25.3 55.4,28 L55.4,94.1 C55.4,96.8 53.2,99 50.4,99 C47.6,99 45.4,96.8 45.4,94.1 L45.4,28 Z M20.4,37.9 C20.4,35.2 22.6,33 25.4,33 C28.2,33 30.4,35.2 30.4,37.9 L30.4,82.4 C30.4,85.1 28.2,87.3 25.4,87.3 C22.6,87.3 20.4,85.1 20.4,82.4 L20.4,37.9 Z M128.6,113.3 C127.8,114 109.3,129.3 75.4,129.3 C41.5,129.3 23,113.9 22.2,113.3 C20.1,111.5 19.9,108.4 21.7,106.3 C23.5,104.2 26.6,104 28.7,105.8 C29,106 45.5,119.5 75.4,119.5 C105.7,119.5 122,106 122.1,105.9 C124.2,104.1 127.3,104.4 129.1,106.4 C130.9,108.4 130.7,111.6 128.6,113.3 Z M130.3,82.4 C130.3,85.1 128.1,87.3 125.3,87.3 C122.5,87.3 120.3,85.1 120.3,82.4 L120.3,37.9 C120.3,35.2 122.5,33 125.3,33 C128.1,33 130.3,35.2 130.3,37.9 L130.3,82.4 Z" id="Shape"></path>
                <path d="M208.4,96.4 C208.4,98.9 206.5,100.9 203.8,100.9 C201.2,100.9 199.3,98.9 199.3,96.4 L199.3,53.4 C199.3,50.9 201.2,48.9 203.9,48.9 C206.5,48.9 208.4,50.9 208.4,53.4 L208.4,96.4 Z" id="Path"></path>
                <path d="M267.2,53.4 L267.2,92.7 C267.2,98 264.4,101 259.8,101 L259.4,101 C255.1,101 253.1,98.5 251.2,94.9 L242,77.1 L233.9,58.7 L234.1,76.5 L234.2,96.4 C234.2,98.9 232.3,100.9 229.6,100.9 C227,100.9 225.1,98.9 225.1,96.4 L225.1,57.1 C225.1,52.2 227.9,48.8 232.9,48.8 L233.3,48.8 C237.9,48.8 239.8,51.3 241.6,54.9 L250.6,72.6 L258.3,89.8 L258.1,73.3 L258,53.4 C258,50.9 259.9,48.9 262.6,48.9 C265.3,48.9 267.2,51 267.2,53.4 Z" id="Path"></path>
                <path d="M303.6,96.4 C303.6,98.9 301.7,100.9 299,100.9 C296.4,100.9 294.5,98.9 294.5,96.4 L294.5,57.5 L283.2,57.5 C280.9,57.5 279,55.8 279,53.2 C279,50.7 280.9,49 283.2,49 L314.9,49 C317.2,49 319.1,50.7 319.1,53.3 C319.1,55.8 317.2,57.5 314.9,57.5 L303.6,57.5 L303.6,96.4 L303.6,96.4 Z" id="Path"></path>
                <path d="M331,94.9 L331,54.5 C331,50.7 333.1,48.6 337,48.7 L363.2,48.7 C365.5,48.7 367.4,50.5 367.4,53 C367.4,55.5 365.5,57.2 363.2,57.2 L340,57.2 L340,69.7 L360.4,69.7 C362.7,69.7 364.5,71.4 364.5,73.8 C364.5,76.2 362.7,77.9 360.4,77.9 L340,77.9 L340,92.3 L363.1,92.3 C365.4,92.3 367.3,94.1 367.3,96.6 C367.3,99.1 365.4,100.8 363.1,100.8 L336.7,100.8 C333,100.9 330.8,98.8 331,94.9 Z" id="Path"></path>
                <path d="M419.1,95 C420.3,97.1 419.5,99.8 417,101.1 C414.5,102.3 411.8,101.4 410.6,99.3 L400.5,80.6 L390.9,80.6 L391,96.5 C391,99 389.1,101 386.4,101 C383.8,101 381.9,99 381.9,96.5 L381.9,54.6 C381.9,50.8 384,48.7 387.9,48.8 L405,48.8 C416.9,48.8 421.8,56.5 421.8,64.4 C421.8,71.9 417.4,77.4 409.9,78.9 L419.1,95 Z M390.8,72.4 L405.2,72.4 C410.1,72.4 412.6,69.3 412.6,64.8 C412.6,60.4 409.9,57.3 405.1,57.3 L390.8,57.3 L390.8,72.4 L390.8,72.4 Z" id="Shape"></path>
                <path d="M440.6,97 C435.1,92.1 432.7,84.5 432.7,74.9 C432.7,65.2 435.1,57.7 440.5,52.9 C443.8,50 448.4,48 454.9,48 C460.7,48 465.1,49.3 468.4,52.1 C471.3,54.4 473.4,57.7 474.7,62.3 C475.4,64.7 473.7,67.1 470.9,67.6 C468.3,68 466.2,66.4 465.4,64 C464.5,61.7 463.4,60 462,58.8 C460.1,57.1 457.8,56.4 454.7,56.4 C451.4,56.4 448.6,57.3 446.5,59.5 C443.4,62.6 442.1,68 442.1,74.9 C442.1,81.7 443.3,87.2 446.5,90.3 C448.6,92.4 451.4,93.4 454.6,93.4 C457.9,93.4 460.5,92.5 462.6,90.6 C463.7,89.6 464.6,88.3 465.3,86.7 C466.2,84.4 468.2,82.8 470.8,83.4 C473.3,84 474.9,86.5 474.1,88.9 C472.8,92.9 470.5,96.1 467.5,98.3 C464.2,100.7 460,101.9 454.8,101.9 C448,101.8 443.8,99.8 440.6,97 Z" id="Path"></path>
                <path d="M484.9,74.9 C484.9,58.6 491.6,48 507.4,48 C523,48 529.8,58.3 529.8,74.9 C529.8,91.7 523,101.8 507.4,101.8 C491.5,101.8 484.9,91.7 484.9,74.9 Z M520.5,74.9 C520.5,62.5 516,56.5 507.3,56.5 C498.8,56.5 494.3,62.5 494.3,74.9 C494.3,87.3 498.7,93.3 507.3,93.3 C515.9,93.3 520.5,87.3 520.5,74.9 Z" id="Shape"></path>
                <path d="M600.4,96.4 C600.4,98.9 598.5,100.9 595.8,100.9 C593.2,100.9 591.3,98.9 591.3,96.4 L591.3,76.9 L591.5,57.9 L585.2,77.2 L578.8,96.2 C577.7,99.5 575.5,100.9 572.6,100.9 C569.6,100.9 567.4,99.5 566.3,96.2 L559.7,77.3 L553.7,58.3 L553.9,77 L553.9,96.5 C553.9,99 552,101 549.3,101 C546.7,101 544.8,99 544.8,96.5 L544.8,57.6 C544.8,52.2 547.7,49.1 552.8,49.1 C557.6,49.1 560.3,51.6 561.8,56.3 L568.5,76.2 L572.6,89.7 L576.7,76.2 L583.4,56.3 C584.9,51.6 587.5,49.1 592.4,49.1 C597.5,49.1 600.3,52.2 600.3,57.6 L600.4,96.4 Z" id="Path"></path>
            </g>
        </g>
    </g>
</svg>