<?xml version="1.0" encoding="UTF-8"?>
<svg width="735px" height="382px" viewBox="0 0 735 382" version="1.1" xmlns="http://www.w3.org/2000/svg" xmlns:xlink="http://www.w3.org/1999/xlink">
    <title>logo-white-onelogin</title>
    <defs>
        <polygon id="path-1" points="0 0 513 0 513 127 0 127"></polygon>
    </defs>
    <g id="Page-1" stroke="none" stroke-width="1" fill="none" fill-rule="evenodd">
        <g id="Artboard" transform="translate(-254.000000, -1707.000000)">
            <g id="OneLogin-01" transform="translate(365.000000, 1835.000000)">
                <mask id="mask-2" fill="white">
                    <use xlink:href="#path-1"></use>
                </mask>
                <g id="Clip-2"></g>
                <path d="M391.575008,62.5998847 C391.575008,74.1120704 382.953797,83.466513 371.098578,83.466513 C359.244764,83.466513 351.340348,73.3928227 351.340348,62.5998847 L351.340348,61.880637 C351.340348,50.7273715 359.601756,41.3729289 371.098578,41.3729289 C382.5954,41.3729289 391.575008,50.7273715 391.575008,62.5998847 Z M498.271981,94.259451 C498.271981,95.3390263 498.988775,96.0582739 500.068184,96.0582739 L511.203797,96.0582739 C512.2818,96.0582739 513,95.3390263 513,94.259451 L513,56.8444957 C513,41.0140088 503.659184,28.0619202 483.900953,28.0619202 L483.542556,28.0619202 C473.843342,28.0619202 466.657126,31.3006461 462.346521,34.8982921 L462.346521,31.3006461 C462.346521,30.2210708 461.628321,29.5018231 460.550318,29.5018231 L449.414704,29.5018231 C448.335296,29.5018231 447.617096,30.2210708 447.617096,31.3006461 L447.617096,93.9005309 C447.617096,94.9786986 448.335296,95.6979463 449.414704,95.6979463 L460.550318,95.6979463 C461.628321,95.6979463 462.346521,94.9786986 462.346521,93.9005309 L462.346521,59.3625664 C462.346521,48.5696284 467.735129,40.6536812 480.668351,40.6536812 C493.600167,40.6536812 498.630378,48.5696284 498.630378,59.3625664 L498.630378,94.259451 L498.271981,94.259451 Z M419.596052,13.3110087 C419.596052,14.3919915 420.315658,15.1112392 421.392255,15.1112392 L432.529274,15.1112392 C433.607277,15.1112392 434.325477,14.3919915 434.325477,13.3110087 L434.325477,1.43990291 C434.325477,0.720655222 433.967079,0 432.889077,0 L421.392255,0 C420.315658,0 419.955855,0.720655222 419.955855,1.43990291 L419.955855,13.3110087 L419.596052,13.3110087 Z M419.596052,94.259451 C419.596052,95.3390263 420.315658,96.0582739 421.392255,96.0582739 L432.529274,96.0582739 C433.607277,96.0582739 434.325477,95.3390263 434.325477,94.259451 L434.325477,31.3006461 C434.325477,30.5799909 433.967079,29.8607432 432.889077,29.8607432 L421.392255,29.8607432 C420.315658,29.8607432 419.955855,30.5799909 419.955855,31.3006461 L419.955855,94.259451 L419.596052,94.259451 Z M256.858397,62.5998847 C256.858397,81.3073624 271.947625,97.1378493 292.42546,97.1378493 C312.90189,97.1378493 327.989712,81.3073624 327.989712,62.5998847 L327.989712,61.880637 C327.989712,43.1731594 312.90189,28.0619202 292.42546,28.0619202 C271.947625,28.0619202 256.858397,43.1731594 256.858397,62.5998847 Z M312.90189,62.5998847 C312.90189,74.1120704 304.279274,83.466513 292.42546,83.466513 C280.928638,83.466513 272.665825,73.3928227 272.665825,62.5998847 L272.665825,61.880637 C272.665825,50.7273715 280.928638,41.3729289 292.42546,41.3729289 C304.279274,41.3729289 312.90189,50.7273715 312.90189,62.5998847 Z M0,62.5998847 C0,81.3073624 15.0878219,97.1378493 35.5656575,97.1378493 C56.0420877,97.1378493 71.1299096,81.3073624 71.1299096,62.5998847 L71.1299096,61.880637 C71.1299096,43.1731594 56.0420877,28.0619202 35.5656575,28.0619202 C15.0878219,28.0619202 0,43.1731594 0,62.5998847 Z M56.0420877,62.5998847 C56.0420877,74.1120704 47.4194712,83.466513 35.5656575,83.466513 C23.7104384,83.466513 15.8074274,73.3928227 15.8074274,62.5998847 L15.8074274,61.880637 C15.8074274,50.7273715 24.0702411,41.3729289 35.5656575,41.3729289 C47.061074,41.3729289 56.0420877,50.7273715 56.0420877,62.5998847 Z M341.281332,113.686176 C346.310137,119.8033 357.087353,127 372.176581,127 C393.372616,127 405.946036,114.046504 405.946036,93.5402033 L405.946036,31.6609737 C405.946036,30.5799909 405.22643,29.8607432 404.149833,29.8607432 L393.731014,29.8607432 C392.653011,29.8607432 391.934811,30.5799909 391.934811,31.6609737 L391.934811,35.2572122 C387.264403,31.3006461 381.157595,28.4222478 371.098578,28.4222478 C352.058548,28.4222478 335.532921,42.4539117 335.532921,62.9602123 C335.532921,83.8268406 351.698745,97.4967693 371.098578,97.4967693 C380.439395,97.4967693 386.546203,94.259451 391.216611,90.661805 L391.216611,94.9786986 C391.216611,106.492292 384.390197,114.406832 371.816778,114.406832 C361.399364,114.406832 354.572951,108.650035 349.903948,104.333141 C349.184342,103.613894 347.747942,103.613894 347.029742,104.333141 L341.281332,110.807778 C340.204734,111.528433 340.204734,112.608009 341.281332,113.686176 Z M131.124205,94.259451 C131.124205,95.3390263 131.842405,96.0582739 132.920408,96.0582739 L143.697625,96.0582739 C144.775627,96.0582739 145.493827,95.3390263 145.493827,94.259451 L145.493827,56.8444957 C145.493827,41.0140088 136.153011,28.0619202 116.394781,28.0619202 L116.036384,28.0619202 C106.335764,28.0619202 99.1509534,31.3006461 94.8403479,34.8982921 L94.8403479,31.3006461 C94.8403479,30.2210708 94.1221479,29.5018231 93.0441452,29.5018231 L81.907126,29.5018231 C80.8291233,29.5018231 80.1123288,30.2210708 80.1123288,31.3006461 L80.1123288,93.9005309 C80.1123288,94.9786986 80.8291233,95.6979463 81.907126,95.6979463 L93.0441452,95.6979463 C94.1221479,95.6979463 94.8403479,94.9786986 94.8403479,93.9005309 L94.8403479,59.3625664 C94.8403479,48.5696284 100.228956,40.6536812 113.162178,40.6536812 C126.093995,40.6536812 131.124205,48.5696284 131.124205,59.3625664 L131.124205,94.259451 Z M233.867564,94.259451 C233.867564,95.3390263 234.585764,96.0582739 235.663767,96.0582739 L246.800786,96.0582739 C247.878789,96.0582739 248.596989,95.3390263 248.596989,94.259451 L248.596989,1.43990291 C248.237186,0.720655222 247.878789,0 246.800786,0 L235.303964,0 C234.227367,0 233.867564,0.720655222 233.867564,1.43990291 L233.867564,94.259451 Z M154.115038,62.9602123 C154.115038,83.1075929 168.844463,96.7789292 190.039093,96.7789292 C204.050318,96.7789292 213.391134,89.9425573 218.779742,83.8268406 C219.497942,83.1075929 219.497942,82.3869377 218.779742,81.66769 L211.235129,74.8327256 C210.516929,74.1120704 209.438926,74.1120704 209.079123,74.8327256 C205.128321,78.070044 199.37991,83.466513 190.398896,83.466513 C179.981482,83.466513 172.436868,76.9904687 170.640666,68.7156014 L222.731951,68.7156014 C224.168351,68.7156014 224.886551,67.9977613 224.886551,66.5578583 L224.886551,63.3191324 C224.886551,43.8924071 212.313132,28.0619202 191.117096,28.0619202 C167.76646,28.0619202 154.115038,43.5320795 154.115038,62.9602123 Z M169.922466,57.2034158 C171.000468,50.0081238 177.467079,41.0140088 189.680696,41.0140088 C201.176112,41.0140088 207.642723,49.2888761 208.720726,57.2034158 L169.922466,57.2034158 L169.922466,57.2034158 Z" id="Fill-1" fill="#FFFFFF" mask="url(#mask-2)"></path>
            </g>
        </g>
    </g>
</svg>