<?xml version="1.0" encoding="UTF-8"?>
<svg width="735px" height="382px" viewBox="0 0 735 382" version="1.1" xmlns="http://www.w3.org/2000/svg" xmlns:xlink="http://www.w3.org/1999/xlink">
    <title>logo-white-udemy</title>
    <g id="Page-1" stroke="none" stroke-width="1" fill="none" fill-rule="evenodd">
        <g id="Artboard" transform="translate(-254.000000, -1297.000000)" fill="#FFFFFF">
            <g id="udemy-ar21" transform="translate(335.000000, 1405.000000)">
                <path d="M527.241689,142 L544.002184,142 L573,68.8540377 L556.409367,68.8540377 L544.421985,105.283321 L531.793982,68.8540377 L513.279058,68.8540377 L535.329532,121.689057 L527.241689,142 Z M444.048289,86.218566 L444.048289,123.712906 L427.134919,123.712906 L427.134919,68.8540377 L439.017957,68.8540377 L442.548653,73.6455849 C447.149478,69.8128302 452.073041,67.5740377 457.746421,67.5740377 C465.346518,67.5740377 471.124242,69.8128302 474.659791,75.3506415 C479.796894,70.6605283 485.256734,67.5740377 492.213783,67.5740377 C505.268867,67.5740377 512.868964,74.288 512.868964,92.5026415 L512.868964,123.712906 L495.938607,123.712906 L495.938607,94.4178113 C495.938607,86.0036226 492.512254,83.5498868 487.052414,83.5498868 C483.842029,83.5498868 481.16792,84.4024151 478.171075,86.32 C478.394937,88.3716203 478.502686,90.4341476 478.493812,92.4978113 L478.493812,123.708075 L461.580442,123.708075 L461.580442,94.4129811 C461.580442,85.9987925 458.154089,83.5450566 452.589905,83.5450566 C449.483863,83.5450566 446.916525,84.2937358 444.024023,86.2089057 L444.048289,86.218566 Z M385.069886,90.9038491 L406.797622,90.9038491 C405.620723,83.7672453 401.767289,80.3571321 395.987139,80.3571321 C391.06115,80.3571321 386.353555,83.2359245 385.067459,90.9038491 L385.069886,90.9038491 Z M397.166464,124.777962 C380.898568,124.777962 367.838631,116.78883 367.838631,95.7002264 C367.838631,75.9930566 380.471488,67.4726038 395.026207,67.4726038 C412.577772,67.4726038 420.39141,79.7219623 420.39141,99.0016604 L384.963116,99.0016604 C386.142441,108.480906 392.029362,111.253434 399.842999,111.253434 C407.399418,111.253434 413.310604,109.398642 417.884737,106.333887 L415.589177,119.684528 C411.221306,123.06566 405.984712,124.756226 397.166464,124.756226 L397.166464,124.777962 Z M334.196312,110.611019 C338.047319,110.611019 340.937394,109.971019 343.934239,107.737057 L343.934239,83.8759245 C341.260131,82.2771321 338.586023,81.533283 334.730163,81.533283 C326.489444,81.533283 321.779422,87.0710943 321.779422,96.3378113 C321.779422,105.394415 326.596215,110.615849 334.193885,110.615849 L334.196312,110.611019 Z M347.251395,119.667623 C342.864111,122.969057 337.836205,124.992906 330.663189,124.992906 C315.569765,124.992906 304.657365,115.726189 304.657365,96.6566038 C304.657365,77.6981132 317.178597,67.4701887 333.232953,67.4701887 C336.97719,67.4701887 340.61951,68.0015094 343.909973,69.2815094 L343.909973,46 L360.823344,46 L360.823344,123.717736 L350.122058,123.717736 L347.251395,119.667623 Z M233.002427,91.2250566 L233.002427,50.5645283 L250.553992,50.5645283 L250.553992,90.9038491 C250.553992,105.389585 257.1058,108.372226 266.07207,108.372226 C275.812424,108.372226 280.842757,104.112 280.842757,90.9038491 L280.842757,50.5645283 L298.503519,50.5645283 L298.503519,91.2202264 C298.503519,115.190038 288.015773,125.200604 265.217908,125.200604 C244.024023,125.200604 233,116.573887 233,91.2202264 L233.002427,91.2250566 Z" id="Shape"></path>
                <path d="M199.59011,94.615943 C198.90036,94.0499041 198.079461,93.668496 197.202702,93.4935827 C192.049008,98.6292312 185.787828,104.041826 180.177539,107.680994 C177.603121,109.393687 174.360811,110.248818 172.216272,110.248818 C167.278733,110.248818 165.131765,105.535877 164.48816,98.053475 C163.630831,87.9959608 163.050372,75.9536667 163.050372,57.3375481 C163.050372,38.2428473 158.717578,25.265253 147.178841,24.2497841 C146.682304,24.203076 146.183916,24.1787579 145.685192,24.1769036 C138.600685,24.1769036 135.168937,27.8136424 130.658847,37.0135956 C126.79722,44.9284219 120.783768,56.4824165 109.626336,78.3052787 C99.9674104,97.1327509 89.2350008,113.822394 80.0010969,125.378818 C77.431536,128.580703 75.3987171,130.781695 73.4921904,132.03524 C72.2171248,132.875796 70.9906331,133.298503 69.7034239,133.298503 C66.0603793,133.298503 63.4009566,130.222944 62.5144824,123.061217 C62.3031859,121.360671 62.1914658,119.426907 62.1914658,117.250209 C62.1914658,102.487041 67.7774677,78.5263497 77.431536,43.220588 C84.5111862,17.539916 81.50446,0 66.0482358,0 L65.878227,0 L65.8685122,0 C62.3711894,0.0412989712 59.4664684,1.31184967 56.6710388,3.51041255 C53.9193257,5.67739386 51.1651839,10.3611831 48.5931944,16.6532028 C45.6957595,23.7420497 28.0707094,59.1036865 0.0192653449,77.3213915 C-0.311037373,84.2450425 3.6088787,91.1686936 11.5507161,91.8974989 C18.7809454,92.582576 23.912781,89.5337402 30.5261215,85.0953154 L27.9031293,96.9626963 L26.9802247,101.172762 C26.1079605,105.140114 25.4408023,109.149819 24.9814075,113.185904 C21.0226323,148.54997 37.4114759,166 56.6030353,166 C59.8089146,166 62.9905069,165.618592 66.1429549,164.816906 C87.2871863,159.455328 107.642091,135.195826 131.73476,79.3523291 C131.370456,85.4257072 131.331596,91.1006717 131.593896,96.3650759 C133.20655,128.391213 145.835772,137.996868 163.718264,137.996868 C177.241245,137.996868 189.906897,130.937173 196.345372,122.164786 C201.069186,115.960223 203,109.111882 203,103.76488 C203,99.6106891 201.683647,96.2994834 199.59011,94.615943" id="Path"></path>
            </g>
        </g>
    </g>
</svg>