<svg width="40" height="35" viewBox="0 0 40 35" fill="none" xmlns="http://www.w3.org/2000/svg">
<path d="M23.7746 34.4789V19.2676C23.7746 14.6854 24.6009 10.8169 26.2535 7.66197C27.9061 4.50704 31.061 1.95305 35.7183 0L39.3239 6.53521C36.3944 7.96244 34.4413 9.53991 33.4648 11.2676C32.4883 12.9202 32 15.1737 32 18.0282H40V34.4789H23.7746ZM0 34.4789V19.2676C0 14.6854 0.788732 10.8169 2.3662 7.66197C3.94366 4.50704 7.06103 1.95305 11.7183 0L15.3239 6.53521C12.3944 7.96244 10.4413 9.53991 9.46479 11.2676C8.48826 12.9202 8 15.1737 8 18.0282H16.1127V34.4789H0Z" fill="#4EC6D0"/>
</svg>
