<svg width="40" height="35" viewBox="0 0 40 35" fill="none" xmlns="http://www.w3.org/2000/svg">
<path d="M40 14.5342C40 19.1718 39.089 23.1056 37.2671 26.3354C35.528 29.5652 32.381 32.1325 27.8261 34.0373L24.5963 28.1988C27.8261 26.7909 29.9379 25.0518 30.9317 22.9814C32.0083 20.911 32.5466 18.0952 32.5466 14.5342H24.8447V0H40V14.5342ZM15.4037 14.5342C15.4037 19.1718 14.4928 23.1056 12.6708 26.3354C10.9317 29.5652 7.78468 32.1325 3.22981 34.0373L0 28.1988C3.22981 26.7909 5.34162 25.0518 6.3354 22.9814C7.41201 20.911 7.95031 18.0952 7.95031 14.5342H0.248448V0H15.4037V14.5342Z" fill="#4EC6D0"/>
</svg>
