<svg width="26" height="26" viewBox="0 0 26 26" fill="none" xmlns="http://www.w3.org/2000/svg">
<path d="M23.4009 13.791L16.3639 20.8562C16.1378 21.0823 15.8552 21.1953 15.5726 21.1953C15.29 21.1953 15.0074 21.0823 14.7813 20.8562C14.3291 20.404 14.3291 19.6975 14.7813 19.2453L19.8965 14.1301H3.39215C2.77041 14.1301 2.26172 13.6214 2.26172 12.9997C2.26172 12.3779 2.77041 11.8692 3.39215 11.8692H19.8965L14.753 6.72576C14.3008 6.27358 14.3008 5.56706 14.753 5.11489C15.2052 4.66271 15.9117 4.66271 16.3639 5.11489L23.4009 12.1801C23.853 12.6323 23.853 13.3671 23.4009 13.791Z" fill="#4EC6D0"/>
</svg>
