<svg width="20" height="20" viewBox="0 0 20 20" fill="none" xmlns="http://www.w3.org/2000/svg">
<path d="M17.0585 1.66667H2.9418C2.78311 1.66446 2.62555 1.69354 2.4781 1.75224C2.33066 1.81093 2.19622 1.8981 2.08246 2.00876C1.96871 2.11942 1.87786 2.2514 1.81512 2.39717C1.75238 2.54295 1.71897 2.69965 1.7168 2.85833V17.1417C1.71897 17.3004 1.75238 17.4571 1.81512 17.6028C1.87786 17.7486 1.96871 17.8806 2.08246 17.9912C2.19622 18.1019 2.33066 18.1891 2.4781 18.2478C2.62555 18.3065 2.78311 18.3355 2.9418 18.3333H17.0585C17.2171 18.3355 17.3747 18.3065 17.5222 18.2478C17.6696 18.1891 17.804 18.1019 17.9178 17.9912C18.0316 17.8806 18.1224 17.7486 18.1851 17.6028C18.2479 17.4571 18.2813 17.3004 18.2835 17.1417V2.85833C18.2813 2.69965 18.2479 2.54295 18.1851 2.39717C18.1224 2.2514 18.0316 2.11942 17.9178 2.00876C17.804 1.8981 17.6696 1.81093 17.5222 1.75224C17.3747 1.69354 17.2171 1.66446 17.0585 1.66667ZM6.7418 15.6167H4.2418V8.11667H6.7418V15.6167ZM5.4918 7.06667C5.14702 7.06667 4.81635 6.9297 4.57256 6.6859C4.32876 6.44211 4.1918 6.11145 4.1918 5.76667C4.1918 5.42189 4.32876 5.09122 4.57256 4.84743C4.81635 4.60363 5.14702 4.46667 5.4918 4.46667C5.67488 4.4459 5.86028 4.46404 6.03586 4.5199C6.21144 4.57576 6.37325 4.66807 6.51068 4.7908C6.64811 4.91353 6.75807 5.0639 6.83336 5.23207C6.90864 5.40024 6.94756 5.58241 6.94756 5.76667C6.94756 5.95092 6.90864 6.13309 6.83336 6.30126C6.75807 6.46943 6.64811 6.61981 6.51068 6.74253C6.37325 6.86526 6.21144 6.95757 6.03586 7.01343C5.86028 7.06929 5.67488 7.08743 5.4918 7.06667ZM15.7585 15.6167H13.2585V11.5917C13.2585 10.5833 12.9001 9.925 11.9918 9.925C11.7107 9.92706 11.437 10.0152 11.2075 10.1776C10.978 10.3401 10.8039 10.5689 10.7085 10.8333C10.6433 11.0292 10.615 11.2355 10.6251 11.4417V15.6083H8.12513C8.12513 15.6083 8.12513 8.79167 8.12513 8.10833H10.6251V9.16667C10.8522 8.77259 11.1826 8.44793 11.5805 8.22767C11.9784 8.0074 12.4289 7.89988 12.8835 7.91667C14.5501 7.91667 15.7585 8.99167 15.7585 11.3V15.6167Z" fill="#003946"/>
</svg>
