<svg width="20" height="20" viewBox="0 0 20 20" fill="none" xmlns="http://www.w3.org/2000/svg">
<path d="M18.3327 4.83334C17.7063 5.10509 17.0439 5.28473 16.366 5.36667C17.0812 4.93944 17.6171 4.26733 17.8743 3.47501C17.2023 3.87506 16.4667 4.15692 15.6993 4.30834C15.1865 3.75215 14.5035 3.38192 13.7575 3.25572C13.0116 3.12951 12.2448 3.25447 11.5775 3.611C10.9102 3.96752 10.3801 4.53545 10.0704 5.2257C9.76064 5.91596 9.68876 6.6895 9.86602 7.42501C8.50721 7.35628 7.17805 7.00247 5.96489 6.38656C4.75174 5.77065 3.68172 4.90642 2.82435 3.85001C2.52363 4.37515 2.36562 4.96986 2.36602 5.57501C2.36495 6.13699 2.50286 6.69052 2.76748 7.18631C3.03209 7.6821 3.4152 8.10476 3.88268 8.41667C3.33933 8.40189 2.80759 8.25609 2.33268 7.99167V8.03334C2.33675 8.82075 2.61268 9.58258 3.11378 10.19C3.61488 10.7974 4.3104 11.213 5.08268 11.3667C4.7854 11.4571 4.47674 11.5048 4.16602 11.5083C3.95092 11.5058 3.73637 11.4863 3.52435 11.45C3.74427 12.1273 4.16987 12.7193 4.74191 13.1435C5.31395 13.5677 6.004 13.803 6.71602 13.8167C5.51368 14.7627 4.02925 15.2791 2.49935 15.2833C2.2208 15.2843 1.94246 15.2676 1.66602 15.2333C3.22804 16.2419 5.04836 16.7773 6.90768 16.775C8.19076 16.7883 9.46363 16.5459 10.6519 16.0617C11.8403 15.5776 12.9202 14.8616 13.8287 13.9554C14.7372 13.0493 15.456 11.9712 15.9431 10.7841C16.4303 9.59702 16.676 8.32478 16.666 7.04167C16.666 6.90001 16.666 6.75001 16.666 6.60001C17.3199 6.11235 17.8839 5.51453 18.3327 4.83334Z" fill="#003946"/>
</svg>
