<svg width="434" height="445" viewBox="0 0 434 445" fill="none" xmlns="http://www.w3.org/2000/svg">
<path d="M82.3493 232C80.0398 268.709 89.1419 306.505 110.878 339.679C164.269 420.982 273.359 443.551 354.463 390.119C409.076 354.226 437.197 292.909 433.393 232H82.3493Z" fill="#187186"/>
<path d="M430.045 274.565L385.184 244.851L309.832 358.793L354.693 388.507L430.045 274.565Z" fill="#FFD43B"/>
<path d="M258.597 245.339L160.191 265.24L188.055 402.61L286.46 382.71L258.597 245.339Z" stroke="#073E4B" stroke-width="0.936119" stroke-miterlimit="10" stroke-linecap="round" stroke-linejoin="round"/>
<path d="M217.529 277.954L245.922 272.244" stroke="#073E4B" stroke-width="0.936119" stroke-miterlimit="10" stroke-linecap="round" stroke-linejoin="round"/>
<path d="M233.963 290.87C238.989 289.782 244.016 288.83 249.178 287.743" stroke="#073E4B" stroke-width="0.936119" stroke-miterlimit="10" stroke-linecap="round" stroke-linejoin="round"/>
<path d="M220.787 293.453C223.64 292.909 226.493 292.365 229.346 291.686" stroke="#073E4B" stroke-width="0.936119" stroke-miterlimit="10" stroke-linecap="round" stroke-linejoin="round"/>
<path d="M223.91 309.089C230.567 307.729 237.088 306.369 243.745 305.01" stroke="#073E4B" stroke-width="0.936119" stroke-miterlimit="10" stroke-linecap="round" stroke-linejoin="round"/>
<path d="M224.045 364.015L235.049 347.7L256.106 351.371L264.665 323.092" stroke="#073E4B" stroke-width="0.936119" stroke-miterlimit="10" stroke-linecap="round" stroke-linejoin="round"/>
<path d="M127.996 251.578C111.286 251.578 97.7012 265.174 97.7012 281.897C97.7012 298.62 111.286 312.216 127.996 312.216C144.706 312.216 158.292 298.62 158.292 281.897C158.292 262.047 144.706 251.578 127.996 251.578ZM127.996 292.094C122.291 292.094 117.672 287.471 117.672 281.761C117.672 276.051 122.291 271.428 127.996 271.428C133.702 271.428 138.185 274.963 138.185 281.761C138.185 287.607 133.566 292.094 127.996 292.094Z" fill="#FFD43B"/>
<path d="M127.996 271.564V251.578" stroke="white" stroke-width="0.936119" stroke-miterlimit="10" stroke-linecap="round" stroke-linejoin="round"/>
<path d="M117.672 281.897H97.7012" stroke="white" stroke-width="0.936119" stroke-miterlimit="10" stroke-linecap="round" stroke-linejoin="round"/>
<path d="M120.122 275.235L106.4 261.639" stroke="white" stroke-width="0.936119" stroke-miterlimit="10" stroke-linecap="round" stroke-linejoin="round"/>
<path d="M206.976 262.356L114.48 296.224L141.789 370.916L234.285 337.048L206.976 262.356Z" fill="white" stroke="#073E4B" stroke-width="0.936119" stroke-miterlimit="10" stroke-linecap="round" stroke-linejoin="round"/>
<path d="M177.449 287.471L196.876 280.265" stroke="#073E4B" stroke-width="0.936119" stroke-miterlimit="10" stroke-linecap="round" stroke-linejoin="round"/>
<path d="M178.803 291.142L198.23 283.936" stroke="#073E4B" stroke-width="0.936119" stroke-miterlimit="10" stroke-linecap="round" stroke-linejoin="round"/>
<path d="M200.413 316.702C202.889 316.702 204.896 314.693 204.896 312.215C204.896 309.737 202.889 307.729 200.413 307.729C197.937 307.729 195.93 309.737 195.93 312.215C195.93 314.693 197.937 316.702 200.413 316.702Z" stroke="#073E4B" stroke-width="0.936119" stroke-miterlimit="10" stroke-linecap="round" stroke-linejoin="round"/>
<path d="M146.752 352.323L156.262 328.395L163.869 333.833L178.813 302.834" stroke="#073E4B" stroke-width="0.936119" stroke-miterlimit="10" stroke-linecap="round" stroke-linejoin="round"/>
<path d="M174.461 302.834L180.167 300.115L182.884 305.281L174.461 302.834Z" fill="#073E4B"/>
<path d="M356.506 347.564C356.506 381.146 329.335 408.474 295.644 408.474C279.749 408.474 265.349 402.356 254.48 392.431L281.923 364.967C285.727 367.958 290.481 369.726 295.644 369.726C307.871 369.726 317.788 359.801 317.788 347.564C317.788 341.718 316.158 336.96 313.441 333.425L341.698 305.146C350.8 315.342 356.506 329.482 356.506 347.564Z" fill="white" stroke="#073E4B" stroke-width="0.936119" stroke-miterlimit="10" stroke-linecap="round" stroke-linejoin="round"/>
<path d="M315.746 356.81L353.106 367.686" stroke="#073E4B" stroke-width="0.936119" stroke-miterlimit="10" stroke-linecap="round" stroke-linejoin="round"/>
<path d="M317.785 347.564H356.503" stroke="#073E4B" stroke-width="0.936119" stroke-miterlimit="10" stroke-linecap="round" stroke-linejoin="round"/>
<path d="M285.046 375.164L273.498 395.15L290.48 399.908L293.061 376.932L285.046 375.164Z" fill="#073E4B"/>
<path d="M371.718 281.896C371.718 308.136 350.389 329.482 324.17 329.482C297.95 329.482 276.621 308.136 276.621 281.896C276.621 255.656 297.95 234.311 324.17 234.311C350.525 234.311 371.718 250.626 371.718 281.896Z" fill="white" stroke="#073E4B" stroke-width="0.936119" stroke-miterlimit="10" stroke-linecap="round" stroke-linejoin="round"/>
<path d="M352.425 242.061L324.168 281.896H371.717" stroke="#073E4B" stroke-width="0.936119" stroke-miterlimit="10" stroke-linecap="round" stroke-linejoin="round"/>
<path d="M292.608 266.005L303.484 295.754L317.901 290.475L307.025 260.726L292.608 266.005Z" fill="white" stroke="#073E4B" stroke-width="0.936119" stroke-miterlimit="10" stroke-linecap="round" stroke-linejoin="round"/>
<path d="M311.521 259.083L315.676 270.446L330.092 265.167L325.938 253.804L311.521 259.083Z" fill="white" stroke="#073E4B" stroke-width="0.936119" stroke-miterlimit="10" stroke-linecap="round" stroke-linejoin="round"/>
<path d="M178.678 253.481C183.405 253.481 187.237 249.646 187.237 244.916C187.237 240.185 183.405 236.351 178.678 236.351C173.951 236.351 170.119 240.185 170.119 244.916C170.119 249.646 173.951 253.481 178.678 253.481Z" stroke="#073E4B" stroke-width="0.936119" stroke-miterlimit="10" stroke-linecap="round" stroke-linejoin="round"/>
<path d="M226.789 389.787L221.656 408.96L240.814 414.097L245.948 394.924L226.789 389.787Z" fill="#073E4B"/>
<path d="M186.576 369.163L200.58 407.467L219.207 400.646L205.203 362.343L186.576 369.163Z" fill="white" stroke="#073E4B" stroke-width="0.936119" stroke-miterlimit="10" stroke-linecap="round" stroke-linejoin="round"/>
<path d="M169.7 361.998L158.154 387.212L170.381 392.82L181.927 367.605L169.7 361.998Z" fill="white" stroke="#073E4B" stroke-width="0.936119" stroke-miterlimit="10" stroke-linecap="round" stroke-linejoin="round"/>
<path d="M276.629 242.061L280.025 244.916" stroke="#073E4B" stroke-width="0.936119" stroke-miterlimit="10" stroke-linecap="round" stroke-linejoin="round"/>
<path d="M293.062 339.815L290.48 347.565" stroke="#073E4B" stroke-width="0.936119" stroke-miterlimit="10" stroke-linecap="round" stroke-linejoin="round"/>
<path d="M297.006 356.81L302.032 359.529" stroke="#073E4B" stroke-width="0.936119" stroke-miterlimit="10" stroke-linecap="round" stroke-linejoin="round"/>
<path d="M405.963 242.061L402.566 248.315" stroke="#073E4B" stroke-width="0.936119" stroke-miterlimit="10" stroke-linecap="round" stroke-linejoin="round"/>
<path d="M418.863 251.578L420.901 256.472" stroke="#073E4B" stroke-width="0.936119" stroke-miterlimit="10" stroke-linecap="round" stroke-linejoin="round"/>
<path d="M155.035 248.315L158.296 251.578" stroke="#073E4B" stroke-width="0.936119" stroke-miterlimit="10" stroke-linecap="round" stroke-linejoin="round"/>
<path d="M117.678 332.609L123.384 335.328" stroke="#073E4B" stroke-width="0.936119" stroke-miterlimit="10" stroke-linecap="round" stroke-linejoin="round"/>
<path d="M178.816 339.815L177.457 343.622" stroke="#073E4B" stroke-width="0.936119" stroke-miterlimit="10" stroke-linecap="round" stroke-linejoin="round"/>
<path d="M257.879 405.754L264.672 411.873" stroke="#073E4B" stroke-width="0.936119" stroke-miterlimit="10" stroke-linecap="round" stroke-linejoin="round"/>
<path d="M402.558 338.047L395.766 341.718" stroke="#073E4B" stroke-width="0.936119" stroke-miterlimit="10" stroke-linecap="round" stroke-linejoin="round"/>
<path d="M273.399 175.47C259.177 162.834 233.635 146.423 231.313 126.235C227.83 124.056 224.347 122.023 220.865 119.99C216.511 148.456 241.617 167.772 261.934 185.782C269.626 192.608 281.091 182.296 273.399 175.47Z" fill="white" stroke="#073E4B" stroke-miterlimit="10" stroke-linecap="round" stroke-linejoin="round"/>
<path d="M273.403 175.47C277.756 179.246 283.271 186.217 282.255 187.379C281.239 188.541 279.643 185.201 278.337 185.201C277.031 185.201 283.561 191.736 282.255 193.043C280.949 194.35 276.305 189.558 276.305 189.558C276.305 189.558 280.949 193.77 279.643 194.931C278.192 195.948 273.258 191.301 273.258 191.301C273.258 191.301 279.062 194.641 277.031 196.093C275.144 197.546 266.292 189.703 262.809 186.798" fill="white"/>
<path d="M273.403 175.47C277.756 179.246 283.271 186.217 282.255 187.379C281.239 188.541 279.643 185.201 278.337 185.201C277.031 185.201 283.561 191.736 282.255 193.043C280.949 194.35 276.305 189.558 276.305 189.558C276.305 189.558 280.949 193.77 279.643 194.931C278.192 195.948 273.258 191.301 273.258 191.301C273.258 191.301 279.062 194.641 277.031 196.093C275.144 197.546 266.292 189.703 262.809 186.798" stroke="#073E4B" stroke-miterlimit="10" stroke-linecap="round" stroke-linejoin="round"/>
<path d="M201.85 95.2995C172.39 92.3947 131.61 49.2596 122.758 20.7934C119.275 9.75544 101.715 13.5316 105.053 24.7148C116.372 61.0238 162.812 109.533 200.834 113.309C212.444 114.616 213.46 96.4613 201.85 95.2995Z" fill="white" stroke="#073E4B" stroke-miterlimit="10" stroke-linecap="round" stroke-linejoin="round"/>
<path d="M244.09 145.261C243.945 145.697 243.8 146.132 243.51 146.568C243.074 147.149 242.639 147.73 242.204 148.166C242.204 148.166 242.204 148.166 242.059 148.166C238.576 150.635 235.963 150.925 235.963 150.925L235.238 149.473C235.238 149.473 231.029 149.037 230.884 144.97L222.902 139.451C223.773 136.982 224.208 134.223 224.499 131.463C227.256 133.497 231.174 136.256 232.916 137.563C233.496 137.999 233.787 138.144 233.787 138.144C233.932 137.999 234.222 137.854 234.222 137.854C234.367 137.709 234.512 137.709 234.802 137.563C234.802 137.563 234.802 137.563 234.948 137.563C235.093 137.563 235.238 137.418 235.383 137.418C235.673 137.273 235.963 137.273 236.254 137.128C236.399 137.128 236.689 137.128 236.834 137.128C237.705 136.982 238.721 137.128 239.882 137.273C241.913 137.563 243.22 138.725 243.945 140.178C244.235 140.613 244.381 141.194 244.381 141.63C244.526 142.792 244.526 144.099 244.09 145.261Z" fill="white" stroke="#073E4B" stroke-miterlimit="10" stroke-linecap="round" stroke-linejoin="round"/>
<path d="M244.371 141.63C244.226 141.194 244.081 140.613 243.936 140.178C243.21 138.725 241.904 137.708 239.872 137.273C238.711 137.128 237.695 136.982 236.825 137.128C236.679 137.128 236.389 137.128 236.244 137.128C235.954 137.128 235.664 137.273 235.373 137.418C235.228 137.418 235.083 137.563 234.938 137.563H234.793C234.648 137.708 234.357 137.708 234.212 137.854C234.212 137.854 233.922 137.999 233.777 138.144C233.777 138.144 233.487 137.854 232.906 137.563C233.342 138.435 233.632 139.016 233.777 139.161C233.922 139.742 235.809 142.356 236.244 141.339C236.825 140.178 238.711 140.178 238.856 141.63C239.001 143.082 240.308 146.713 242.049 148.166C242.63 147.73 243.065 147.294 243.355 146.568C243.645 146.132 243.79 145.697 243.936 145.261C244.516 144.099 244.516 142.792 244.371 141.63Z" fill="#073E4B"/>
<path d="M189.084 115.633C190.971 106.192 196.05 90.9427 208.24 96.7521C213.465 99.9473 234.943 118.537 227.251 126.235C224.929 128.559 222.317 135.094 218.689 136.402C210.998 139.306 199.388 134.513 202.58 130.011C193.873 120.426 189.084 115.633 189.084 115.633Z" fill="white" stroke="#073E4B" stroke-miterlimit="10" stroke-linecap="round" stroke-linejoin="round"/>
<path d="M194.299 98.4952C155.26 95.7357 114.771 59.2814 101.71 32.558C96.6304 22.2462 79.651 28.6366 84.8754 39.0936C101.565 73.2241 141.619 118.102 194.734 118.683C206.344 118.973 210.407 99.6571 194.299 98.4952Z" fill="white" stroke="#073E4B" stroke-miterlimit="10" stroke-linecap="round" stroke-linejoin="round"/>
<path d="M262.512 182.732C244.807 170.241 221.877 153.249 224.925 128.559C226.231 118.247 210.267 115.778 208.961 126.09C205.188 157.315 229.133 177.939 252.208 194.205C260.625 200.16 271.074 188.686 262.512 182.732Z" fill="white" stroke="#073E4B" stroke-miterlimit="10" stroke-linecap="round" stroke-linejoin="round"/>
<path d="M244.363 141.63C243.202 133.787 236.236 137.418 234.204 128.413C232.173 119.409 240.3 113.745 236.381 103.142C232.463 92.5401 232.753 91.233 233.334 85.8593C233.914 80.4855 221.724 84.1164 223.03 93.702C224.336 103.288 224.626 102.126 219.547 111.857C214.613 121.587 223.32 133.351 233.624 138.144C243.928 142.937 244.363 141.63 244.363 141.63Z" fill="#073E4B"/>
<path d="M262.517 182.732C267.306 186.072 273.546 192.318 272.676 193.479C271.805 194.641 269.773 191.591 268.612 191.737C267.306 191.882 274.562 197.546 273.401 199.144C272.24 200.596 267.161 196.384 267.161 196.384C267.161 196.384 272.24 200.16 270.934 201.322C269.628 202.484 264.259 198.417 264.259 198.417C264.259 198.417 270.354 201.177 268.612 202.775C266.871 204.372 257.148 197.546 253.52 195.077" fill="white"/>
<path d="M262.517 182.732C267.306 186.072 273.546 192.318 272.676 193.479C271.805 194.641 269.773 191.591 268.612 191.737C267.306 191.882 274.562 197.546 273.401 199.144C272.24 200.596 267.161 196.384 267.161 196.384C267.161 196.384 272.24 200.16 270.934 201.322C269.628 202.484 264.259 198.417 264.259 198.417C264.259 198.417 270.354 201.177 268.612 202.775C266.871 204.372 257.148 197.546 253.52 195.077" stroke="#073E4B" stroke-miterlimit="10" stroke-linecap="round" stroke-linejoin="round"/>
<path d="M278.184 185.056C274.266 184.184 271.363 181.86 271.363 181.86L278.184 185.056Z" fill="white"/>
<path d="M278.184 185.056C274.266 184.184 271.363 181.86 271.363 181.86" stroke="#073E4B" stroke-miterlimit="10" stroke-linecap="round" stroke-linejoin="round"/>
<path d="M101.717 32.5579C99.8306 28.927 97.6537 23.8438 96.4927 20.939C95.9122 19.4867 94.6061 18.47 93.0098 18.0343C86.6243 16.7272 70.0803 13.6772 68.629 14.5487C66.8876 15.5653 67.7583 16.8724 67.7583 16.8724C67.7583 16.8724 67.468 16.8724 67.1778 17.8891C66.8876 18.9057 67.6132 20.0676 67.6132 20.0676C67.6132 20.0676 66.3071 19.7771 66.0168 21.2295C65.7266 22.6819 66.7424 23.408 66.7424 23.408C66.7424 23.408 65.7266 23.6985 65.7266 25.0056C65.7266 26.1675 70.3705 27.9104 75.4498 29.6532C80.5292 31.396 81.8353 33.865 84.7377 39.2388" fill="white"/>
<path d="M101.717 32.5579C99.8306 28.927 97.6537 23.8438 96.4927 20.939C95.9122 19.4867 94.6061 18.47 93.0098 18.0343C86.6243 16.7272 70.0803 13.6772 68.629 14.5487C66.8876 15.5653 67.7583 16.8724 67.7583 16.8724C67.7583 16.8724 67.468 16.8724 67.1778 17.8891C66.8876 18.9057 67.6132 20.0676 67.6132 20.0676C67.6132 20.0676 66.3071 19.7771 66.0168 21.2295C65.7266 22.6819 66.7424 23.408 66.7424 23.408C66.7424 23.408 65.7266 23.6985 65.7266 25.0056C65.7266 26.1675 70.3705 27.9104 75.4498 29.6532C80.5292 31.396 81.8353 33.865 84.7377 39.2388" stroke="#073E4B" stroke-miterlimit="10" stroke-linecap="round" stroke-linejoin="round"/>
<path d="M68.3359 17.1631C70.6579 17.744 71.0933 17.744 71.0933 17.744L68.3359 17.1631Z" fill="white"/>
<path d="M68.3359 17.1631C70.6579 17.744 71.0933 17.744 71.0933 17.744" stroke="#073E4B" stroke-miterlimit="10" stroke-linecap="round" stroke-linejoin="round"/>
<path d="M123.926 24.2793C122.62 20.3579 121.459 14.9842 120.734 11.9342C120.443 10.3366 119.282 9.17475 117.831 8.59381C111.736 6.1248 95.9175 0.460591 94.4663 1.04153C92.5797 1.76772 93.1602 3.22008 93.1602 3.22008C93.1602 3.22008 91.9992 3.22007 91.5638 4.23673C91.1285 5.25338 91.7089 6.41527 91.7089 6.41527C91.7089 6.41527 90.4028 5.97956 89.9675 7.28668C89.5321 8.59381 90.2577 8.88428 90.2577 8.88428C90.2577 8.88428 88.8065 9.61046 88.9516 10.7724C89.2419 12.6604 93.8858 14.258 98.6749 16.8723C103.464 19.4865 103.899 21.2293 105.931 27.0388" fill="white"/>
<path d="M123.926 24.2793C122.62 20.3579 121.459 14.9842 120.734 11.9342C120.443 10.3366 119.282 9.17475 117.831 8.59381C111.736 6.1248 95.9175 0.460591 94.4663 1.04153C92.5797 1.76772 93.1602 3.22008 93.1602 3.22008C93.1602 3.22008 91.9992 3.22007 91.5638 4.23673C91.1285 5.25338 91.7089 6.41527 91.7089 6.41527C91.7089 6.41527 90.4028 5.97956 89.9675 7.28669C89.5321 8.59381 90.2577 8.88428 90.2577 8.88428C90.2577 8.88428 88.8065 9.61046 88.9516 10.7724C89.2419 12.6604 93.8858 14.258 98.6749 16.8723C103.464 19.4865 103.899 21.2293 105.931 27.0388" stroke="#073E4B" stroke-miterlimit="10" stroke-linecap="round" stroke-linejoin="round"/>
<path d="M90.2441 8.88379C92.421 9.90044 93.582 10.3362 93.582 10.3362L90.2441 8.88379Z" fill="white"/>
<path d="M90.2441 8.88379C92.421 9.90044 93.582 10.3362 93.582 10.3362" stroke="#073E4B" stroke-miterlimit="10" stroke-linecap="round" stroke-linejoin="round"/>
<path d="M210.849 98.4951L205.334 103.433" stroke="#073E4B" stroke-miterlimit="10" stroke-linecap="round" stroke-linejoin="round"/>
<path d="M215.637 102.562L195.9 122.459" stroke="#073E4B" stroke-miterlimit="10" stroke-linecap="round" stroke-linejoin="round"/>
<path d="M219.409 106.773L199.672 126.671" stroke="#073E4B" stroke-miterlimit="10" stroke-linecap="round" stroke-linejoin="round"/>
<path d="M208.528 127.106C206.496 129.14 204.61 131.028 202.578 133.061L208.528 127.106Z" fill="white"/>
<path d="M208.528 127.106C206.496 129.14 204.61 131.028 202.578 133.061" stroke="#073E4B" stroke-miterlimit="10" stroke-linecap="round" stroke-linejoin="round"/>
<path d="M223.618 111.856C221.15 114.325 218.683 116.794 216.361 119.264L223.618 111.856Z" fill="white"/>
<path d="M223.618 111.856C221.15 114.325 218.683 116.794 216.361 119.264" stroke="#073E4B" stroke-miterlimit="10" stroke-linecap="round" stroke-linejoin="round"/>
<path d="M206.062 96.0264L201.854 99.512" stroke="#073E4B" stroke-miterlimit="10" stroke-linecap="round" stroke-linejoin="round"/>
<path d="M44.6816 444.5V154.12C44.6816 150.78 47.439 148.021 50.7768 148.021C54.1147 148.021 56.872 150.78 56.872 154.12V182.006" stroke="#073E4B" stroke-miterlimit="10" stroke-linecap="round" stroke-linejoin="round"/>
<path d="M1 444.5V154.12C1 150.78 3.75735 148.021 7.09518 148.021C10.433 148.021 13.1903 150.78 13.1903 154.12V182.006" stroke="#073E4B" stroke-miterlimit="10" stroke-linecap="round" stroke-linejoin="round"/>
<path d="M1 182.587H123.629" stroke="#073E4B" stroke-miterlimit="10" stroke-linecap="round" stroke-linejoin="round"/>
<path d="M1 210.036H44.6822" stroke="#073E4B" stroke-miterlimit="10" stroke-linecap="round" stroke-linejoin="round"/>
<path d="M1 237.486H44.6822" stroke="#073E4B" stroke-miterlimit="10" stroke-linecap="round" stroke-linejoin="round"/>
<path d="M1 264.936H44.6822" stroke="#073E4B" stroke-miterlimit="10" stroke-linecap="round" stroke-linejoin="round"/>
<path d="M1 292.24H44.6822" stroke="#073E4B" stroke-miterlimit="10" stroke-linecap="round" stroke-linejoin="round"/>
<path d="M397.301 203.089L388.504 208.173L393.583 216.977L402.381 211.894L397.301 203.089Z" fill="#073E4B"/>
<path d="M152.092 195.513L156.736 198.127" stroke="#073E4B" stroke-miterlimit="10" stroke-linecap="round" stroke-linejoin="round"/>
<path d="M205.048 178.084L202.436 183.022" stroke="#073E4B" stroke-miterlimit="10" stroke-linecap="round" stroke-linejoin="round"/>
<path d="M143.382 202.048L141.785 205.679" stroke="#073E4B" stroke-miterlimit="10" stroke-linecap="round" stroke-linejoin="round"/>
<path d="M81.9883 195.513L86.342 199.87" stroke="#073E4B" stroke-miterlimit="10" stroke-linecap="round" stroke-linejoin="round"/>
<path d="M127.095 117.584L110.953 128.695L137.681 167.585L153.823 156.474L127.095 117.584Z" fill="white" stroke="#073E4B" stroke-miterlimit="10" stroke-linecap="round" stroke-linejoin="round"/>
<path d="M384.976 50.1391L369.301 38.3789L320.817 103.104L336.492 114.864L384.976 50.1391Z" fill="#073E4B"/>
<path d="M384.052 86.3408L379.844 79.0459L309.842 119.494L314.05 126.789L384.052 86.3408Z" fill="white" stroke="#073E4B" stroke-miterlimit="10" stroke-linecap="round" stroke-linejoin="round"/>
<path d="M87.7977 150.635H77.0586V182.587H87.7977V150.635Z" fill="#073E4B"/>
<path d="M102.022 147.73H91.2832V182.732H102.022V147.73Z" fill="#073E4B"/>
<path d="M116.237 158.187H105.498V182.586H116.237V158.187Z" fill="#073E4B"/>
</svg>
