<?xml version="1.0" encoding="UTF-8"?>
<svg width="313px" height="157px" viewBox="0 0 313 157" version="1.1" xmlns="http://www.w3.org/2000/svg" xmlns:xlink="http://www.w3.org/1999/xlink">
    <title>Artboard</title>
    <g id="Artboard" stroke="none" stroke-width="1" fill="none" fill-rule="evenodd">
        <g id="logo-qumulo-copy" transform="translate(47.000000, 45.000000)" fill-rule="nonzero">
            <path d="M136.059443,27.2295352 C137.870465,25.5551166 140.278993,24.5341271 142.922633,24.5341271 C148.550855,24.5341271 153.11343,29.1617621 153.11343,34.8702394 L153.11343,45.6214371 C153.11343,47.4854296 151.623609,48.996494 149.785823,48.996494 C147.948036,48.996494 146.458215,47.4854296 146.458215,45.6214371 L146.458215,34.8683645 C146.458215,32.8878723 144.875281,31.2823662 142.922633,31.2823662 C140.969984,31.2823662 139.38705,32.8878723 139.38705,34.8683645 L139.38705,34.8702394 L139.38705,45.6214371 C139.38705,47.4854296 137.89723,48.996494 136.059443,48.996494 C134.221656,48.996494 132.731836,47.4854296 132.731836,45.6214371 L132.731836,34.8683645 C132.731836,32.8878723 131.148902,31.2823662 129.196253,31.2823662 C127.243605,31.2823662 125.660671,32.8878723 125.660671,34.8683645 L125.660671,45.6214371 C125.660671,47.4854296 124.17085,48.996494 122.333063,48.996494 C120.495277,48.996494 119.005456,47.4854296 119.005456,45.6214371 L119.005456,34.8702394 C119.005456,29.1617621 123.568032,24.5341271 129.196253,24.5341271 C131.839893,24.5341271 134.248421,25.5551166 136.059443,27.2295352 Z M112.350242,24.5341271 C114.188029,24.5341271 115.677849,26.0451915 115.677849,27.909184 L115.677849,37.3947352 C115.677849,43.8022098 110.556591,48.996494 104.239199,48.996494 C97.9218079,48.996494 92.8005499,43.8022098 92.8005499,37.3947352 L92.8005499,27.909184 C92.8005499,26.0451915 94.2903705,24.5341271 96.1281571,24.5341271 C97.9659439,24.5341271 99.4557643,26.0451915 99.4557643,27.909184 L99.4557643,37.3966104 C99.4557643,40.0760996 101.597381,42.2482549 104.239199,42.2482549 C106.881018,42.2482549 109.022635,40.0760996 109.022635,37.3966104 L109.022635,27.909184 C109.022635,26.0451915 110.512455,24.5341271 112.350242,24.5341271 Z M175.990729,24.5341271 C177.828516,24.5341271 179.318336,26.0451915 179.318336,27.909184 L179.318336,37.3947352 C179.318336,43.8022098 174.197078,48.996494 167.879686,48.996494 C161.562295,48.996494 156.441037,43.8022098 156.441037,37.3947352 L156.441037,27.909184 C156.441037,26.0451915 157.930857,24.5341271 159.768644,24.5341271 C161.606431,24.5341271 163.096251,26.0451915 163.096251,27.909184 L163.096251,37.3966104 C163.096251,40.0760996 165.237868,42.2482549 167.879686,42.2482549 C170.521505,42.2482549 172.663122,40.0760996 172.663122,37.3966104 L172.663122,27.909184 C172.663122,26.0451915 174.152942,24.5341271 175.990729,24.5341271 Z M185.97355,11.4101563 C187.811337,11.4101563 189.301158,12.9212208 189.301158,14.7852134 L189.301158,45.6214371 C189.301158,47.4854296 187.811337,48.996494 185.97355,48.996494 C184.135764,48.996494 182.645943,47.4854296 182.645943,45.6214371 L182.645943,14.7852134 C182.645943,12.9212208 184.135764,11.4101563 185.97355,11.4101563 Z M205.107291,49.8400239 C197.985868,49.8400239 192.212814,43.9862753 192.212814,36.7653105 C192.212814,29.5443458 197.985868,23.6905971 205.107291,23.6905971 C212.228715,23.6905971 218.001769,29.5443458 218.001769,36.7653105 C218.001769,43.9862753 212.228715,49.8400239 205.107291,49.8400239 Z M205.107291,43.5135497 C208.782865,43.5135497 211.762506,40.4922601 211.762506,36.7653105 C211.762506,33.038361 208.782865,30.0170714 205.107291,30.0170714 C201.431718,30.0170714 198.452077,33.038361 198.452077,36.7653105 C198.452077,40.4922601 201.431718,43.5135497 205.107291,43.5135497 Z M85.8512745,41.2853835 L90.0904409,45.5841432 C91.4044714,46.9166459 91.4046832,49.0772745 90.0909141,50.4100421 C90.0907564,50.4102021 90.0905986,50.4103621 90.0904409,50.4105221 C88.7760727,51.7433676 86.6453379,51.7433676 85.3309695,50.4105221 L81.0918029,46.1117623 C81.0842647,46.1168971 81.0767222,46.1220261 81.0691758,46.1271491 C80.1224232,46.7698614 79.1150503,47.3173728 78.0608016,47.7606753 C77.0093507,48.2028014 75.9152674,48.5396123 74.7919577,48.7649523 C73.6817715,48.9876599 72.5471979,49.100672 71.4002591,49.100672 C70.2533202,49.100672 69.1187469,48.9876599 68.0085604,48.7649523 C66.8852509,48.5396123 65.7911677,48.2028014 64.7397165,47.7606753 C63.6854681,47.3173728 62.6780952,46.7698614 61.7313426,46.1271491 C60.7849962,45.4847125 59.9027645,44.749549 59.0976689,43.9331355 C58.2925731,43.1167218 57.5676013,42.2220882 56.9340706,41.2624382 C56.3002679,40.3023764 55.7603467,39.280842 55.3231897,38.2117731 C54.8871926,37.145541 54.555051,36.0360775 54.3328349,34.8969767 C54.1132148,33.7711835 54.0017691,32.6206604 54.0017691,31.4575983 C54.0017691,21.7135976 61.7913385,13.8145243 71.4002591,13.8145243 C81.0091799,13.8145243 88.7987493,21.7135976 88.7987493,31.4575983 C88.7987493,32.6206604 88.6873036,33.7711835 88.4676835,34.8969767 C88.2454672,36.0360775 87.9133256,37.145541 87.4773287,38.2117731 C87.0401717,39.280842 86.5002503,40.3023764 85.8664478,41.2624382 C85.8613957,41.2700906 85.856338,41.2777392 85.8512745,41.2853835 Z M71.4002591,42.2234893 C72.104749,42.2234893 72.7985423,42.154382 73.475859,42.0185097 C74.1589807,41.8814729 74.8238556,41.6767928 75.4631031,41.4079949 C76.1049066,41.1381221 76.7188153,40.8044601 77.2964362,40.4123363 C77.8749129,40.0196317 78.4146548,39.5698649 78.9073606,39.0702327 C79.4000664,38.5706006 79.843598,38.0232711 80.2308587,37.4366624 C80.6175466,36.8509214 80.9465829,36.2283824 81.2127146,35.5775567 C81.4777863,34.9293228 81.6796289,34.2551013 81.814766,33.5623764 C81.9487546,32.8755381 82.0169038,32.1719916 82.0169038,31.4575983 C82.0169038,25.5117608 77.2636701,20.6917073 71.4002591,20.6917073 C65.5368481,20.6917073 60.7836146,25.5117608 60.7836146,31.4575983 C60.7836146,32.1719916 60.8517636,32.8755381 60.9857524,33.5623764 C61.1208893,34.2551013 61.3227319,34.9293228 61.5878038,35.5775567 C61.8539352,36.2283824 62.1829718,36.8509214 62.5696595,37.4366624 C62.9569202,38.0232711 63.400452,38.5706006 63.8931578,39.0702327 C64.3858636,39.5698649 64.9256052,40.0196317 65.504082,40.4123363 C66.0817029,40.8044601 66.6956118,41.1381221 67.3374153,41.4079949 C67.9766625,41.6767928 68.6415375,41.8814729 69.3246591,42.0185097 C70.0019761,42.154382 70.6957694,42.2234893 71.4002591,42.2234893 Z" id="Combined-Shape1" fill="#2C2C4A"></path>
            <g id="Group" transform="translate(0.806457, 0.000000)">
                <path d="M33.2315789,28.0967742 L38.1622206,28.0967742 C39.7294829,28.0967742 41,29.3692905 41,30.939019 L41,38.2222713 C41,39.7919998 39.7294829,41.0645161 38.1622206,41.0645161 L30.890411,41.0645161 C29.3231486,41.0645161 28.0526316,39.7919998 28.0526316,38.2222713 L28.0526316,33.0062993 C28.0526316,30.2948434 25.8580157,28.0967742 23.1508198,28.0967742 L20.9581831,28.0967742 L7.09444844,28.0967742 C3.17629277,28.0967742 -3.06655286e-15,24.9154834 -3.06655286e-15,20.9911622 L-3.06655286e-15,7.10561201 C-3.06655286e-15,3.18129087 3.17629277,0 7.09444844,0 L20.9581831,0 C24.8763389,0 28.0526316,3.18129087 28.0526316,7.10561201 L28.0526316,20.9911622 C28.0526316,21.0154241 28.0525101,21.0396576 28.052268,21.0638621 L28.0526316,22.9096774 C28.0526316,25.7744319 30.3713253,28.0967742 33.2315789,28.0967742 Z" id="Combined-Shape2" fill="#00A3CA" transform="translate(20.500000, 20.532258) rotate(180.000000) translate(-20.500000, -20.532258) "></path>
                <path d="M33.2315789,54.0322581 L38.1622206,54.0322581 C39.7294829,54.0322581 41,55.3047744 41,56.8745029 L41,64.1577552 C41,65.7274837 39.7294829,67 38.1622206,67 L30.890411,67 C29.3231486,67 28.0526316,65.7274837 28.0526316,64.1577552 L28.0526316,58.9417831 C28.0526316,56.2303273 25.8580157,54.0322581 23.1508198,54.0322581 L20.9581831,54.0322581 L7.09444844,54.0322581 C3.17629277,54.0322581 9.19965857e-14,50.8509673 9.19965857e-14,46.9266461 L9.19965857e-14,33.0410958 C9.19965857e-14,29.1167746 3.17629277,25.9354839 7.09444844,25.9354839 L20.9581831,25.9354839 C24.8763389,25.9354839 28.0526316,29.1167746 28.0526316,33.0410958 L28.0526316,46.9266461 C28.0526316,46.9509079 28.0525101,46.9751414 28.052268,46.9993459 L28.0526316,48.8451613 C28.0526316,51.7099157 30.3713253,54.0322581 33.2315789,54.0322581 Z" id="Combined-Shape3" fill="#007CAC"></path>
                <path d="M12.9473684,25.9354839 L20.9581831,25.9354839 C24.8763389,25.9354839 28.0526316,29.1167746 28.0526316,33.0410958 L28.0526316,41.0645161 L20.0418169,41.0645161 C16.1236612,41.0645161 12.9473684,37.8832254 12.9473684,33.9589042 L12.9473684,25.9354839 Z" id="Combined-Shape4" fill="#1F4E84" opacity="0.75"></path>
            </g>
        </g>
    </g>
</svg>