<?xml version="1.0" encoding="UTF-8"?>
<svg width="313px" height="157px" viewBox="0 0 313 157" version="1.1" xmlns="http://www.w3.org/2000/svg" xmlns:xlink="http://www.w3.org/1999/xlink">
    <title>Artboard</title>
    <g id="Artboard" stroke="none" stroke-width="1" fill="none" fill-rule="evenodd">
        <g id="logo-affirm-copy-2" transform="translate(80.647059, 45.000000)" fill-rule="nonzero">
            <path d="M12.6736019,33.6925673 C8.61460872,33.6925673 3.90905025,35.641266 1.3587094,37.6621387 L3.69352849,42.5699726 C5.74098522,40.6934479 9.04565224,39.1056193 12.0270366,39.1056193 C14.8647398,39.1056193 16.4093124,40.0438816 16.4093124,41.9564933 C16.4093124,43.2556258 15.3676239,43.905192 13.4279281,44.1578011 C6.10018816,45.0960635 0.352941176,47.1169362 0.352941176,52.7825973 C0.352941176,57.257387 3.54984731,60 8.50684784,60 C12.0629569,60 15.2239427,58.0152143 16.7325951,55.4169493 L16.7325951,59.2782597 L23.3419291,59.2782597 L23.3419291,43.0751907 C23.3419291,36.3990933 18.7082112,33.6925673 12.6736019,33.6925673 Z M10.1951016,54.8034701 C8.32724637,54.8034701 7.39331873,53.9012947 7.39331873,52.3856402 C7.39331873,49.5708531 10.5183843,48.6325908 16.229711,48.0191116 C16.2656313,51.772161 13.7152904,54.8034701 10.1951016,54.8034701 L10.1951016,54.8034701 Z M85.6636386,38.6004011 L85.6636386,34.4143075 L79.0543046,34.4143075 L79.0543046,59.2782597 L86.1306024,59.2782597 L86.1306024,47.2973713 C86.1306024,41.5956232 89.5430303,39.9356206 91.94969,39.9356206 C92.8836176,39.9356206 94.1408279,40.2243167 94.9669947,40.8377959 L96.2601252,34.2699595 C95.1825164,33.8008283 94.033067,33.6925673 93.0991394,33.6925673 C89.4711897,33.6925673 87.1722909,35.3164829 85.6636386,38.6004011 L85.6636386,38.6004011 Z M129.091274,33.6925673 C125.355563,33.6925673 122.55378,35.9299621 121.081048,38.0590959 C119.716077,35.2803959 116.878374,33.6925673 113.430026,33.6925673 C109.694315,33.6925673 107.108054,35.785614 105.886764,38.1673569 L105.886764,34.4143075 L99.0619081,34.4143075 L99.0619081,59.2782597 L106.138206,59.2782597 L106.138206,46.46737 C106.138206,41.8843193 108.544866,39.6830115 110.771924,39.6830115 C112.78346,39.6830115 114.651316,40.982144 114.651316,44.3743232 L114.651316,59.2782597 L121.763534,59.2782597 L121.763534,46.46737 C121.763534,41.8121453 124.098353,39.6830115 126.433172,39.6830115 C128.301027,39.6830115 130.276643,41.054318 130.276643,44.3382362 L130.276643,59.2782597 L137.352941,59.2782597 L137.352941,42.1008414 C137.352941,36.5073543 133.617231,33.6925673 129.091274,33.6925673 Z M48.3424535,32.5738699 L48.3424535,34.4143075 L37.6022857,34.4143075 L37.6022857,31.8882166 C37.6022857,28.6042984 39.470141,27.666036 41.0865542,27.666036 C42.0204818,27.666036 43.2417718,27.8825581 44.24754,28.4599503 L46.4386779,23.4438555 C45.1455474,22.6860282 43.02625,22.0003749 40.1885468,22.0003749 C35.6625898,22.0003749 30.5259878,24.5625529 30.5259878,32.6099569 L30.5259878,34.4503945 L26.4310744,34.4503945 L26.4310744,39.9356206 L30.5259878,39.9356206 L30.5259878,59.2782597 L37.6022857,59.2782597 L37.6022857,39.8995336 L48.3424535,39.8995336 L48.3424535,59.2782597 L55.4187513,59.2782597 L55.4187513,39.8995336 L61.8484839,39.8995336 L61.8484839,34.4143075 L55.4187513,34.4143075 L55.4187513,31.8882166 C55.4187513,28.6042984 57.2866066,27.666036 58.9030198,27.666036 C60.6990345,27.666036 62.0640057,28.4599503 62.0640057,28.4599503 L64.2551436,23.4438555 C64.2551436,23.4438555 62.0280854,22.0003749 58.0050125,22.0003749 C53.5149758,21.9642879 48.3424535,24.5264659 48.3424535,32.5738699 L48.3424535,32.5738699 Z M66.0511583,34.4143075 L73.1274561,34.4143075 L73.1274561,59.2782597 L66.0511583,59.2782597 L66.0511583,34.4143075 Z" id="Shape" fill="#060809"></path>
            <path d="M107.136587,0 C88.1042189,0 71.1468083,13.1945455 66.3529412,30.1793939 L73.2575408,30.1793939 C77.2643551,17.5212121 90.8946788,6.43636364 107.136587,6.43636364 C126.884457,6.43636364 143.913418,21.4545455 143.913418,44.84 C143.913418,50.0963636 143.233691,54.8163636 141.945786,59 L148.635735,59 L148.707285,58.7854545 C149.816314,54.4587879 150.352941,49.7745455 150.352941,44.84 C150.352941,18.7727273 131.356348,0 107.136587,0" id="Path" fill="#0FA0EA"></path>
        </g>
    </g>
</svg>