<?xml version="1.0" encoding="UTF-8"?>
<svg width="198px" height="74px" viewBox="0 0 198 74" version="1.1" xmlns="http://www.w3.org/2000/svg" xmlns:xlink="http://www.w3.org/1999/xlink">
    <title>Artboard</title>
    <g id="Artboard" stroke="none" stroke-width="1" fill="none" fill-rule="evenodd">
        <g id="venture-beat-seeklogo.com" transform="translate(23.000000, 28.000000)" fill-rule="nonzero">
            <path d="M18.1955076,0 L18.1955076,3.76548307 L17.4266834,3.76548307 C17.0422712,3.63996697 16.9141338,3.89099917 16.9141338,4.14203138 C15.7608974,8.03303055 14.4795237,11.7985136 13.1981499,15.6895128 C12.9418751,16.5681255 12.6856004,17.4467382 12.3011883,18.3253509 C12.3011883,18.4508671 12.0449135,18.5763832 11.9167761,18.5763832 L6.02245675,18.5763832 L5.89431937,18.1998348 C4.35667084,13.5557391 2.81902231,8.78612717 1.40951115,4.14203138 C1.28137378,3.76548307 1.1532364,3.76548307 0.768824266,3.76548307 L0,3.76548307 L0,0 L8.20079217,0 L8.20079217,3.76548307 L6.53500626,3.76548307 C7.4319679,7.27993394 8.32892955,10.7943848 9.22589119,14.1833196 L9.35402857,14.1833196 L12.3011883,3.76548307 L10.6354023,3.76548307 L10.6354023,0 L18.1955076,0 Z M31.1373828,5.0206441 L36.64729,5.0206441 L36.7754274,6.90338563 C37.1598395,6.52683732 37.4161143,6.15028902 37.672389,5.89925681 C39.2100376,4.64409579 41.0039608,4.39306358 42.9260215,5.0206441 C44.3355327,5.52270851 44.9762196,6.65235343 44.9762196,8.15854666 L44.9762196,14.8109001 L46.129456,14.8109001 L46.129456,18.5763832 L39.9788618,18.5763832 L39.9788618,10.1668043 C39.9788618,9.41370768 39.7225871,9.03715937 39.2100376,8.91164327 C38.5693507,8.78612717 38.0568012,8.91164327 37.672389,9.41370768 L37.4161143,9.79025599 L37.2879769,10.1668043 L37.2879769,14.8109001 L38.1849385,14.8109001 L38.1849385,18.5763832 L31.1373828,18.5763832 L31.1373828,14.8109001 L32.1624818,14.8109001 L32.1624818,8.78612717 L31.1373828,8.78612717 L31.1373828,5.0206441 Z M64.7093757,8.66061107 L63.8124141,8.66061107 L63.8124141,4.89512799 L69.8348759,4.89512799 L69.8348759,14.8109001 L70.9881123,14.8109001 L70.9881123,18.5763832 L65.3500626,18.5763832 L65.3500626,17.195706 C65.0937878,17.4467382 64.9656505,17.6977704 64.7093757,17.8232865 C63.2998646,19.0784476 60.8652544,19.3294798 59.1994685,18.5763832 C57.9180947,17.9488026 57.2774078,16.9446738 57.2774078,15.5639967 L57.1492704,9.28819158 L57.1492704,8.78612717 L55.996034,8.78612717 L55.996034,5.0206441 L62.1466282,5.0206441 L62.1466282,13.0536746 C62.1466282,13.430223 62.1466282,13.8067713 62.2747655,14.0578035 C62.4029029,14.5598679 62.9154524,14.8109001 63.4280019,14.8109001 C63.9405514,14.8109001 64.3249636,14.5598679 64.5812383,14.0578035 C64.7093757,13.9322874 64.7093757,13.6812552 64.7093757,13.430223 L64.7093757,8.66061107 Z M30.2404211,12.6771263 L21.6552168,12.6771263 C21.6552168,13.430223 21.6552168,14.1833196 22.039629,14.8109001 C22.2959037,15.3129645 22.9365906,15.5639967 23.4491401,15.5639967 C23.9616896,15.5639967 24.6023765,15.3129645 24.8586513,14.685384 C24.9867886,14.4343518 24.9867886,14.1833196 25.114926,13.8067713 L29.856009,13.8067713 C29.7278716,15.3129645 29.0871847,16.5681255 27.8058109,17.4467382 C26.9088493,18.0743187 25.8837503,18.4508671 24.8586513,18.5763832 C23.4491401,18.8274154 21.9114916,18.7018993 20.5019804,18.3253509 C18.5799198,17.6977704 17.298546,16.4426094 16.7859965,14.685384 C16.1453096,12.6771263 16.1453096,10.6688687 16.7859965,8.66061107 C17.5548207,6.27580512 19.348744,4.89512799 21.9114916,4.51857969 C23.064728,4.39306358 24.2179644,4.39306358 25.3712008,4.76961189 C27.9339483,5.52270851 29.3434595,7.15441784 29.856009,9.79025599 C30.1122837,10.7943848 30.1122837,11.6729975 30.2404211,12.6771263 L30.2404211,12.6771263 Z M21.7833542,10.0412882 L25.114926,10.0412882 C25.114926,9.28819158 25.114926,8.66061107 24.3461018,8.28406276 C23.7054149,7.90751445 23.064728,7.90751445 22.5521785,8.28406276 C21.7833542,8.66061107 21.7833542,9.28819158 21.7833542,10.0412882 L21.7833542,10.0412882 Z M97,12.6771263 L88.4147957,12.6771263 C88.4147957,13.430223 88.4147957,14.1833196 88.7992078,14.8109001 C89.18362,15.4384806 89.6961695,15.5639967 90.3368564,15.5639967 C90.9775433,15.5639967 91.4900928,15.1874484 91.7463675,14.685384 L92.0026423,13.9322874 L96.7437252,13.9322874 C96.4874505,16.6936416 94.4372524,18.5763832 91.6182301,18.8274154 C90.208719,18.9529315 88.9273452,18.9529315 87.6459714,18.4508671 C85.7239108,17.8232865 84.442537,16.5681255 83.8018501,14.685384 C83.1611632,12.6771263 83.1611632,10.7943848 83.8018501,8.78612717 C84.5706744,6.27580512 86.492735,5.0206441 89.0554826,4.64409579 C90.208719,4.51857969 91.4900928,4.51857969 92.6433292,4.89512799 C95.0779393,5.64822461 96.3593131,7.27993394 96.8718626,9.53922378 C97,10.6688687 97,11.6729975 97,12.6771263 Z M88.6710705,10.0412882 L92.0026423,10.0412882 C92.0026423,8.66061107 91.3619554,7.90751445 90.208719,8.03303055 C89.18362,8.15854666 88.5429331,8.91164327 88.6710705,10.0412882 Z M46.7701428,4.89512799 L48.3077914,4.89512799 L48.3077914,2.25928984 C48.3077914,1.75722543 48.4359287,1.63170933 48.9484783,1.50619323 L52.920737,0.627580512 L52.920737,4.89512799 L55.0990724,4.89512799 L55.0990724,8.66061107 L52.920737,8.66061107 L52.920737,13.9322874 C53.0488743,14.8109001 53.6895612,15.1874484 54.4583855,15.0619323 C54.5865229,15.0619323 54.7146603,15.0619323 54.970935,14.9364162 L54.970935,17.3212221 C54.970935,18.4508671 54.970935,18.4508671 53.8176986,18.5763832 C52.6644622,18.7018993 51.5112258,18.8274154 50.229852,18.5763832 C48.5640661,18.1998348 47.7952419,17.195706 47.7952419,15.5639967 L47.7952419,8.66061107 L46.6420055,8.66061107 C46.7701428,7.53096614 46.7701428,6.27580512 46.7701428,4.89512799 L46.7701428,4.89512799 Z M72.0132114,18.5763832 L72.0132114,14.8109001 L73.1664478,14.8109001 L73.1664478,8.78612717 L72.0132114,8.78612717 L72.0132114,5.0206441 L77.3949812,5.0206441 C77.3949812,5.64822461 77.5231186,6.40132122 77.5231186,7.15441784 C77.651256,7.02890173 77.651256,6.90338563 77.651256,6.77786953 C78.0356681,5.64822461 78.9326298,5.0206441 80.0858662,4.89512799 L81.8797894,4.89512799 C82.0079268,4.89512799 82.1360642,5.0206441 82.1360642,5.1461602 L82.1360642,9.28819158 C81.4953773,9.28819158 80.726553,9.16267547 80.0858662,9.28819158 C78.676355,9.53922378 78.0356681,10.2923204 77.9075307,11.6729975 L77.9075307,14.685384 L79.4451793,14.685384 L79.4451793,18.4508671 C77.1387065,18.5763832 74.5759589,18.5763832 72.0132114,18.5763832 L72.0132114,18.5763832 Z" id="path2" fill="#000000"></path>
            <path d="M107.642857,0.125633108 C108.414286,0.251266215 109.185714,0.251266215 109.828571,0.50253243 C112.785714,1.25633108 114.328571,4.77405809 112.785714,7.41235334 C112.4,8.04051888 111.885714,8.4174182 111.242857,8.79431753 C110.985714,8.91995063 110.728571,9.04558374 110.342857,9.29684996 C110.471429,9.42248306 110.6,9.42248306 110.728571,9.42248306 C112.785714,10.0506486 113.685714,11.5582459 113.814286,13.4427425 C114.071429,16.2066709 112.271429,18.2168006 109.442857,18.4680668 C108.542857,18.5936999 107.642857,18.5936999 106.871429,18.5936999 L98,18.5936999 L98,14.8247067 L99.6714286,14.8247067 L99.6714286,3.76899323 L98,3.76899323 L98,0 C101.342857,0.125633108 104.428571,0.125633108 107.642857,0.125633108 L107.642857,0.125633108 Z M104.814286,11.1813466 L104.814286,14.8247067 C104.814286,14.9503398 104.942857,15.0759729 105.071429,15.0759729 L107.257143,15.0759729 C107.771429,15.0759729 108.285714,14.8247067 108.542857,14.3221743 C109.185714,13.1914763 108.542857,11.683879 107.257143,11.4326128 C106.485714,11.1813466 105.714286,11.1813466 104.814286,11.1813466 L104.814286,11.1813466 Z M104.814286,7.66361956 C105.585714,7.66361956 106.228571,7.66361956 107,7.53798645 C107.9,7.41235334 108.414286,6.6585547 108.414286,5.77912295 C108.414286,4.89969119 107.9,4.14589255 107.128571,4.02025944 C106.357143,3.89462633 105.585714,3.89462633 104.814286,3.89462633 L104.814286,7.66361956 Z M151.871429,8.91995063 L149.942857,8.91995063 C149.814286,8.91995063 149.685714,9.04558374 149.685714,9.17121685 L149.685714,13.9452749 C149.685714,14.9503398 150.328571,15.4528722 151.485714,15.201606 L151.742857,15.201606 L151.742857,18.2168006 C151.742857,18.4680668 151.742857,18.5936999 151.485714,18.5936999 C150.071429,18.8449661 148.657143,18.9705992 147.114286,18.719333 C145.442857,18.3424337 144.671429,17.4630019 144.671429,15.8297715 L144.671429,8.79431753 L144.157143,8.79431753 C143.385714,8.79431753 143.514286,8.91995063 143.514286,8.16615199 L143.514286,5.0253243 L145.057143,5.0253243 L145.057143,2.51266215 C145.057143,1.6332304 144.928571,1.75886351 145.828571,1.6332304 C147.114286,1.38196418 148.271429,1.13069797 149.685714,0.753798645 L149.685714,5.0253243 L152,5.0253243 C151.871429,6.40728848 151.871429,7.66361956 151.871429,8.91995063 L151.871429,8.91995063 Z M136.7,10.3019148 L136.7,9.04558374 C136.7,8.2917851 136.185714,7.78925267 135.542857,7.78925267 C134.9,7.78925267 134.257143,8.2917851 134.257143,8.91995063 L134.257143,9.42248306 L129.628571,9.42248306 C129.5,7.66361956 130.4,6.15602227 132.071429,5.40222362 C134.514286,4.39715876 137.085714,4.39715876 139.528571,5.52785673 C141.071429,6.28165538 141.842857,7.41235334 141.842857,9.04558374 L141.842857,14.6990736 L143,14.6990736 L143,18.4680668 L137.214286,18.4680668 C137.214286,17.9655344 137.085714,17.5886351 137.085714,16.9604695 C136.957143,17.0861026 136.828571,17.2117357 136.828571,17.3373688 C135.285714,19.0962323 132.457143,19.0962323 130.914286,18.3424337 C129.757143,17.7142682 129.242857,16.5835702 129.114286,15.3272391 C128.985714,12.5633108 130.4,10.8044472 133.357143,10.3019148 L136.442857,10.0506486 C136.314286,10.3019148 136.442857,10.3019148 136.7,10.3019148 L136.7,10.3019148 Z M136.7,12.6889439 L135.542857,12.6889439 C134.385714,12.814577 133.871429,13.6940087 134,14.6990736 C134.128571,15.5785053 134.9,16.0810378 135.8,15.7041384 C136.314286,15.5785053 136.571429,15.201606 136.7,14.6990736 L136.7,12.6889439 Z M128.471429,12.814577 L119.857143,12.814577 C119.857143,13.6940087 119.857143,14.4478074 120.371429,15.0759729 C120.757143,15.5785053 121.271429,15.7041384 121.914286,15.7041384 C122.557143,15.7041384 122.942857,15.3272391 123.2,14.8247067 L123.457143,14.070908 L128.214286,14.070908 C128.085714,15.5785053 127.442857,16.8348364 126.157143,17.7142682 C124.614286,18.8449661 122.942857,19.0962323 121.142857,18.9705992 C120.371429,18.9705992 119.728571,18.8449661 118.957143,18.5936999 C117.028571,18.0911675 115.871429,16.8348364 115.228571,15.0759729 C114.585714,12.9402101 114.457143,10.8044472 115.357143,8.66868442 C116.257143,6.40728848 118.057143,5.15095741 120.5,4.89969119 C121.657143,4.77405809 122.942857,4.89969119 124.1,5.15095741 C126.542857,5.90475605 127.828571,7.66361956 128.342857,10.0506486 C128.342857,10.9300804 128.471429,11.8095121 128.471429,12.814577 L128.471429,12.814577 Z M123.457143,10.3019148 C123.457143,9.54811617 123.328571,8.79431753 122.685714,8.4174182 C122.042857,8.04051888 121.4,8.04051888 120.757143,8.54305131 C120.242857,8.91995063 120.114286,9.54811617 120.114286,10.3019148 L123.457143,10.3019148 Z" id="path2-4" fill="#FF0113"></path>
        </g>
    </g>
</svg>