<?xml version="1.0" encoding="UTF-8"?>
<svg width="198px" height="74px" viewBox="0 0 198 74" version="1.1" xmlns="http://www.w3.org/2000/svg" xmlns:xlink="http://www.w3.org/1999/xlink">
    <title>Artboard</title>
    <g id="Artboard" stroke="none" stroke-width="1" fill="none" fill-rule="evenodd">
        <g id="Business_Insider_Logo" transform="translate(34.000000, 17.000000)" fill="#111111">
            <path d="M10.8743786,40 L13.8751942,40 L13.8751942,24 L10.8743786,24 L10.8743786,40 Z M21.8744466,39.76 L24.5621553,39.76 L24.5621553,29.665 L35.8753301,40 L35.8753301,24.24 L33.1951359,24.24 L33.1951359,34.1625 L21.8744466,24 L21.8744466,39.76 Z M42.0109709,35.885 C43.4738058,37.0225 45.2297087,37.68 47.1121068,37.68 C48.9456602,37.68 50.2319029,37.05 50.2319029,35.65875 C50.2319029,34.44625 49.4115631,33.97125 47.9750291,33.44 L45.6492718,32.63375 C43.5051165,31.87375 41.8744563,30.76375 41.8744563,28.2125 C41.8744563,25.48375 44.3429903,24 47.2949612,24 C49.103466,24 50.7516602,24.45375 52.0391553,25.2575 L52.0391553,27.96375 C50.7003107,26.97625 49.2349709,26.29625 47.3525728,26.29625 C45.731932,26.29625 44.520835,26.9 44.520835,28.15875 C44.520835,29.29625 45.2810583,29.75125 46.6199029,30.20875 L49.2111748,31.11625 C51.7222913,31.9975 52.8745243,33.36375 52.8745243,35.61125 C52.8745243,38.43875 50.3821942,40 47.1121068,40 C44.9629417,40 43.1356505,39.4 42.0109709,38.6425 L42.0109709,35.885 Z M59.8755922,40 L62.8751553,40 L62.8751553,24 L59.8755922,24 L59.8755922,40 Z M76.9474272,37.57875 C80.3289806,37.57875 82.136233,35.41375 82.136233,31.99625 C82.136233,28.55375 80.3277282,26.39625 76.9474272,26.39625 L73.6034466,26.39625 L73.6034466,37.57875 L76.9474272,37.57875 L76.9474272,37.57875 Z M70.8731553,24 L77.0476214,24 C81.8005825,24 84.8740388,27.125 84.8740388,31.99625 C84.8740388,36.87125 81.8005825,40 77.0476214,40 L70.8731553,40 L70.8731553,24 Z M99.8756117,24 L99.8756117,26.39625 L92.6152913,26.39625 L92.6152913,30.24625 L99.1266602,30.24625 L99.1266602,32.615 L92.6140388,32.615 L92.6140388,37.57875 L99.8756117,37.57875 L99.8756117,40 L89.8749806,40 L89.8749806,24 L99.8756117,24 Z M110.523748,31.245 L113.500767,31.245 C115.262932,31.245 116.256107,30.28 116.256107,28.79625 C116.256107,27.3125 115.262932,26.34625 113.500767,26.34625 L110.523748,26.34625 L110.523748,31.24625 L110.523748,31.245 Z M110.523748,33.5075 L110.523748,40 L107.874864,40 L107.874864,24 L113.550864,24 C116.787136,24 118.881194,25.66375 118.881194,28.79625 C118.881194,31.475 117.718942,33.01375 115.242893,33.40875 L120.875058,40 L117.861718,40 L112.40865,33.50875 L110.525,33.50875 L110.523748,33.5075 Z M9.82609709,8.2375 C10.9996214,7.80875 11.9138932,6.5225 11.9138932,4.75375 C11.9138932,1.80625 9.82609709,0.27875 6.48587379,0.27875 L0.875,0.27875 L0.875,16.7325 L7.0068835,16.7325 C10.3471068,16.7325 12.4349029,15.0975 12.4349029,12.01625 C12.4349029,10.27375 11.3390291,8.74625 9.82609709,8.2375 Z M3.5101068,7.1925 L3.5101068,2.69125 L6.46082524,2.69125 C8.31441748,2.69125 9.30508738,3.36125 9.30508738,4.915 C9.30508738,6.46875 8.31316505,7.1925 6.46082524,7.1925 L3.5101068,7.1925 Z M3.5101068,9.4975 L6.95428155,9.4975 C8.78282524,9.4975 9.77349515,10.4075 9.77349515,11.90875 C9.77349515,13.3825 8.78157282,14.32125 6.95553398,14.32125 L3.51135922,14.32125 L3.51135922,9.49625 L3.5101068,9.4975 Z M24.6773786,17 C28.5135631,17 31.0973204,14.695 31.0973204,10.19375 L31.0973204,0.27875 L28.3833107,0.27875 L28.3833107,9.87125 C28.3833107,13.03375 27.0782816,14.50875 24.6773786,14.50875 C22.2764757,14.50875 20.972699,13.03375 20.972699,9.87125 L20.972699,0.27875 L18.2586893,0.27875 L18.2586893,10.16625 C18.2586893,14.695 20.8674951,17 24.6773786,17 L24.6773786,17 Z M37.4872039,15.5525 C38.6093786,16.3575 40.4366699,17 42.5758155,17 C45.8383883,17 48.3169417,15.3375 48.3169417,12.3375 C48.3169417,9.9525 47.1697184,8.505 44.6636117,7.5675 L42.0811068,6.6025 C40.7497767,6.12125 39.9933107,5.63875 39.9933107,4.4325 C39.9933107,3.0925 41.1931359,2.45 42.8112718,2.45 C44.6899126,2.45 46.1514951,3.1725 47.4828252,4.21875 L47.4828252,1.35 C46.2040971,0.49375 44.5596602,0.01125 42.7586699,0.01125 C39.8104563,0.01125 37.3569515,1.5925 37.3569515,4.48625 C37.3569515,7.1925 38.9750874,8.37125 41.114233,9.175 L43.4374854,10.0325 C44.872767,10.595 45.681835,11.105 45.681835,12.39125 C45.681835,13.865 44.4031068,14.535 42.5758155,14.535 C40.6971748,14.535 38.9487864,13.8375 37.4872039,12.6325 L37.4872039,15.5525 L37.4872039,15.5525 Z M58.0144854,0.27875 L55.3017282,0.27875 L55.3017282,16.73125 L58.0144854,16.73125 L58.0144854,0.27875 Z M65.7569903,16.71125 L68.3720583,16.71125 L68.3720583,6.0075 L79.3783883,16.96625 L79.3783883,0.25375 L76.770835,0.25375 L76.770835,10.775 L65.7569903,0 L65.7569903,16.71125 L65.7569903,16.71125 Z M96.3375049,0.2825 L96.3375049,2.74625 L89.2913495,2.74625 L89.2913495,6.70625 L95.6098447,6.70625 L95.6098447,9.1425 L89.2913495,9.1425 L89.2913495,14.24625 L96.3375049,14.24625 L96.3375049,16.73625 L86.6311942,16.73625 L86.6311942,0.2825 L96.3375049,0.2825 Z M102.656,15.54125 C103.778175,16.34625 105.604214,16.98875 107.744612,16.98875 C111.005932,16.98875 113.485738,15.3275 113.485738,12.32625 C113.485738,9.94125 112.337262,8.495 109.832408,7.55625 L107.24865,6.5925 C105.91732,6.11 105.160854,5.6275 105.160854,4.42125 C105.160854,3.08125 106.36068,2.43875 107.978816,2.43875 C109.857456,2.43875 111.319039,3.1625 112.650369,4.2075 L112.650369,1.34 C111.371641,0.4825 109.727204,0 107.926214,0 C104.978,0 102.524495,1.58125 102.524495,4.475 C102.524495,7.18125 104.142631,8.36 106.281777,9.16375 L108.605029,10.02125 C110.040311,10.58375 110.849379,11.09375 110.849379,12.38 C110.849379,13.85375 109.571903,14.52375 107.743359,14.52375 C105.864718,14.52375 104.11633,13.8275 102.656,12.62125 L102.656,15.54125 Z M119.045262,15.54125 C120.167437,16.34625 121.994728,16.98875 124.133874,16.98875 C127.396447,16.98875 129.875,15.3275 129.875,12.32625 C129.875,9.94125 128.726524,8.495 126.22167,7.55625 L123.637913,6.5925 C122.307835,6.11 121.550117,5.6275 121.550117,4.42125 C121.550117,3.08125 122.751194,2.43875 124.368078,2.43875 C126.246718,2.43875 127.709553,3.1625 129.039631,4.2075 L129.039631,1.34 C127.762155,0.4825 126.117718,0 124.316728,0 C121.367262,0 118.91501,1.58125 118.91501,4.475 C118.91501,7.18125 120.533146,8.36 122.672291,9.16375 L124.995544,10.02125 C126.430825,10.58375 127.239893,11.09375 127.239893,12.38 C127.239893,13.85375 125.961165,14.52375 124.133874,14.52375 C122.255233,14.52375 120.506845,13.8275 119.045262,12.62125 L119.045262,15.54125 Z" id="Shape"></path>
        </g>
    </g>
</svg>