<?xml version="1.0" encoding="UTF-8"?>
<svg width="198px" height="74px" viewBox="0 0 198 74" version="1.1" xmlns="http://www.w3.org/2000/svg" xmlns:xlink="http://www.w3.org/1999/xlink">
    <title>Artboard</title>
    <g id="Artboard" stroke="none" stroke-width="1" fill="none" fill-rule="evenodd">
        <g id="Fortune_magazine_logo_2016" transform="translate(34.000000, 22.000000)" fill="#000000" fill-rule="nonzero">
            <path d="M17.1584561,6.86746977 L17.1584561,23.0602409 C17.1584561,26.8530398 20.2474412,29.9277107 24.0578974,29.9277107 C27.8683536,29.9277107 30.9573388,26.8530398 30.9573388,23.0602409 L30.9573388,6.86746977 C30.9573388,3.07467092 27.8683536,0 24.0578974,0 C20.2474412,0 17.1584561,3.07467092 17.1584561,6.86746977 M22.0970036,23.0602409 L22.0970036,6.86746977 C22.0909792,6.34148899 22.3083795,5.83743202 22.6956343,5.47950457 C23.0828892,5.12157711 23.603987,4.94306352 24.1305231,4.98795169 C24.6361506,4.97170388 25.1259817,5.16450159 25.4837006,5.52056282 C25.8414194,5.87662405 26.0351147,6.36418535 26.0187913,6.86746977 L26.0187913,23.0602409 C26.0032046,24.0917755 25.16686,24.9242446 24.1305231,24.939759 C23.6103656,24.9592904 23.1037499,24.7721629 22.7223108,24.4196107 C22.3408717,24.0670586 22.1159124,23.5780143 22.0970036,23.0602409 M70.7562214,0.36144564 L56.8120874,0.36144564 L56.8120874,5.27710831 L61.3148807,5.27710831 L61.3148807,29.4216867 L66.2534281,29.4216867 L66.2534281,5.27710831 L70.7562214,5.27710831 L70.7562214,0.36144564 Z M85.2813611,0.36144564 L85.2813611,23.0602409 C85.2813611,24.0982701 84.4359546,24.939759 83.3930929,24.939759 C82.3502312,24.939759 81.5048248,24.0982701 81.5048248,23.0602409 L81.5048248,0.36144564 L76.4210259,0.36144564 L76.4210259,23.0602409 C76.4210259,26.892964 79.5425266,30 83.3930929,30 C87.2436592,30 90.36516,26.892964 90.36516,23.0602409 L90.36516,0.36144564 L85.2813611,0.36144564 Z M130.454545,5.27710831 L130.454545,0.36144564 L118.253428,0.36144564 L118.253428,29.4216867 L130.454545,29.4216867 L130.454545,24.5060241 L123.191976,24.5060241 L123.191976,16.9879517 L127.84002,16.9879517 L127.84002,12.0722891 L123.191976,12.0722891 L123.191976,5.27710831 L130.454545,5.27710831 Z M52.1640427,29.4216867 L46.9349924,29.4216867 L43.3037075,15.6867469 C45.1727227,15.3186379 46.5145385,13.6794949 46.4992382,11.7831324 L46.4992382,7.30120471 C46.511263,6.76080055 46.3008815,6.23898013 45.916885,5.85676297 C45.5328884,5.47454582 45.0086386,5.26513921 44.4657186,5.27710831 L42.5774505,5.27710831 L42.5774505,29.4216867 L37.638903,29.4216867 L37.638903,0.361163429 L44.4657186,0.361163429 C48.2177591,0.327955274 51.3118125,3.27934958 51.4377857,7.01204808 L51.4377857,11.6385541 C51.5722681,14.0727093 50.5503055,16.4283928 48.6780091,17.9999999 L52.1640427,29.4216867 Z M107.214322,0.36144564 L107.214322,16.2650602 L102.130523,0.36144564 L97.0467242,0.36144564 L97.0467242,29.4216867 L102.130523,29.4216867 L102.130523,15.253012 L106.778568,29.4216867 L112.298121,29.4216867 L112.298121,0.36144564 L107.214322,0.36144564 Z M0.454545455,0.795180582 L0.454545455,29.8554217 L5.68359573,29.8554217 L5.68359573,17.4216867 L10.4768918,17.4216867 L10.4768918,12.506024 L5.68359573,12.506024 L5.68359573,5.71084326 L13.2366684,5.71084326 L13.2366684,0.795180582 L0.454545455,0.795180582 Z" id="path20"></path>
        </g>
    </g>
</svg>