<?xml version="1.0" encoding="UTF-8"?>
<svg width="234px" height="85px" viewBox="0 0 234 85" version="1.1" xmlns="http://www.w3.org/2000/svg" xmlns:xlink="http://www.w3.org/1999/xlink">
    <title>Artboard</title>
    <g id="Artboard" stroke="none" stroke-width="1" fill="none" fill-rule="evenodd">
        <g id="techcrunch-vector-logo" transform="translate(18.000000, 28.000000)" fill-rule="nonzero">
            <polygon id="Fill-1" fill="#0A9901" points="37.096173 9.55407654 55.5783694 9.55407654 55.5783694 0.131780366 37.096173 0.131780366"></polygon>
            <polyline id="Fill-2" fill="#0A9901" points="0.164725458 0.131780366 0.164725458 9.55407654 9.38935108 9.55407654 9.38935108 28.3986689 18.6139767 28.3986689 18.6139767 9.55407654 27.8715474 9.55407654 27.8715474 0.131780366 0.164725458 0.131780366"></polyline>
            <polyline id="Fill-3" fill="#0A9901" points="27.8715474 28.3986689 55.5783694 28.3986689 55.5783694 18.9763727 37.096173 18.9763727 37.096173 9.55407654 27.8715474 9.55407654 27.8715474 28.3986689"></polyline>
            <polyline id="Fill-4" fill="#1A1919" points="79.1341098 7.24792013 65.5607321 7.24792013 65.5607321 11.168386 70.1071547 11.168386 70.1071547 23.4569052 74.5876872 23.4569052 74.5876872 11.168386 79.1341098 11.168386 79.1341098 7.24792013"></polyline>
            <path d="M84.240599,11.0366057 C81.0449251,11.0366057 78.6728785,13.1780366 78.6728785,17.3950083 C78.6728785,21.1178037 80.6825291,23.7204659 84.3394343,23.7204659 C86.2502496,23.7204659 87.7986689,23.2262895 89.281198,22.336772 L87.6998336,19.6682196 C86.4808652,20.2941764 85.6242928,20.524792 84.5371048,20.524792 C83.4169717,20.524792 82.6262895,19.9317804 82.4615641,18.5810316 L89.6106489,18.5810316 C89.643594,18.3833611 89.643594,18.1198003 89.643594,17.7574043 C89.6765391,13.2439268 87.6009983,11.0366057 84.240599,11.0366057 Z M82.5274542,15.9783694 C82.6592346,14.759401 83.1863561,14.1334443 84.1417637,14.1334443 C85.3607321,14.1334443 85.7890183,14.759401 85.9866889,15.9783694 L82.5274542,15.9783694 Z" id="Fill-5" fill="#1A1919"></path>
            <path d="M97.5833611,20.3271215 C96.463228,20.3271215 95.8702163,19.3387687 95.8702163,17.3950083 C95.8702163,15.484193 96.3973378,14.397005 97.4845258,14.397005 C98.3740433,14.397005 98.7693844,14.8911814 99.362396,15.9783694 L102.228619,13.8039933 C101.174376,12.0908486 99.8565724,11.0366057 97.550416,11.0366057 C93.6628952,11.0366057 91.7520799,13.6063228 91.7520799,17.3291181 C91.7520799,21.4143095 93.8935108,23.6875208 97.4515807,23.6875208 C99.5930116,23.6875208 100.910815,22.8638935 102.327454,20.7883527 L99.6918469,18.712812 C98.9011647,19.8988353 98.3740433,20.3271215 97.5833611,20.3271215" id="Fill-6" fill="#1A1919"></path>
            <path d="M111.947421,11.0366057 C110.497837,11.0366057 109.641265,11.530782 108.883527,12.0908486 L108.883527,6.5890183 L104.699501,8.26921797 L104.699501,23.4898502 L108.883527,23.4898502 L108.883527,16.5384359 C108.883527,15.0229617 109.410649,14.5946755 110.300166,14.5946755 C111.156739,14.5946755 111.68386,15.0229617 111.68386,16.571381 L111.68386,23.4898502 L115.867887,23.4898502 L115.867887,16.0442596 C115.867887,12.8485857 114.583028,11.0366057 111.947421,11.0366057" id="Fill-7" fill="#1A1919"></path>
            <path d="M125.91614,19.8 C123.972379,19.8 123.181697,17.8232945 123.181697,15.3524126 C123.181697,12.7826955 124.005324,10.9048253 125.883195,10.9048253 C127.365724,10.9048253 127.92579,11.8602329 128.485857,13.3757072 L132.571048,11.7613977 C131.450915,8.69750416 129.869551,6.9843594 125.883195,6.9843594 C121.534443,6.9843594 118.470549,10.1470882 118.470549,15.3524126 C118.470549,20.162396 121.040266,23.7204659 125.85025,23.7204659 C129.704825,23.7204659 131.516805,21.6449251 132.603993,19.5364393 L128.815308,17.5267887 C127.92579,19.0422629 127.332779,19.8 125.91614,19.8" id="Fill-8" fill="#1A1919"></path>
            <path d="M139.324792,12.1896839 L139.324792,11.3001664 L135.140765,11.3001664 L135.140765,23.4569052 L139.324792,23.4569052 L139.324792,16.8349418 C139.324792,15.3524126 139.950749,14.8582363 140.972047,14.8582363 C141.795674,14.8582363 142.388686,15.2865225 142.915807,15.8795341 L143.90416,11.5637271 C143.409983,11.2672213 142.816972,11.0366057 141.927454,11.0366057 C140.840266,11.0366057 140.016639,11.4978369 139.324792,12.1896839" id="Fill-9" fill="#1A1919"></path>
            <path d="M152.83228,18.2515807 C152.83228,19.7670549 152.305158,20.1953411 151.448586,20.1953411 C150.592013,20.1953411 150.064892,19.7670549 150.064892,18.2186356 L150.064892,11.3001664 L145.880865,11.3001664 L145.880865,18.7457571 C145.880865,21.9414309 147.165724,23.7204659 149.834276,23.7204659 C151.250915,23.7204659 152.140433,23.2262895 152.865225,22.666223 L152.865225,23.4898502 L157.049251,23.4898502 L157.049251,11.3331115 L152.865225,11.3331115 L152.865225,18.2515807" id="Fill-10" fill="#1A1919"></path>
            <path d="M167.295175,11.0366057 C165.845591,11.0366057 164.989018,11.530782 164.231281,12.0908486 L164.231281,11.2672213 L160.047255,11.2672213 L160.047255,23.4239601 L164.231281,23.4239601 L164.231281,16.4725458 C164.231281,14.9570715 164.758403,14.5287854 165.64792,14.5287854 C166.504493,14.5287854 167.031614,14.9570715 167.031614,16.5054908 L167.031614,23.4239601 L171.215641,23.4239601 L171.215641,15.9783694 C171.215641,12.8485857 169.963727,11.0366057 167.295175,11.0366057" id="Fill-11" fill="#1A1919"></path>
            <path d="M179.517804,20.3271215 C178.397671,20.3271215 177.804659,19.3387687 177.804659,17.3950083 C177.804659,15.484193 178.33178,14.397005 179.386023,14.397005 C180.275541,14.397005 180.670882,14.8911814 181.263894,15.9783694 L184.130116,13.8039933 C183.075874,12.0908486 181.75807,11.0366057 179.451913,11.0366057 C175.564393,11.0366057 173.653577,13.6063228 173.653577,17.3291181 C173.653577,21.4143095 175.795008,23.6875208 179.353078,23.6875208 C181.494509,23.6875208 182.812313,22.8638935 184.228952,20.7883527 L181.593344,18.712812 C180.868552,19.8988353 180.308486,20.3271215 179.517804,20.3271215" id="Fill-12" fill="#1A1919"></path>
            <path d="M193.881864,11.0366057 C192.43228,11.0366057 191.575707,11.530782 190.81797,12.0908486 L190.81797,6.5890183 L186.633943,8.26921797 L186.633943,23.4898502 L190.81797,23.4898502 L190.81797,16.5384359 C190.81797,15.0229617 191.345092,14.5946755 192.234609,14.5946755 C193.091181,14.5946755 193.618303,15.0229617 193.618303,16.571381 L193.618303,23.4898502 L197.802329,23.4898502 L197.802329,16.0442596 C197.835275,12.8485857 196.550416,11.0366057 193.881864,11.0366057" id="Fill-13" fill="#1A1919"></path>
        </g>
    </g>
</svg>