<?xml version="1.0" encoding="UTF-8"?>
<svg width="59px" height="57px" viewBox="0 0 59 57" version="1.1" xmlns="http://www.w3.org/2000/svg" xmlns:xlink="http://www.w3.org/1999/xlink">
    <title>Artboard Copy</title>
    <g id="Artboard-Copy" stroke="none" stroke-width="1" fill="none" fill-rule="evenodd">
        <g id="ic-twitter-copy" transform="translate(14.000000, 16.000000)" fill="#073E4B" fill-rule="nonzero">
            <path d="M9.93753775,25 C21.2588177,25 27.4498578,15.3826939 27.4498578,7.04333144 C27.4498578,6.77004894 27.4444577,6.49799675 27.4322177,6.22742126 C28.6338978,5.33669984 29.6786176,4.22523601 30.5027778,2.95972005 C29.3998576,3.46198899 28.2130576,3.80060835 26.9680578,3.95318392 C28.2388576,3.17209541 29.2144577,1.93574106 29.6745376,0.46215634 C28.4850976,1.18504464 27.1683376,1.71081516 25.7663777,1.99394126 C24.6432976,0.767307475 23.0436978,0 21.2736978,0 C17.8743377,0 15.1178177,2.82646252 15.1178177,6.31072269 C15.1178177,6.80610106 15.1719377,7.28757538 15.2774177,7.74973181 C10.1621778,7.48604675 5.62617777,4.97457894 2.59077778,1.15588301 C2.06169778,2.08831665 1.75725776,3.17209541 1.75725776,4.32785539 C1.75725776,6.51756088 2.84385778,8.45047194 4.49613777,9.58125394 C3.48669778,9.54938537 2.53809778,9.26490569 1.70853776,8.79167537 C1.70709776,8.81800681 1.70709776,8.84446144 1.70709776,8.87214663 C1.70709776,11.9290719 3.82905776,14.4807756 6.64509775,15.0594551 C6.12825776,15.2036637 5.58417777,15.2814281 5.02257776,15.2814281 C4.62609777,15.2814281 4.24041776,15.2411925 3.86553776,15.1676116 C4.64913776,17.6750188 6.92121777,19.4996505 9.6154577,19.5510833 C7.50849775,21.2438108 4.85481778,22.2525325 1.97109777,22.2525325 C1.47441779,22.2525325 0.984577774,22.2234938 0.502777778,22.1651704 C3.22689778,23.9551034 6.46113775,25 9.93753775,25" id="Fill-1"></path>
        </g>
    </g>
</svg>