<?xml version="1.0" encoding="UTF-8"?>
<svg width="313px" height="157px" viewBox="0 0 313 157" version="1.1" xmlns="http://www.w3.org/2000/svg" xmlns:xlink="http://www.w3.org/1999/xlink">
    <title>Artboard</title>
    <defs>
        <polygon id="path-1" points="0.000145682953 0.231349294 73.3543274 0.231349294 73.3543274 59.848956 0.000145682953 59.848956"></polygon>
    </defs>
    <g id="Artboard" stroke="none" stroke-width="1" fill="none" fill-rule="evenodd">
        <g id="Group-9-Copy" transform="translate(48.000000, 49.000000)">
            <polygon id="Fill-1" fill="#635954" points="213.553908 25 213.553908 25.3334681 213.938607 25.3334681 213.938607 27 214.169481 27 214.169481 25.3334681 214.553908 25.3334681 214.553908 25"></polygon>
            <polygon id="Fill-2" fill="#635954" points="217.307797 25 216.566706 26.4129071 215.82404 25 215.553908 25 215.553908 27 215.854361 27 215.854361 25.7185919 216.529297 27 216.568675 27 217.245186 25.7246611 217.245186 27 217.553908 27 217.553908 25"></polygon>
            <g id="Group-8" transform="translate(0.553908, 0.000000)">
                <g id="Group-5">
                    <mask id="mask-2" fill="white">
                        <use xlink:href="#path-1"></use>
                    </mask>
                    <g id="Clip-4"></g>
                    <path d="M72.1212869,34.2048926 C71.8632439,34.0022105 71.574337,33.8639039 71.25659,33.8030489 C69.3971628,35.6478081 67.1263847,37.5916451 65.107578,38.8962539 C64.1781174,39.5118442 63.003769,39.8206453 62.231158,39.8206453 C60.4471198,39.8206453 59.671473,38.1297837 59.4392344,35.4405996 C59.1255351,31.8290359 58.9170768,27.5053188 58.9170768,20.8218388 C58.9170768,13.9638411 57.3531341,9.30617625 53.1829575,8.94104671 C53.0048573,8.92193525 52.827263,8.91338538 52.6420792,8.91338538 C50.0849241,8.91338538 48.8417642,10.2179942 47.2140697,13.5207569 C45.8170959,16.3673591 43.6444754,20.5135408 39.6119217,28.3502466 C36.1222702,35.11319 32.2440363,41.103628 28.9081986,45.2503126 C27.978232,46.4040415 27.2440745,47.1896232 26.554948,47.6442749 C26.0945184,47.9415084 25.6512916,48.0928913 25.1863084,48.0928913 C23.8697833,48.0928913 22.9089527,46.9889528 22.587664,44.4174551 C22.5092391,43.8079 22.4723036,43.1143551 22.4723036,42.3322939 C22.4723036,37.0298687 24.4885804,28.4276984 27.9762081,15.7517688 C30.5379169,6.52948178 29.4516067,0.231248708 23.8672535,0.231248708 L23.8409432,0.231248708 L23.8040076,0.231248708 L23.797936,0.233763374 C22.5350434,0.248348438 21.4861747,0.704508895 20.4752535,1.49361116 C19.4845709,2.2701401 18.4873107,3.95044008 17.5573442,6.21414264 C16.5120172,8.75948781 10.1413919,21.4560377 0.00738711217,27.9981934 C-0.114550835,30.4841924 1.30468544,32.9722032 4.17452792,33.2392608 C6.78632745,33.4851951 8.63968305,32.3923212 11.0298692,30.796011 C10.8497451,31.5901426 10.6848,32.3304604 10.5345279,33.0079115 C10.3544038,33.81009 10.2046377,34.5011203 10.0806759,35.0583703 C9.90004582,35.8902219 9.78519141,36.4213194 9.75027971,36.5701877 C9.41785967,38.0840167 9.18359714,39.5198912 9.02877136,40.8858579 C7.59739189,53.5829107 13.5177069,59.848956 20.4534969,59.848956 C21.6141842,59.848956 22.7586807,59.7121582 23.9021652,59.4234745 C31.5417547,57.4967372 38.896485,48.788448 47.6011341,28.7339847 C47.4705947,30.9162121 47.4554158,32.9530917 47.5495255,34.8441208 C48.1248095,46.3366484 52.6992535,49.7852617 59.1604468,49.7852617 C64.0430243,49.7852617 68.621516,47.2484664 70.9484563,44.0996013 C72.6535637,41.8726129 73.3543274,39.4122635 73.3543274,37.4930702 C73.3543274,36.002376 72.8782129,34.8099213 72.1212869,34.2048926" id="Fill-3" fill="#ED5252" mask="url(#mask-2)"></path>
                </g>
                <path d="M88.7440601,33.0929072 L88.7440601,18.4193267 L95.0868573,18.4193267 L95.0868573,32.9787413 C95.0868573,38.2072354 97.4456735,39.2855243 100.696509,39.2855243 C104.214495,39.2855243 106.031421,37.7450397 106.031421,32.9787413 L106.031421,18.4193267 L112.412165,18.4193267 L112.412165,33.0929072 C112.412165,41.7428561 108.623487,45.3584433 100.383821,45.3584433 C92.7270291,45.3584433 88.7440601,42.2442806 88.7440601,33.0929072 L88.7440601,33.0929072 Z M130.029922,43.3587807 C128.443716,44.5502295 126.624767,45.2809915 124.034724,45.2809915 C118.58091,45.2809915 114.635382,41.9374913 114.635382,35.0518322 C114.635382,28.2109341 119.161253,24.52041 124.965702,24.52041 C126.317139,24.52041 127.630628,24.7120275 128.830781,25.1742232 L128.830781,16.7686998 L134.943363,16.7686998 L134.943363,44.81779 L131.072719,44.81779 L130.029922,43.3587807 Z M125.310771,40.0907204 C126.703697,40.0907204 127.745989,39.859874 128.830781,39.0521632 L128.830781,30.4394314 C127.863373,29.8640757 126.896471,29.5929947 125.503545,29.5929947 C122.526943,29.5929947 120.825884,31.5941661 120.825884,34.9396781 C120.825884,38.2072354 122.566915,40.0907204 125.310771,40.0907204 L125.310771,40.0907204 Z M148.066619,45.2025339 C142.187287,45.2025339 137.467631,42.3222352 137.467631,34.7083288 C137.467631,27.5973556 142.032967,24.52041 147.291478,24.52041 C153.635793,24.52041 156.45858,28.9411932 156.45858,35.9007835 L143.656108,35.9007835 C144.08365,39.3222384 146.209215,40.3220697 149.030991,40.3220697 C151.765234,40.3220697 153.900413,39.6526655 155.549864,38.5462124 L154.724633,43.3648159 C153.144499,44.5763821 151.25269,45.2025339 148.066619,45.2025339 L148.066619,45.2025339 Z M143.695067,32.9787413 L151.545139,32.9787413 C151.121645,30.4017114 149.728719,29.1730454 147.640595,29.1730454 C145.86111,29.1730454 144.160051,30.2095909 143.695067,32.9787413 L143.695067,32.9787413 Z M165.00638,31.2868739 L165.00638,44.81779 L158.896327,44.81779 L158.896327,25.0193197 L163.190466,25.0193197 L164.46702,26.750416 C166.127096,25.3643319 167.90911,24.5596388 169.958275,24.5596388 C172.702132,24.5596388 174.792786,25.3643319 176.070351,27.3629887 C177.925731,25.6741388 179.898495,24.5596388 182.413148,24.5596388 C187.130275,24.5596388 189.878685,26.9802565 189.878685,33.5571146 L189.878685,44.81779 L183.766609,44.81779 L183.766609,34.2486478 C183.766609,31.2099251 182.528003,30.3242596 180.555745,30.3242596 C179.397082,30.3242596 178.42765,30.6340665 177.343869,31.323588 C177.421788,32.0156242 177.463277,32.747895 177.463277,33.5571146 L177.463277,44.81779 L171.351201,44.81779 L171.351201,34.2486478 C171.351201,31.2099251 170.112089,30.3242596 168.102895,30.3242596 C166.981674,30.3242596 166.053731,30.5943348 165.00638,31.2868739 L165.00638,31.2868739 Z M195.071926,51.4187889 L201.127335,51.4187889 L211.606915,25.0193197 L205.612222,25.0193197 L201.281654,38.1710242 L196.716318,25.0193197 L190.026934,25.0193197 L197.99186,44.0885368 L195.071926,51.4187889 Z" id="Fill-6" fill="#635954"></path>
            </g>
        </g>
    </g>
</svg>