<?xml version="1.0" encoding="UTF-8"?>
<svg width="313px" height="157px" viewBox="0 0 313 157" version="1.1" xmlns="http://www.w3.org/2000/svg" xmlns:xlink="http://www.w3.org/1999/xlink">
    <title>Artboard</title>
    <g id="Artboard" stroke="none" stroke-width="1" fill="none" fill-rule="evenodd">
        <g id="logo-gong-copy" transform="translate(85.000000, 33.000000)" fill-rule="nonzero">
            <polygon id="Path" fill="#FA3354" points="88.9540067 28.1008 91.9209792 15.925 75.1261168 17.017 71.7995113 3.4944 59.643915 10.7562 53.3323553 0 44.7011627 8.9544 34.10997 1.6744 29.8663003 12.9402 10.7877682 9.737 16.7936397 23.1868 2.76795168 28.483 11.5070342 41.3504 0.915841584 56.2562 19.976392 58.0762 2.87584158 91 29.7943737 70.434 36.6274012 82.0638 43.6762086 71.89 55.6340067 83.7382 63.8156581 72.6908 79.6934563 76.9132 80.0351076 61.7162 94.7620801 59.5504 89.0798783 45.3726 98.9158416 36.8368"></polygon>
            <path d="M50.9158416,40.6796537 L49.839237,54.7761286 C48.4396511,55.4935065 46.7888575,56.0494743 44.8868561,56.4260977 C42.9848547,56.8027211 40.9572495,57 38.7860969,57 C35.9510383,57 33.4927912,56.4440322 31.4113557,55.3320965 C29.3299203,54.2201608 27.7329568,52.6239951 26.6025221,50.5615337 C25.4720873,48.4990724 24.9158416,46.0779221 24.9158416,43.2801484 C24.9158416,40.2133581 25.5438609,37.5231911 26.7998996,35.2275819 C28.0559382,32.9140383 29.8502791,31.1385281 32.1649789,29.8831169 C34.4796787,28.6277056 37.1891335,28 40.2933433,28 C44.6356483,28 48.1166697,29.0222635 50.7005207,31.1026592 L47.9910659,36.393321 C46.8426877,35.5145331 45.7301963,34.868893 44.6177049,34.4743352 C43.5052136,34.0618429 42.2132881,33.864564 40.7598719,33.864564 C38.086304,33.864564 36.0228119,34.707483 34.5693958,36.3753865 C33.1159796,38.04329 32.3982432,40.3747681 32.3982432,43.3698207 C32.3982432,45.9703154 33.0083192,47.961039 34.2464144,49.3240569 C35.4845096,50.7050093 37.3326808,51.3865182 39.8268147,51.3865182 C40.939306,51.3865182 42.1235711,51.2251082 43.3975531,50.9022882 L43.7923081,45.7371676 L38.8219838,45.7371676 L39.2167388,40.6975881 L50.9158416,40.6975881 L50.9158416,40.6796537 Z" id="Path" fill="#40299C"></path>
            <path d="M73.3775747,48.4312153 C74.6615721,46.6545342 75.3035709,44.2115978 75.3035709,41.0838988 C75.3035709,38.4929056 74.7166006,36.4756323 73.5610029,35.032079 C72.3870623,33.5885256 70.7728941,32.885256 68.6818125,32.885256 C66.4256455,32.885256 64.6647347,33.7735965 63.39908,35.5502776 C62.1150826,37.3269587 61.4914267,39.7698951 61.4914267,42.8975941 C61.4914267,45.5256015 62.0600541,47.5428748 63.2156518,48.967921 C64.3712496,50.3929673 66.0037606,51.0962369 68.1498707,51.0962369 C70.3510092,51.0962369 72.0935772,50.2078964 73.3775747,48.4312153 M60.6476569,55.2973473 C58.483204,54.1684146 56.8140073,52.5212832 55.6584096,50.3929673 C54.484469,48.2646514 53.9158416,45.7661937 53.9158416,42.8975941 C53.9158416,39.7328809 54.5211547,36.9383097 55.7317809,34.5323874 C56.942407,32.1264651 58.6482894,30.2757557 60.8677707,28.961752 C63.0872521,27.6477483 65.655247,27 68.5900984,27 C71.4882641,27 74.0195734,27.5737199 76.1840263,28.7026527 C78.3484792,29.8315854 80.0176759,31.4787168 81.1732736,33.6070327 C82.3472141,35.7353486 82.9158416,38.2338063 82.9158416,41.1024059 C82.9158416,44.2856262 82.3105285,47.0616903 81.0999023,49.4676126 C79.8892761,51.8735349 78.1833938,53.7427514 75.9639124,55.038248 C73.7444311,56.3522517 71.1764361,57 68.2415848,57 C65.3434191,57 62.8121098,56.4447872 60.6476569,55.2973473" id="Shape" fill="#40299C"></path>
            <polygon id="Path" fill="#40299C" points="107.082182 28 113.915842 28 111.731889 57 106.272006 57 94.9471527 40.8276299 93.6966635 57 86.9158416 57 89.0997946 28 94.4363895 28 105.796468 44.2091255"></polygon>
            <path d="M143.915842,40.6796537 L142.839237,54.7761286 C141.439651,55.4935065 139.788857,56.0494743 137.886856,56.4260977 C135.984855,56.8027211 133.957249,57 131.786097,57 C128.951038,57 126.492791,56.4440322 124.411356,55.3320965 C122.32992,54.2201608 120.732957,52.6239951 119.602522,50.5615337 C118.472087,48.4990724 117.915842,46.0779221 117.915842,43.2801484 C117.915842,40.2133581 118.543861,37.5231911 119.7999,35.2275819 C121.055938,32.9140383 122.850279,31.1385281 125.164979,29.8831169 C127.479679,28.6277056 130.189134,28 133.293343,28 C137.635648,28 141.11667,29.0222635 143.700521,31.1026592 L140.991066,36.393321 C139.842688,35.5145331 138.730196,34.868893 137.617705,34.4743352 C136.505214,34.0618429 135.213288,33.864564 133.759872,33.864564 C131.086304,33.864564 129.022812,34.707483 127.569396,36.3753865 C126.11598,38.04329 125.398243,40.3747681 125.398243,43.3698207 C125.398243,45.9703154 126.008319,47.961039 127.246414,49.3240569 C128.48451,50.7050093 130.332681,51.3865182 132.826815,51.3865182 C133.939306,51.3865182 135.123571,51.2251082 136.397553,50.9022882 L136.792308,45.7371676 L131.821984,45.7371676 L132.216739,40.6975881 L143.915842,40.6975881 L143.915842,40.6796537 Z" id="Path" fill="#40299C"></path>
        </g>
    </g>
</svg>