<?xml version="1.0" encoding="UTF-8"?>
<svg width="198px" height="74px" viewBox="0 0 198 74" version="1.1" xmlns="http://www.w3.org/2000/svg" xmlns:xlink="http://www.w3.org/1999/xlink">
    <title>Artboard</title>
    <defs>
        <polygon id="path-1" points="0.75257732 0.0918918919 133.752577 0.0918918919 133.752577 35.0918919 0.75257732 35.0918919"></polygon>
    </defs>
    <g id="Artboard" stroke="none" stroke-width="1" fill="none" fill-rule="evenodd">
        <g id="Forbes-01" transform="translate(32.000000, 19.000000)">
            <mask id="mask-2" fill="white">
                <use xlink:href="#path-1"></use>
            </mask>
            <g id="Clip-2"></g>
            <path d="M65.1025629,9.09189189 C63.9852262,9.09189189 63.3822766,9.21682922 62.4774906,9.63304486 C60.8302234,10.3913854 59.5921522,11.6338581 58.4871059,13.6357608 L58.141892,14.2608107 L58.1859926,13.1498127 C58.2102118,12.5392905 58.2514206,11.3970582 58.2774472,10.6136576 L58.3237167,9.18850041 L58.0862239,9.18850041 C57.7822187,9.18850041 48.2561198,11.1014217 47.9687427,11.2205479 C47.7811343,11.2975442 47.7525773,11.3807147 47.7525773,11.8416027 C47.7525773,12.3148391 47.776435,12.377671 47.9687427,12.4183483 C48.0880313,12.4434084 48.5254229,12.5294844 48.9407641,12.6093862 C49.783014,12.7720952 50.034243,12.9032068 50.3812644,13.3648212 C51.0218081,14.2172279 51.153387,15.7204709 51.1465189,22.0861004 C51.1410967,27.2902486 51.033014,29.882335 50.7879301,30.6929749 C50.4860938,31.6870257 49.951464,32.1951284 49.0206514,32.3701859 C48.719538,32.4261171 48.3215478,32.5056557 48.1371927,32.5448802 L47.8002928,32.6164286 L47.7717358,33.2839717 C47.7514929,33.7524867 47.7804113,33.9754853 47.8675282,34.0317797 C47.935848,34.0753625 51.1949573,34.101149 55.1083466,34.0888005 L62.2237312,34.0659196 L62.2515652,33.317022 C62.2667474,32.9051646 62.2457815,32.5681244 62.2034883,32.5681244 C61.6504229,32.567398 59.9572476,32.3342301 59.6901135,32.2220044 C58.8869035,31.8853274 58.4986733,31.1614899 58.3313078,29.6927499 C58.1343009,27.9683242 58.0179041,23.6812305 58.0717647,20.1655522 C58.1263483,16.6160972 58.1274327,16.6015696 58.3486589,16.3636802 C58.8641302,15.8083629 60.1697983,15.3754405 61.3391881,15.3736245 C62.2786762,15.370719 63.2449139,15.6140563 64.2765796,16.1109001 C64.7707236,16.3495158 65.2265507,16.5242102 65.2890869,16.4998765 C65.417774,16.4508458 67.7525773,10.2533732 67.7525773,9.96064215 C67.7525773,9.5269934 66.4277508,9.09189189 65.1025629,9.09189189" id="Fill-1" fill="#345988" mask="url(#mask-2)"></path>
            <path d="M36.832136,33.1656563 C34.1688194,33.9320042 32.2616356,31.4723718 31.5230873,26.3168431 C31.2845978,24.6505602 31.2853305,20.1114495 31.5252854,18.2064157 C32.0465921,14.0613152 33.3657947,11.9555458 35.4455262,11.952693 C36.3818999,11.9509271 36.9021076,12.1740456 37.6351607,12.8892327 C39.3793217,14.5931756 40.2065251,17.8472234 40.1929704,22.9615392 C40.1834455,27.0426887 39.7643486,29.6121039 38.8268758,31.3501541 C38.373709,32.1921776 37.5219606,32.9663418 36.832136,33.1656563 Z M47.6780989,20.6010311 C47.1685152,16.4069014 45.3353328,13.337246 42.3086036,11.6098543 C38.9459374,9.69025387 33.8354469,9.57869464 30.2046174,11.346944 C27.5823313,12.6227695 25.4403214,15.0820466 24.4885612,17.90549 C23.5071273,20.8202415 23.5071273,24.645231 24.4892939,27.6200254 C25.1186719,29.5254145 25.972252,30.9163521 27.2888902,32.1811638 C28.8667313,33.6968061 30.9336408,34.6663766 33.2969221,35.0010543 C34.1424427,35.1200745 36.8116208,35.1229168 37.6857161,35.0049625 C38.1000505,34.9491829 38.8151528,34.7967659 39.2771119,34.6674425 C43.5600326,33.4644503 46.4845521,30.2718666 47.4879666,25.7025567 C47.732684,24.5866091 47.8341612,21.8814753 47.6780989,20.6010311 L47.6780989,20.6010311 Z" id="Fill-3" fill="#345988" mask="url(#mask-2)"></path>
            <path d="M12.2734032,2.78335174 L15.2534673,2.78335174 C18.6778176,2.78335174 19.2381594,2.856752 20.4514025,3.46393929 C22.2089675,4.34437904 23.4937664,6.08818024 24.6140939,9.11466915 C25.070484,10.3468487 25.0651441,10.3428517 26.079028,10.027812 L26.7525773,9.81923896 L26.6909896,5.3592648 C26.6568137,2.90617 26.6019899,0.724510809 26.5678141,0.511940752 L26.5062263,0.125317605 L13.4410786,0.0984284007 C6.25560331,0.0828035931 0.235311389,0.096248195 0.0640760736,0.12749781 L-0.24742268,0.184183159 L-0.1925989,1.76846598 L0.801705123,1.89019413 C2.09255596,2.04789568 2.86329288,2.41816728 3.32075105,3.09875484 C4.35207892,4.63361966 4.53862218,6.72225674 4.53684218,16.6538205 C4.53470619,27.2289084 4.31897105,29.7971907 3.32253104,31.1307499 C2.8084691,31.8182414 2.39195076,32.044256 1.22819142,32.2648202 C-0.29014251,32.5518806 -0.239590712,32.5159072 -0.239590712,33.3171328 C-0.239590712,33.7629849 -0.20007487,34.0035343 -0.121399185,34.0366007 C0.0491241334,34.107094 16.7611213,34.1118178 16.9398326,34.0413245 C17.1680277,33.9522994 17.1548557,32.6917771 16.9238126,32.570049 C16.833033,32.5220845 16.2677073,32.4076237 15.6692737,32.3156917 C15.0697721,32.224123 14.4086827,32.0733255 14.2004235,31.9803033 C13.1057279,31.4941175 12.4969703,30.1496573 12.2677073,27.7161843 C12.1039479,25.9702029 11.9757884,22.7547629 11.9757884,20.3768851 L11.9757884,18.1955893 L12.9939444,18.2272023 C15.1616197,18.2936986 16.2830152,18.4110663 16.7354894,18.6149156 C17.7166215,19.0574973 18.5101423,20.2925839 18.9220326,22.0178533 L19.1416838,22.9364467 L19.9145567,22.964426 L20.6881416,22.9924053 L20.6881416,11.378086 L19.9152687,11.4060654 L19.1416838,11.4340447 L18.9163367,12.3515479 C18.4788144,14.1291423 17.7646813,15.221062 16.7148415,15.7170588 C16.2876432,15.9190912 15.9846884,15.9743231 14.9626165,16.0368223 C14.2837272,16.0775195 13.333923,16.1142196 12.8519009,16.1171265 L11.9757884,16.1222137 L11.9750764,13.2465223 C11.9740084,10.3642904 12.1256638,4.24299947 12.2221394,3.29097631 L12.2734032,2.78335174" id="Fill-4" fill="#345988" mask="url(#mask-2)"></path>
            <path d="M133.131886,23.9575586 C132.336796,22.3656469 130.873148,21.2767436 127.80688,19.9943209 C125.303609,18.9481058 124.046819,18.2220517 123.279453,17.3818069 C122.6571,16.7005754 122.475122,16.1498984 122.535189,15.1296519 C122.591346,14.18909 122.821663,13.6288082 123.410605,12.9977352 C124.166954,12.188795 125.207288,11.9056304 126.452348,12.1688739 C128.495342,12.601447 129.805801,14.0176259 130.934637,17.0100644 C131.337336,18.0772678 131.384607,18.1114183 132.107901,17.842483 L132.565336,17.6724419 L132.550408,16.4419564 C132.541167,15.7657052 132.50669,14.3452574 132.472569,13.2855244 L132.412147,11.3588665 L132.071292,11.2140826 C130.202813,10.4222176 126.637526,9.92916963 124.314456,10.1411874 C121.676833,10.3823753 119.739401,11.2208415 118.24874,12.7668635 C116.766255,14.3036365 116.096631,16.1072103 116.216054,18.2465974 C116.314507,20.0163764 116.836985,21.2881271 117.927434,22.4047777 C118.937913,23.4388978 119.785962,23.9290999 122.218503,24.8799781 C126.14526,26.4149724 127.184883,27.3242297 127.175642,29.2167371 C127.169244,30.8146964 126.321907,31.9843513 124.778999,32.5296923 C124.227732,32.724279 122.83197,32.7228561 122.087351,32.5268464 C120.136413,32.0117429 118.641843,30.3202255 117.368348,27.1822917 L117.042066,26.377976 L116.658205,26.3957627 C116.448503,26.4053676 116.158119,26.4697555 116.014527,26.538768 L115.752577,26.6636308 L115.777457,28.0349872 C115.790608,28.7891443 115.828283,30.3789217 115.861338,31.568142 L115.92105,33.7295847 L116.356803,33.916701 C117.24928,34.3008942 119.929554,34.8885676 121.614633,35.0692807 C121.822558,35.0913362 122.971297,35.0984509 124.166954,35.0852888 C126.242291,35.0628775 126.391926,35.0497153 127.435815,34.7761555 C130.516655,33.9707726 132.5106,32.2522194 133.394547,29.6425513 C133.666093,28.841793 133.703768,28.5970477 133.742865,27.4046257 C133.794402,25.8155598 133.647966,24.9906116 133.131886,23.9575586" id="Fill-5" fill="#345988" mask="url(#mask-2)"></path>
            <path d="M101.630412,19.6264806 L99.8696523,19.6545569 L99.8717699,19.2717952 C99.8728287,19.0617561 99.9317677,18.507338 100.004118,18.0392812 C100.590685,14.2319218 102.00134,11.9470797 103.765982,11.9453017 C105.390159,11.9435257 106.390711,14.1942498 106.598233,18.3143579 L106.657525,19.4829006 L105.023819,19.5404748 C104.125617,19.5717496 102.598142,19.6101324 101.630412,19.6264806 Z M108.628984,11.0084784 C106.050135,9.70666211 102.066632,9.8011975 99.1535605,11.230601 C96.39366,12.5864375 94.4934932,14.8467572 93.433649,18.0371489 C92.8806101,19.6989815 92.7069693,21.0370481 92.7623791,23.1911044 C92.7980249,24.553338 92.8590815,25.2570225 92.9999,25.8864292 C94.0879784,30.777747 97.4185642,34.1038999 102.076161,34.9497429 C103.101418,35.1359705 105.429334,35.1398798 106.465885,34.9575616 C107.945361,34.6963454 109.652123,34.0335315 110.728202,33.3021261 C112.041449,32.4086601 113.388577,31.0652625 113.388577,30.6483827 C113.388577,30.3939191 112.937181,29.8089369 112.740953,29.8089369 C112.655544,29.8089369 112.290263,30.0008509 111.930629,30.2354124 C110.645617,31.0709488 109.417426,31.4149723 107.708899,31.4149723 C105.352749,31.4149723 103.858803,30.8232377 102.357798,29.2975218 C101.692881,28.6215583 101.420067,28.2565664 101.075256,27.5873553 C100.319636,26.1153043 99.910592,24.4211307 99.8495354,22.5069668 L99.8230658,21.6799598 L106.770109,21.6561483 L113.717153,21.6316259 L113.748211,21.158949 C113.765151,20.898799 113.73127,20.2182153 113.673037,19.6463828 C113.239288,15.3976213 111.531467,12.4727107 108.628984,11.0084784 L108.628984,11.0084784 Z" id="Fill-6" fill="#345988" mask="url(#mask-2)"></path>
            <path d="M76.2790101,32.8289134 C76.1560985,32.5060125 76.0104789,21.2323249 76.0699523,16.7287076 L76.1171705,13.2133189 L76.7529946,13.0256531 C77.1768774,12.9005426 77.6750117,12.8379873 78.2553274,12.8379873 C79.0663276,12.8379873 79.1719378,12.8622139 79.8553407,13.2006632 C81.503293,14.0185823 82.6329262,16.0489164 83.1595356,19.137266 C83.3530943,20.2788092 83.3772441,23.3971709 83.2013472,24.7647084 C82.7709764,28.124613 81.6763064,30.8351 80.2208314,32.1491221 C79.6397948,32.6730676 79.0980467,32.9511312 78.4020283,33.0838351 C77.8966851,33.1792951 77.7452984,33.1821879 76.8315715,33.1098696 C76.4430123,33.0798576 76.357587,33.0357435 76.2790101,32.8289134 Z M83.1112361,10.1296699 C82.5456986,10.0125144 82.0356696,9.98828778 80.934872,10.0266164 C79.2807921,10.084471 78.1421478,10.3336073 76.9072649,10.906006 C76.4967186,11.0954798 76.1391576,11.2509639 76.1121243,11.2509639 C76.08437,11.2509639 76.0883349,8.74079846 76.1211354,5.67233631 C76.1669118,1.34915301 76.1546567,0.0937086786 76.0656269,0.0918918919 C75.7527611,0.0872000386 65.9605647,1.96060357 65.8531522,2.04630067 C65.773494,2.1099407 65.7392517,2.317494 65.7572739,2.63207826 C65.7889931,3.17844243 65.7248339,3.1350515 66.9186262,3.40443687 C67.2779894,3.48507169 67.6979073,3.64200223 67.8532589,3.75264911 C68.2511896,4.03722131 68.583159,4.65301097 68.8120413,5.53673964 C68.9929845,6.23316412 69.0171342,6.73143666 69.1014783,11.443692 C69.1872641,16.2535769 69.1699627,21.1994201 69.03804,30.2590853 L68.9836129,34.0228872 L69.6853984,34.1823489 C70.7011311,34.4141288 73.6077557,34.9001072 74.5589688,34.9959289 C75.9542496,35.1383958 79.2061801,35.1181467 80.2417372,34.9623009 C84.7386431,34.2825096 88.127903,31.6660364 89.7077313,27.6552678 C90.125847,26.5925515 90.528824,24.9556286 90.6693973,23.7395977 C90.8344809,22.3131207 90.7425676,19.4663139 90.4931399,18.3207933 C89.537962,13.9289077 86.8047111,10.8962431 83.1112361,10.1296699 L83.1112361,10.1296699 Z" id="Fill-7" fill="#345988" mask="url(#mask-2)"></path>
        </g>
    </g>
</svg>