<?xml version="1.0" encoding="UTF-8"?>
<svg width="313px" height="157px" viewBox="0 0 313 157" version="1.1" xmlns="http://www.w3.org/2000/svg" xmlns:xlink="http://www.w3.org/1999/xlink">
    <title>Artboard</title>
    <g id="Artboard" stroke="none" stroke-width="1" fill="none" fill-rule="evenodd">
        <g id="logo-plaid-copy" transform="translate(67.145754, 45.000000)" fill="#111111" fill-rule="nonzero">
            <path d="M94.4430834,22.8867925 C92.9779671,21.6485849 90.4579671,21.0294811 86.8830834,21.0294811 L78.8542462,21.0294811 L78.8542462,46 L84.8612229,46 L84.8612229,38.1580189 L87.5570369,38.1580189 C90.809595,38.1580189 93.2123857,37.4209906 94.7361067,35.9764151 C96.4649439,34.3549528 97.3147113,32.2028302 97.3147113,29.490566 C97.3147113,26.7193396 96.3477346,24.5082547 94.4430834,22.8867925 M87.3812229,32.4976415 L84.8319206,32.4976415 L84.8319206,26.6603774 L87.117502,26.6603774 C89.9012229,26.6603774 91.2784322,27.6332547 91.2784322,29.6084906 C91.3077346,31.5247642 89.9891299,32.4976415 87.3812229,32.4976415 M107.570525,21 L101.32913,21 L101.32913,45.9705189 L114.837502,45.9705189 L114.837502,40.3101415 L107.570525,40.3101415 L107.570525,21 Z M127.115176,21 L117.269595,45.9705189 L124.00913,45.9705189 L125.298432,42.3443396 L133.854711,42.3443396 L135.026804,45.9705189 L141.854246,45.9705189 L132.096572,21 L127.115176,21 Z M127.027269,37.303066 L129.605874,28.7535377 L132.155176,37.303066 L127.027269,37.303066 L127.027269,37.303066 Z" id="Shape"></path>
            <path d="M144.837577,46.1680672 L151.1516,46.1680672 L151.1516,21.068996 L144.837577,21.068996 L144.837577,46.1680672 Z M175.611063,25.780628 C174.814434,24.6249447 173.781766,23.6470588 172.601575,22.8766033 C170.683765,21.6616541 168.087344,21.068996 164.812313,21.068996 L156.491965,21.068996 L156.491965,46.1680672 L166.199038,46.1680672 C169.710107,46.1680672 172.542566,45.0123839 174.66691,42.7010172 C176.791254,40.3896506 177.853426,37.3374613 177.853426,33.5148165 C177.882931,30.4922601 177.115807,27.9141973 175.611063,25.780628 M165.520428,40.4785493 L162.835493,40.4785493 L162.835493,26.7585139 L165.579437,26.7585139 C167.497248,26.7585139 169.001992,27.351172 170.034659,28.5661212 C171.067327,29.7810703 171.598413,31.4997789 171.598413,33.7222468 C171.568908,38.2264485 169.562583,40.4785493 165.520428,40.4785493 M27.0249868,0 L6.57817367,5.36355595 L0.942760539,26.0176913 L8.02390793,33.2777532 L0.854246197,40.4192835 L6.16510674,61.1623176 L26.5234055,66.8814684 L33.6930672,59.7399381 L40.7447098,67 L61.1915229,61.6364441 L66.8269361,40.9823087 L59.7752935,33.7222468 L66.9449552,26.5807165 L61.6340947,5.83768244 L41.2757959,0.118531623 L34.1061342,7.26006192 L27.0249868,0 Z M14.4854549,9.33436533 L25.2546999,6.48960637 L29.9754649,11.3494029 L23.1008509,18.1946042 L14.4854549,9.33436533 Z M38.1187844,11.4383016 L42.8985588,6.6674038 L53.6087943,9.68996019 L44.8458744,18.4316674 C44.8753792,18.4020345 38.1187844,11.4383016 38.1187844,11.4383016 Z M7.40430754,24.3286157 L10.3842904,13.4533392 L18.9996864,22.3135781 L12.1250725,29.1587793 L7.40430754,24.3286157 L7.40430754,24.3286157 Z M48.9175341,22.5802742 L57.680454,13.838567 L60.4834082,24.7731092 L55.7036337,29.5440071 C55.6741289,29.5440071 48.9175341,22.5802742 48.9175341,22.5802742 Z M27.1430059,22.4024768 L34.0176198,15.5572755 L40.7742146,22.5210084 L33.8996007,29.3662096 L27.1430059,22.4024768 Z M16.1672274,33.337019 L23.0418414,26.4918178 L29.7984362,33.4555506 L22.9238222,40.3007519 C22.9238222,40.3007519 16.1672274,33.337019 16.1672274,33.337019 Z M37.9417557,33.5148165 L44.8163696,26.6696152 L51.5729644,33.6333481 L44.6983505,40.4786432 C44.6983505,40.5081822 37.9417557,33.5148165 37.9417557,33.5148165 Z M7.28628841,42.2268908 L12.0660629,37.4559929 L18.8226577,44.4197258 L10.0892426,53.161433 C10.0597378,53.161433 7.28628841,42.2268908 7.28628841,42.2268908 Z M26.9659772,44.4789916 L33.8405911,37.6337904 L40.5971859,44.5975232 L33.722572,51.4427245 C33.722572,51.4427245 26.9659772,44.4789916 26.9659772,44.4789916 Z M48.7405054,44.656789 L55.6151194,37.8115878 L60.3358843,42.6713843 L57.3854062,53.5466608 C57.3559014,53.5466608 48.7405054,44.656789 48.7405054,44.656789 Z M14.1018928,57.3100398 L22.8353079,48.5683326 L29.5919027,55.5320655 L24.8121282,60.3029633 L14.1018928,57.3100398 L14.1018928,57.3100398 Z M37.764727,55.6209642 L44.6393409,48.7757629 L53.2547369,57.6360018 L42.4854919,60.4807607 C42.4854919,60.4807607 37.764727,55.6209642 37.764727,55.6209642 Z" id="Shape"></path>
        </g>
    </g>
</svg>