<?xml version="1.0" encoding="UTF-8"?>
<svg width="313px" height="157px" viewBox="0 0 313 157" version="1.1" xmlns="http://www.w3.org/2000/svg" xmlns:xlink="http://www.w3.org/1999/xlink">
    <title>Artboard</title>
    <g id="Artboard" stroke="none" stroke-width="1" fill="none" fill-rule="evenodd">
        <g id="logo-intercom-copy" transform="translate(39.000000, 48.000000)" fill="#1F8DED" fill-rule="nonzero">
            <path d="M80.4173305,38.8032066 L80.4173305,21.4698733 C80.4173305,20.4032066 81.2854812,19.53654 82.3539743,19.53654 C83.4224675,19.53654 84.2906182,20.4032066 84.2906182,21.4698733 L84.2906182,38.8032066 C84.2906182,39.8698733 83.4224675,40.73654 82.3539743,40.73654 C81.352262,40.73654 80.4173305,39.8698733 80.4173305,38.8032066 Z M102.588563,39.53654 L94.1741798,26.13654 L94.1741798,38.8032066 C94.1741798,39.8698733 93.3060291,40.73654 92.237536,40.73654 C91.1690428,40.73654 90.3008922,39.8698733 90.3008922,38.8032066 L90.3008922,22.0032066 C90.3008922,20.6032066 91.4361661,19.4032066 92.9053442,19.4032066 L93.0389058,19.4032066 C93.9070565,19.4032066 94.7752072,19.8698733 95.242673,20.6032066 L103.590276,33.8032066 L103.590276,21.33654 C103.590276,20.2698733 104.458426,19.4032066 105.52692,19.4032066 C106.595413,19.4032066 107.463563,20.2698733 107.463563,21.33654 L107.463563,38.13654 C107.463563,39.53654 106.328289,40.73654 104.859111,40.73654 C103.92418,40.73654 103.056029,40.33654 102.588563,39.53654 Z M120.953289,23.13654 L120.953289,39.0032066 C120.953289,40.0032066 120.15192,40.8032066 119.150207,40.8032066 L118.883084,40.8032066 C117.881372,40.8032066 117.080002,40.0032066 117.080002,39.0032066 L117.080002,23.13654 L112.605687,23.13654 C111.603974,23.13654 110.802604,22.33654 110.802604,21.33654 C110.802604,20.33654 111.603974,19.53654 112.605687,19.53654 L125.494385,19.53654 C126.496098,19.53654 127.297467,20.33654 127.297467,21.33654 C127.297467,22.33654 126.496098,23.13654 125.494385,23.13654 L120.953289,23.13654 Z M130.369385,39.0032066 L130.369385,21.2032066 C130.369385,20.2698733 131.170755,19.4698733 132.105687,19.4698733 L143.792331,19.4698733 C144.727262,19.4698733 145.528632,20.2698733 145.528632,21.2032066 C145.528632,22.13654 144.727262,22.93654 143.792331,22.93654 L134.242673,22.93654 L134.242673,27.8698733 L142.456714,27.8698733 C143.391646,27.8698733 144.193015,28.6698733 144.193015,29.6032066 C144.193015,30.53654 143.391646,31.33654 142.456714,31.33654 L134.242673,31.33654 L134.242673,37.13654 L143.792331,37.13654 C144.727262,37.13654 145.528632,37.93654 145.528632,38.8698733 C145.528632,39.8032066 144.727262,40.6032066 143.792331,40.6032066 L132.105687,40.6032066 C131.170755,40.73654 130.369385,40.0032066 130.369385,39.0032066 L130.369385,39.0032066 Z M161.889933,39.6032066 L158.818015,32.73654 L154.076577,32.73654 L154.076577,38.8698733 C154.076577,39.93654 153.208426,40.8032066 152.139933,40.8032066 L152.073152,40.8032066 C151.004659,40.8032066 150.136509,39.93654 150.136509,38.8698733 L150.136509,21.4698733 C150.136509,20.4032066 151.004659,19.53654 152.073152,19.53654 L159.15192,19.53654 C164.227262,19.53654 166.564591,22.73654 166.564591,26.13654 C166.564591,29.0032066 165.028632,31.2032066 162.691303,32.0698733 L165.362536,38.0698733 C165.896783,39.33654 165.028632,40.73654 163.626235,40.73654 C162.891646,40.73654 162.157057,40.33654 161.889933,39.6032066 L161.889933,39.6032066 Z M159.2187,22.8698733 L154.143358,22.8698733 L154.143358,29.2032066 L159.285481,29.2032066 C161.489248,29.2032066 162.758084,28.0698733 162.758084,26.0698733 C162.691303,24.4032066 161.422467,22.8698733 159.2187,22.8698733 L159.2187,22.8698733 Z M184.996098,38.6032066 C183.393358,40.2032066 181.189591,41.13654 178.919043,41.13654 C176.648495,41.13654 174.511509,40.4032066 172.908769,38.73654 C170.57144,36.4032066 170.237536,33.6032066 170.237536,30.13654 C170.237536,26.6698733 170.57144,23.8032066 172.908769,21.53654 C174.511509,19.93654 176.648495,19.13654 178.919043,19.13654 C181.189591,19.13654 183.393358,20.0032066 184.996098,21.6032066 C185.530344,22.2032066 185.99781,22.8032066 186.331714,23.53654 C186.932741,24.8032066 185.99781,26.2032066 184.595413,26.2032066 C183.794043,26.2032066 183.126235,25.73654 182.792331,25.0032066 C182.658769,24.6032066 182.391646,24.2698733 182.124522,23.93654 C181.456714,23.0698733 180.254659,22.6032066 178.919043,22.6032066 C177.716988,22.6032066 176.514933,23.13654 175.646783,24.0032066 C174.177604,25.53654 174.177604,28.13654 174.177604,30.13654 C174.177604,32.0698733 174.177604,34.73654 175.646783,36.2698733 C176.514933,37.13654 177.716988,37.6698733 178.919043,37.6698733 C180.254659,37.6698733 181.456714,37.2032066 182.124522,36.33654 C182.391646,36.0032066 182.658769,35.6032066 182.792331,35.2032066 C183.059454,34.4698733 183.794043,34.0032066 184.595413,34.0032066 C185.99781,34.0032066 186.932741,35.4032066 186.331714,36.6698733 C185.99781,37.4032066 185.530344,38.0698733 184.996098,38.6032066 Z M205.764933,38.73654 C204.162194,40.33654 201.891646,41.13654 199.621098,41.13654 C197.35055,41.13654 195.146783,40.33654 193.477262,38.73654 C191.139933,36.4032066 190.806029,33.6032066 190.806029,30.13654 C190.806029,26.6698733 191.206714,23.8032066 193.477262,21.53654 C195.080002,19.93654 197.35055,19.13654 199.621098,19.13654 C201.891646,19.13654 204.095413,19.93654 205.764933,21.53654 C208.102262,23.8698733 208.436166,26.6698733 208.436166,30.13654 C208.502947,33.6032066 208.102262,36.4698733 205.764933,38.73654 Z M203.02692,24.0698733 C202.158769,23.2032066 200.889933,22.6698733 199.687878,22.6698733 C198.485824,22.6698733 197.150207,23.2032066 196.348837,24.0698733 C194.879659,25.6032066 194.812878,28.2032066 194.812878,30.2032066 C194.812878,32.13654 194.879659,34.73654 196.348837,36.2698733 C197.216988,37.13654 198.485824,37.6698733 199.687878,37.6698733 C200.889933,37.6698733 202.22555,37.13654 203.02692,36.2698733 C204.496098,34.73654 204.562878,32.13654 204.562878,30.2032066 C204.562878,28.2032066 204.496098,25.53654 203.02692,24.0698733 L203.02692,24.0698733 Z M230.941303,38.8698733 L230.941303,25.6032066 L225.932741,39.13654 C225.665618,39.93654 224.864248,40.4698733 223.996098,40.4698733 C223.127947,40.4698733 222.393358,39.93654 222.059454,39.13654 L217.050892,25.4032066 L217.050892,38.8698733 C217.050892,39.93654 216.182741,40.73654 215.181029,40.73654 C214.112536,40.73654 213.311166,39.8698733 213.311166,38.8698733 L213.311166,22.4032066 C213.311166,20.8032066 214.646783,19.4698733 216.249522,19.4698733 L216.516646,19.4698733 C217.7187,19.4698733 218.853974,20.2032066 219.254659,21.4032066 L224.129659,34.6032066 L229.07144,21.4032066 C229.472125,20.2698733 230.607399,19.4698733 231.809454,19.4698733 C233.412194,19.4698733 234.74781,20.8032066 234.74781,22.4032066 L234.74781,38.8698733 C234.74781,39.93654 233.879659,40.73654 232.877947,40.73654 C231.742673,40.73654 230.941303,39.93654 230.941303,38.8698733 L230.941303,38.8698733 Z M53.3710976,0.136539953 L8.29404284,0.136539953 C4.08685105,0.136539953 0.747809959,3.46987329 0.747809959,7.60320662 L0.747809959,52.6032066 C0.747809959,56.8032066 4.08685105,60.13654 8.29404284,60.13654 L53.3710976,60.13654 C57.5115086,60.13654 60.8505497,56.8032066 60.8505497,52.6698733 L60.8505497,7.66987329 C60.8505497,3.46987329 57.5115086,0.136539953 53.3710976,0.136539953 Z M38.8128785,11.13654 C38.8128785,10.0032066 39.6810291,9.13653995 40.8163031,9.13653995 C41.9515771,9.13653995 42.8197278,10.0032066 42.8197278,11.13654 L42.8197278,37.8698733 C42.8197278,39.0032066 41.9515771,39.8698733 40.8163031,39.8698733 C39.6810291,39.8698733 38.8128785,39.0032066 38.8128785,37.8698733 L38.8128785,11.13654 Z M28.7957552,10.13654 C28.7957552,9.00320662 29.6639058,8.13653995 30.7991798,8.13653995 C31.9344538,8.13653995 32.8026045,9.00320662 32.8026045,10.13654 L32.8026045,39.13654 C32.8026045,40.2698733 31.9344538,41.13654 30.7991798,41.13654 C29.6639058,41.13654 28.7957552,40.2698733 28.7957552,39.13654 L28.7957552,10.13654 Z M18.7786319,11.13654 C18.7786319,10.0032066 19.6467826,9.13653995 20.7820565,9.13653995 C21.9173305,9.13653995 22.7854812,10.0032066 22.7854812,11.13654 L22.7854812,37.8698733 C22.7854812,39.0032066 21.9173305,39.8698733 20.7820565,39.8698733 C19.6467826,39.8698733 18.7786319,39.0032066 18.7786319,37.8698733 L18.7786319,11.13654 Z M8.76150859,15.13654 C8.76150859,14.0032066 9.62965927,13.13654 10.7649332,13.13654 C11.9002072,13.13654 12.7683579,14.0032066 12.7683579,15.13654 L12.7683579,33.13654 C12.7683579,34.2698733 11.9002072,35.13654 10.7649332,35.13654 C9.62965927,35.13654 8.76150859,34.2698733 8.76150859,33.13654 L8.76150859,15.13654 Z M52.1690428,45.6698733 C51.8351387,45.93654 44.4224675,52.13654 30.7991798,52.13654 C17.1758922,52.13654 9.76322092,45.93654 9.42931681,45.6698733 C8.56116612,44.93654 8.4943853,43.6698733 9.22897434,42.8698733 C9.96356338,42.0032066 11.232399,41.93654 12.0337689,42.6698733 C12.1673305,42.6698733 18.7786319,48.13654 30.7991798,48.13654 C42.9532894,48.13654 49.49781,42.6698733 49.49781,42.6032066 C50.3659606,41.8698733 51.6347963,42.0032066 52.3026045,42.8032066 C53.1039743,43.6698733 52.9704127,44.93654 52.1690428,45.6698733 Z M52.8368511,33.13654 C52.8368511,34.2698733 51.9687004,35.13654 50.8334264,35.13654 C49.6981524,35.13654 48.8300017,34.2698733 48.8300017,33.13654 L48.8300017,15.13654 C48.8300017,14.0032066 49.6981524,13.13654 50.8334264,13.13654 C51.9687004,13.13654 52.8368511,14.0032066 52.8368511,15.13654 L52.8368511,33.13654 Z" id="Shape"></path>
        </g>
    </g>
</svg>