<?xml version="1.0" encoding="UTF-8"?>
<svg width="59px" height="57px" viewBox="0 0 59 57" version="1.1" xmlns="http://www.w3.org/2000/svg" xmlns:xlink="http://www.w3.org/1999/xlink">
    <title>Artboard Copy 2</title>
    <g id="Artboard-Copy-2" stroke="none" stroke-width="1" fill="none" fill-rule="evenodd">
        <path d="M21,24 L21,45 L14,45 L14,24 L21,24 Z M37.8333333,24 C42.2666667,24 46,27.6521739 46,31.9891304 L46,45 L39,45 L39,32.9021739 C39,31.0761765 37.3666667,29.4782609 35.5,29.4782609 C33.6333333,29.4782609 32,31.0761765 32,32.9021739 L32,45 L25,45 L25,24.4565217 L32,24.4565217 L32,27.1956522 C33.1666667,25.3695652 35.7333333,24 37.8333333,24 Z M17,13 C19.2222222,13 21,14.7777778 21,17 C21,19.2222222 19.2222222,21 17,21 C14.7777778,21 13,19.2222222 13,17 C13,14.7777778 14.7777778,13 17,13 Z" id="Shape" fill="#073E4B"></path>
    </g>
</svg>