<?xml version="1.0" encoding="UTF-8"?>
<svg width="313px" height="157px" viewBox="0 0 313 157" version="1.1" xmlns="http://www.w3.org/2000/svg" xmlns:xlink="http://www.w3.org/1999/xlink">
    <title>Artboard</title>
    <g id="Artboard" stroke="none" stroke-width="1" fill="none" fill-rule="evenodd">
        <g id="logo-clari-copy" transform="translate(64.000000, 51.000000)" fill-rule="nonzero">
            <path d="M114.520579,17.2649287 L109.944497,20.6375968 L109.773379,20.3873403 C107.636787,17.313766 104.147124,15.3805555 99.9530372,15.3805555 C92.7695768,15.3805555 87.4924429,20.5141241 87.4924429,28.0000207 C87.4924429,35.4859173 92.7663455,40.6194859 99.9530372,40.6194859 C104.124083,40.6194859 107.564294,38.7610488 109.750338,35.6354642 L109.944497,35.3624446 L114.540248,38.7480808 L114.372361,38.9820581 C111.383128,43.319607 106.109225,46 99.9530372,46 C89.1516451,46 81.5402482,38.3646945 81.5402482,28.0000207 C81.5402482,17.6353469 89.1516451,10 99.9530372,10 C106.207991,10 111.758521,12.7519934 114.520579,17.2649287 Z" id="Path" fill="#000000"></path>
            <polygon id="Path" fill="#000000" points="122.540248 46 116.540248 46 116.540248 10 122.540248 10"></polygon>
            <path d="M153.540248,45.3541166 L148.25599,45.3541166 L148.25599,42.3889966 C146.586458,44.5798892 144.085695,46 140.647534,46 C133.873419,46 128.540248,40.5565771 128.540248,32.9999282 C128.540248,25.4399775 133.873419,20 140.647534,20 C144.085695,20 146.586458,21.4436549 148.25599,23.637993 L148.25599,20.6457398 L153.540248,20.6457398 L153.540248,45.3541166 Z M133.976051,32.9966263 C133.976051,37.3310363 136.732121,40.9149067 141.280288,40.9149067 C145.653443,40.9149067 148.583959,37.5102012 148.583959,32.9966263 C148.583959,28.4829079 145.653443,25.078346 141.280288,25.078346 C136.732121,25.078346 133.976051,28.6622163 133.976051,32.9966263 Z" id="Shape" fill="#000000"></path>
            <path d="M174.540248,20.6866009 L173.378112,25.9499748 C172.356211,25.3632998 170.870754,25.0599838 169.687842,25.0599838 C166.600065,25.0599838 164.393953,27.4499946 164.393953,31.5966337 L164.393953,45 L159.540248,45 L159.540248,20.636638 L164.344611,20.636638 L164.344611,23.3833246 C165.807994,21.0698858 168.081626,20 170.798039,20 C172.28869,20 173.423558,20.2032486 174.540248,20.6866009 Z" id="Path" fill="#000000"></path>
            <path d="M184.540248,13.7070395 C184.540248,15.7854823 182.771603,17.3648087 180.514373,17.3648087 C178.255621,17.3648087 176.540248,15.7854823 176.540248,13.7070395 C176.540248,11.6285968 178.255621,10 180.514373,10 C182.771603,10 184.540248,11.6285968 184.540248,13.7070395 Z M183.395652,46 L177.681801,46 L177.681801,22.0011525 L183.395652,22.0011525 L183.395652,46 Z" id="Shape" fill="#000000"></path>
            <path d="M62.6741359,11 L43.5402482,16.3269075 C44.3142996,20.0061546 44.722229,23.9070922 44.722229,27.9999368 C44.722229,32.0927813 44.311147,35.9904877 43.5402482,39.6729661 L62.6741359,45 C63.897924,39.6861719 64.5402482,33.8629335 64.5402482,28.0033085 C64.5402482,22.1436835 63.897924,16.3137016 62.6741359,11 Z" id="Path" fill="#00D7B8"></path>
            <path d="M13.8092789,5 L0.540248227,27 L21.5402482,11.9904445 C19.5263501,9.11469407 16.9043603,6.74680072 13.8092789,5 Z" id="Path" fill="#5F3AD7"></path>
            <path d="M13.8092789,50 L0.540248227,28 L21.5402482,43.0073037 C19.5263501,45.8859868 16.9043603,48.2535083 13.8092789,50 Z" id="Path" fill="#5F3AD7"></path>
            <path d="M38.074216,0 L1.54024823,28 L44.5402482,16.0696389 C43.281988,10.1009692 41.0782403,4.69710676 38.074216,0 Z" id="Path" fill="#0280FF"></path>
            <path d="M38.074216,55 L1.54024823,27 L44.5402482,38.9305047 C43.281988,44.9025056 41.0782403,50.3063393 38.074216,55 Z" id="Path" fill="#0280FF"></path>
            <path d="M45.5402482,28.5 C45.5402482,24.4678722 45.1207277,20.6279877 44.3340042,17 L1.54024823,28.5 L44.3306469,40 C45.1239451,36.3686906 45.5402482,32.5386328 45.5402482,28.5 Z" id="Path" fill="#FFFFFF"></path>
        </g>
    </g>
</svg>