<svg width="434" height="445" viewBox="0 0 434 445" fill="none" xmlns="http://www.w3.org/2000/svg">
<path d="M82.3493 232C80.0398 268.709 89.1419 306.505 110.878 339.679C164.269 420.982 273.359 443.551 354.463 390.119C409.076 354.226 437.197 292.909 433.393 232H82.3493Z" fill="#4EC6D0"/>
<path d="M430.045 274.565L385.184 244.851L309.832 358.793L354.694 388.507L430.045 274.565Z" fill="#FFD43B"/>
<path d="M258.597 245.339L160.191 265.24L188.055 402.61L286.46 382.71L258.597 245.339Z" stroke="#073E4B" stroke-width="0.936119" stroke-miterlimit="10" stroke-linecap="round" stroke-linejoin="round"/>
<path d="M217.527 277.954L245.921 272.244" stroke="#073E4B" stroke-width="0.936119" stroke-miterlimit="10" stroke-linecap="round" stroke-linejoin="round"/>
<path d="M233.961 290.87C238.987 289.782 244.014 288.83 249.176 287.743" stroke="#073E4B" stroke-width="0.936119" stroke-miterlimit="10" stroke-linecap="round" stroke-linejoin="round"/>
<path d="M220.785 293.453C223.638 292.909 226.491 292.365 229.344 291.686" stroke="#073E4B" stroke-width="0.936119" stroke-miterlimit="10" stroke-linecap="round" stroke-linejoin="round"/>
<path d="M223.91 309.089C230.567 307.729 237.088 306.369 243.745 305.01" stroke="#073E4B" stroke-width="0.936119" stroke-miterlimit="10" stroke-linecap="round" stroke-linejoin="round"/>
<path d="M224.047 364.015L235.051 347.7L256.108 351.371L264.667 323.092" stroke="#073E4B" stroke-width="0.936119" stroke-miterlimit="10" stroke-linecap="round" stroke-linejoin="round"/>
<path d="M127.994 251.578C111.285 251.578 97.6992 265.174 97.6992 281.897C97.6992 298.62 111.285 312.216 127.994 312.216C144.704 312.216 158.29 298.62 158.29 281.897C158.29 262.047 144.704 251.578 127.994 251.578ZM127.994 292.094C122.289 292.094 117.67 287.471 117.67 281.761C117.67 276.051 122.289 271.428 127.994 271.428C133.7 271.428 138.183 274.963 138.183 281.761C138.183 287.607 133.564 292.094 127.994 292.094Z" fill="#FFD43B"/>
<path d="M127.995 271.564V251.578" stroke="white" stroke-width="0.936119" stroke-miterlimit="10" stroke-linecap="round" stroke-linejoin="round"/>
<path d="M117.67 281.897H97.6992" stroke="white" stroke-width="0.936119" stroke-miterlimit="10" stroke-linecap="round" stroke-linejoin="round"/>
<path d="M120.12 275.235L106.398 261.639" stroke="white" stroke-width="0.936119" stroke-miterlimit="10" stroke-linecap="round" stroke-linejoin="round"/>
<path d="M206.976 262.356L114.48 296.224L141.789 370.916L234.285 337.048L206.976 262.356Z" fill="white" stroke="#073E4B" stroke-width="0.936119" stroke-miterlimit="10" stroke-linecap="round" stroke-linejoin="round"/>
<path d="M177.449 287.471L196.876 280.265" stroke="#073E4B" stroke-width="0.936119" stroke-miterlimit="10" stroke-linecap="round" stroke-linejoin="round"/>
<path d="M178.801 291.142L198.228 283.936" stroke="#073E4B" stroke-width="0.936119" stroke-miterlimit="10" stroke-linecap="round" stroke-linejoin="round"/>
<path d="M200.413 316.702C202.889 316.702 204.896 314.693 204.896 312.215C204.896 309.737 202.889 307.729 200.413 307.729C197.937 307.729 195.93 309.737 195.93 312.215C195.93 314.693 197.937 316.702 200.413 316.702Z" stroke="#073E4B" stroke-width="0.936119" stroke-miterlimit="10" stroke-linecap="round" stroke-linejoin="round"/>
<path d="M146.75 352.323L156.26 328.395L163.867 333.833L178.811 302.834" stroke="#073E4B" stroke-width="0.936119" stroke-miterlimit="10" stroke-linecap="round" stroke-linejoin="round"/>
<path d="M174.462 302.834L180.168 300.115L182.885 305.281L174.462 302.834Z" fill="#073E4B"/>
<path d="M356.506 347.564C356.506 381.146 329.335 408.474 295.644 408.474C279.749 408.474 265.349 402.356 254.48 392.431L281.923 364.967C285.727 367.958 290.481 369.726 295.644 369.726C307.871 369.726 317.788 359.801 317.788 347.564C317.788 341.718 316.158 336.96 313.441 333.425L341.698 305.146C350.8 315.342 356.506 329.482 356.506 347.564Z" fill="white" stroke="#073E4B" stroke-width="0.936119" stroke-miterlimit="10" stroke-linecap="round" stroke-linejoin="round"/>
<path d="M315.746 356.81L353.106 367.686" stroke="#073E4B" stroke-width="0.936119" stroke-miterlimit="10" stroke-linecap="round" stroke-linejoin="round"/>
<path d="M317.785 347.564H356.503" stroke="#073E4B" stroke-width="0.936119" stroke-miterlimit="10" stroke-linecap="round" stroke-linejoin="round"/>
<path d="M285.048 375.164L273.5 395.15L290.482 399.908L293.063 376.932L285.048 375.164Z" fill="#073E4B"/>
<path d="M371.718 281.896C371.718 308.136 350.389 329.482 324.17 329.482C297.95 329.482 276.621 308.136 276.621 281.896C276.621 255.656 297.95 234.311 324.17 234.311C350.525 234.311 371.718 250.626 371.718 281.896Z" fill="white" stroke="#073E4B" stroke-width="0.936119" stroke-miterlimit="10" stroke-linecap="round" stroke-linejoin="round"/>
<path d="M352.425 242.061L324.168 281.896H371.717" stroke="#073E4B" stroke-width="0.936119" stroke-miterlimit="10" stroke-linecap="round" stroke-linejoin="round"/>
<path d="M292.607 266.005L303.483 295.754L317.9 290.475L307.024 260.726L292.607 266.005Z" fill="white" stroke="#073E4B" stroke-width="0.936119" stroke-miterlimit="10" stroke-linecap="round" stroke-linejoin="round"/>
<path d="M311.52 259.083L315.675 270.446L330.091 265.167L325.937 253.804L311.52 259.083Z" fill="white" stroke="#073E4B" stroke-width="0.936119" stroke-miterlimit="10" stroke-linecap="round" stroke-linejoin="round"/>
<path d="M178.676 253.481C183.403 253.481 187.235 249.646 187.235 244.916C187.235 240.185 183.403 236.351 178.676 236.351C173.949 236.351 170.117 240.185 170.117 244.916C170.117 249.646 173.949 253.481 178.676 253.481Z" stroke="#073E4B" stroke-width="0.936119" stroke-miterlimit="10" stroke-linecap="round" stroke-linejoin="round"/>
<path d="M226.79 389.787L221.656 408.96L240.814 414.097L245.948 394.924L226.79 389.787Z" fill="#073E4B"/>
<path d="M186.573 369.163L200.577 407.467L219.204 400.646L205.2 362.343L186.573 369.163Z" fill="white" stroke="#073E4B" stroke-width="0.936119" stroke-miterlimit="10" stroke-linecap="round" stroke-linejoin="round"/>
<path d="M169.698 361.998L158.152 387.212L170.379 392.82L181.925 367.605L169.698 361.998Z" fill="white" stroke="#073E4B" stroke-width="0.936119" stroke-miterlimit="10" stroke-linecap="round" stroke-linejoin="round"/>
<path d="M276.626 242.061L280.022 244.916" stroke="#073E4B" stroke-width="0.936119" stroke-miterlimit="10" stroke-linecap="round" stroke-linejoin="round"/>
<path d="M293.059 339.815L290.478 347.565" stroke="#073E4B" stroke-width="0.936119" stroke-miterlimit="10" stroke-linecap="round" stroke-linejoin="round"/>
<path d="M297.005 356.81L302.031 359.529" stroke="#073E4B" stroke-width="0.936119" stroke-miterlimit="10" stroke-linecap="round" stroke-linejoin="round"/>
<path d="M405.96 242.061L402.563 248.315" stroke="#073E4B" stroke-width="0.936119" stroke-miterlimit="10" stroke-linecap="round" stroke-linejoin="round"/>
<path d="M418.859 251.578L420.897 256.472" stroke="#073E4B" stroke-width="0.936119" stroke-miterlimit="10" stroke-linecap="round" stroke-linejoin="round"/>
<path d="M155.031 248.315L158.292 251.578" stroke="#073E4B" stroke-width="0.936119" stroke-miterlimit="10" stroke-linecap="round" stroke-linejoin="round"/>
<path d="M117.676 332.609L123.382 335.328" stroke="#073E4B" stroke-width="0.936119" stroke-miterlimit="10" stroke-linecap="round" stroke-linejoin="round"/>
<path d="M178.816 339.815L177.457 343.622" stroke="#073E4B" stroke-width="0.936119" stroke-miterlimit="10" stroke-linecap="round" stroke-linejoin="round"/>
<path d="M257.878 405.754L264.671 411.873" stroke="#073E4B" stroke-width="0.936119" stroke-miterlimit="10" stroke-linecap="round" stroke-linejoin="round"/>
<path d="M402.554 338.047L395.762 341.718" stroke="#073E4B" stroke-width="0.936119" stroke-miterlimit="10" stroke-linecap="round" stroke-linejoin="round"/>
<path d="M273.397 175.47C259.175 162.834 233.633 146.423 231.311 126.235C227.828 124.056 224.346 122.023 220.863 119.99C216.509 148.456 241.615 167.772 261.933 185.782C269.624 192.608 281.089 182.296 273.397 175.47Z" fill="white" stroke="#073E4B" stroke-miterlimit="10" stroke-linecap="round" stroke-linejoin="round"/>
<path d="M273.402 175.47C277.755 179.246 283.27 186.217 282.254 187.379C281.238 188.541 279.642 185.201 278.336 185.201C277.03 185.201 283.56 191.736 282.254 193.043C280.948 194.35 276.304 189.558 276.304 189.558C276.304 189.558 280.948 193.77 279.642 194.931C278.191 195.948 273.257 191.301 273.257 191.301C273.257 191.301 279.061 194.641 277.03 196.093C275.143 197.546 266.291 189.703 262.808 186.798" fill="white"/>
<path d="M273.402 175.47C277.755 179.246 283.27 186.217 282.254 187.379C281.238 188.541 279.642 185.201 278.336 185.201C277.03 185.201 283.56 191.736 282.254 193.043C280.948 194.35 276.304 189.558 276.304 189.558C276.304 189.558 280.948 193.77 279.642 194.931C278.191 195.948 273.257 191.301 273.257 191.301C273.257 191.301 279.061 194.641 277.03 196.093C275.143 197.546 266.291 189.703 262.808 186.798" stroke="#073E4B" stroke-miterlimit="10" stroke-linecap="round" stroke-linejoin="round"/>
<path d="M201.849 95.2995C172.389 92.3947 131.609 49.2596 122.757 20.7934C119.274 9.75544 101.714 13.5316 105.052 24.7148C116.371 61.0238 162.811 109.533 200.833 113.309C212.443 114.616 213.459 96.4613 201.849 95.2995Z" fill="white" stroke="#073E4B" stroke-miterlimit="10" stroke-linecap="round" stroke-linejoin="round"/>
<path d="M244.089 145.261C243.944 145.697 243.799 146.132 243.509 146.568C243.073 147.149 242.638 147.73 242.203 148.166C242.203 148.166 242.203 148.166 242.058 148.166C238.575 150.635 235.962 150.925 235.962 150.925L235.237 149.473C235.237 149.473 231.028 149.037 230.883 144.97L222.901 139.451C223.772 136.982 224.207 134.223 224.498 131.463C227.255 133.497 231.173 136.256 232.915 137.563C233.495 137.999 233.786 138.144 233.786 138.144C233.931 137.999 234.221 137.854 234.221 137.854C234.366 137.709 234.511 137.709 234.801 137.563C234.801 137.563 234.801 137.563 234.947 137.563C235.092 137.563 235.237 137.418 235.382 137.418C235.672 137.273 235.962 137.273 236.253 137.128C236.398 137.128 236.688 137.128 236.833 137.128C237.704 136.982 238.72 137.128 239.881 137.273C241.912 137.563 243.219 138.725 243.944 140.178C244.234 140.613 244.38 141.194 244.38 141.63C244.525 142.792 244.525 144.099 244.089 145.261Z" fill="white" stroke="#073E4B" stroke-miterlimit="10" stroke-linecap="round" stroke-linejoin="round"/>
<path d="M244.371 141.63C244.226 141.194 244.081 140.613 243.936 140.178C243.21 138.725 241.904 137.708 239.872 137.273C238.711 137.128 237.695 136.982 236.825 137.128C236.679 137.128 236.389 137.128 236.244 137.128C235.954 137.128 235.664 137.273 235.373 137.418C235.228 137.418 235.083 137.563 234.938 137.563H234.793C234.648 137.708 234.357 137.708 234.212 137.854C234.212 137.854 233.922 137.999 233.777 138.144C233.777 138.144 233.487 137.854 232.906 137.563C233.342 138.435 233.632 139.016 233.777 139.161C233.922 139.742 235.809 142.356 236.244 141.339C236.825 140.178 238.711 140.178 238.856 141.63C239.001 143.082 240.308 146.713 242.049 148.166C242.63 147.73 243.065 147.294 243.355 146.568C243.645 146.132 243.79 145.697 243.936 145.261C244.516 144.099 244.516 142.792 244.371 141.63Z" fill="#073E4B"/>
<path d="M189.085 115.633C190.972 106.192 196.051 90.9427 208.241 96.7521C213.466 99.9473 234.944 118.537 227.252 126.235C224.93 128.559 222.318 135.094 218.69 136.402C210.999 139.306 199.389 134.513 202.581 130.011C193.874 120.426 189.085 115.633 189.085 115.633Z" fill="white" stroke="#073E4B" stroke-miterlimit="10" stroke-linecap="round" stroke-linejoin="round"/>
<path d="M194.296 98.4952C155.257 95.7357 114.768 59.2814 101.707 32.558C96.6275 22.2462 79.6481 28.6366 84.8725 39.0936C101.562 73.2241 141.616 118.102 194.731 118.683C206.341 118.973 210.404 99.6571 194.296 98.4952Z" fill="white" stroke="#073E4B" stroke-miterlimit="10" stroke-linecap="round" stroke-linejoin="round"/>
<path d="M262.51 182.732C244.805 170.241 221.875 153.249 224.923 128.559C226.229 118.247 210.265 115.778 208.959 126.09C205.186 157.315 229.131 177.939 252.206 194.205C260.623 200.16 271.072 188.686 262.51 182.732Z" fill="white" stroke="#073E4B" stroke-miterlimit="10" stroke-linecap="round" stroke-linejoin="round"/>
<path d="M244.36 141.63C243.199 133.787 236.233 137.418 234.202 128.413C232.17 119.409 240.297 113.745 236.378 103.142C232.46 92.5401 232.75 91.233 233.331 85.8593C233.911 80.4855 221.721 84.1164 223.027 93.702C224.333 103.288 224.623 102.126 219.544 111.857C214.61 121.587 223.317 133.351 233.621 138.144C243.925 142.937 244.36 141.63 244.36 141.63Z" fill="#073E4B"/>
<path d="M262.515 182.732C267.304 186.072 273.545 192.318 272.674 193.479C271.803 194.641 269.771 191.591 268.61 191.737C267.304 191.882 274.56 197.546 273.399 199.144C272.238 200.596 267.159 196.384 267.159 196.384C267.159 196.384 272.238 200.16 270.932 201.322C269.626 202.484 264.257 198.417 264.257 198.417C264.257 198.417 270.352 201.177 268.61 202.775C266.869 204.372 257.146 197.546 253.518 195.077" fill="white"/>
<path d="M262.515 182.732C267.304 186.072 273.545 192.318 272.674 193.479C271.803 194.641 269.771 191.591 268.61 191.737C267.304 191.882 274.56 197.546 273.399 199.144C272.238 200.596 267.159 196.384 267.159 196.384C267.159 196.384 272.238 200.16 270.932 201.322C269.626 202.484 264.257 198.417 264.257 198.417C264.257 198.417 270.352 201.177 268.61 202.775C266.869 204.372 257.146 197.546 253.518 195.077" stroke="#073E4B" stroke-miterlimit="10" stroke-linecap="round" stroke-linejoin="round"/>
<path d="M278.182 185.056C274.264 184.184 271.361 181.86 271.361 181.86L278.182 185.056Z" fill="white"/>
<path d="M278.182 185.056C274.264 184.184 271.361 181.86 271.361 181.86" stroke="#073E4B" stroke-miterlimit="10" stroke-linecap="round" stroke-linejoin="round"/>
<path d="M101.716 32.5579C99.8296 28.927 97.6528 23.8438 96.4918 20.939C95.9113 19.4867 94.6052 18.47 93.0088 18.0343C86.6234 16.7272 70.0793 13.6772 68.6281 14.5487C66.8866 15.5653 67.7573 16.8724 67.7573 16.8724C67.7573 16.8724 67.4671 16.8724 67.1768 17.8891C66.8866 18.9057 67.6122 20.0676 67.6122 20.0676C67.6122 20.0676 66.3061 19.7771 66.0158 21.2295C65.7256 22.6819 66.7414 23.408 66.7414 23.408C66.7414 23.408 65.7256 23.6985 65.7256 25.0056C65.7256 26.1675 70.3695 27.9104 75.4489 29.6532C80.5282 31.396 81.8343 33.865 84.7368 39.2388" fill="white"/>
<path d="M101.716 32.5579C99.8296 28.927 97.6528 23.8438 96.4918 20.939C95.9113 19.4867 94.6052 18.47 93.0088 18.0343C86.6234 16.7272 70.0793 13.6772 68.6281 14.5487C66.8866 15.5653 67.7573 16.8724 67.7573 16.8724C67.7573 16.8724 67.4671 16.8724 67.1768 17.8891C66.8866 18.9057 67.6122 20.0676 67.6122 20.0676C67.6122 20.0676 66.3061 19.7771 66.0158 21.2295C65.7256 22.6819 66.7414 23.408 66.7414 23.408C66.7414 23.408 65.7256 23.6985 65.7256 25.0056C65.7256 26.1675 70.3695 27.9104 75.4489 29.6532C80.5282 31.396 81.8343 33.865 84.7368 39.2388" stroke="#073E4B" stroke-miterlimit="10" stroke-linecap="round" stroke-linejoin="round"/>
<path d="M68.334 17.1631C70.656 17.744 71.0913 17.744 71.0913 17.744L68.334 17.1631Z" fill="white"/>
<path d="M68.334 17.1631C70.656 17.744 71.0913 17.744 71.0913 17.744" stroke="#073E4B" stroke-miterlimit="10" stroke-linecap="round" stroke-linejoin="round"/>
<path d="M123.925 24.2793C122.619 20.3579 121.458 14.9842 120.733 11.9342C120.442 10.3366 119.281 9.17475 117.83 8.59381C111.735 6.1248 95.9166 0.460591 94.4653 1.04153C92.5787 1.76772 93.1592 3.22008 93.1592 3.22008C93.1592 3.22008 91.9982 3.22007 91.5628 4.23673C91.1275 5.25338 91.708 6.41527 91.708 6.41527C91.708 6.41527 90.4019 5.97956 89.9665 7.28668C89.5311 8.59381 90.2567 8.88428 90.2567 8.88428C90.2567 8.88428 88.8055 9.61046 88.9506 10.7724C89.2409 12.6604 93.8848 14.258 98.6739 16.8723C103.463 19.4865 103.898 21.2293 105.93 27.0388" fill="white"/>
<path d="M123.925 24.2793C122.619 20.3579 121.458 14.9842 120.733 11.9342C120.442 10.3366 119.281 9.17475 117.83 8.59381C111.735 6.1248 95.9166 0.460591 94.4653 1.04153C92.5787 1.76772 93.1592 3.22008 93.1592 3.22008C93.1592 3.22008 91.9982 3.22007 91.5628 4.23673C91.1275 5.25338 91.708 6.41527 91.708 6.41527C91.708 6.41527 90.4019 5.97956 89.9665 7.28669C89.5311 8.59381 90.2567 8.88428 90.2567 8.88428C90.2567 8.88428 88.8055 9.61046 88.9506 10.7724C89.2409 12.6604 93.8848 14.258 98.6739 16.8723C103.463 19.4865 103.898 21.2293 105.93 27.0388" stroke="#073E4B" stroke-miterlimit="10" stroke-linecap="round" stroke-linejoin="round"/>
<path d="M90.2412 8.88379C92.4181 9.90044 93.5791 10.3362 93.5791 10.3362L90.2412 8.88379Z" fill="white"/>
<path d="M90.2412 8.88379C92.4181 9.90044 93.5791 10.3362 93.5791 10.3362" stroke="#073E4B" stroke-miterlimit="10" stroke-linecap="round" stroke-linejoin="round"/>
<path d="M210.85 98.4951L205.335 103.433" stroke="#073E4B" stroke-miterlimit="10" stroke-linecap="round" stroke-linejoin="round"/>
<path d="M215.638 102.562L195.901 122.459" stroke="#073E4B" stroke-miterlimit="10" stroke-linecap="round" stroke-linejoin="round"/>
<path d="M219.409 106.773L199.672 126.671" stroke="#073E4B" stroke-miterlimit="10" stroke-linecap="round" stroke-linejoin="round"/>
<path d="M208.526 127.106C206.494 129.14 204.608 131.028 202.576 133.061L208.526 127.106Z" fill="white"/>
<path d="M208.526 127.106C206.494 129.14 204.608 131.028 202.576 133.061" stroke="#073E4B" stroke-miterlimit="10" stroke-linecap="round" stroke-linejoin="round"/>
<path d="M223.618 111.856C221.151 114.325 218.684 116.794 216.362 119.264L223.618 111.856Z" fill="white"/>
<path d="M223.618 111.856C221.151 114.325 218.684 116.794 216.362 119.264" stroke="#073E4B" stroke-miterlimit="10" stroke-linecap="round" stroke-linejoin="round"/>
<path d="M206.063 96.0264L201.854 99.512" stroke="#073E4B" stroke-miterlimit="10" stroke-linecap="round" stroke-linejoin="round"/>
<path d="M44.6836 444.5V154.12C44.6836 150.78 47.4409 148.021 50.7788 148.021C54.1166 148.021 56.8739 150.78 56.8739 154.12V182.006" stroke="#073E4B" stroke-miterlimit="10" stroke-linecap="round" stroke-linejoin="round"/>
<path d="M1 444.5V154.12C1 150.78 3.75735 148.021 7.09518 148.021C10.433 148.021 13.1903 150.78 13.1903 154.12V182.006" stroke="#073E4B" stroke-miterlimit="10" stroke-linecap="round" stroke-linejoin="round"/>
<path d="M1 182.587H123.629" stroke="#073E4B" stroke-miterlimit="10" stroke-linecap="round" stroke-linejoin="round"/>
<path d="M1 210.036H44.6822" stroke="#073E4B" stroke-miterlimit="10" stroke-linecap="round" stroke-linejoin="round"/>
<path d="M1 237.486H44.6822" stroke="#073E4B" stroke-miterlimit="10" stroke-linecap="round" stroke-linejoin="round"/>
<path d="M1 264.936H44.6822" stroke="#073E4B" stroke-miterlimit="10" stroke-linecap="round" stroke-linejoin="round"/>
<path d="M1 292.24H44.6822" stroke="#073E4B" stroke-miterlimit="10" stroke-linecap="round" stroke-linejoin="round"/>
<path d="M397.301 203.089L388.504 208.172L393.583 216.977L402.381 211.893L397.301 203.089Z" fill="#073E4B"/>
<path d="M152.094 195.513L156.738 198.127" stroke="#073E4B" stroke-miterlimit="10" stroke-linecap="round" stroke-linejoin="round"/>
<path d="M205.046 178.084L202.434 183.022" stroke="#073E4B" stroke-miterlimit="10" stroke-linecap="round" stroke-linejoin="round"/>
<path d="M143.381 202.048L141.784 205.679" stroke="#073E4B" stroke-miterlimit="10" stroke-linecap="round" stroke-linejoin="round"/>
<path d="M81.9893 195.513L86.343 199.87" stroke="#073E4B" stroke-miterlimit="10" stroke-linecap="round" stroke-linejoin="round"/>
<path d="M127.095 117.584L110.953 128.695L137.681 167.585L153.823 156.474L127.095 117.584Z" fill="white" stroke="#073E4B" stroke-miterlimit="10" stroke-linecap="round" stroke-linejoin="round"/>
<path d="M384.976 50.1391L369.301 38.3789L320.817 103.104L336.492 114.864L384.976 50.1391Z" fill="#073E4B"/>
<path d="M384.052 86.3408L379.844 79.0459L309.842 119.494L314.05 126.789L384.052 86.3408Z" fill="white" stroke="#073E4B" stroke-miterlimit="10" stroke-linecap="round" stroke-linejoin="round"/>
<path d="M87.7977 150.635H77.0586V182.587H87.7977V150.635Z" fill="#073E4B"/>
<path d="M102.02 147.73H91.2812V182.732H102.02V147.73Z" fill="#073E4B"/>
<path d="M116.239 158.187H105.5V182.586H116.239V158.187Z" fill="#073E4B"/>
</svg>
