<?xml version="1.0" encoding="UTF-8"?>
<svg width="104px" height="86px" viewBox="0 0 104 86" version="1.1" xmlns="http://www.w3.org/2000/svg" xmlns:xlink="http://www.w3.org/1999/xlink">
    <title>01-tab</title>
    <defs>
        <path d="M34.6236,26.466 C34.9896,25.4991 35.2612,24.4882 35.4321,23.4416 L39.7695,22.5051 C39.8114,21.9745 39.8502,21.4428 39.8502,20.9017 C39.8502,20.3606 39.8114,19.8289 39.7695,19.2993 L35.4321,18.3628 C35.2612,17.3152 34.9896,16.3053 34.6236,15.3384 L37.907,12.3632 C37.4456,11.3943 36.9223,10.463 36.3172,9.5884 L32.1015,10.9475 C31.4366,10.1348 30.6931,9.3902 29.8803,8.7253 L31.2394,4.5096 C30.3648,3.9045 29.4336,3.3802 28.4646,2.9198 L25.4895,6.2032 C24.5226,5.8372 23.5116,5.5656 22.4651,5.3947 L21.5286,1.0573 C20.9979,1.0154 20.4662,0.9766 19.9251,0.9766 C19.384,0.9766 18.8523,1.0154 18.3227,1.0573 L17.3862,5.3947 C16.3386,5.5656 15.3287,5.8372 14.3618,6.2032 L11.3867,2.9198 C10.4177,3.3812 9.48646,3.9045 8.61185,4.5096 L9.97095,8.7253 C9.15822,9.3902 8.41365,10.1337 7.74878,10.9465 L3.53304,9.5874 C2.92794,10.462 2.4036,11.3932 1.94322,12.3622 L5.22667,15.3373 C4.86068,16.3042 4.58907,17.3152 4.41813,18.3618 L0.0807491,19.2982 C0.0388015,19.8289 0,20.3606 0,20.9017 C0,21.4428 0.0388015,21.9745 0.0807491,22.5051 L4.41813,23.4416 C4.58907,24.4893 4.86068,25.4991 5.22667,26.466 L1.94322,29.4412 C2.40465,30.4102 2.92794,31.3414 3.53304,32.216 L7.74878,30.8569 C8.41365,31.6686 9.15717,32.4132 9.9699,33.078 L8.6108,37.2938 C9.48541,37.8989 10.4166,38.4232 11.3856,38.8836 L14.3608,35.6001 C15.3277,35.9661 16.3386,36.2377 17.3852,36.4087 L18.3217,40.7461 C18.8523,40.788 19.384,40.8268 19.9251,40.8268 C20.4662,40.8268 20.9979,40.788 21.5275,40.7461 L22.464,36.4087 C23.5116,36.2377 24.5215,35.9661 25.4884,35.6001 L28.4636,38.8836 C29.4326,38.4222 30.3638,37.8989 31.2384,37.2938 L29.8793,33.078 C30.692,32.4132 31.4366,31.6696 32.1015,30.8569 L36.3172,32.216 C36.9223,31.3414 37.4466,30.4102 37.907,29.4412 L34.6236,26.466 Z M19.6133,29.6755 C24.5838,29.6755 28.6133,25.6461 28.6133,20.6755 C28.6133,15.705 24.5838,11.6755 19.6133,11.6755 C14.6427,11.6755 10.6133,15.705 10.6133,20.6755 C10.6133,25.6461 14.6427,29.6755 19.6133,29.6755 Z" id="path-1"></path>
        <path d="M19.5401,15.5049 C19.8033,15.0152 20.0172,14.495 20.1808,13.9528 L23.5995,12.879 C23.6509,12.4375 23.6845,11.9907 23.6845,11.5356 C23.6845,11.0805 23.6509,10.6337 23.5985,10.1912 L20.1798,9.11732 C20.0172,8.57514 19.8033,8.05499 19.539,7.56525 L21.1949,4.39192 C20.6359,3.6851 19.9983,3.0475 19.2915,2.48854 L16.1182,4.14443 C15.6284,3.8812 15.1083,3.66622 14.5661,3.50368 L13.4922,0.084944 C13.0508,0.0335582 12.604,0 12.1489,0 C11.6937,0 11.247,0.0335581 10.8045,0.0859927 L9.7306,3.50472 C9.1884,3.66727 8.6683,3.8812 8.1785,4.14547 L5.0052,2.48959 C4.2984,3.04854 3.6608,3.68615 3.1018,4.39297 L4.7577,7.5663 C4.4945,8.05604 4.2795,8.57619 4.117,9.11837 L0.6982,10.1922 C0.6468,10.6337 0.6133,11.0805 0.6133,11.5356 C0.6133,11.9907 0.6468,12.4375 0.6993,12.88 L4.118,13.9539 C4.2806,14.4961 4.4945,15.0162 4.7588,15.5059 L3.1029,18.6793 C3.6618,19.3861 4.2994,20.0237 5.0062,20.5827 L8.1796,18.9268 C8.6693,19.19 9.1895,19.405 9.7316,19.5675 L10.8055,22.9863 C11.247,23.0376 11.6937,23.0712 12.1489,23.0712 C12.604,23.0712 13.0508,23.0376 13.4933,22.9852 L14.5672,19.5665 C15.1093,19.4039 15.6295,19.19 16.1192,18.9257 L19.2926,20.5816 C19.9994,20.0226 20.637,19.385 21.1959,18.6782 L19.5401,15.5049 Z M12.1133,15.67651 C14.5986,15.67651 16.6133,13.6618 16.6133,11.17651 C16.6133,8.69123 14.5986,6.67651 12.1133,6.67651 C9.628,6.67651 7.6133,8.69123 7.6133,11.17651 C7.6133,13.6618 9.628,15.67651 12.1133,15.67651 Z" id="path-3"></path>
    </defs>
    <g id="Page-1" stroke="none" stroke-width="1" fill="none" fill-rule="evenodd">
        <g id="Artboard" transform="translate(-669.000000, -456.000000)">
            <g id="00-icon-tab-manual-work" transform="translate(693.000000, 473.000000)">
                <path d="M34.6236,38.466 C34.9896,37.4991 35.2612,36.4882 35.4321,35.4416 L39.7695,34.5051 C39.8114,33.9745 39.8502,33.4428 39.8502,32.9017 C39.8502,32.3606 39.8114,31.8289 39.7695,31.2993 L35.4321,30.3628 C35.2612,29.3152 34.9896,28.3053 34.6236,27.3384 L37.907,24.3632 C37.4456,23.3943 36.9223,22.463 36.3172,21.5884 L32.1015,22.9475 C31.4366,22.1348 30.6931,21.3902 29.8803,20.7253 L31.2394,16.5096 C30.3648,15.9045 29.4336,15.3802 28.4646,14.9198 L25.4895,18.2032 C24.5226,17.8372 23.5116,17.5656 22.4651,17.3947 L21.5286,13.0573 C20.9979,13.0154 20.4662,12.9766 19.9251,12.9766 C19.384,12.9766 18.8523,13.0154 18.3227,13.0573 L17.3862,17.3947 C16.3386,17.5656 15.3287,17.8372 14.3618,18.2032 L11.3867,14.9198 C10.4177,15.3812 9.48646,15.9045 8.61185,16.5096 L9.97095,20.7253 C9.15822,21.3902 8.41365,22.1337 7.74878,22.9465 L3.53304,21.5874 C2.92794,22.462 2.4036,23.3932 1.94322,24.3622 L5.22667,27.3373 C4.86068,28.3042 4.58907,29.3152 4.41813,30.3618 L0.0807491,31.2982 C0.0388015,31.8289 0,32.3606 0,32.9017 C0,33.4428 0.0388015,33.9745 0.0807491,34.5051 L4.41813,35.4416 C4.58907,36.4893 4.86068,37.4991 5.22667,38.466 L1.94322,41.4412 C2.40465,42.4102 2.92794,43.3414 3.53304,44.216 L7.74878,42.8569 C8.41365,43.6686 9.15717,44.4132 9.9699,45.078 L8.6108,49.2938 C9.48541,49.8989 10.4166,50.4232 11.3856,50.8836 L14.3608,47.6001 C15.3277,47.9661 16.3386,48.2377 17.3852,48.4087 L18.3217,52.7461 C18.8523,52.788 19.384,52.8268 19.9251,52.8268 C20.4662,52.8268 20.9979,52.788 21.5275,52.7461 L22.464,48.4087 C23.5116,48.2377 24.5215,47.9661 25.4884,47.6001 L28.4636,50.8836 C29.4326,50.4222 30.3638,49.8989 31.2384,49.2938 L29.8793,45.078 C30.692,44.4132 31.4366,43.6696 32.1015,42.8569 L36.3172,44.216 C36.9223,43.3414 37.4466,42.4102 37.907,41.4412 L34.6236,38.466 Z M19.6133,41.6755 C24.5838,41.6755 28.6133,37.6461 28.6133,32.6755 C28.6133,27.705 24.5838,23.6755 19.6133,23.6755 C14.6427,23.6755 10.6133,27.705 10.6133,32.6755 C10.6133,37.6461 14.6427,41.6755 19.6133,41.6755 Z" id="Shape" fill="#FFFFFF"></path>
                <g id="Clipped" transform="translate(0.000000, 12.000000)">
                    <mask id="mask-2" fill="white">
                        <use xlink:href="#path-1"></use>
                    </mask>
                    <g id="Shape"></g>
                    <path d="M35.4321,23.4416 L35.2211,22.4641 L34.555,22.6079 L34.4452,23.2804 L35.4321,23.4416 Z M34.6236,26.466 L33.6883,26.112 L33.447,26.7494 L33.9521,27.2071 L34.6236,26.466 Z M39.7695,22.5051 L39.9805,23.4826 L40.7078,23.3256 L40.7664,22.5839 L39.7695,22.5051 Z M39.7695,19.2993 L40.7664,19.2203 L40.7076,18.4788 L39.9805,18.3218 L39.7695,19.2993 Z M35.4321,18.3628 L34.4452,18.5238 L34.5549,19.1965 L35.2211,19.3403 L35.4321,18.3628 Z M34.6236,15.3384 L33.9521,14.5973 L33.447,15.055 L33.6883,15.6924 L34.6236,15.3384 Z M37.907,12.3632 L38.5785,13.1043 L39.1297,12.6049 L38.8099,11.9333 L37.907,12.3632 Z M36.3172,9.5884 L37.1396,9.0195 L36.7171,8.4088 L36.0104,8.6366 L36.3172,9.5884 Z M32.1015,10.9475 L31.3275,11.5807 L31.7593,12.1085 L32.4083,11.8993 L32.1015,10.9475 Z M29.8803,8.7253 L28.9286,8.4185 L28.7193,9.0675 L29.2472,9.4993 L29.8803,8.7253 Z M31.2394,4.5096 L32.1912,4.8164 L32.4191,4.1097 L31.8084,3.6872 L31.2394,4.5096 Z M28.4646,2.9198 L28.8937,2.0165 L28.2225,1.6977 L27.7236,2.2483 L28.4646,2.9198 Z M25.4895,6.2032 L25.1355,7.1385 L25.7729,7.3798 L26.2305,6.8747 L25.4895,6.2032 Z M22.4651,5.3947 L21.4876,5.6057 L21.6314,6.2718 L22.3039,6.3816 L22.4651,5.3947 Z M21.5286,1.0573 L22.506,0.8463 L22.349,0.1191 L21.6074,0.0604 L21.5286,1.0573 Z M18.3227,1.0573 L18.2438,0.0604 L17.5022,0.1192 L17.3452,0.8463 L18.3227,1.0573 Z M17.3862,5.3947 L17.5473,6.3816 L18.2199,6.2719 L18.3637,5.6057 L17.3862,5.3947 Z M14.3618,6.2032 L13.6208,6.8747 L14.0784,7.3798 L14.7158,7.1385 L14.3618,6.2032 Z M11.3867,2.9198 L12.1277,2.2483 L11.6283,1.6971 L10.9567,2.0169 L11.3867,2.9198 Z M8.61185,4.5096 L8.04289,3.6872 L7.43224,4.1097 L7.66009,4.8164 L8.61185,4.5096 Z M9.97095,8.7253 L10.6041,9.4993 L11.132,9.0675 L10.9227,8.4185 L9.97095,8.7253 Z M7.74878,10.9465 L7.44194,11.8982 L8.09098,12.1075 L8.52278,11.5796 L7.74878,10.9465 Z M3.53304,9.5874 L3.83988,8.6356 L3.13315,8.4078 L2.71067,9.0184 L3.53304,9.5874 Z M1.94322,12.3622 L1.03998,11.9331 L0.721087,12.6043 L1.27177,13.1032 L1.94322,12.3622 Z M5.22667,15.3373 L6.16192,15.6913 L6.40319,15.0539 L5.89813,14.5963 L5.22667,15.3373 Z M4.41813,18.3618 L4.62918,19.3392 L5.29522,19.1954 L5.40506,18.5229 L4.41813,18.3618 Z M0.0807491,19.2982 L-0.130297,18.3208 L-0.857512,18.4778 L-0.916141,19.2194 L0.0807491,19.2982 Z M0.0807491,22.5051 L-0.916141,22.5839 L-0.857512,23.3256 L-0.130297,23.4826 L0.0807491,22.5051 Z M4.41813,23.4416 L5.40508,23.2806 L5.29534,22.608 L4.62918,22.4641 L4.41813,23.4416 Z M5.22667,26.466 L5.89813,27.2071 L6.40319,26.7494 L6.16192,26.112 L5.22667,26.466 Z M1.94322,29.4412 L1.27177,28.7001 L0.72058,29.1996 L1.04036,29.8711 L1.94322,29.4412 Z M3.53304,32.216 L2.71067,32.785 L3.13315,33.3956 L3.83988,33.1678 L3.53304,32.216 Z M7.74878,30.8569 L8.52238,30.2232 L8.09054,29.696 L7.44194,29.9051 L7.74878,30.8569 Z M9.9699,33.078 L10.9217,33.3849 L11.1309,32.7358 L10.6031,32.304 L9.9699,33.078 Z M8.6108,37.2938 L7.65904,36.9869 L7.4312,37.6937 L8.04185,38.1161 L8.6108,37.2938 Z M11.3856,38.8836 L10.9565,39.7868 L11.6277,40.1057 L12.1267,39.555 L11.3856,38.8836 Z M14.3608,35.6001 L14.7148,34.6649 L14.0774,34.4236 L13.6197,34.9287 L14.3608,35.6001 Z M17.3852,36.4087 L18.3627,36.1976 L18.2189,35.5316 L17.5464,35.4217 L17.3852,36.4087 Z M18.3217,40.7461 L17.3442,40.9571 L17.5012,41.6843 L18.2429,41.7429 L18.3217,40.7461 Z M21.5275,40.7461 L21.6065,41.7429 L22.348,41.6842 L22.505,40.9571 L21.5275,40.7461 Z M22.464,36.4087 L22.303,35.4217 L21.6304,35.5315 L21.4865,36.1976 L22.464,36.4087 Z M25.4884,35.6001 L26.2295,34.9287 L25.7718,34.4236 L25.1344,34.6649 L25.4884,35.6001 Z M28.4636,38.8836 L27.7225,39.555 L28.222,40.1062 L28.8935,39.7864 L28.4636,38.8836 Z M31.2384,37.2938 L31.8073,38.1161 L32.418,37.6937 L32.1902,36.9869 L31.2384,37.2938 Z M29.8793,33.078 L29.2461,32.304 L28.7183,32.7358 L28.9275,33.3849 L29.8793,33.078 Z M32.1015,30.8569 L32.4083,29.9051 L31.7593,29.6959 L31.3275,30.2237 L32.1015,30.8569 Z M36.3172,32.216 L36.0104,33.1678 L36.7171,33.3956 L37.1396,32.785 L36.3172,32.216 Z M37.907,29.4412 L38.8103,29.8703 L39.1292,29.1991 L38.5785,28.7001 L37.907,29.4412 Z M34.4452,23.2804 C34.2849,24.2616 34.0305,25.2079 33.6883,26.112 L35.5588,26.8201 C35.9486,25.7903 36.2374,24.7148 36.419,23.6028 L34.4452,23.2804 Z M39.5585,21.5277 L35.2211,22.4641 L35.6432,24.4191 L39.9805,23.4826 L39.5585,21.5277 Z M38.8502,20.9017 C38.8502,21.3991 38.8146,21.8954 38.7726,22.4263 L40.7664,22.5839 C40.8083,22.0536 40.8502,21.4865 40.8502,20.9017 L38.8502,20.9017 Z M38.7726,19.3782 C38.8146,19.908 38.8502,20.4043 38.8502,20.9017 L40.8502,20.9017 C40.8502,20.3168 40.8083,19.7498 40.7664,19.2203 L38.7726,19.3782 Z M35.2211,19.3403 L39.5585,20.2768 L39.9805,18.3218 L35.6432,17.3853 L35.2211,19.3403 Z M33.6883,15.6924 C34.0306,16.5966 34.2849,17.5418 34.4452,18.5238 L36.4191,18.2018 C36.2374,17.0885 35.9485,16.0139 35.5588,14.9844 L33.6883,15.6924 Z M37.2356,11.6222 L33.9521,14.5973 L35.295,16.0794 L38.5785,13.1043 L37.2356,11.6222 Z M35.4948,10.1574 C36.0646,10.9809 36.5618,11.8643 37.0042,12.7932 L38.8099,11.9333 C38.3294,10.9242 37.78,9.9452 37.1396,9.0195 L35.4948,10.1574 Z M32.4083,11.8993 L36.624,10.5402 L36.0104,8.6366 L31.7946,9.9958 L32.4083,11.8993 Z M29.2472,9.4993 C30.008,10.1218 30.7044,10.8191 31.3275,11.5807 L32.8755,10.3143 C32.1688,9.4505 31.3781,8.6586 30.5135,7.9513 L29.2472,9.4993 Z M30.2877,4.2028 L28.9286,8.4185 L30.8321,9.0322 L32.1912,4.8164 L30.2877,4.2028 Z M28.0355,3.823 C28.9632,4.2638 29.8466,4.7619 30.6705,5.332 L31.8084,3.6872 C30.8831,3.0471 29.904,2.4965 28.8937,2.0165 L28.0355,3.823 Z M26.2305,6.8747 L29.2057,3.5912 L27.7236,2.2483 L24.7484,5.5318 L26.2305,6.8747 Z M22.3039,6.3816 C23.2851,6.5419 24.2314,6.7963 25.1355,7.1385 L25.8435,5.268 C24.8138,4.8782 23.7382,4.5894 22.6262,4.4078 L22.3039,6.3816 Z M20.5511,1.2684 L21.4876,5.6057 L23.4425,5.1836 L22.506,0.8463 L20.5511,1.2684 Z M19.9251,1.9766 C20.4225,1.9766 20.9188,2.0122 21.4498,2.0542 L21.6074,0.0604 C21.077,0.0185 20.51,-0.0234 19.9251,-0.0234 L19.9251,1.9766 Z M18.4017,2.0542 C18.9314,2.0122 19.4277,1.9766 19.9251,1.9766 L19.9251,-0.0234 C19.3403,-0.0234 18.7732,0.0185 18.2438,0.0604 L18.4017,2.0542 Z M18.3637,5.6057 L19.3002,1.2684 L17.3452,0.8463 L16.4088,5.1837 L18.3637,5.6057 Z M14.7158,7.1385 C15.62,6.7962 16.5653,6.5419 17.5473,6.3816 L17.2252,4.4077 C16.1119,4.5894 15.0374,4.8783 14.0078,5.268 L14.7158,7.1385 Z M10.6456,3.5912 L13.6208,6.8747 L15.1029,5.5318 L12.1277,2.2483 L10.6456,3.5912 Z M9.1808,5.332 C10.0043,4.7622 10.8877,4.265 11.8166,3.8226 L10.9567,2.0169 C9.94767,2.4974 8.9686,3.0468 8.04289,3.6872 L9.1808,5.332 Z M10.9227,8.4185 L9.56361,4.2028 L7.66009,4.8164 L9.01919,9.0322 L10.9227,8.4185 Z M8.52278,11.5796 C9.14521,10.8188 9.84254,10.1224 10.6041,9.4993 L9.33777,7.9513 C8.47389,8.658 7.68208,9.4487 6.97477,10.3133 L8.52278,11.5796 Z M3.2262,10.5391 L7.44194,11.8982 L8.05561,9.9947 L3.83988,8.6356 L3.2262,10.5391 Z M2.84646,12.7913 C3.28725,11.8636 3.78537,10.9802 4.35541,10.1563 L2.71067,9.0184 C2.07052,9.9437 1.51995,10.9228 1.03998,11.9331 L2.84646,12.7913 Z M5.89813,14.5963 L2.61468,11.6212 L1.27177,13.1032 L4.55522,16.0784 L5.89813,14.5963 Z M5.40506,18.5229 C5.56531,17.5417 5.8197,16.5954 6.16192,15.6913 L4.29143,14.9833 C3.90167,16.013 3.61283,17.0886 3.43121,18.2006 L5.40506,18.5229 Z M0.291796,20.2757 L4.62918,19.3392 L4.20709,17.3843 L-0.130297,18.3208 L0.291796,20.2757 Z M1,20.9017 C1,20.4043 1.03567,19.908 1.07764,19.377 L-0.916141,19.2194 C-0.958065,19.7498 -1,20.3169 -1,20.9017 L1,20.9017 Z M1.07764,22.4263 C1.03567,21.8954 1,21.3991 1,20.9017 L-1,20.9017 C-1,21.4865 -0.958065,22.0536 -0.916141,22.5839 L1.07764,22.4263 Z M4.62918,22.4641 L0.291795,21.5277 L-0.130297,23.4826 L4.20709,24.4191 L4.62918,22.4641 Z M6.16192,26.112 C5.81965,25.2078 5.56531,24.2626 5.40508,23.2806 L3.43118,23.6026 C3.61283,24.7159 3.90171,25.7905 4.29143,26.82 L6.16192,26.112 Z M2.61468,30.1822 L5.89813,27.2071 L4.55522,25.725 L1.27177,28.7001 L2.61468,30.1822 Z M4.35541,31.6471 C3.78566,30.8235 3.28842,29.9401 2.84608,29.0112 L1.04036,29.8711 C1.52088,30.8802 2.07022,31.8593 2.71067,32.785 L4.35541,31.6471 Z M7.44194,29.9051 L3.2262,31.2642 L3.83988,33.1678 L8.05561,31.8087 L7.44194,29.9051 Z M10.6031,32.304 C9.8422,31.6816 9.14563,30.9841 8.52238,30.2232 L6.97517,31.4906 C7.68166,32.3531 8.47213,33.1447 9.33672,33.852 L10.6031,32.304 Z M9.56256,37.6006 L10.9217,33.3849 L9.01814,32.7712 L7.65904,36.9869 L9.56256,37.6006 Z M11.8148,37.9803 C10.887,37.5396 10.0037,37.0414 9.17975,36.4714 L8.04185,38.1161 C8.96713,38.7563 9.94628,39.3069 10.9565,39.7868 L11.8148,37.9803 Z M13.6197,34.9287 L10.6446,38.2121 L12.1267,39.555 L15.1018,36.2716 L13.6197,34.9287 Z M17.5464,35.4217 C16.5652,35.2615 15.6189,35.0071 14.7148,34.6649 L14.0068,36.5354 C15.0365,36.9251 16.112,37.214 17.224,37.3956 L17.5464,35.4217 Z M19.2992,40.535 L18.3627,36.1976 L16.4077,36.6197 L17.3442,40.9571 L19.2992,40.535 Z M19.9251,39.8268 C19.4277,39.8268 18.9314,39.7911 18.4005,39.7492 L18.2429,41.7429 C18.7732,41.7849 19.3403,41.8268 19.9251,41.8268 L19.9251,39.8268 Z M21.4486,39.7492 C20.9188,39.7911 20.4225,39.8268 19.9251,39.8268 L19.9251,41.8268 C20.51,41.8268 21.077,41.7849 21.6065,41.7429 L21.4486,39.7492 Z M21.4865,36.1976 L20.55,40.535 L22.505,40.9571 L23.4415,36.6197 L21.4865,36.1976 Z M25.1344,34.6649 C24.2302,35.0072 23.285,35.2615 22.303,35.4217 L22.625,37.3956 C23.7383,37.214 24.8129,36.9251 25.8424,36.5354 L25.1344,34.6649 Z M29.2046,38.2121 L26.2295,34.9287 L24.7474,36.2716 L27.7225,39.555 L29.2046,38.2121 Z M30.6694,36.4714 C29.8459,37.0411 28.9625,37.5384 28.0336,37.9807 L28.8935,39.7864 C29.9026,39.3059 30.8816,38.7566 31.8073,38.1161 L30.6694,36.4714 Z M28.9275,33.3849 L30.2866,37.6006 L32.1902,36.9869 L30.8311,32.7712 L28.9275,33.3849 Z M31.3275,30.2237 C30.705,30.9846 30.0077,31.681 29.2461,32.304 L30.5125,33.852 C31.3764,33.1453 32.1682,32.3547 32.8755,31.4901 L31.3275,30.2237 Z M36.624,31.2642 L32.4083,29.9051 L31.7946,31.8087 L36.0104,33.1678 L36.624,31.2642 Z M37.0038,29.012 C36.563,29.9398 36.0649,30.8231 35.4948,31.6471 L37.1396,32.785 C37.7797,31.8597 38.3303,30.8805 38.8103,29.8703 L37.0038,29.012 Z M33.9521,27.2071 L37.2356,30.1822 L38.5785,28.7001 L35.295,25.725 L33.9521,27.2071 Z M27.6133,20.6755 C27.6133,25.0938 24.0316,28.6755 19.6133,28.6755 L19.6133,30.6755 C25.1361,30.6755 29.6133,26.1984 29.6133,20.6755 L27.6133,20.6755 Z M19.6133,12.6755 C24.0316,12.6755 27.6133,16.2573 27.6133,20.6755 L29.6133,20.6755 C29.6133,15.1527 25.1361,10.6755 19.6133,10.6755 L19.6133,12.6755 Z M11.6133,20.6755 C11.6133,16.2573 15.195,12.6755 19.6133,12.6755 L19.6133,10.6755 C14.0904,10.6755 9.61328,15.1527 9.61328,20.6755 L11.6133,20.6755 Z M19.6133,28.6755 C15.195,28.6755 11.6133,25.0938 11.6133,20.6755 L9.61328,20.6755 C9.61328,26.1984 14.0904,30.6755 19.6133,30.6755 L19.6133,28.6755 Z" id="Shape" fill="#187186" fill-rule="nonzero" mask="url(#mask-2)"></path>
                </g>
                <path d="M49.5401,15.5049 C49.8033,15.0152 50.0172,14.495 50.1808,13.9528 L53.5995,12.879 C53.6509,12.4375 53.6845,11.9907 53.6845,11.5356 C53.6845,11.0805 53.6509,10.6337 53.5985,10.1912 L50.1798,9.11732 C50.0172,8.57514 49.8033,8.05499 49.539,7.56525 L51.1949,4.39192 C50.6359,3.6851 49.9983,3.0475 49.2915,2.48854 L46.1182,4.14443 C45.6284,3.8812 45.1083,3.66622 44.5661,3.50368 L43.4922,0.084944 C43.0508,0.0335582 42.604,0 42.1489,0 C41.6937,0 41.247,0.0335581 40.8045,0.0859927 L39.7306,3.50472 C39.1884,3.66727 38.6683,3.8812 38.1785,4.14547 L35.0052,2.48959 C34.2984,3.04854 33.6608,3.68615 33.1018,4.39297 L34.7577,7.5663 C34.4945,8.05604 34.2795,8.57619 34.117,9.11837 L30.6982,10.1922 C30.6468,10.6337 30.6133,11.0805 30.6133,11.5356 C30.6133,11.9907 30.6468,12.4375 30.6993,12.88 L34.118,13.9539 C34.2806,14.4961 34.4945,15.0162 34.7588,15.5059 L33.1029,18.6793 C33.6618,19.3861 34.2994,20.0237 35.0062,20.5827 L38.1796,18.9268 C38.6693,19.19 39.1895,19.405 39.7316,19.5675 L40.8055,22.9863 C41.247,23.0376 41.6937,23.0712 42.1489,23.0712 C42.604,23.0712 43.0508,23.0376 43.4933,22.9852 L44.5672,19.5665 C45.1093,19.4039 45.6295,19.19 46.1192,18.9257 L49.2926,20.5816 C49.9994,20.0226 50.637,19.385 51.1959,18.6782 L49.5401,15.5049 Z M42.1133,15.67651 C44.5986,15.67651 46.6133,13.6618 46.6133,11.17651 C46.6133,8.69123 44.5986,6.67651 42.1133,6.67651 C39.628,6.67651 37.6133,8.69123 37.6133,11.17651 C37.6133,13.6618 39.628,15.67651 42.1133,15.67651 Z" id="Shape" fill="#FFFFFF"></path>
                <g id="Clipped" transform="translate(30.000000, 0.000000)">
                    <mask id="mask-4" fill="white">
                        <use xlink:href="#path-3"></use>
                    </mask>
                    <g id="Shape"></g>
                    <path d="M20.1808,13.9528 L19.8811,12.9988 L19.3763,13.1574 L19.2234,13.664 L20.1808,13.9528 Z M19.5401,15.5049 L18.6592,15.0315 L18.4085,15.498 L18.6535,15.9675 L19.5401,15.5049 Z M23.5995,12.879 L23.8992,13.833 L24.5179,13.6387 L24.5928,12.9946 L23.5995,12.879 Z M23.5985,10.1912 L24.5915,10.0735 L24.5154,9.43102 L23.8982,9.23713 L23.5985,10.1912 Z M20.1798,9.11732 L19.2219,9.40449 L19.3742,9.91244 L19.8801,10.0714 L20.1798,9.11732 Z M19.539,7.56525 L18.6524,7.10264 L18.4069,7.57312 L18.659,8.04014 L19.539,7.56525 Z M21.1949,4.39192 L22.0814,4.85453 L22.3813,4.27997 L21.9793,3.77163 L21.1949,4.39192 Z M19.2915,2.48854 L19.9118,1.70417 L19.4035,1.30217 L18.8289,1.60198 L19.2915,2.48854 Z M16.1182,4.14443 L15.6447,5.02526 L16.1113,5.27599 L16.5808,5.03098 L16.1182,4.14443 Z M14.5661,3.50368 L13.6121,3.80335 L13.771,4.30927 L14.2789,4.46155 L14.5661,3.50368 Z M13.4922,0.084944 L14.4463,-0.214731 L14.252,-0.833383 L13.6079,-0.908351 L13.4922,0.084944 Z M10.8045,0.0859927 L10.6868,-0.907061 L10.0443,-0.830936 L9.8504,-0.213681 L10.8045,0.0859927 Z M9.7306,3.50472 L10.0178,4.4626 L10.5257,4.31031 L10.6846,3.8044 L9.7306,3.50472 Z M8.1785,4.14547 L7.7159,5.03203 L8.1864,5.27753 L8.6534,5.02552 L8.1785,4.14547 Z M5.0052,2.48959 L5.4678,1.60303 L4.8933,1.30322 L4.3849,1.70522 L5.0052,2.48959 Z M3.1018,4.39297 L2.3174,3.77268 L1.9155,4.28102 L2.2153,4.85558 L3.1018,4.39297 Z M4.7577,7.5663 L5.6385,8.03973 L5.8893,7.57322 L5.6443,7.10369 L4.7577,7.5663 Z M4.117,9.11837 L4.4166,10.0724 L4.9225,9.91349 L5.0748,9.40554 L4.117,9.11837 Z M0.6982,10.1922 L0.3986,9.23818 L-0.2201,9.43251 L-0.2951,10.0766 L0.6982,10.1922 Z M0.6993,12.88 L-0.2938,12.9977 L-0.2177,13.6402 L0.3996,13.8341 L0.6993,12.88 Z M4.118,13.9539 L5.0759,13.6667 L4.9236,13.1587 L4.4177,12.9998 L4.118,13.9539 Z M4.7588,15.5059 L5.6453,15.9686 L5.8908,15.4981 L5.6388,15.0311 L4.7588,15.5059 Z M3.1029,18.6793 L2.2163,18.2167 L1.9165,18.7912 L2.3185,19.2996 L3.1029,18.6793 Z M5.0062,20.5827 L4.386,21.367 L4.8943,21.769 L5.4689,21.4692 L5.0062,20.5827 Z M8.1796,18.9268 L8.653,18.0459 L8.1865,17.7952 L7.717,18.0402 L8.1796,18.9268 Z M9.7316,19.5675 L10.6857,19.2678 L10.5268,18.7619 L10.0188,18.6096 L9.7316,19.5675 Z M10.8055,22.9863 L9.8515,23.2859 L10.0458,23.9046 L10.6899,23.9795 L10.8055,22.9863 Z M13.4933,22.9852 L13.611,23.9783 L14.2535,23.9021 L14.4473,23.2849 L13.4933,22.9852 Z M14.5672,19.5665 L14.28,18.6086 L13.772,18.7609 L13.6131,19.2668 L14.5672,19.5665 Z M16.1192,18.9257 L16.5818,18.0392 L16.1114,17.7937 L15.6443,18.0457 L16.1192,18.9257 Z M19.2926,20.5816 L18.8299,21.4682 L19.4045,21.768 L19.9128,21.366 L19.2926,20.5816 Z M21.1959,18.6782 L21.9803,19.2985 L22.3823,18.7902 L22.0825,18.2156 L21.1959,18.6782 Z M19.2234,13.664 C19.0784,14.1447 18.8896,14.6028 18.6592,15.0315 L20.4209,15.9783 C20.7169,15.4275 20.956,14.8453 21.1382,14.2417 L19.2234,13.664 Z M23.2999,11.9249 L19.8811,12.9988 L20.4805,14.9069 L23.8992,13.833 L23.2999,11.9249 Z M22.6845,11.5356 C22.6845,11.942 22.6545,12.3486 22.6062,12.7634 L24.5928,12.9946 C24.6473,12.5263 24.6845,12.0395 24.6845,11.5356 L22.6845,11.5356 Z M22.6054,10.3088 C22.6545,10.7232 22.6845,11.1294 22.6845,11.5356 L24.6845,11.5356 C24.6845,11.0316 24.6473,10.5443 24.5915,10.0735 L22.6054,10.3088 Z M19.8801,10.0714 L23.2988,11.1452 L23.8982,9.23713 L20.4794,8.16328 L19.8801,10.0714 Z M18.659,8.04014 C18.8898,8.46793 19.0781,8.92495 19.2219,9.40449 L21.1376,8.83014 C20.9563,8.22533 20.7167,7.64205 20.419,7.09037 L18.659,8.04014 Z M20.3083,3.9293 L18.6524,7.10264 L20.4256,8.02787 L22.0814,4.85453 L20.3083,3.9293 Z M18.6712,3.27292 C19.3172,3.78373 19.8997,4.36626 20.4105,5.0122 L21.9793,3.77163 C21.3722,3.00393 20.6795,2.31126 19.9118,1.70417 L18.6712,3.27292 Z M16.5808,5.03098 L19.7541,3.3751 L18.8289,1.60198 L15.6556,3.25787 L16.5808,5.03098 Z M14.2789,4.46155 C14.7574,4.60499 15.215,4.79431 15.6447,5.02526 L16.5916,3.26359 C16.0418,2.9681 15.4592,2.72746 14.8533,2.5458 L14.2789,4.46155 Z M12.5382,0.384619 L13.6121,3.80335 L15.5202,3.204 L14.4463,-0.214731 L12.5382,0.384619 Z M12.1489,1 C12.5552,1 12.9619,1.02997 13.3766,1.07824 L13.6079,-0.908351 C13.1396,-0.962853 12.6528,-1 12.1489,-1 L12.1489,1 Z M10.9221,1.07905 C11.3365,1.02995 11.7427,1 12.1489,1 L12.1489,-1 C11.6448,-1 11.1575,-0.962837 10.6868,-0.907061 L10.9221,1.07905 Z M10.6846,3.8044 L11.7585,0.385667 L9.8504,-0.213681 L8.7766,3.20505 L10.6846,3.8044 Z M8.6534,5.02552 C9.0812,4.79468 9.5382,4.60637 10.0178,4.4626 L9.4434,2.54685 C8.8386,2.72817 8.2553,2.96773 7.7037,3.26543 L8.6534,5.02552 Z M4.5426,3.37615 L7.7159,5.03203 L8.6412,3.25892 L5.4678,1.60303 L4.5426,3.37615 Z M3.8862,5.01325 C4.397,4.36731 4.9795,3.78478 5.6255,3.27397 L4.3849,1.70522 C3.6172,2.31231 2.9245,3.00498 2.3174,3.77268 L3.8862,5.01325 Z M5.6443,7.10369 L3.9884,3.93035 L2.2153,4.85558 L3.8711,8.02892 L5.6443,7.10369 Z M5.0748,9.40554 C5.2183,8.92711 5.4076,8.46943 5.6385,8.03973 L3.8769,7.09288 C3.5814,7.64265 3.3407,8.22527 3.1591,8.83119 L5.0748,9.40554 Z M0.9979,11.1463 L4.4166,10.0724 L3.8173,8.16432 L0.3986,9.23818 L0.9979,11.1463 Z M1.6133,11.5356 C1.6133,11.1292 1.6433,10.7226 1.6915,10.3078 L-0.2951,10.0766 C-0.3496,10.5449 -0.3867,11.0317 -0.3867,11.5356 L1.6133,11.5356 Z M1.6923,12.7624 C1.6432,12.348 1.6133,11.9418 1.6133,11.5356 L-0.3867,11.5356 C-0.3867,12.0396 -0.3496,12.5269 -0.2938,12.9977 L1.6923,12.7624 Z M4.4177,12.9998 L0.9989,11.926 L0.3996,13.8341 L3.8183,14.9079 L4.4177,12.9998 Z M5.6388,15.0311 C5.408,14.6033 5.2197,14.1462 5.0759,13.6667 L3.1601,14.2411 C3.3415,14.8459 3.581,15.4291 3.8787,15.9808 L5.6388,15.0311 Z M3.9894,19.1419 L5.6453,15.9686 L3.8722,15.0433 L2.2163,18.2167 L3.9894,19.1419 Z M5.6265,19.7983 C4.9806,19.2875 4.3981,18.7049 3.8872,18.059 L2.3185,19.2996 C2.9256,20.0673 3.6183,20.7599 4.386,21.367 L5.6265,19.7983 Z M7.717,18.0402 L4.5436,19.6961 L5.4689,21.4692 L8.6422,19.8133 L7.717,18.0402 Z M10.0188,18.6096 C9.5404,18.4662 9.0827,18.2769 8.653,18.0459 L7.7062,19.8076 C8.2559,20.1031 8.8386,20.3437 9.4445,20.5254 L10.0188,18.6096 Z M11.7595,22.6866 L10.6857,19.2678 L8.7776,19.8672 L9.8515,23.2859 L11.7595,22.6866 Z M12.1489,22.0712 C11.7425,22.0712 11.3358,22.0412 10.9211,21.993 L10.6899,23.9795 C11.1582,24.034 11.645,24.0712 12.1489,24.0712 L12.1489,22.0712 Z M13.3756,21.9921 C12.9613,22.0412 12.5551,22.0712 12.1489,22.0712 L12.1489,24.0712 C12.6529,24.0712 13.1402,24.034 13.611,23.9783 L13.3756,21.9921 Z M13.6131,19.2668 L12.5393,22.6855 L14.4473,23.2849 L15.5212,19.8661 L13.6131,19.2668 Z M15.6443,18.0457 C15.2165,18.2765 14.7595,18.4648 14.28,18.6086 L14.8543,20.5243 C15.4591,20.343 16.0424,20.1035 16.5941,19.8058 L15.6443,18.0457 Z M19.7552,19.695 L16.5818,18.0392 L15.6566,19.8123 L18.8299,21.4682 L19.7552,19.695 Z M20.4116,18.0579 C19.9007,18.7039 19.3182,19.2864 18.6723,19.7972 L19.9128,21.366 C20.6805,20.7589 21.3732,20.0662 21.9803,19.2985 L20.4116,18.0579 Z M18.6535,15.9675 L20.3094,19.1408 L22.0825,18.2156 L20.4266,15.0423 L18.6535,15.9675 Z M15.6133,11.1765 C15.6133,13.1095 14.0463,14.6765 12.1133,14.6765 L12.1133,16.6765 C15.1508,16.6765 17.6133,14.2141 17.6133,11.1765 L15.6133,11.1765 Z M12.1133,7.67651 C14.0463,7.67651 15.6133,9.24352 15.6133,11.17651 L17.6133,11.17651 C17.6133,8.13895 15.1508,5.67651 12.1133,5.67651 L12.1133,7.67651 Z M8.6133,11.17651 C8.6133,9.24352 10.1803,7.67651 12.1133,7.67651 L12.1133,5.67651 C9.0757,5.67651 6.6133,8.13895 6.6133,11.17651 L8.6133,11.17651 Z M12.1133,14.6765 C10.1803,14.6765 8.6133,13.1095 8.6133,11.1765 L6.6133,11.1765 C6.6133,14.2141 9.0757,16.6765 12.1133,16.6765 L12.1133,14.6765 Z" id="Shape" fill="#187186" fill-rule="nonzero" mask="url(#mask-4)"></path>
                </g>
            </g>
        </g>
    </g>
</svg>