<svg width="107" height="107" viewBox="0 0 107 107" fill="none" xmlns="http://www.w3.org/2000/svg">
<circle opacity="0.1" cx="53.5" cy="53.5" r="53.5" fill="#2FBECA"/>
<circle cx="53.5" cy="53.5" r="39.5" fill="#2FBECA"/>
<mask id="path-3-inside-1" fill="white">
<path fill-rule="evenodd" clip-rule="evenodd" d="M62.0103 64.7903C62.3763 63.8234 62.6479 62.8124 62.8188 61.7658L67.1562 60.8294C67.1982 60.2987 67.237 59.767 67.237 59.2259C67.237 58.6848 67.1982 58.1531 67.1562 57.6235L62.8188 56.687C62.6479 55.6394 62.3763 54.6295 62.0103 53.6626L65.2937 50.6875C64.8323 49.7185 64.309 48.7872 63.7039 47.9126L59.4882 49.2717C58.8233 48.459 58.0798 47.7144 57.2671 47.0496L58.6262 42.8338C57.7516 42.2287 56.8203 41.7044 55.8513 41.244L52.8762 44.5275C51.9093 44.1615 50.8984 43.8899 49.8518 43.7189L48.9153 39.3815C48.3847 39.3396 47.853 39.3008 47.3118 39.3008C46.7707 39.3008 46.239 39.3396 45.7094 39.3815L44.773 43.7189C43.7253 43.8899 42.7154 44.1615 41.7485 44.5275L38.7734 41.244C37.8044 41.7054 36.8732 42.2287 35.9986 42.8338L37.3577 47.0496C36.5449 47.7144 35.8004 48.4579 35.1355 49.2707L30.9198 47.9116C30.3147 48.7862 29.7903 49.7174 29.3299 50.6864L32.6134 53.6616C32.2474 54.6284 31.9758 55.6394 31.8049 56.686L27.4675 57.6225C27.4255 58.1531 27.3867 58.6848 27.3867 59.2259C27.3867 59.767 27.4255 60.2987 27.4675 60.8294L31.8049 61.7658C31.9758 62.8135 32.2474 63.8234 32.6134 64.7903L29.3299 67.7654C29.7914 68.7344 30.3147 69.6656 30.9198 70.5402L35.1355 69.1811C35.8004 69.9928 36.5439 70.7374 37.3566 71.4023L35.9975 75.618C36.8721 76.2231 37.8034 76.7474 38.7724 77.2078L41.7475 73.9244C42.7144 74.2903 43.7253 74.562 44.7719 74.7329L45.7084 79.0703C46.239 79.1122 46.7707 79.151 47.3118 79.151C47.853 79.151 48.3847 79.1122 48.9142 79.0703L49.8507 74.7329C50.8984 74.562 51.9083 74.2903 52.8751 73.9244L55.8503 77.2078C56.8193 76.7464 57.7505 76.2231 58.6251 75.618L57.266 71.4023C58.0787 70.7374 58.8233 69.9939 59.4882 69.1811L63.7039 70.5402C64.309 69.6656 64.8334 68.7344 65.2937 67.7654L62.0103 64.7903ZM47 67.9998C51.9706 67.9998 56 63.9703 56 58.9998C56 54.0292 51.9706 49.9998 47 49.9998C42.0294 49.9998 38 54.0292 38 58.9998C38 63.9703 42.0294 67.9998 47 67.9998Z"/>
</mask>
<path fill-rule="evenodd" clip-rule="evenodd" d="M62.0103 64.7903C62.3763 63.8234 62.6479 62.8124 62.8188 61.7658L67.1562 60.8294C67.1982 60.2987 67.237 59.767 67.237 59.2259C67.237 58.6848 67.1982 58.1531 67.1562 57.6235L62.8188 56.687C62.6479 55.6394 62.3763 54.6295 62.0103 53.6626L65.2937 50.6875C64.8323 49.7185 64.309 48.7872 63.7039 47.9126L59.4882 49.2717C58.8233 48.459 58.0798 47.7144 57.2671 47.0496L58.6262 42.8338C57.7516 42.2287 56.8203 41.7044 55.8513 41.244L52.8762 44.5275C51.9093 44.1615 50.8984 43.8899 49.8518 43.7189L48.9153 39.3815C48.3847 39.3396 47.853 39.3008 47.3118 39.3008C46.7707 39.3008 46.239 39.3396 45.7094 39.3815L44.773 43.7189C43.7253 43.8899 42.7154 44.1615 41.7485 44.5275L38.7734 41.244C37.8044 41.7054 36.8732 42.2287 35.9986 42.8338L37.3577 47.0496C36.5449 47.7144 35.8004 48.4579 35.1355 49.2707L30.9198 47.9116C30.3147 48.7862 29.7903 49.7174 29.3299 50.6864L32.6134 53.6616C32.2474 54.6284 31.9758 55.6394 31.8049 56.686L27.4675 57.6225C27.4255 58.1531 27.3867 58.6848 27.3867 59.2259C27.3867 59.767 27.4255 60.2987 27.4675 60.8294L31.8049 61.7658C31.9758 62.8135 32.2474 63.8234 32.6134 64.7903L29.3299 67.7654C29.7914 68.7344 30.3147 69.6656 30.9198 70.5402L35.1355 69.1811C35.8004 69.9928 36.5439 70.7374 37.3566 71.4023L35.9975 75.618C36.8721 76.2231 37.8034 76.7474 38.7724 77.2078L41.7475 73.9244C42.7144 74.2903 43.7253 74.562 44.7719 74.7329L45.7084 79.0703C46.239 79.1122 46.7707 79.151 47.3118 79.151C47.853 79.151 48.3847 79.1122 48.9142 79.0703L49.8507 74.7329C50.8984 74.562 51.9083 74.2903 52.8751 73.9244L55.8503 77.2078C56.8193 76.7464 57.7505 76.2231 58.6251 75.618L57.266 71.4023C58.0787 70.7374 58.8233 69.9939 59.4882 69.1811L63.7039 70.5402C64.309 69.6656 64.8334 68.7344 65.2937 67.7654L62.0103 64.7903ZM47 67.9998C51.9706 67.9998 56 63.9703 56 58.9998C56 54.0292 51.9706 49.9998 47 49.9998C42.0294 49.9998 38 54.0292 38 58.9998C38 63.9703 42.0294 67.9998 47 67.9998Z" fill="white"/>
<path d="M62.8188 61.7658L62.6078 60.7884L61.9417 60.9322L61.8319 61.6046L62.8188 61.7658ZM62.0103 64.7903L61.075 64.4362L60.8338 65.0737L61.3388 65.5313L62.0103 64.7903ZM67.1562 60.8294L67.3673 61.8068L68.0945 61.6498L68.1531 60.9082L67.1562 60.8294ZM67.1562 57.6235L68.1531 57.5445L68.0944 56.803L67.3673 56.646L67.1562 57.6235ZM62.8188 56.687L61.8319 56.8481L61.9416 57.5207L62.6078 57.6645L62.8188 56.687ZM62.0103 53.6626L61.3388 52.9216L60.8338 53.3792L61.075 54.0166L62.0103 53.6626ZM65.2937 50.6875L65.9652 51.4285L66.5164 50.9291L66.1966 50.2575L65.2937 50.6875ZM63.7039 47.9126L64.5263 47.3437L64.1038 46.733L63.3971 46.9609L63.7039 47.9126ZM59.4882 49.2717L58.7142 49.9049L59.146 50.4327L59.795 50.2235L59.4882 49.2717ZM57.2671 47.0496L56.3153 46.7427L56.1061 47.3918L56.6339 47.8236L57.2671 47.0496ZM58.6262 42.8338L59.5779 43.1407L59.8058 42.4339L59.1951 42.0115L58.6262 42.8338ZM55.8513 41.244L56.2805 40.3408L55.6093 40.0219L55.1103 40.5725L55.8513 41.244ZM52.8762 44.5275L52.5222 45.4627L53.1596 45.704L53.6172 45.1989L52.8762 44.5275ZM49.8518 43.7189L48.8743 43.93L49.0181 44.596L49.6906 44.7058L49.8518 43.7189ZM48.9153 39.3815L49.8928 39.1705L49.7358 38.4433L48.9941 38.3846L48.9153 39.3815ZM45.7094 39.3815L45.6305 38.3847L44.889 38.4434L44.732 39.1705L45.7094 39.3815ZM44.773 43.7189L44.934 44.7059L45.6066 44.5961L45.7504 43.93L44.773 43.7189ZM41.7485 44.5275L41.0075 45.1989L41.4651 45.704L42.1025 45.4627L41.7485 44.5275ZM38.7734 41.244L39.5144 40.5725L39.015 40.0214L38.3435 40.3411L38.7734 41.244ZM35.9986 42.8338L35.4296 42.0115L34.819 42.4339L35.0468 43.1407L35.9986 42.8338ZM37.3577 47.0496L37.9909 47.8236L38.5187 47.3918L38.3094 46.7427L37.3577 47.0496ZM35.1355 49.2707L34.8287 50.2224L35.4777 50.4317L35.9095 49.9039L35.1355 49.2707ZM30.9198 47.9116L31.2266 46.9598L30.5199 46.732L30.0974 47.3426L30.9198 47.9116ZM29.3299 50.6864L28.4267 50.2573L28.1078 50.9285L28.6585 51.4275L29.3299 50.6864ZM32.6134 53.6616L33.5486 54.0156L33.7899 53.3781L33.2849 52.9205L32.6134 53.6616ZM31.8049 56.686L32.0159 57.6635L32.6819 57.5196L32.7918 56.8472L31.8049 56.686ZM27.4675 57.6225L27.2564 56.645L26.5292 56.802L26.4706 57.5437L27.4675 57.6225ZM27.4675 60.8294L26.4706 60.9082L26.5292 61.6498L27.2564 61.8068L27.4675 60.8294ZM31.8049 61.7658L32.7918 61.6048L32.6821 60.9322L32.0159 60.7884L31.8049 61.7658ZM32.6134 64.7903L33.2849 65.5313L33.7899 65.0737L33.5486 64.4362L32.6134 64.7903ZM29.3299 67.7654L28.6585 67.0244L28.1073 67.5238L28.4271 68.1953L29.3299 67.7654ZM30.9198 70.5402L30.0974 71.1092L30.5199 71.7198L31.2266 71.492L30.9198 70.5402ZM35.1355 69.1811L35.9091 68.5475L35.4773 68.0203L34.8287 68.2294L35.1355 69.1811ZM37.3566 71.4023L38.3084 71.7091L38.5176 71.06L37.9898 70.6283L37.3566 71.4023ZM35.9975 75.618L35.0458 75.3112L34.8179 76.0179L35.4286 76.4404L35.9975 75.618ZM38.7724 77.2078L38.3432 78.111L39.0144 78.4299L39.5134 77.8793L38.7724 77.2078ZM41.7475 73.9244L42.1015 72.9891L41.4641 72.7478L41.0064 73.2529L41.7475 73.9244ZM44.7719 74.7329L45.7494 74.5218L45.6056 73.8558L44.9331 73.746L44.7719 74.7329ZM45.7084 79.0703L44.7309 79.2813L44.8879 80.0085L45.6296 80.0672L45.7084 79.0703ZM48.9142 79.0703L48.9932 80.0672L49.7347 80.0084L49.8917 79.2813L48.9142 79.0703ZM49.8507 74.7329L49.6897 73.7459L49.0171 73.8557L48.8732 74.5218L49.8507 74.7329ZM52.8751 73.9244L53.6162 73.2529L53.1586 72.7478L52.5211 72.9891L52.8751 73.9244ZM55.8503 77.2078L55.1092 77.8793L55.6087 78.4304L56.2802 78.1107L55.8503 77.2078ZM58.6251 75.618L59.1941 76.4404L59.8047 76.0179L59.5769 75.3112L58.6251 75.618ZM57.266 71.4023L56.6328 70.6283L56.105 71.06L56.3143 71.7091L57.266 71.4023ZM59.4882 69.1811L59.795 68.2294L59.146 68.0201L58.7142 68.5479L59.4882 69.1811ZM63.7039 70.5402L63.3971 71.492L64.1038 71.7198L64.5263 71.1092L63.7039 70.5402ZM65.2937 67.7654L66.197 68.1945L66.5159 67.5233L65.9652 67.0244L65.2937 67.7654ZM61.8319 61.6046C61.6716 62.5858 61.4173 63.5322 61.075 64.4362L62.9455 65.1443C63.3353 64.1146 63.6241 63.039 63.8058 61.927L61.8319 61.6046ZM66.9452 59.8519L62.6078 60.7884L63.0299 62.7433L67.3673 61.8068L66.9452 59.8519ZM66.237 59.2259C66.237 59.7233 66.2013 60.2196 66.1593 60.7505L68.1531 60.9082C68.195 60.3778 68.237 59.8107 68.237 59.2259H66.237ZM66.1593 57.7025C66.2013 58.2322 66.237 58.7285 66.237 59.2259H68.237C68.237 58.6411 68.195 58.074 68.1531 57.5445L66.1593 57.7025ZM62.6078 57.6645L66.9452 58.601L67.3673 56.646L63.0299 55.7095L62.6078 57.6645ZM61.075 54.0166C61.4173 54.9208 61.6717 55.8661 61.8319 56.8481L63.8058 56.526C63.6241 55.4127 63.3352 54.3382 62.9455 53.3086L61.075 54.0166ZM64.6223 49.9464L61.3388 52.9216L62.6817 54.4036L65.9652 51.4285L64.6223 49.9464ZM62.8816 48.4816C63.4513 49.3051 63.9485 50.1885 64.3909 51.1174L66.1966 50.2575C65.7161 49.2485 65.1667 48.2694 64.5263 47.3437L62.8816 48.4816ZM59.795 50.2235L64.0108 48.8644L63.3971 46.9609L59.1814 48.32L59.795 50.2235ZM56.6339 47.8236C57.3947 48.446 58.0912 49.1433 58.7142 49.9049L60.2622 48.6385C59.5555 47.7747 58.7649 46.9829 57.9002 46.2756L56.6339 47.8236ZM57.6744 42.527L56.3153 46.7427L58.2188 47.3564L59.5779 43.1407L57.6744 42.527ZM55.4222 42.1472C56.35 42.588 57.2333 43.0862 58.0572 43.6562L59.1951 42.0115C58.2698 41.3713 57.2907 40.8207 56.2805 40.3408L55.4222 42.1472ZM53.6172 45.1989L56.5924 41.9155L55.1103 40.5725L52.1352 43.856L53.6172 45.1989ZM49.6906 44.7058C50.6718 44.8661 51.6181 45.1205 52.5222 45.4627L53.2302 43.5922C52.2005 43.2024 51.1249 42.9136 50.013 42.732L49.6906 44.7058ZM47.9378 39.5926L48.8743 43.93L50.8292 43.5079L49.8928 39.1705L47.9378 39.5926ZM47.3118 40.3008C47.8093 40.3008 48.3055 40.3364 48.8365 40.3784L48.9941 38.3846C48.4638 38.3427 47.8967 38.3008 47.3118 38.3008V40.3008ZM45.7884 40.3784C46.3181 40.3364 46.8144 40.3008 47.3118 40.3008V38.3008C46.727 38.3008 46.1599 38.3427 45.6305 38.3847L45.7884 40.3784ZM45.7504 43.93L46.6869 39.5926L44.732 39.1705L43.7955 43.5079L45.7504 43.93ZM42.1025 45.4627C43.0068 45.1204 43.952 44.8661 44.934 44.7059L44.6119 42.732C43.4987 42.9136 42.4241 43.2025 41.3945 43.5922L42.1025 45.4627ZM38.0324 41.9155L41.0075 45.1989L42.4896 43.856L39.5144 40.5725L38.0324 41.9155ZM36.5675 43.6562C37.391 43.0864 38.2744 42.5892 39.2033 42.1469L38.3435 40.3411C37.3344 40.8217 36.3553 41.371 35.4296 42.0115L36.5675 43.6562ZM38.3094 46.7427L36.9503 42.527L35.0468 43.1407L36.4059 47.3564L38.3094 46.7427ZM35.9095 49.9039C36.5319 49.143 37.2293 48.4466 37.9909 47.8236L36.7245 46.2756C35.8606 46.9823 35.0688 47.7729 34.3615 48.6375L35.9095 49.9039ZM30.6129 48.8633L34.8287 50.2224L35.4423 48.3189L31.2266 46.9598L30.6129 48.8633ZM30.2332 51.1156C30.674 50.1878 31.1721 49.3045 31.7421 48.4805L30.0974 47.3426C29.4572 48.2679 28.9067 49.2471 28.4267 50.2573L30.2332 51.1156ZM33.2849 52.9205L30.0014 49.9454L28.6585 51.4275L31.9419 54.4026L33.2849 52.9205ZM32.7918 56.8472C32.952 55.866 33.2064 54.9196 33.5486 54.0156L31.6782 53.3075C31.2884 54.3372 30.9995 55.4128 30.8179 56.5248L32.7918 56.8472ZM27.6785 58.5999L32.0159 57.6635L31.5938 55.7085L27.2564 56.645L27.6785 58.5999ZM28.3867 59.2259C28.3867 58.7285 28.4224 58.2322 28.4644 57.7013L26.4706 57.5437C26.4287 58.074 26.3867 58.6411 26.3867 59.2259H28.3867ZM28.4644 60.7505C28.4224 60.2196 28.3867 59.7233 28.3867 59.2259H26.3867C26.3867 59.8107 26.4287 60.3778 26.4706 60.9082L28.4644 60.7505ZM32.0159 60.7884L27.6785 59.8519L27.2564 61.8068L31.5938 62.7433L32.0159 60.7884ZM33.5486 64.4362C33.2064 63.532 32.952 62.5868 32.7918 61.6048L30.8179 61.9269C30.9995 63.0401 31.2884 64.1147 31.6782 65.1443L33.5486 64.4362ZM30.0014 68.5064L33.2849 65.5313L31.9419 64.0492L28.6585 67.0244L30.0014 68.5064ZM31.7421 69.9713C31.1724 69.1478 30.6751 68.2644 30.2328 67.3355L28.4271 68.1953C28.9076 69.2044 29.4569 70.1835 30.0974 71.1092L31.7421 69.9713ZM34.8287 68.2294L30.6129 69.5885L31.2266 71.492L35.4423 70.1329L34.8287 68.2294ZM37.9898 70.6283C37.2289 70.0058 36.5323 69.3083 35.9091 68.5475L34.3619 69.8148C35.0684 70.6773 35.8588 71.469 36.7234 72.1763L37.9898 70.6283ZM36.9493 75.9248L38.3084 71.7091L36.4049 71.0954L35.0458 75.3112L36.9493 75.9248ZM39.2015 76.3046C38.2737 75.8638 37.3904 75.3657 36.5665 74.7956L35.4286 76.4404C36.3538 77.0805 37.333 77.6311 38.3432 78.111L39.2015 76.3046ZM41.0064 73.2529L38.0313 76.5363L39.5134 77.8793L42.4885 74.5958L41.0064 73.2529ZM44.9331 73.746C43.9519 73.5857 43.0056 73.3313 42.1015 72.9891L41.3935 74.8596C42.4232 75.2494 43.4987 75.5382 44.6107 75.7198L44.9331 73.746ZM46.6859 78.8592L45.7494 74.5218L43.7944 74.9439L44.7309 79.2813L46.6859 78.8592ZM47.3118 78.151C46.8144 78.151 46.3181 78.1154 45.7872 78.0734L45.6296 80.0672C46.1599 80.1091 46.727 80.151 47.3118 80.151V78.151ZM48.8353 78.0734C48.3055 78.1154 47.8092 78.151 47.3118 78.151V80.151C47.8967 80.151 48.4638 80.1091 48.9932 80.0672L48.8353 78.0734ZM48.8732 74.5218L47.9368 78.8592L49.8917 79.2813L50.8282 74.9439L48.8732 74.5218ZM52.5211 72.9891C51.6169 73.3314 50.6717 73.5857 49.6897 73.7459L50.0118 75.7198C51.125 75.5382 52.1996 75.2493 53.2292 74.8596L52.5211 72.9891ZM56.5913 76.5363L53.6162 73.2529L52.1341 74.5958L55.1092 77.8793L56.5913 76.5363ZM58.0562 74.7956C57.2326 75.3654 56.3492 75.8626 55.4203 76.3049L56.2802 78.1107C57.2893 77.6301 58.2684 77.0808 59.1941 76.4404L58.0562 74.7956ZM56.3143 71.7091L57.6734 75.9248L59.5769 75.3112L58.2178 71.0954L56.3143 71.7091ZM58.7142 68.5479C58.0918 69.3088 57.3944 70.0052 56.6328 70.6283L57.8992 72.1763C58.7631 71.4695 59.5549 70.6789 60.2622 69.8143L58.7142 68.5479ZM64.0108 69.5885L59.795 68.2294L59.1814 70.1329L63.3971 71.492L64.0108 69.5885ZM64.3905 67.3363C63.9497 68.264 63.4516 69.1473 62.8816 69.9713L64.5263 71.1092C65.1665 70.1839 65.717 69.2047 66.197 68.1945L64.3905 67.3363ZM61.3388 65.5313L64.6223 68.5064L65.9652 67.0244L62.6817 64.0492L61.3388 65.5313ZM55 58.9998C55 63.418 51.4183 66.9998 47 66.9998V68.9998C52.5228 68.9998 57 64.5226 57 58.9998H55ZM47 50.9998C51.4183 50.9998 55 54.5815 55 58.9998H57C57 53.4769 52.5228 48.9998 47 48.9998V50.9998ZM39 58.9998C39 54.5815 42.5817 50.9998 47 50.9998V48.9998C41.4772 48.9998 37 53.4769 37 58.9998H39ZM47 66.9998C42.5817 66.9998 39 63.418 39 58.9998H37C37 64.5226 41.4772 68.9998 47 68.9998V66.9998Z" fill="#187186" mask="url(#path-3-inside-1)"/>
<mask id="path-5-inside-2" fill="white">
<path fill-rule="evenodd" clip-rule="evenodd" d="M76.9268 41.8291C77.19 41.3394 77.4039 40.8192 77.5675 40.277L80.9862 39.2032C81.0376 38.7617 81.0712 38.3149 81.0712 37.8598C81.0712 37.4047 81.0376 36.9579 80.9852 36.5154L77.5665 35.4415C77.4039 34.8994 77.19 34.3792 76.9257 33.8895L78.5816 30.7161C78.0226 30.0093 77.385 29.3717 76.6782 28.8128L73.5049 30.4686C73.0152 30.2054 72.495 29.9904 71.9528 29.8279L70.879 26.4092C70.4375 26.3578 69.9907 26.3242 69.5356 26.3242C69.0805 26.3242 68.6337 26.3578 68.1912 26.4102L67.1173 29.8289C66.5751 29.9915 66.055 30.2054 65.5653 30.4697L62.3919 28.8138C61.6851 29.3728 61.0475 30.0104 60.4885 30.7172L62.1444 33.8905C61.8812 34.3803 61.6662 34.9004 61.5037 35.4426L58.0849 36.5164C58.0336 36.9579 58 37.4047 58 37.8598C58 38.3149 58.0336 38.7617 58.086 39.2042L61.5047 40.2781C61.6673 40.8203 61.8812 41.3404 62.1455 41.8302L60.4896 45.0035C61.0485 45.7103 61.6861 46.3479 62.393 46.9069L65.5663 45.251C66.056 45.5142 66.5762 45.7292 67.1184 45.8917L68.1922 49.3105C68.6337 49.3619 69.0805 49.3954 69.5356 49.3954C69.9907 49.3954 70.4375 49.3619 70.88 49.3094L71.9539 45.8907C72.4961 45.7281 73.0162 45.5142 73.5059 45.2499L76.6793 46.9058C77.3861 46.3469 78.0237 45.7093 78.5827 45.0024L76.9268 41.8291ZM69.5 42.0007C71.9853 42.0007 74 39.986 74 37.5007C74 35.0155 71.9853 33.0007 69.5 33.0007C67.0147 33.0007 65 35.0155 65 37.5007C65 39.986 67.0147 42.0007 69.5 42.0007Z"/>
</mask>
<path fill-rule="evenodd" clip-rule="evenodd" d="M76.9268 41.8291C77.19 41.3394 77.4039 40.8192 77.5675 40.277L80.9862 39.2032C81.0376 38.7617 81.0712 38.3149 81.0712 37.8598C81.0712 37.4047 81.0376 36.9579 80.9852 36.5154L77.5665 35.4415C77.4039 34.8994 77.19 34.3792 76.9257 33.8895L78.5816 30.7161C78.0226 30.0093 77.385 29.3717 76.6782 28.8128L73.5049 30.4686C73.0152 30.2054 72.495 29.9904 71.9528 29.8279L70.879 26.4092C70.4375 26.3578 69.9907 26.3242 69.5356 26.3242C69.0805 26.3242 68.6337 26.3578 68.1912 26.4102L67.1173 29.8289C66.5751 29.9915 66.055 30.2054 65.5653 30.4697L62.3919 28.8138C61.6851 29.3728 61.0475 30.0104 60.4885 30.7172L62.1444 33.8905C61.8812 34.3803 61.6662 34.9004 61.5037 35.4426L58.0849 36.5164C58.0336 36.9579 58 37.4047 58 37.8598C58 38.3149 58.0336 38.7617 58.086 39.2042L61.5047 40.2781C61.6673 40.8203 61.8812 41.3404 62.1455 41.8302L60.4896 45.0035C61.0485 45.7103 61.6861 46.3479 62.393 46.9069L65.5663 45.251C66.056 45.5142 66.5762 45.7292 67.1184 45.8917L68.1922 49.3105C68.6337 49.3619 69.0805 49.3954 69.5356 49.3954C69.9907 49.3954 70.4375 49.3619 70.88 49.3094L71.9539 45.8907C72.4961 45.7281 73.0162 45.5142 73.5059 45.2499L76.6793 46.9058C77.3861 46.3469 78.0237 45.7093 78.5827 45.0024L76.9268 41.8291ZM69.5 42.0007C71.9853 42.0007 74 39.986 74 37.5007C74 35.0155 71.9853 33.0007 69.5 33.0007C67.0147 33.0007 65 35.0155 65 37.5007C65 39.986 67.0147 42.0007 69.5 42.0007Z" fill="white"/>
<path d="M77.5675 40.277L77.2678 39.323L76.763 39.4816L76.6102 39.9882L77.5675 40.277ZM76.9268 41.8291L76.0459 41.3557L75.7952 41.8222L76.0402 42.2917L76.9268 41.8291ZM80.9862 39.2032L81.2859 40.1572L81.9046 39.9629L81.9795 39.3188L80.9862 39.2032ZM80.9852 36.5154L81.9783 36.3977L81.9021 35.7552L81.2849 35.5614L80.9852 36.5154ZM77.5665 35.4415L76.6086 35.7287L76.7609 36.2367L77.2668 36.3956L77.5665 35.4415ZM76.9257 33.8895L76.0392 33.4269L75.7937 33.8973L76.0457 34.3644L76.9257 33.8895ZM78.5816 30.7161L79.4682 31.1788L79.768 30.6042L79.366 30.0958L78.5816 30.7161ZM76.6782 28.8128L77.2985 28.0284L76.7902 27.6264L76.2156 27.9262L76.6782 28.8128ZM73.5049 30.4686L73.0315 31.3495L73.498 31.6002L73.9675 31.3552L73.5049 30.4686ZM71.9528 29.8279L70.9988 30.1276L71.1577 30.6335L71.6657 30.7858L71.9528 29.8279ZM70.879 26.4092L71.833 26.1095L71.6387 25.4908L70.9946 25.4159L70.879 26.4092ZM68.1912 26.4102L68.0735 25.4172L67.431 25.4933L67.2371 26.1105L68.1912 26.4102ZM67.1173 29.8289L67.4045 30.7868L67.9124 30.6345L68.0714 30.1286L67.1173 29.8289ZM65.5653 30.4697L65.1026 31.3563L65.5731 31.6018L66.0401 31.3497L65.5653 30.4697ZM62.3919 28.8138L62.8545 27.9273L62.28 27.6274L61.7716 28.0294L62.3919 28.8138ZM60.4885 30.7172L59.7042 30.0969L59.3022 30.6052L59.602 31.1798L60.4885 30.7172ZM62.1444 33.8905L63.0253 34.3639L63.276 33.8974L63.031 33.4279L62.1444 33.8905ZM61.5037 35.4426L61.8033 36.3966L62.3093 36.2377L62.4616 35.7298L61.5037 35.4426ZM58.0849 36.5164L57.7853 35.5624L57.1666 35.7567L57.0917 36.4008L58.0849 36.5164ZM58.086 39.2042L57.0929 39.3219L57.1691 39.9644L57.7863 40.1583L58.086 39.2042ZM61.5047 40.2781L62.4626 39.9909L62.3103 39.483L61.8044 39.3241L61.5047 40.2781ZM62.1455 41.8302L63.032 42.2928L63.2775 41.8223L63.0255 41.3553L62.1455 41.8302ZM60.4896 45.0035L59.603 44.5409L59.3032 45.1154L59.7052 45.6238L60.4896 45.0035ZM62.393 46.9069L61.7727 47.6912L62.281 48.0932L62.8556 47.7934L62.393 46.9069ZM65.5663 45.251L66.0397 44.3702L65.5732 44.1194L65.1037 44.3644L65.5663 45.251ZM67.1184 45.8917L68.0724 45.5921L67.9135 45.0861L67.4055 44.9339L67.1184 45.8917ZM68.1922 49.3105L67.2382 49.6101L67.4325 50.2288L68.0766 50.3038L68.1922 49.3105ZM70.88 49.3094L70.9977 50.3025L71.6402 50.2263L71.8341 49.6091L70.88 49.3094ZM71.9539 45.8907L71.6667 44.9328L71.1587 45.0851L70.9998 45.591L71.9539 45.8907ZM73.5059 45.2499L73.9686 44.3634L73.4981 44.1179L73.0311 44.3699L73.5059 45.2499ZM76.6793 46.9058L76.2167 47.7924L76.7912 48.0922L77.2996 47.6902L76.6793 46.9058ZM78.5827 45.0024L79.367 45.6227L79.769 45.1144L79.4692 44.5398L78.5827 45.0024ZM76.6102 39.9882C76.4651 40.4689 76.2763 40.927 76.0459 41.3557L77.8076 42.3025C78.1036 41.7517 78.3428 41.1695 78.5249 40.5659L76.6102 39.9882ZM80.6866 38.2491L77.2678 39.323L77.8672 41.2311L81.2859 40.1572L80.6866 38.2491ZM80.0712 37.8598C80.0712 38.2662 80.0412 38.6729 79.993 39.0876L81.9795 39.3188C82.034 38.8505 82.0712 38.3637 82.0712 37.8598H80.0712ZM79.9921 36.6331C80.0412 37.0474 80.0712 37.4536 80.0712 37.8598H82.0712C82.0712 37.3558 82.034 36.8685 81.9783 36.3977L79.9921 36.6331ZM77.2668 36.3956L80.6855 37.4694L81.2849 35.5614L77.8661 34.4875L77.2668 36.3956ZM76.0457 34.3644C76.2765 34.7922 76.4648 35.2492 76.6086 35.7287L78.5243 35.1544C78.343 34.5496 78.1035 33.9663 77.8058 33.4146L76.0457 34.3644ZM77.695 30.2535L76.0392 33.4269L77.8123 34.3521L79.4682 31.1788L77.695 30.2535ZM76.0579 29.5971C76.7039 30.1079 77.2864 30.6905 77.7972 31.3364L79.366 30.0958C78.7589 29.3282 78.0662 28.6355 77.2985 28.0284L76.0579 29.5971ZM73.9675 31.3552L77.1408 29.6993L76.2156 27.9262L73.0423 29.5821L73.9675 31.3552ZM71.6657 30.7858C72.1441 30.9292 72.6018 31.1185 73.0315 31.3495L73.9783 29.5878C73.4285 29.2923 72.8459 29.0517 72.24 28.87L71.6657 30.7858ZM69.9249 26.7088L70.9988 30.1276L72.9069 29.5282L71.833 26.1095L69.9249 26.7088ZM69.5356 27.3242C69.942 27.3242 70.3486 27.3542 70.7634 27.4025L70.9946 25.4159C70.5263 25.3614 70.0395 25.3242 69.5356 25.3242V27.3242ZM68.3088 27.4033C68.7232 27.3542 69.1294 27.3242 69.5356 27.3242V25.3242C69.0316 25.3242 68.5443 25.3614 68.0735 25.4172L68.3088 27.4033ZM68.0714 30.1286L69.1452 26.7099L67.2371 26.1105L66.1633 29.5293L68.0714 30.1286ZM66.0401 31.3497C66.4679 31.1189 66.925 30.9306 67.4045 30.7868L66.8301 28.8711C66.2253 29.0524 65.6421 29.292 65.0904 29.5896L66.0401 31.3497ZM61.9293 29.7004L65.1026 31.3563L66.0279 29.5831L62.8545 27.9273L61.9293 29.7004ZM61.2729 31.3375C61.7837 30.6915 62.3663 30.109 63.0122 29.5982L61.7716 28.0294C61.0039 28.6365 60.3113 29.3292 59.7042 30.0969L61.2729 31.3375ZM63.031 33.4279L61.3751 30.2546L59.602 31.1798L61.2579 34.3531L63.031 33.4279ZM62.4616 35.7298C62.605 35.2513 62.7943 34.7936 63.0253 34.3639L61.2636 33.4171C60.9681 33.9669 60.7275 34.5495 60.5458 35.1554L62.4616 35.7298ZM58.3846 37.4705L61.8033 36.3966L61.204 34.4885L57.7853 35.5624L58.3846 37.4705ZM59 37.8598C59 37.4535 59.03 37.0468 59.0782 36.6321L57.0917 36.4008C57.0371 36.8691 57 37.3559 57 37.8598H59ZM59.079 39.0866C59.03 38.6722 59 38.266 59 37.8598H57C57 38.3639 57.0372 38.8511 57.0929 39.3219L59.079 39.0866ZM61.8044 39.3241L58.3857 38.2502L57.7863 40.1583L61.205 41.2321L61.8044 39.3241ZM63.0255 41.3553C62.7947 40.9275 62.6064 40.4705 62.4626 39.9909L60.5468 40.5653C60.7282 41.1701 60.9677 41.7534 61.2654 42.305L63.0255 41.3553ZM61.3762 45.4661L63.032 42.2928L61.2589 41.3675L59.603 44.5409L61.3762 45.4661ZM63.0132 46.1225C62.3673 45.6117 61.7848 45.0292 61.274 44.3832L59.7052 45.6238C60.3123 46.3915 61.005 47.0842 61.7727 47.6912L63.0132 46.1225ZM65.1037 44.3644L61.9303 46.0203L62.8556 47.7934L66.0289 46.1375L65.1037 44.3644ZM67.4055 44.9339C66.9271 44.7904 66.4694 44.6011 66.0397 44.3702L65.0929 46.1318C65.6427 46.4273 66.2253 46.668 66.8312 46.8496L67.4055 44.9339ZM69.1463 49.0108L68.0724 45.5921L66.1643 46.1914L67.2382 49.6101L69.1463 49.0108ZM69.5356 48.3954C69.1292 48.3954 68.7226 48.3654 68.3078 48.3172L68.0766 50.3038C68.5449 50.3583 69.0317 50.3954 69.5356 50.3954V48.3954ZM70.7624 48.3164C70.348 48.3655 69.9418 48.3954 69.5356 48.3954V50.3954C70.0396 50.3954 70.5269 50.3582 70.9977 50.3025L70.7624 48.3164ZM70.9998 45.591L69.926 49.0097L71.8341 49.6091L72.9079 46.1904L70.9998 45.591ZM73.0311 44.3699C72.6033 44.6007 72.1462 44.789 71.6667 44.9328L72.2411 46.8486C72.8459 46.6672 73.4291 46.4277 73.9808 46.13L73.0311 44.3699ZM77.1419 46.0193L73.9686 44.3634L73.0433 46.1365L76.2167 47.7924L77.1419 46.0193ZM77.7983 44.3822C77.2875 45.0281 76.7049 45.6106 76.059 46.1214L77.2996 47.6902C78.0673 47.0831 78.7599 46.3904 79.367 45.6227L77.7983 44.3822ZM76.0402 42.2917L77.6961 45.4651L79.4692 44.5398L77.8133 41.3665L76.0402 42.2917ZM73 37.5007C73 39.4337 71.433 41.0007 69.5 41.0007V43.0007C72.5376 43.0007 75 40.5383 75 37.5007H73ZM69.5 34.0007C71.433 34.0007 73 35.5677 73 37.5007H75C75 34.4632 72.5376 32.0007 69.5 32.0007V34.0007ZM66 37.5007C66 35.5677 67.567 34.0007 69.5 34.0007V32.0007C66.4624 32.0007 64 34.4632 64 37.5007H66ZM69.5 41.0007C67.567 41.0007 66 39.4337 66 37.5007H64C64 40.5383 66.4624 43.0007 69.5 43.0007V41.0007Z" fill="#187186" mask="url(#path-5-inside-2)"/>
</svg>
