<?xml version="1.0" encoding="UTF-8"?>
<svg width="104px" height="86px" viewBox="0 0 104 86" version="1.1" xmlns="http://www.w3.org/2000/svg" xmlns:xlink="http://www.w3.org/1999/xlink">
    <title>03-tab</title>
    <g id="Page-1" stroke="none" stroke-width="1" fill="none" fill-rule="evenodd">
        <g id="Artboard" transform="translate(-669.000000, -358.000000)" stroke="#187186">
            <g id="Group" transform="translate(698.000000, 380.000000)">
                <g id="00-icon-tab-insightful" transform="translate(29.018059, 11.465405) rotate(2.000000) translate(-29.018059, -11.465405) translate(18.018059, 0.965405)" fill="#187186" fill-rule="nonzero" stroke-width="0.2">
                    <path d="M0.543981575,3.06701904 L0.543981575,3.06699857 L0.542123835,3.06571937 C0.390180278,2.95658824 0.17370471,2.98236669 0.0630225308,3.1505764 C-0.0414997741,3.30926886 -0.0168602785,3.53506304 0.143296443,3.65090741 C0.14358977,3.65113255 0.143980874,3.65136793 0.144274201,3.65159307 L20.453574,18.9276484 C20.515075,18.9799421 20.586158,19 20.6532322,19 C20.7587322,19 20.8650145,18.9502647 20.9335553,18.8581623 L20.9337509,18.8582646 L20.9369775,18.8532502 C21.0414998,18.6946293 21.0168603,18.4687737 20.8567036,18.3529294 C20.8564102,18.3527247 20.8560191,18.35252 20.8557258,18.3523154 L0.543981575,3.06701904 Z" id="Path"></path>
                    <path d="M7.1492527,0.648631354 L21.4310569,10.9279018 C21.4950922,10.9800124 21.5691044,11 21.6389426,11 C21.7498081,11 21.8623026,10.9494191 21.9339732,10.8472374 L21.9343804,10.8465236 C22.0432099,10.6883562 22.0175551,10.4633934 21.8507986,10.3479546 L7.56634743,0.0667670024 L7.56634743,0.0667466068 L7.56451494,0.0654820834 C7.40631011,-0.0432669342 7.18091402,-0.0175583564 7.06556906,0.150062386 C6.95684141,0.308189005 6.98239444,0.533192599 7.1492527,0.648631354 Z" id="Path"></path>
                    <path d="M1.53421127,13.0681817 L1.53430731,13.0681817 L1.53257864,13.0668281 C1.38324124,12.9558339 1.17061551,12.9820727 1.06190173,13.1532495 C0.959238265,13.3146389 0.983439568,13.5444365 1.14074803,13.6623028 L10.4632434,20.9263856 C10.5237466,20.9795921 10.5934694,21 10.6594468,21 C10.764031,21 10.8701518,20.9483554 10.9376657,20.844025 L10.9381459,20.8432961 C11.0407133,20.6818027 11.0166081,20.4521092 10.8592036,20.3342429 L1.53421127,13.0681817 Z" id="Path"></path>
                </g>
                <circle id="Oval" cx="21.5" cy="21.5" r="21"></circle>
                <line x1="18.5" y1="1.5" x2="19.5" y2="23.5" id="Line" stroke-linecap="square"></line>
                <line x1="42.5" y1="19.5" x2="19.5" y2="23.5" id="Line" stroke-linecap="square"></line>
            </g>
        </g>
    </g>
</svg>