<svg width="107" height="107" viewBox="0 0 107 107" fill="none" xmlns="http://www.w3.org/2000/svg">
<circle opacity="0.1" cx="53.5" cy="53.5" r="53.5" fill="#2FBECA"/>
<circle cx="53.5" cy="53.5" r="39.5" fill="#2FBECA"/>
<path fill-rule="evenodd" clip-rule="evenodd" d="M58.5991 50.5078H32V68.3729H41.6014L42.5421 73.137L48.2325 68.3729H58.5991V50.5078Z" fill="white"/>
<path d="M32 50.5078V50.0078H31.5V50.5078H32ZM58.5991 50.5078H59.0991V50.0078H58.5991V50.5078ZM32 68.3729H31.5V68.8729H32V68.3729ZM41.6014 68.3729L42.0919 68.276L42.0123 67.8729H41.6014V68.3729ZM42.5421 73.137L42.0515 73.2338L42.2152 74.0627L42.863 73.5203L42.5421 73.137ZM48.2325 68.3729V67.8729H48.0508L47.9115 67.9895L48.2325 68.3729ZM58.5991 68.3729V68.8729H59.0991V68.3729H58.5991ZM32 51.0078H58.5991V50.0078H32V51.0078ZM32.5 68.3729V50.5078H31.5V68.3729H32.5ZM41.6014 67.8729H32V68.8729H41.6014V67.8729ZM43.0326 73.0401L42.0919 68.276L41.1108 68.4698L42.0515 73.2338L43.0326 73.0401ZM47.9115 67.9895L42.2211 72.7536L42.863 73.5203L48.5534 68.7563L47.9115 67.9895ZM58.5991 67.8729H48.2325V68.8729H58.5991V67.8729ZM58.0991 50.5078V68.3729H59.0991V50.5078H58.0991Z" fill="#187186"/>
<path fill-rule="evenodd" clip-rule="evenodd" d="M74.3429 33.1367H37.9727V57.5645H54.2742L61.5869 63.8072L63.2117 57.5645H74.3429V33.1367Z" fill="white"/>
<path d="M37.9727 33.1367V32.6367H37.4727V33.1367H37.9727ZM74.3429 33.1367H74.8429V32.6367H74.3429V33.1367ZM37.9727 57.5645H37.4727V58.0645H37.9727V57.5645ZM54.2742 57.5645L54.5988 57.1842L54.4586 57.0645H54.2742V57.5645ZM61.5869 63.8072L61.2623 64.1874L61.8696 64.7059L62.0708 63.9331L61.5869 63.8072ZM63.2117 57.5645V57.0645H62.8251L62.7278 57.4386L63.2117 57.5645ZM74.3429 57.5645V58.0645H74.8429V57.5645H74.3429ZM37.9727 33.6367H74.3429V32.6367H37.9727V33.6367ZM38.4727 57.5645V33.1367H37.4727V57.5645H38.4727ZM54.2742 57.0645H37.9727V58.0645H54.2742V57.0645ZM61.9115 63.4269L54.5988 57.1842L53.9496 57.9448L61.2623 64.1874L61.9115 63.4269ZM62.7278 57.4386L61.103 63.6812L62.0708 63.9331L63.6955 57.6904L62.7278 57.4386ZM74.3429 57.0645H63.2117V58.0645H74.3429V57.0645ZM73.8429 33.1367V57.5645H74.8429V33.1367H73.8429Z" fill="#187186"/>
</svg>
