<?xml version="1.0" encoding="UTF-8"?>
<svg width="104px" height="86px" viewBox="0 0 104 86" version="1.1" xmlns="http://www.w3.org/2000/svg" xmlns:xlink="http://www.w3.org/1999/xlink">
    <title>04-tab</title>
    <g id="Page-1" stroke="none" stroke-width="1" fill="none" fill-rule="evenodd">
        <g id="Artboard" transform="translate(-669.000000, -566.000000)">
            <g id="00-icon-tab-communication" transform="translate(699.000000, 588.000000)">
                <polygon id="Path" fill="#FFFFFF" points="27.5991 18.3711 1 18.3711 1 36.2362 10.6014 36.2362 11.5421 41.0002 17.2325 36.2362 27.5991 36.2362"></polygon>
                <path d="M1,18.3711 L1,17.8711 L0.5,17.8711 L0.5,18.3711 L1,18.3711 Z M27.5991,18.3711 L28.0991,18.3711 L28.0991,17.8711 L27.5991,17.8711 L27.5991,18.3711 Z M1,36.2362 L0.5,36.2362 L0.5,36.7362 L1,36.7362 L1,36.2362 Z M10.6014,36.2362 L11.0919,36.1393 L11.0123,35.7362 L10.6014,35.7362 L10.6014,36.2362 Z M11.5421,41.0002 L11.0515,41.0971 L11.2152,41.926 L11.863,41.3836 L11.5421,41.0002 Z M17.2325,36.2362 L17.2325,35.7362 L17.0508,35.7362 L16.9115,35.8528 L17.2325,36.2362 Z M27.5991,36.2362 L27.5991,36.7362 L28.0991,36.7362 L28.0991,36.2362 L27.5991,36.2362 Z M1,18.8711 L27.5991,18.8711 L27.5991,17.8711 L1,17.8711 L1,18.8711 Z M1.5,36.2362 L1.5,18.3711 L0.5,18.3711 L0.5,36.2362 L1.5,36.2362 Z M10.6014,35.7362 L1,35.7362 L1,36.7362 L10.6014,36.7362 L10.6014,35.7362 Z M12.0326,40.9034 L11.0919,36.1393 L10.1108,36.333 L11.0515,41.0971 L12.0326,40.9034 Z M16.9115,35.8528 L11.2211,40.6169 L11.863,41.3836 L17.5534,36.6196 L16.9115,35.8528 Z M27.5991,35.7362 L17.2325,35.7362 L17.2325,36.7362 L27.5991,36.7362 L27.5991,35.7362 Z M27.0991,18.3711 L27.0991,36.2362 L28.0991,36.2362 L28.0991,18.3711 L27.0991,18.3711 Z" id="Shape" fill="#187186" fill-rule="nonzero"></path>
                <polygon id="Path" fill="#FFFFFF" points="43.3429 1 6.97266 1 6.97266 25.4278 23.2742 25.4278 30.5869 31.6704 32.2117 25.4278 43.3429 25.4278"></polygon>
                <path d="M6.97266,1 L6.97266,0.5 L6.47266,0.5 L6.47266,1 L6.97266,1 Z M43.3429,1 L43.8429,1 L43.8429,0.5 L43.3429,0.5 L43.3429,1 Z M6.97266,25.4278 L6.47266,25.4278 L6.47266,25.9278 L6.97266,25.9278 L6.97266,25.4278 Z M23.2742,25.4278 L23.5988,25.0475 L23.4586,24.9278 L23.2742,24.9278 L23.2742,25.4278 Z M30.5869,31.6704 L30.2623,32.0507 L30.8696,32.5692 L31.0708,31.7964 L30.5869,31.6704 Z M32.2117,25.4278 L32.2117,24.9278 L31.8251,24.9278 L31.7278,25.3018 L32.2117,25.4278 Z M43.3429,25.4278 L43.3429,25.9278 L43.8429,25.9278 L43.8429,25.4278 L43.3429,25.4278 Z M6.97266,1.5 L43.3429,1.5 L43.3429,0.5 L6.97266,0.5 L6.97266,1.5 Z M7.47266,25.4278 L7.47266,1 L6.47266,1 L6.47266,25.4278 L7.47266,25.4278 Z M23.2742,24.9278 L6.97266,24.9278 L6.97266,25.9278 L23.2742,25.9278 L23.2742,24.9278 Z M30.9115,31.2902 L23.5988,25.0475 L22.9496,25.8081 L30.2623,32.0507 L30.9115,31.2902 Z M31.7278,25.3018 L30.103,31.5445 L31.0708,31.7964 L32.6955,25.5537 L31.7278,25.3018 Z M43.3429,24.9278 L32.2117,24.9278 L32.2117,25.9278 L43.3429,25.9278 L43.3429,24.9278 Z M42.8429,1 L42.8429,25.4278 L43.8429,25.4278 L43.8429,1 L42.8429,1 Z" id="Shape" fill="#187186" fill-rule="nonzero"></path>
            </g>
        </g>
    </g>
</svg>