<svg width="60" height="60" viewBox="0 0 60 60" fill="none" xmlns="http://www.w3.org/2000/svg">
<path fill-rule="evenodd" clip-rule="evenodd" d="M35.4213 25.5C38.5694 23.6704 40.6813 20.1922 40.6813 16.1753C40.6813 10.2363 36.068 5.48059 30.3145 5.48059C24.5611 5.48059 19.9477 10.2363 19.9477 16.1753C19.9477 20.1922 22.0597 23.6704 25.2078 25.5H35.4213ZM33.6001 17.4C33.9314 17.4 34.2051 17.6704 34.1528 17.9976C33.8542 19.8678 32.1758 21.3 30.1501 21.3C28.1243 21.3 26.446 19.8678 26.1473 17.9976C26.0951 17.6704 26.3687 17.4 26.7001 17.4H33.6001ZM9.14958 35.879C8.60228 32.8144 10.9586 30 14.0717 30H45.9605C49.1612 30 51.5377 32.9655 50.8404 36.0894L46.7895 54.2358C46.5855 55.1499 45.7743 55.8 44.8376 55.8H14.3816C13.4127 55.8 12.5831 55.1055 12.4128 54.1516L9.14958 35.879ZM34.1997 39.6C34.1997 41.7539 32.3864 43.5 30.1497 43.5C27.9129 43.5 26.0997 41.7539 26.0997 39.6C26.0997 37.4461 27.9129 35.7 30.1497 35.7C32.3864 35.7 34.1997 37.4461 34.1997 39.6Z" fill="#2FBECA"/>
</svg>
