<svg width="40" height="40" viewBox="0 0 40 40" fill="none" xmlns="http://www.w3.org/2000/svg">
<path d="M21.0532 29.5382V29.5378C18.831 28.8885 16.6016 30.6163 16.6016 33.0009C16.6016 34.9855 18.1717 36.6 20.1016 36.6C22.0315 36.6 23.6016 34.9855 23.6016 33.0009C23.6016 31.3556 22.5219 29.9657 21.0532 29.5382Z" fill="#2FBECA"/>
<path d="M33.0443 29.5225C31.4188 29.5225 30.0456 30.614 29.6232 32.0989H27.7974V27.4354C27.7974 26.3128 26.8802 25.4 25.7522 25.4H23V27.3244H25.7522C25.8141 27.3244 25.8638 27.3745 25.8638 27.4354V32.2387C25.8638 33.2227 26.6682 34.0233 27.6569 34.0233H29.6231C30.0454 35.5083 31.4187 36.6 33.0443 36.6C35.0049 36.6 36.6 35.0125 36.6 33.0613C36.6 31.11 35.0049 29.5225 33.0443 29.5225Z" fill="#2FBECA"/>
<path d="M10.3616 22.6487C10.3838 22.6487 10.1464 22.6492 19.1444 22.6301V27.6C19.7629 27.4896 20.4258 27.4837 21.0769 27.6C21.0769 27.352 21.0769 23.4163 21.0769 22.626L29.9003 22.6072C33.5283 22.5997 36.6016 19.7077 36.6016 15.9349C36.6016 11.4685 32.6879 8.08239 28.4418 8.88111C27.4854 7.50151 25.9149 6.67563 24.1907 6.69809C21.1464 1.85812 13.7597 2.89258 12.1647 8.38344C6.26935 7.20463 1.78092 13.5807 4.3334 18.8992C5.42921 21.1782 7.79418 22.6488 10.3616 22.6487Z" fill="#2FBECA"/>
<path d="M17.2016 25.4H14.4493C13.3214 25.4 12.4042 26.3128 12.4042 27.4354V32.0989H10.5784C10.156 30.614 8.78278 29.5225 7.15735 29.5225C5.19669 29.5225 3.60156 31.11 3.60156 33.0613C3.60156 35.0125 5.19669 36.6 7.15735 36.6C8.78291 36.6 10.1562 35.5083 10.5785 34.0233H12.5447C13.5334 34.0233 14.3378 33.2227 14.3378 32.2387V27.4354C14.3378 27.3745 14.3875 27.3244 14.4493 27.3244H17.2016V25.4Z" fill="#2FBECA"/>
</svg>
