<svg width="40" height="40" viewBox="0 0 40 40" fill="none" xmlns="http://www.w3.org/2000/svg">
<path fill-rule="evenodd" clip-rule="evenodd" d="M27.1862 35.8333C31.0407 35.8333 34.1654 32.7086 34.1654 28.8542C34.1654 24.9997 31.0407 21.875 27.1862 21.875C23.3317 21.875 20.207 24.9997 20.207 28.8542C20.207 32.7086 23.3317 35.8333 27.1862 35.8333ZM27.1888 28.2759C28.5098 28.2759 29.5846 29.2601 29.5846 30.4698C29.5846 31.4638 28.8589 32.305 27.8673 32.5736V33.3334H26.5102V32.5736C25.5187 32.3049 24.793 31.4638 24.793 30.4698H26.1501C26.1501 30.9269 26.616 31.2987 27.1888 31.2987C27.7615 31.2987 28.2275 30.9269 28.2275 30.4698C28.2275 30.0128 27.7615 29.6409 27.1888 29.6409C25.8677 29.6409 24.793 28.6567 24.793 27.4469C24.793 26.453 25.5187 25.6118 26.5102 25.3431V24.5834H27.8673V25.3431C28.8589 25.6118 29.5846 26.453 29.5846 27.4469H28.2275C28.2275 26.9898 27.7615 26.618 27.1888 26.618C26.616 26.618 26.1501 26.9898 26.1501 27.4469C26.1501 27.904 26.616 28.2759 27.1888 28.2759Z" fill="#2FBECA"/>
<path fill-rule="evenodd" clip-rule="evenodd" d="M13.0167 3.33337H26.985C32.1333 3.33337 35 6.30004 35 11.3834V23.8604C33.3523 21.2882 30.4691 19.5834 27.1878 19.5834C22.0676 19.5834 17.9169 23.7341 17.9169 28.8542C17.9169 32.1358 19.6219 35.0191 22.1943 36.6667H13.0167C7.95 36.6667 5 33.7667 5 28.6V11.3834C5 6.30004 7.95 3.33337 13.0167 3.33337ZM17.8138 22.0932H13.743C13.243 22.1599 12.7596 21.9099 12.493 21.4932C12.2263 21.0599 12.2263 20.5099 12.493 20.0932C12.7596 19.6599 13.243 19.4265 13.743 19.4765H17.8138C18.4788 19.5432 18.9805 20.1099 18.9805 20.7932C18.9805 21.4582 18.4788 22.0265 17.8138 22.0932ZM13.7414 14.4767H25.1414C25.8581 14.4767 26.4414 13.8933 26.4414 13.1767C26.4414 12.46 25.8581 11.875 25.1414 11.875H13.7414C13.0231 11.875 12.4414 12.46 12.4414 13.1767C12.4414 13.8933 13.0231 14.4767 13.7414 14.4767Z" fill="#2FBECA"/>
</svg>
