<svg width="202" height="202" viewBox="0 0 202 202" fill="none" xmlns="http://www.w3.org/2000/svg">
<circle cx="101" cy="101" r="101" fill="#F5F5F5"/>
<path d="M131.489 82.6171L131.386 63.4342C131.284 46.1542 117.273 32.2685 100.142 32.32C82.9602 32.4228 69.1534 46.5142 69.2045 63.7428L69.3068 82.5656H60C60 81.7428 60.4091 158.68 60.4091 158.68L141 158.217L140.591 82.6171H131.489ZM78.8693 80.3028L78.767 64.5656C78.7159 52.6342 88.2784 42.9142 100.142 42.8114C112.006 42.76 121.67 52.3771 121.773 64.3085L121.875 80.0456C121.875 80.9713 121.824 81.7428 121.722 82.6171H79.0739C78.9716 81.7428 78.9205 81.2285 78.8693 80.3028Z" fill="#2FBECA"/>
<rect x="60" y="81.9998" width="81" height="76.68" fill="#186A7E"/>
<path opacity="0.3" d="M109.806 117.587C109.806 113.031 106.135 109.333 101.614 109.333C97.0922 109.333 93.4219 113.031 93.4219 117.587C93.4219 120.857 95.3368 123.697 98.1029 125.037V135.052H105.071V124.984C107.891 123.697 109.806 120.857 109.806 117.587Z" fill="#187186" stroke="#156274" stroke-width="0.86065" stroke-miterlimit="10" stroke-linecap="round" stroke-linejoin="round"/>
<path d="M107.079 114.252C107.079 109.697 103.409 105.998 98.8871 105.998C94.3657 105.998 90.6953 109.697 90.6953 114.252C90.6953 117.522 92.6103 120.363 95.3764 121.702V131.718H102.345V121.649C105.164 120.363 107.079 117.522 107.079 114.252Z" fill="#2FBECA"/>
</svg>
