<svg width="202" height="202" viewBox="0 0 202 202" fill="none" xmlns="http://www.w3.org/2000/svg">
<circle cx="101" cy="101" r="101" fill="#F5F5F5"/>
<path d="M42.596 151.905C42.6904 151.968 42.7849 152 42.8793 152C42.9108 152 42.9265 152 42.958 151.968L59.6722 149.402C59.7824 149.386 59.8926 149.307 59.9712 149.212C60.0342 149.117 60.0657 148.99 60.0499 148.863C59.6093 146.027 60.3018 143.175 62.0015 140.862C63.7013 138.549 66.1879 137.028 69.0051 136.6C74.8441 135.697 80.3053 139.753 81.2024 145.615C81.2496 145.869 81.4857 146.059 81.7375 146.011L98.4518 143.445C98.562 143.429 98.6721 143.35 98.7508 143.255C98.8138 143.159 98.8452 143.033 98.8295 142.906L94.5801 114.943C100.671 113.77 104.81 107.924 103.866 101.698C103.394 98.6083 101.757 95.8832 99.2544 94.0296C96.8779 92.271 93.9821 91.4947 91.0704 91.8274L88.4264 74.3998C88.3792 74.1463 88.1431 73.972 87.8913 74.0037L32.3817 82.5432C32.2715 82.5591 32.1614 82.6383 32.0827 82.7333C32.0197 82.8284 31.9883 82.9551 32.004 83.0819L34.4907 99.4638C34.2389 99.5113 35.7025 107.449 35.734 107.702L42.4071 151.604C42.4229 151.715 42.5016 151.826 42.596 151.905Z" fill="#186A7E"/>
<path d="M119.945 122.975C119.982 122.988 120.031 123 120.081 123C120.13 123 120.179 122.988 120.216 123L143.661 112.987C145.801 117.518 151.152 119.605 155.79 117.629C159.037 116.246 161.214 113.197 161.472 109.665C161.571 108.27 161.374 106.924 160.882 105.64L172.777 100.566C172.961 100.479 173.047 100.269 172.974 100.084L144.251 32.2253C144.215 32.1389 144.141 32.0648 144.055 32.0278C143.956 31.9907 143.858 31.9907 143.772 32.0278L105.418 48.3875L91.2232 54.4375C91.0387 54.5239 90.9526 54.7338 91.0264 54.919L106.365 91.1573C106.451 91.3425 106.661 91.4289 106.845 91.3548C111.224 89.4904 116.317 91.5523 118.174 95.9479C120.031 100.343 117.977 105.43 113.598 107.307C113.414 107.393 113.328 107.603 113.401 107.789L119.749 122.778C119.785 122.864 119.859 122.938 119.945 122.975Z" fill="#186A7E"/>
<path d="M127.133 133.954C126.943 133.022 126.563 132.138 126.018 131.359C125.761 130.964 125.469 130.594 125.146 130.252C124.821 129.912 124.417 129.658 123.97 129.513C123.862 129.478 123.747 129.476 123.639 129.507C123.53 129.537 123.432 129.598 123.358 129.683C123.283 129.768 123.235 129.872 123.219 129.984C123.203 130.096 123.22 130.209 123.268 130.312C123.415 130.684 123.619 131.031 123.871 131.342C124.154 131.671 124.439 132.009 124.718 132.336C125.261 132.995 125.762 133.696 126.304 134.354C126.358 134.462 126.453 134.544 126.567 134.582C126.681 134.62 126.806 134.611 126.913 134.557C126.966 134.531 127.014 134.494 127.053 134.449C127.092 134.404 127.122 134.352 127.141 134.295C127.179 134.181 127.17 134.056 127.116 133.949L127.133 133.954Z" fill="#2FBECA"/>
<path d="M107.627 135.572C107.424 136.822 107.314 138.086 107.298 139.352C107.289 140.518 107.189 141.886 107.684 142.954C107.935 143.497 108.726 143.318 108.876 142.81C109.2 141.746 108.952 140.467 108.913 139.368C108.865 138.151 108.804 136.947 108.715 135.721C108.672 135.131 107.731 134.907 107.627 135.572Z" fill="#2FBECA"/>
<path d="M79.7327 61.7278C78.6205 61.1216 77.4648 60.5991 76.2749 60.1647C75.1784 59.7699 73.9204 59.2221 72.7493 59.3352C72.1537 59.3915 72.0599 60.1971 72.4897 60.5075C73.3865 61.1654 74.6753 61.3553 75.725 61.6825C76.8889 62.0407 78.0451 62.3825 79.2319 62.705C79.8024 62.8596 80.3254 62.0461 79.7327 61.7278Z" fill="#2FBECA"/>
</svg>
