<svg width="40" height="40" viewBox="0 0 40 40" fill="none" xmlns="http://www.w3.org/2000/svg">
<path d="M24.098 4.19995C22.0002 4.19995 19.9425 4.76159 18.1464 5.82439C17.7986 6.0303 17.4622 6.2538 17.1386 6.49362C16.7026 6.81668 16.9885 7.47351 17.5311 7.47351C21.5613 7.47351 25.3503 9.04302 28.2004 11.8932C31.05 14.7427 32.6195 18.5323 32.6195 22.5625C32.6195 23.035 33.1949 23.2791 33.4777 22.9005C33.7279 22.5657 33.9605 22.217 34.1742 21.8558C35.2376 20.0598 35.7999 18.0009 35.7999 15.9024C35.7999 9.44974 30.5507 4.19995 24.098 4.19995Z" fill="#2FBECA"/>
<path d="M17.4359 9.32483C13.9002 9.32483 10.5762 10.7018 8.07614 13.202C5.5761 15.7022 4.19922 19.0265 4.19922 22.5623C4.19922 24.5836 4.64242 26.5211 5.51673 28.3247V33.4823C5.51673 34.0346 5.96444 34.4823 6.51673 34.4823H11.6738C13.4773 35.3566 15.4147 35.7998 17.4359 35.7998C20.9716 35.7998 24.2956 34.4229 26.7957 31.9226C29.2957 29.4224 30.6726 26.0982 30.6726 22.5623C30.6726 19.0265 29.2957 15.7023 26.7957 13.202C24.2956 10.7017 20.9716 9.32483 17.4359 9.32483ZM17.3742 21.6931C19.1766 21.6931 20.6429 23.028 20.6429 24.669C20.6429 26.0171 19.6528 27.1581 18.3 27.5225V28.553H16.4484V27.5225C15.0957 27.1581 14.1055 26.0171 14.1055 24.669H15.9571C15.9571 25.2889 16.5928 25.7933 17.3742 25.7933C18.1556 25.7933 18.7914 25.2889 18.7914 24.669C18.7914 24.049 18.1556 23.5446 17.3742 23.5446C15.5718 23.5446 14.1055 22.2097 14.1055 20.5687C14.1055 19.2205 15.0957 18.0795 16.4484 17.7151V16.6846H18.3V17.7151C19.6528 18.0796 20.6429 19.2205 20.6429 20.5687H18.7914C18.7914 19.9487 18.1556 19.4443 17.3742 19.4443C16.5928 19.4443 15.9571 19.9487 15.9571 20.5687C15.9571 21.1887 16.5928 21.6931 17.3742 21.6931Z" fill="#2FBECA"/>
</svg>
