<svg width="40" height="40" viewBox="0 0 40 40" fill="none" xmlns="http://www.w3.org/2000/svg">
<path d="M3.33203 15C3.33203 11.8573 3.33203 10.2859 4.30834 9.30962C4.30834 9.30962 4.30834 9.30962 4.30834 9.30962C5.28465 8.33331 6.856 8.33331 9.9987 8.33331H29.9987C33.1414 8.33331 34.7127 8.33331 35.6891 9.30962C35.6891 9.30962 35.6891 9.30962 35.6891 9.30962C36.6654 10.2859 36.6654 11.8573 36.6654 15C36.6654 15.7857 36.6654 16.1785 36.4213 16.4226C36.1772 16.6666 35.7844 16.6666 34.9987 16.6666H4.99869C4.21302 16.6666 3.82019 16.6666 3.57611 16.4226C3.57611 16.4226 3.57611 16.4226 3.57611 16.4226C3.33203 16.1785 3.33203 15.7857 3.33203 15Z" fill="#2FBECA"/>
<path fill-rule="evenodd" clip-rule="evenodd" d="M3.33594 30C3.33594 33.1427 3.33594 34.714 4.31225 35.6904C5.28856 36.6667 6.85991 36.6667 10.0026 36.6667H30.0026C33.1453 36.6667 34.7166 36.6667 35.693 35.6904C36.6693 34.714 36.6693 33.1427 36.6693 30V21.6667C36.6693 20.881 36.6693 20.4882 36.4252 20.2441C36.1811 20 35.7883 20 35.0026 20H5.0026C4.21693 20 3.82409 20 3.58002 20.2441C3.33594 20.4882 3.33594 20.881 3.33594 21.6667V30ZM11.6693 25C11.6693 24.2143 11.6693 23.8215 11.9134 23.5774C12.1574 23.3333 12.5503 23.3333 13.336 23.3333H16.6693C17.455 23.3333 17.8478 23.3333 18.0919 23.5774C18.336 23.8215 18.336 24.2143 18.336 25C18.336 25.7857 18.336 26.1785 18.0919 26.4226C17.8478 26.6667 17.455 26.6667 16.6693 26.6667H13.336C12.5503 26.6667 12.1574 26.6667 11.9134 26.4226C11.6693 26.1785 11.6693 25.7857 11.6693 25ZM11.9134 30.2441C11.6693 30.4882 11.6693 30.881 11.6693 31.6667C11.6693 32.4523 11.6693 32.8452 11.9134 33.0893C12.1574 33.3333 12.5503 33.3333 13.336 33.3333H16.6693C17.455 33.3333 17.8478 33.3333 18.0919 33.0893C18.336 32.8452 18.336 32.4523 18.336 31.6667C18.336 30.881 18.336 30.4882 18.0919 30.2441C17.8478 30 17.455 30 16.6693 30H13.336C12.5503 30 12.1574 30 11.9134 30.2441ZM21.669 25C21.669 24.2143 21.669 23.8215 21.9131 23.5774C22.1572 23.3333 22.55 23.3333 23.3357 23.3333H26.669C27.4547 23.3333 27.8475 23.3333 28.0916 23.5774C28.3357 23.8215 28.3357 24.2143 28.3357 25C28.3357 25.7857 28.3357 26.1785 28.0916 26.4226C27.8475 26.6667 27.4547 26.6667 26.669 26.6667H23.3357C22.55 26.6667 22.1572 26.6667 21.9131 26.4226C21.669 26.1785 21.669 25.7857 21.669 25ZM21.9131 30.2441C21.669 30.4882 21.669 30.881 21.669 31.6667C21.669 32.4523 21.669 32.8452 21.9131 33.0893C22.1572 33.3333 22.55 33.3333 23.3357 33.3333H26.669C27.4547 33.3333 27.8475 33.3333 28.0916 33.0893C28.3357 32.8452 28.3357 32.4523 28.3357 31.6667C28.3357 30.881 28.3357 30.4882 28.0916 30.2441C27.8475 30 27.4547 30 26.669 30H23.3357C22.55 30 22.1572 30 21.9131 30.2441Z" fill="#2FBECA"/>
<path d="M11.668 5L11.668 10" stroke="#2FBECA" stroke-width="3.33333" stroke-linecap="round"/>
<path d="M28.332 5L28.332 10" stroke="#2FBECA" stroke-width="3.33333" stroke-linecap="round"/>
</svg>
