<svg width="204" height="202" viewBox="0 0 204 202" fill="none" xmlns="http://www.w3.org/2000/svg">
<circle cx="101" cy="101" r="101" fill="#F5F5F5"/>
<mask id="mask0" mask-type="alpha" maskUnits="userSpaceOnUse" x="2" y="0" width="202" height="202">
<circle cx="103" cy="101" r="101" fill="#F5F5F5"/>
</mask>
<g mask="url(#mask0)">
</g>
<rect x="42" y="53" width="95.5091" height="103" fill="#187186"/>
<path d="M62.6016 115.736H77.6107V145.7H62.6016V115.736Z" fill="white"/>
<path d="M83.2305 99.0742H98.2396V145.7H83.2305V99.0742Z" fill="white"/>
<path d="M103.855 81.0908H118.865V145.614H103.855V81.0908V81.0908Z" fill="white"/>
<circle cx="51.8331" cy="61.8956" r="2.34091" fill="white"/>
<circle cx="61.1964" cy="61.8956" r="2.34091" fill="white"/>
<circle cx="70.5597" cy="61.8956" r="2.34091" fill="white"/>
<path d="M135.198 143.171C134.987 143.088 135.156 142.963 135.072 142.755C135.03 142.546 134.987 142.546 134.945 142.296C134.903 142.046 134.945 142.046 134.903 141.838C134.861 141.629 134.776 141.629 134.734 141.379C134.692 141.171 134.692 141.129 134.65 140.921C134.608 140.712 134.608 140.671 134.565 140.462C134.523 140.254 134.439 140.254 134.397 140.004C134.354 139.796 134.397 139.754 134.312 139.545C134.27 139.337 134.312 139.295 134.27 139.087C134.228 138.879 134.101 138.879 134.059 138.67C134.017 138.462 134.101 138.42 134.059 138.17C134.017 137.962 133.89 137.962 133.848 137.753C133.806 137.545 133.89 137.503 133.848 137.253C133.806 137.045 133.764 137.045 133.721 136.795C133.679 136.586 133.637 136.586 133.595 136.336C133.553 136.128 133.553 136.086 133.51 135.878C133.468 135.669 133.468 135.628 133.426 135.419C133.384 135.211 133.215 135.211 133.173 135.003C133.131 134.794 133.173 134.752 133.088 134.502C133.046 134.294 133.046 134.252 133.004 134.044C132.962 133.836 133.004 133.794 132.962 133.585C132.92 133.377 132.835 133.377 132.793 133.127C132.751 132.919 132.666 132.919 132.624 132.669C132.582 132.46 132.54 132.46 132.498 132.21C132.455 132.002 132.582 131.918 132.54 131.71C132.498 131.502 132.371 131.502 132.329 131.252C132.287 131.043 132.202 131.043 132.16 130.793C132.118 130.585 132.16 130.543 132.076 130.293C132.033 130.085 132.033 130.043 131.991 129.834C131.949 129.626 131.865 129.626 131.822 129.376C131.78 129.168 131.907 129.126 131.822 128.876C131.78 128.667 131.78 128.626 131.696 128.417C131.654 128.209 131.569 128.209 131.527 127.959C131.485 127.751 131.443 127.751 131.4 127.5C131.358 127.292 131.274 127.292 131.232 127.042C131.189 126.834 131.232 126.792 131.189 126.584C131.147 126.375 131.147 126.333 131.063 126.125C131.021 125.917 130.936 125.917 130.852 125.667C130.81 125.458 130.81 125.417 130.767 125.208C130.725 125 130.81 124.958 130.767 124.708C130.725 124.5 130.641 124.5 130.556 124.25C130.514 124.041 130.514 124 130.472 123.791C130.43 123.583 130.472 123.541 130.43 123.333C130.388 123.124 130.388 123.124 130.303 122.874C130.177 122.541 130.092 122.541 130.008 122.291C129.966 122.082 129.923 122.082 129.881 121.832C129.839 121.624 129.966 121.582 129.881 121.332C129.839 121.124 129.797 121.082 129.755 120.874C129.712 120.665 129.628 120.665 129.586 120.415C129.544 120.207 129.628 120.165 129.586 119.915C129.544 119.707 129.459 119.707 129.417 119.457C129.375 119.248 129.333 119.248 129.29 118.998C129.248 118.79 129.206 118.79 129.164 118.581C129.079 118.331 129.079 118.331 128.995 118.123C128.953 117.873 128.911 117.873 128.868 117.664C128.826 117.456 128.868 117.414 128.826 117.206C128.784 116.956 128.784 116.956 128.7 116.706C128.657 116.497 128.615 116.497 128.573 116.247C128.531 116.039 128.573 115.997 128.489 115.747C128.446 115.539 128.362 115.539 128.32 115.33C128.235 115.08 128.024 114.955 128.235 114.83C128.446 114.705 128.404 114.997 128.615 115.122C128.826 115.247 128.826 115.247 129.037 115.414C129.248 115.539 129.248 115.539 129.459 115.664C129.67 115.789 129.67 115.789 129.881 115.956C130.092 116.081 130.05 116.122 130.261 116.247C130.472 116.372 130.514 116.289 130.725 116.414C130.936 116.539 130.936 116.539 131.147 116.664C131.358 116.789 131.358 116.748 131.569 116.873C131.78 116.998 131.738 117.081 131.949 117.206C132.16 117.331 132.118 117.414 132.329 117.539C132.54 117.664 132.54 117.664 132.751 117.789C132.962 117.914 133.004 117.831 133.215 117.956C133.426 118.081 133.342 118.206 133.553 118.331C133.764 118.456 133.806 118.373 134.017 118.54C134.228 118.665 134.27 118.623 134.481 118.748C134.692 118.873 134.608 118.998 134.819 119.123C135.03 119.248 135.03 119.248 135.241 119.415C135.452 119.54 135.494 119.415 135.747 119.582C135.958 119.707 135.958 119.707 136.169 119.873C136.38 119.998 136.38 119.957 136.591 120.123C136.802 120.248 136.76 120.332 136.971 120.457C137.182 120.582 137.14 120.665 137.351 120.79C137.562 120.915 137.604 120.874 137.815 120.999C138.026 121.124 138.026 121.124 138.237 121.249C138.448 121.374 138.406 121.415 138.617 121.54C138.828 121.666 138.87 121.582 139.081 121.707C139.292 121.832 139.292 121.832 139.503 121.957C139.714 122.082 139.672 122.166 139.883 122.291C140.094 122.416 140.051 122.457 140.262 122.582C140.473 122.707 140.431 122.749 140.642 122.874C140.853 122.999 140.895 122.958 141.106 123.083C141.317 123.208 141.275 123.291 141.486 123.416C141.697 123.541 141.697 123.541 141.908 123.708C142.119 123.833 142.119 123.833 142.33 123.958C142.541 124.083 142.583 124 142.794 124.166C143.005 124.291 143.005 124.291 143.216 124.416C143.427 124.541 143.427 124.541 143.638 124.666C143.849 124.791 143.849 124.791 144.06 124.958C144.271 125.083 144.314 125.041 144.525 125.166C144.736 125.292 144.736 125.292 144.947 125.417C145.158 125.542 145.158 125.542 145.369 125.667C145.58 125.792 145.537 125.833 145.748 125.958C145.959 126.083 145.959 126.083 146.17 126.208C146.381 126.333 146.381 126.333 146.592 126.459C146.803 126.584 146.761 126.667 146.972 126.792C147.183 126.917 147.141 126.959 147.352 127.084C147.563 127.209 147.605 127.125 147.816 127.25C148.027 127.375 147.985 127.459 148.196 127.584C148.407 127.709 148.407 127.667 148.618 127.792C148.829 127.917 148.829 127.876 149.04 128.001C149.251 128.126 149.209 128.209 149.42 128.334C149.631 128.459 149.631 128.459 149.842 128.584C150.053 128.709 150.011 128.751 150.222 128.876C150.433 129.001 150.39 129.043 150.601 129.168C150.812 129.293 150.812 129.293 151.023 129.418C151.234 129.543 151.277 129.501 151.488 129.626C151.699 129.751 151.741 129.709 151.952 129.834C152.163 129.959 152.078 130.043 152.289 130.168C152.5 130.293 152.5 130.293 152.711 130.46C152.922 130.585 152.922 130.585 153.133 130.71C153.344 130.835 153.344 130.793 153.555 130.96C153.766 131.085 153.766 131.085 153.977 131.252C154.188 131.377 154.399 131.252 154.357 131.502C154.315 131.752 154.146 131.543 153.893 131.585C153.64 131.668 153.682 131.752 153.429 131.793C153.176 131.877 153.176 131.877 152.965 131.918C152.289 131.71 152.332 131.668 152.078 131.71C151.825 131.793 151.825 131.752 151.614 131.835C151.361 131.918 151.361 131.835 151.108 131.877C150.855 131.96 150.855 131.96 150.644 132.002C150.39 132.085 150.433 132.21 150.179 132.252C149.926 132.335 149.926 132.252 149.673 132.335C149.42 132.418 149.42 132.377 149.167 132.46C148.913 132.544 148.913 132.544 148.702 132.627C148.449 132.71 148.449 132.627 148.196 132.71C147.943 132.794 147.985 132.877 147.732 132.919C147.479 133.002 147.521 133.044 147.268 133.127C147.014 133.21 147.014 133.169 146.761 133.252C146.508 133.335 146.508 133.21 146.255 133.294C146.002 133.377 145.875 133.21 145.748 133.46C145.664 133.669 145.917 133.669 146.044 133.836C146.17 134.002 146.213 134.044 146.339 134.211C146.466 134.377 146.508 134.377 146.677 134.544C146.803 134.711 146.803 134.752 146.93 134.919C147.057 135.086 147.014 135.169 147.141 135.378C147.268 135.544 147.394 135.503 147.521 135.711C147.647 135.878 147.563 135.961 147.732 136.17C147.858 136.336 147.943 136.295 148.112 136.503C148.238 136.67 148.196 136.753 148.323 136.961C148.449 137.128 148.534 137.128 148.66 137.295C148.787 137.462 148.787 137.503 148.913 137.712C149.04 137.878 149.082 137.878 149.251 138.087C149.378 138.253 149.462 138.253 149.589 138.42C149.715 138.587 149.673 138.67 149.842 138.837C149.968 139.004 149.968 139.004 150.137 139.212C150.264 139.379 150.264 139.42 150.39 139.587C150.517 139.754 150.559 139.754 150.728 139.921C150.855 140.087 150.897 140.129 151.023 140.296C151.15 140.462 151.066 140.546 151.234 140.754C151.361 140.921 151.361 140.963 151.488 141.171C151.614 141.338 151.741 141.296 151.867 141.504C151.994 141.671 151.994 141.713 152.121 141.921C152.247 142.088 152.289 142.13 152.416 142.296C152.543 142.463 152.585 142.505 152.711 142.671C152.838 142.838 152.838 142.88 153.007 143.046C153.133 143.213 153.302 143.213 153.26 143.463C153.218 143.713 153.091 143.63 152.88 143.797C152.669 143.922 152.669 143.922 152.458 144.047C152.247 144.172 152.247 144.172 152.036 144.297C151.825 144.422 151.741 144.297 151.53 144.463C151.319 144.589 151.319 144.63 151.108 144.755C150.897 144.88 150.939 144.922 150.728 145.089C150.517 145.214 150.517 145.214 150.306 145.38C150.095 145.505 150.011 145.422 149.842 145.547C149.631 145.672 149.673 145.756 149.462 145.881C149.251 146.006 149.251 146.006 149.04 146.131C148.829 146.256 148.787 146.214 148.576 146.339C148.365 146.464 148.449 146.672 148.196 146.631C147.943 146.589 148.069 146.464 147.943 146.256C147.816 146.089 147.774 146.089 147.605 145.881C147.479 145.714 147.479 145.672 147.352 145.464C147.225 145.297 147.225 145.297 147.057 145.089C146.93 144.922 146.846 144.964 146.677 144.755C146.55 144.589 146.677 144.505 146.508 144.297C146.381 144.13 146.255 144.172 146.128 143.963C146.044 143.797 146.002 143.797 145.875 143.63C145.748 143.463 145.748 143.463 145.58 143.255C145.453 143.088 145.537 142.963 145.411 142.796C145.284 142.63 145.2 142.63 145.073 142.463C144.947 142.296 144.862 142.296 144.736 142.13C144.609 141.963 144.651 141.879 144.525 141.713C144.398 141.546 144.398 141.504 144.271 141.296C144.145 141.129 144.103 141.129 143.976 140.921C143.849 140.754 143.849 140.754 143.681 140.546C143.554 140.379 143.512 140.379 143.385 140.171C143.259 140.004 143.174 140.046 143.048 139.837C142.921 139.67 143.005 139.545 142.879 139.379C142.752 139.212 142.668 139.254 142.499 139.045C142.372 138.879 142.372 138.837 142.246 138.67C142.119 138.504 142.077 138.504 141.95 138.295C141.824 138.128 141.824 138.087 141.697 137.878C141.571 137.712 141.571 137.67 141.444 137.503C141.317 137.337 141.275 137.295 141.149 137.128C141.022 136.961 141.106 136.836 140.895 136.795C140.642 136.795 140.769 136.92 140.6 137.128C140.431 137.295 140.473 137.337 140.305 137.503C140.136 137.67 140.136 137.628 139.967 137.837C139.798 138.003 139.756 138.003 139.629 138.17C139.461 138.337 139.461 138.337 139.292 138.504C139.123 138.67 139.165 138.67 138.996 138.879C138.828 139.045 138.912 139.129 138.743 139.295C138.574 139.462 138.574 139.462 138.406 139.629C138.237 139.796 138.152 139.754 138.026 139.921C137.857 140.087 137.899 140.129 137.73 140.296C137.562 140.462 137.519 140.421 137.351 140.629C137.182 140.796 137.308 140.879 137.14 141.088C136.971 141.254 136.929 141.254 136.802 141.421C136.633 141.588 136.591 141.546 136.422 141.713C136.253 141.879 136.296 141.921 136.127 142.088C135.958 142.255 136 142.296 135.831 142.505C135.663 142.671 135.663 142.63 135.536 142.88C135.452 143.088 135.409 143.213 135.198 143.171Z" fill="#2FBECA"/>
</svg>
