<svg width="40" height="40" viewBox="0 0 40 40" fill="none" xmlns="http://www.w3.org/2000/svg">
<g id="Team Management">
<g id="3 User">
<path id="3 Friends" fill-rule="evenodd" clip-rule="evenodd" d="M26.9317 13.7215C26.9317 17.6376 23.8097 20.7778 19.9162 20.7778C16.0227 20.7778 12.9007 17.6376 12.9007 13.7215C12.9007 9.80386 16.0227 6.66675 19.9162 6.66675C23.8097 6.66675 26.9317 9.80386 26.9317 13.7215ZM19.9167 33.3333C14.198 33.3333 9.31512 32.4267 9.31512 28.8003C9.31512 25.1723 14.1667 24.2327 19.9167 24.2327C25.6353 24.2327 30.5182 25.1393 30.5182 28.7672C30.5182 32.3937 25.6667 33.3333 19.9167 33.3333ZM29.9301 13.8486C29.9301 15.845 29.3346 17.7047 28.29 19.2508C28.1825 19.4099 28.2781 19.6245 28.4676 19.6576C28.7287 19.7026 28.9989 19.7281 29.2734 19.7356C32.0119 19.8077 34.4698 18.035 35.1488 15.3662C36.1546 11.402 33.2013 7.8431 29.4406 7.8431C29.0317 7.8431 28.6407 7.88663 28.2601 7.96468C28.2079 7.97669 28.1527 8.0007 28.1229 8.04724C28.087 8.10427 28.1139 8.18083 28.1497 8.23036C29.2794 9.82293 29.9301 11.7652 29.9301 13.8486ZM34.465 22.5209C36.3051 22.8826 37.5153 23.6211 38.0168 24.6943C38.4406 25.5754 38.4406 26.5976 38.0168 27.4772C37.2497 29.1418 34.7769 29.6762 33.8158 29.8143C33.6174 29.8443 33.4577 29.6717 33.4786 29.4721C33.9696 24.8595 30.0641 22.6725 29.0538 22.1696C29.0105 22.1471 29.0016 22.1126 29.006 22.0916C29.009 22.0766 29.0269 22.0526 29.0598 22.0481C31.246 22.0075 33.5965 22.3077 34.465 22.5209ZM10.7299 19.7356C11.0045 19.7281 11.2731 19.7041 11.5358 19.6575C11.7253 19.6245 11.8208 19.4099 11.7134 19.2508C10.6687 17.7047 10.0733 15.845 10.0733 13.8486C10.0733 11.7652 10.7239 9.82292 11.8536 8.23034C11.8894 8.18081 11.9148 8.10426 11.8805 8.04722C11.8506 8.00219 11.7939 7.97667 11.7432 7.96466C11.3612 7.88661 10.9702 7.84308 10.5613 7.84308C6.80058 7.84308 3.84724 11.402 4.85457 15.3662C5.53358 18.0349 7.99146 19.8076 10.7299 19.7356ZM10.9962 22.0909C11.0007 22.1134 10.9917 22.1464 10.9499 22.1705C9.93813 22.6733 6.03268 24.8603 6.52366 29.4714C6.54456 29.6725 6.38637 29.8436 6.18789 29.8151C5.22682 29.677 2.75402 29.1427 1.98696 27.478C1.56164 26.5969 1.56164 25.5763 1.98696 24.6952C2.48838 23.6219 3.69718 22.8834 5.53723 22.5202C6.40726 22.3086 8.7562 22.0084 10.944 22.0489C10.9768 22.0534 10.9932 22.0774 10.9962 22.0909Z" fill="#2FBECA"/>
</g>
</g>
</svg>
