<svg width="40" height="40" viewBox="0 0 40 40" fill="none" xmlns="http://www.w3.org/2000/svg">
<path d="M20.026 5C10.5963 5 3.02605 11.2422 3.02605 18.8125C3.02605 22.1328 4.42055 25.1211 6.81125 27.5117C5.94795 30.8984 3.15885 33.8203 3.15885 33.8867C3.02605 34.0195 2.95965 34.2852 3.02605 34.4844C3.15885 34.6836 3.29165 34.75 3.55725 34.75C7.94015 34.75 11.2604 32.6914 12.8541 31.3633C15.0455 32.1602 17.4362 32.625 20.026 32.625C29.3893 32.625 37.026 26.4492 37.026 18.8125C37.026 11.2422 29.3893 5 20.026 5ZM22.151 22.5312C22.151 22.8633 21.8854 23.0625 21.6197 23.0625H12.0573C11.7253 23.0625 11.526 22.8633 11.526 22.5312V21.4688C11.526 21.2031 11.7253 20.9375 12.0573 20.9375H21.6197C21.8854 20.9375 22.151 21.2031 22.151 21.4688V22.5312ZM28.526 16.1562C28.526 16.4883 28.2604 16.6875 27.9947 16.6875H12.0573C11.7253 16.6875 11.526 16.4883 11.526 16.1562V15.0938C11.526 14.8281 11.7253 14.5625 12.0573 14.5625H27.9947C28.2604 14.5625 28.526 14.8281 28.526 15.0938V16.1562Z" fill="#2FBECA"/>
</svg>
