<?xml version="1.0" encoding="UTF-8"?>
<svg width="191px" height="90px" viewBox="0 0 191 90" version="1.1" xmlns="http://www.w3.org/2000/svg" xmlns:xlink="http://www.w3.org/1999/xlink">
    <title>Artboard</title>
    <g id="Artboard" stroke="none" stroke-width="1" fill="none" fill-rule="evenodd">
        <g id="logo-001" transform="translate(6.000000, 7.000000)" fill-rule="nonzero">
            <path d="M0,13.2866 C0,11.1845 0.448634,9.30677 1.34575,7.65359 C2.26248,5.98006 3.50101,4.684 5.0612,3.76557 C6.641,2.82678 8.40614,2.35731 10.3565,2.35731 C12.6384,2.35731 14.6376,2.9696 16.3538,4.19417 C18.0703,5.41875 19.2697,7.11279 19.9523,9.27615 L15.2421,9.27615 C14.774,8.25562 14.111,7.49027 13.2528,6.98008 C12.4141,6.46989 11.4389,6.21472 10.3272,6.21472 C9.13752,6.21472 8.07452,6.51061 7.13835,7.10254 C6.22177,7.67395 5.50004,8.49044 4.97344,9.55168 C4.46644,10.6129 4.21279,11.858 4.21279,13.2866 C4.21279,14.6949 4.46644,15.9398 4.97344,17.0216 C5.50004,18.0828 6.22177,18.9094 7.13835,19.5014 C8.07452,20.0728 9.13752,20.3586 10.3272,20.3586 C11.4389,20.3586 12.4141,20.1034 13.2528,19.5932 C14.111,19.0625 14.774,18.287 15.2421,17.2665 L19.9523,17.2665 C19.2697,19.4504 18.0703,21.1545 16.3538,22.3791 C14.657,23.5833 12.658,24.1854 10.3565,24.1854 C8.40614,24.1854 6.641,23.7261 5.0612,22.8077 C3.50101,21.8689 2.26248,20.5729 1.34575,18.9197 C0.448634,17.2665 0,15.3888 0,13.2866 Z M22.3974,15.4603 C22.3974,13.7459 22.7193,12.2254 23.3629,10.8987 C24.026,9.57204 24.9134,8.55167 26.0251,7.83728 C27.1563,7.12289 28.4143,6.76578 29.7991,6.76578 C31.0084,6.76578 32.0616,7.02095 32.9587,7.53114 C33.8754,8.04132 34.6068,8.68423 35.1529,9.45984 L35.1529,7.04131 L39.2779,7.04131 L39.2779,24.0017 L35.1529,24.0017 L35.1529,21.5219 C34.6263,22.3179 33.8949,22.9811 32.9587,23.5118 C32.042,24.022 30.9791,24.2772 29.7698,24.2772 C28.4046,24.2772 27.1563,23.9098 26.0251,23.1751 C24.9134,22.4403 24.026,21.4097 23.3629,20.083 C22.7193,18.736 22.3974,17.195 22.3974,15.4603 Z M35.1529,15.5215 C35.1529,14.4806 34.9579,13.5928 34.5677,12.858 C34.1776,12.1029 33.651,11.5314 32.9879,11.1436 C32.3249,10.7354 31.6129,10.5313 30.8523,10.5313 C30.0917,10.5313 29.3895,10.7253 28.7459,11.113 C28.1023,11.5007 27.5757,12.0723 27.1661,12.8274 C26.776,13.5622 26.581,14.4397 26.581,15.4603 C26.581,16.4808 26.776,17.3787 27.1661,18.1543 C27.5757,18.9094 28.1023,19.4911 28.7459,19.8993 C29.409,20.3076 30.1111,20.5116 30.8523,20.5116 C31.6129,20.5116 32.3249,20.3177 32.9879,19.93 C33.651,19.5217 34.1776,18.9503 34.5677,18.2156 C34.9579,17.4604 35.1529,16.5624 35.1529,15.5215 Z M47.3739,9.49046 C47.9005,8.71484 48.6221,8.07194 49.5388,7.56175 C50.475,7.03105 51.538,6.76578 52.7277,6.76578 C54.1125,6.76578 55.3607,7.12289 56.4724,7.83728 C57.6035,8.55167 58.491,9.57204 59.1346,10.8987 C59.7977,12.2049 60.1293,13.7255 60.1293,15.4603 C60.1293,17.195 59.7977,18.736 59.1346,20.083 C58.491,21.4097 57.6035,22.4403 56.4724,23.1751 C55.3607,23.9098 54.1125,24.2772 52.7277,24.2772 C51.538,24.2772 50.4848,24.022 49.5681,23.5118 C48.671,23.0017 47.9396,22.3587 47.3739,21.5831 L47.3739,32.0839 L43.2781,32.0839 L43.2781,7.04131 L47.3739,7.04131 L47.3739,9.49046 Z M55.9458,15.4603 C55.9458,14.4397 55.741,13.5622 55.3314,12.8274 C54.9413,12.0723 54.4147,11.5007 53.7516,11.113 C53.108,10.7253 52.4059,10.5313 51.6452,10.5313 C50.904,10.5313 50.2019,10.7354 49.5388,11.1436 C48.8952,11.5314 48.3686,12.1029 47.959,12.858 C47.5689,13.6131 47.3739,14.501 47.3739,15.5215 C47.3739,16.542 47.5689,17.4298 47.959,18.1849 C48.3686,18.94 48.8952,19.5217 49.5388,19.93 C50.2019,20.3177 50.904,20.5116 51.6452,20.5116 C52.4059,20.5116 53.108,20.3076 53.7516,19.8993 C54.4147,19.4911 54.9413,18.9094 55.3314,18.1543 C55.741,17.3992 55.9458,16.5011 55.9458,15.4603 Z M67.8743,10.562 L67.8743,18.7666 C67.8743,19.338 68.001,19.7565 68.2546,20.0218 C68.5275,20.2667 68.9762,20.3892 69.6003,20.3892 L71.502,20.3892 L71.502,24.0017 L68.9275,24.0017 C65.4753,24.0017 63.7493,22.2464 63.7493,18.736 L63.7493,10.562 L61.8184,10.562 L61.8184,7.04131 L63.7493,7.04131 L63.7493,2.84714 L67.8743,2.84714 L67.8743,7.04131 L71.502,7.04131 L71.502,10.562 L67.8743,10.562 Z M76.525,5.02076 C75.8034,5.02076 75.1987,4.7861 74.7112,4.31663 C74.2431,3.8268 74.009,3.22477 74.009,2.51038 C74.009,1.79599 74.2431,1.20422 74.7112,0.734746 C75.1987,0.244916 75.8034,0 76.525,0 C77.2466,0 77.8415,0.244916 78.3096,0.734746 C78.7971,1.20422 79.041,1.79599 79.041,2.51038 C79.041,3.22477 78.7971,3.8268 78.3096,4.31663 C77.8415,4.7861 77.2466,5.02076 76.525,5.02076 Z M78.5436,7.04131 L78.5436,24.0017 L74.4479,24.0017 L74.4479,7.04131 L78.5436,7.04131 Z M89.3483,20.0524 L93.444,7.04131 L97.8031,7.04131 L91.8057,24.0017 L86.8323,24.0017 L80.8642,7.04131 L85.2525,7.04131 L89.3483,20.0524 Z M99.0503,15.4603 C99.0503,13.7459 99.3721,12.2254 100.016,10.8987 C100.679,9.57204 101.566,8.55167 102.678,7.83728 C103.809,7.12289 105.067,6.76578 106.452,6.76578 C107.661,6.76578 108.714,7.02095 109.612,7.53114 C110.528,8.04132 111.26,8.68423 111.806,9.45984 L111.806,7.04131 L115.931,7.04131 L115.931,24.0017 L111.806,24.0017 L111.806,21.5219 C111.279,22.3179 110.548,22.9811 109.612,23.5118 C108.695,24.022 107.632,24.2772 106.423,24.2772 C105.057,24.2772 103.809,23.9098 102.678,23.1751 C101.566,22.4403 100.679,21.4097 100.016,20.083 C99.3721,18.736 99.0503,17.195 99.0503,15.4603 Z M111.806,15.5215 C111.806,14.4806 111.611,13.5928 111.221,12.858 C110.831,12.1029 110.304,11.5314 109.641,11.1436 C108.978,10.7354 108.266,10.5313 107.505,10.5313 C106.745,10.5313 106.043,10.7253 105.399,11.113 C104.755,11.5007 104.229,12.0723 103.819,12.8274 C103.429,13.5622 103.234,14.4397 103.234,15.4603 C103.234,16.4808 103.429,17.3787 103.819,18.1543 C104.229,18.9094 104.755,19.4911 105.399,19.8993 C106.062,20.3076 106.764,20.5116 107.505,20.5116 C108.266,20.5116 108.978,20.3177 109.641,19.93 C110.304,19.5217 110.831,18.9503 111.221,18.2156 C111.611,17.4604 111.806,16.5624 111.806,15.5215 Z M124.699,10.562 L124.699,18.7666 C124.699,19.338 124.826,19.7565 125.079,20.0218 C125.353,20.2667 125.802,20.3892 126.425,20.3892 L128.327,20.3892 L128.327,24.0017 L125.752,24.0017 C122.3,24.0017 120.574,22.2464 120.574,18.736 L120.574,10.562 L118.643,10.562 L118.643,7.04131 L120.574,7.04131 L120.574,2.84714 L124.699,2.84714 L124.699,7.04131 L128.327,7.04131 L128.327,10.562 L124.699,10.562 Z M146.339,15.1541 C146.339,15.7664 146.301,16.3175 146.222,16.8073 L134.374,16.8073 C134.472,18.0319 134.881,18.9912 135.603,19.685 C136.325,20.3789 137.212,20.7259 138.265,20.7259 C139.786,20.7259 140.869,20.0422 141.512,18.6748 L145.93,18.6748 C145.462,20.3076 144.565,21.6546 143.238,22.7159 C141.913,23.7568 140.283,24.2772 138.353,24.2772 C136.793,24.2772 135.389,23.9201 134.14,23.2057 C132.911,22.4709 131.946,21.4403 131.243,20.1136 C130.562,18.787 130.22,17.2563 130.22,15.5215 C130.22,13.7662 130.562,12.2254 131.243,10.8987 C131.927,9.57204 132.882,8.55167 134.111,7.83728 C135.339,7.12289 136.754,6.76578 138.353,6.76578 C139.894,6.76578 141.269,7.11279 142.478,7.80667 C143.706,8.50054 144.653,9.49046 145.315,10.7763 C145.999,12.0417 146.339,13.5009 146.339,15.1541 Z M142.097,13.9295 C142.078,12.8274 141.698,11.9499 140.956,11.2967 C140.216,10.6232 139.309,10.2864 138.236,10.2864 C137.222,10.2864 136.363,10.6129 135.661,11.2661 C134.979,11.8987 134.56,12.7866 134.403,13.9295 L142.097,13.9295 Z" id="Shape" fill="#164854"></path>
            <path d="M154.683,2.4183 L154.683,24.0014 L148.949,24.0014 L148.949,2.4183 L154.683,2.4183 Z M172.079,27.6139 L169.797,24.032 C169.153,24.1545 168.501,24.2157 167.837,24.2157 C165.906,24.2157 164.131,23.7463 162.512,22.8075 C160.894,21.8482 159.607,20.5317 158.65,18.8582 C157.714,17.1642 157.246,15.256 157.246,13.1333 C157.246,11.0107 157.714,9.11259 158.65,7.43906 C159.607,5.74501 160.894,4.42859 162.512,3.4898 C164.131,2.55101 165.906,2.08154 167.837,2.08154 C169.788,2.08154 171.562,2.55101 173.161,3.4898 C174.78,4.42859 176.057,5.74501 176.994,7.43906 C177.93,9.11259 178.398,11.0107 178.398,13.1333 C178.398,14.909 178.057,16.5519 177.374,18.0622 C176.692,19.5521 175.756,20.7972 174.565,21.7972 L178.924,27.6139 L172.079,27.6139 Z M163.097,13.1333 C163.097,14.8274 163.517,16.1744 164.355,17.1744 C165.195,18.1541 166.355,18.6439 167.837,18.6439 C169.299,18.6439 170.451,18.1438 171.289,17.1438 C172.147,16.1438 172.576,14.8069 172.576,13.1333 C172.576,11.4189 172.147,10.0719 171.289,9.09223 C170.451,8.09221 169.299,7.59213 167.837,7.59213 C166.355,7.59213 165.195,8.09221 164.355,9.09223 C163.517,10.0719 163.097,11.4189 163.097,13.1333 Z" id="Shape" fill="#47B6A1"></path>
        </g>
        <g id="Logo-000" transform="translate(6.000000, 51.000000)" fill-rule="nonzero">
            <path d="M0,13.7446 C0,11.6425 0.448634,9.76478 1.34575,8.1116 C2.26248,6.43807 3.50101,5.14201 5.0612,4.22358 C6.641,3.28479 8.40614,2.81531 10.3565,2.81531 C12.6384,2.81531 14.6376,3.4276 16.3538,4.65218 C18.0703,5.87675 19.2697,7.5708 19.9523,9.73416 L15.2421,9.73416 C14.774,8.71363 14.111,7.94827 13.2528,7.43809 C12.4141,6.9279 11.4389,6.67273 10.3272,6.67273 C9.13752,6.67273 8.07452,6.96861 7.13835,7.56054 C6.22177,8.13196 5.50004,8.94844 4.97344,10.0097 C4.46644,11.0709 4.21279,12.316 4.21279,13.7446 C4.21279,15.1529 4.46644,16.3978 4.97344,17.4796 C5.50004,18.5408 6.22177,19.3674 7.13835,19.9594 C8.07452,20.5308 9.13752,20.8166 10.3272,20.8166 C11.4389,20.8166 12.4141,20.5614 13.2528,20.0512 C14.111,19.5205 14.774,18.745 15.2421,17.7245 L19.9523,17.7245 C19.2697,19.9084 18.0703,21.6125 16.3538,22.8371 C14.657,24.0413 12.658,24.6434 10.3565,24.6434 C8.40614,24.6434 6.641,24.1841 5.0612,23.2657 C3.50101,22.3269 2.26248,21.0309 1.34575,19.3777 C0.448634,17.7245 0,15.8468 0,13.7446 Z M22.3974,15.9183 C22.3974,14.2039 22.7193,12.6834 23.3629,11.3567 C24.026,10.0301 24.9134,9.00968 26.0251,8.29529 C27.1563,7.5809 28.4143,7.22378 29.7991,7.22378 C31.0084,7.22378 32.0616,7.47896 32.9587,7.98914 C33.8754,8.49933 34.6068,9.14223 35.1529,9.91785 L35.1529,7.49931 L39.2779,7.49931 L39.2779,24.4597 L35.1529,24.4597 L35.1529,21.9799 C34.6263,22.7759 33.8949,23.4391 32.9587,23.9698 C32.042,24.48 30.9791,24.7352 29.7698,24.7352 C28.4046,24.7352 27.1563,24.3678 26.0251,23.6331 C24.9134,22.8983 24.026,21.8677 23.3629,20.541 C22.7193,19.194 22.3974,17.653 22.3974,15.9183 Z M35.1529,15.9795 C35.1529,14.9386 34.9579,14.0508 34.5677,13.316 C34.1776,12.5609 33.651,11.9894 32.9879,11.6016 C32.3249,11.1934 31.6129,10.9894 30.8523,10.9894 C30.0917,10.9894 29.3895,11.1833 28.7459,11.571 C28.1023,11.9588 27.5757,12.5303 27.1661,13.2854 C26.776,14.0202 26.581,14.8977 26.581,15.9183 C26.581,16.9388 26.776,17.8367 27.1661,18.6123 C27.5757,19.3674 28.1023,19.9491 28.7459,20.3574 C29.409,20.7656 30.1111,20.9696 30.8523,20.9696 C31.6129,20.9696 32.3249,20.7757 32.9879,20.388 C33.651,19.9797 34.1776,19.4083 34.5677,18.6736 C34.9579,17.9185 35.1529,17.0204 35.1529,15.9795 Z M47.3739,9.94846 C47.9005,9.17285 48.6221,8.52995 49.5388,8.01976 C50.475,7.48906 51.538,7.22378 52.7277,7.22378 C54.1125,7.22378 55.3607,7.5809 56.4724,8.29529 C57.6035,9.00968 58.491,10.0301 59.1346,11.3567 C59.7977,12.6629 60.1293,14.1835 60.1293,15.9183 C60.1293,17.653 59.7977,19.194 59.1346,20.541 C58.491,21.8677 57.6035,22.8983 56.4724,23.6331 C55.3607,24.3678 54.1125,24.7352 52.7277,24.7352 C51.538,24.7352 50.4848,24.48 49.5681,23.9698 C48.671,23.4597 47.9396,22.8168 47.3739,22.0411 L47.3739,32.5419 L43.2781,32.5419 L43.2781,7.49931 L47.3739,7.49931 L47.3739,9.94846 Z M55.9458,15.9183 C55.9458,14.8977 55.741,14.0202 55.3314,13.2854 C54.9413,12.5303 54.4147,11.9588 53.7516,11.571 C53.108,11.1833 52.4059,10.9894 51.6452,10.9894 C50.904,10.9894 50.2019,11.1934 49.5388,11.6016 C48.8952,11.9894 48.3686,12.5609 47.959,13.316 C47.5689,14.0711 47.3739,14.959 47.3739,15.9795 C47.3739,17 47.5689,17.8878 47.959,18.6429 C48.3686,19.3981 48.8952,19.9797 49.5388,20.388 C50.2019,20.7757 50.904,20.9696 51.6452,20.9696 C52.4059,20.9696 53.108,20.7656 53.7516,20.3574 C54.4147,19.9491 54.9413,19.3674 55.3314,18.6123 C55.741,17.8572 55.9458,16.9592 55.9458,15.9183 Z M67.8743,11.02 L67.8743,19.2246 C67.8743,19.796 68.001,20.2145 68.2546,20.4798 C68.5275,20.7247 68.9762,20.8472 69.6003,20.8472 L71.502,20.8472 L71.502,24.4597 L68.9275,24.4597 C65.4753,24.4597 63.7493,22.7044 63.7493,19.194 L63.7493,11.02 L61.8184,11.02 L61.8184,7.49931 L63.7493,7.49931 L63.7493,3.30515 L67.8743,3.30515 L67.8743,7.49931 L71.502,7.49931 L71.502,11.02 L67.8743,11.02 Z M76.525,5.47877 C75.8034,5.47877 75.1987,5.24411 74.7112,4.77464 C74.2431,4.28481 74.009,3.68277 74.009,2.96839 C74.009,2.254 74.2431,1.66222 74.7112,1.19275 C75.1987,0.702924 75.8034,0.458008 76.525,0.458008 C77.2466,0.458008 77.8415,0.702924 78.3096,1.19275 C78.7971,1.66222 79.041,2.254 79.041,2.96839 C79.041,3.68277 78.7971,4.28481 78.3096,4.77464 C77.8415,5.24411 77.2466,5.47877 76.525,5.47877 Z M78.5436,7.49931 L78.5436,24.4597 L74.4479,24.4597 L74.4479,7.49931 L78.5436,7.49931 Z M89.3483,20.5104 L93.444,7.49931 L97.8031,7.49931 L91.8057,24.4597 L86.8323,24.4597 L80.8642,7.49931 L85.2525,7.49931 L89.3483,20.5104 Z M99.0503,15.9183 C99.0503,14.2039 99.3721,12.6834 100.016,11.3567 C100.679,10.0301 101.566,9.00968 102.678,8.29529 C103.809,7.5809 105.067,7.22378 106.452,7.22378 C107.661,7.22378 108.714,7.47896 109.612,7.98914 C110.528,8.49933 111.26,9.14223 111.806,9.91785 L111.806,7.49931 L115.931,7.49931 L115.931,24.4597 L111.806,24.4597 L111.806,21.9799 C111.279,22.7759 110.548,23.4391 109.612,23.9698 C108.695,24.48 107.632,24.7352 106.423,24.7352 C105.057,24.7352 103.809,24.3678 102.678,23.6331 C101.566,22.8983 100.679,21.8677 100.016,20.541 C99.3721,19.194 99.0503,17.653 99.0503,15.9183 Z M111.806,15.9795 C111.806,14.9386 111.611,14.0508 111.221,13.316 C110.831,12.5609 110.304,11.9894 109.641,11.6016 C108.978,11.1934 108.266,10.9894 107.505,10.9894 C106.745,10.9894 106.043,11.1833 105.399,11.571 C104.755,11.9588 104.229,12.5303 103.819,13.2854 C103.429,14.0202 103.234,14.8977 103.234,15.9183 C103.234,16.9388 103.429,17.8367 103.819,18.6123 C104.229,19.3674 104.755,19.9491 105.399,20.3574 C106.062,20.7656 106.764,20.9696 107.505,20.9696 C108.266,20.9696 108.978,20.7757 109.641,20.388 C110.304,19.9797 110.831,19.4083 111.221,18.6736 C111.611,17.9185 111.806,17.0204 111.806,15.9795 Z M124.699,11.02 L124.699,19.2246 C124.699,19.796 124.826,20.2145 125.079,20.4798 C125.353,20.7247 125.802,20.8472 126.425,20.8472 L128.327,20.8472 L128.327,24.4597 L125.752,24.4597 C122.3,24.4597 120.574,22.7044 120.574,19.194 L120.574,11.02 L118.643,11.02 L118.643,7.49931 L120.574,7.49931 L120.574,3.30515 L124.699,3.30515 L124.699,7.49931 L128.327,7.49931 L128.327,11.02 L124.699,11.02 Z M146.339,15.6121 C146.339,16.2244 146.301,16.7755 146.222,17.2653 L134.374,17.2653 C134.472,18.4899 134.881,19.4492 135.603,20.1431 C136.325,20.8369 137.212,21.1839 138.265,21.1839 C139.786,21.1839 140.869,20.5002 141.512,19.1328 L145.93,19.1328 C145.462,20.7656 144.565,22.1126 143.238,23.1739 C141.913,24.2148 140.283,24.7352 138.353,24.7352 C136.793,24.7352 135.389,24.3781 134.14,23.6637 C132.911,22.929 131.946,21.8983 131.243,20.5716 C130.562,19.245 130.22,17.7143 130.22,15.9795 C130.22,14.2242 130.562,12.6834 131.243,11.3567 C131.927,10.0301 132.882,9.00968 134.111,8.29529 C135.339,7.5809 136.754,7.22378 138.353,7.22378 C139.894,7.22378 141.269,7.5708 142.478,8.26467 C143.706,8.95855 144.653,9.94847 145.315,11.2343 C145.999,12.4997 146.339,13.9589 146.339,15.6121 Z M142.097,14.3875 C142.078,13.2854 141.698,12.4079 140.956,11.7547 C140.216,11.0812 139.309,10.7444 138.236,10.7444 C137.222,10.7444 136.363,11.0709 135.661,11.7241 C134.979,12.3567 134.56,13.2446 134.403,14.3875 L142.097,14.3875 Z" id="Shape" fill="#164854"></path>
            <path d="M154.683,2.87655 L154.683,24.4597 L148.949,24.4597 L148.949,2.87655 L154.683,2.87655 Z M172.079,28.0722 L169.797,24.4903 C169.153,24.6128 168.501,24.674 167.837,24.674 C165.906,24.674 164.131,24.2045 162.512,23.2657 C160.894,22.3064 159.607,20.99 158.65,19.3165 C157.714,17.6224 157.246,15.7142 157.246,13.5916 C157.246,11.4689 157.714,9.57084 158.65,7.89731 C159.607,6.20326 160.894,4.88685 162.512,3.94806 C164.131,3.00927 165.906,2.53979 167.837,2.53979 C169.788,2.53979 171.562,3.00927 173.161,3.94806 C174.78,4.88685 176.057,6.20326 176.994,7.89731 C177.93,9.57084 178.398,11.4689 178.398,13.5916 C178.398,15.3672 178.057,17.0101 177.374,18.5205 C176.692,20.0103 175.756,21.2554 174.565,22.2554 L178.924,28.0722 L172.079,28.0722 Z M163.097,13.5916 C163.097,15.2856 163.517,16.6327 164.355,17.6327 C165.195,18.6123 166.355,19.1022 167.837,19.1022 C169.299,19.1022 170.451,18.6021 171.289,17.6021 C172.147,16.602 172.576,15.2651 172.576,13.5916 C172.576,11.8772 172.147,10.5301 171.289,9.55048 C170.451,8.55047 169.299,8.05038 167.837,8.05038 C166.355,8.05038 165.195,8.55047 164.355,9.55048 C163.517,10.5301 163.097,11.8772 163.097,13.5916 Z" id="Shape" fill="#FFFFFF"></path>
        </g>
    </g>
</svg>