<?xml version="1.0" encoding="UTF-8"?>
<svg width="873px" height="342px" viewBox="0 0 873 342" version="1.1" xmlns="http://www.w3.org/2000/svg" xmlns:xlink="http://www.w3.org/1999/xlink">
    <title>Slice</title>
    <g id="Page-1" stroke="none" stroke-width="1" fill="none" fill-rule="evenodd">
        <g id="planview-inc-logo-vector" transform="translate(136.000000, 88.000000)" fill-rule="nonzero">
            <path d="M589.6,32.1 C582.2,30.2 575.3,28.6 575.3,28.6 L534.9,53.2 L596.2,42.3 C599,41.8 600.2,42 600.2,42 C600.2,42 598.1,34.3 589.6,32.1" id="path30" fill="#EE2C21"></path>
            <path d="M473.8,3.7 C467.1,2 466.1,0.5 466.1,0.5 C466.1,0.5 465.4,4.2 476.3,11.9 C487.2,19.6 501,29.3 515.6,39.6 C526.3,47.1 534.9,53.2 534.9,53.2 L575.3,28.6 C575.3,28.6 480.5,5.4 473.8,3.7" id="path32" fill="#A91A2D"></path>
            <path d="M496.8,52.9 C487.8,59.4 485.4,56.9 485.4,56.9 C485.4,56.9 487.1,61.7 495.5,60.3 C503.9,58.8 534.9,53.3 534.9,53.3 C534.9,53.3 526.3,47.3 515.6,39.7 C512.5,41.9 505.8,46.4 496.8,52.9" id="path34" fill="#63121D"></path>
            <path d="M15.4,91.1 L15.4,128.1 C17,128.6 18.6,128.9 20,129.1 C21.5,129.3 22.9,129.4 24.3,129.4 C30.2,129.4 34.9,127.5 38.4,123.8 C41.9,120 43.7,115 43.7,108.7 C43.7,102.9 42.1,98.1 38.8,94.6 C35.5,91.1 31.2,89.2 26,89.2 C24.3,89.2 22.6,89.3 20.9,89.6 C19.1,90 17.3,90.4 15.4,91.1 Z M15.4,139.3 L15.4,163 L0.3,165.7 L0.3,80.4 L15.4,80.4 C17.7,79.6 19.9,79 22.1,78.6 C24.2,78.2 26.4,78 28.6,78 C37.7,78 45,80.8 50.7,86.6 C56.4,92.4 59.2,99.7 59.2,108.8 C59.2,118.4 56.1,126 50,131.6 C43.9,137.3 35.7,140.1 25.3,140.1 C24,140.1 22.6,140 21.1,139.9 C19.6,139.9 17.7,139.7 15.4,139.3 M87.9,137.6 L72.5,137.6 L72.5,49.5 L87.9,46.8 L87.9,137.6 M144.4,124.5 L144.4,92.6 C142.3,91.5 140.3,90.6 138.5,90.1 C136.7,89.5 135.1,89.3 133.7,89.3 C128.4,89.3 124.1,91.2 120.8,95.1 C117.5,99 115.9,104.2 115.9,110.6 C115.9,116.2 117.3,120.6 120.2,123.8 C123.1,127 127.1,128.6 132.1,128.6 C133.9,128.6 135.8,128.2 137.8,127.6 C139.9,126.8 142.1,125.8 144.4,124.5 Z M147.7,140.3 L146.7,135.9 C143.5,137.3 140.5,138.4 137.8,139.1 C135.1,139.8 132.5,140.2 130,140.2 C121.2,140.2 114.2,137.4 108.8,131.9 C103.4,126.3 100.7,119.1 100.7,110.1 C100.7,101.1 103.6,93.6 109.5,87.4 C115.4,81.3 122.4,78.2 130.7,78.2 C133,78.2 135.4,78.5 137.9,79.1 C140.4,79.7 143,80.6 145.8,81.8 L159.4,80.4 L159.4,120.3 C159.4,123.3 159.6,126.3 159.9,129.2 C160.2,132.1 160.7,134.9 161.3,137.6 L147.7,140.3 M191.8,137.6 L176.7,137.6 L176.7,80.4 L190.7,80.4 L190.7,90 C193.8,86.2 197.2,83.4 200.9,81.6 C204.6,79.8 208.6,78.8 212.9,78.8 C219.4,78.8 224.3,80.5 227.7,84 C231.1,87.5 232.7,92.5 232.7,99.2 L232.7,137.6 L217.6,137.6 L217.6,102.5 C217.6,99 216.7,96.3 215,94.5 C213.3,92.7 210.7,91.8 207.3,91.8 C202.3,91.8 198.5,93 195.8,95.4 C193.1,97.8 191.8,101.2 191.8,105.6 L191.8,137.6 M270.7,141.2 L269,141.2 L241.8,80.4 L258.1,80.4 L271.6,112 L286.4,80.4 L299.4,80.4 L270.7,141.2 M324.4,137.6 L309,137.6 L309,80.4 L324.4,77.7 L324.4,137.6 Z M307.6,59.2 C307.6,56.7 308.5,54.5 310.2,52.7 C312,50.9 314.1,50 316.6,50 C319.1,50 321.3,50.9 323,52.7 C324.8,54.5 325.6,56.7 325.6,59.2 C325.6,61.7 324.7,63.8 323,65.6 C321.2,67.3 319.1,68.2 316.6,68.2 C314.1,68.2 311.9,67.3 310.2,65.6 C308.5,63.8 307.6,61.7 307.6,59.2 M353.9,104 L382.3,102.7 L382.3,101.9 C382.3,98.3 381.1,95.5 378.7,93.2 C376.3,91 373.3,89.9 369.5,89.9 C365.3,89.9 361.9,91.1 359.2,93.6 C356.4,96.1 354.7,99.5 353.9,104 Z M394.2,121 L392.7,134.8 C388.3,136.7 384.2,138 380.4,138.9 C376.6,139.8 373,140.2 369.5,140.2 C360.5,140.2 353.1,137.3 347.2,131.4 C341.3,125.5 338.4,118 338.4,109 C338.4,100 341.3,92.5 347.2,86.6 C353.1,80.7 360.5,77.8 369.5,77.8 C377.7,77.8 384.2,80.1 389.1,84.6 C394,89.2 396.5,95.2 396.5,102.7 C396.5,103.7 396.4,105.4 396.3,107.7 C396.3,108.1 396.2,108.4 396.2,108.5 L394.7,110.9 L353.5,112.4 C353.9,117.4 355.6,121.3 358.7,124.1 C361.8,126.9 366,128.3 371.3,128.3 C374.5,128.3 377.8,127.7 381.4,126.6 C385,125.5 389.3,123.6 394.2,121 M429.8,141.2 L428.1,141.2 L402.3,80.4 L417.7,80.4 L431,115.6 L447.1,77 L449.6,77 L463.2,115.6 L478,80.4 L490.8,80.4 L462.2,141.2 L460.5,141.2 L445.9,105.6 L429.8,141.2 M495.5,128.4 L497.9,128.4 C499.9,128.4 501.7,128.3 501.7,126.1 C501.7,124.1 500,123.9 498.5,123.9 L495.5,123.9 L495.5,128.4 L495.5,128.4 Z M493.5,122.1 L498.7,122.1 C502.1,122.1 503.7,123.3 503.7,126.2 C503.7,128.7 502.1,129.8 500,130 L504.1,136.2 L502,136.2 L498.1,130.2 L495.6,130.2 L495.6,136.2 L493.6,136.2 L493.6,122.1 L493.5,122.1 Z M498,139.5 C503.7,139.5 508.3,135 508.3,129 C508.3,123.1 503.7,118.7 498,118.7 C492.3,118.7 487.7,123.2 487.7,129.2 C487.7,135 492.3,139.5 498,139.5 Z M498,116.9 C504.7,116.9 510.3,122.1 510.3,129 C510.3,136 504.7,141.2 498,141.2 C491.3,141.2 485.7,136 485.7,129.1 C485.8,122.1 491.4,116.9 498,116.9" id="Shape" fill="#1B1C29"></path>
        </g>
    </g>
</svg>