<?xml version="1.0" encoding="UTF-8"?>
<svg width="288px" height="127px" viewBox="0 0 288 127" version="1.1" xmlns="http://www.w3.org/2000/svg" xmlns:xlink="http://www.w3.org/1999/xlink">
    <title>Artboard</title>
    <defs>
        <filter id="filter-1">
            <feColorMatrix in="SourceGraphic" type="matrix" values="0 0 0 0 1.000000 0 0 0 0 1.000000 0 0 0 0 1.000000 0 0 0 1.000000 0"></feColorMatrix>
        </filter>
    </defs>
    <g id="Page-1" stroke="none" stroke-width="1" fill="none" fill-rule="evenodd">
        <g id="logo-envoy" transform="translate(-72.000000, -59.000000)" filter="url(#filter-1)">
            <g transform="translate(127.000000, 89.000000)">
                <g id="g881" transform="translate(0.479167, 0.000000)" fill="#EF3934" fill-rule="nonzero">
                    <path d="M51.6066993,4.45873833 C52.7572029,4.45873833 53.6922024,5.39483391 53.6922024,6.5466837 L53.6922024,61.2864715 C53.6922024,62.4383233 52.7572029,63.3744188 51.6066993,63.3744188 L5.72565156,63.3744188 C4.57514937,63.3744188 3.64014926,62.4383233 3.64014926,61.2864715 L3.64014926,6.5466837 C3.64014926,5.39483391 4.57514937,4.45873833 5.72565156,4.45873833 L51.6066993,4.45873833 Z M5.69937742,0.833157182 C2.54986649,0.833157182 0,3.38525824 0,6.52362352 L0,61.3095316 C0,64.4478989 2.54986649,66.999998 5.69937742,66.999998 L51.632973,66.999998 C54.7824838,66.999998 57.3323505,64.4478989 57.3323505,61.3095316 L57.3323505,6.52362352 C57.3323505,3.38525824 54.7824838,0.833157182 51.632973,0.833157182 L5.69937742,0.833157182 Z" id="border"></path>
                    <g id="Ē" transform="translate(18.507078, 14.571873)">
                        <path d="M1.96958541,3.70939084 L18.3486099,3.70939084 C19.3536182,3.70939084 20.1695081,2.89777704 20.1695081,1.89660067 C20.1695081,0.897461496 19.3542643,0.0838105036 18.3486099,0.0838105036 L1.96958541,0.0838105036 C0.964577171,0.0838105036 0.1486872,0.895424305 0.1486872,1.89660067 C0.1486872,2.89573991 0.96393109,3.70939084 1.96958541,3.70939084 Z" id="Rectangle-72"></path>
                        <path d="M1.96958541,15.0393294 L18.3486099,15.0393294 C19.3536182,15.0393294 20.1695081,14.2277156 20.1695081,13.2265392 C20.1695081,12.2274 19.3542643,11.4137491 18.3486099,11.4137491 L1.96958541,11.4137491 C0.964577171,11.4137491 0.1486872,12.2253629 0.1486872,13.2265392 C0.1486872,14.2256785 0.96393109,15.0393294 1.96958541,15.0393294 Z" id="Rectangle-73"></path>
                        <path d="M2.19820849,26.8224648 L13.1147816,26.8224648 C14.1227526,26.8224648 14.9367935,26.0108515 14.9367935,25.0096747 C14.9367935,24.0105372 14.1210511,23.1968845 13.1147816,23.1968845 L2.19820849,23.1968845 C1.19023742,23.1968845 0.376196526,24.0084978 0.376196526,25.0096747 C0.376196526,26.0088144 1.19193907,26.8224648 2.19820849,26.8224648 Z" id="Rectangle-75"></path>
                        <path d="M1.96958541,38.6056009 L18.3486099,38.6056009 C19.3536182,38.6056009 20.1695081,37.7939876 20.1695081,36.7928108 C20.1695081,35.7936711 19.3542643,34.9800206 18.3486099,34.9800206 L1.96958541,34.9800206 C0.964577171,34.9800206 0.1486872,35.7916339 0.1486872,36.7928108 C0.1486872,37.7919505 0.96393109,38.6056009 1.96958541,38.6056009 Z" id="Rectangle-76"></path>
                        <path d="M0.1486872,36.7924845 C0.1486872,37.7918032 0.963562366,38.6056009 1.96876183,38.6056009 C2.97191591,38.6056009 3.78883639,37.7938426 3.78883639,36.7924845 L3.78883639,13.2268653 C3.78883639,12.2275473 2.97396122,11.4137491 1.96876183,11.4137491 C0.965607743,11.4137491 0.1486872,12.225509 0.1486872,13.2268653 L0.1486872,36.7924845 Z" id="Rectangle-74"></path>
                    </g>
                </g>
                <g id="g872" transform="translate(72.479167, 18.000000)" fill="#282C36" fill-rule="nonzero">
                    <path d="M17.7938542,0.349552 C18.2100104,0.349552 18.5113596,0.367312 18.6979131,0.402848 C18.884465,0.438384 19.0566666,0.505888 19.214518,0.6053744 C19.6306742,0.8754096 19.8387482,1.2733488 19.8387482,1.7992064 C19.8387482,2.3250656 19.6306742,2.7230048 19.214518,2.99304 C19.0566682,3.092528 18.884465,3.1600352 18.6979131,3.1955648 C18.5113596,3.2311008 18.2100104,3.2488608 17.7938542,3.2488608 L3.95314878,3.2488608 L3.95314878,13.9507232 L12.3827054,13.9507232 C12.7988616,13.9507232 13.1002124,13.9684992 13.2867642,14.0040192 C13.4733161,14.0395552 13.6455177,14.1070592 13.8033691,14.2065472 C14.2195253,14.4765808 14.427601,14.8745216 14.427601,15.4003792 C14.427601,15.9262368 14.2195253,16.3241776 13.8033691,16.5942128 C13.6455194,16.6937008 13.4733161,16.7612064 13.2867642,16.7967376 C13.1002124,16.8322736 12.7988616,16.8500336 12.3827054,16.8500336 L3.95314878,16.8500336 L3.95314878,27.8077168 L17.7938542,27.8077168 C18.2100104,27.8077168 18.5113596,27.8254928 18.6979131,27.8610128 C18.884465,27.8965488 19.0566666,27.9640528 19.214518,28.0635376 C19.6306742,28.3335728 19.8387482,28.7315136 19.8387482,29.2573696 C19.8387482,29.7832272 19.6306742,30.1811696 19.214518,30.4512048 C19.0566682,30.5506928 18.884465,30.6181984 18.6979131,30.653728 C18.5113596,30.689264 18.2100104,30.707024 17.7938542,30.707024 L2.64011208,30.707024 C2.38180722,30.707024 2.11633372,30.689248 1.84368021,30.653728 C1.57102509,30.618192 1.31990186,30.486736 1.09029754,30.2593376 C0.860694844,30.0319392 0.727955659,29.7832272 0.692079985,29.5131936 C0.656212425,29.2431584 0.638262415,28.980232 0.638262415,28.7244096 L0.638262415,2.3321696 C0.638262415,2.0763472 0.656196195,1.8134224 0.692079985,1.5433872 C0.727963774,1.273352 0.860694844,1.02464 1.09029754,0.7972416 C1.31990186,0.5698432 1.57102509,0.4383808 1.84368021,0.4028496 C2.11633372,0.3673136 2.38180722,0.349552 2.64011208,0.349552 L17.7938542,0.349552 Z M41.5751419,28.615368 C41.5751419,28.999552 41.5569322,29.2876848 41.5204966,29.479776 C41.484061,29.6718672 41.4075706,29.8604 41.2909945,30.0453776 C41.1744168,30.2445824 40.9995649,30.4046576 40.7664193,30.5256032 C40.533272,30.6465472 40.2709877,30.707024 39.9795564,30.707024 C39.6881236,30.707024 39.4258392,30.646544 39.1926936,30.5256032 C38.9595463,30.4046592 38.7846895,30.2445824 38.6681184,30.0453776 C38.5515407,29.8604 38.4750438,29.6718672 38.4386163,29.479776 C38.4021807,29.2876848 38.383971,28.999552 38.383971,28.615368 L38.383971,17.6448448 C38.383971,15.7666144 37.9176879,14.3650752 36.9851037,13.4401888 C36.0525196,12.5153024 34.7629526,12.0528672 33.1163605,12.0528672 C32.3003508,12.0528672 31.560851,12.1702592 30.8978449,12.4050336 C30.2348354,12.6398128 29.670194,12.9919744 29.2039028,13.4615312 C28.7376115,13.9310912 28.3769673,14.514472 28.1219651,15.2116944 C27.8669614,15.9089152 27.7394628,16.7199584 27.7394628,17.6448448 L27.7394628,28.615368 C27.7394628,28.999552 27.7212531,29.2876848 27.6848175,29.479776 C27.6483981,29.6718672 27.5718915,29.8604 27.4553154,30.0453776 C27.3387377,30.2445824 27.1638874,30.4046576 26.9307402,30.5256032 C26.6975945,30.6465472 26.4353102,30.707024 26.1438773,30.707024 C25.8524461,30.707024 25.5901601,30.646544 25.3570145,30.5256032 C25.1238688,30.4046592 24.9490121,30.2445824 24.8324392,30.0453776 C24.7158616,29.8604 24.6393663,29.6718672 24.6029372,29.479776 C24.5665016,29.2876848 24.5482919,28.999552 24.5482919,28.615368 L24.5482919,11.4552512 C24.5482919,11.085296 24.5665016,10.8042768 24.6029372,10.6121856 C24.6393728,10.4200944 24.7158632,10.2244464 24.8324392,10.0252416 C24.9490169,9.8260336 25.1238688,9.66596 25.3570145,9.5450128 C25.5901601,9.4240688 25.8524461,9.3635952 26.1438773,9.3635952 C26.4353102,9.3635952 26.6975945,9.4240752 26.9307402,9.5450128 C27.1638874,9.6659568 27.3387442,9.8260336 27.4553154,10.0252416 C27.5718931,10.2244464 27.64839,10.4200944 27.6848175,10.6121856 C27.7212531,10.8042768 27.7394628,11.085296 27.7394628,11.4552512 L27.7394628,11.839432 C28.5263289,10.9856912 29.4297564,10.3453952 30.4497681,9.9185232 C31.4697815,9.4916528 32.5772078,9.2782208 33.772078,9.2782208 C34.9523787,9.2782208 36.0088066,9.4454096 36.9413891,9.7797904 C37.8739716,10.1141728 38.6753974,10.6015104 39.3456923,11.241816 C40.1179874,11.967496 40.6826288,12.8212256 41.0396343,13.8030288 C41.3966383,14.7848304 41.5751419,15.8875632 41.5751419,17.1112592 L41.5751419,28.615368 Z M56.6954217,28.8212896 C56.5641562,29.1927232 56.4328825,29.4962944 56.3016105,29.7320128 C56.170345,29.9677312 56.0026081,30.16416 55.7984097,30.3213056 C55.4629393,30.5784528 55.0691346,30.707024 54.6169794,30.707024 C54.1502386,30.707024 53.7564322,30.578448 53.4355474,30.3213056 C53.231349,30.1641536 53.063617,29.9677312 52.9323466,29.7320128 C52.8010811,29.4962944 52.6698075,29.1927232 52.5385354,28.8212896 L46.5001116,11.721104 C46.3834204,11.392528 46.3141457,11.1103856 46.2922681,10.8746656 C46.2703905,10.6389472 46.2958386,10.4139488 46.3688396,10.1996592 C46.4709404,9.9282256 46.66055,9.7067968 46.937678,9.5353664 C47.2148044,9.363936 47.5065132,9.2782208 47.8128124,9.2782208 C48.2795516,9.2782208 48.6223091,9.4246528 48.8410948,9.7175104 C49.0598788,10.0103728 49.2421963,10.3639456 49.3880523,10.7782368 L54.6169778,26.1212592 L59.8459016,10.7782368 C59.9917576,10.3639456 60.1740768,10.0103728 60.3928608,9.7175104 C60.6116448,9.4246496 60.9544023,9.2782208 61.4211431,9.2782208 C61.7274407,9.2782208 62.0191511,9.3639328 62.2962775,9.5353664 C62.5734055,9.7067968 62.7630151,9.9282256 62.8651143,10.1996592 C62.9380504,10.4139488 62.9635634,10.6389472 62.9416858,10.8746656 C62.9198082,11.1103856 62.8505238,11.392528 62.7338406,11.721104 L56.6954217,28.8212896 Z M75.9910993,28.028424 C77.5436388,28.028424 78.8349862,27.5199232 79.8651772,26.5029104 C80.2424277,26.1304832 80.5435009,25.697184 80.7684019,25.2030016 C80.9933028,24.7088176 81.1674163,24.1788336 81.2907488,23.6130288 C81.414078,23.0472272 81.4975115,22.4563648 81.5410427,21.8404256 C81.5845706,21.2244896 81.6063346,20.6085584 81.6063346,19.9926224 C81.6063346,19.3766832 81.5845706,18.764336 81.5410427,18.1555616 C81.4975147,17.5467856 81.414078,16.959504 81.2907488,16.3937008 C81.1674196,15.827896 80.9933028,15.297912 80.7684019,14.803728 C80.5435009,14.3095472 80.2424277,13.8762464 79.8651772,13.5038192 C79.3428254,12.988152 78.7660734,12.6014048 78.1349001,12.3435696 C77.5037285,12.085736 76.7891347,11.9568208 75.9910993,11.9568208 C75.193064,11.9568208 74.4784702,12.0857328 73.8472985,12.3435696 C73.2161252,12.6014048 72.6393733,12.988152 72.1170215,13.5038192 C71.739771,13.8762464 71.4386978,14.3095472 71.2137968,14.803728 C70.9888958,15.297912 70.8147824,15.827896 70.6914499,16.3937008 C70.5681207,16.959504 70.4846872,17.5467856 70.441156,18.1555616 C70.397628,18.764336 70.3758641,19.3766832 70.3758641,19.9926224 C70.3758641,20.6085584 70.397628,21.2244896 70.441156,21.8404256 C70.484684,22.4563648 70.5681207,23.0472272 70.6914499,23.6130288 C70.8147791,24.1788336 70.9888958,24.7088176 71.2137968,25.2030016 C71.4386978,25.697184 71.739771,26.1304832 72.1170215,26.5029104 C73.1472125,27.5199232 74.4385598,28.028424 75.9910993,28.028424 Z M79.4667698,9.9266112 C80.4782707,10.3588752 81.3498702,10.9363968 82.0815928,11.6591984 C82.6268008,12.2119296 83.0715666,12.807168 83.4159066,13.4449312 C83.7602481,14.0826976 84.0256729,14.7523408 84.2121907,15.4538816 C84.3987085,16.155424 84.5242483,16.8852992 84.5888115,17.6435328 C84.6533731,18.4017632 84.6856539,19.1847872 84.6856539,19.9926224 C84.6856539,20.8004576 84.6533731,21.58348 84.5888115,22.341712 C84.5242499,23.099944 84.3987085,23.8298208 84.2121907,24.5313616 C84.0256729,25.232904 83.7602481,25.9025472 83.4159066,26.540312 C83.0715666,27.1780768 82.6268008,27.7733152 82.0815928,28.3260464 C81.3498702,29.0488464 80.4782707,29.6263696 79.4667698,30.0586336 C78.4552689,30.4908944 77.2967256,30.707024 75.9910993,30.707024 C74.6854731,30.707024 73.5269298,30.4908944 72.5154289,30.0586336 C71.503928,29.6263696 70.6323285,29.0488464 69.9006059,28.3260464 C69.3553979,27.7733152 68.9106321,27.1780768 68.5662921,26.540312 C68.2219506,25.9025472 67.9565257,25.232904 67.7700079,24.5313616 C67.5834901,23.8298208 67.4579504,23.099944 67.3933872,22.341712 C67.3288256,21.58348 67.2965448,20.8004576 67.2965448,19.9926224 C67.2965448,19.1847872 67.3288256,18.4017632 67.3933872,17.6435328 C67.4579488,16.8852992 67.5834901,16.155424 67.7700079,15.4538816 C67.9565257,14.7523408 68.2219506,14.0826976 68.5662921,13.4449312 C68.9106321,12.807168 69.3553979,12.2119296 69.9006059,11.6591984 C70.6323285,10.9363968 71.503928,10.3588752 72.5154289,9.9266112 C73.5269298,9.4943504 74.6854731,9.2782208 75.9910993,9.2782208 C77.2967256,9.2782208 78.4552689,9.4943504 79.4667698,9.9266112 Z M102.590066,10.7810656 C102.736133,10.365992 102.918668,10.0117536 103.137736,9.7183392 C103.356821,9.4249264 103.700029,9.2782208 104.167379,9.2782208 C104.474071,9.2782208 104.766172,9.3640928 105.043667,9.5358512 C105.321146,9.7076048 105.511016,9.9294528 105.613247,10.2013968 C105.686281,10.4160896 105.711761,10.6415136 105.689851,10.8776768 C105.667941,11.11384 105.59864,11.3965152 105.481738,11.725712 L97.0255941,35.6638864 C96.8503381,36.1648384 96.6349185,36.6335776 96.3793353,37.0701216 C96.1237522,37.506664 95.8280071,37.8823712 95.4920969,38.1972544 C94.9371153,38.7268304 94.32372,39.0989616 93.6518995,39.3136528 C92.980079,39.5283456 92.2717564,39.6356912 91.5269105,39.6356912 C90.8112748,39.6356912 90.3147185,39.5283472 90.0372285,39.3136528 C89.8765711,39.1848368 89.7560853,39.0381328 89.6757614,38.873536 C89.5954408,38.7089376 89.5552724,38.497824 89.5552724,38.240192 C89.5552724,37.7535552 89.7232251,37.3885824 90.0591369,37.1452624 C90.190581,37.0450704 90.3439286,36.9699312 90.5191847,36.9198352 C90.6944439,36.8697392 90.928117,36.8446992 91.2202121,36.8446992 C92.0088732,36.8446992 92.6660805,36.6622128 93.1918518,36.2972336 C93.7176264,35.9322544 94.1484624,35.2488256 94.4843726,34.2469232 L95.8426755,30.2536432 L89.2486372,11.725712 C89.1317999,11.3965152 89.0624262,11.11384 89.0405193,10.8776768 C89.0186093,10.6415136 89.0440899,10.4160896 89.1171883,10.2013968 C89.2194189,9.9294528 89.4092817,9.7076048 89.6867749,9.5358512 C89.9642648,9.364096 90.2563566,9.2782208 90.5630583,9.2782208 C91.030411,9.2782208 91.3736197,9.4249248 91.592691,9.7183392 C91.8117639,10.0117536 91.9943216,10.365992 92.1403691,10.7810656 L97.354261,26.3891856 L102.590066,10.7810656 Z" id="Envoy"></path>
                </g>
            </g>
        </g>
    </g>
</svg>