<?xml version="1.0" encoding="utf-8"?>
<!-- Generator: Adobe Illustrator 22.1.0, SVG Export Plug-In . SVG Version: 6.00 Build 0)  -->
<svg version="1.1" id="Layer_1" xmlns="http://www.w3.org/2000/svg" xmlns:xlink="http://www.w3.org/1999/xlink" x="0px" y="0px"
	 viewBox="0 0 169 48" style="enable-background:new 0 0 169 48;" xml:space="preserve">
<style type="text/css">
	.st0{fill:#FFFFFF;}
	.st1{fill:#D7D7D9;}
</style>
<g transform="translate(-34 -36)">
	<path class="st0" d="M81.5,81.5l-9-9c-0.6-0.6-1.5-0.6-2.1,0l-9,9c-0.6,0.6-0.6,1.5,0,2.1c0.3,0.3,0.7,0.5,1.1,0.5h18.1
		c0.8,0,1.5-0.6,1.5-1.4C82,82.2,81.8,81.8,81.5,81.5z"/>
	<path class="st1" d="M81.8,49L79,40.6c-0.1-0.4-0.3-0.7-0.6-1L34.3,83.7c0.3,0.2,0.6,0.4,0.9,0.3h12.5c0.7,0,1.4-0.3,1.9-0.8
		l31.6-31.6C81.9,51,82.2,49.9,81.8,49z"/>
	<path class="st0" d="M77.4,39L69,36.2c-0.9-0.3-2-0.1-2.7,0.6L34.8,68.3c-0.5,0.5-0.8,1.2-0.8,1.9v12.5c0,0.3,0.1,0.7,0.3,0.9
		l44.1-44.1C78.1,39.3,77.8,39.1,77.4,39z"/>
	<path class="st0" d="M197.9,59.3c0,0.5-0.1,1-0.3,1.4c-0.2,0.3-0.5,0.6-0.9,0.8s-0.8,0.3-1.2,0.3c-0.5,0-0.9,0.1-1.4,0.1h-1.6v-5
		h1.8c0.4,0,0.9,0,1.3,0.1c0.4,0,0.8,0.1,1.2,0.3s0.7,0.4,0.9,0.7C197.8,58.4,197.9,58.9,197.9,59.3z M198.5,72h4.5l-2.5-3.6
		c-0.4-0.6-0.8-1.2-1.3-1.8c-0.4-0.6-0.8-1.1-1.1-1.4c-0.2-0.3-0.5-0.6-0.8-0.9c1.2-0.1,2.3-0.7,3.2-1.5c0.9-1,1.3-2.2,1.2-3.5
		c0-1.5-0.7-3-1.9-4c-0.6-0.5-1.3-0.8-2.1-1c-1-0.2-2-0.3-3-0.3h-6.1v18h3.7v-7.5c0.4,0,0.7,0.1,1,0.3s0.5,0.4,0.7,0.6
		c0.3,0.4,0.6,0.8,0.9,1.2c0.4,0.5,0.9,1.4,1.6,2.4L198.5,72z M167.2,72h11.6v-3.1H171v-4.8h5.9v-3H171V57h7l0.5-3h-11.3V72z
		 M152.7,72l7-18h-3.9l-3.6,9.3c-0.2,0.4-0.3,0.9-0.4,1.3c-0.1,0.5-0.3,0.9-0.4,1.4c-0.1,0.4-0.2,0.8-0.3,1.1l-0.1,0.4l-0.1-0.4
		c-0.1-0.3-0.2-0.7-0.3-1.1s-0.2-0.9-0.4-1.4c-0.1-0.5-0.3-0.9-0.4-1.3l-3.3-9.3h-4.1l6.9,18H152.7z M123.5,72h11.6v-3.1h-7.8v-4.8
		h5.9v-3h-5.9V57h7l0.5-3h-11.3L123.5,72z M113.4,72l0.7-3.1h-7.3V54H103v18H113.4z"/>
</g>
</svg>
