<?xml version="1.0" encoding="UTF-8"?>
<svg width="760px" height="281px" viewBox="0 0 760 281" version="1.1" xmlns="http://www.w3.org/2000/svg" xmlns:xlink="http://www.w3.org/1999/xlink">
    <title>Artboard Copy 2</title>
    <g id="Page-1" stroke="none" stroke-width="1" fill="none" fill-rule="evenodd" opacity="0.600000024">
        <g id="Artboard" transform="translate(-1971.000000, -237.000000)" fill-rule="nonzero">
            <g id="y-combinator-logo-vector" transform="translate(2050.000000, 317.000000)">
                <polygon id="Path" fill="#000000" points="0.4 0.2 120.7 0.2 120.7 121.4 0.4 121.4"></polygon>
                <path d="M337.3,24.2 C338.4,24.3 338.6,25.6 338.7,26.4 C339,30.5 339.1,34.5 339.1,38.6 C339.3,42.5 339.3,46.3 339.3,50.2 C341.5,48.5 343.6,46.7 346.2,45.7 C350.3,43.9 355.3,43.9 359.3,46 C363.6,48.2 366.6,52.4 368.1,56.9 C369.5,61.2 369.9,65.8 369.6,70.3 C369.2,75.6 367.8,80.9 364.7,85.2 C362.9,87.7 360.5,89.9 357.5,91 C352.7,92.7 347.4,92.1 343.1,89.4 C341.8,88.6 340.6,87.4 339.4,86.4 C338.9,88 338.5,89.5 338,91.1 C335.7,91.1 333.5,91.3 331.2,90.9 C332.1,87.3 332.1,83.5 332.2,79.8 C332.4,66.7 332.2,53.6 332.1,40.6 C331.8,35.5 332.2,30.4 331.3,25.4 C333.4,24.8 335.3,24.2 337.3,24.2 Z M354.1,51.2 C352.1,50.8 350.1,50.8 348.1,51 C344.5,51.5 341.6,54 339.3,56.6 C339.2,57.5 339.3,58.3 339.2,59.2 L339.2,80 C339.1,80.7 339.7,81.2 340.2,81.6 C343.7,85 348.9,86.6 353.7,85.4 C356,84.8 358,83.3 359.1,81.2 C360.8,78.3 361.4,74.9 361.7,71.6 C361.9,69.1 362.2,66.5 361.9,64 C361.8,61.1 361.2,58 359.7,55.5 C358.5,53.4 356.5,51.7 354.1,51.2 Z M383.9,26 C385.3,25.5 386.9,25.6 388.3,26.2 C389.6,27 390.5,28.2 391.1,29.6 C392,32.6 389.6,36 386.5,36.4 C384.1,36.7 381.5,35.3 380.8,32.9 C379.8,30.3 381.3,27.1 383.9,26 L383.9,26 Z M170.6,31.5 C174,29.2 178,27.4 182.2,27.4 C186.5,27.3 190.9,27.6 194.8,29.5 C196.4,30.2 198,31 199.4,32.2 C198.4,33.9 197.1,35.4 195.9,36.9 C194.3,36 192.8,35 191.1,34.4 C186.9,32.9 182.1,32.6 177.9,34.3 C174.4,35.7 171.5,38.4 169.7,41.7 C168.5,44 167.4,46.5 166.9,49.1 C166.5,51.6 166.3,54.2 166.2,56.8 C166.1,60.2 165.9,63.7 166.1,67.1 C166.7,71.9 168.3,76.7 171.6,80.3 C174.4,83.6 178.6,85.5 182.9,85.9 C185.1,86 187.4,86 189.6,85.5 C192.3,84.9 194.6,83.5 197.1,82.4 C198.5,83.8 199.8,85.4 201,87.1 C199.2,88.1 197.3,89.1 195.3,89.9 C190.1,92 184.2,92.1 178.7,91.5 C174.7,90.7 171,88.6 167.9,86 C164.3,82.9 161.7,78.8 160.2,74.3 C159.1,71.3 158.6,68.1 158.3,65 C158.2,62.6 157.9,60.3 158.2,57.9 C158.3,53.4 159,49 160.8,44.8 C162.8,39.6 166,34.7 170.6,31.5 Z" id="Shape" fill="#000000"></path>
                <path d="M36.1,30.4 C36.6,30.3 37.2,30.1 37.7,30.1 C40.3,30 42.9,30.2 45.5,30.3 C45.9,30.2 46.1,30.6 46.2,30.9 C50.1,39 54,47.2 58,55.3 C58.9,57 59.6,58.7 60.6,60.3 C61.4,59 62.1,57.6 62.8,56.2 C67.3,47.5 71.5,38.8 75.9,30.1 C78.8,30.2 81.7,29.9 84.6,30.4 C84.1,32.1 83.1,33.5 82.4,35.1 C76.6,46.2 70.7,57.3 64.9,68.4 C64.7,68.8 64.6,69.3 64.6,69.8 C64.6,77.7 64.6,85.7 64.6,93.6 C61.8,93.6 59,93.6 56.2,93.6 C56.2,85.9 56.2,78.1 56.2,70.4 C56.2,69.6 56.3,68.7 55.8,67.9 C50.4,57.8 45.1,47.7 39.7,37.5 C38.5,35.1 37.2,32.8 36.1,30.4 Z" id="Path" fill="#FFFEFE"></path>
                <path d="M501.3,33.9 C503.6,33.2 506,32.6 508.4,32.2 C508,36.6 507.7,41 507.6,45.5 C511.3,45.6 515.1,45.6 518.8,45.7 C518.2,47.4 517.5,49.1 516.7,50.7 C513.5,50.7 510.4,50.7 507.2,50.7 C507.2,54.8 507.2,58.9 507.2,63 C507.2,66.2 507.4,69.5 507.3,72.7 C507.4,76.4 507.2,80.1 507.6,83.7 C507.7,85.2 509.1,86.3 510.4,86.7 C512.7,87.2 515.1,87 517.3,86.5 C517.9,87.8 518.2,89.3 518.1,90.7 C516.1,91.8 513.7,92 511.4,92.2 C508.2,92.3 504.6,91.8 502.3,89.3 C500.4,87.5 500.6,84.7 500.3,82.3 C500.1,77.1 500.2,71.8 500.1,66.6 C500.1,61.3 500.1,55.9 500.1,50.6 C498.1,50.6 496.1,50.6 494.1,50.6 C494,48.9 494,47.1 494.1,45.4 C496.1,45.4 498,45.4 500,45.4 C500.7,41.6 500.7,37.7 501.3,33.9 Z M227.9,44.4 C229.8,44.5 231.7,44.4 233.5,45 C237.7,46.4 241.2,49.3 243.4,53.1 C245.3,56.4 246.6,60.1 246.7,63.9 C246.9,69 247.1,74.3 245.5,79.2 C244,83.8 240.8,87.9 236.4,90.2 C232.1,92.4 226.9,92.9 222.3,91.6 C218.1,90.5 214.5,87.7 212.1,84.1 C209.4,80.2 208.5,75.5 208.4,70.8 C208.3,66.3 208.2,61.7 209.7,57.4 C211.1,53.2 213.8,49.3 217.6,46.9 C219.3,45.8 221.2,44.9 223.2,44.5 C224.8,44.3 226.4,44.4 227.9,44.4 L227.9,44.4 Z M224.3,50.2 C221.9,50.8 219.6,52.2 218.3,54.3 C216.4,57.4 216.1,61.1 215.9,64.6 C215.7,67.2 215.9,69.8 216.1,72.4 C216.5,75.5 217.1,78.8 218.6,81.6 C220.2,84.6 223.6,86.1 226.9,86.3 C230,86.5 233.4,85.7 235.6,83.3 C237.4,81.3 238.4,78.8 238.8,76.1 C239.3,72.8 239.2,69.5 239.1,66.2 C239,62.8 238.7,59.2 237.3,56 C236.5,54 235,52.3 233.1,51.3 C230.5,49.7 227.2,49.5 224.3,50.2 Z M259.2,45.9 C261.3,45.2 263.4,44.7 265.6,44.3 C266.5,46.3 267,48.5 267.2,50.7 C268.7,49.9 269.8,48.7 271.2,47.8 C274.3,45.5 278.1,44.1 282,44.3 C282.9,44.4 283.7,44.6 284.5,45 C285.8,45.7 287.2,46.4 288.3,47.4 C289.4,48.5 290.2,49.9 291,51.3 C292.8,50.5 294.1,49.1 295.7,48 C298.4,46.1 301.5,44.6 304.9,44.3 C308,44 311.1,45 313.4,47.1 C314.4,48.1 315.5,49.1 316,50.4 C316.5,51.7 316.7,53.1 316.8,54.5 C317.3,61.8 317,69.2 317.3,76.5 C317.3,81.4 317.3,86.2 317.3,91.1 C314.9,91.1 312.5,91.2 310,91.1 C310,83.8 310,76.5 310,69.2 C310,64.5 310.1,59.8 309.7,55.1 C309.5,53.6 308.7,52.2 307.5,51.3 C306.1,50.4 304.3,50.5 302.7,50.6 C299.8,50.9 297.5,52.7 295.3,54.4 C294.3,55.3 293.2,56.1 292.2,57 C291.9,57.2 292,57.7 292,58 C292,69 292,80 292,91 C289.6,91 287.2,91 284.8,91 L284.8,65.3 C284.8,63.2 284.8,61.1 284.7,59.1 C284.6,57 284.8,54.7 283.8,52.8 C282.3,50.7 279.4,50.3 277.1,50.9 C273.5,51.8 270.3,54 267.6,56.5 C267.2,56.8 267.2,57.3 267.2,57.8 C267.2,68.9 267.2,80 267.2,91.1 C265.1,91.2 263,91.2 260.9,91.1 C260.7,79.8 260.8,68.4 260.5,57 C260.4,54.4 260.4,51.8 260.1,49.3 C259.8,48.1 259.4,47 259.2,45.9 L259.2,45.9 Z M382.2,45.5 C384.5,45.2 386.8,44.8 389.1,44.3 C389.4,50.7 389.3,57.1 389.3,63.5 C389.3,72.7 389.3,81.9 389.3,91.1 C386.9,91.2 384.5,91.2 382.1,91.1 C382,77.9 382.1,64.8 382.1,51.6 C382.2,49.6 382.1,47.5 382.2,45.5 Z M474.9,44.6 C479.8,45.5 484,50 484.1,55.1 C484.4,62.7 484,70.3 484.1,77.9 L484.1,80.2 C484.1,81.7 484.2,83.2 484.6,84.7 C484.9,86.2 486.3,87 487.4,87.9 C486.4,89.3 485.5,90.9 484.2,92.1 C483.4,92.8 482.4,92 481.8,91.6 C480.1,90.3 478.9,88.4 477.9,86.5 C476.3,87.4 475.2,88.7 473.6,89.6 C471,91.3 467.9,92.3 464.7,92.2 C461.9,92.3 459,91.8 456.5,90.5 C452.4,88.3 450.1,83.5 450.2,79 C450.2,74.6 452.4,70.3 455.9,67.7 C460.1,64.5 465.5,63.5 470.6,63.1 C472.9,62.9 475.3,62.9 477.7,62.8 C477.8,60.5 477.6,58.2 477.3,55.9 C477,54 476.1,52 474.3,51 C472.2,49.9 469.7,49.8 467.3,50.2 C462.9,50.7 458.8,52.6 455.2,55.2 C454.2,53.8 453.2,52.5 452.4,51 C452,50.3 452.6,49.7 453.2,49.4 C458,46.7 463.3,44.4 468.9,44.5 L471.3,44.5 C472.5,44.4 473.7,44.4 474.9,44.6 L474.9,44.6 Z M471.9,67.5 C469.7,67.7 467.4,67.8 465.3,68.4 C462.7,69.1 460.3,70.8 458.9,73.1 C458.1,74.4 458.1,76 458,77.5 C458,79.1 457.8,80.9 458.4,82.4 C459,84 460.1,85.5 461.7,86.1 C463.5,86.9 465.6,87 467.6,86.8 C470,86.5 472.1,85.2 473.9,83.8 C475.4,82.5 476.9,80.9 477,78.8 C477.3,75.1 477.2,71.4 477.3,67.7 C475.5,67.7 473.7,67.3 471.9,67.5 Z M550.3,44.7 C554.4,45.7 558.1,48.2 560.5,51.6 C562.5,54.4 563.8,57.6 564.4,61 C564.9,64.2 565.1,67.5 564.9,70.7 C564.8,76 563.2,81.3 560,85.5 C557.4,88.9 553.4,90.9 549.3,91.7 C544.3,92.6 538.9,91.7 534.7,88.7 C531,86.1 528.7,81.9 527.4,77.7 C526.7,75.5 526.6,73.3 526.4,71 C526.3,67.2 526.3,63.4 527,59.7 C528,55.5 530.1,51.4 533.3,48.4 C535.7,46.2 538.7,44.8 541.9,44.4 C544.7,44.1 547.5,44.2 550.3,44.7 Z M542.4,50.1 C539,50.5 536.3,53.2 535.2,56.3 C533.8,59.6 534,63.2 533.9,66.7 C534,70 534,73.3 534.6,76.6 C535,78.8 535.7,81 537.2,82.7 C538.6,84.4 540.7,85.5 542.8,85.9 C543.6,86.1 544.5,86.2 545.3,86.2 L546.1,86.2 L546.9,86.1 C548.6,85.9 550.2,85.4 551.7,84.6 C553.5,83.6 554.8,81.7 555.5,79.8 C556.4,77.5 556.5,75 556.7,72.6 C556.8,69.7 556.9,66.8 556.7,63.9 C556.5,60.9 556.1,57.8 554.7,55.1 C553.4,53.1 551.6,51.4 549.4,50.4 C547.3,49.8 544.8,49.8 542.4,50.1 Z M577.2,46 C579.4,45.4 581.5,44.7 583.7,44.2 C584.9,46.4 585.1,49 585.2,51.4 C586.3,50.6 587.2,49.5 588.2,48.5 C591.3,45.4 595.9,43.5 600.3,44.3 L600.3,44.9 C599.3,47 598.7,49.3 597.8,51.5 C597.7,51.9 597.1,51.8 596.8,51.8 C594.9,51.8 592.8,51.8 591.1,52.8 C589.4,53.8 587.9,55.1 586.7,56.7 C585.5,58.2 585.7,60.3 585.7,62.1 C585.6,64.7 585.5,67.3 585.6,69.9 C585.6,76.9 585.6,84 585.6,91 C583.2,91.1 580.8,91.1 578.4,91 C578.4,83.2 578.4,75.3 578.4,67.5 C578.4,62.2 578.4,56.8 578.2,51.5 C578,49.7 577.4,47.9 577.2,46 Z M403.5,46.1 C405.6,45.4 407.8,44.6 410,44.6 C410.8,46.7 411.3,48.9 411.6,51.1 C413.5,49.9 415.1,48.3 417.1,47.2 C420.9,45 425.5,43.4 429.8,45 C432.3,45.9 434.8,47.3 436.3,49.6 C437.5,51.2 437.8,53.4 438,55.4 C438.4,62.5 438.3,69.6 438.3,76.8 C438.3,81.6 438.4,86.3 438.4,91.1 C436,91.2 433.6,91.2 431.2,91.1 C431.2,83.3 431,75.4 431,67.6 C430.9,63.2 431.1,58.9 430.6,54.5 C429.9,52.4 427.9,50.7 425.7,50.6 C424.1,50.5 422.4,50.5 420.8,51.1 C417.4,52.4 414.3,54.5 411.5,56.8 C411.4,68.2 411.5,79.7 411.5,91.1 C409.4,91.1 407.3,91.2 405.2,91.1 C405.2,84.6 405,78.1 405,71.6 C404.9,64.9 405,58.3 404.6,51.6 C404.5,49.7 403.9,47.9 403.5,46.1 L403.5,46.1 Z" id="Shape" fill="#000000"></path>
            </g>
        </g>
    </g>
</svg>