<?xml version="1.0" encoding="UTF-8"?>
<svg width="760px" height="281px" viewBox="0 0 760 281" version="1.1" xmlns="http://www.w3.org/2000/svg" xmlns:xlink="http://www.w3.org/1999/xlink">
    <title>Artboard</title>
    <defs>
        <filter id="filter-1">
            <feColorMatrix in="SourceGraphic" type="matrix" values="0 0 0 0 0.000000 0 0 0 0 0.000000 0 0 0 0 0.000000 0 0 0 1.000000 0"></feColorMatrix>
        </filter>
    </defs>
    <g id="Page-1" stroke="none" stroke-width="1" fill="none" fill-rule="evenodd" opacity="0.600000024">
        <g id="sequoia-capital-vector-logo" transform="translate(-296.000000, -237.000000)" filter="url(#filter-1)">
            <g transform="translate(375.000000, 338.000000)">
                <path d="M213.15,78.5255 L205.45,65.2255 C209.05,58.3255 209.05,50.3255 209.05,39.7255 C209.05,26.4255 209.05,16.7255 201.35,8.6255 C196.05,2.9255 189.25,0.1255 180.35,0.1255 C171.45,0.1255 164.55,3.3255 159.35,8.6255 C151.65,16.3255 151.65,26.0255 151.65,39.7255 C151.65,53.0255 151.25,62.7255 159.35,70.8255 C165.05,76.5255 171.45,79.3255 180.35,79.3255 C182.75,79.3255 184.75,78.9255 186.85,78.5255 L213.15,78.5255 L213.15,78.5255 Z M170.25,61.5255 C167.45,58.3255 166.65,54.6255 166.65,39.7255 C166.65,24.8255 167.45,21.1255 170.25,17.9255 C172.25,15.5255 175.95,13.9255 179.95,13.9255 C183.95,13.9255 187.65,15.5255 189.65,17.9255 C192.45,21.1255 193.25,24.8255 193.25,39.7255 C193.25,54.6255 192.45,58.3255 189.65,61.5255 C187.65,63.9255 183.95,65.5255 179.95,65.5255 C175.95,65.5255 172.35,63.9255 170.25,61.5255 L170.25,61.5255 Z" id="Fill-1" fill="#3C3C3C" fill-rule="nonzero"></path>
                <polygon id="Fill-2" fill="#3C3C3C" fill-rule="nonzero" points="390.45 0.9255 405.35 0.9255 405.35 78.5255 390.45 78.5255"></polygon>
                <path d="M29.25,79.3255 C17.55,79.3255 8.65,76.9255 0.95,69.2255 L10.65,59.5255 C15.45,64.3255 22.35,66.0255 29.25,66.0255 C38.15,66.0255 42.95,62.8255 42.95,56.3255 C42.95,53.5255 42.15,51.5255 40.55,49.8255 C38.95,48.2255 37.35,47.8255 33.65,47.0255 L24.35,45.8255 C17.85,45.0255 12.65,42.6255 9.45,39.3255 C5.85,35.7255 3.75,30.4255 3.75,23.9255 C3.75,10.2255 13.85,0.5255 30.85,0.5255 C41.35,0.5255 49.45,2.9255 55.95,9.4255 L46.25,18.7255 C41.45,13.9255 35.35,13.4255 30.45,13.4255 C22.35,13.4255 18.35,17.8255 18.35,23.1255 C18.35,25.1255 19.15,27.1255 20.75,28.8255 C22.35,30.4255 24.75,31.2255 28.05,32.0255 L37.35,33.2255 C44.65,34.0255 49.05,36.0255 52.25,39.3255 C56.25,43.3255 58.35,49.0255 58.35,55.9255 C58.35,70.8255 45.45,79.3255 29.25,79.3255" id="Fill-3" fill="#3C3C3C" fill-rule="nonzero"></path>
                <polyline id="Fill-4" fill="#3C3C3C" fill-rule="nonzero" points="80.15 78.5255 80.15 0.9255 131.45 0.9255 131.45 14.2255 95.45 14.2255 95.45 32.4255 126.15 32.4255 126.15 46.2255 95.45 46.2255 95.45 65.2255 131.45 65.2255 131.45 78.5255 80.15 78.5255"></polyline>
                <path d="M260.35,79.3255 C244.55,79.3255 231.65,68.4255 231.65,51.8255 L231.65,0.9255 L247.05,0.9255 L247.05,51.4255 C247.05,60.3255 252.35,65.5255 260.35,65.5255 C268.35,65.5255 273.65,60.2255 273.65,51.4255 L273.65,0.9255 L288.55,0.9255 L288.55,51.8255 C288.65,68.4255 276.15,79.3255 260.35,79.3255" id="Fill-5" fill="#3C3C3C" fill-rule="nonzero"></path>
                <path d="M360.55,70.8255 C355.25,76.5255 348.45,79.3255 339.55,79.3255 C330.65,79.3255 323.75,76.1255 318.55,70.8255 C310.85,63.1255 310.85,53.4255 310.85,39.7255 C310.85,26.4255 310.45,16.7255 318.55,8.6255 C323.85,2.9255 330.65,0.1255 339.55,0.1255 C348.45,0.1255 354.95,3.3255 360.55,8.6255 C368.25,16.3255 368.25,26.0255 368.25,39.7255 C368.25,53.0255 368.25,62.7255 360.55,70.8255 M349.25,17.9255 C347.25,15.5255 343.55,13.9255 339.55,13.9255 C335.55,13.9255 331.85,15.5255 329.85,17.9255 C327.05,21.1255 326.25,24.8255 326.25,39.7255 C326.25,54.6255 327.05,58.3255 329.85,61.5255 C331.85,63.9255 335.55,65.5255 339.55,65.5255 C343.55,65.5255 347.25,63.9255 349.25,61.5255 C352.05,58.3255 352.85,54.6255 352.85,39.7255 C352.95,24.8255 352.15,21.1255 349.25,17.9255" id="Fill-6" fill="#3C3C3C" fill-rule="nonzero"></path>
                <path d="M476.95,78.5255 L472.55,64.8255 L445.05,64.8255 L440.25,78.5255 L424.45,78.5255 L452.75,0.9255 L464.45,0.9255 L492.75,78.5255 L476.95,78.5255 L476.95,78.5255 Z M458.75,23.5255 L449.05,51.8255 L468.45,51.8255 L458.75,23.5255 L458.75,23.5255 Z" id="Fill-7" fill="#3C3C3C" fill-rule="nonzero"></path>
                <polygon id="Fill-8" fill="#50B848" fill-rule="nonzero" points="581.65 0.9255 601.05 0.9255 601.05 20.3255 581.65 20.3255"></polygon>
                <polyline id="Fill-9" fill="#50B848" fill-rule="nonzero" points="533.15 61.9255 533.15 0.9255 523.45 0.9255 523.45 71.6255 533.15 61.9255"></polyline>
                <polyline id="Fill-10" fill="#50B848" fill-rule="nonzero" points="539.95 68.8255 530.25 78.5255 600.95 78.5255 600.95 68.8255 539.95 68.8255"></polyline>
                <polyline id="Fill-11" fill="#50B848" fill-rule="nonzero" points="552.55 42.5255 552.55 0.9255 542.85 0.9255 542.85 52.2255 552.55 42.5255"></polyline>
                <polyline id="Fill-12" fill="#50B848" fill-rule="nonzero" points="559.35 49.4255 549.65 59.1255 600.95 59.1255 600.95 49.4255 559.35 49.4255"></polyline>
                <polyline id="Fill-13" fill="#50B848" fill-rule="nonzero" points="571.95 23.1255 571.95 0.9255 562.25 0.9255 562.25 32.8255 571.95 23.1255"></polyline>
                <polyline id="Fill-14" fill="#50B848" fill-rule="nonzero" points="578.75 30.0255 569.05 39.7255 600.95 39.7255 600.95 30.0255 578.75 30.0255"></polyline>
            </g>
        </g>
    </g>
</svg>