<svg width="226" height="64" viewBox="0 0 226 64" fill="none" xmlns="http://www.w3.org/2000/svg">
<path d="M105.74 47.9998L106.68 43.9999H96.9205V24.0009H91.9208V47.9998H105.74ZM119.24 47.9998H134.679V43.8399H124.259V37.4402H132.059V33.4404H124.219V28.0007H133.579L134.299 24.0009H119.24V47.9998ZM158.218 47.9998L167.577 24.0009H162.398L157.578 36.4603C157.335 37.0248 157.135 37.6063 156.978 38.2002C156.778 38.8402 156.618 39.4602 156.458 40.0401L156.098 41.4801L155.978 42.06L155.798 41.4801C155.698 41.0601 155.598 40.5601 155.438 40.0001C155.278 39.4402 155.118 38.8002 154.938 38.1602C154.758 37.5202 154.558 36.9203 154.378 36.4203L150.078 24.0009H144.578L153.758 47.9998H158.218ZM177.577 47.9998H192.996V43.8399H182.577V37.4402H190.376V33.4404H182.537V28.0007H191.936L192.656 24.0009H177.577V47.9998ZM219.255 47.9998H225.255L221.975 43.16C221.415 42.34 220.855 41.5401 220.275 40.7601L218.835 38.7602C218.562 38.3073 218.202 37.913 217.775 37.6002C219.384 37.4928 220.893 36.7779 221.995 35.6003C223.095 34.3282 223.661 32.6802 223.575 31.0005C223.591 29.9819 223.375 28.973 222.941 28.0509C222.508 27.1289 221.87 26.3182 221.075 25.6808C220.257 25.0322 219.298 24.5867 218.275 24.3808C216.96 24.1068 215.618 23.9794 214.275 24.0009H206.275V47.9998H211.195V38.0002C211.675 37.9766 212.15 38.1023 212.555 38.3602C212.913 38.6013 213.242 38.8832 213.535 39.2002C213.971 39.7312 214.378 40.2853 214.755 40.8601L216.895 44.1199L219.255 47.9998ZM218.455 31.1005C218.496 31.7504 218.343 32.3979 218.015 32.9605C217.726 33.4002 217.316 33.7473 216.835 33.9604C216.311 34.194 215.748 34.3295 215.175 34.3604C214.548 34.3604 213.928 34.3604 213.315 34.3604H211.155V27.7607H213.575C214.155 27.7317 214.735 27.7317 215.315 27.7607C215.862 27.8101 216.396 27.9521 216.895 28.1807C217.367 28.3997 217.769 28.746 218.055 29.1806C218.391 29.761 218.531 30.4342 218.455 31.1005V31.1005Z" fill="white"/>
<path d="M63.3268 60.6387L51.3274 48.6393C51.1414 48.4518 50.9202 48.303 50.6765 48.2015C50.4328 48.1 50.1714 48.0477 49.9074 48.0477C49.6434 48.0477 49.382 48.1 49.1383 48.2015C48.8946 48.303 48.6734 48.4518 48.4875 48.6393L36.488 60.6387C36.231 60.9134 36.0567 61.2551 35.985 61.6244C35.9134 61.9938 35.9475 62.3759 36.0832 62.7267C36.219 63.0776 36.451 63.3831 36.7525 63.6081C37.0541 63.833 37.413 63.9684 37.788 63.9986H61.7869C62.1823 64.0134 62.5732 63.9106 62.9101 63.7031C63.2471 63.4957 63.5149 63.193 63.6798 62.8333C63.8447 62.4736 63.8991 62.0731 63.8363 61.6825C63.7734 61.2918 63.5961 60.9286 63.3268 60.6387Z" fill="white"/>
<path d="M62.9189 20.9007L20.9208 62.8988C20.2489 63.5587 19.3428 63.9255 18.401 63.9188H1.58174C1.12503 63.9283 0.681766 63.7639 0.341797 63.4588L1.88173 61.9188H18.281C18.6912 61.9225 19.0864 61.7645 19.3809 61.4789L61.379 19.4808C61.5665 19.2978 61.698 19.0653 61.7583 18.8103C61.8185 18.5553 61.8048 18.2884 61.719 18.0409L57.7191 6.04144L59.0391 4.7215C59.3961 5.11523 59.6684 5.57812 59.839 6.08143L63.6189 17.3009C63.8536 17.9059 63.9125 18.5649 63.7886 19.2019C63.6648 19.8389 63.3632 20.4278 62.9189 20.9007V20.9007ZM57.8191 6.10143L59.1391 4.78149C58.7409 4.42021 58.2705 4.14755 57.7591 3.98153L46.5597 0.201706C45.955 -0.017839 45.2999 -0.0591644 44.6724 0.0826429C44.0449 0.22445 43.4714 0.543427 43.0198 1.00167L1.02177 42.9997C0.361821 43.6717 -0.00493765 44.5778 0.00181215 45.5196V62.1988C-0.00869311 62.4288 0.0265552 62.6586 0.105514 62.8749C0.184472 63.0912 0.305574 63.2896 0.461794 63.4588L2.00172 61.9188L57.8191 6.10143V6.10143Z" fill="white"/>
</svg>
