<?xml version="1.0" encoding="UTF-8"?>
<svg width="164px" height="42px" viewBox="0 0 164 42" version="1.1" xmlns="http://www.w3.org/2000/svg" xmlns:xlink="http://www.w3.org/1999/xlink">
    <title>Group 18</title>
    <defs>
        <filter id="filter-1">
            <feColorMatrix in="SourceGraphic" type="matrix" values="0 0 0 0 1.000000 0 0 0 0 1.000000 0 0 0 0 1.000000 0 0 0 1.000000 0"></feColorMatrix>
        </filter>
        <polygon id="path-2" points="0.394294825 0.0532 19.442 0.0532 19.442 26 0.394294825 26"></polygon>
    </defs>
    <g id="Page-1" stroke="none" stroke-width="1" fill="none" fill-rule="evenodd">
        <g filter="url(#filter-1)" id="Group-18">
            <g>
                <path d="M37.3958,9.4934 C37.3298,8.7434 36.7528,8.1394 36.0028,8.0664 C35.8078,8.0474 31.0308,7.5464 26.9658,5.1804 C22.9268,2.8274 20.3368,0.5174 20.2288,0.4194 C19.6238,-0.1336 18.6858,-0.1456 18.0918,0.4194 C18.0688,0.4414 15.5868,2.6974 11.3118,5.1924 C7.1478,7.6194 2.4048,8.0564 2.3578,8.0614 C1.6098,8.1194 1.0058,8.7034 0.9228,9.4504 C0.8908,9.7374 0.7458,12.7684 0.8248,16.2324 C0.9388,21.2634 1.5078,24.1254 3.1218,27.3874 C4.0968,29.3574 6.2388,32.0594 7.3598,33.1994 C8.8068,34.6704 10.2038,35.7924 11.1178,36.4294 C11.8198,36.9174 12.2698,37.1754 12.3908,37.2424 C12.8098,37.4744 13.3968,37.4834 13.8878,37.2654 C14.0018,37.2164 14.3788,37.0204 14.9518,36.6874 C15.4228,36.4144 16.1908,35.9534 17.1718,35.3064 C17.7028,34.9554 18.2428,34.5874 18.7778,34.2094 C21.3578,32.3864 25.1308,29.2664 27.6018,26.1554 C29.8898,23.2754 31.1938,20.1564 30.6008,17.1514 C30.2078,15.1574 29.2568,13.7894 27.6908,12.7314 C26.2498,11.7574 24.2718,11.4204 22.5778,11.8634 C20.9418,12.2914 19.7768,13.2264 19.1768,13.8444 C18.5538,13.1994 16.2638,11.1154 12.8338,11.8164 C9.7228,12.4514 6.8118,15.4564 7.8048,20.4814 C8.1038,21.9964 8.8708,23.6124 10.0958,25.1944 C10.9868,26.3434 12.1158,27.4684 13.4108,28.5554 C13.7898,28.8724 14.3188,28.8884 14.7378,28.6244 C15.1438,28.3684 15.5848,28.0624 16.0138,27.7354 C16.1808,27.6084 16.2938,27.4184 16.3108,27.2094 C16.3298,26.9744 16.2368,26.7494 16.0588,26.5974 C14.4658,25.2364 11.5688,22.6214 10.9398,19.9344 C10.2408,16.9444 12.2968,15.2804 13.5408,15.0444 C14.7578,14.8144 15.8848,15.0134 16.9018,15.7374 C17.4288,16.1134 18.0058,16.6694 18.3958,17.0704 C18.5988,17.2774 18.8758,17.3954 19.1668,17.3954 C19.4568,17.3954 19.7328,17.2794 19.9348,17.0734 C20.2948,16.7054 20.7528,16.2324 21.4198,15.7534 C22.8118,14.7564 24.6948,14.6384 26.0618,15.6214 C29.2258,17.9004 26.7178,22.2924 24.9678,24.3704 C23.8148,25.7404 22.1198,27.7674 16.9788,31.5284 C15.3028,32.7544 13.8748,33.5414 13.1458,33.9384 C12.5528,33.5654 11.4858,32.6794 10.2038,31.4444 C7.8388,29.1684 5.4448,25.9744 4.6838,22.1294 C3.7308,17.3194 3.9888,11.0324 3.9888,11.0324 C3.9888,11.0324 8.8628,10.2924 12.9148,7.9624 C15.7688,6.3214 17.8768,4.6984 19.1768,3.6194 C19.1768,3.6194 22.4388,6.2884 25.2848,7.9384 C27.8118,9.4044 31.0028,10.4614 34.3288,11.0334 C34.3748,11.9684 34.5388,17.8494 33.8798,21.3334 C32.9608,26.1984 30.0088,30.3674 24.0198,34.9254 C22.0208,36.4474 18.9478,38.4514 17.2348,39.5024 C16.8668,39.7274 16.6578,40.2414 16.9438,40.6294 C16.9918,40.6944 17.1108,40.8054 17.1758,40.8544 C17.7138,41.2574 18.0828,41.5244 18.4588,41.7184 C18.9468,41.9694 19.4788,41.8404 19.8538,41.6234 C21.9768,40.3924 23.9648,39.0504 25.9538,37.5374 C28.0248,35.9594 30.4198,34.0064 32.4598,31.4784 C35.0278,28.3014 36.5118,25.0144 37.0038,21.9254 C37.8378,16.6944 37.3958,9.4934 37.3958,9.4934" id="Fill-1" fill="#0073E6"></path>
                <path d="M46.3542,31.7814 C45.9582,31.5834 45.9182,31.2664 46.1162,30.8704 L47.1862,29.0094 C47.4232,28.6524 47.7402,28.5734 48.0962,28.8114 C49.4832,29.7224 51.3842,30.4354 53.6822,30.4354 C55.7022,30.4354 56.9312,29.6824 56.9312,28.2964 C56.9312,27.0294 55.9802,26.3944 53.0872,25.6824 C49.5222,24.8104 46.5912,23.4244 46.5912,20.1764 C46.5912,16.8874 49.4432,14.7884 53.7212,14.7884 C56.4552,14.7884 58.6342,15.5014 60.1782,16.4124 C60.5352,16.6104 60.6142,16.9274 60.3762,17.3234 L59.3852,19.1454 C59.1872,19.5014 58.8712,19.5814 58.4742,19.3434 C56.9302,18.5104 55.4242,18.0354 53.5222,18.0354 C51.8192,18.0354 50.5912,18.6304 50.5912,19.9774 C50.5912,21.1654 51.7002,21.6404 54.7912,22.3934 C58.6342,23.3844 60.9312,24.6904 60.9312,28.0974 C60.9312,31.4254 58.0792,33.6834 53.4442,33.6834 C50.5922,33.6824 48.2552,32.9294 46.3542,31.7814" id="Fill-3" fill="#171B1F"></path>
                <path d="M77.1394,22.551 L66.7604,22.551 C67.3154,19.738 69.4154,17.955 72.2674,17.955 C74.8424,17.955 76.8634,19.777 77.1394,22.471 L77.1394,22.551 Z M72.1474,14.748 C66.6404,14.748 62.7984,18.867 62.7984,24.216 C62.7984,29.643 66.9584,33.683 72.6224,33.683 C75.9894,33.683 78.1294,32.653 79.4354,31.663 C79.7524,31.386 79.7924,31.069 79.5944,30.713 L78.5644,29.01 C78.3664,28.613 78.0494,28.574 77.6924,28.851 C76.6224,29.565 75.2364,30.357 73.0574,30.357 C69.6504,30.357 67.1944,28.257 66.7194,25.365 L80.2284,25.365 C80.6254,25.365 80.8624,25.128 80.9024,24.693 L80.9024,24.059 C80.9024,18.59 77.3764,14.748 72.1474,14.748 L72.1474,14.748 Z" id="Fill-5" fill="#171B1F"></path>
                <path d="M83.2,24.2551 C83.2,18.8671 87.518,14.7481 93.104,14.7481 C95.995,14.7481 97.778,15.5401 99.006,16.3331 C99.362,16.6101 99.442,16.9271 99.204,17.3231 L98.174,19.1061 C97.976,19.4631 97.619,19.5031 97.263,19.3041 C96.351,18.7491 95.124,18.3541 93.539,18.3541 C89.775,18.3541 87.24,20.8501 87.24,24.2561 C87.24,27.5831 89.775,30.0791 93.38,30.0791 C95.163,30.0791 96.311,29.6831 97.263,29.1681 C97.659,28.9301 97.935,29.0101 98.095,29.3271 L99.164,31.2291 C99.362,31.6251 99.283,31.9011 98.927,32.1391 C97.976,32.7341 96.193,33.6841 93.103,33.6841 C87.241,33.6821 83.2,29.5631 83.2,24.2551" id="Fill-7" fill="#171B1F"></path>
                <path d="M133.8284,15.5397 L133.5904,18.0757 C133.5514,18.5507 133.2724,18.7087 132.8374,18.6297 C132.5594,18.5507 132.2034,18.5107 131.8074,18.5107 C128.3994,18.5107 126.6574,21.0467 126.6184,23.6217 L126.6184,32.6527 C126.6184,33.0887 126.3804,33.3267 125.9454,33.3267 L123.3314,33.3267 C122.9344,33.3267 122.6584,33.0877 122.6584,32.6527 L122.6584,15.7767 C122.6584,15.3407 122.9354,15.1037 123.3314,15.1037 L125.3904,15.1037 C125.7884,15.1037 126.0644,15.3417 126.0644,15.7377 L126.1834,18.6687 C126.9354,16.5297 129.1144,14.7467 132.3634,14.7467 C132.6414,14.7467 132.9574,14.7467 133.2344,14.7867 C133.6694,14.8267 133.8674,15.1437 133.8284,15.5397" id="Fill-9" fill="#171B1F"></path>
                <path d="M137.0159,32.653 L137.0159,5.716 C137.0159,5.28 137.2929,5.043 137.6889,5.043 L140.3029,5.043 C140.7389,5.043 140.9759,5.281 140.9759,5.716 L140.9759,32.653 C140.9759,33.089 140.7379,33.326 140.3029,33.326 L137.6889,33.326 C137.2929,33.326 137.0159,33.088 137.0159,32.653" id="Fill-11" fill="#171B1F"></path>
                <g id="Group-15" transform="translate(143.000000, 15.050500)">
                    <mask id="mask-3" fill="white">
                        <use xlink:href="#path-2"></use>
                    </mask>
                    <g id="Clip-14"></g>
                    <path d="M19.3665,0.8452 L12.6315,16.8892 L9.0265,25.4852 C8.9075,25.8022 8.6305,26.0002 8.2735,26.0002 L5.6995,26.0002 C5.2235,26.0002 4.9855,25.6832 5.1845,25.2472 L7.9975,18.2762 L0.4705,0.8452 C0.2725,0.3702 0.4705,0.0532 0.9465,0.0532 L3.9965,0.0532 C4.3515,0.0532 4.6305,0.2122 4.7485,0.5682 L10.0965,13.7602 L15.3655,0.5682 C15.4845,0.2122 15.7625,0.0532 16.1185,0.0532 L18.8905,0.0532 C19.3665,0.0532 19.5635,0.3702 19.3665,0.8452" id="Fill-13" fill="#171B1F" mask="url(#mask-3)"></path>
                </g>
                <path d="M118.5403,15.1027 L115.8863,15.1027 C115.4893,15.1027 115.2523,15.3407 115.2523,15.7757 L115.2523,24.4117 C115.2523,27.7067 113.4263,29.8357 110.6573,29.8757 L110.4843,29.8757 C107.7173,29.8347 105.8893,27.7067 105.8893,24.4117 L105.8893,15.7757 C105.8893,15.3397 105.6513,15.1027 105.2553,15.1027 L102.6023,15.1027 C102.2053,15.1027 101.9683,15.3407 101.9683,15.7757 L101.9683,25.2047 C101.9683,29.9487 104.8493,33.1787 109.0863,33.6267 C109.4603,33.6797 109.9693,33.7117 110.5303,33.7117 C110.9823,33.7117 111.4003,33.6907 111.7423,33.6557 C116.1293,33.3357 119.1743,30.0647 119.1743,25.2047 L119.1743,15.7757 C119.1743,15.3407 118.9363,15.1027 118.5403,15.1027" id="Fill-16" fill="#171B1F"></path>
            </g>
        </g>
    </g>
</svg>