<svg width="143" height="68" viewBox="0 0 143 68" fill="none" xmlns="http://www.w3.org/2000/svg">
<path d="M120.738 15.9269C115.393 15.9269 110.629 17.9974 106.994 21.6629V0H88.5941V38.263C86.8904 25.1363 75.7457 15.588 61.3344 15.588C45.7736 15.588 33.8475 26.9967 33.8475 41.794C33.8437 44.0812 34.1377 46.3593 34.7221 48.5714H18.6275V0H0V66.0797H34.8697L36.5212 53.3518C40.8828 62.1262 50.1738 68 61.3344 68C75.8445 68 86.8995 58.5545 88.5941 45.3623V66.0797H105.631V61.0272C109.243 65.2066 114.408 67.4352 120.738 67.4352C132.437 67.4352 143 55.1229 143 41.6811C143 26.9967 133.459 15.9269 120.738 15.9269ZM61.3344 50.8306C56.2232 50.8306 52.1342 46.7641 52.1342 41.794C52.1342 36.8239 56.2232 32.7575 61.3344 32.7575C66.5592 32.7575 70.5346 36.711 70.5346 41.794C70.5346 46.8771 66.4456 50.8306 61.3344 50.8306ZM115.286 50.7176C110.061 50.7176 105.859 46.6512 105.859 41.6811C105.856 40.449 106.097 39.2285 106.57 38.0897C107.043 36.9509 107.737 35.9162 108.613 35.045C109.489 34.1738 110.53 33.4833 111.675 33.0132C112.82 32.5431 114.047 32.3027 115.286 32.3056C120.624 32.3056 124.94 36.485 124.94 41.6811C124.94 46.6512 120.624 50.7176 115.286 50.7176Z" fill="white"/>
</svg>
