<svg width="196" height="68" viewBox="0 0 196 68" fill="none" xmlns="http://www.w3.org/2000/svg">
<g clip-path="url(#clip0)">
<path d="M152.282 24.396C147.741 24.396 143.049 27 141.209 30.2678L144.022 31.8953L146.062 33.0716C146.913 31.2637 149.646 29.8779 152.166 29.8779C152.208 29.8779 152.243 29.8779 152.282 29.8779C155.866 29.9359 157.635 32.1628 157.635 35.0343V37.3579C156.475 36.5168 153.571 35.6144 150.99 35.6144C144.67 35.6144 139.829 39.4205 139.829 44.8379C139.829 50.7065 144.663 54.1839 150.539 54.1839C153.467 54.1758 156.228 52.815 158.019 50.497L158.592 53.6682H163.765V34.9086C163.752 28.3987 159.501 24.4024 152.282 24.396ZM151.911 48.9856H151.721C148.821 48.9856 145.817 47.7513 145.817 44.8572C145.817 42.0309 148.827 40.8062 151.721 40.7966H151.911C154.812 40.7966 157.816 42.0309 157.816 44.8572C157.816 47.7351 154.805 48.9598 151.911 48.9856Z" fill="white"/>
<path d="M131.81 45.4114C130.267 47.764 127.688 48.9049 124.594 48.9049C120.466 48.9049 117.562 45.8723 117.369 40.848H136.915V38.5277C136.915 30.1485 132.529 24.4023 124.466 24.4023C116.66 24.4023 111.046 30.8478 111.046 39.43C111.046 48.2668 116.596 54.3288 124.582 54.3288C130.215 54.3288 134.572 51.9955 136.435 48.0992L131.81 45.4114ZM124.53 29.8133C128.465 29.8133 130.466 32.6526 130.531 36.1331H117.553C118.326 32.0048 120.972 29.8133 124.52 29.8133H124.53Z" fill="white"/>
<path d="M175.053 64.3291H168.608V25.0405H174.029L174.554 28.6178C175.746 26.9839 178.057 24.396 182.575 24.396C190.954 24.396 195.621 31.3604 195.621 39.3592C195.621 47.3581 190.716 54.3224 182.33 54.3224C179.172 54.3224 176.333 52.84 175.044 51.2286L175.053 64.3291ZM181.873 30.1679C177.296 30.1679 174.564 34.0836 174.564 39.3463C174.564 44.6091 177.296 48.5247 181.873 48.5247C186.449 48.5247 189.176 44.622 189.176 39.3592C189.176 34.0965 186.446 30.1808 181.873 30.1808V30.1679Z" fill="white"/>
<path d="M106.88 14.3765V53.694H100.171V36.9937H80.2475V53.6779H73.5281V14.3765H80.2475V31.0606H100.18V14.3765H106.88Z" fill="white"/>
<path d="M58.1934 16.323L30.8806 0.554108C30.1898 0.15449 29.3381 0.15449 28.6472 0.554108L1.33443 16.323C0.644201 16.7223 0.219207 17.4593 0.21936 18.2567V49.7945C0.21987 50.5917 0.644687 51.3284 1.33443 51.7281L28.6472 67.497C29.3381 67.8967 30.1898 67.8967 30.8806 67.497L58.1934 51.7281C58.8831 51.3284 59.3079 50.5917 59.3085 49.7945V18.2567C59.3086 17.4593 58.8836 16.7223 58.1934 16.323ZM52.4214 47.1067L29.7623 60.1911L7.09026 47.1067V20.9477L29.7494 7.86653V32.0984C29.7503 32.4971 29.9635 32.8652 30.3089 33.0645C30.6542 33.2637 31.0796 33.264 31.4252 33.0652L52.4214 20.9477V47.1067Z" fill="white"/>
</g>
<defs>
<clipPath id="clip0">
<rect width="195.621" height="68" fill="white"/>
</clipPath>
</defs>
</svg>
