<svg width="129" height="68" viewBox="0 0 129 68" fill="none" xmlns="http://www.w3.org/2000/svg">
<path d="M45.6505 0C44.5012 0.0023874 43.3989 0.455311 42.5796 1.26123C41.7601 2.06715 41.2894 3.16194 41.2679 4.31096C41.2724 4.88189 41.3893 5.44668 41.6121 5.97259C41.8348 6.49851 42.1588 6.97531 42.5656 7.37571C42.9725 7.77645 43.4544 8.09295 43.9838 8.30747C44.5131 8.52166 45.0796 8.62977 45.6505 8.62534C46.7733 8.59362 47.8394 8.12569 48.6225 7.32011C49.4056 6.51487 49.8435 5.43577 49.8435 4.31267C49.8435 3.18957 49.4056 2.11046 48.6225 1.30523C47.8394 0.49965 46.7733 0.0317183 45.6505 0Z" fill="white"/>
<path d="M62.011 0.341064H55.9334V53.355H62.011V0.341064Z" fill="white"/>
<path d="M85.3666 17.394C74.6949 17.394 66.8472 25.5794 66.8472 35.7702C66.8472 45.961 74.6915 54.1498 85.3666 54.1498C95.9701 54.1498 103.818 45.9644 103.818 35.7702C103.818 25.576 95.9701 17.394 85.3666 17.394ZM85.3666 48.4951C78.0168 48.4951 73.0681 42.8403 73.0681 35.7702C73.0681 28.7001 78.0168 23.0488 85.3666 23.0488C92.7164 23.0488 97.5969 28.7035 97.5969 35.7702C97.5969 42.8369 92.7369 48.5121 85.3666 48.5121V48.4951Z" fill="white"/>
<path d="M128.463 23.7682V18.1851H118.285V8.86743L112.208 11.9369V18.1954H104.705V23.7682H112.208V43.0652C112.208 50.4184 116.87 53.8802 123.019 53.8802C124.873 53.8996 126.716 53.6128 128.476 53.0309V47.5911C127.087 48.0597 125.631 48.2981 124.165 48.2971C120.349 48.2971 118.299 46.8135 118.299 42.2876V23.7682H128.463Z" fill="white"/>
<path d="M18.4853 17.0632C13.9015 17.056 9.47969 18.7586 6.08446 21.838V17.8647H0V68.0001H6.08446V49.242C8.30952 51.2542 10.9909 52.6948 13.8971 53.439C16.8035 54.1832 19.8471 54.2088 22.7656 53.5134C25.6837 52.8183 28.3889 51.423 30.6474 49.448C32.9059 47.4732 34.6497 44.9784 35.7281 42.179C36.8066 39.3796 37.1875 36.3595 36.8376 33.3801C36.488 30.4006 35.4181 27.5507 33.7207 25.0774C32.0232 22.6037 29.7491 20.5805 27.0946 19.1825C24.4402 17.7845 21.4852 17.0537 18.4853 17.053V17.0632ZM18.4853 47.9494C16.0334 47.9459 13.6375 47.2157 11.6004 45.8512C9.56325 44.4866 7.97665 42.5487 7.04045 40.2824C6.10459 38.0161 5.86141 35.5233 6.34196 33.1188C6.82217 30.7144 8.00462 28.5064 9.73957 26.7738C11.4745 25.0412 13.6842 23.8618 16.0894 23.3847C18.4945 22.9076 20.987 23.1542 23.2519 24.0934C25.5169 25.0324 27.4527 26.6217 28.8146 28.6609C30.1764 30.6997 30.9032 33.0967 30.9032 35.5485C30.9056 37.1798 30.5857 38.7957 29.9626 40.3032C29.3391 41.811 28.4247 43.1807 27.2709 44.3342C26.1175 45.4879 24.7478 46.4023 23.24 47.0258C21.7325 47.6489 20.1166 47.9688 18.4853 47.9664V47.9494Z" fill="white"/>
<path d="M18.7104 40.1492C21.3212 40.1492 23.4375 38.0329 23.4375 35.4221C23.4375 32.8113 21.3212 30.6951 18.7104 30.6951C16.0996 30.6951 13.9834 32.8113 13.9834 35.4221C13.9834 38.0329 16.0996 40.1492 18.7104 40.1492Z" fill="white"/>
<path d="M37.5163 18.0759L38.9317 23.659H42.6219V53.4197H48.703V18.0759H37.5163Z" fill="white"/>
</svg>
