<svg width="150" height="150" viewBox="0 0 150 150" fill="none" xmlns="http://www.w3.org/2000/svg">
<circle cx="75" cy="75" r="75" fill="#2FBECA"/>
<mask id="mask0" mask-type="alpha" maskUnits="userSpaceOnUse" x="0" y="0" width="150" height="150">
<circle opacity="0.5" cx="75" cy="75" r="75" fill="#073E4B"/>
</mask>
<g mask="url(#mask0)">
<g opacity="0.3">
<path d="M-14.8737 -260.127C-14.8737 -260.127 23.8009 -191.9 119.31 -204.056C226.367 -217.656 272.412 -138.869 245.895 -85.0777C219.377 -31.2866 101.53 -19.8902 118.018 67.2544C134.43 154.475 -8.79514 193.907 -8.79514 193.907" stroke="white" stroke-width="3" stroke-miterlimit="10"/>
<path d="M-43.6699 -181.263C-43.6699 -181.263 37.9341 -151.709 119.158 -162.345C200.382 -172.982 209.88 -125.269 200.382 -106.275C180.703 -66.8434 75.317 -59.2458 68.4787 4.42225C63.3879 52.2872 104.114 116.563 11.6446 150.676" stroke="white" stroke-width="3" stroke-miterlimit="10"/>
<path d="M-7.27551 -149.43C-7.27551 -149.43 76.1521 -160.066 61.2597 -113.037C44.1639 -59.1699 4.1217 -60.0057 41.9605 8.22088C55.4092 32.4573 59.3602 130.239 -14.8737 110.561" stroke="white" stroke-width="3" stroke-miterlimit="10"/>
</g>
</g>
</svg>
