<svg width="150" height="150" viewBox="0 0 150 150" fill="none" xmlns="http://www.w3.org/2000/svg">
<circle cx="75" cy="75" r="75" fill="#2FBECA"/>
<mask id="mask0" mask-type="alpha" maskUnits="userSpaceOnUse" x="0" y="0" width="150" height="150">
<circle opacity="0.5" cx="75" cy="75" r="75" fill="#073E4B"/>
</mask>
<g mask="url(#mask0)">
<g opacity="0.3">
<path d="M-57.2856 -140.87C-57.2856 -140.87 -18.6111 -72.6431 76.8976 -84.7992C183.955 -98.399 230 -19.6117 203.483 34.1794C176.965 87.9705 59.1179 99.3669 75.6059 186.512C92.0179 273.732 -51.2071 313.164 -51.2071 313.164" stroke="white" stroke-width="3" stroke-miterlimit="10"/>
<path d="M-86.0819 -62.0063C-86.0819 -62.0063 -4.47785 -32.4516 76.7463 -43.0883C157.97 -53.725 167.468 -6.01194 157.97 12.9821C138.291 52.4137 32.905 60.0113 26.0667 123.679C20.9759 171.544 61.702 235.82 -30.7674 269.933" stroke="white" stroke-width="3" stroke-miterlimit="10"/>
<path d="M-49.6875 -30.1723C-49.6875 -30.1723 33.7401 -40.8089 18.8478 6.22029C1.75193 60.0874 -38.2903 59.2516 -0.451531 127.478C12.9972 151.715 16.9482 249.496 -57.2856 229.818" stroke="white" stroke-width="3" stroke-miterlimit="10"/>
<path d="M91.6403 24.3786C112.37 24.3786 129.175 15.2284 129.175 3.941C129.175 -7.34636 112.37 -16.4966 91.6403 -16.4966C70.9104 -16.4966 54.1055 -7.34636 54.1055 3.941C54.1055 15.2284 70.9104 24.3786 91.6403 24.3786Z" stroke="white" stroke-width="3" stroke-miterlimit="10"/>
</g>
</g>
</svg>
