<svg width="150" height="150" viewBox="0 0 150 150" fill="none" xmlns="http://www.w3.org/2000/svg">
<circle cx="75" cy="75" r="75" fill="#2FBECA"/>
<mask id="mask0" mask-type="alpha" maskUnits="userSpaceOnUse" x="0" y="0" width="150" height="150">
<circle opacity="0.5" cx="75" cy="75" r="75" fill="#073E4B"/>
</mask>
<g mask="url(#mask0)">
<g opacity="0.3">
<path d="M-30.0673 -12.3418C-30.0673 -12.3418 8.60724 55.8848 104.116 43.7286C211.174 30.1289 257.218 108.916 230.701 162.707C204.183 216.498 86.3362 227.895 102.824 315.039C119.236 402.26 -23.9888 441.692 -23.9888 441.692" stroke="white" stroke-width="3" stroke-miterlimit="10"/>
<path d="M-58.8635 66.5215C-58.8635 66.5215 22.7405 96.0762 103.965 85.4395C185.189 74.8029 194.686 122.516 185.189 141.51C165.51 180.942 60.1234 188.539 53.2851 252.207C48.1943 300.072 88.9204 364.348 -3.54904 398.461" stroke="white" stroke-width="3" stroke-miterlimit="10"/>
<path d="M-22.4692 98.3553C-22.4692 98.3553 60.9584 87.7186 46.0661 134.748C28.9703 188.615 -11.072 187.779 26.7668 256.006C40.2155 280.242 44.1665 378.023 -30.0673 358.346" stroke="white" stroke-width="3" stroke-miterlimit="10"/>
<path d="M118.859 152.906C139.589 152.906 156.394 143.756 156.394 132.469C156.394 121.181 139.589 112.031 118.859 112.031C98.1288 112.031 81.3239 121.181 81.3239 132.469C81.3239 143.756 98.1288 152.906 118.859 152.906Z" stroke="white" stroke-width="3" stroke-miterlimit="10"/>
</g>
</g>
</svg>
