<svg width="204" height="202" viewBox="0 0 204 202" fill="none" xmlns="http://www.w3.org/2000/svg">
<circle cx="101" cy="101" r="101" fill="#F5F5F5"/>
<mask id="mask0" mask-type="alpha" maskUnits="userSpaceOnUse" x="2" y="0" width="202" height="202">
<circle cx="103" cy="101" r="101" fill="#F5F5F5"/>
</mask>
<g mask="url(#mask0)">
<path d="M140.652 141.306L37 150.638L52.483 62.3919L156.125 53.0692L140.652 141.306Z" fill="#164854"/>
<path d="M163.563 135.716L165.594 158.307L117.569 162.62L80.8973 165.918L78.5569 166.131L63.4027 167.494L61.9424 167.62L61.4396 161.934L60.7529 154.361L52.4844 62.3919L156.127 53.0596L162.374 122.428L163.563 135.716Z" fill="#164854"/>
<path d="M163.563 135.716L165.594 158.307L117.569 162.62L80.8973 165.918L78.5569 166.131L63.4027 167.494L61.9424 167.62L61.4396 161.934L60.7529 154.361L52.4844 62.3919L156.127 53.0596L162.374 122.428L163.563 135.716Z" fill="white" fill-opacity="0.1"/>
<path d="M120.938 121.82L132.717 120.688V133.148L120.938 134.281V121.82Z" fill="#FFD43B"/>
<path d="M120.939 121.82L132.719 120.688V133.148L120.939 134.281V121.82Z" fill="#FFD43B"/>
<g opacity="0.1">
<path d="M69.2812 84.8784L77.3007 84.0946V92.7162L69.2812 93.5V84.8784Z" fill="white"/>
<path d="M79.9739 84.0946L87.9933 83.3108V91.9324L79.9739 92.7162V84.0946Z" fill="white"/>
<path d="M90.6665 82.9189L98.6859 82.1351V90.7568L90.6665 91.5405V82.9189Z" fill="white"/>
<path d="M100.977 81.7432L108.997 80.9595V89.5811L100.977 90.3649V81.7432Z" fill="white"/>
<path d="M111.288 80.9595L119.307 80.1757V88.7973L111.288 89.5811V80.9595Z" fill="white"/>
<path d="M121.981 79.7838L130 79V87.6216L121.981 88.4054V79.7838Z" fill="white"/>
</g>
<g opacity="0.1">
<path d="M69.2812 99.3784L77.3007 98.5946V107.216L69.2812 108V99.3784Z" fill="white"/>
<path d="M79.9739 98.5946L87.9933 97.8108V106.432L79.9739 107.216V98.5946Z" fill="white"/>
<path d="M90.6665 97.4189L98.6859 96.6351V105.257L90.6665 106.041V97.4189Z" fill="white"/>
<path d="M100.977 96.2432L108.997 95.4595V104.081L100.977 104.865V96.2432Z" fill="white"/>
<path d="M111.288 95.4595L119.307 94.6757V103.297L111.288 104.081V95.4595Z" fill="white"/>
<path d="M121.981 94.2838L130 93.5V102.122L121.981 102.905V94.2838Z" fill="white"/>
</g>
<g opacity="0.1">
<path d="M69.2812 113.878L77.3007 113.095V121.716L69.2812 122.5V113.878Z" fill="white"/>
<path d="M79.9739 113.095L87.9933 112.311V120.932L79.9739 121.716V113.095Z" fill="white"/>
<path d="M90.6665 111.919L98.6859 111.135V119.757L90.6665 120.541V111.919Z" fill="white"/>
<path d="M100.977 110.743L108.997 109.959V118.581L100.977 119.365V110.743Z" fill="white"/>
<path d="M111.288 109.959L119.307 109.176V117.797L111.288 118.581V109.959Z" fill="white"/>
<path d="M121.981 108.784L130 108V116.622L121.981 117.405V108.784Z" fill="white"/>
</g>
<g opacity="0.1">
<path d="M69.2812 128.378L77.3007 127.595V136.216L69.2812 137V128.378Z" fill="white"/>
<path d="M79.9739 127.595L87.9933 126.811V135.432L79.9739 136.216V127.595Z" fill="white"/>
<path d="M90.6665 126.419L98.6859 125.635V134.257L90.6665 135.041V126.419Z" fill="white"/>
<path d="M100.977 125.243L108.997 124.459V133.081L100.977 133.865V125.243Z" fill="white"/>
<path d="M111.288 124.459L119.307 123.676V132.297L111.288 133.081V124.459Z" fill="white"/>
</g>
<path d="M61.9426 167.978C61.7589 167.978 61.6138 167.843 61.5945 167.659L52.1267 62.4209C52.1074 62.2275 52.2525 62.0534 52.4459 62.0438L156.098 52.7114C156.194 52.7018 156.282 52.7308 156.359 52.7888C156.427 52.8468 156.475 52.9339 156.485 53.0306L163.902 135.687C163.921 135.881 163.776 136.055 163.583 136.064C163.39 136.084 163.215 135.939 163.206 135.745L155.817 53.4367L52.8617 62.7111L62.2618 167.243L165.208 157.988L163.206 135.745C163.186 135.552 163.332 135.378 163.525 135.368C163.718 135.349 163.892 135.494 163.902 135.687L165.933 158.278C165.943 158.375 165.914 158.462 165.856 158.539C165.798 158.607 165.711 158.655 165.614 158.665L61.962 167.988C61.9716 167.978 61.9523 167.978 61.9426 167.978Z" fill="#164854"/>
<path d="M132.5 55L157 52.5L166 158.5L142.5 161L132.5 55Z" fill="#187186"/>
<path d="M142.324 160.744C142.14 160.744 141.995 160.609 141.976 160.425L132.556 55.7191C132.537 55.5257 132.682 55.3516 132.876 55.3419C133.069 55.3226 133.243 55.4677 133.253 55.6611L142.672 160.367C142.691 160.561 142.546 160.735 142.353 160.744C142.353 160.744 142.343 160.744 142.324 160.744Z" fill="#164854"/>
<path d="M138.912 74.6738C138.824 74.6738 138.747 74.6448 138.689 74.5965C138.621 74.5384 138.573 74.4514 138.563 74.3547L138.525 73.9485C138.273 71.173 140.333 68.7166 143.109 68.4652L153.95 67.4884C154.046 67.4787 154.133 67.5078 154.211 67.5658C154.278 67.6238 154.327 67.7108 154.336 67.8075L154.791 72.8944C154.81 73.0878 154.665 73.2619 154.472 73.2716L138.941 74.6642C138.931 74.6738 138.921 74.6738 138.912 74.6738ZM153.66 68.2137L143.167 69.1615C140.778 69.3742 139.008 71.4921 139.221 73.8808V73.9388L154.046 72.6043L153.66 68.2137Z" fill="white"/>
<path d="M140.151 88.4161C139.967 88.4161 139.822 88.2807 139.803 88.097C139.783 87.9036 139.928 87.7295 140.122 87.7198L152.336 86.6173C152.529 86.598 152.703 86.7431 152.713 86.9365C152.732 87.1299 152.587 87.304 152.394 87.3136L140.18 88.4161C140.17 88.4161 140.16 88.4161 140.151 88.4161Z" fill="white"/>
<path d="M141.155 99.615C140.971 99.615 140.826 99.4796 140.806 99.2958C140.787 99.1024 140.932 98.9283 141.126 98.9187L153.34 97.8162C153.533 97.7968 153.707 97.9419 153.717 98.1353C153.736 98.3287 153.591 98.5028 153.398 98.5125L141.184 99.615C141.174 99.615 141.164 99.615 141.155 99.615Z" fill="white"/>
<path d="M143.815 129.14C143.631 129.14 143.486 129.005 143.467 128.821C143.447 128.627 143.592 128.453 143.786 128.444L152.596 127.651C152.789 127.631 152.963 127.776 152.973 127.97C152.992 128.163 152.847 128.337 152.654 128.347L143.844 129.14C143.834 129.14 143.824 129.14 143.815 129.14Z" fill="white"/>
<path d="M138.931 54.9067C138.747 54.9067 138.602 54.7713 138.583 54.5876L138.08 48.9881C138.061 48.7947 138.206 48.6207 138.399 48.611C138.583 48.5916 138.766 48.7367 138.776 48.9301L139.279 54.5295C139.298 54.7229 139.153 54.897 138.96 54.9067C138.95 54.9067 138.941 54.9067 138.931 54.9067Z" fill="#164854"/>
<path d="M145.798 54.2974C145.614 54.2974 145.469 54.1621 145.45 53.9783L144.947 48.3789C144.928 48.1855 145.073 48.0114 145.266 48.0017C145.46 47.9824 145.634 48.1275 145.643 48.3209L146.146 53.9203C146.166 54.1137 146.021 54.2878 145.827 54.2974C145.827 54.2974 145.817 54.2974 145.798 54.2974Z" fill="#164854"/>
<path d="M60.1535 61.9954C59.9698 61.9954 59.8247 61.86 59.8054 61.6763L59.3025 56.0769C59.2832 55.8835 59.4282 55.7094 59.6216 55.6997C59.8151 55.6804 59.9891 55.8254 59.9988 56.0189L60.5017 61.6183C60.521 61.8117 60.376 61.9858 60.1826 61.9954C60.1729 61.9954 60.1632 61.9954 60.1535 61.9954Z" fill="#164854"/>
<path d="M67.0168 61.3765C66.8331 61.3765 66.688 61.2411 66.6687 61.0574L66.1658 55.458C66.1465 55.2646 66.2915 55.0905 66.4849 55.0808C66.6687 55.0615 66.8524 55.2066 66.8621 55.4L67.3746 60.9994C67.394 61.1928 67.2489 61.3669 67.0555 61.3765C67.0458 61.3765 67.0362 61.3765 67.0168 61.3765Z" fill="#164854"/>
</g>
</svg>
