<svg width="82" height="82" viewBox="0 0 82 82" fill="none" xmlns="http://www.w3.org/2000/svg">
<circle opacity="0.1" cx="40.5" cy="41.5" r="40.5" fill="#2FBECA"/>
<circle cx="40.5039" cy="41.5005" r="29.9019" fill="#2FBECA"/>
<path d="M13.1371 65.3025C13.18 65.3314 13.2229 65.3459 13.2658 65.3459C13.2801 65.3459 13.2872 65.3459 13.3015 65.3314L20.8919 64.159C20.9419 64.1517 20.9919 64.1155 21.0277 64.0721C21.0563 64.0287 21.0706 63.9708 21.0634 63.9129C20.8633 62.6174 21.1778 61.3147 21.9497 60.2581C22.7216 59.2014 23.8508 58.5066 25.1302 58.3112C27.7818 57.8987 30.2619 59.7514 30.6693 62.4292C30.6908 62.545 30.798 62.6319 30.9123 62.6102L38.5027 61.4377C38.5527 61.4305 38.6028 61.3943 38.6385 61.3509C38.6671 61.3075 38.6814 61.2496 38.6742 61.1917L36.7445 48.4178C39.5105 47.8822 41.3902 45.2116 40.9614 42.3674C40.7469 40.9561 40.0036 39.7113 38.8672 38.8645C37.788 38.0612 36.4729 37.7065 35.1506 37.8585L33.9499 29.8975C33.9285 29.7817 33.8213 29.7021 33.7069 29.7165L8.49854 33.6175C8.44851 33.6247 8.39849 33.6609 8.36275 33.7043C8.33416 33.7477 8.31987 33.8056 8.32702 33.8635L9.45628 41.3469C9.34192 41.3686 10.0066 44.9945 10.0209 45.1103L13.0513 65.165C13.0585 65.2156 13.0942 65.2663 13.1371 65.3025Z" fill="white"/>
<path d="M13.1047 65.3409L13.1049 65.3407C13.0567 65.3 13.0114 65.2393 13.0019 65.1722L13.0019 65.1724L13.0513 65.1649L13.0018 65.1719L13.1047 65.3409ZM13.1047 65.3409L13.1091 65.3439M13.1047 65.3409L13.1091 65.3439M13.1091 65.3439C13.1586 65.3773 13.211 65.3959 13.2658 65.3959L13.1091 65.3439ZM20.899 64.2084L20.8919 64.159L20.8995 64.2084L20.8991 64.2084L20.899 64.2084ZM20.899 64.2084L13.3235 65.3786M20.899 64.2084L13.3235 65.3786M13.3235 65.3786C13.3285 65.3748 13.333 65.3707 13.3371 65.3665L13.3015 65.3314L13.3091 65.3808L13.3235 65.3786ZM13.4792 64.8328L13.4298 64.8405L13.4373 64.8899L13.4867 64.8823L13.4792 64.8328ZM21.5662 59.9826L21.5661 59.9826L8.49139 33.568L8.49854 33.6175L8.4909 33.568L8.49114 33.568C8.42427 33.5778 8.36418 33.6239 8.32415 33.6725L8.32393 33.6724L8.32099 33.6768C8.28575 33.7303 8.26882 33.8002 8.27739 33.8697L8.27738 33.8697L8.27758 33.871L9.40684 41.3544L9.40681 41.3544L9.40711 41.356C9.43267 41.494 9.56227 41.6048 9.70861 41.577C9.84909 41.5503 9.94509 41.4174 9.92759 41.2757L9.92761 41.2757L9.9274 41.2743L8.83418 34.0501L33.522 30.2296L34.7153 38.141L34.7152 38.141L34.7155 38.1426C34.7416 38.2837 34.8725 38.382 35.014 38.3641L35.0155 38.3639C36.2813 38.1634 37.5543 38.4855 38.5873 39.2521C39.6201 40.0185 40.2992 41.1502 40.4902 42.4398L40.4902 42.44C40.8936 45.091 39.0821 47.5766 36.4652 47.9848L36.4652 47.9848L36.4636 47.9851C36.3231 48.0118 36.2271 48.1447 36.2446 48.2864L36.2446 48.2864L36.2448 48.2877L38.1671 61.0051L31.0879 62.1047C30.5264 59.304 27.8785 57.406 25.0582 57.842L25.0582 57.842C23.6512 58.0612 22.4101 58.8212 21.5662 59.9826ZM35.1929 37.8036C35.1769 37.8053 35.1609 37.807 35.1449 37.8089L35.1506 37.8585L35.2001 37.8511L35.1929 37.8036ZM38.7239 61.1855L38.7237 61.1842L38.5099 61.4872L38.5027 61.4377L38.5103 61.4871L38.5102 61.4872C38.577 61.4774 38.6371 61.4313 38.6771 61.3827L38.6773 61.3828L38.6803 61.3784C38.7155 61.3248 38.7324 61.255 38.7239 61.1855ZM30.9217 62.6593L30.9123 62.6102L30.92 62.6596L30.9208 62.6595C30.9211 62.6594 30.9214 62.6594 30.9217 62.6593ZM20.6131 63.7754L20.6055 63.726L20.5583 63.7333C20.56 63.7492 20.5617 63.7651 20.5634 63.781L20.6131 63.7754ZM36.7939 48.4103L36.7445 48.4178L36.7445 48.4178L36.754 48.4669C36.7697 48.4638 36.7854 48.4607 36.8011 48.4575L36.7939 48.4103Z" fill="#053844" stroke="#164854" stroke-width="0.1"/>
<path d="M24.0777 42.309C24.0491 42.309 24.0205 42.3017 23.9919 42.2872C23.8847 42.2366 23.8347 42.1135 23.8847 42.005L24.4994 40.601C24.5494 40.4924 24.6709 40.4417 24.7782 40.4924C24.8854 40.5431 24.9354 40.6661 24.8854 40.7746L24.2707 42.1787C24.235 42.2583 24.1563 42.309 24.0777 42.309Z" fill="white"/>
<path d="M22.684 44.9584C22.6268 44.9584 22.5768 44.9366 22.5339 44.8932L21.3046 43.6484C21.2188 43.5616 21.2188 43.4313 21.3046 43.3444C21.3903 43.2576 21.519 43.2576 21.6047 43.3444L22.8341 44.5892C22.9198 44.6761 22.9198 44.8064 22.8341 44.8932C22.7912 44.9439 22.7411 44.9584 22.684 44.9584Z" fill="white"/>
<path d="M25.0001 52.6078C24.9715 52.6078 24.9429 52.6006 24.9143 52.5861C24.8071 52.5354 24.7571 52.4124 24.8071 52.3038L25.4217 50.8998C25.4718 50.7912 25.5933 50.7406 25.7005 50.7912C25.8077 50.8419 25.8577 50.9649 25.8077 51.0735L25.193 52.4775C25.1644 52.5571 25.0858 52.6078 25.0001 52.6078Z" fill="white"/>
<path d="M48.6181 52.2026C48.6347 52.2083 48.6569 52.2139 48.679 52.2139C48.7012 52.2139 48.7233 52.2083 48.74 52.2139L59.3021 47.6613C60.2663 49.7215 62.6768 50.6702 64.766 49.772C66.2289 49.1433 67.2098 47.7567 67.3262 46.1513C67.3705 45.5169 67.2818 44.9051 67.0602 44.3213L72.4188 42.0141C72.5019 41.9748 72.5407 41.8794 72.5075 41.7952L59.5681 10.9433C59.5514 10.904 59.5182 10.8703 59.4794 10.8535C59.4351 10.8366 59.3907 10.8366 59.3519 10.8535L42.0736 18.2914L35.6787 21.042C35.5955 21.0813 35.5568 21.1767 35.59 21.2609L42.5002 37.7366C42.539 37.8208 42.6332 37.8601 42.7164 37.8264C44.6891 36.9788 46.9833 37.9162 47.8201 39.9146C48.6569 41.9131 47.7314 44.2258 45.7587 45.0791C45.6755 45.1184 45.6367 45.2138 45.67 45.298L48.5294 52.1128C48.546 52.1521 48.5793 52.1858 48.6181 52.2026Z" fill="white"/>
<path d="M48.679 52.2139C48.6569 52.2139 48.6347 52.2083 48.6181 52.2026C48.5793 52.1858 48.546 52.1521 48.5294 52.1128L45.67 45.298C45.6367 45.2138 45.6755 45.1184 45.7586 45.0791C47.7314 44.2258 48.6569 41.9131 47.8201 39.9146C46.9833 37.9162 44.6891 36.9788 42.7164 37.8264C42.6332 37.8601 42.539 37.8208 42.5002 37.7366L35.59 21.2609C35.5568 21.1767 35.5955 21.0813 35.6787 21.042L38.394 19.8744C38.4771 19.8407 38.5713 19.88 38.6101 19.9642C38.6434 20.0484 38.6046 20.1438 38.5214 20.1831L35.9557 21.289L42.7385 37.4615C44.8443 36.6532 47.2271 37.6692 48.1193 39.7912C49.006 41.9074 48.0695 44.3493 46.0357 45.3261L48.7677 51.8378L48.9395 51.7648L59.3298 47.2908C59.4129 47.2571 59.5071 47.2964 59.5459 47.3806C60.3827 49.379 62.6713 50.3165 64.6441 49.4689C65.9907 48.8907 66.8995 47.6108 67.0047 46.1288C67.0491 45.4945 66.9438 44.877 66.7 44.2988C66.6833 44.2595 66.6833 44.2146 66.7 44.1697C66.7166 44.1304 66.7498 44.0967 66.7886 44.0799L72.1417 41.7727L71.8646 41.1159L59.3298 11.2296L42.201 18.6001C42.1179 18.6338 42.0237 18.5945 41.9849 18.5103C41.9516 18.4261 41.9904 18.3307 42.0736 18.2914L59.3519 10.8535C59.3907 10.8366 59.4351 10.8366 59.4794 10.8535C59.5182 10.8703 59.5514 10.904 59.5681 10.9433L72.5075 41.7952C72.5407 41.8794 72.5019 41.9748 72.4188 42.0141L67.0602 44.3213C67.2818 44.9051 67.3705 45.5169 67.3262 46.1513C67.2098 47.7567 66.2289 49.1433 64.766 49.772C62.6768 50.6702 60.2663 49.7215 59.3021 47.6613L48.74 52.2139C48.7233 52.2083 48.7012 52.2139 48.679 52.2139Z" fill="#073E4B" stroke="#073E4B" stroke-width="0.3"/>
</svg>
