<svg width="82" height="82" viewBox="0 0 82 82" fill="none" xmlns="http://www.w3.org/2000/svg">
<circle opacity="0.1" cx="40.5" cy="41.5" r="40.5" fill="#2FBECA"/>
<circle cx="40.5" cy="41.4995" r="29.9019" fill="#2FBECA"/>
<circle cx="40.0182" cy="41.3351" r="21.6144" fill="white"/>
<path d="M40.0464 41.2572C39.9246 41.2572 39.8171 41.1714 39.8027 41.0498L36.3055 19.5766C36.2983 19.5122 36.3127 19.4479 36.3485 19.3907C36.3843 19.3406 36.4488 19.2977 36.5133 19.2906C42.3254 18.3467 48.1589 19.7196 52.9389 23.159C57.719 26.5913 60.8651 31.6825 61.8111 37.4817C61.8182 37.546 61.8039 37.6104 61.768 37.6676C61.7322 37.7176 61.6677 37.7605 61.6032 37.7677L40.0894 41.2572C40.0751 41.25 40.0607 41.2572 40.0464 41.2572Z" fill="white"/>
<path d="M39.7466 41.2572C39.6248 41.2572 39.5173 41.1714 39.5029 41.0498L36.0057 19.5766C35.9985 19.5122 36.0129 19.4479 36.0487 19.3907C36.0845 19.3406 36.149 19.2977 36.2135 19.2906C42.0256 18.3467 47.8591 19.7196 52.6391 23.159C57.4192 26.5913 60.5653 31.6825 61.5112 37.4817C61.5184 37.546 61.5041 37.6104 61.4682 37.6676C61.4324 37.7176 61.3679 37.7605 61.3034 37.7677L39.7896 41.2572C39.7753 41.25 39.7609 41.2572 39.7466 41.2572ZM36.536 19.741L39.9544 40.7209L60.9738 37.31C58.9671 25.8262 48.0884 18.0034 36.536 19.741Z" fill="#073E4B"/>
<path d="M40.0018 63C35.4152 63 30.9577 61.5699 27.1594 58.8455C22.3794 55.4132 19.2333 50.322 18.2873 44.53C16.338 32.5528 24.515 21.2334 36.5117 19.2884C48.5084 17.3363 59.8601 25.5023 61.8094 37.4795C62.7554 43.2787 61.3794 49.0992 57.9395 53.8615C54.4996 58.631 49.4042 61.7772 43.585 62.714C42.3882 62.8999 41.1914 63 40.0018 63ZM40.0591 19.4886C38.9125 19.4886 37.7587 19.5816 36.5905 19.7675C24.8662 21.6695 16.8755 32.7387 18.7818 44.4442C19.7063 50.1146 22.7879 55.0843 27.4533 58.4379C32.1258 61.7987 37.8232 63.1359 43.5062 62.2134C49.1892 61.291 54.1699 58.2163 57.531 53.5612C60.8921 48.899 62.2394 43.2143 61.3149 37.551C59.6021 27.0039 50.4362 19.4886 40.0591 19.4886Z" fill="#073E4B"/>
<path d="M57.6004 38.0033C57.5502 38.0033 57.5 37.989 57.457 37.9532L36.6814 23.0227C36.5667 22.9441 36.5452 22.7868 36.624 22.6724C36.7029 22.5579 36.8605 22.5365 36.9752 22.6152L57.7509 37.5528C57.8655 37.6314 57.887 37.7887 57.8082 37.9031C57.758 37.9675 57.6792 38.0033 57.6004 38.0033Z" fill="#073E4B"/>
<path d="M58.4602 30.0946C58.4101 30.0946 58.3599 30.0803 58.3169 30.0446L44.2849 19.9622C44.1702 19.8835 44.1487 19.7262 44.2276 19.6118C44.3064 19.4974 44.4641 19.4759 44.5787 19.5546L58.6107 29.637C58.7254 29.7156 58.7469 29.873 58.6681 29.9874C58.6179 30.0589 58.5391 30.0946 58.4602 30.0946Z" fill="#073E4B"/>
<path d="M48.0387 39.6699C47.9886 39.6699 47.9384 39.6556 47.8954 39.6199L38.1848 32.6409C38.0701 32.5622 38.0486 32.4049 38.1275 32.2905C38.2063 32.1761 38.364 32.1547 38.4786 32.2333L48.1892 39.2123C48.3039 39.291 48.3254 39.4483 48.2466 39.5627C48.1964 39.6342 48.1176 39.6699 48.0387 39.6699Z" fill="#073E4B"/>
</svg>
