<svg width="203" height="202" viewBox="0 0 203 202" fill="none" xmlns="http://www.w3.org/2000/svg">
<path d="M75 146.175L76.2786 149.785" stroke="#164854" stroke-width="0.75212" stroke-miterlimit="10" stroke-linecap="round" stroke-linejoin="round"/>
<path d="M68 147.98L69.2786 149.786" stroke="#164854" stroke-width="0.75212" stroke-miterlimit="10" stroke-linecap="round" stroke-linejoin="round"/>
<path d="M118.956 144.671L117 149.785" stroke="#164854" stroke-width="0.75212" stroke-miterlimit="10" stroke-linecap="round" stroke-linejoin="round"/>
<path d="M33.9555 144.671L32 149.785" stroke="#164854" stroke-width="0.75212" stroke-miterlimit="10" stroke-linecap="round" stroke-linejoin="round"/>
<circle cx="101" cy="101" r="101" fill="#F5F5F5"/>
<path d="M98 97H113.5" stroke="black"/>
<mask id="mask0" mask-type="alpha" maskUnits="userSpaceOnUse" x="1" y="0" width="202" height="202">
<circle cx="102" cy="101" r="101" fill="#F5F5F5"/>
</mask>
<g mask="url(#mask0)">
<path d="M123.379 162.949H110.614C110.39 162.949 110.168 162.895 109.967 162.791C109.765 162.687 109.589 162.535 109.45 162.348C109.312 162.16 109.216 161.942 109.169 161.709C109.122 161.477 109.126 161.236 109.179 161.005L110.448 155.567H93.8604L92.0744 161.359C91.9775 161.673 91.7897 161.947 91.5377 162.141C91.2856 162.335 90.9823 162.439 90.671 162.439H77.5234C77.3065 162.439 77.0923 162.389 76.896 162.291C76.6997 162.193 76.526 162.051 76.3874 161.874C76.2488 161.697 76.1486 161.489 76.094 161.266C76.0394 161.044 76.0316 160.811 76.0713 160.585L77.519 152.287C75.2677 151.019 70.1697 147.584 68.3453 141.593C64.9801 141.138 55.4681 138.457 54.0071 122.765C53.9745 122.413 54.0549 122.06 54.2351 121.763C54.4153 121.466 54.6847 121.242 54.9998 121.128L61.903 118.636C62.1167 113.855 63.8412 109.289 66.7986 105.675C64.3818 103.974 60.2824 100.391 59.012 94.9977C58.9371 94.6795 58.9581 94.3444 59.072 94.0395C59.186 93.7346 59.3871 93.4753 59.6472 93.2982C63.1834 91.2221 67.081 89.9323 71.1022 89.5075C75.1235 89.0826 79.1842 89.5317 83.0365 90.8272C86.3943 88.8611 103.151 80.0873 120.72 89.2594C121.407 89.5557 139.682 97.7258 143.545 114.121C143.734 114.82 148.213 132.796 124.506 162.395C124.367 162.569 124.194 162.708 124 162.804C123.805 162.9 123.593 162.949 123.379 162.949Z" fill="#104956"/>
<rect opacity="0.34" x="77" y="96" width="51" height="2" fill="#053844"/>
<path d="M125.021 96.8277H103.488H82.0022L104.167 67.1006H147.292L125.021 96.8277Z" fill="#187186"/>
<path d="M89.3398 51.4707L104.203 67.1441H147.329L132.382 51.4707H89.3398Z" fill="#187186"/>
<path opacity="0.1" d="M89.3398 51.4707L104.203 67.1441H147.329L132.382 51.4707H89.3398Z" fill="white"/>
<path d="M63 1L104.405 39.6734H147.531L106.042 1H63Z" fill="#187186"/>
<path opacity="0.1" d="M63 1L104.405 39.6734H147.531L106.042 1H63Z" fill="white"/>
<path d="M89.3398 51.7555L104.203 39H147.329L132.382 51.7555H89.3398Z" fill="#187186"/>
<path d="M124 76H105L103 78H122L124 76Z" fill="#FFD43B"/>
<path d="M132 57H107L109 59H134L132 57Z" fill="white"/>
<path d="M134 61H109L111 63H136L134 61Z" fill="#FFD43B"/>
<path d="M128 28H98L100 30H130L128 28Z" fill="white"/>
<path d="M128 46H109L107 48H126L128 46Z" fill="#FFD43B"/>
<path d="M131 81H102L100 83H129L131 81Z" fill="white"/>
<path d="M134 34H102L105 37H137L134 34Z" fill="white"/>
</g>
<path fill-rule="evenodd" clip-rule="evenodd" d="M100.544 8.54547C100.293 8.24559 99.8463 8.20614 99.5464 8.45736C99.2466 8.70858 99.2071 9.15533 99.4583 9.45521L100.196 10.3361C99.3292 10.4287 98.5042 10.6662 97.8331 11.0407C96.9649 11.5252 96.2891 12.2899 96.2891 13.2503C96.2891 14.2106 96.9649 14.9753 97.8331 15.4598C98.7168 15.9529 99.8671 16.2086 101.029 16.2086H105.116L107.699 19.2919H99.3942C99.003 19.2919 98.6859 19.6091 98.6859 20.0003C98.6859 20.3915 99.003 20.7086 99.3942 20.7086H108.886L109.755 21.7467C110.006 22.0465 110.453 22.086 110.753 21.8348C111.053 21.5835 111.092 21.1368 110.841 20.8369L110.622 20.5752C111.265 20.4526 111.869 20.2463 112.382 19.9598C113.373 19.4069 113.951 18.3521 113.607 17.1879C113.432 16.5928 113.047 15.9979 112.534 15.548C112.018 15.095 111.326 14.7514 110.531 14.7514C109.925 14.7514 109.252 14.7616 108.601 14.7717L108.548 14.7726L108.548 14.7726C107.913 14.7824 107.303 14.7919 106.789 14.7919H105.777L103.194 11.7086H109.669C110.06 11.7086 110.377 11.3915 110.377 11.0003C110.377 10.6091 110.06 10.2919 109.669 10.2919H102.007L100.544 8.54547ZM101.346 11.7086H101.029C100.053 11.7086 99.152 11.9271 98.5235 12.2778C97.8794 12.6372 97.7057 13.0171 97.7057 13.2503C97.7057 13.4834 97.8794 13.8633 98.5235 14.2227C99.152 14.5735 100.053 14.7919 101.029 14.7919H103.929L101.346 11.7086ZM106.964 16.2083L109.539 19.2824C110.378 19.2367 111.14 19.0308 111.691 18.7227C112.213 18.4317 112.372 18.0055 112.249 17.5887C112.154 17.2678 111.925 16.8984 111.6 16.613C111.278 16.3308 110.906 16.1681 110.531 16.1681C109.938 16.1681 109.276 16.1781 108.623 16.1882L108.564 16.1892C108.002 16.1979 107.449 16.2065 106.964 16.2083Z" fill="#FFD43B"/>
</svg>
