<svg width="82" height="82" viewBox="0 0 82 82" fill="none" xmlns="http://www.w3.org/2000/svg">
<path fill-rule="evenodd" clip-rule="evenodd" d="M45.5991 38.3711H19V56.2362H28.6014L29.5421 61.0002L35.2325 56.2362H45.5991V38.3711Z" fill="white"/>
<path d="M19 38.3711V37.8711H18.5V38.3711H19ZM45.5991 38.3711H46.0991V37.8711H45.5991V38.3711ZM19 56.2362H18.5V56.7362H19V56.2362ZM28.6014 56.2362L29.0919 56.1393L29.0123 55.7362H28.6014V56.2362ZM29.5421 61.0002L29.0515 61.0971L29.2152 61.926L29.863 61.3836L29.5421 61.0002ZM35.2325 56.2362V55.7362H35.0508L34.9115 55.8528L35.2325 56.2362ZM45.5991 56.2362V56.7362H46.0991V56.2362H45.5991ZM19 38.8711H45.5991V37.8711H19V38.8711ZM19.5 56.2362V38.3711H18.5V56.2362H19.5ZM28.6014 55.7362H19V56.7362H28.6014V55.7362ZM30.0326 60.9034L29.0919 56.1393L28.1108 56.333L29.0515 61.0971L30.0326 60.9034ZM34.9115 55.8528L29.2211 60.6169L29.863 61.3836L35.5534 56.6196L34.9115 55.8528ZM45.5991 55.7362H35.2325V56.7362H45.5991V55.7362ZM45.0991 38.3711V56.2362H46.0991V38.3711H45.0991Z" fill="#073E4B"/>
<path fill-rule="evenodd" clip-rule="evenodd" d="M61.3414 21H24.9712V45.4278H41.2727L48.5854 51.6704L50.2102 45.4278H61.3414V21Z" fill="white"/>
<path d="M24.9712 21V20.5H24.4712V21H24.9712ZM61.3414 21H61.8414V20.5H61.3414V21ZM24.9712 45.4278H24.4712V45.9278H24.9712V45.4278ZM41.2727 45.4278L41.5974 45.0475L41.4571 44.9278H41.2727V45.4278ZM48.5854 51.6704L48.2608 52.0507L48.8682 52.5692L49.0693 51.7964L48.5854 51.6704ZM50.2102 45.4278V44.9278H49.8237L49.7263 45.3018L50.2102 45.4278ZM61.3414 45.4278V45.9278H61.8414V45.4278H61.3414ZM24.9712 21.5H61.3414V20.5H24.9712V21.5ZM25.4712 45.4278V21H24.4712V45.4278H25.4712ZM41.2727 44.9278H24.9712V45.9278H41.2727V44.9278ZM48.9101 51.2902L41.5974 45.0475L40.9481 45.8081L48.2608 52.0507L48.9101 51.2902ZM49.7263 45.3018L48.1015 51.5445L49.0693 51.7964L50.6941 45.5537L49.7263 45.3018ZM61.3414 44.9278H50.2102V45.9278H61.3414V44.9278ZM60.8414 21V45.4278H61.8414V21H60.8414Z" fill="#073E4B"/>
</svg>
