<?xml version="1.0" encoding="UTF-8"?>
<svg width="774px" height="373px" viewBox="0 0 774 373" version="1.1" xmlns="http://www.w3.org/2000/svg" xmlns:xlink="http://www.w3.org/1999/xlink">
    <title>Slice</title>
    <g id="Page-1" stroke="none" stroke-width="1" fill="none" fill-rule="evenodd">
        <g id="Group" transform="translate(142.000000, 101.000000)" fill-rule="nonzero">
            <circle id="circle4" fill="#FF4500" cx="439.4" cy="57.7" r="10.6"></circle>
            <path d="M288,102.9 C293.2,102.9 296.2,99 296,95.2 C295.9,93.2 295.7,91.9 295.5,90.9 C292.3,77.1 281.1,66.9 267.8,66.9 C252,66.9 239.2,81.2 239.2,98.8 C239.2,116.4 252,130.7 267.8,130.7 C277.7,130.7 284.8,127.1 289.9,121.4 C292.4,118.6 291.9,114.3 288.9,112.2 C286.4,110.5 283.3,111.1 281,113 C278.8,114.9 274.6,118.7 267.8,118.7 C259.8,118.7 253,111.8 251.5,102.7 L288,102.7 L288,102.9 Z M267.7,79 C274.9,79 281.1,84.6 283.4,92.3 L252,92.3 C254.3,84.5 260.5,79 267.7,79 Z M239.8,73.2 C239.792168,70.2782609 237.680886,67.7869478 234.8,67.3 C226.726043,65.883328 218.506037,68.8516636 213.2,75.1 L213.2,74.3 C213.2,70.6 210.2,68.3 207.2,68.3 C203.886292,68.3 201.2,70.9862915 201.2,74.3 L201.2,123.3 C201.2,126.5 203.6,129.3 206.8,129.5 C208.459395,129.610877 210.090372,129.028032 211.303662,127.890572 C212.516951,126.753113 213.2037,125.163091 213.2,123.5 L213.2,98.2 C213.2,87 221.6,77.8 233.2,79.1 L234.4,79.1 C237.4,78.9 239.8,76.3 239.8,73.2 L239.8,73.2 Z M445.4,79.6 C445.4,76.3 442.7,73.6 439.4,73.6 C436.1,73.6 433.4,76.3 433.4,79.6 L433.4,123.5 C433.4,126.8 436.1,129.5 439.4,129.5 C442.7,129.5 445.4,126.8 445.4,123.5 L445.4,79.6 Z M356.200007,46.4 C356.200007,43.0862915 353.513708,40.4 350.2,40.4 C346.886292,40.4 344.2,43.0862915 344.2,46.4 L344.2,73.1 C340.163369,69.0377914 334.62423,66.8293766 328.9,67 C313.1,67 300.3,81.3 300.3,98.9 C300.3,116.5 313.1,130.8 328.9,130.8 C334.667006,130.936212 340.236109,128.694106 344.3,124.6 C344.864188,127.651531 347.6622,129.769333 350.752274,129.483696 C353.842349,129.198059 356.204741,126.603245 356.200007,123.5 L356.200007,46.4 L356.200007,46.4 Z M329,118.9 C319.8,118.9 312.4,110 312.4,98.9 C312.4,87.9 319.8,78.9 329,78.9 C338.2,78.9 345.6,87.8 345.6,98.9 C345.6,110 338.1,118.9 329,118.9 Z M418.800007,46.4 C418.800007,43.0862915 416.113708,40.4 412.8,40.4 C409.486292,40.4 406.8,43.0862915 406.8,46.4 L406.8,73.1 C402.763369,69.0377914 397.22423,66.8293766 391.5,67 C375.7,67 362.9,81.3 362.9,98.9 C362.9,116.5 375.7,130.8 391.5,130.8 C397.267006,130.936212 402.836109,128.694106 406.9,124.6 C407.464188,127.651531 410.2622,129.769333 413.352274,129.483696 C416.442349,129.198059 418.804741,126.603245 418.800007,123.5 L418.800007,46.4 L418.800007,46.4 Z M391.5,118.9 C382.3,118.9 374.9,110 374.9,98.9 C374.9,87.9 382.3,78.9 391.5,78.9 C400.7,78.9 408.1,87.8 408.1,98.9 C408.1,110 400.7,118.9 391.5,118.9 Z M475.8,123.6 L475.8,79 L481.1,79 C483.9,79 486.4,76.9 486.6,74 C486.681793,72.5338098 486.162941,71.0975395 485.162996,70.0221265 C484.163051,68.9467136 482.768259,68.3249142 481.3,68.3 L475.8,68.3 L475.8,59.9 C475.8,56.7 473.4,53.9 470.2,53.7 C468.540605,53.5891229 466.909628,54.1719685 465.696338,55.3094276 C464.483049,56.4468867 463.7963,58.036909 463.8,59.7 L463.8,68.4 L458.8,68.4 C455.947444,68.3881903 453.559301,70.5592296 453.3,73.4 C453.218207,74.8661902 453.737059,76.3024605 454.737004,77.3778735 C455.736949,78.4532864 457.131741,79.0750858 458.6,79.1 L463.7,79.1 L463.7,123.7 C463.7,127.013708 466.386292,129.7 469.7,129.7 C473.2,129.5 475.8,126.9 475.8,123.6 L475.8,123.6 Z" id="path6" fill="#222222"></path>
            <circle id="circle8" fill="#FF4500" cx="83.8" cy="83.8" r="83.8"></circle>
            <path d="M139.700097,83.8 C139.719532,78.8891116 136.792643,74.4452541 132.273161,72.5239285 C127.753679,70.602603 122.522776,71.5784135 119,75 C110.6,69 99.1,65.1 86.3,64.6 L91.9,38.4 L110.1,42.3 C110.268152,46.6831823 113.673026,50.2556506 118.043081,50.6340535 C122.413135,51.0124565 126.381406,48.0784288 127.300486,43.7893899 C128.219566,39.500351 125.801964,35.1979218 121.660569,33.7524427 C117.519174,32.3069637 112.949423,34.1705839 111,38.1 L90.7,33.8 C90.1,33.7 89.5,33.8 89.1,34.1 C88.6108537,34.413752 88.2823599,34.9247424 88.2,35.5 L82,64.7 C69,65.1 57.3,69 48.8,75.1 C45.3005744,71.7312501 40.136142,70.7593822 35.6515629,72.6256635 C31.1669838,74.4919449 28.2167821,78.8407607 28.1404681,83.6975736 C28.0641541,88.5543865 30.8762692,92.9937444 35.3,95 C35.1,96.2 35,97.4 35,98.7 C35,117.5 56.9,132.8 83.9,132.8 C110.9,132.8 132.8,117.6 132.8,98.7 C132.799854,97.4605981 132.699528,96.2232358 132.5,95 C136.7,93.1 139.700097,88.8 139.700097,83.8 Z M55.9,92.5 C55.9,89.3917893 57.5582105,86.5196841 60.2499999,84.9655787 C62.9417893,83.4114733 66.2582107,83.4114733 68.9500001,84.9655787 C71.6417895,86.5196841 73.3,89.3917893 73.3,92.5 C73.3,97.3048773 69.4048773,101.2 64.6,101.2 C59.7951227,101.2 55.9,97.3048773 55.9,92.5 L55.9,92.5 Z M104.6,115.6 C98.6,121.6 87.2,122 83.9,122 C80.5,122 69.1,121.5 63.2,115.6 C62.3,114.7 62.3,113.3 63.2,112.4 C64.1,111.5 65.5,111.5 66.4,112.4 C70.2,116.2 78.2,117.5 83.9,117.5 C89.6,117.5 97.7,116.2 101.4,112.4 C102.3,111.5 103.7,111.5 104.6,112.4 C105.4,113.3 105.4,114.7 104.6,115.6 Z M103,101.3 C98.1951227,101.3 94.3,97.4048773 94.3,92.6 C94.3,87.7951227 98.1951227,83.9 103,83.9 C107.804877,83.9 111.7,87.7951227 111.7,92.6 C111.7,97.4048773 107.804877,101.3 103,101.3 L103,101.3 Z" id="path10" fill="#FFFFFF"></path>
        </g>
    </g>
</svg>