<svg xmlns="http://www.w3.org/2000/svg" viewBox="0 0 94 122">
  <g id="container">
    <path fill="#fff" d="M8.1 89.9L47.6 110l38-20.1V11.3H8.1z"/>
    <path fill="#f2f3f2" d="M86.4 11.6L7.3 91.3l41 20.3 38.1-19.5z"/>
    <path d="M5.5 37.5v54.1l1.4.7 39.5 20.1 1.2.6 1.2-.6 38.1-20.1 1.4-.7V8.7H5.5v28.8zm2.6 52.6V11.3h77.6v78.8l-38.1 20.1L8.1 90.1z" fill="#dcdedc"/>
    <path id="logo" d="M46.9 12.6c.4 0 .8 0 1.2.1L46.9 15c-1.8-.1-3.4 1.3-3.5 3.1-.1 1.8 1.3 3.4 3.1 3.5h.4c.8 0 1.6-.3 2.2-.8l1.3 2.2c-1 .7-2.2 1.1-3.5 1.1-3.2.1-5.9-2.3-6-5.5-.1-3.2 2.3-5.9 5.5-6h.5zm4.1 4.9l1.5 2.5-1.5 2.4-1.4-2.4h-2.9l1.5-2.5H51zm-2.4-.9c0-.4.1-.8.3-1.1.2-.3.6-.6.9-.8l.2-.1c.4-.2.5-.3.5-.5s-.3-.4-.5-.4c-.4 0-.7.2-.9.6l-.5-.5c.1-.2.3-.4.5-.6.3-.2.6-.2.9-.2.3 0 .7.1.9.3.2.2.4.5.4.8 0 .5-.3.9-.9 1.1l-.3.2c-.3.2-.5.3-.6.6h1.8v.7l-2.7-.1zm-1.7 12.5l9.5-5.4v-15H37.3v14.9l9.6 5.5z" fill="#ff492c"/>
    <path id="banner" d="M90.2 64.5H3.6l-3.2 7 3.2 7h86.6l3.1-7z" fill="#ffd200"/>
  <path fill="#252530" transform="translate(24.83, 60)" d="M8.16-10.50Q8.23-10.50 8.29-10.45Q8.34-10.39 8.34-10.32L8.34-10.32L8.34-8.85Q8.34-8.78 8.29-8.72Q8.23-8.67 8.16-8.67L8.16-8.67L5.47-8.67Q5.40-8.67 5.40-8.59L5.40-8.59L5.40-0.18Q5.40-0.10 5.35-0.05Q5.29 0 5.22 0L5.22 0L3.46 0Q3.39 0 3.34-0.05Q3.28-0.10 3.28-0.18L3.28-0.18L3.28-8.59Q3.28-8.67 3.21-8.67L3.21-8.67L0.60-8.67Q0.53-8.67 0.47-8.72Q0.42-8.78 0.42-8.85L0.42-8.85L0.42-10.32Q0.42-10.39 0.47-10.45Q0.53-10.50 0.60-10.50L0.60-10.50L8.16-10.50ZM11.70 0.12Q10.44 0.12 9.54-0.54Q8.64-1.20 8.31-2.34L8.31-2.34Q8.10-3.04 8.10-3.87L8.10-3.87Q8.10-4.75 8.31-5.46L8.31-5.46Q8.66-6.57 9.55-7.20Q10.46-7.83 11.71-7.83L11.71-7.83Q12.95-7.83 13.82-7.21Q14.69-6.58 15.04-5.47L15.04-5.47Q15.29-4.72 15.29-3.90L15.29-3.90Q15.29-3.09 15.07-2.38L15.07-2.38Q14.75-1.21 13.85-0.55Q12.96 0.12 11.70 0.12L11.70 0.12ZM11.70-1.69Q12.20-1.69 12.54-1.99Q12.89-2.29 13.04-2.82L13.04-2.82Q13.16-3.30 13.16-3.87L13.16-3.87Q13.16-4.50 13.04-4.93L13.04-4.93Q12.87-5.44 12.53-5.73Q12.18-6.01 11.69-6.01L11.69-6.01Q11.18-6.01 10.84-5.73Q10.50-5.44 10.35-4.93L10.35-4.93Q10.23-4.58 10.23-3.87L10.23-3.87Q10.23-3.19 10.34-2.82L10.34-2.82Q10.48-2.29 10.84-1.99Q11.19-1.69 11.70-1.69L11.70-1.69ZM23.59 0.12Q22.44 0.12 21.56-0.33Q20.69-0.78 20.20-1.60Q19.71-2.42 19.71-3.48L19.71-3.48L19.71-10.32Q19.71-10.39 19.76-10.45Q19.82-10.50 19.89-10.50L19.89-10.50L21.64-10.50Q21.72-10.50 21.77-10.45Q21.83-10.39 21.83-10.32L21.83-10.32L21.83-3.46Q21.83-2.67 22.31-2.18Q22.80-1.69 23.59-1.69L23.59-1.69Q24.39-1.69 24.88-2.18Q25.37-2.67 25.37-3.46L25.37-3.46L25.37-10.32Q25.37-10.39 25.42-10.45Q25.47-10.50 25.55-10.50L25.55-10.50L27.30-10.50Q27.38-10.50 27.43-10.45Q27.48-10.39 27.48-10.32L27.48-10.32L27.48-3.48Q27.48-2.42 26.99-1.60Q26.51-0.78 25.63-0.33Q24.75 0.12 23.59 0.12L23.59 0.12ZM32.16 0.10Q31.16 0.10 30.41-0.18Q29.66-0.46 29.24-0.97Q28.83-1.48 28.83-2.13L28.83-2.13L28.83-2.28Q28.83-2.35 28.88-2.41Q28.93-2.46 29.01-2.46L29.01-2.46L30.68-2.46Q30.75-2.46 30.80-2.41Q30.86-2.35 30.86-2.28L30.86-2.28L30.86-2.27Q30.86-1.93 31.22-1.70Q31.59-1.47 32.14-1.47L32.14-1.47Q32.66-1.47 32.97-1.67Q33.28-1.88 33.28-2.17L33.28-2.17Q33.28-2.44 33.02-2.58Q32.74-2.71 32.13-2.86L32.13-2.86Q31.43-3.04 31.02-3.21L31.02-3.21Q30.06-3.54 29.49-4.02Q28.92-4.50 28.92-5.40L28.92-5.40Q28.92-6.51 29.78-7.16Q30.64-7.81 32.07-7.81L32.07-7.81Q33.03-7.81 33.75-7.51Q34.47-7.20 34.87-6.64Q35.27-6.09 35.27-5.38L35.27-5.38Q35.27-5.31 35.21-5.26Q35.16-5.21 35.09-5.21L35.09-5.21L33.48-5.21Q33.41-5.21 33.35-5.26Q33.30-5.31 33.30-5.38L33.30-5.38Q33.30-5.71 32.96-5.94Q32.63-6.17 32.07-6.17L32.07-6.17Q31.57-6.17 31.26-5.98Q30.95-5.80 30.95-5.49L30.95-5.49Q30.95-5.19 31.25-5.04Q31.56-4.89 32.28-4.72L32.28-4.72Q32.45-4.68 32.66-4.63Q32.87-4.58 33.10-4.50L33.10-4.50Q34.17-4.18 34.78-3.69Q35.40-3.19 35.40-2.25L35.40-2.25Q35.40-1.14 34.52-0.52Q33.64 0.10 32.16 0.10L32.16 0.10ZM43.44-4.65Q43.53-4.08 43.50-3.38L43.50-3.38Q43.48-3.19 43.30-3.19L43.30-3.19L38.67-3.19Q38.58-3.19 38.61-3.12L38.61-3.12Q38.66-2.82 38.77-2.52L38.77-2.52Q39.16-1.68 40.37-1.68L40.37-1.68Q41.33-1.69 41.88-2.46L41.88-2.46Q41.94-2.55 42.02-2.55L42.02-2.55Q42.06-2.55 42.12-2.49L42.12-2.49L43.20-1.43Q43.27-1.35 43.27-1.29L43.27-1.29Q43.27-1.26 43.22-1.17L43.22-1.17Q42.72-0.55 41.94-0.22Q41.16 0.12 40.23 0.12L40.23 0.12Q38.94 0.12 38.05-0.46Q37.16-1.05 36.77-2.10L36.77-2.10Q36.45-2.85 36.45-4.06L36.45-4.06Q36.45-4.89 36.68-5.52L36.68-5.52Q37.02-6.58 37.88-7.21Q38.74-7.84 39.93-7.84L39.93-7.84Q41.43-7.84 42.34-6.97Q43.25-6.10 43.44-4.65L43.44-4.65ZM39.95-6.01Q39-6.01 38.70-5.13L38.70-5.13Q38.64-4.93 38.59-4.65L38.59-4.65Q38.59-4.58 38.67-4.58L38.67-4.58L41.27-4.58Q41.36-4.58 41.33-4.65L41.33-4.65Q41.25-5.08 41.25-5.07L41.25-5.07Q41.12-5.52 40.78-5.77Q40.44-6.01 39.95-6.01L39.95-6.01Z"/><path fill="#252530" transform="translate(21.66, 45)" d="M8.21-8.87Q8.21-8.79 8.15-8.74Q8.10-8.69 8.03-8.69L8.03-8.69L3.10-8.69Q3.03-8.69 3.03-8.61L3.03-8.61L3.03-6.29Q3.03-6.21 3.10-6.21L3.10-6.21L6.33-6.21Q6.40-6.21 6.46-6.16Q6.51-6.10 6.51-6.03L6.51-6.03L6.51-4.58Q6.51-4.50 6.46-4.45Q6.40-4.39 6.33-4.39L6.33-4.39L3.10-4.39Q3.03-4.39 3.03-4.32L3.03-4.32L3.03-1.89Q3.03-1.81 3.10-1.81L3.10-1.81L8.03-1.81Q8.10-1.81 8.15-1.76Q8.21-1.71 8.21-1.64L8.21-1.64L8.21-0.18Q8.21-0.10 8.15-0.05Q8.10 0 8.03 0L8.03 0L1.09 0Q1.02 0 0.97-0.05Q0.91-0.10 0.91-0.18L0.91-0.18L0.91-10.32Q0.91-10.39 0.97-10.45Q1.02-10.50 1.09-10.50L1.09-10.50L8.03-10.50Q8.10-10.50 8.15-10.45Q8.21-10.39 8.21-10.32L8.21-10.32L8.21-8.87ZM12.62-7.83Q13.59-7.83 14.36-7.49Q15.12-7.15 15.55-6.57Q15.97-5.98 15.97-5.26L15.97-5.26L15.97-0.18Q15.97-0.10 15.92-0.05Q15.87 0 15.79 0L15.79 0L14.04 0Q13.96 0 13.91-0.05Q13.86-0.10 13.86-0.18L13.86-0.18L13.86-0.67Q13.86-0.72 13.83-0.73Q13.80-0.75 13.77-0.70L13.77-0.70Q13.14 0.12 11.74 0.12L11.74 0.12Q10.57 0.12 9.86-0.45Q9.13-1.02 9.13-2.13L9.13-2.13Q9.13-3.28 9.95-3.92Q10.75-4.56 12.25-4.56L12.25-4.56L13.79-4.56Q13.86-4.56 13.86-4.63L13.86-4.63L13.86-4.96Q13.86-5.46 13.56-5.74Q13.26-6.01 12.66-6.01L12.66-6.01Q12.20-6.01 11.89-5.85Q11.58-5.68 11.49-5.38L11.49-5.38Q11.45-5.22 11.29-5.23L11.29-5.23L9.48-5.47Q9.30-5.50 9.31-5.61L9.31-5.61Q9.38-6.24 9.82-6.75Q10.26-7.26 10.99-7.54Q11.71-7.83 12.62-7.83L12.62-7.83ZM12.31-1.45Q12.96-1.45 13.41-1.80Q13.86-2.15 13.86-2.69L13.86-2.69L13.86-3.23Q13.86-3.30 13.79-3.30L13.79-3.30L12.71-3.30Q12.03-3.30 11.65-3.04Q11.27-2.79 11.27-2.32L11.27-2.32Q11.27-1.92 11.55-1.69Q11.83-1.45 12.31-1.45L12.31-1.45ZM20.54 0.10Q19.53 0.10 18.78-0.18Q18.03-0.46 17.62-0.97Q17.20-1.48 17.20-2.13L17.20-2.13L17.20-2.28Q17.20-2.35 17.26-2.41Q17.31-2.46 17.38-2.46L17.38-2.46L19.05-2.46Q19.13-2.46 19.18-2.41Q19.23-2.35 19.23-2.28L19.23-2.28L19.23-2.27Q19.23-1.93 19.60-1.70Q19.96-1.47 20.52-1.47L20.52-1.47Q21.03-1.47 21.34-1.67Q21.66-1.88 21.66-2.17L21.66-2.17Q21.66-2.44 21.39-2.58Q21.12-2.71 20.50-2.86L20.50-2.86Q19.80-3.04 19.39-3.21L19.39-3.21Q18.43-3.54 17.86-4.02Q17.29-4.50 17.29-5.40L17.29-5.40Q17.29-6.51 18.16-7.16Q19.02-7.81 20.45-7.81L20.45-7.81Q21.41-7.81 22.13-7.51Q22.84-7.20 23.24-6.64Q23.64-6.09 23.64-5.38L23.64-5.38Q23.64-5.31 23.59-5.26Q23.54-5.21 23.46-5.21L23.46-5.21L21.86-5.21Q21.78-5.21 21.73-5.26Q21.68-5.31 21.68-5.38L21.68-5.38Q21.68-5.71 21.34-5.94Q21-6.17 20.45-6.17L20.45-6.17Q19.95-6.17 19.63-5.98Q19.32-5.80 19.32-5.49L19.32-5.49Q19.32-5.19 19.63-5.04Q19.93-4.89 20.66-4.72L20.66-4.72Q20.82-4.68 21.03-4.63Q21.24-4.58 21.48-4.50L21.48-4.50Q22.55-4.18 23.16-3.69Q23.77-3.19 23.77-2.25L23.77-2.25Q23.77-1.14 22.90-0.52Q22.02 0.10 20.54 0.10L20.54 0.10ZM26.13-8.58Q25.62-8.58 25.28-8.92Q24.95-9.25 24.95-9.76L24.95-9.76Q24.95-10.29 25.28-10.62Q25.61-10.95 26.13-10.95L26.13-10.95Q26.66-10.95 26.98-10.62Q27.32-10.29 27.32-9.76L27.32-9.76Q27.32-9.25 26.98-8.92Q26.64-8.58 26.13-8.58L26.13-8.58ZM25.23 0Q25.16 0 25.10-0.05Q25.05-0.10 25.05-0.18L25.05-0.18L25.05-7.54Q25.05-7.62 25.10-7.67Q25.16-7.72 25.23-7.72L25.23-7.72L26.98-7.72Q27.06-7.72 27.11-7.67Q27.16-7.62 27.16-7.54L27.16-7.54L27.16-0.18Q27.16-0.10 27.11-0.05Q27.06 0 26.98 0L26.98 0L25.23 0ZM35.64-4.65Q35.73-4.08 35.70-3.38L35.70-3.38Q35.69-3.19 35.51-3.19L35.51-3.19L30.87-3.19Q30.78-3.19 30.81-3.12L30.81-3.12Q30.86-2.82 30.98-2.52L30.98-2.52Q31.37-1.68 32.56-1.68L32.56-1.68Q33.52-1.69 34.08-2.46L34.08-2.46Q34.14-2.55 34.22-2.55L34.22-2.55Q34.26-2.55 34.32-2.49L34.32-2.49L35.40-1.43Q35.48-1.35 35.48-1.29L35.48-1.29Q35.48-1.26 35.41-1.17L35.41-1.17Q34.92-0.55 34.14-0.22Q33.36 0.12 32.43 0.12L32.43 0.12Q31.14 0.12 30.25-0.46Q29.36-1.05 28.96-2.10L28.96-2.10Q28.65-2.85 28.65-4.06L28.65-4.06Q28.65-4.89 28.88-5.52L28.88-5.52Q29.22-6.58 30.08-7.21Q30.95-7.84 32.13-7.84L32.13-7.84Q33.63-7.84 34.54-6.97Q35.45-6.10 35.64-4.65L35.64-4.65ZM32.14-6.01Q31.20-6.01 30.90-5.13L30.90-5.13Q30.84-4.93 30.80-4.65L30.80-4.65Q30.80-4.58 30.87-4.58L30.87-4.58L33.47-4.58Q33.55-4.58 33.52-4.65L33.52-4.65Q33.45-5.08 33.45-5.07L33.45-5.07Q33.31-5.52 32.98-5.77Q32.64-6.01 32.14-6.01L32.14-6.01ZM39.98 0.10Q38.97 0.10 38.22-0.18Q37.47-0.46 37.06-0.97Q36.65-1.48 36.65-2.13L36.65-2.13L36.65-2.28Q36.65-2.35 36.70-2.41Q36.75-2.46 36.83-2.46L36.83-2.46L38.49-2.46Q38.57-2.46 38.62-2.41Q38.67-2.35 38.67-2.28L38.67-2.28L38.67-2.27Q38.67-1.93 39.04-1.70Q39.41-1.47 39.96-1.47L39.96-1.47Q40.47-1.47 40.79-1.67Q41.10-1.88 41.10-2.17L41.10-2.17Q41.10-2.44 40.83-2.58Q40.56-2.71 39.95-2.86L39.95-2.86Q39.24-3.04 38.84-3.21L38.84-3.21Q37.88-3.54 37.31-4.02Q36.74-4.50 36.74-5.40L36.74-5.40Q36.74-6.51 37.60-7.16Q38.46-7.81 39.89-7.81L39.89-7.81Q40.85-7.81 41.57-7.51Q42.29-7.20 42.68-6.64Q43.08-6.09 43.08-5.38L43.08-5.38Q43.08-5.31 43.03-5.26Q42.98-5.21 42.90-5.21L42.90-5.21L41.30-5.21Q41.22-5.21 41.17-5.26Q41.12-5.31 41.12-5.38L41.12-5.38Q41.12-5.71 40.78-5.94Q40.44-6.17 39.89-6.17L39.89-6.17Q39.39-6.17 39.08-5.98Q38.76-5.80 38.76-5.49L38.76-5.49Q38.76-5.19 39.07-5.04Q39.38-4.89 40.10-4.72L40.10-4.72Q40.26-4.68 40.47-4.63Q40.68-4.58 40.92-4.50L40.92-4.50Q41.99-4.18 42.60-3.69Q43.22-3.19 43.22-2.25L43.22-2.25Q43.22-1.14 42.34-0.52Q41.46 0.10 39.98 0.10L39.98 0.10ZM48.84-6.19Q48.84-6.12 48.79-6.07Q48.74-6.01 48.66-6.01L48.66-6.01L47.22-6.01Q47.15-6.01 47.15-5.94L47.15-5.94L47.15-2.76Q47.15-2.27 47.35-2.02Q47.55-1.78 48.00-1.78L48.00-1.78L48.50-1.78Q48.57-1.78 48.62-1.73Q48.68-1.68 48.68-1.60L48.68-1.60L48.68-0.18Q48.68-0.01 48.50 0.01L48.50 0.01Q47.87 0.04 47.60 0.04L47.60 0.04Q46.35 0.04 45.74-0.37Q45.12-0.78 45.11-1.92L45.11-1.92L45.11-5.94Q45.11-6.01 45.03-6.01L45.03-6.01L44.18-6.01Q44.10-6.01 44.05-6.07Q44.00-6.12 44.00-6.19L44.00-6.19L44.00-7.53Q44.00-7.60 44.05-7.66Q44.10-7.71 44.18-7.71L44.18-7.71L45.03-7.71Q45.11-7.71 45.11-7.79L45.11-7.79L45.11-9.57Q45.11-9.64 45.16-9.70Q45.21-9.75 45.29-9.75L45.29-9.75L46.97-9.75Q47.04-9.75 47.09-9.70Q47.15-9.64 47.15-9.57L47.15-9.57L47.15-7.79Q47.15-7.71 47.22-7.71L47.22-7.71L48.66-7.71Q48.74-7.71 48.79-7.66Q48.84-7.60 48.84-7.53L48.84-7.53L48.84-6.19Z"/><path fill="#242530" transform="translate(21.79, 75.4)" d="M5.24-6.92Q5.29-7 5.38-7L5.38-7L6.30-7Q6.35-7 6.38-6.96Q6.42-6.93 6.42-6.88L6.42-6.88L6.42-0.12Q6.42-0.07 6.38-0.04Q6.35 0 6.30 0L6.30 0L5.38 0Q5.33 0 5.29-0.04Q5.26-0.07 5.26-0.12L5.26-0.12L5.26-4.89Q5.26-4.92 5.24-4.93Q5.21-4.94 5.20-4.91L5.20-4.91L3.95-2.99Q3.90-2.91 3.81-2.91L3.81-2.91L3.35-2.91Q3.26-2.91 3.21-2.99L3.21-2.99L1.95-4.90Q1.94-4.93 1.92-4.92Q1.89-4.91 1.89-4.88L1.89-4.88L1.89-0.12Q1.89-0.07 1.85-0.04Q1.82 0 1.77 0L1.77 0L0.85 0Q0.80 0 0.77-0.04Q0.73-0.07 0.73-0.12L0.73-0.12L0.73-6.88Q0.73-6.93 0.77-6.96Q0.80-7 0.85-7L0.85-7L1.77-7Q1.86-7 1.91-6.92L1.91-6.92L3.54-4.45Q3.56-4.43 3.58-4.43Q3.60-4.43 3.61-4.45L3.61-4.45L5.24-6.92ZM8.43-5.81Q8.12-5.81 7.92-6.01Q7.72-6.21 7.72-6.52L7.72-6.52Q7.72-6.83 7.92-7.03Q8.12-7.23 8.43-7.23L8.43-7.23Q8.74-7.23 8.94-7.03Q9.14-6.83 9.14-6.52L9.14-6.52Q9.14-6.21 8.94-6.01Q8.74-5.81 8.43-5.81L8.43-5.81ZM7.95 0Q7.90 0 7.87-0.04Q7.83-0.07 7.83-0.12L7.83-0.12L7.83-5Q7.83-5.05 7.87-5.08Q7.90-5.12 7.95-5.12L7.95-5.12L8.87-5.12Q8.92-5.12 8.96-5.08Q8.99-5.05 8.99-5L8.99-5L8.99-0.12Q8.99-0.07 8.96-0.04Q8.92 0 8.87 0L8.87 0L7.95 0ZM13.49-6.88Q13.49-6.93 13.53-6.96Q13.56-7 13.61-7L13.61-7L14.53-7Q14.58-7 14.62-6.96Q14.65-6.93 14.65-6.88L14.65-6.88L14.65-0.12Q14.65-0.07 14.62-0.04Q14.58 0 14.53 0L14.53 0L13.61 0Q13.56 0 13.53-0.04Q13.49-0.07 13.49-0.12L13.49-0.12L13.49-0.42Q13.49-0.45 13.47-0.46Q13.45-0.47 13.43-0.44L13.43-0.44Q12.99 0.08 12.28 0.08L12.28 0.08Q11.57 0.08 11.08-0.29Q10.59-0.66 10.37-1.32L10.37-1.32Q10.19-1.88 10.19-2.57L10.19-2.57Q10.19-3.28 10.36-3.79L10.36-3.79Q10.58-4.45 11.07-4.82Q11.56-5.19 12.30-5.19L12.30-5.19Q12.99-5.19 13.43-4.69L13.43-4.69Q13.45-4.67 13.47-4.67Q13.49-4.68 13.49-4.71L13.49-4.71L13.49-6.88ZM13.25-1.40Q13.48-1.81 13.48-2.56L13.48-2.56Q13.48-3.34 13.23-3.75L13.23-3.75Q12.96-4.19 12.47-4.19L12.47-4.19Q11.96-4.19 11.67-3.77L11.67-3.77Q11.37-3.33 11.37-2.55L11.37-2.55Q11.37-1.85 11.61-1.40L11.61-1.40Q11.89-0.92 12.46-0.92L12.46-0.92Q12.97-0.92 13.25-1.40L13.25-1.40ZM15.73-2.51Q15.68-2.51 15.65-2.54Q15.61-2.58 15.61-2.63L15.61-2.63L15.61-3.39Q15.61-3.44 15.65-3.48Q15.68-3.51 15.73-3.51L15.73-3.51L18.88-3.51Q18.93-3.51 18.96-3.48Q19-3.44 19-3.39L19-3.39L19-2.63Q19-2.58 18.96-2.54Q18.93-2.51 18.88-2.51L18.88-2.51L15.73-2.51ZM24.57-6.92Q24.62-7 24.71-7L24.71-7L25.63-7Q25.68-7 25.72-6.96Q25.75-6.93 25.75-6.88L25.75-6.88L25.75-0.12Q25.75-0.07 25.72-0.04Q25.68 0 25.63 0L25.63 0L24.71 0Q24.66 0 24.63-0.04Q24.59-0.07 24.59-0.12L24.59-0.12L24.59-4.89Q24.59-4.92 24.57-4.93Q24.54-4.94 24.53-4.91L24.53-4.91L23.28-2.99Q23.23-2.91 23.14-2.91L23.14-2.91L22.68-2.91Q22.59-2.91 22.54-2.99L22.54-2.99L21.28-4.90Q21.27-4.93 21.25-4.92Q21.22-4.91 21.22-4.88L21.22-4.88L21.22-0.12Q21.22-0.07 21.19-0.04Q21.15 0 21.10 0L21.10 0L20.18 0Q20.13 0 20.10-0.04Q20.06-0.07 20.06-0.12L20.06-0.12L20.06-6.88Q20.06-6.93 20.10-6.96Q20.13-7 20.18-7L20.18-7L21.10-7Q21.19-7 21.24-6.92L21.24-6.92L22.87-4.45Q22.89-4.43 22.91-4.43Q22.93-4.43 22.94-4.45L22.94-4.45L24.57-6.92ZM29.05-5.19Q29.68-5.19 30.16-4.97Q30.64-4.75 30.90-4.37Q31.16-3.98 31.16-3.49L31.16-3.49L31.16-0.12Q31.16-0.07 31.13-0.04Q31.09 0 31.04 0L31.04 0L30.12 0Q30.07 0 30.04-0.04Q30.00-0.07 30.00-0.12L30.00-0.12L30.00-0.44Q30.00-0.47 29.98-0.48Q29.96-0.48 29.94-0.46L29.94-0.46Q29.45 0.08 28.52 0.08L28.52 0.08Q27.77 0.08 27.29-0.30Q26.80-0.68 26.80-1.43L26.80-1.43Q26.80-2.21 27.35-2.65Q27.89-3.08 28.88-3.08L28.88-3.08L29.95-3.08Q30.00-3.08 30.00-3.13L30.00-3.13L30.00-3.37Q30.00-3.76 29.77-3.98Q29.54-4.19 29.08-4.19L29.08-4.19Q28.70-4.19 28.47-4.05Q28.23-3.92 28.17-3.68L28.17-3.68Q28.14-3.56 28.03-3.58L28.03-3.58L27.06-3.70Q27.01-3.71 26.98-3.73Q26.94-3.76 26.95-3.80L26.95-3.80Q27.03-4.41 27.61-4.80Q28.18-5.19 29.05-5.19L29.05-5.19ZM28.81-0.84Q29.30-0.84 29.65-1.10Q30.00-1.36 30.00-1.76L30.00-1.76L30.00-2.23Q30.00-2.28 29.95-2.28L29.95-2.28L29.11-2.28Q28.58-2.28 28.28-2.08Q27.97-1.88 27.97-1.51L27.97-1.51Q27.97-1.19 28.21-1.02Q28.44-0.84 28.81-0.84L28.81-0.84ZM34.70-5.17Q35.02-5.17 35.26-5.04L35.26-5.04Q35.34-5 35.32-4.89L35.32-4.89L35.15-3.99Q35.14-3.87 35.01-3.92L35.01-3.92Q34.86-3.97 34.66-3.97L34.66-3.97Q34.53-3.97 34.46-3.96L34.46-3.96Q34.04-3.94 33.76-3.67Q33.48-3.39 33.48-2.95L33.48-2.95L33.48-0.12Q33.48-0.07 33.45-0.04Q33.41 0 33.36 0L33.36 0L32.44 0Q32.39 0 32.36-0.04Q32.32-0.07 32.32-0.12L32.32-0.12L32.32-4.99Q32.32-5.04 32.36-5.08Q32.39-5.11 32.44-5.11L32.44-5.11L33.36-5.11Q33.41-5.11 33.45-5.08Q33.48-5.04 33.48-4.99L33.48-4.99L33.48-4.54Q33.48-4.50 33.50-4.50Q33.51-4.49 33.53-4.52L33.53-4.52Q33.95-5.17 34.70-5.17L34.70-5.17ZM36.20 0Q36.15 0 36.12-0.04Q36.08-0.07 36.08-0.12L36.08-0.12L36.08-6.88Q36.08-6.93 36.12-6.96Q36.15-7 36.20-7L36.20-7L37.12-7Q37.17-7 37.20-6.96Q37.24-6.93 37.24-6.88L37.24-6.88L37.24-3.27Q37.24-3.24 37.26-3.23Q37.28-3.22 37.30-3.25L37.30-3.25L38.92-5.04Q38.99-5.11 39.07-5.11L39.07-5.11L40.13-5.11Q40.23-5.11 40.23-5.04L40.23-5.04Q40.23-5.01 40.20-4.96L40.20-4.96L38.93-3.44Q38.90-3.41 38.92-3.37L38.92-3.37L40.42-0.14Q40.44-0.10 40.44-0.08L40.44-0.08Q40.44 0 40.33 0L40.33 0L39.36 0Q39.26 0 39.22-0.09L39.22-0.09L38.13-2.63Q38.12-2.65 38.09-2.66Q38.07-2.66 38.06-2.64L38.06-2.64L37.26-1.72Q37.24-1.68 37.24-1.65L37.24-1.65L37.24-0.12Q37.24-0.07 37.20-0.04Q37.17 0 37.12 0L37.12 0L36.20 0ZM45.25-3.13Q45.29-2.88 45.29-2.57L45.29-2.57L45.28-2.26Q45.28-2.14 45.16-2.14L45.16-2.14L42.03-2.14Q41.98-2.14 41.98-2.09L41.98-2.09Q42.01-1.76 42.07-1.64L42.07-1.64Q42.31-0.92 43.24-0.91L43.24-0.91Q43.92-0.91 44.32-1.47L44.32-1.47Q44.36-1.53 44.42-1.53L44.42-1.53Q44.46-1.53 44.49-1.50L44.49-1.50L45.11-0.99Q45.20-0.92 45.14-0.83L45.14-0.83Q44.83-0.39 44.31-0.15Q43.80 0.09 43.17 0.09L43.17 0.09Q42.39 0.09 41.84-0.26Q41.30-0.61 41.05-1.24L41.05-1.24Q40.82-1.78 40.82-2.74L40.82-2.74Q40.82-3.32 40.94-3.68L40.94-3.68Q41.14-4.38 41.70-4.79Q42.25-5.19 43.03-5.19L43.03-5.19Q45-5.19 45.25-3.13L45.25-3.13ZM43.03-4.19Q42.66-4.19 42.41-4.00Q42.17-3.82 42.07-3.49L42.07-3.49Q42.01-3.32 41.99-3.05L41.99-3.05Q41.97-3 42.03-3L42.03-3L44.06-3Q44.11-3 44.11-3.05L44.11-3.05Q44.09-3.30 44.05-3.43L44.05-3.43Q43.96-3.79 43.70-3.99Q43.43-4.19 43.03-4.19L43.03-4.19ZM48.96-4.29Q48.96-4.24 48.93-4.21Q48.89-4.17 48.84-4.17L48.84-4.17L47.82-4.17Q47.77-4.17 47.77-4.12L47.77-4.12L47.77-1.71Q47.77-1.33 47.94-1.16Q48.10-0.99 48.46-0.99L48.46-0.99L48.76-0.99Q48.81-0.99 48.84-0.96Q48.88-0.92 48.88-0.87L48.88-0.87L48.88-0.12Q48.88-0.01 48.76 0.01L48.76 0.01L48.24 0.02Q47.45 0.02 47.06-0.25Q46.67-0.52 46.66-1.27L46.66-1.27L46.66-4.12Q46.66-4.17 46.61-4.17L46.61-4.17L46.04-4.17Q45.99-4.17 45.96-4.21Q45.92-4.24 45.92-4.29L45.92-4.29L45.92-4.99Q45.92-5.04 45.96-5.08Q45.99-5.11 46.04-5.11L46.04-5.11L46.61-5.11Q46.66-5.11 46.66-5.16L46.66-5.16L46.66-6.33Q46.66-6.38 46.70-6.42Q46.73-6.45 46.78-6.45L46.78-6.45L47.65-6.45Q47.70-6.45 47.73-6.42Q47.77-6.38 47.77-6.33L47.77-6.33L47.77-5.16Q47.77-5.11 47.82-5.11L47.82-5.11L48.84-5.11Q48.89-5.11 48.93-5.08Q48.96-5.04 48.96-4.99L48.96-4.99L48.96-4.29Z"/><path fill="#252530" transform="translate(27.56, 89.5)" d="M3.01 0.08Q2.21 0.08 1.61-0.18Q1.01-0.43 0.69-0.91Q0.36-1.38 0.36-2.01L0.36-2.01L0.36-2.23Q0.36-2.28 0.40-2.31Q0.43-2.35 0.48-2.35L0.48-2.35L1.62-2.35Q1.67-2.35 1.71-2.31Q1.74-2.28 1.74-2.23L1.74-2.23L1.74-2.08Q1.74-1.68 2.11-1.41Q2.48-1.13 3.11-1.13L3.11-1.13Q3.64-1.13 3.90-1.35Q4.16-1.58 4.16-1.91L4.16-1.91Q4.16-2.15 4-2.31Q3.84-2.48 3.56-2.60Q3.29-2.73 2.69-2.95L2.69-2.95Q2.02-3.18 1.55-3.42Q1.09-3.66 0.78-4.08Q0.46-4.49 0.46-5.10L0.46-5.10Q0.46-5.70 0.77-6.15Q1.08-6.60 1.63-6.84Q2.18-7.08 2.90-7.08L2.90-7.08Q3.66-7.08 4.25-6.81Q4.85-6.54 5.19-6.05Q5.52-5.57 5.52-4.93L5.52-4.93L5.52-4.78Q5.52-4.73 5.49-4.70Q5.45-4.66 5.40-4.66L5.40-4.66L4.25-4.66Q4.20-4.66 4.17-4.70Q4.13-4.73 4.13-4.78L4.13-4.78L4.13-4.86Q4.13-5.28 3.79-5.58Q3.44-5.87 2.84-5.87L2.84-5.87Q2.37-5.87 2.10-5.67Q1.84-5.47 1.84-5.12L1.84-5.12Q1.84-4.87 2.00-4.70Q2.15-4.53 2.46-4.40Q2.76-4.26 3.40-4.03L3.40-4.03Q4.11-3.77 4.51-3.57Q4.92-3.37 5.25-2.98Q5.57-2.58 5.57-1.95L5.57-1.95Q5.57-1.01 4.88-0.47Q4.19 0.08 3.01 0.08L3.01 0.08ZM9.10 0.08Q8.33 0.08 7.75-0.22Q7.16-0.52 6.83-1.06Q6.51-1.61 6.51-2.32L6.51-2.32L6.51-6.88Q6.51-6.93 6.54-6.96Q6.58-7 6.63-7L6.63-7L7.80-7Q7.85-7 7.88-6.96Q7.92-6.93 7.92-6.88L7.92-6.88L7.92-2.31Q7.92-1.78 8.25-1.46Q8.57-1.13 9.10-1.13L9.10-1.13Q9.63-1.13 9.96-1.46Q10.28-1.78 10.28-2.31L10.28-2.31L10.28-6.88Q10.28-6.93 10.32-6.96Q10.35-7 10.40-7L10.40-7L11.57-7Q11.62-7 11.66-6.96Q11.69-6.93 11.69-6.88L11.69-6.88L11.69-2.32Q11.69-1.61 11.37-1.06Q11.04-0.52 10.46-0.22Q9.87 0.08 9.10 0.08L9.10 0.08ZM17.35-6.92Q17.40-7 17.49-7L17.49-7L18.66-7Q18.71-7 18.75-6.96Q18.78-6.93 18.78-6.88L18.78-6.88L18.78-0.12Q18.78-0.07 18.75-0.04Q18.71 0 18.66 0L18.66 0L17.49 0Q17.44 0 17.41-0.04Q17.37-0.07 17.37-0.12L17.37-0.12L17.37-4.53Q17.37-4.57 17.35-4.57Q17.33-4.57 17.31-4.54L17.31-4.54L16.25-2.88Q16.20-2.80 16.11-2.80L16.11-2.80L15.52-2.80Q15.43-2.80 15.38-2.88L15.38-2.88L14.32-4.54Q14.30-4.57 14.28-4.57Q14.26-4.56 14.26-4.52L14.26-4.52L14.26-0.12Q14.26-0.07 14.22-0.04Q14.19 0 14.14 0L14.14 0L12.97 0Q12.92 0 12.88-0.04Q12.85-0.07 12.85-0.12L12.85-0.12L12.85-6.88Q12.85-6.93 12.88-6.96Q12.92-7 12.97-7L12.97-7L14.14-7Q14.23-7 14.28-6.92L14.28-6.92L15.78-4.59Q15.81-4.53 15.84-4.59L15.84-4.59L17.35-6.92ZM24.50-6.92Q24.55-7 24.64-7L24.64-7L25.81-7Q25.86-7 25.89-6.96Q25.93-6.93 25.93-6.88L25.93-6.88L25.93-0.12Q25.93-0.07 25.89-0.04Q25.86 0 25.81 0L25.81 0L24.64 0Q24.59 0 24.55-0.04Q24.52-0.07 24.52-0.12L24.52-0.12L24.52-4.53Q24.52-4.57 24.50-4.57Q24.48-4.57 24.46-4.54L24.46-4.54L23.40-2.88Q23.35-2.80 23.26-2.80L23.26-2.80L22.67-2.80Q22.58-2.80 22.53-2.88L22.53-2.88L21.47-4.54Q21.45-4.57 21.43-4.57Q21.41-4.56 21.41-4.52L21.41-4.52L21.41-0.12Q21.41-0.07 21.38-0.04Q21.34 0 21.29 0L21.29 0L20.12 0Q20.07 0 20.04-0.04Q20-0.07 20-0.12L20-0.12L20-6.88Q20-6.93 20.04-6.96Q20.07-7 20.12-7L20.12-7L21.29-7Q21.38-7 21.43-6.92L21.43-6.92L22.93-4.59Q22.96-4.53 22.99-4.59L22.99-4.59L24.50-6.92ZM32.01-5.91Q32.01-5.86 31.98-5.83Q31.94-5.79 31.89-5.79L31.89-5.79L28.61-5.79Q28.56-5.79 28.56-5.74L28.56-5.74L28.56-4.19Q28.56-4.14 28.61-4.14L28.61-4.14L30.76-4.14Q30.81-4.14 30.84-4.11Q30.88-4.07 30.88-4.02L30.88-4.02L30.88-3.05Q30.88-3 30.84-2.96Q30.81-2.93 30.76-2.93L30.76-2.93L28.61-2.93Q28.56-2.93 28.56-2.88L28.56-2.88L28.56-1.26Q28.56-1.21 28.61-1.21L28.61-1.21L31.89-1.21Q31.94-1.21 31.98-1.18Q32.01-1.14 32.01-1.09L32.01-1.09L32.01-0.12Q32.01-0.07 31.98-0.04Q31.94 0 31.89 0L31.89 0L27.27 0Q27.22 0 27.18-0.04Q27.15-0.07 27.15-0.12L27.15-0.12L27.15-6.88Q27.15-6.93 27.18-6.96Q27.22-7 27.27-7L27.27-7L31.89-7Q31.94-7 31.98-6.96Q32.01-6.93 32.01-6.88L32.01-6.88L32.01-5.91ZM36.83 0Q36.73 0 36.69-0.09L36.69-0.09L35.44-2.86Q35.42-2.90 35.38-2.90L35.38-2.90L34.45-2.90Q34.40-2.90 34.40-2.85L34.40-2.85L34.40-0.12Q34.40-0.07 34.36-0.04Q34.33 0 34.28 0L34.28 0L33.11 0Q33.06 0 33.02-0.04Q32.99-0.07 32.99-0.12L32.99-0.12L32.99-6.88Q32.99-6.93 33.02-6.96Q33.06-7 33.11-7L33.11-7L35.97-7Q36.61-7 37.09-6.74Q37.58-6.48 37.84-6Q38.11-5.52 38.11-4.89L38.11-4.89Q38.11-4.21 37.77-3.73Q37.43-3.24 36.82-3.04L36.82-3.04Q36.77-3.02 36.79-2.97L36.79-2.97L38.15-0.14Q38.17-0.10 38.17-0.08L38.17-0.08Q38.17 0 38.06 0L38.06 0L36.83 0ZM34.45-5.79Q34.40-5.79 34.40-5.74L34.40-5.74L34.40-4.03Q34.40-3.98 34.45-3.98L34.45-3.98L35.76-3.98Q36.18-3.98 36.44-4.23Q36.71-4.48 36.71-4.88L36.71-4.88Q36.71-5.28 36.44-5.54Q36.18-5.79 35.76-5.79L35.76-5.79L34.45-5.79Z"/><path fill="#252530" transform="translate(36.68, 98.9)" d="M2.33-1.27Q2.31-1.25 2.32-1.23Q2.33-1.21 2.36-1.21L2.36-1.21L5.07-1.21Q5.12-1.21 5.16-1.18Q5.19-1.14 5.19-1.09L5.19-1.09L5.19-0.12Q5.19-0.07 5.16-0.04Q5.12 0 5.07 0L5.07 0L0.57 0Q0.52 0 0.48-0.04Q0.45-0.07 0.45-0.12L0.45-0.12L0.45-1.04Q0.45-1.13 0.51-1.19L0.51-1.19Q1-1.67 1.51-2.23Q2.02-2.80 2.15-2.94L2.15-2.94Q2.43-3.27 2.72-3.57L2.72-3.57Q3.63-4.58 3.63-5.07L3.63-5.07Q3.63-5.42 3.38-5.65Q3.13-5.87 2.73-5.87L2.73-5.87Q2.33-5.87 2.08-5.65Q1.83-5.42 1.83-5.05L1.83-5.05L1.83-4.80Q1.83-4.75 1.79-4.71Q1.76-4.68 1.71-4.68L1.71-4.68L0.53-4.68Q0.48-4.68 0.45-4.71Q0.41-4.75 0.41-4.80L0.41-4.80L0.41-5.27Q0.44-5.81 0.75-6.23Q1.06-6.64 1.57-6.86Q2.09-7.08 2.73-7.08L2.73-7.08Q3.44-7.08 3.97-6.82Q4.49-6.55 4.78-6.10Q5.06-5.65 5.06-5.10L5.06-5.10Q5.06-4.68 4.85-4.24Q4.64-3.80 4.22-3.29L4.22-3.29Q3.91-2.90 3.55-2.52Q3.19-2.14 2.48-1.42L2.48-1.42L2.33-1.27ZM8.44 0.11Q7.34 0.11 6.70-0.51Q6.06-1.12 6.06-2.18L6.06-2.18L6.06-4.82Q6.06-5.86 6.70-6.47Q7.34-7.08 8.44-7.08L8.44-7.08Q9.54-7.08 10.19-6.47Q10.83-5.86 10.83-4.82L10.83-4.82L10.83-2.18Q10.83-1.12 10.19-0.51Q9.54 0.11 8.44 0.11L8.44 0.11ZM8.44-1.10Q8.89-1.10 9.16-1.38Q9.42-1.65 9.42-2.11L9.42-2.11L9.42-4.86Q9.42-5.32 9.16-5.59Q8.89-5.87 8.44-5.87L8.44-5.87Q8-5.87 7.74-5.59Q7.47-5.32 7.47-4.86L7.47-4.86L7.47-2.11Q7.47-1.65 7.74-1.38Q8-1.10 8.44-1.10L8.44-1.10ZM13.63-1.27Q13.61-1.25 13.62-1.23Q13.63-1.21 13.66-1.21L13.66-1.21L16.37-1.21Q16.42-1.21 16.46-1.18Q16.49-1.14 16.49-1.09L16.49-1.09L16.49-0.12Q16.49-0.07 16.46-0.04Q16.42 0 16.37 0L16.37 0L11.87 0Q11.82 0 11.79-0.04Q11.75-0.07 11.75-0.12L11.75-0.12L11.75-1.04Q11.75-1.13 11.81-1.19L11.81-1.19Q12.30-1.67 12.81-2.23Q13.32-2.80 13.45-2.94L13.45-2.94Q13.73-3.27 14.02-3.57L14.02-3.57Q14.93-4.58 14.93-5.07L14.93-5.07Q14.93-5.42 14.68-5.65Q14.43-5.87 14.03-5.87L14.03-5.87Q13.63-5.87 13.38-5.65Q13.13-5.42 13.13-5.05L13.13-5.05L13.13-4.80Q13.13-4.75 13.10-4.71Q13.06-4.68 13.01-4.68L13.01-4.68L11.83-4.68Q11.78-4.68 11.75-4.71Q11.71-4.75 11.71-4.80L11.71-4.80L11.71-5.27Q11.74-5.81 12.05-6.23Q12.36-6.64 12.88-6.86Q13.39-7.08 14.03-7.08L14.03-7.08Q14.74-7.08 15.27-6.82Q15.79-6.55 16.08-6.10Q16.36-5.65 16.36-5.10L16.36-5.10Q16.36-4.68 16.15-4.24Q15.94-3.80 15.52-3.29L15.52-3.29Q15.21-2.90 14.85-2.52Q14.49-2.14 13.78-1.42L13.78-1.42L13.63-1.27ZM18.34-6.97Q18.39-7 18.49-7L18.49-7L19.70-7Q19.75-7 19.79-6.96Q19.82-6.93 19.82-6.88L19.82-6.88L19.82-0.12Q19.82-0.07 19.79-0.04Q19.75 0 19.70 0L19.70 0L18.53 0Q18.48 0 18.45-0.04Q18.41-0.07 18.41-0.12L18.41-0.12L18.41-5.60Q18.41-5.62 18.39-5.64Q18.37-5.66 18.35-5.65L18.35-5.65L17.36-5.38L17.32-5.37Q17.23-5.37 17.23-5.48L17.23-5.48L17.20-6.34Q17.20-6.44 17.29-6.48L17.29-6.48L18.34-6.97Z"/></g>
</svg>