<svg width="40" height="40" viewBox="0 0 40 40" fill="none" xmlns="http://www.w3.org/2000/svg">
<circle cx="20" cy="20" r="20" fill="#2FBECA"/>
<path d="M12.8003 12.2355V28.2058H8.33887V12.2355H12.8003ZM26.3349 30.8788L24.5594 28.2284C24.0587 28.3191 23.5511 28.3644 23.0343 28.3644C21.532 28.3644 20.1515 28.017 18.8916 27.3223C17.6328 26.6125 16.6313 25.6384 15.8869 24.4001C15.1585 23.1466 14.7943 21.7347 14.7943 20.164C14.7943 18.5934 15.1585 17.1889 15.8869 15.9506C16.6313 14.6971 17.6328 13.723 18.8916 13.0284C20.1515 12.3337 21.532 11.9863 23.0343 11.9863C24.5526 11.9863 25.9332 12.3337 27.1771 13.0284C28.437 13.723 29.4306 14.6971 30.159 15.9506C30.8874 17.1889 31.2516 18.5934 31.2516 20.164C31.2516 21.4779 30.9864 22.6936 30.4549 23.8111C29.9246 24.9135 29.1962 25.8348 28.2697 26.5748L31.6613 30.8788H26.3349ZM19.3468 20.164C19.3468 21.4175 19.6735 22.4142 20.3256 23.1542C20.9789 23.8791 21.8814 24.2415 23.0343 24.2415C24.1725 24.2415 25.0682 23.8715 25.7203 23.1315C26.3884 22.3916 26.7219 21.4023 26.7219 20.164C26.7219 18.8955 26.3884 17.8987 25.7203 17.1738C25.0682 16.4339 24.1725 16.0638 23.0343 16.0638C21.8814 16.0638 20.9789 16.4339 20.3256 17.1738C19.6735 17.8987 19.3468 18.8955 19.3468 20.164Z" fill="white"/>
</svg>
