<svg xmlns="http://www.w3.org/2000/svg" viewBox="0 0 94 122">
  <g id="container">
    <path fill="#fff" d="M8.1 89.9L47.6 110l38-20.1V11.3H8.1z"/>
    <path fill="#f2f3f2" d="M86.4 11.6L7.3 91.3l41 20.3 38.1-19.5z"/>
    <path d="M5.5 37.5v54.1l1.4.7 39.5 20.1 1.2.6 1.2-.6 38.1-20.1 1.4-.7V8.7H5.5v28.8zm2.6 52.6V11.3h77.6v78.8l-38.1 20.1L8.1 90.1z" fill="#dcdedc"/>
    <path id="logo" d="M46.9 12.6c.4 0 .8 0 1.2.1L46.9 15c-1.8-.1-3.4 1.3-3.5 3.1-.1 1.8 1.3 3.4 3.1 3.5h.4c.8 0 1.6-.3 2.2-.8l1.3 2.2c-1 .7-2.2 1.1-3.5 1.1-3.2.1-5.9-2.3-6-5.5-.1-3.2 2.3-5.9 5.5-6h.5zm4.1 4.9l1.5 2.5-1.5 2.4-1.4-2.4h-2.9l1.5-2.5H51zm-2.4-.9c0-.4.1-.8.3-1.1.2-.3.6-.6.9-.8l.2-.1c.4-.2.5-.3.5-.5s-.3-.4-.5-.4c-.4 0-.7.2-.9.6l-.5-.5c.1-.2.3-.4.5-.6.3-.2.6-.2.9-.2.3 0 .7.1.9.3.2.2.4.5.4.8 0 .5-.3.9-.9 1.1l-.3.2c-.3.2-.5.3-.6.6h1.8v.7l-2.7-.1zm-1.7 12.5l9.5-5.4v-15H37.3v14.9l9.6 5.5z" fill="#ff492c"/>
    <path id="banner" d="M90.2 64.5H3.6l-3.2 7 3.2 7h86.6l3.1-7z" fill="#23cca2"/>
  <path fill="#252530" transform="translate(12.20, 60)" d="M5.24-4.01Q5.17-3.98 5.24-3.95L5.24-3.95Q6.28-3.41 6.28-2.16L6.28-2.16Q6.28-1.09 5.55-0.54Q4.83 0 3.65 0L3.65 0L0.80 0Q0.75 0 0.71-0.04Q0.67-0.08 0.67-0.13L0.67-0.13L0.67-7.57Q0.67-7.62 0.71-7.66Q0.75-7.70 0.80-7.70L0.80-7.70L3.56-7.70Q6.17-7.70 6.17-5.59L6.17-5.59Q6.17-4.49 5.24-4.01L5.24-4.01ZM2.28-6.37Q2.22-6.37 2.22-6.31L2.22-6.31L2.22-4.60Q2.22-4.54 2.28-4.54L2.28-4.54L3.56-4.54Q4.08-4.54 4.37-4.79Q4.65-5.03 4.65-5.44L4.65-5.44Q4.65-5.87 4.37-6.12Q4.08-6.37 3.56-6.37L3.56-6.37L2.28-6.37ZM3.65-1.34Q4.16-1.34 4.44-1.60Q4.73-1.86 4.73-2.31L4.73-2.31Q4.73-2.76 4.44-3.02Q4.16-3.28 3.64-3.28L3.64-3.28L2.28-3.28Q2.22-3.28 2.22-3.22L2.22-3.22L2.22-1.40Q2.22-1.34 2.28-1.34L2.28-1.34L3.65-1.34ZM10.63-5.52Q10.63-5.58 10.66-5.62Q10.70-5.65 10.76-5.65L10.76-5.65L12.04-5.65Q12.10-5.65 12.14-5.62Q12.18-5.58 12.18-5.52L12.18-5.52L12.18-0.13Q12.18-0.08 12.14-0.04Q12.10 0 12.04 0L12.04 0L10.76 0Q10.70 0 10.66-0.04Q10.63-0.08 10.63-0.13L10.63-0.13L10.63-0.51Q10.63-0.54 10.60-0.54Q10.58-0.55 10.56-0.52L10.56-0.52Q10.12 0.08 9.20 0.08L9.20 0.08Q8.36 0.08 7.82-0.43Q7.28-0.93 7.28-1.85L7.28-1.85L7.28-5.52Q7.28-5.58 7.32-5.62Q7.36-5.65 7.41-5.65L7.41-5.65L8.69-5.65Q8.74-5.65 8.78-5.62Q8.82-5.58 8.82-5.52L8.82-5.52L8.82-2.23Q8.82-1.79 9.06-1.52Q9.29-1.24 9.71-1.24L9.71-1.24Q10.09-1.24 10.33-1.47Q10.57-1.69 10.63-2.06L10.63-2.06L10.63-5.52ZM15.58 0.08Q14.84 0.08 14.29-0.13Q13.74-0.34 13.44-0.71Q13.13-1.09 13.13-1.56L13.13-1.56L13.13-1.67Q13.13-1.73 13.17-1.77Q13.21-1.80 13.27-1.80L13.27-1.80L14.49-1.80Q14.54-1.80 14.58-1.77Q14.62-1.73 14.62-1.67L14.62-1.67L14.62-1.66Q14.62-1.42 14.89-1.25Q15.16-1.08 15.56-1.08L15.56-1.08Q15.94-1.08 16.17-1.23Q16.40-1.38 16.40-1.59L16.40-1.59Q16.40-1.79 16.20-1.89Q16.00-1.99 15.55-2.10L15.55-2.10Q15.04-2.23 14.74-2.35L14.74-2.35Q14.04-2.60 13.62-2.95Q13.20-3.30 13.20-3.96L13.20-3.96Q13.20-4.77 13.83-5.25Q14.46-5.73 15.51-5.73L15.51-5.73Q16.21-5.73 16.74-5.51Q17.27-5.28 17.56-4.87Q17.85-4.47 17.85-3.95L17.85-3.95Q17.85-3.89 17.81-3.86Q17.78-3.82 17.72-3.82L17.72-3.82L16.54-3.82Q16.49-3.82 16.45-3.86Q16.41-3.89 16.41-3.95L16.41-3.95Q16.41-4.19 16.16-4.36Q15.92-4.52 15.51-4.52L15.51-4.52Q15.15-4.52 14.92-4.39Q14.68-4.26 14.68-4.03L14.68-4.03Q14.68-3.81 14.91-3.70Q15.14-3.59 15.66-3.46L15.66-3.46Q15.78-3.43 15.94-3.39Q16.09-3.35 16.27-3.30L16.27-3.30Q17.05-3.07 17.50-2.71Q17.95-2.34 17.95-1.65L17.95-1.65Q17.95-0.84 17.31-0.38Q16.66 0.08 15.58 0.08L15.58 0.08ZM19.68-6.29Q19.30-6.29 19.06-6.54Q18.81-6.79 18.81-7.16L18.81-7.16Q18.81-7.55 19.05-7.79Q19.29-8.03 19.68-8.03L19.68-8.03Q20.06-8.03 20.31-7.79Q20.55-7.55 20.55-7.16L20.55-7.16Q20.55-6.79 20.30-6.54Q20.05-6.29 19.68-6.29L19.68-6.29ZM19.02 0Q18.96 0 18.93-0.04Q18.89-0.08 18.89-0.13L18.89-0.13L18.89-5.53Q18.89-5.59 18.93-5.63Q18.96-5.67 19.02-5.67L19.02-5.67L20.31-5.67Q20.36-5.67 20.40-5.63Q20.44-5.59 20.44-5.53L20.44-5.53L20.44-0.13Q20.44-0.08 20.40-0.04Q20.36 0 20.31 0L20.31 0L19.02 0ZM24.60-5.74Q25.48-5.74 26.01-5.20Q26.55-4.66 26.55-3.74L26.55-3.74L26.55-0.13Q26.55-0.08 26.52-0.04Q26.48 0 26.42 0L26.42 0L25.13 0Q25.08 0 25.04-0.04Q25.00-0.08 25.00-0.13L25.00-0.13L25.00-3.42Q25.00-3.86 24.76-4.14Q24.51-4.41 24.10-4.41L24.10-4.41Q23.69-4.41 23.45-4.14Q23.20-3.86 23.20-3.42L23.20-3.42L23.20-0.13Q23.20-0.08 23.16-0.04Q23.12 0 23.07 0L23.07 0L21.78 0Q21.72 0 21.69-0.04Q21.65-0.08 21.65-0.13L21.65-0.13L21.65-5.52Q21.65-5.58 21.69-5.62Q21.72-5.65 21.78-5.65L21.78-5.65L23.07-5.65Q23.12-5.65 23.16-5.62Q23.20-5.58 23.20-5.52L23.20-5.52L23.20-5.14Q23.20-5.10 23.22-5.09Q23.24-5.08 23.25-5.10L23.25-5.10Q23.70-5.74 24.60-5.74L24.60-5.74ZM32.64-3.41Q32.70-2.99 32.68-2.47L32.68-2.47Q32.67-2.34 32.54-2.34L32.54-2.34L29.14-2.34Q29.07-2.34 29.09-2.29L29.09-2.29Q29.13-2.07 29.22-1.85L29.22-1.85Q29.50-1.23 30.38-1.23L30.38-1.23Q31.09-1.24 31.49-1.80L31.49-1.80Q31.54-1.87 31.59-1.87L31.59-1.87Q31.62-1.87 31.67-1.83L31.67-1.83L32.46-1.04Q32.52-0.99 32.52-0.95L32.52-0.95Q32.52-0.92 32.47-0.86L32.47-0.86Q32.11-0.41 31.54-0.16Q30.96 0.09 30.28 0.09L30.28 0.09Q29.34 0.09 28.68-0.34Q28.03-0.77 27.74-1.54L27.74-1.54Q27.51-2.09 27.51-2.98L27.51-2.98Q27.51-3.59 27.68-4.05L27.68-4.05Q27.93-4.83 28.56-5.29Q29.19-5.75 30.06-5.75L30.06-5.75Q31.16-5.75 31.83-5.11Q32.49-4.48 32.64-3.41L32.64-3.41ZM30.07-4.41Q29.38-4.41 29.16-3.76L29.16-3.76Q29.12-3.62 29.08-3.41L29.08-3.41Q29.08-3.35 29.14-3.35L29.14-3.35L31.04-3.35Q31.11-3.35 31.09-3.41L31.09-3.41Q31.03-3.73 31.03-3.72L31.03-3.72Q30.93-4.05 30.68-4.23Q30.44-4.41 30.07-4.41L30.07-4.41ZM35.82 0.08Q35.08 0.08 34.53-0.13Q33.98-0.34 33.68-0.71Q33.37-1.09 33.37-1.56L33.37-1.56L33.37-1.67Q33.37-1.73 33.41-1.77Q33.45-1.80 33.51-1.80L33.51-1.80L34.73-1.80Q34.78-1.80 34.82-1.77Q34.86-1.73 34.86-1.67L34.86-1.67L34.86-1.66Q34.86-1.42 35.13-1.25Q35.40-1.08 35.80-1.08L35.80-1.08Q36.18-1.08 36.41-1.23Q36.64-1.38 36.64-1.59L36.64-1.59Q36.64-1.79 36.44-1.89Q36.24-1.99 35.79-2.10L35.79-2.10Q35.28-2.23 34.98-2.35L34.98-2.35Q34.28-2.60 33.86-2.95Q33.44-3.30 33.44-3.96L33.44-3.96Q33.44-4.77 34.07-5.25Q34.70-5.73 35.75-5.73L35.75-5.73Q36.45-5.73 36.98-5.51Q37.51-5.28 37.80-4.87Q38.09-4.47 38.09-3.95L38.09-3.95Q38.09-3.89 38.05-3.86Q38.02-3.82 37.96-3.82L37.96-3.82L36.78-3.82Q36.73-3.82 36.69-3.86Q36.65-3.89 36.65-3.95L36.65-3.95Q36.65-4.19 36.40-4.36Q36.16-4.52 35.75-4.52L35.75-4.52Q35.39-4.52 35.16-4.39Q34.92-4.26 34.92-4.03L34.92-4.03Q34.92-3.81 35.15-3.70Q35.38-3.59 35.90-3.46L35.90-3.46Q36.02-3.43 36.18-3.39Q36.33-3.35 36.51-3.30L36.51-3.30Q37.29-3.07 37.74-2.71Q38.19-2.34 38.19-1.65L38.19-1.65Q38.19-0.84 37.55-0.38Q36.90 0.08 35.82 0.08L35.82 0.08ZM41.26 0.08Q40.52 0.08 39.97-0.13Q39.42-0.34 39.12-0.71Q38.82-1.09 38.82-1.56L38.82-1.56L38.82-1.67Q38.82-1.73 38.86-1.77Q38.90-1.80 38.95-1.80L38.95-1.80L40.17-1.80Q40.23-1.80 40.27-1.77Q40.30-1.73 40.30-1.67L40.30-1.67L40.30-1.66Q40.30-1.42 40.57-1.25Q40.84-1.08 41.25-1.08L41.25-1.08Q41.62-1.08 41.85-1.23Q42.09-1.38 42.09-1.59L42.09-1.59Q42.09-1.79 41.89-1.89Q41.69-1.99 41.24-2.10L41.24-2.10Q40.72-2.23 40.42-2.35L40.42-2.35Q39.72-2.60 39.30-2.95Q38.88-3.30 38.88-3.96L38.88-3.96Q38.88-4.77 39.52-5.25Q40.15-5.73 41.20-5.73L41.20-5.73Q41.90-5.73 42.43-5.51Q42.95-5.28 43.25-4.87Q43.54-4.47 43.54-3.95L43.54-3.95Q43.54-3.89 43.50-3.86Q43.46-3.82 43.41-3.82L43.41-3.82L42.23-3.82Q42.17-3.82 42.14-3.86Q42.10-3.89 42.10-3.95L42.10-3.95Q42.10-4.19 41.85-4.36Q41.60-4.52 41.20-4.52L41.20-4.52Q40.83-4.52 40.60-4.39Q40.37-4.26 40.37-4.03L40.37-4.03Q40.37-3.81 40.60-3.70Q40.82-3.59 41.35-3.46L41.35-3.46Q41.47-3.43 41.62-3.39Q41.78-3.35 41.95-3.30L41.95-3.30Q42.73-3.07 43.19-2.71Q43.64-2.34 43.64-1.65L43.64-1.65Q43.64-0.84 42.99-0.38Q42.35 0.08 41.26 0.08L41.26 0.08ZM48.53 0Q48.41 0 48.38-0.11L48.38-0.11L46.43-7.56L46.42-7.60Q46.42-7.70 46.54-7.70L46.54-7.70L47.91-7.70Q48.02-7.70 48.05-7.59L48.05-7.59L49.09-3.11Q49.10-3.07 49.13-3.07Q49.15-3.07 49.16-3.11L49.16-3.11L50.17-7.58Q50.20-7.70 50.31-7.70L50.31-7.70L51.64-7.70Q51.77-7.70 51.80-7.59L51.80-7.59L52.90-3.11Q52.91-3.08 52.93-3.07Q52.95-3.07 52.96-3.11L52.96-3.11L53.98-7.58Q54.01-7.70 54.12-7.70L54.12-7.70L55.42-7.70Q55.57-7.70 55.54-7.56L55.54-7.56L53.73-0.11Q53.70 0 53.58 0L53.58 0L52.27 0Q52.16 0 52.13-0.11L52.13-0.11L51.01-4.87Q51.00-4.92 50.97-4.92Q50.95-4.92 50.94-4.87L50.94-4.87L49.90-0.12Q49.87 0 49.75 0L49.75 0L48.53 0ZM57.21-6.29Q56.84-6.29 56.59-6.54Q56.34-6.79 56.34-7.16L56.34-7.16Q56.34-7.55 56.58-7.79Q56.83-8.03 57.21-8.03L57.21-8.03Q57.60-8.03 57.84-7.79Q58.08-7.55 58.08-7.16L58.08-7.16Q58.08-6.79 57.83-6.54Q57.58-6.29 57.21-6.29L57.21-6.29ZM56.55 0Q56.50 0 56.46-0.04Q56.42-0.08 56.42-0.13L56.42-0.13L56.42-5.53Q56.42-5.59 56.46-5.63Q56.50-5.67 56.55-5.67L56.55-5.67L57.84-5.67Q57.89-5.67 57.93-5.63Q57.97-5.59 57.97-5.53L57.97-5.53L57.97-0.13Q57.97-0.08 57.93-0.04Q57.89 0 57.84 0L57.84 0L56.55 0ZM62.42-4.54Q62.42-4.49 62.39-4.45Q62.35-4.41 62.29-4.41L62.29-4.41L61.24-4.41Q61.18-4.41 61.18-4.36L61.18-4.36L61.18-2.02Q61.18-1.66 61.33-1.48Q61.48-1.31 61.81-1.31L61.81-1.31L62.17-1.31Q62.23-1.31 62.27-1.27Q62.30-1.23 62.30-1.18L62.30-1.18L62.30-0.13Q62.30-0.01 62.17 0.01L62.17 0.01Q61.71 0.03 61.51 0.03L61.51 0.03Q60.60 0.03 60.15-0.27Q59.70-0.57 59.69-1.41L59.69-1.41L59.69-4.36Q59.69-4.41 59.63-4.41L59.63-4.41L59.00-4.41Q58.95-4.41 58.91-4.45Q58.87-4.49 58.87-4.54L58.87-4.54L58.87-5.52Q58.87-5.58 58.91-5.62Q58.95-5.65 59.00-5.65L59.00-5.65L59.63-5.65Q59.69-5.65 59.69-5.71L59.69-5.71L59.69-7.02Q59.69-7.07 59.72-7.11Q59.76-7.15 59.82-7.15L59.82-7.15L61.05-7.15Q61.10-7.15 61.14-7.11Q61.18-7.07 61.18-7.02L61.18-7.02L61.18-5.71Q61.18-5.65 61.24-5.65L61.24-5.65L62.29-5.65Q62.35-5.65 62.39-5.62Q62.42-5.58 62.42-5.52L62.42-5.52L62.42-4.54ZM66.31-5.74Q67.19-5.74 67.73-5.20Q68.27-4.66 68.27-3.74L68.27-3.74L68.27-0.13Q68.27-0.08 68.23-0.04Q68.19 0 68.13 0L68.13 0L66.85 0Q66.79 0 66.75-0.04Q66.72-0.08 66.72-0.13L66.72-0.13L66.72-3.42Q66.72-3.86 66.47-4.14Q66.22-4.41 65.81-4.41L65.81-4.41Q65.41-4.41 65.16-4.14Q64.91-3.86 64.91-3.42L64.91-3.42L64.91-0.13Q64.91-0.08 64.87-0.04Q64.83 0 64.78 0L64.78 0L63.49 0Q63.44 0 63.40-0.04Q63.36-0.08 63.36-0.13L63.36-0.13L63.36-7.57Q63.36-7.62 63.40-7.66Q63.44-7.70 63.49-7.70L63.49-7.70L64.78-7.70Q64.83-7.70 64.87-7.66Q64.91-7.62 64.91-7.57L64.91-7.57L64.91-5.14Q64.91-5.10 64.93-5.09Q64.95-5.08 64.97-5.10L64.97-5.10Q65.42-5.74 66.31-5.74L66.31-5.74Z"/><path fill="#252530" transform="translate(13.97, 49)" d="M6.02-6.50Q6.02-6.45 5.98-6.41Q5.94-6.37 5.88-6.37L5.88-6.37L2.28-6.37Q2.22-6.37 2.22-6.31L2.22-6.31L2.22-4.61Q2.22-4.55 2.28-4.55L2.28-4.55L4.64-4.55Q4.70-4.55 4.74-4.52Q4.77-4.48 4.77-4.42L4.77-4.42L4.77-3.35Q4.77-3.30 4.74-3.26Q4.70-3.22 4.64-3.22L4.64-3.22L2.28-3.22Q2.22-3.22 2.22-3.17L2.22-3.17L2.22-1.39Q2.22-1.33 2.28-1.33L2.28-1.33L5.88-1.33Q5.94-1.33 5.98-1.29Q6.02-1.25 6.02-1.20L6.02-1.20L6.02-0.13Q6.02-0.08 5.98-0.04Q5.94 0 5.88 0L5.88 0L0.80 0Q0.75 0 0.71-0.04Q0.67-0.08 0.67-0.13L0.67-0.13L0.67-7.57Q0.67-7.62 0.71-7.66Q0.75-7.70 0.80-7.70L0.80-7.70L5.88-7.70Q5.94-7.70 5.98-7.66Q6.02-7.62 6.02-7.57L6.02-7.57L6.02-6.50ZM9.25-5.74Q9.97-5.74 10.53-5.49Q11.09-5.25 11.40-4.82Q11.71-4.39 11.71-3.86L11.71-3.86L11.71-0.13Q11.71-0.08 11.68-0.04Q11.64 0 11.58 0L11.58 0L10.30 0Q10.24 0 10.20-0.04Q10.16-0.08 10.16-0.13L10.16-0.13L10.16-0.49Q10.16-0.53 10.14-0.54Q10.12-0.55 10.10-0.52L10.10-0.52Q9.64 0.09 8.61 0.09L8.61 0.09Q7.75 0.09 7.23-0.33Q6.70-0.75 6.70-1.56L6.70-1.56Q6.70-2.41 7.29-2.88Q7.89-3.34 8.99-3.34L8.99-3.34L10.11-3.34Q10.16-3.34 10.16-3.40L10.16-3.40L10.16-3.64Q10.16-4.00 9.94-4.21Q9.72-4.41 9.28-4.41L9.28-4.41Q8.94-4.41 8.72-4.29Q8.49-4.17 8.43-3.95L8.43-3.95Q8.39-3.83 8.28-3.84L8.28-3.84L6.95-4.01Q6.82-4.04 6.83-4.11L6.83-4.11Q6.87-4.58 7.20-4.95Q7.52-5.32 8.06-5.53Q8.59-5.74 9.25-5.74L9.25-5.74ZM9.03-1.07Q9.50-1.07 9.83-1.32Q10.16-1.57 10.16-1.97L10.16-1.97L10.16-2.36Q10.16-2.42 10.11-2.42L10.11-2.42L9.32-2.42Q8.82-2.42 8.54-2.23Q8.26-2.05 8.26-1.70L8.26-1.70Q8.26-1.41 8.47-1.24Q8.68-1.07 9.03-1.07L9.03-1.07ZM15.06 0.08Q14.32 0.08 13.77-0.13Q13.22-0.34 12.92-0.71Q12.62-1.09 12.62-1.56L12.62-1.56L12.62-1.67Q12.62-1.73 12.66-1.77Q12.69-1.80 12.75-1.80L12.75-1.80L13.97-1.80Q14.02-1.80 14.06-1.77Q14.10-1.73 14.10-1.67L14.10-1.67L14.10-1.66Q14.10-1.42 14.37-1.25Q14.64-1.08 15.05-1.08L15.05-1.08Q15.42-1.08 15.65-1.23Q15.88-1.38 15.88-1.59L15.88-1.59Q15.88-1.79 15.69-1.89Q15.49-1.99 15.04-2.10L15.04-2.10Q14.52-2.23 14.22-2.35L14.22-2.35Q13.52-2.60 13.10-2.95Q12.68-3.30 12.68-3.96L12.68-3.96Q12.68-4.77 13.32-5.25Q13.95-5.73 14.99-5.73L14.99-5.73Q15.70-5.73 16.22-5.51Q16.75-5.28 17.04-4.87Q17.34-4.47 17.34-3.95L17.34-3.95Q17.34-3.89 17.30-3.86Q17.26-3.82 17.20-3.82L17.20-3.82L16.03-3.82Q15.97-3.82 15.93-3.86Q15.89-3.89 15.89-3.95L15.89-3.95Q15.89-4.19 15.65-4.36Q15.40-4.52 14.99-4.52L14.99-4.52Q14.63-4.52 14.40-4.39Q14.17-4.26 14.17-4.03L14.17-4.03Q14.17-3.81 14.39-3.70Q14.62-3.59 15.15-3.46L15.15-3.46Q15.27-3.43 15.42-3.39Q15.58-3.35 15.75-3.30L15.75-3.30Q16.53-3.07 16.98-2.71Q17.43-2.34 17.43-1.65L17.43-1.65Q17.43-0.84 16.79-0.38Q16.15 0.08 15.06 0.08L15.06 0.08ZM19.16-6.29Q18.79-6.29 18.54-6.54Q18.29-6.79 18.29-7.16L18.29-7.16Q18.29-7.55 18.53-7.79Q18.78-8.03 19.16-8.03L19.16-8.03Q19.55-8.03 19.79-7.79Q20.03-7.55 20.03-7.16L20.03-7.16Q20.03-6.79 19.78-6.54Q19.54-6.29 19.16-6.29L19.16-6.29ZM18.50 0Q18.45 0 18.41-0.04Q18.37-0.08 18.37-0.13L18.37-0.13L18.37-5.53Q18.37-5.59 18.41-5.63Q18.45-5.67 18.50-5.67L18.50-5.67L19.79-5.67Q19.84-5.67 19.88-5.63Q19.92-5.59 19.92-5.53L19.92-5.53L19.92-0.13Q19.92-0.08 19.88-0.04Q19.84 0 19.79 0L19.79 0L18.50 0ZM26.14-3.41Q26.20-2.99 26.18-2.47L26.18-2.47Q26.17-2.34 26.04-2.34L26.04-2.34L22.64-2.34Q22.57-2.34 22.59-2.29L22.59-2.29Q22.63-2.07 22.71-1.85L22.71-1.85Q23.00-1.23 23.88-1.23L23.88-1.23Q24.58-1.24 24.99-1.80L24.99-1.80Q25.04-1.87 25.09-1.87L25.09-1.87Q25.12-1.87 25.17-1.83L25.17-1.83L25.96-1.04Q26.01-0.99 26.01-0.95L26.01-0.95Q26.01-0.92 25.97-0.86L25.97-0.86Q25.61-0.41 25.04-0.16Q24.46 0.09 23.78 0.09L23.78 0.09Q22.84 0.09 22.18-0.34Q21.53-0.77 21.24-1.54L21.24-1.54Q21.01-2.09 21.01-2.98L21.01-2.98Q21.01-3.59 21.17-4.05L21.17-4.05Q21.43-4.83 22.06-5.29Q22.69-5.75 23.56-5.75L23.56-5.75Q24.66-5.75 25.33-5.11Q25.99-4.48 26.14-3.41L26.14-3.41ZM23.57-4.41Q22.88-4.41 22.66-3.76L22.66-3.76Q22.62-3.62 22.58-3.41L22.58-3.41Q22.58-3.35 22.64-3.35L22.64-3.35L24.54-3.35Q24.61-3.35 24.58-3.41L24.58-3.41Q24.53-3.73 24.53-3.72L24.53-3.72Q24.43-4.05 24.18-4.23Q23.94-4.41 23.57-4.41L23.57-4.41ZM29.31 0.08Q28.58 0.08 28.03-0.13Q27.48-0.34 27.18-0.71Q26.87-1.09 26.87-1.56L26.87-1.56L26.87-1.67Q26.87-1.73 26.91-1.77Q26.95-1.80 27.00-1.80L27.00-1.80L28.23-1.80Q28.28-1.80 28.32-1.77Q28.36-1.73 28.36-1.67L28.36-1.67L28.36-1.66Q28.36-1.42 28.63-1.25Q28.90-1.08 29.30-1.08L29.30-1.08Q29.68-1.08 29.91-1.23Q30.14-1.38 30.14-1.59L30.14-1.59Q30.14-1.79 29.94-1.89Q29.74-1.99 29.29-2.10L29.29-2.10Q28.78-2.23 28.48-2.35L28.48-2.35Q27.77-2.60 27.36-2.95Q26.94-3.30 26.94-3.96L26.94-3.96Q26.94-4.77 27.57-5.25Q28.20-5.73 29.25-5.73L29.25-5.73Q29.95-5.73 30.48-5.51Q31.01-5.28 31.30-4.87Q31.59-4.47 31.59-3.95L31.59-3.95Q31.59-3.89 31.55-3.86Q31.51-3.82 31.46-3.82L31.46-3.82L30.28-3.82Q30.23-3.82 30.19-3.86Q30.15-3.89 30.15-3.95L30.15-3.95Q30.15-4.19 29.90-4.36Q29.66-4.52 29.25-4.52L29.25-4.52Q28.89-4.52 28.65-4.39Q28.42-4.26 28.42-4.03L28.42-4.03Q28.42-3.81 28.65-3.70Q28.87-3.59 29.40-3.46L29.40-3.46Q29.52-3.43 29.68-3.39Q29.83-3.35 30.01-3.30L30.01-3.30Q30.79-3.07 31.24-2.71Q31.69-2.34 31.69-1.65L31.69-1.65Q31.69-0.84 31.05-0.38Q30.40 0.08 29.31 0.08L29.31 0.08ZM35.82-4.54Q35.82-4.49 35.78-4.45Q35.74-4.41 35.68-4.41L35.68-4.41L34.63-4.41Q34.57-4.41 34.57-4.36L34.57-4.36L34.57-2.02Q34.57-1.66 34.72-1.48Q34.87-1.31 35.20-1.31L35.20-1.31L35.56-1.31Q35.62-1.31 35.66-1.27Q35.70-1.23 35.70-1.18L35.70-1.18L35.70-0.13Q35.70-0.01 35.56 0.01L35.56 0.01Q35.10 0.03 34.90 0.03L34.90 0.03Q33.99 0.03 33.54-0.27Q33.09-0.57 33.08-1.41L33.08-1.41L33.08-4.36Q33.08-4.41 33.02-4.41L33.02-4.41L32.39-4.41Q32.34-4.41 32.30-4.45Q32.26-4.49 32.26-4.54L32.26-4.54L32.26-5.52Q32.26-5.58 32.30-5.62Q32.34-5.65 32.39-5.65L32.39-5.65L33.02-5.65Q33.08-5.65 33.08-5.71L33.08-5.71L33.08-7.02Q33.08-7.07 33.12-7.11Q33.15-7.15 33.21-7.15L33.21-7.15L34.44-7.15Q34.50-7.15 34.53-7.11Q34.57-7.07 34.57-7.02L34.57-7.02L34.57-5.71Q34.57-5.65 34.63-5.65L34.63-5.65L35.68-5.65Q35.74-5.65 35.78-5.62Q35.82-5.58 35.82-5.52L35.82-5.52L35.82-4.54ZM44.36-7.70Q44.42-7.70 44.46-7.66Q44.50-7.62 44.50-7.57L44.50-7.57L44.50-6.49Q44.50-6.43 44.46-6.40Q44.42-6.36 44.36-6.36L44.36-6.36L42.39-6.36Q42.34-6.36 42.34-6.30L42.34-6.30L42.34-0.13Q42.34-0.08 42.30-0.04Q42.26 0 42.21 0L42.21 0L40.92 0Q40.87 0 40.83-0.04Q40.79-0.08 40.79-0.13L40.79-0.13L40.79-6.30Q40.79-6.36 40.73-6.36L40.73-6.36L38.82-6.36Q38.76-6.36 38.73-6.40Q38.69-6.43 38.69-6.49L38.69-6.49L38.69-7.57Q38.69-7.62 38.73-7.66Q38.76-7.70 38.82-7.70L38.82-7.70L44.36-7.70ZM46.96 0.09Q46.04 0.09 45.38-0.40Q44.72-0.88 44.47-1.72L44.47-1.72Q44.32-2.23 44.32-2.84L44.32-2.84Q44.32-3.49 44.47-4.00L44.47-4.00Q44.73-4.82 45.39-5.28Q46.05-5.74 46.97-5.74L46.97-5.74Q47.87-5.74 48.51-5.29Q49.15-4.83 49.41-4.01L49.41-4.01Q49.59-3.46 49.59-2.86L49.59-2.86Q49.59-2.27 49.43-1.75L49.43-1.75Q49.19-0.89 48.54-0.40Q47.88 0.09 46.96 0.09L46.96 0.09ZM46.96-1.24Q47.32-1.24 47.58-1.46Q47.83-1.68 47.94-2.07L47.94-2.07Q48.03-2.42 48.03-2.84L48.03-2.84Q48.03-3.30 47.94-3.62L47.94-3.62Q47.82-3.99 47.56-4.20Q47.31-4.41 46.95-4.41L46.95-4.41Q46.57-4.41 46.33-4.20Q46.08-3.99 45.97-3.62L45.97-3.62Q45.88-3.35 45.88-2.84L45.88-2.84Q45.88-2.34 45.96-2.07L45.96-2.07Q46.07-1.68 46.33-1.46Q46.59-1.24 46.96-1.24L46.96-1.24ZM53.02 0Q52.97 0 52.93-0.04Q52.89-0.08 52.89-0.13L52.89-0.13L52.89-7.57Q52.89-7.62 52.93-7.66Q52.97-7.70 53.02-7.70L53.02-7.70L55.77-7.70Q56.60-7.70 57.22-7.41Q57.84-7.12 58.18-6.59Q58.52-6.06 58.52-5.37L58.52-5.37L58.52-2.33Q58.52-1.64 58.18-1.11Q57.84-0.58 57.22-0.29Q56.60 0 55.77 0L55.77 0L53.02 0ZM54.44-1.39Q54.44-1.33 54.49-1.33L54.49-1.33L55.83-1.33Q56.33-1.33 56.64-1.67Q56.96-2.01 56.97-2.58L56.97-2.58L56.97-5.11Q56.97-5.69 56.66-6.03Q56.34-6.37 55.81-6.37L55.81-6.37L54.49-6.37Q54.44-6.37 54.44-6.31L54.44-6.31L54.44-1.39ZM62.08 0.09Q61.16 0.09 60.50-0.40Q59.84-0.88 59.60-1.72L59.60-1.72Q59.44-2.23 59.44-2.84L59.44-2.84Q59.44-3.49 59.60-4.00L59.60-4.00Q59.85-4.82 60.51-5.28Q61.17-5.74 62.10-5.74L62.10-5.74Q63.00-5.74 63.64-5.29Q64.27-4.83 64.54-4.01L64.54-4.01Q64.71-3.46 64.71-2.86L64.71-2.86Q64.71-2.27 64.56-1.75L64.56-1.75Q64.32-0.89 63.66-0.40Q63.01 0.09 62.08 0.09L62.08 0.09ZM62.08-1.24Q62.45-1.24 62.70-1.46Q62.95-1.68 63.06-2.07L63.06-2.07Q63.15-2.42 63.15-2.84L63.15-2.84Q63.15-3.30 63.06-3.62L63.06-3.62Q62.94-3.99 62.69-4.20Q62.44-4.41 62.07-4.41L62.07-4.41Q61.70-4.41 61.45-4.20Q61.20-3.99 61.09-3.62L61.09-3.62Q61.01-3.35 61.01-2.84L61.01-2.84Q61.01-2.34 61.08-2.07L61.08-2.07Q61.19-1.68 61.45-1.46Q61.71-1.24 62.08-1.24L62.08-1.24Z"/><path fill="#242530" transform="translate(27.47, 75.4)" d="M2.99 0.08Q2.21 0.08 1.63-0.17Q1.05-0.42 0.73-0.87Q0.42-1.32 0.42-1.93L0.42-1.93L0.42-2.18Q0.42-2.23 0.46-2.27Q0.49-2.30 0.54-2.30L0.54-2.30L1.43-2.30Q1.48-2.30 1.52-2.27Q1.55-2.23 1.55-2.18L1.55-2.18L1.55-1.99Q1.55-1.53 1.96-1.23Q2.37-0.92 3.08-0.92L3.08-0.92Q3.69-0.92 4-1.18Q4.31-1.44 4.31-1.85L4.31-1.85Q4.31-2.13 4.14-2.33Q3.97-2.52 3.66-2.68Q3.34-2.84 2.71-3.08L2.71-3.08Q2-3.34 1.56-3.57Q1.12-3.80 0.83-4.20Q0.53-4.59 0.53-5.18L0.53-5.18Q0.53-6.06 1.17-6.57Q1.81-7.08 2.88-7.08L2.88-7.08Q3.63-7.08 4.21-6.82Q4.78-6.56 5.10-6.09Q5.42-5.63 5.42-5.02L5.42-5.02L5.42-4.85Q5.42-4.80 5.38-4.76Q5.35-4.73 5.30-4.73L5.30-4.73L4.40-4.73Q4.35-4.73 4.32-4.76Q4.28-4.80 4.28-4.85L4.28-4.85L4.28-4.96Q4.28-5.43 3.90-5.75Q3.51-6.08 2.83-6.08L2.83-6.08Q2.28-6.08 1.98-5.85Q1.67-5.62 1.67-5.20L1.67-5.20Q1.67-4.90 1.83-4.71Q1.99-4.52 2.31-4.37Q2.63-4.21 3.30-3.97L3.30-3.97Q4.01-3.70 4.44-3.48Q4.86-3.26 5.17-2.87Q5.47-2.47 5.47-1.88L5.47-1.88Q5.47-0.98 4.80-0.45Q4.14 0.08 2.99 0.08L2.99 0.08ZM9.09 0.08Q8.35 0.08 7.78-0.21Q7.21-0.50 6.90-1.03Q6.58-1.57 6.58-2.27L6.58-2.27L6.58-6.88Q6.58-6.93 6.62-6.96Q6.65-7 6.70-7L6.70-7L7.62-7Q7.67-7 7.71-6.96Q7.74-6.93 7.74-6.88L7.74-6.88L7.74-2.25Q7.74-1.66 8.11-1.29Q8.48-0.92 9.09-0.92L9.09-0.92Q9.70-0.92 10.07-1.29Q10.44-1.66 10.44-2.25L10.44-2.25L10.44-6.88Q10.44-6.93 10.48-6.96Q10.51-7 10.56-7L10.56-7L11.48-7Q11.53-7 11.57-6.96Q11.60-6.93 11.60-6.88L11.60-6.88L11.60-2.27Q11.60-1.57 11.29-1.03Q10.98-0.50 10.41-0.21Q9.84 0.08 9.09 0.08L9.09 0.08ZM17.51-6.92Q17.56-7 17.65-7L17.65-7L18.57-7Q18.62-7 18.66-6.96Q18.69-6.93 18.69-6.88L18.69-6.88L18.69-0.12Q18.69-0.07 18.66-0.04Q18.62 0 18.57 0L18.57 0L17.65 0Q17.60 0 17.56-0.04Q17.53-0.07 17.53-0.12L17.53-0.12L17.53-4.89Q17.53-4.92 17.50-4.93Q17.48-4.94 17.47-4.91L17.47-4.91L16.22-2.99Q16.17-2.91 16.08-2.91L16.08-2.91L15.62-2.91Q15.53-2.91 15.48-2.99L15.48-2.99L14.22-4.90Q14.21-4.93 14.18-4.92Q14.16-4.91 14.16-4.88L14.16-4.88L14.16-0.12Q14.16-0.07 14.13-0.04Q14.09 0 14.04 0L14.04 0L13.12 0Q13.07 0 13.04-0.04Q13-0.07 13-0.12L13-0.12L13-6.88Q13-6.93 13.04-6.96Q13.07-7 13.12-7L13.12-7L14.04-7Q14.13-7 14.18-6.92L14.18-6.92L15.81-4.45Q15.83-4.43 15.85-4.43Q15.87-4.43 15.88-4.45L15.88-4.45L17.51-6.92ZM24.66-6.92Q24.71-7 24.80-7L24.80-7L25.72-7Q25.77-7 25.80-6.96Q25.84-6.93 25.84-6.88L25.84-6.88L25.84-0.12Q25.84-0.07 25.80-0.04Q25.77 0 25.72 0L25.72 0L24.80 0Q24.75 0 24.72-0.04Q24.68-0.07 24.68-0.12L24.68-0.12L24.68-4.89Q24.68-4.92 24.66-4.93Q24.63-4.94 24.62-4.91L24.62-4.91L23.37-2.99Q23.32-2.91 23.23-2.91L23.23-2.91L22.77-2.91Q22.68-2.91 22.63-2.99L22.63-2.99L21.37-4.90Q21.36-4.93 21.34-4.92Q21.31-4.91 21.31-4.88L21.31-4.88L21.31-0.12Q21.31-0.07 21.28-0.04Q21.24 0 21.19 0L21.19 0L20.27 0Q20.22 0 20.19-0.04Q20.15-0.07 20.15-0.12L20.15-0.12L20.15-6.88Q20.15-6.93 20.19-6.96Q20.22-7 20.27-7L20.27-7L21.19-7Q21.28-7 21.33-6.92L21.33-6.92L22.96-4.45Q22.98-4.43 23-4.43Q23.02-4.43 23.03-4.45L23.03-4.45L24.66-6.92ZM32.04-6.12Q32.04-6.07 32.01-6.04Q31.97-6 31.92-6L31.92-6L28.51-6Q28.46-6 28.46-5.95L28.46-5.95L28.46-4.08Q28.46-4.03 28.51-4.03L28.51-4.03L30.80-4.03Q30.85-4.03 30.89-4.00Q30.92-3.96 30.92-3.91L30.92-3.91L30.92-3.15Q30.92-3.10 30.89-3.06Q30.85-3.03 30.80-3.03L30.80-3.03L28.51-3.03Q28.46-3.03 28.46-2.98L28.46-2.98L28.46-1.05Q28.46-1 28.51-1L28.51-1L31.92-1Q31.97-1 32.01-0.96Q32.04-0.93 32.04-0.88L32.04-0.88L32.04-0.12Q32.04-0.07 32.01-0.04Q31.97 0 31.92 0L31.92 0L27.42 0Q27.37 0 27.34-0.04Q27.30-0.07 27.30-0.12L27.30-0.12L27.30-6.88Q27.30-6.93 27.34-6.96Q27.37-7 27.42-7L27.42-7L31.92-7Q31.97-7 32.01-6.96Q32.04-6.93 32.04-6.88L32.04-6.88L32.04-6.12ZM37.15 0Q37.05 0 37.01-0.09L37.01-0.09L35.69-2.97Q35.67-3.01 35.63-3.01L35.63-3.01L34.43-3.01Q34.38-3.01 34.38-2.96L34.38-2.96L34.38-0.12Q34.38-0.07 34.34-0.04Q34.31 0 34.26 0L34.26 0L33.34 0Q33.29 0 33.26-0.04Q33.22-0.07 33.22-0.12L33.22-0.12L33.22-6.88Q33.22-6.93 33.26-6.96Q33.29-7 33.34-7L33.34-7L36.09-7Q36.70-7 37.17-6.75Q37.64-6.49 37.90-6.03Q38.16-5.56 38.16-4.96L38.16-4.96Q38.16-4.27 37.80-3.79Q37.45-3.30 36.82-3.11L36.82-3.11Q36.80-3.11 36.79-3.09Q36.78-3.07 36.79-3.05L36.79-3.05L38.20-0.14Q38.22-0.10 38.22-0.08L38.22-0.08Q38.22 0 38.11 0L38.11 0L37.15 0ZM34.43-6Q34.38-6 34.38-5.95L34.38-5.95L34.38-3.96Q34.38-3.91 34.43-3.91L34.43-3.91L35.93-3.91Q36.41-3.91 36.70-4.20Q37-4.48 37-4.95L37-4.95Q37-5.42 36.70-5.71Q36.41-6 35.93-6L35.93-6L34.43-6Z"/><path fill="#252530" transform="translate(32.04, 95.3)" d="M3.38-1.84Q3.35-1.81 3.36-1.78Q3.38-1.75 3.42-1.75L3.42-1.75L7.35-1.75Q7.42-1.75 7.47-1.70Q7.53-1.65 7.53-1.58L7.53-1.58L7.53-0.17Q7.53-0.10 7.47-0.05Q7.42 0 7.35 0L7.35 0L0.83 0Q0.75 0 0.70-0.05Q0.65-0.10 0.65-0.17L0.65-0.17L0.65-1.51Q0.65-1.64 0.74-1.73L0.74-1.73Q1.45-2.42 2.19-3.24Q2.93-4.06 3.12-4.26L3.12-4.26Q3.52-4.74 3.94-5.18L3.94-5.18Q5.26-6.64 5.26-7.35L5.26-7.35Q5.26-7.86 4.90-8.19Q4.54-8.51 3.96-8.51L3.96-8.51Q3.38-8.51 3.02-8.19Q2.65-7.86 2.65-7.32L2.65-7.32L2.65-6.96Q2.65-6.89 2.60-6.84Q2.55-6.79 2.48-6.79L2.48-6.79L0.77-6.79Q0.70-6.79 0.65-6.84Q0.59-6.89 0.59-6.96L0.59-6.96L0.59-7.64Q0.64-8.42 1.09-9.03Q1.54-9.63 2.28-9.95Q3.03-10.27 3.96-10.27L3.96-10.27Q4.99-10.27 5.75-9.88Q6.51-9.50 6.92-8.85Q7.34-8.19 7.34-7.40L7.34-7.40Q7.34-6.79 7.03-6.15Q6.73-5.51 6.12-4.77L6.12-4.77Q5.67-4.21 5.15-3.65Q4.63-3.10 3.60-2.06L3.60-2.06L3.38-1.84ZM12.24 0.16Q10.64 0.16 9.72-0.73Q8.79-1.62 8.79-3.16L8.79-3.16L8.79-6.99Q8.79-8.50 9.72-9.38Q10.64-10.27 12.24-10.27L12.24-10.27Q13.83-10.27 14.77-9.38Q15.70-8.50 15.70-6.99L15.70-6.99L15.70-3.16Q15.70-1.62 14.77-0.73Q13.83 0.16 12.24 0.16L12.24 0.16ZM12.24-1.59Q12.89-1.59 13.27-1.99Q13.66-2.39 13.66-3.06L13.66-3.06L13.66-7.05Q13.66-7.71 13.27-8.11Q12.89-8.51 12.24-8.51L12.24-8.51Q11.60-8.51 11.22-8.11Q10.83-7.71 10.83-7.05L10.83-7.05L10.83-3.06Q10.83-2.39 11.22-1.99Q11.60-1.59 12.24-1.59L12.24-1.59ZM19.76-1.84Q19.73-1.81 19.75-1.78Q19.76-1.75 19.81-1.75L19.81-1.75L23.74-1.75Q23.81-1.75 23.86-1.70Q23.91-1.65 23.91-1.58L23.91-1.58L23.91-0.17Q23.91-0.10 23.86-0.05Q23.81 0 23.74 0L23.74 0L17.21 0Q17.14 0 17.09-0.05Q17.04-0.10 17.04-0.17L17.04-0.17L17.04-1.51Q17.04-1.64 17.12-1.73L17.12-1.73Q17.84-2.42 18.57-3.24Q19.31-4.06 19.50-4.26L19.50-4.26Q19.91-4.74 20.33-5.18L20.33-5.18Q21.65-6.64 21.65-7.35L21.65-7.35Q21.65-7.86 21.29-8.19Q20.92-8.51 20.34-8.51L20.34-8.51Q19.76-8.51 19.40-8.19Q19.04-7.86 19.04-7.32L19.04-7.32L19.04-6.96Q19.04-6.89 18.99-6.84Q18.94-6.79 18.86-6.79L18.86-6.79L17.15-6.79Q17.08-6.79 17.03-6.84Q16.98-6.89 16.98-6.96L16.98-6.96L16.98-7.64Q17.02-8.42 17.47-9.03Q17.92-9.63 18.67-9.95Q19.42-10.27 20.34-10.27L20.34-10.27Q21.37-10.27 22.13-9.88Q22.90-9.50 23.31-8.85Q23.72-8.19 23.72-7.40L23.72-7.40Q23.72-6.79 23.42-6.15Q23.11-5.51 22.50-4.77L22.50-4.77Q22.05-4.21 21.53-3.65Q21.01-3.10 19.98-2.06L19.98-2.06L19.76-1.84ZM26.59-10.11Q26.67-10.15 26.81-10.15L26.81-10.15L28.57-10.15Q28.64-10.15 28.69-10.10Q28.74-10.05 28.74-9.98L28.74-9.98L28.74-0.17Q28.74-0.10 28.69-0.05Q28.64 0 28.57 0L28.57 0L26.87 0Q26.80 0 26.75-0.05Q26.69-0.10 26.69-0.17L26.69-0.17L26.69-8.12Q26.69-8.15 26.67-8.18Q26.64-8.21 26.61-8.19L26.61-8.19L25.17-7.80L25.11-7.79Q24.98-7.79 24.98-7.95L24.98-7.95L24.94-9.19Q24.94-9.34 25.07-9.40L25.07-9.40L26.59-10.11Z"/></g>
</svg>