<svg xmlns="http://www.w3.org/2000/svg" viewBox="0 0 94 122">
  <g id="container">
    <path fill="#fff" d="M8.1 89.9L47.6 110l38-20.1V11.3H8.1z"/>
    <path fill="#f2f3f2" d="M86.4 11.6L7.3 91.3l41 20.3 38.1-19.5z"/>
    <path d="M5.5 37.5v54.1l1.4.7 39.5 20.1 1.2.6 1.2-.6 38.1-20.1 1.4-.7V8.7H5.5v28.8zm2.6 52.6V11.3h77.6v78.8l-38.1 20.1L8.1 90.1z" fill="#dcdedc"/>
    <path id="logo" d="M46.9 12.6c.4 0 .8 0 1.2.1L46.9 15c-1.8-.1-3.4 1.3-3.5 3.1-.1 1.8 1.3 3.4 3.1 3.5h.4c.8 0 1.6-.3 2.2-.8l1.3 2.2c-1 .7-2.2 1.1-3.5 1.1-3.2.1-5.9-2.3-6-5.5-.1-3.2 2.3-5.9 5.5-6h.5zm4.1 4.9l1.5 2.5-1.5 2.4-1.4-2.4h-2.9l1.5-2.5H51zm-2.4-.9c0-.4.1-.8.3-1.1.2-.3.6-.6.9-.8l.2-.1c.4-.2.5-.3.5-.5s-.3-.4-.5-.4c-.4 0-.7.2-.9.6l-.5-.5c.1-.2.3-.4.5-.6.3-.2.6-.2.9-.2.3 0 .7.1.9.3.2.2.4.5.4.8 0 .5-.3.9-.9 1.1l-.3.2c-.3.2-.5.3-.6.6h1.8v.7l-2.7-.1zm-1.7 12.5l9.5-5.4v-15H37.3v14.9l9.6 5.5z" fill="#ff492c"/>
    <path id="banner" d="M90.2 64.5H3.6l-3.2 7 3.2 7h86.6l3.1-7z" fill="#2690ce"/>
  <path fill="#252530" transform="translate(11.55, 60)" d="M0.73 0Q0.68 0 0.65-0.04Q0.61-0.07 0.61-0.12L0.61-0.12L0.61-6.88Q0.61-6.93 0.65-6.96Q0.68-7 0.73-7L0.73-7L1.90-7Q1.95-7 1.99-6.96Q2.02-6.93 2.02-6.88L2.02-6.88L2.02-0.12Q2.02-0.07 1.99-0.04Q1.95 0 1.90 0L1.90 0L0.73 0ZM8.85-5.22Q9.63-5.22 10.07-4.75Q10.51-4.28 10.51-3.43L10.51-3.43L10.51-0.12Q10.51-0.07 10.47-0.04Q10.44 0 10.39 0L10.39 0L9.22 0Q9.17 0 9.13-0.04Q9.10-0.07 9.10-0.12L9.10-0.12L9.10-3.12Q9.10-3.53 8.89-3.77Q8.68-4.01 8.33-4.01L8.33-4.01Q7.98-4.01 7.76-3.77Q7.54-3.53 7.54-3.13L7.54-3.13L7.54-0.12Q7.54-0.07 7.50-0.04Q7.47 0 7.42 0L7.42 0L6.26 0Q6.21 0 6.17-0.04Q6.14-0.07 6.14-0.12L6.14-0.12L6.14-3.12Q6.14-3.52 5.92-3.77Q5.70-4.01 5.35-4.01L5.35-4.01Q5.03-4.01 4.81-3.82Q4.60-3.63 4.56-3.29L4.56-3.29L4.56-0.12Q4.56-0.07 4.53-0.04Q4.49 0 4.44 0L4.44 0L3.27 0Q3.22 0 3.19-0.04Q3.15-0.07 3.15-0.12L3.15-0.12L3.15-5.02Q3.15-5.07 3.19-5.11Q3.22-5.14 3.27-5.14L3.27-5.14L4.44-5.14Q4.49-5.14 4.53-5.11Q4.56-5.07 4.56-5.02L4.56-5.02L4.56-4.63Q4.56-4.60 4.58-4.59Q4.60-4.58 4.62-4.61L4.62-4.61Q5.03-5.22 5.89-5.22L5.89-5.22Q6.39-5.22 6.76-5.01Q7.14-4.80 7.34-4.41L7.34-4.41Q7.37-4.35 7.41-4.41L7.41-4.41Q7.63-4.82 8.00-5.02Q8.38-5.22 8.85-5.22L8.85-5.22ZM16.09-3.76Q16.27-3.25 16.27-2.56L16.27-2.56Q16.27-1.87 16.08-1.31L16.08-1.31Q15.85-0.67 15.36-0.29Q14.86 0.08 14.13 0.08L14.13 0.08Q13.41 0.08 13.01-0.42L13.01-0.42Q12.99-0.45 12.97-0.44Q12.95-0.43 12.95-0.40L12.95-0.40L12.95 1.74Q12.95 1.79 12.92 1.82Q12.88 1.86 12.83 1.86L12.83 1.86L11.66 1.86Q11.61 1.86 11.58 1.82Q11.54 1.79 11.54 1.74L11.54 1.74L11.54-5.02Q11.54-5.07 11.58-5.11Q11.61-5.14 11.66-5.14L11.66-5.14L12.83-5.14Q12.88-5.14 12.92-5.11Q12.95-5.07 12.95-5.02L12.95-5.02L12.95-4.69Q12.95-4.66 12.97-4.66Q12.99-4.65 13.01-4.67L13.01-4.67Q13.43-5.22 14.17-5.22L14.17-5.22Q14.86-5.22 15.37-4.83Q15.87-4.45 16.09-3.76L16.09-3.76ZM14.56-1.52Q14.81-1.91 14.81-2.58L14.81-2.58Q14.81-3.21 14.60-3.58L14.60-3.58Q14.37-4.01 13.86-4.01L13.86-4.01Q13.40-4.01 13.17-3.58L13.17-3.58Q12.96-3.22 12.96-2.57L12.96-2.57Q12.96-1.90 13.18-1.53L13.18-1.53Q13.41-1.13 13.86-1.13L13.86-1.13Q14.31-1.13 14.56-1.52L14.56-1.52ZM17.30 0Q17.25 0 17.21-0.04Q17.18-0.07 17.18-0.12L17.18-0.12L17.18-6.88Q17.18-6.93 17.21-6.96Q17.25-7 17.30-7L17.30-7L18.47-7Q18.52-7 18.55-6.96Q18.59-6.93 18.59-6.88L18.59-6.88L18.59-0.12Q18.59-0.07 18.55-0.04Q18.52 0 18.47 0L18.47 0L17.30 0ZM24.17-3.10Q24.23-2.72 24.21-2.25L24.21-2.25Q24.20-2.13 24.08-2.13L24.08-2.13L20.99-2.13Q20.93-2.13 20.95-2.08L20.95-2.08Q20.98-1.88 21.06-1.68L21.06-1.68Q21.32-1.12 22.12-1.12L22.12-1.12Q22.76-1.13 23.13-1.64L23.13-1.64Q23.17-1.70 23.22-1.70L23.22-1.70Q23.25-1.70 23.29-1.66L23.29-1.66L24.01-0.95Q24.06-0.90 24.06-0.86L24.06-0.86Q24.06-0.84 24.02-0.78L24.02-0.78Q23.69-0.37 23.17-0.14Q22.65 0.08 22.03 0.08L22.03 0.08Q21.17 0.08 20.58-0.31Q19.98-0.70 19.72-1.40L19.72-1.40Q19.51-1.90 19.51-2.71L19.51-2.71Q19.51-3.26 19.66-3.68L19.66-3.68Q19.89-4.39 20.46-4.81Q21.04-5.23 21.83-5.23L21.83-5.23Q22.83-5.23 23.44-4.65Q24.04-4.07 24.17-3.10L24.17-3.10ZM21.84-4.01Q21.21-4.01 21.01-3.42L21.01-3.42Q20.97-3.29 20.94-3.10L20.94-3.10Q20.94-3.05 20.99-3.05L20.99-3.05L22.72-3.05Q22.78-3.05 22.76-3.10L22.76-3.10Q22.71-3.39 22.71-3.38L22.71-3.38Q22.62-3.68 22.40-3.85Q22.17-4.01 21.84-4.01L21.84-4.01ZM30.78-5.22Q31.56-5.22 32-4.75Q32.44-4.28 32.44-3.43L32.44-3.43L32.44-0.12Q32.44-0.07 32.41-0.04Q32.37 0 32.32 0L32.32 0L31.15 0Q31.10 0 31.07-0.04Q31.03-0.07 31.03-0.12L31.03-0.12L31.03-3.12Q31.03-3.53 30.82-3.77Q30.61-4.01 30.26-4.01L30.26-4.01Q29.91-4.01 29.69-3.77Q29.47-3.53 29.47-3.13L29.47-3.13L29.47-0.12Q29.47-0.07 29.44-0.04Q29.40 0 29.35 0L29.35 0L28.19 0Q28.14 0 28.11-0.04Q28.07-0.07 28.07-0.12L28.07-0.12L28.07-3.12Q28.07-3.52 27.85-3.77Q27.63-4.01 27.28-4.01L27.28-4.01Q26.96-4.01 26.75-3.82Q26.53-3.63 26.49-3.29L26.49-3.29L26.49-0.12Q26.49-0.07 26.46-0.04Q26.42 0 26.37 0L26.37 0L25.20 0Q25.15 0 25.12-0.04Q25.08-0.07 25.08-0.12L25.08-0.12L25.08-5.02Q25.08-5.07 25.12-5.11Q25.15-5.14 25.20-5.14L25.20-5.14L26.37-5.14Q26.42-5.14 26.46-5.11Q26.49-5.07 26.49-5.02L26.49-5.02L26.49-4.63Q26.49-4.60 26.51-4.59Q26.53-4.58 26.55-4.61L26.55-4.61Q26.96-5.22 27.82-5.22L27.82-5.22Q28.32-5.22 28.70-5.01Q29.07-4.80 29.27-4.41L29.27-4.41Q29.30-4.35 29.34-4.41L29.34-4.41Q29.56-4.82 29.94-5.02Q30.31-5.22 30.78-5.22L30.78-5.22ZM37.95-3.10Q38.01-2.72 37.99-2.25L37.99-2.25Q37.98-2.13 37.86-2.13L37.86-2.13L34.77-2.13Q34.71-2.13 34.73-2.08L34.73-2.08Q34.76-1.88 34.84-1.68L34.84-1.68Q35.10-1.12 35.90-1.12L35.90-1.12Q36.54-1.13 36.91-1.64L36.91-1.64Q36.95-1.70 37-1.70L37-1.70Q37.03-1.70 37.07-1.66L37.07-1.66L37.79-0.95Q37.84-0.90 37.84-0.86L37.84-0.86Q37.84-0.84 37.80-0.78L37.80-0.78Q37.47-0.37 36.95-0.14Q36.43 0.08 35.81 0.08L35.81 0.08Q34.95 0.08 34.36-0.31Q33.76-0.70 33.50-1.40L33.50-1.40Q33.29-1.90 33.29-2.71L33.29-2.71Q33.29-3.26 33.44-3.68L33.44-3.68Q33.67-4.39 34.25-4.81Q34.82-5.23 35.61-5.23L35.61-5.23Q36.61-5.23 37.22-4.65Q37.82-4.07 37.95-3.10L37.95-3.10ZM35.62-4.01Q34.99-4.01 34.79-3.42L34.79-3.42Q34.75-3.29 34.72-3.10L34.72-3.10Q34.72-3.05 34.77-3.05L34.77-3.05L36.50-3.05Q36.56-3.05 36.54-3.10L36.54-3.10Q36.49-3.39 36.49-3.38L36.49-3.38Q36.40-3.68 36.18-3.85Q35.95-4.01 35.62-4.01L35.62-4.01ZM41.54-5.22Q42.34-5.22 42.83-4.73Q43.32-4.24 43.32-3.40L43.32-3.40L43.32-0.12Q43.32-0.07 43.29-0.04Q43.25 0 43.20 0L43.20 0L42.03 0Q41.98 0 41.95-0.04Q41.91-0.07 41.91-0.12L41.91-0.12L41.91-3.11Q41.91-3.51 41.69-3.76Q41.46-4.01 41.09-4.01L41.09-4.01Q40.72-4.01 40.50-3.76Q40.27-3.51 40.27-3.11L40.27-3.11L40.27-0.12Q40.27-0.07 40.24-0.04Q40.20 0 40.15 0L40.15 0L38.98 0Q38.93 0 38.90-0.04Q38.86-0.07 38.86-0.12L38.86-0.12L38.86-5.02Q38.86-5.07 38.90-5.11Q38.93-5.14 38.98-5.14L38.98-5.14L40.15-5.14Q40.20-5.14 40.24-5.11Q40.27-5.07 40.27-5.02L40.27-5.02L40.27-4.67Q40.27-4.64 40.29-4.63Q40.31-4.62 40.32-4.64L40.32-4.64Q40.73-5.22 41.54-5.22L41.54-5.22ZM47.28-4.13Q47.28-4.08 47.25-4.04Q47.21-4.01 47.16-4.01L47.16-4.01L46.20-4.01Q46.15-4.01 46.15-3.96L46.15-3.96L46.15-1.84Q46.15-1.51 46.29-1.35Q46.42-1.19 46.72-1.19L46.72-1.19L47.05-1.19Q47.10-1.19 47.14-1.16Q47.17-1.12 47.17-1.07L47.17-1.07L47.17-0.12Q47.17-0.01 47.05 0.01L47.05 0.01Q46.63 0.03 46.45 0.03L46.45 0.03Q45.62 0.03 45.21-0.24Q44.80-0.52 44.79-1.28L44.79-1.28L44.79-3.96Q44.79-4.01 44.74-4.01L44.74-4.01L44.17-4.01Q44.12-4.01 44.09-4.04Q44.05-4.08 44.05-4.13L44.05-4.13L44.05-5.02Q44.05-5.07 44.09-5.11Q44.12-5.14 44.17-5.14L44.17-5.14L44.74-5.14Q44.79-5.14 44.79-5.19L44.79-5.19L44.79-6.38Q44.79-6.43 44.83-6.46Q44.86-6.50 44.91-6.50L44.91-6.50L46.03-6.50Q46.08-6.50 46.12-6.46Q46.15-6.43 46.15-6.38L46.15-6.38L46.15-5.19Q46.15-5.14 46.20-5.14L46.20-5.14L47.16-5.14Q47.21-5.14 47.25-5.11Q47.28-5.07 47.28-5.02L47.28-5.02L47.28-4.13ZM50.18-5.22Q50.83-5.22 51.34-5.00Q51.85-4.77 52.13-4.38Q52.42-3.99 52.42-3.51L52.42-3.51L52.42-0.12Q52.42-0.07 52.38-0.04Q52.35 0 52.30 0L52.30 0L51.13 0Q51.08 0 51.05-0.04Q51.01-0.07 51.01-0.12L51.01-0.12L51.01-0.45Q51.01-0.48 50.99-0.49Q50.97-0.50 50.95-0.47L50.95-0.47Q50.53 0.08 49.60 0.08L49.60 0.08Q48.82 0.08 48.34-0.30Q47.86-0.68 47.86-1.42L47.86-1.42Q47.86-2.19 48.40-2.62Q48.94-3.04 49.94-3.04L49.94-3.04L50.96-3.04Q51.01-3.04 51.01-3.09L51.01-3.09L51.01-3.31Q51.01-3.64 50.81-3.83Q50.61-4.01 50.21-4.01L50.21-4.01Q49.90-4.01 49.70-3.90Q49.49-3.79 49.43-3.59L49.43-3.59Q49.40-3.48 49.30-3.49L49.30-3.49L48.09-3.65Q47.97-3.67 47.98-3.74L47.98-3.74Q48.02-4.16 48.31-4.50Q48.61-4.84 49.09-5.03Q49.58-5.22 50.18-5.22L50.18-5.22ZM49.98-0.97Q50.41-0.97 50.71-1.20Q51.01-1.43 51.01-1.79L51.01-1.79L51.01-2.15Q51.01-2.20 50.96-2.20L50.96-2.20L50.24-2.20Q49.79-2.20 49.53-2.03Q49.28-1.86 49.28-1.55L49.28-1.55Q49.28-1.28 49.47-1.13Q49.66-0.97 49.98-0.97L49.98-0.97ZM56.25-4.13Q56.25-4.08 56.22-4.04Q56.18-4.01 56.13-4.01L56.13-4.01L55.17-4.01Q55.12-4.01 55.12-3.96L55.12-3.96L55.12-1.84Q55.12-1.51 55.26-1.35Q55.39-1.19 55.69-1.19L55.69-1.19L56.02-1.19Q56.07-1.19 56.11-1.16Q56.14-1.12 56.14-1.07L56.14-1.07L56.14-0.12Q56.14-0.01 56.02 0.01L56.02 0.01Q55.60 0.03 55.42 0.03L55.42 0.03Q54.59 0.03 54.18-0.24Q53.77-0.52 53.76-1.28L53.76-1.28L53.76-3.96Q53.76-4.01 53.71-4.01L53.71-4.01L53.14-4.01Q53.09-4.01 53.05-4.04Q53.02-4.08 53.02-4.13L53.02-4.13L53.02-5.02Q53.02-5.07 53.05-5.11Q53.09-5.14 53.14-5.14L53.14-5.14L53.71-5.14Q53.76-5.14 53.76-5.19L53.76-5.19L53.76-6.38Q53.76-6.43 53.80-6.46Q53.83-6.50 53.88-6.50L53.88-6.50L55-6.50Q55.05-6.50 55.09-6.46Q55.12-6.43 55.12-6.38L55.12-6.38L55.12-5.19Q55.12-5.14 55.17-5.14L55.17-5.14L56.13-5.14Q56.18-5.14 56.22-5.11Q56.25-5.07 56.25-5.02L56.25-5.02L56.25-4.13ZM57.86-5.72Q57.52-5.72 57.30-5.95Q57.07-6.17 57.07-6.51L57.07-6.51Q57.07-6.86 57.29-7.08Q57.51-7.30 57.86-7.30L57.86-7.30Q58.21-7.30 58.43-7.08Q58.65-6.86 58.65-6.51L58.65-6.51Q58.65-6.17 58.42-5.95Q58.20-5.72 57.86-5.72L57.86-5.72ZM57.26 0Q57.21 0 57.17-0.04Q57.14-0.07 57.14-0.12L57.14-0.12L57.14-5.03Q57.14-5.08 57.17-5.12Q57.21-5.15 57.26-5.15L57.26-5.15L58.43-5.15Q58.48-5.15 58.52-5.12Q58.55-5.08 58.55-5.03L58.55-5.03L58.55-0.12Q58.55-0.07 58.52-0.04Q58.48 0 58.43 0L58.43 0L57.26 0ZM61.92 0.08Q61.08 0.08 60.48-0.36Q59.88-0.80 59.66-1.56L59.66-1.56Q59.52-2.03 59.52-2.58L59.52-2.58Q59.52-3.17 59.66-3.64L59.66-3.64Q59.89-4.38 60.49-4.80Q61.09-5.22 61.93-5.22L61.93-5.22Q62.75-5.22 63.33-4.80Q63.91-4.39 64.15-3.65L64.15-3.65Q64.31-3.15 64.31-2.60L64.31-2.60Q64.31-2.06 64.17-1.59L64.17-1.59Q63.95-0.81 63.35-0.36Q62.76 0.08 61.92 0.08L61.92 0.08ZM61.92-1.13Q62.25-1.13 62.48-1.33Q62.71-1.53 62.81-1.88L62.81-1.88Q62.89-2.20 62.89-2.58L62.89-2.58Q62.89-3 62.81-3.29L62.81-3.29Q62.70-3.63 62.47-3.82Q62.24-4.01 61.91-4.01L61.91-4.01Q61.57-4.01 61.34-3.82Q61.12-3.63 61.02-3.29L61.02-3.29Q60.94-3.05 60.94-2.58L60.94-2.58Q60.94-2.13 61.01-1.88L61.01-1.88Q61.11-1.53 61.34-1.33Q61.58-1.13 61.92-1.13L61.92-1.13ZM67.90-5.22Q68.70-5.22 69.19-4.73Q69.68-4.24 69.68-3.40L69.68-3.40L69.68-0.12Q69.68-0.07 69.64-0.04Q69.61 0 69.56 0L69.56 0L68.39 0Q68.34 0 68.30-0.04Q68.27-0.07 68.27-0.12L68.27-0.12L68.27-3.11Q68.27-3.51 68.04-3.76Q67.82-4.01 67.45-4.01L67.45-4.01Q67.08-4.01 66.85-3.76Q66.63-3.51 66.63-3.11L66.63-3.11L66.63-0.12Q66.63-0.07 66.59-0.04Q66.56 0 66.51 0L66.51 0L65.34 0Q65.29 0 65.25-0.04Q65.22-0.07 65.22-0.12L65.22-0.12L65.22-5.02Q65.22-5.07 65.25-5.11Q65.29-5.14 65.34-5.14L65.34-5.14L66.51-5.14Q66.56-5.14 66.59-5.11Q66.63-5.07 66.63-5.02L66.63-5.02L66.63-4.67Q66.63-4.64 66.65-4.63Q66.67-4.62 66.68-4.64L66.68-4.64Q67.09-5.22 67.90-5.22L67.90-5.22Z"/><path fill="#252530" transform="translate(29.89, 50)" d="M5.46-5.91Q5.46-5.86 5.42-5.83Q5.39-5.79 5.34-5.79L5.34-5.79L2.07-5.79Q2.02-5.79 2.02-5.74L2.02-5.74L2.02-4.19Q2.02-4.14 2.07-4.14L2.07-4.14L4.22-4.14Q4.27-4.14 4.30-4.11Q4.34-4.07 4.34-4.02L4.34-4.02L4.34-3.05Q4.34-3 4.30-2.96Q4.27-2.93 4.22-2.93L4.22-2.93L2.07-2.93Q2.02-2.93 2.02-2.88L2.02-2.88L2.02-0.12Q2.02-0.07 1.99-0.04Q1.95 0 1.90 0L1.90 0L0.73 0Q0.68 0 0.65-0.04Q0.61-0.07 0.61-0.12L0.61-0.12L0.61-6.88Q0.61-6.93 0.65-6.96Q0.68-7 0.73-7L0.73-7L5.34-7Q5.39-7 5.42-6.96Q5.46-6.93 5.46-6.88L5.46-6.88L5.46-5.91ZM7.68-5.22Q8.33-5.22 8.84-5.00Q9.35-4.77 9.64-4.38Q9.92-3.99 9.92-3.51L9.92-3.51L9.92-0.12Q9.92-0.07 9.89-0.04Q9.85 0 9.80 0L9.80 0L8.63 0Q8.58 0 8.54-0.04Q8.51-0.07 8.51-0.12L8.51-0.12L8.51-0.45Q8.51-0.48 8.49-0.49Q8.47-0.50 8.45-0.47L8.45-0.47Q8.03 0.08 7.10 0.08L7.10 0.08Q6.32 0.08 5.84-0.30Q5.36-0.68 5.36-1.42L5.36-1.42Q5.36-2.19 5.90-2.62Q6.44-3.04 7.44-3.04L7.44-3.04L8.46-3.04Q8.51-3.04 8.51-3.09L8.51-3.09L8.51-3.31Q8.51-3.64 8.31-3.83Q8.11-4.01 7.71-4.01L7.71-4.01Q7.40-4.01 7.20-3.90Q6.99-3.79 6.93-3.59L6.93-3.59Q6.90-3.48 6.80-3.49L6.80-3.49L5.59-3.65Q5.47-3.67 5.48-3.74L5.48-3.74Q5.52-4.16 5.82-4.50Q6.11-4.84 6.60-5.03Q7.08-5.22 7.68-5.22L7.68-5.22ZM7.48-0.97Q7.91-0.97 8.21-1.20Q8.51-1.43 8.51-1.79L8.51-1.79L8.51-2.15Q8.51-2.20 8.46-2.20L8.46-2.20L7.74-2.20Q7.29-2.20 7.04-2.03Q6.78-1.86 6.78-1.55L6.78-1.55Q6.78-1.28 6.97-1.13Q7.16-0.97 7.48-0.97L7.48-0.97ZM12.96 0.07Q12.29 0.07 11.79-0.12Q11.29-0.31 11.02-0.65Q10.74-0.99 10.74-1.42L10.74-1.42L10.74-1.52Q10.74-1.57 10.78-1.60Q10.81-1.64 10.86-1.64L10.86-1.64L11.97-1.64Q12.02-1.64 12.05-1.60Q12.09-1.57 12.09-1.52L12.09-1.52L12.09-1.51Q12.09-1.29 12.34-1.14Q12.58-0.98 12.95-0.98L12.95-0.98Q13.29-0.98 13.50-1.11Q13.71-1.25 13.71-1.45L13.71-1.45Q13.71-1.63 13.53-1.72Q13.35-1.81 12.94-1.91L12.94-1.91Q12.47-2.03 12.20-2.14L12.20-2.14Q11.56-2.36 11.18-2.68Q10.80-3 10.80-3.60L10.80-3.60Q10.80-4.34 11.38-4.78Q11.95-5.21 12.90-5.21L12.90-5.21Q13.54-5.21 14.02-5.00Q14.50-4.80 14.77-4.43Q15.03-4.06 15.03-3.59L15.03-3.59Q15.03-3.54 15.00-3.50Q14.96-3.47 14.91-3.47L14.91-3.47L13.84-3.47Q13.79-3.47 13.76-3.50Q13.72-3.54 13.72-3.59L13.72-3.59Q13.72-3.81 13.50-3.96Q13.27-4.11 12.90-4.11L12.90-4.11Q12.57-4.11 12.36-3.99Q12.15-3.87 12.15-3.66L12.15-3.66Q12.15-3.46 12.36-3.36Q12.56-3.26 13.04-3.15L13.04-3.15Q13.15-3.12 13.29-3.08Q13.43-3.05 13.59-3L13.59-3Q14.30-2.79 14.71-2.46Q15.12-2.13 15.12-1.50L15.12-1.50Q15.12-0.76 14.54-0.35Q13.95 0.07 12.96 0.07L12.96 0.07ZM18.87-4.13Q18.87-4.08 18.84-4.04Q18.80-4.01 18.75-4.01L18.75-4.01L17.79-4.01Q17.74-4.01 17.74-3.96L17.74-3.96L17.74-1.84Q17.74-1.51 17.88-1.35Q18.01-1.19 18.31-1.19L18.31-1.19L18.64-1.19Q18.69-1.19 18.73-1.16Q18.76-1.12 18.76-1.07L18.76-1.07L18.76-0.12Q18.76-0.01 18.64 0.01L18.64 0.01Q18.22 0.03 18.04 0.03L18.04 0.03Q17.21 0.03 16.80-0.24Q16.39-0.52 16.38-1.28L16.38-1.28L16.38-3.96Q16.38-4.01 16.33-4.01L16.33-4.01L15.76-4.01Q15.71-4.01 15.68-4.04Q15.64-4.08 15.64-4.13L15.64-4.13L15.64-5.02Q15.64-5.07 15.68-5.11Q15.71-5.14 15.76-5.14L15.76-5.14L16.33-5.14Q16.38-5.14 16.38-5.19L16.38-5.19L16.38-6.38Q16.38-6.43 16.41-6.46Q16.45-6.50 16.50-6.50L16.50-6.50L17.62-6.50Q17.67-6.50 17.71-6.46Q17.74-6.43 17.74-6.38L17.74-6.38L17.74-5.19Q17.74-5.14 17.79-5.14L17.79-5.14L18.75-5.14Q18.80-5.14 18.84-5.11Q18.87-5.07 18.87-5.02L18.87-5.02L18.87-4.13ZM24.20-3.10Q24.26-2.72 24.24-2.25L24.24-2.25Q24.23-2.13 24.11-2.13L24.11-2.13L21.02-2.13Q20.96-2.13 20.98-2.08L20.98-2.08Q21.01-1.88 21.09-1.68L21.09-1.68Q21.35-1.12 22.15-1.12L22.15-1.12Q22.79-1.13 23.16-1.64L23.16-1.64Q23.20-1.70 23.25-1.70L23.25-1.70Q23.28-1.70 23.32-1.66L23.32-1.66L24.04-0.95Q24.09-0.90 24.09-0.86L24.09-0.86Q24.09-0.84 24.05-0.78L24.05-0.78Q23.72-0.37 23.20-0.14Q22.68 0.08 22.06 0.08L22.06 0.08Q21.20 0.08 20.61-0.31Q20.01-0.70 19.75-1.40L19.75-1.40Q19.54-1.90 19.54-2.71L19.54-2.71Q19.54-3.26 19.69-3.68L19.69-3.68Q19.92-4.39 20.49-4.81Q21.07-5.23 21.86-5.23L21.86-5.23Q22.86-5.23 23.46-4.65Q24.07-4.07 24.20-3.10L24.20-3.10ZM21.87-4.01Q21.24-4.01 21.04-3.42L21.04-3.42Q21-3.29 20.97-3.10L20.97-3.10Q20.97-3.05 21.02-3.05L21.02-3.05L22.75-3.05Q22.81-3.05 22.79-3.10L22.79-3.10Q22.74-3.39 22.74-3.38L22.74-3.38Q22.65-3.68 22.42-3.85Q22.20-4.01 21.87-4.01L21.87-4.01ZM27.09 0.07Q26.42 0.07 25.92-0.12Q25.42-0.31 25.14-0.65Q24.87-0.99 24.87-1.42L24.87-1.42L24.87-1.52Q24.87-1.57 24.91-1.60Q24.94-1.64 24.99-1.64L24.99-1.64L26.10-1.64Q26.15-1.64 26.18-1.60Q26.22-1.57 26.22-1.52L26.22-1.52L26.22-1.51Q26.22-1.29 26.46-1.14Q26.71-0.98 27.08-0.98L27.08-0.98Q27.42-0.98 27.63-1.11Q27.84-1.25 27.84-1.45L27.84-1.45Q27.84-1.63 27.66-1.72Q27.48-1.81 27.07-1.91L27.07-1.91Q26.60-2.03 26.33-2.14L26.33-2.14Q25.69-2.36 25.31-2.68Q24.93-3 24.93-3.60L24.93-3.60Q24.93-4.34 25.50-4.78Q26.08-5.21 27.03-5.21L27.03-5.21Q27.67-5.21 28.15-5.00Q28.63-4.80 28.89-4.43Q29.16-4.06 29.16-3.59L29.16-3.59Q29.16-3.54 29.13-3.50Q29.09-3.47 29.04-3.47L29.04-3.47L27.97-3.47Q27.92-3.47 27.88-3.50Q27.85-3.54 27.85-3.59L27.85-3.59Q27.85-3.81 27.63-3.96Q27.40-4.11 27.03-4.11L27.03-4.11Q26.70-4.11 26.49-3.99Q26.28-3.87 26.28-3.66L26.28-3.66Q26.28-3.46 26.48-3.36Q26.69-3.26 27.17-3.15L27.17-3.15Q27.28-3.12 27.42-3.08Q27.56-3.05 27.72-3L27.72-3Q28.43-2.79 28.84-2.46Q29.25-2.13 29.25-1.50L29.25-1.50Q29.25-0.76 28.66-0.35Q28.08 0.07 27.09 0.07L27.09 0.07ZM33-4.13Q33-4.08 32.96-4.04Q32.93-4.01 32.88-4.01L32.88-4.01L31.92-4.01Q31.87-4.01 31.87-3.96L31.87-3.96L31.87-1.84Q31.87-1.51 32.00-1.35Q32.14-1.19 32.44-1.19L32.44-1.19L32.77-1.19Q32.82-1.19 32.85-1.16Q32.89-1.12 32.89-1.07L32.89-1.07L32.89-0.12Q32.89-0.01 32.77 0.01L32.77 0.01Q32.35 0.03 32.17 0.03L32.17 0.03Q31.34 0.03 30.93-0.24Q30.52-0.52 30.51-1.28L30.51-1.28L30.51-3.96Q30.51-4.01 30.46-4.01L30.46-4.01L29.89-4.01Q29.84-4.01 29.80-4.04Q29.77-4.08 29.77-4.13L29.77-4.13L29.77-5.02Q29.77-5.07 29.80-5.11Q29.84-5.14 29.89-5.14L29.89-5.14L30.46-5.14Q30.51-5.14 30.51-5.19L30.51-5.19L30.51-6.38Q30.51-6.43 30.54-6.46Q30.58-6.50 30.63-6.50L30.63-6.50L31.75-6.50Q31.80-6.50 31.83-6.46Q31.87-6.43 31.87-6.38L31.87-6.38L31.87-5.19Q31.87-5.14 31.92-5.14L31.92-5.14L32.88-5.14Q32.93-5.14 32.96-5.11Q33-5.07 33-5.02L33-5.02L33-4.13Z"/><path fill="#fff" transform="translate(21.79, 75.4)" d="M5.24-6.92Q5.29-7 5.38-7L5.38-7L6.30-7Q6.35-7 6.38-6.96Q6.42-6.93 6.42-6.88L6.42-6.88L6.42-0.12Q6.42-0.07 6.38-0.04Q6.35 0 6.30 0L6.30 0L5.38 0Q5.33 0 5.29-0.04Q5.26-0.07 5.26-0.12L5.26-0.12L5.26-4.89Q5.26-4.92 5.24-4.93Q5.21-4.94 5.20-4.91L5.20-4.91L3.95-2.99Q3.90-2.91 3.81-2.91L3.81-2.91L3.35-2.91Q3.26-2.91 3.21-2.99L3.21-2.99L1.95-4.90Q1.94-4.93 1.92-4.92Q1.89-4.91 1.89-4.88L1.89-4.88L1.89-0.12Q1.89-0.07 1.85-0.04Q1.82 0 1.77 0L1.77 0L0.85 0Q0.80 0 0.77-0.04Q0.73-0.07 0.73-0.12L0.73-0.12L0.73-6.88Q0.73-6.93 0.77-6.96Q0.80-7 0.85-7L0.85-7L1.77-7Q1.86-7 1.91-6.92L1.91-6.92L3.54-4.45Q3.56-4.43 3.58-4.43Q3.60-4.43 3.61-4.45L3.61-4.45L5.24-6.92ZM8.43-5.81Q8.12-5.81 7.92-6.01Q7.72-6.21 7.72-6.52L7.72-6.52Q7.72-6.83 7.92-7.03Q8.12-7.23 8.43-7.23L8.43-7.23Q8.74-7.23 8.94-7.03Q9.14-6.83 9.14-6.52L9.14-6.52Q9.14-6.21 8.94-6.01Q8.74-5.81 8.43-5.81L8.43-5.81ZM7.95 0Q7.90 0 7.87-0.04Q7.83-0.07 7.83-0.12L7.83-0.12L7.83-5Q7.83-5.05 7.87-5.08Q7.90-5.12 7.95-5.12L7.95-5.12L8.87-5.12Q8.92-5.12 8.96-5.08Q8.99-5.05 8.99-5L8.99-5L8.99-0.12Q8.99-0.07 8.96-0.04Q8.92 0 8.87 0L8.87 0L7.95 0ZM13.49-6.88Q13.49-6.93 13.53-6.96Q13.56-7 13.61-7L13.61-7L14.53-7Q14.58-7 14.62-6.96Q14.65-6.93 14.65-6.88L14.65-6.88L14.65-0.12Q14.65-0.07 14.62-0.04Q14.58 0 14.53 0L14.53 0L13.61 0Q13.56 0 13.53-0.04Q13.49-0.07 13.49-0.12L13.49-0.12L13.49-0.42Q13.49-0.45 13.47-0.46Q13.45-0.47 13.43-0.44L13.43-0.44Q12.99 0.08 12.28 0.08L12.28 0.08Q11.57 0.08 11.08-0.29Q10.59-0.66 10.37-1.32L10.37-1.32Q10.19-1.88 10.19-2.57L10.19-2.57Q10.19-3.28 10.36-3.79L10.36-3.79Q10.58-4.45 11.07-4.82Q11.56-5.19 12.30-5.19L12.30-5.19Q12.99-5.19 13.43-4.69L13.43-4.69Q13.45-4.67 13.47-4.67Q13.49-4.68 13.49-4.71L13.49-4.71L13.49-6.88ZM13.25-1.40Q13.48-1.81 13.48-2.56L13.48-2.56Q13.48-3.34 13.23-3.75L13.23-3.75Q12.96-4.19 12.47-4.19L12.47-4.19Q11.96-4.19 11.67-3.77L11.67-3.77Q11.37-3.33 11.37-2.55L11.37-2.55Q11.37-1.85 11.61-1.40L11.61-1.40Q11.89-0.92 12.46-0.92L12.46-0.92Q12.97-0.92 13.25-1.40L13.25-1.40ZM15.73-2.51Q15.68-2.51 15.65-2.54Q15.61-2.58 15.61-2.63L15.61-2.63L15.61-3.39Q15.61-3.44 15.65-3.48Q15.68-3.51 15.73-3.51L15.73-3.51L18.88-3.51Q18.93-3.51 18.96-3.48Q19-3.44 19-3.39L19-3.39L19-2.63Q19-2.58 18.96-2.54Q18.93-2.51 18.88-2.51L18.88-2.51L15.73-2.51ZM24.57-6.92Q24.62-7 24.71-7L24.71-7L25.63-7Q25.68-7 25.72-6.96Q25.75-6.93 25.75-6.88L25.75-6.88L25.75-0.12Q25.75-0.07 25.72-0.04Q25.68 0 25.63 0L25.63 0L24.71 0Q24.66 0 24.63-0.04Q24.59-0.07 24.59-0.12L24.59-0.12L24.59-4.89Q24.59-4.92 24.57-4.93Q24.54-4.94 24.53-4.91L24.53-4.91L23.28-2.99Q23.23-2.91 23.14-2.91L23.14-2.91L22.68-2.91Q22.59-2.91 22.54-2.99L22.54-2.99L21.28-4.90Q21.27-4.93 21.25-4.92Q21.22-4.91 21.22-4.88L21.22-4.88L21.22-0.12Q21.22-0.07 21.19-0.04Q21.15 0 21.10 0L21.10 0L20.18 0Q20.13 0 20.10-0.04Q20.06-0.07 20.06-0.12L20.06-0.12L20.06-6.88Q20.06-6.93 20.10-6.96Q20.13-7 20.18-7L20.18-7L21.10-7Q21.19-7 21.24-6.92L21.24-6.92L22.87-4.45Q22.89-4.43 22.91-4.43Q22.93-4.43 22.94-4.45L22.94-4.45L24.57-6.92ZM29.05-5.19Q29.68-5.19 30.16-4.97Q30.64-4.75 30.90-4.37Q31.16-3.98 31.16-3.49L31.16-3.49L31.16-0.12Q31.16-0.07 31.13-0.04Q31.09 0 31.04 0L31.04 0L30.12 0Q30.07 0 30.04-0.04Q30.00-0.07 30.00-0.12L30.00-0.12L30.00-0.44Q30.00-0.47 29.98-0.48Q29.96-0.48 29.94-0.46L29.94-0.46Q29.45 0.08 28.52 0.08L28.52 0.08Q27.77 0.08 27.29-0.30Q26.80-0.68 26.80-1.43L26.80-1.43Q26.80-2.21 27.35-2.65Q27.89-3.08 28.88-3.08L28.88-3.08L29.95-3.08Q30.00-3.08 30.00-3.13L30.00-3.13L30.00-3.37Q30.00-3.76 29.77-3.98Q29.54-4.19 29.08-4.19L29.08-4.19Q28.70-4.19 28.47-4.05Q28.23-3.92 28.17-3.68L28.17-3.68Q28.14-3.56 28.03-3.58L28.03-3.58L27.06-3.70Q27.01-3.71 26.98-3.73Q26.94-3.76 26.95-3.80L26.95-3.80Q27.03-4.41 27.61-4.80Q28.18-5.19 29.05-5.19L29.05-5.19ZM28.81-0.84Q29.30-0.84 29.65-1.10Q30.00-1.36 30.00-1.76L30.00-1.76L30.00-2.23Q30.00-2.28 29.95-2.28L29.95-2.28L29.11-2.28Q28.58-2.28 28.28-2.08Q27.97-1.88 27.97-1.51L27.97-1.51Q27.97-1.19 28.21-1.02Q28.44-0.84 28.81-0.84L28.81-0.84ZM34.70-5.17Q35.02-5.17 35.26-5.04L35.26-5.04Q35.34-5 35.32-4.89L35.32-4.89L35.15-3.99Q35.14-3.87 35.01-3.92L35.01-3.92Q34.86-3.97 34.66-3.97L34.66-3.97Q34.53-3.97 34.46-3.96L34.46-3.96Q34.04-3.94 33.76-3.67Q33.48-3.39 33.48-2.95L33.48-2.95L33.48-0.12Q33.48-0.07 33.45-0.04Q33.41 0 33.36 0L33.36 0L32.44 0Q32.39 0 32.36-0.04Q32.32-0.07 32.32-0.12L32.32-0.12L32.32-4.99Q32.32-5.04 32.36-5.08Q32.39-5.11 32.44-5.11L32.44-5.11L33.36-5.11Q33.41-5.11 33.45-5.08Q33.48-5.04 33.48-4.99L33.48-4.99L33.48-4.54Q33.48-4.50 33.50-4.50Q33.51-4.49 33.53-4.52L33.53-4.52Q33.95-5.17 34.70-5.17L34.70-5.17ZM36.20 0Q36.15 0 36.12-0.04Q36.08-0.07 36.08-0.12L36.08-0.12L36.08-6.88Q36.08-6.93 36.12-6.96Q36.15-7 36.20-7L36.20-7L37.12-7Q37.17-7 37.20-6.96Q37.24-6.93 37.24-6.88L37.24-6.88L37.24-3.27Q37.24-3.24 37.26-3.23Q37.28-3.22 37.30-3.25L37.30-3.25L38.92-5.04Q38.99-5.11 39.07-5.11L39.07-5.11L40.13-5.11Q40.23-5.11 40.23-5.04L40.23-5.04Q40.23-5.01 40.20-4.96L40.20-4.96L38.93-3.44Q38.90-3.41 38.92-3.37L38.92-3.37L40.42-0.14Q40.44-0.10 40.44-0.08L40.44-0.08Q40.44 0 40.33 0L40.33 0L39.36 0Q39.26 0 39.22-0.09L39.22-0.09L38.13-2.63Q38.12-2.65 38.09-2.66Q38.07-2.66 38.06-2.64L38.06-2.64L37.26-1.72Q37.24-1.68 37.24-1.65L37.24-1.65L37.24-0.12Q37.24-0.07 37.20-0.04Q37.17 0 37.12 0L37.12 0L36.20 0ZM45.25-3.13Q45.29-2.88 45.29-2.57L45.29-2.57L45.28-2.26Q45.28-2.14 45.16-2.14L45.16-2.14L42.03-2.14Q41.98-2.14 41.98-2.09L41.98-2.09Q42.01-1.76 42.07-1.64L42.07-1.64Q42.31-0.92 43.24-0.91L43.24-0.91Q43.92-0.91 44.32-1.47L44.32-1.47Q44.36-1.53 44.42-1.53L44.42-1.53Q44.46-1.53 44.49-1.50L44.49-1.50L45.11-0.99Q45.20-0.92 45.14-0.83L45.14-0.83Q44.83-0.39 44.31-0.15Q43.80 0.09 43.17 0.09L43.17 0.09Q42.39 0.09 41.84-0.26Q41.30-0.61 41.05-1.24L41.05-1.24Q40.82-1.78 40.82-2.74L40.82-2.74Q40.82-3.32 40.94-3.68L40.94-3.68Q41.14-4.38 41.70-4.79Q42.25-5.19 43.03-5.19L43.03-5.19Q45-5.19 45.25-3.13L45.25-3.13ZM43.03-4.19Q42.66-4.19 42.41-4.00Q42.17-3.82 42.07-3.49L42.07-3.49Q42.01-3.32 41.99-3.05L41.99-3.05Q41.97-3 42.03-3L42.03-3L44.06-3Q44.11-3 44.11-3.05L44.11-3.05Q44.09-3.30 44.05-3.43L44.05-3.43Q43.96-3.79 43.70-3.99Q43.43-4.19 43.03-4.19L43.03-4.19ZM48.96-4.29Q48.96-4.24 48.93-4.21Q48.89-4.17 48.84-4.17L48.84-4.17L47.82-4.17Q47.77-4.17 47.77-4.12L47.77-4.12L47.77-1.71Q47.77-1.33 47.94-1.16Q48.10-0.99 48.46-0.99L48.46-0.99L48.76-0.99Q48.81-0.99 48.84-0.96Q48.88-0.92 48.88-0.87L48.88-0.87L48.88-0.12Q48.88-0.01 48.76 0.01L48.76 0.01L48.24 0.02Q47.45 0.02 47.06-0.25Q46.67-0.52 46.66-1.27L46.66-1.27L46.66-4.12Q46.66-4.17 46.61-4.17L46.61-4.17L46.04-4.17Q45.99-4.17 45.96-4.21Q45.92-4.24 45.92-4.29L45.92-4.29L45.92-4.99Q45.92-5.04 45.96-5.08Q45.99-5.11 46.04-5.11L46.04-5.11L46.61-5.11Q46.66-5.11 46.66-5.16L46.66-5.16L46.66-6.33Q46.66-6.38 46.70-6.42Q46.73-6.45 46.78-6.45L46.78-6.45L47.65-6.45Q47.70-6.45 47.73-6.42Q47.77-6.38 47.77-6.33L47.77-6.33L47.77-5.16Q47.77-5.11 47.82-5.11L47.82-5.11L48.84-5.11Q48.89-5.11 48.93-5.08Q48.96-5.04 48.96-4.99L48.96-4.99L48.96-4.29Z"/><path fill="#252530" transform="translate(27.56, 89.5)" d="M3.01 0.08Q2.21 0.08 1.61-0.18Q1.01-0.43 0.69-0.91Q0.36-1.38 0.36-2.01L0.36-2.01L0.36-2.23Q0.36-2.28 0.40-2.31Q0.43-2.35 0.48-2.35L0.48-2.35L1.62-2.35Q1.67-2.35 1.71-2.31Q1.74-2.28 1.74-2.23L1.74-2.23L1.74-2.08Q1.74-1.68 2.11-1.41Q2.48-1.13 3.11-1.13L3.11-1.13Q3.64-1.13 3.90-1.35Q4.16-1.58 4.16-1.91L4.16-1.91Q4.16-2.15 4-2.31Q3.84-2.48 3.56-2.60Q3.29-2.73 2.69-2.95L2.69-2.95Q2.02-3.18 1.55-3.42Q1.09-3.66 0.78-4.08Q0.46-4.49 0.46-5.10L0.46-5.10Q0.46-5.70 0.77-6.15Q1.08-6.60 1.63-6.84Q2.18-7.08 2.90-7.08L2.90-7.08Q3.66-7.08 4.25-6.81Q4.85-6.54 5.19-6.05Q5.52-5.57 5.52-4.93L5.52-4.93L5.52-4.78Q5.52-4.73 5.49-4.70Q5.45-4.66 5.40-4.66L5.40-4.66L4.25-4.66Q4.20-4.66 4.17-4.70Q4.13-4.73 4.13-4.78L4.13-4.78L4.13-4.86Q4.13-5.28 3.79-5.58Q3.44-5.87 2.84-5.87L2.84-5.87Q2.37-5.87 2.10-5.67Q1.84-5.47 1.84-5.12L1.84-5.12Q1.84-4.87 2.00-4.70Q2.15-4.53 2.46-4.40Q2.76-4.26 3.40-4.03L3.40-4.03Q4.11-3.77 4.51-3.57Q4.92-3.37 5.25-2.98Q5.57-2.58 5.57-1.95L5.57-1.95Q5.57-1.01 4.88-0.47Q4.19 0.08 3.01 0.08L3.01 0.08ZM9.10 0.08Q8.33 0.08 7.75-0.22Q7.16-0.52 6.83-1.06Q6.51-1.61 6.51-2.32L6.51-2.32L6.51-6.88Q6.51-6.93 6.54-6.96Q6.58-7 6.63-7L6.63-7L7.80-7Q7.85-7 7.88-6.96Q7.92-6.93 7.92-6.88L7.92-6.88L7.92-2.31Q7.92-1.78 8.25-1.46Q8.57-1.13 9.10-1.13L9.10-1.13Q9.63-1.13 9.96-1.46Q10.28-1.78 10.28-2.31L10.28-2.31L10.28-6.88Q10.28-6.93 10.32-6.96Q10.35-7 10.40-7L10.40-7L11.57-7Q11.62-7 11.66-6.96Q11.69-6.93 11.69-6.88L11.69-6.88L11.69-2.32Q11.69-1.61 11.37-1.06Q11.04-0.52 10.46-0.22Q9.87 0.08 9.10 0.08L9.10 0.08ZM17.35-6.92Q17.40-7 17.49-7L17.49-7L18.66-7Q18.71-7 18.75-6.96Q18.78-6.93 18.78-6.88L18.78-6.88L18.78-0.12Q18.78-0.07 18.75-0.04Q18.71 0 18.66 0L18.66 0L17.49 0Q17.44 0 17.41-0.04Q17.37-0.07 17.37-0.12L17.37-0.12L17.37-4.53Q17.37-4.57 17.35-4.57Q17.33-4.57 17.31-4.54L17.31-4.54L16.25-2.88Q16.20-2.80 16.11-2.80L16.11-2.80L15.52-2.80Q15.43-2.80 15.38-2.88L15.38-2.88L14.32-4.54Q14.30-4.57 14.28-4.57Q14.26-4.56 14.26-4.52L14.26-4.52L14.26-0.12Q14.26-0.07 14.22-0.04Q14.19 0 14.14 0L14.14 0L12.97 0Q12.92 0 12.88-0.04Q12.85-0.07 12.85-0.12L12.85-0.12L12.85-6.88Q12.85-6.93 12.88-6.96Q12.92-7 12.97-7L12.97-7L14.14-7Q14.23-7 14.28-6.92L14.28-6.92L15.78-4.59Q15.81-4.53 15.84-4.59L15.84-4.59L17.35-6.92ZM24.50-6.92Q24.55-7 24.64-7L24.64-7L25.81-7Q25.86-7 25.89-6.96Q25.93-6.93 25.93-6.88L25.93-6.88L25.93-0.12Q25.93-0.07 25.89-0.04Q25.86 0 25.81 0L25.81 0L24.64 0Q24.59 0 24.55-0.04Q24.52-0.07 24.52-0.12L24.52-0.12L24.52-4.53Q24.52-4.57 24.50-4.57Q24.48-4.57 24.46-4.54L24.46-4.54L23.40-2.88Q23.35-2.80 23.26-2.80L23.26-2.80L22.67-2.80Q22.58-2.80 22.53-2.88L22.53-2.88L21.47-4.54Q21.45-4.57 21.43-4.57Q21.41-4.56 21.41-4.52L21.41-4.52L21.41-0.12Q21.41-0.07 21.38-0.04Q21.34 0 21.29 0L21.29 0L20.12 0Q20.07 0 20.04-0.04Q20-0.07 20-0.12L20-0.12L20-6.88Q20-6.93 20.04-6.96Q20.07-7 20.12-7L20.12-7L21.29-7Q21.38-7 21.43-6.92L21.43-6.92L22.93-4.59Q22.96-4.53 22.99-4.59L22.99-4.59L24.50-6.92ZM32.01-5.91Q32.01-5.86 31.98-5.83Q31.94-5.79 31.89-5.79L31.89-5.79L28.61-5.79Q28.56-5.79 28.56-5.74L28.56-5.74L28.56-4.19Q28.56-4.14 28.61-4.14L28.61-4.14L30.76-4.14Q30.81-4.14 30.84-4.11Q30.88-4.07 30.88-4.02L30.88-4.02L30.88-3.05Q30.88-3 30.84-2.96Q30.81-2.93 30.76-2.93L30.76-2.93L28.61-2.93Q28.56-2.93 28.56-2.88L28.56-2.88L28.56-1.26Q28.56-1.21 28.61-1.21L28.61-1.21L31.89-1.21Q31.94-1.21 31.98-1.18Q32.01-1.14 32.01-1.09L32.01-1.09L32.01-0.12Q32.01-0.07 31.98-0.04Q31.94 0 31.89 0L31.89 0L27.27 0Q27.22 0 27.18-0.04Q27.15-0.07 27.15-0.12L27.15-0.12L27.15-6.88Q27.15-6.93 27.18-6.96Q27.22-7 27.27-7L27.27-7L31.89-7Q31.94-7 31.98-6.96Q32.01-6.93 32.01-6.88L32.01-6.88L32.01-5.91ZM36.83 0Q36.73 0 36.69-0.09L36.69-0.09L35.44-2.86Q35.42-2.90 35.38-2.90L35.38-2.90L34.45-2.90Q34.40-2.90 34.40-2.85L34.40-2.85L34.40-0.12Q34.40-0.07 34.36-0.04Q34.33 0 34.28 0L34.28 0L33.11 0Q33.06 0 33.02-0.04Q32.99-0.07 32.99-0.12L32.99-0.12L32.99-6.88Q32.99-6.93 33.02-6.96Q33.06-7 33.11-7L33.11-7L35.97-7Q36.61-7 37.09-6.74Q37.58-6.48 37.84-6Q38.11-5.52 38.11-4.89L38.11-4.89Q38.11-4.21 37.77-3.73Q37.43-3.24 36.82-3.04L36.82-3.04Q36.77-3.02 36.79-2.97L36.79-2.97L38.15-0.14Q38.17-0.10 38.17-0.08L38.17-0.08Q38.17 0 38.06 0L38.06 0L36.83 0ZM34.45-5.79Q34.40-5.79 34.40-5.74L34.40-5.74L34.40-4.03Q34.40-3.98 34.45-3.98L34.45-3.98L35.76-3.98Q36.18-3.98 36.44-4.23Q36.71-4.48 36.71-4.88L36.71-4.88Q36.71-5.28 36.44-5.54Q36.18-5.79 35.76-5.79L35.76-5.79L34.45-5.79Z"/><path fill="#252530" transform="translate(36.68, 98.9)" d="M2.33-1.27Q2.31-1.25 2.32-1.23Q2.33-1.21 2.36-1.21L2.36-1.21L5.07-1.21Q5.12-1.21 5.16-1.18Q5.19-1.14 5.19-1.09L5.19-1.09L5.19-0.12Q5.19-0.07 5.16-0.04Q5.12 0 5.07 0L5.07 0L0.57 0Q0.52 0 0.48-0.04Q0.45-0.07 0.45-0.12L0.45-0.12L0.45-1.04Q0.45-1.13 0.51-1.19L0.51-1.19Q1-1.67 1.51-2.23Q2.02-2.80 2.15-2.94L2.15-2.94Q2.43-3.27 2.72-3.57L2.72-3.57Q3.63-4.58 3.63-5.07L3.63-5.07Q3.63-5.42 3.38-5.65Q3.13-5.87 2.73-5.87L2.73-5.87Q2.33-5.87 2.08-5.65Q1.83-5.42 1.83-5.05L1.83-5.05L1.83-4.80Q1.83-4.75 1.79-4.71Q1.76-4.68 1.71-4.68L1.71-4.68L0.53-4.68Q0.48-4.68 0.45-4.71Q0.41-4.75 0.41-4.80L0.41-4.80L0.41-5.27Q0.44-5.81 0.75-6.23Q1.06-6.64 1.57-6.86Q2.09-7.08 2.73-7.08L2.73-7.08Q3.44-7.08 3.97-6.82Q4.49-6.55 4.78-6.10Q5.06-5.65 5.06-5.10L5.06-5.10Q5.06-4.68 4.85-4.24Q4.64-3.80 4.22-3.29L4.22-3.29Q3.91-2.90 3.55-2.52Q3.19-2.14 2.48-1.42L2.48-1.42L2.33-1.27ZM8.44 0.11Q7.34 0.11 6.70-0.51Q6.06-1.12 6.06-2.18L6.06-2.18L6.06-4.82Q6.06-5.86 6.70-6.47Q7.34-7.08 8.44-7.08L8.44-7.08Q9.54-7.08 10.19-6.47Q10.83-5.86 10.83-4.82L10.83-4.82L10.83-2.18Q10.83-1.12 10.19-0.51Q9.54 0.11 8.44 0.11L8.44 0.11ZM8.44-1.10Q8.89-1.10 9.16-1.38Q9.42-1.65 9.42-2.11L9.42-2.11L9.42-4.86Q9.42-5.32 9.16-5.59Q8.89-5.87 8.44-5.87L8.44-5.87Q8-5.87 7.74-5.59Q7.47-5.32 7.47-4.86L7.47-4.86L7.47-2.11Q7.47-1.65 7.74-1.38Q8-1.10 8.44-1.10L8.44-1.10ZM13.63-1.27Q13.61-1.25 13.62-1.23Q13.63-1.21 13.66-1.21L13.66-1.21L16.37-1.21Q16.42-1.21 16.46-1.18Q16.49-1.14 16.49-1.09L16.49-1.09L16.49-0.12Q16.49-0.07 16.46-0.04Q16.42 0 16.37 0L16.37 0L11.87 0Q11.82 0 11.79-0.04Q11.75-0.07 11.75-0.12L11.75-0.12L11.75-1.04Q11.75-1.13 11.81-1.19L11.81-1.19Q12.30-1.67 12.81-2.23Q13.32-2.80 13.45-2.94L13.45-2.94Q13.73-3.27 14.02-3.57L14.02-3.57Q14.93-4.58 14.93-5.07L14.93-5.07Q14.93-5.42 14.68-5.65Q14.43-5.87 14.03-5.87L14.03-5.87Q13.63-5.87 13.38-5.65Q13.13-5.42 13.13-5.05L13.13-5.05L13.13-4.80Q13.13-4.75 13.10-4.71Q13.06-4.68 13.01-4.68L13.01-4.68L11.83-4.68Q11.78-4.68 11.75-4.71Q11.71-4.75 11.71-4.80L11.71-4.80L11.71-5.27Q11.74-5.81 12.05-6.23Q12.36-6.64 12.88-6.86Q13.39-7.08 14.03-7.08L14.03-7.08Q14.74-7.08 15.27-6.82Q15.79-6.55 16.08-6.10Q16.36-5.65 16.36-5.10L16.36-5.10Q16.36-4.68 16.15-4.24Q15.94-3.80 15.52-3.29L15.52-3.29Q15.21-2.90 14.85-2.52Q14.49-2.14 13.78-1.42L13.78-1.42L13.63-1.27ZM18.34-6.97Q18.39-7 18.49-7L18.49-7L19.70-7Q19.75-7 19.79-6.96Q19.82-6.93 19.82-6.88L19.82-6.88L19.82-0.12Q19.82-0.07 19.79-0.04Q19.75 0 19.70 0L19.70 0L18.53 0Q18.48 0 18.45-0.04Q18.41-0.07 18.41-0.12L18.41-0.12L18.41-5.60Q18.41-5.62 18.39-5.64Q18.37-5.66 18.35-5.65L18.35-5.65L17.36-5.38L17.32-5.37Q17.23-5.37 17.23-5.48L17.23-5.48L17.20-6.34Q17.20-6.44 17.29-6.48L17.29-6.48L18.34-6.97Z"/></g>
</svg>