<svg xmlns="http://www.w3.org/2000/svg" viewBox="0 0 94 122">
  <g id="container">
    <path fill="#fff" d="M8.1 89.9L47.6 110l38-20.1V11.3H8.1z"/>
    <path fill="#f2f3f2" d="M86.4 11.6L7.3 91.3l41 20.3 38.1-19.5z"/>
    <path d="M5.5 37.5v54.1l1.4.7 39.5 20.1 1.2.6 1.2-.6 38.1-20.1 1.4-.7V8.7H5.5v28.8zm2.6 52.6V11.3h77.6v78.8l-38.1 20.1L8.1 90.1z" fill="#dcdedc"/>
    <path id="logo" d="M46.9 12.6c.4 0 .8 0 1.2.1L46.9 15c-1.8-.1-3.4 1.3-3.5 3.1-.1 1.8 1.3 3.4 3.1 3.5h.4c.8 0 1.6-.3 2.2-.8l1.3 2.2c-1 .7-2.2 1.1-3.5 1.1-3.2.1-5.9-2.3-6-5.5-.1-3.2 2.3-5.9 5.5-6h.5zm4.1 4.9l1.5 2.5-1.5 2.4-1.4-2.4h-2.9l1.5-2.5H51zm-2.4-.9c0-.4.1-.8.3-1.1.2-.3.6-.6.9-.8l.2-.1c.4-.2.5-.3.5-.5s-.3-.4-.5-.4c-.4 0-.7.2-.9.6l-.5-.5c.1-.2.3-.4.5-.6.3-.2.6-.2.9-.2.3 0 .7.1.9.3.2.2.4.5.4.8 0 .5-.3.9-.9 1.1l-.3.2c-.3.2-.5.3-.6.6h1.8v.7l-2.7-.1zm-1.7 12.5l9.5-5.4v-15H37.3v14.9l9.6 5.5z" fill="#ff492c"/>
    <path id="banner" d="M90.2 64.5H3.6l-3.2 7 3.2 7h86.6l3.1-7z" fill="#ff492c"/>
  <path fill="#252530" transform="translate(17.78, 60)" d="M1.31 0Q1.22 0 1.16-0.06Q1.10-0.13 1.10-0.22L1.10-0.22L1.10-12.38Q1.10-12.47 1.16-12.54Q1.22-12.60 1.31-12.60L1.31-12.60L3.42-12.60Q3.51-12.60 3.57-12.54Q3.64-12.47 3.64-12.38L3.64-12.38L3.64-2.27Q3.64-2.18 3.73-2.18L3.73-2.18L9.61-2.18Q9.70-2.18 9.77-2.12Q9.83-2.05 9.83-1.96L9.83-1.96L9.83-0.22Q9.83-0.13 9.77-0.06Q9.70 0 9.61 0L9.61 0L1.31 0ZM19.42-5.58Q19.53-4.90 19.49-4.05L19.49-4.05Q19.48-3.83 19.26-3.83L19.26-3.83L13.70-3.83Q13.59-3.83 13.63-3.74L13.63-3.74Q13.68-3.38 13.82-3.02L13.82-3.02Q14.29-2.02 15.73-2.02L15.73-2.02Q16.88-2.03 17.55-2.95L17.55-2.95Q17.62-3.06 17.71-3.06L17.71-3.06Q17.77-3.06 17.84-2.99L17.84-2.99L19.13-1.71Q19.22-1.62 19.22-1.55L19.22-1.55Q19.22-1.51 19.15-1.40L19.15-1.40Q18.56-0.67 17.62-0.26Q16.69 0.14 15.57 0.14L15.57 0.14Q14.02 0.14 12.95-0.56Q11.88-1.26 11.41-2.52L11.41-2.52Q11.03-3.42 11.03-4.88L11.03-4.88Q11.03-5.87 11.30-6.62L11.30-6.62Q11.72-7.90 12.75-8.66Q13.79-9.41 15.21-9.41L15.21-9.41Q17.01-9.41 18.10-8.37Q19.19-7.33 19.42-5.58L19.42-5.58ZM15.23-7.22Q14.09-7.22 13.73-6.16L13.73-6.16Q13.66-5.92 13.61-5.58L13.61-5.58Q13.61-5.49 13.70-5.49L13.70-5.49L16.81-5.49Q16.92-5.49 16.88-5.58L16.88-5.58Q16.79-6.10 16.79-6.08L16.79-6.08Q16.63-6.62 16.23-6.92Q15.82-7.22 15.23-7.22L15.23-7.22ZM24.66-9.40Q25.83-9.40 26.75-8.99Q27.67-8.59 28.18-7.88Q28.69-7.18 28.69-6.32L28.69-6.32L28.69-0.22Q28.69-0.13 28.63-0.06Q28.57 0 28.48 0L28.48 0L26.37 0Q26.28 0 26.22-0.06Q26.15-0.13 26.15-0.22L26.15-0.22L26.15-0.81Q26.15-0.86 26.12-0.88Q26.08-0.90 26.05-0.85L26.05-0.85Q25.29 0.14 23.62 0.14L23.62 0.14Q22.21 0.14 21.35-0.54Q20.48-1.22 20.48-2.56L20.48-2.56Q20.48-3.94 21.46-4.71Q22.43-5.47 24.23-5.47L24.23-5.47L26.06-5.47Q26.15-5.47 26.15-5.56L26.15-5.56L26.15-5.96Q26.15-6.55 25.79-6.89Q25.43-7.22 24.71-7.22L24.71-7.22Q24.16-7.22 23.79-7.02Q23.42-6.82 23.31-6.46L23.31-6.46Q23.26-6.26 23.08-6.28L23.08-6.28L20.90-6.57Q20.68-6.61 20.70-6.73L20.70-6.73Q20.77-7.49 21.30-8.10Q21.83-8.71 22.71-9.05Q23.58-9.40 24.66-9.40L24.66-9.40ZM24.30-1.75Q25.07-1.75 25.61-2.16Q26.15-2.57 26.15-3.22L26.15-3.22L26.15-3.87Q26.15-3.96 26.06-3.96L26.06-3.96L24.77-3.96Q23.96-3.96 23.50-3.65Q23.04-3.35 23.04-2.79L23.04-2.79Q23.04-2.30 23.38-2.03Q23.72-1.75 24.30-1.75L24.30-1.75ZM36.22-12.38Q36.22-12.47 36.28-12.54Q36.34-12.60 36.43-12.60L36.43-12.60L38.54-12.60Q38.63-12.60 38.69-12.54Q38.75-12.47 38.75-12.38L38.75-12.38L38.75-0.22Q38.75-0.13 38.69-0.06Q38.63 0 38.54 0L38.54 0L36.43 0Q36.34 0 36.28-0.06Q36.22-0.13 36.22-0.22L36.22-0.22L36.22-0.81Q36.22-0.86 36.18-0.87Q36.14-0.88 36.11-0.85L36.11-0.85Q35.35 0.14 34.04 0.14L34.04 0.14Q32.78 0.14 31.87-0.56Q30.96-1.26 30.56-2.48L30.56-2.48Q30.26-3.42 30.26-4.66L30.26-4.66Q30.26-5.94 30.58-6.89L30.58-6.89Q31.00-8.05 31.89-8.72Q32.78-9.40 34.09-9.40L34.09-9.40Q35.39-9.40 36.11-8.50L36.11-8.50Q36.14-8.44 36.18-8.46Q36.22-8.48 36.22-8.53L36.22-8.53L36.22-12.38ZM35.84-2.81Q36.20-3.47 36.20-4.63L36.20-4.63Q36.20-5.83 35.80-6.52L35.80-6.52Q35.39-7.22 34.60-7.22L34.60-7.22Q33.75-7.22 33.32-6.52L33.32-6.52Q32.87-5.81 32.87-4.61L32.87-4.61Q32.87-3.53 33.25-2.81L33.25-2.81Q33.70-2.03 34.58-2.03L34.58-2.03Q35.39-2.03 35.84-2.81L35.84-2.81ZM48.85-5.58Q48.96-4.90 48.92-4.05L48.92-4.05Q48.91-3.83 48.69-3.83L48.69-3.83L43.13-3.83Q43.02-3.83 43.06-3.74L43.06-3.74Q43.11-3.38 43.25-3.02L43.25-3.02Q43.72-2.02 45.16-2.02L45.16-2.02Q46.31-2.03 46.98-2.95L46.98-2.95Q47.05-3.06 47.14-3.06L47.14-3.06Q47.20-3.06 47.27-2.99L47.27-2.99L48.56-1.71Q48.65-1.62 48.65-1.55L48.65-1.55Q48.65-1.51 48.58-1.40L48.58-1.40Q47.99-0.67 47.05-0.26Q46.12 0.14 45.00 0.14L45.00 0.14Q43.45 0.14 42.38-0.56Q41.31-1.26 40.84-2.52L40.84-2.52Q40.46-3.42 40.46-4.88L40.46-4.88Q40.46-5.87 40.73-6.62L40.73-6.62Q41.15-7.90 42.18-8.66Q43.22-9.41 44.64-9.41L44.64-9.41Q46.44-9.41 47.53-8.37Q48.62-7.33 48.85-5.58L48.85-5.58ZM44.66-7.22Q43.52-7.22 43.16-6.16L43.16-6.16Q43.09-5.92 43.04-5.58L43.04-5.58Q43.04-5.49 43.13-5.49L43.13-5.49L46.24-5.49Q46.35-5.49 46.31-5.58L46.31-5.58Q46.22-6.10 46.22-6.08L46.22-6.08Q46.06-6.62 45.66-6.92Q45.25-7.22 44.66-7.22L44.66-7.22ZM55.10-9.38Q55.75-9.38 56.12-9.13L56.12-9.13Q56.27-9.05 56.23-8.86L56.23-8.86L55.85-6.80Q55.84-6.59 55.60-6.68L55.60-6.68Q55.33-6.77 54.97-6.77L54.97-6.77Q54.83-6.77 54.58-6.73L54.58-6.73Q53.93-6.68 53.48-6.26Q53.03-5.83 53.03-5.13L53.03-5.13L53.03-0.22Q53.03-0.13 52.97-0.06Q52.90 0 52.81 0L52.81 0L50.71 0Q50.62 0 50.55-0.06Q50.49-0.13 50.49-0.22L50.49-0.22L50.49-9.04Q50.49-9.13 50.55-9.19Q50.62-9.25 50.71-9.25L50.71-9.25L52.81-9.25Q52.90-9.25 52.97-9.19Q53.03-9.13 53.03-9.04L53.03-9.04L53.03-8.35Q53.03-8.30 53.06-8.28Q53.10-8.26 53.12-8.30L53.12-8.30Q53.86-9.38 55.10-9.38L55.10-9.38Z"/><path fill="#fff" transform="translate(23.27, 75.4)" d="M5.47-6.12Q5.47-6.07 5.44-6.04Q5.40-6 5.35-6L5.35-6L1.94-6Q1.89-6 1.89-5.95L1.89-5.95L1.89-4.08Q1.89-4.03 1.94-4.03L1.94-4.03L4.23-4.03Q4.28-4.03 4.32-4.00Q4.35-3.96 4.35-3.91L4.35-3.91L4.35-3.15Q4.35-3.10 4.32-3.06Q4.28-3.03 4.23-3.03L4.23-3.03L1.94-3.03Q1.89-3.03 1.89-2.98L1.89-2.98L1.89-1.05Q1.89-1 1.94-1L1.94-1L5.35-1Q5.40-1 5.44-0.96Q5.47-0.93 5.47-0.88L5.47-0.88L5.47-0.12Q5.47-0.07 5.44-0.04Q5.40 0 5.35 0L5.35 0L0.85 0Q0.80 0 0.77-0.04Q0.73-0.07 0.73-0.12L0.73-0.12L0.73-6.88Q0.73-6.93 0.77-6.96Q0.80-7 0.85-7L0.85-7L5.35-7Q5.40-7 5.44-6.96Q5.47-6.93 5.47-6.88L5.47-6.88L5.47-6.12ZM8.99-5.19Q9.80-5.19 10.29-4.71Q10.77-4.23 10.77-3.40L10.77-3.40L10.77-0.12Q10.77-0.07 10.73-0.04Q10.70 0 10.65 0L10.65 0L9.73 0Q9.68 0 9.64-0.04Q9.61-0.07 9.61-0.12L9.61-0.12L9.61-3.16Q9.61-3.62 9.35-3.91Q9.09-4.19 8.66-4.19L8.66-4.19Q8.23-4.19 7.96-3.91Q7.70-3.63 7.70-3.17L7.70-3.17L7.70-0.12Q7.70-0.07 7.67-0.04Q7.63 0 7.58 0L7.58 0L6.66 0Q6.61 0 6.58-0.04Q6.54-0.07 6.54-0.12L6.54-0.12L6.54-4.99Q6.54-5.04 6.58-5.08Q6.61-5.11 6.66-5.11L6.66-5.11L7.58-5.11Q7.63-5.11 7.67-5.08Q7.70-5.04 7.70-4.99L7.70-4.99L7.70-4.67Q7.70-4.64 7.72-4.63Q7.74-4.62 7.75-4.65L7.75-4.65Q8.16-5.19 8.99-5.19L8.99-5.19ZM14.69-4.29Q14.69-4.24 14.65-4.21Q14.62-4.17 14.57-4.17L14.57-4.17L13.55-4.17Q13.50-4.17 13.50-4.12L13.50-4.12L13.50-1.71Q13.50-1.33 13.66-1.16Q13.83-0.99 14.19-0.99L14.19-0.99L14.49-0.99Q14.54-0.99 14.57-0.96Q14.61-0.92 14.61-0.87L14.61-0.87L14.61-0.12Q14.61-0.01 14.49 0.01L14.49 0.01L13.97 0.02Q13.18 0.02 12.79-0.25Q12.40-0.52 12.39-1.27L12.39-1.27L12.39-4.12Q12.39-4.17 12.34-4.17L12.34-4.17L11.77-4.17Q11.72-4.17 11.68-4.21Q11.65-4.24 11.65-4.29L11.65-4.29L11.65-4.99Q11.65-5.04 11.68-5.08Q11.72-5.11 11.77-5.11L11.77-5.11L12.34-5.11Q12.39-5.11 12.39-5.16L12.39-5.16L12.39-6.33Q12.39-6.38 12.42-6.42Q12.46-6.45 12.51-6.45L12.51-6.45L13.38-6.45Q13.43-6.45 13.46-6.42Q13.50-6.38 13.50-6.33L13.50-6.33L13.50-5.16Q13.50-5.11 13.55-5.11L13.55-5.11L14.57-5.11Q14.62-5.11 14.65-5.08Q14.69-5.04 14.69-4.99L14.69-4.99L14.69-4.29ZM19.93-3.13Q19.97-2.88 19.97-2.57L19.97-2.57L19.96-2.26Q19.96-2.14 19.84-2.14L19.84-2.14L16.71-2.14Q16.66-2.14 16.66-2.09L16.66-2.09Q16.69-1.76 16.75-1.64L16.75-1.64Q16.99-0.92 17.92-0.91L17.92-0.91Q18.60-0.91 19-1.47L19-1.47Q19.04-1.53 19.10-1.53L19.10-1.53Q19.14-1.53 19.17-1.50L19.17-1.50L19.79-0.99Q19.88-0.92 19.82-0.83L19.82-0.83Q19.51-0.39 19.00-0.15Q18.48 0.09 17.85 0.09L17.85 0.09Q17.07 0.09 16.52-0.26Q15.98-0.61 15.73-1.24L15.73-1.24Q15.50-1.78 15.50-2.74L15.50-2.74Q15.50-3.32 15.62-3.68L15.62-3.68Q15.82-4.38 16.38-4.79Q16.93-5.19 17.71-5.19L17.71-5.19Q19.68-5.19 19.93-3.13L19.93-3.13ZM17.71-4.19Q17.34-4.19 17.09-4.00Q16.85-3.82 16.75-3.49L16.75-3.49Q16.69-3.32 16.67-3.05L16.67-3.05Q16.65-3 16.71-3L16.71-3L18.74-3Q18.79-3 18.79-3.05L18.79-3.05Q18.77-3.30 18.73-3.43L18.73-3.43Q18.64-3.79 18.38-3.99Q18.11-4.19 17.71-4.19L17.71-4.19ZM23.41-5.17Q23.73-5.17 23.97-5.04L23.97-5.04Q24.05-5 24.03-4.89L24.03-4.89L23.86-3.99Q23.85-3.87 23.72-3.92L23.72-3.92Q23.57-3.97 23.37-3.97L23.37-3.97Q23.24-3.97 23.17-3.96L23.17-3.96Q22.75-3.94 22.47-3.67Q22.19-3.39 22.19-2.95L22.19-2.95L22.19-0.12Q22.19-0.07 22.16-0.04Q22.12 0 22.07 0L22.07 0L21.15 0Q21.10 0 21.07-0.04Q21.03-0.07 21.03-0.12L21.03-0.12L21.03-4.99Q21.03-5.04 21.07-5.08Q21.10-5.11 21.15-5.11L21.15-5.11L22.07-5.11Q22.12-5.11 22.16-5.08Q22.19-5.04 22.19-4.99L22.19-4.99L22.19-4.54Q22.19-4.50 22.20-4.50Q22.22-4.49 22.24-4.52L22.24-4.52Q22.66-5.17 23.41-5.17L23.41-5.17ZM29.12-3.79Q29.30-3.28 29.30-2.54L29.30-2.54Q29.30-1.83 29.13-1.32L29.13-1.32Q28.91-0.66 28.43-0.29Q27.94 0.08 27.20 0.08L27.20 0.08Q26.49 0.08 26.06-0.43L26.06-0.43Q26.04-0.45 26.02-0.44Q26-0.43 26-0.40L26-0.40L26 1.77Q26 1.82 25.97 1.85Q25.93 1.89 25.88 1.89L25.88 1.89L24.96 1.89Q24.91 1.89 24.88 1.85Q24.84 1.82 24.84 1.77L24.84 1.77L24.84-4.99Q24.84-5.04 24.88-5.08Q24.91-5.11 24.96-5.11L24.96-5.11L25.88-5.11Q25.93-5.11 25.97-5.08Q26-5.04 26-4.99L26-4.99L26-4.69Q26-4.66 26.02-4.65Q26.04-4.64 26.06-4.67L26.06-4.67Q26.50-5.19 27.21-5.19L27.21-5.19Q27.92-5.19 28.41-4.82Q28.90-4.45 29.12-3.79L29.12-3.79ZM27.82-1.34Q28.12-1.80 28.12-2.56L28.12-2.56Q28.12-3.29 27.88-3.71L27.88-3.71Q27.60-4.20 27.03-4.20L27.03-4.20Q26.51-4.20 26.25-3.72L26.25-3.72Q26.02-3.33 26.02-2.56L26.02-2.56Q26.02-1.77 26.27-1.36L26.27-1.36Q26.53-0.92 27.02-0.92L27.02-0.92Q27.55-0.92 27.82-1.34L27.82-1.34ZM32.80-5.17Q33.12-5.17 33.36-5.04L33.36-5.04Q33.44-5 33.42-4.89L33.42-4.89L33.25-3.99Q33.24-3.87 33.11-3.92L33.11-3.92Q32.96-3.97 32.76-3.97L32.76-3.97Q32.63-3.97 32.56-3.96L32.56-3.96Q32.14-3.94 31.86-3.67Q31.58-3.39 31.58-2.95L31.58-2.95L31.58-0.12Q31.58-0.07 31.55-0.04Q31.51 0 31.46 0L31.46 0L30.54 0Q30.49 0 30.46-0.04Q30.42-0.07 30.42-0.12L30.42-0.12L30.42-4.99Q30.42-5.04 30.46-5.08Q30.49-5.11 30.54-5.11L30.54-5.11L31.46-5.11Q31.51-5.11 31.55-5.08Q31.58-5.04 31.58-4.99L31.58-4.99L31.58-4.54Q31.58-4.50 31.59-4.50Q31.61-4.49 31.63-4.52L31.63-4.52Q32.05-5.17 32.80-5.17L32.80-5.17ZM34.84-5.81Q34.53-5.81 34.33-6.01Q34.13-6.21 34.13-6.52L34.13-6.52Q34.13-6.83 34.33-7.03Q34.53-7.23 34.84-7.23L34.84-7.23Q35.15-7.23 35.35-7.03Q35.55-6.83 35.55-6.52L35.55-6.52Q35.55-6.21 35.35-6.01Q35.15-5.81 34.84-5.81L34.84-5.81ZM34.36 0Q34.31 0 34.28-0.04Q34.24-0.07 34.24-0.12L34.24-0.12L34.24-5Q34.24-5.05 34.28-5.08Q34.31-5.12 34.36-5.12L34.36-5.12L35.28-5.12Q35.33-5.12 35.37-5.08Q35.40-5.05 35.40-5L35.40-5L35.40-0.12Q35.40-0.07 35.37-0.04Q35.33 0 35.28 0L35.28 0L34.36 0ZM38.63 0.06Q38 0.06 37.52-0.13Q37.05-0.31 36.79-0.64Q36.53-0.96 36.53-1.36L36.53-1.36L36.53-1.45Q36.53-1.50 36.56-1.54Q36.60-1.57 36.65-1.57L36.65-1.57L37.53-1.57Q37.58-1.57 37.62-1.54Q37.65-1.50 37.65-1.45L37.65-1.45L37.65-1.43Q37.65-1.18 37.92-0.99Q38.20-0.81 38.62-0.81L38.62-0.81Q39.02-0.81 39.27-0.97Q39.52-1.14 39.52-1.39L39.52-1.39Q39.52-1.62 39.31-1.74Q39.11-1.85 38.65-1.98L38.65-1.98L38.27-2.10Q37.76-2.25 37.41-2.42Q37.06-2.59 36.82-2.89Q36.58-3.18 36.58-3.64L36.58-3.64Q36.58-4.34 37.13-4.75Q37.68-5.17 38.58-5.17L38.58-5.17Q39.19-5.17 39.65-4.98Q40.11-4.78 40.36-4.44Q40.61-4.09 40.61-3.65L40.61-3.65Q40.61-3.60 40.58-3.56Q40.54-3.53 40.49-3.53L40.49-3.53L39.64-3.53Q39.59-3.53 39.55-3.56Q39.52-3.60 39.52-3.65L39.52-3.65Q39.52-3.91 39.27-4.08Q39.01-4.26 38.57-4.26L38.57-4.26Q38.18-4.26 37.94-4.12Q37.69-3.97 37.69-3.71L37.69-3.71Q37.69-3.47 37.92-3.35Q38.16-3.22 38.71-3.07L38.71-3.07L38.93-3.01Q39.46-2.85 39.82-2.69Q40.18-2.52 40.43-2.23Q40.68-1.93 40.68-1.46L40.68-1.46Q40.68-0.75 40.12-0.35Q39.56 0.06 38.63 0.06L38.63 0.06ZM45.97-3.13Q46.01-2.88 46.01-2.57L46.01-2.57L46-2.26Q46-2.14 45.88-2.14L45.88-2.14L42.75-2.14Q42.70-2.14 42.70-2.09L42.70-2.09Q42.73-1.76 42.79-1.64L42.79-1.64Q43.03-0.92 43.96-0.91L43.96-0.91Q44.64-0.91 45.04-1.47L45.04-1.47Q45.08-1.53 45.14-1.53L45.14-1.53Q45.18-1.53 45.21-1.50L45.21-1.50L45.83-0.99Q45.92-0.92 45.86-0.83L45.86-0.83Q45.55-0.39 45.03-0.15Q44.52 0.09 43.89 0.09L43.89 0.09Q43.11 0.09 42.56-0.26Q42.02-0.61 41.77-1.24L41.77-1.24Q41.54-1.78 41.54-2.74L41.54-2.74Q41.54-3.32 41.66-3.68L41.66-3.68Q41.86-4.38 42.41-4.79Q42.97-5.19 43.75-5.19L43.75-5.19Q45.72-5.19 45.97-3.13L45.97-3.13ZM43.75-4.19Q43.38-4.19 43.13-4.00Q42.89-3.82 42.79-3.49L42.79-3.49Q42.73-3.32 42.71-3.05L42.71-3.05Q42.69-3 42.75-3L42.75-3L44.78-3Q44.83-3 44.83-3.05L44.83-3.05Q44.81-3.30 44.77-3.43L44.77-3.43Q44.68-3.79 44.41-3.99Q44.15-4.19 43.75-4.19L43.75-4.19Z"/><path fill="#252530" transform="translate(27.56, 89.5)" d="M3.01 0.08Q2.21 0.08 1.61-0.18Q1.01-0.43 0.69-0.91Q0.36-1.38 0.36-2.01L0.36-2.01L0.36-2.23Q0.36-2.28 0.40-2.31Q0.43-2.35 0.48-2.35L0.48-2.35L1.62-2.35Q1.67-2.35 1.71-2.31Q1.74-2.28 1.74-2.23L1.74-2.23L1.74-2.08Q1.74-1.68 2.11-1.41Q2.48-1.13 3.11-1.13L3.11-1.13Q3.64-1.13 3.90-1.35Q4.16-1.58 4.16-1.91L4.16-1.91Q4.16-2.15 4-2.31Q3.84-2.48 3.56-2.60Q3.29-2.73 2.69-2.95L2.69-2.95Q2.02-3.18 1.55-3.42Q1.09-3.66 0.78-4.08Q0.46-4.49 0.46-5.10L0.46-5.10Q0.46-5.70 0.77-6.15Q1.08-6.60 1.63-6.84Q2.18-7.08 2.90-7.08L2.90-7.08Q3.66-7.08 4.25-6.81Q4.85-6.54 5.19-6.05Q5.52-5.57 5.52-4.93L5.52-4.93L5.52-4.78Q5.52-4.73 5.49-4.70Q5.45-4.66 5.40-4.66L5.40-4.66L4.25-4.66Q4.20-4.66 4.17-4.70Q4.13-4.73 4.13-4.78L4.13-4.78L4.13-4.86Q4.13-5.28 3.79-5.58Q3.44-5.87 2.84-5.87L2.84-5.87Q2.37-5.87 2.10-5.67Q1.84-5.47 1.84-5.12L1.84-5.12Q1.84-4.87 2.00-4.70Q2.15-4.53 2.46-4.40Q2.76-4.26 3.40-4.03L3.40-4.03Q4.11-3.77 4.51-3.57Q4.92-3.37 5.25-2.98Q5.57-2.58 5.57-1.95L5.57-1.95Q5.57-1.01 4.88-0.47Q4.19 0.08 3.01 0.08L3.01 0.08ZM9.10 0.08Q8.33 0.08 7.75-0.22Q7.16-0.52 6.83-1.06Q6.51-1.61 6.51-2.32L6.51-2.32L6.51-6.88Q6.51-6.93 6.54-6.96Q6.58-7 6.63-7L6.63-7L7.80-7Q7.85-7 7.88-6.96Q7.92-6.93 7.92-6.88L7.92-6.88L7.92-2.31Q7.92-1.78 8.25-1.46Q8.57-1.13 9.10-1.13L9.10-1.13Q9.63-1.13 9.96-1.46Q10.28-1.78 10.28-2.31L10.28-2.31L10.28-6.88Q10.28-6.93 10.32-6.96Q10.35-7 10.40-7L10.40-7L11.57-7Q11.62-7 11.66-6.96Q11.69-6.93 11.69-6.88L11.69-6.88L11.69-2.32Q11.69-1.61 11.37-1.06Q11.04-0.52 10.46-0.22Q9.87 0.08 9.10 0.08L9.10 0.08ZM17.35-6.92Q17.40-7 17.49-7L17.49-7L18.66-7Q18.71-7 18.75-6.96Q18.78-6.93 18.78-6.88L18.78-6.88L18.78-0.12Q18.78-0.07 18.75-0.04Q18.71 0 18.66 0L18.66 0L17.49 0Q17.44 0 17.41-0.04Q17.37-0.07 17.37-0.12L17.37-0.12L17.37-4.53Q17.37-4.57 17.35-4.57Q17.33-4.57 17.31-4.54L17.31-4.54L16.25-2.88Q16.20-2.80 16.11-2.80L16.11-2.80L15.52-2.80Q15.43-2.80 15.38-2.88L15.38-2.88L14.32-4.54Q14.30-4.57 14.28-4.57Q14.26-4.56 14.26-4.52L14.26-4.52L14.26-0.12Q14.26-0.07 14.22-0.04Q14.19 0 14.14 0L14.14 0L12.97 0Q12.92 0 12.88-0.04Q12.85-0.07 12.85-0.12L12.85-0.12L12.85-6.88Q12.85-6.93 12.88-6.96Q12.92-7 12.97-7L12.97-7L14.14-7Q14.23-7 14.28-6.92L14.28-6.92L15.78-4.59Q15.81-4.53 15.84-4.59L15.84-4.59L17.35-6.92ZM24.50-6.92Q24.55-7 24.64-7L24.64-7L25.81-7Q25.86-7 25.89-6.96Q25.93-6.93 25.93-6.88L25.93-6.88L25.93-0.12Q25.93-0.07 25.89-0.04Q25.86 0 25.81 0L25.81 0L24.64 0Q24.59 0 24.55-0.04Q24.52-0.07 24.52-0.12L24.52-0.12L24.52-4.53Q24.52-4.57 24.50-4.57Q24.48-4.57 24.46-4.54L24.46-4.54L23.40-2.88Q23.35-2.80 23.26-2.80L23.26-2.80L22.67-2.80Q22.58-2.80 22.53-2.88L22.53-2.88L21.47-4.54Q21.45-4.57 21.43-4.57Q21.41-4.56 21.41-4.52L21.41-4.52L21.41-0.12Q21.41-0.07 21.38-0.04Q21.34 0 21.29 0L21.29 0L20.12 0Q20.07 0 20.04-0.04Q20-0.07 20-0.12L20-0.12L20-6.88Q20-6.93 20.04-6.96Q20.07-7 20.12-7L20.12-7L21.29-7Q21.38-7 21.43-6.92L21.43-6.92L22.93-4.59Q22.96-4.53 22.99-4.59L22.99-4.59L24.50-6.92ZM32.01-5.91Q32.01-5.86 31.98-5.83Q31.94-5.79 31.89-5.79L31.89-5.79L28.61-5.79Q28.56-5.79 28.56-5.74L28.56-5.74L28.56-4.19Q28.56-4.14 28.61-4.14L28.61-4.14L30.76-4.14Q30.81-4.14 30.84-4.11Q30.88-4.07 30.88-4.02L30.88-4.02L30.88-3.05Q30.88-3 30.84-2.96Q30.81-2.93 30.76-2.93L30.76-2.93L28.61-2.93Q28.56-2.93 28.56-2.88L28.56-2.88L28.56-1.26Q28.56-1.21 28.61-1.21L28.61-1.21L31.89-1.21Q31.94-1.21 31.98-1.18Q32.01-1.14 32.01-1.09L32.01-1.09L32.01-0.12Q32.01-0.07 31.98-0.04Q31.94 0 31.89 0L31.89 0L27.27 0Q27.22 0 27.18-0.04Q27.15-0.07 27.15-0.12L27.15-0.12L27.15-6.88Q27.15-6.93 27.18-6.96Q27.22-7 27.27-7L27.27-7L31.89-7Q31.94-7 31.98-6.96Q32.01-6.93 32.01-6.88L32.01-6.88L32.01-5.91ZM36.83 0Q36.73 0 36.69-0.09L36.69-0.09L35.44-2.86Q35.42-2.90 35.38-2.90L35.38-2.90L34.45-2.90Q34.40-2.90 34.40-2.85L34.40-2.85L34.40-0.12Q34.40-0.07 34.36-0.04Q34.33 0 34.28 0L34.28 0L33.11 0Q33.06 0 33.02-0.04Q32.99-0.07 32.99-0.12L32.99-0.12L32.99-6.88Q32.99-6.93 33.02-6.96Q33.06-7 33.11-7L33.11-7L35.97-7Q36.61-7 37.09-6.74Q37.58-6.48 37.84-6Q38.11-5.52 38.11-4.89L38.11-4.89Q38.11-4.21 37.77-3.73Q37.43-3.24 36.82-3.04L36.82-3.04Q36.77-3.02 36.79-2.97L36.79-2.97L38.15-0.14Q38.17-0.10 38.17-0.08L38.17-0.08Q38.17 0 38.06 0L38.06 0L36.83 0ZM34.45-5.79Q34.40-5.79 34.40-5.74L34.40-5.74L34.40-4.03Q34.40-3.98 34.45-3.98L34.45-3.98L35.76-3.98Q36.18-3.98 36.44-4.23Q36.71-4.48 36.71-4.88L36.71-4.88Q36.71-5.28 36.44-5.54Q36.18-5.79 35.76-5.79L35.76-5.79L34.45-5.79Z"/><path fill="#252530" transform="translate(36.68, 98.9)" d="M2.33-1.27Q2.31-1.25 2.32-1.23Q2.33-1.21 2.36-1.21L2.36-1.21L5.07-1.21Q5.12-1.21 5.16-1.18Q5.19-1.14 5.19-1.09L5.19-1.09L5.19-0.12Q5.19-0.07 5.16-0.04Q5.12 0 5.07 0L5.07 0L0.57 0Q0.52 0 0.48-0.04Q0.45-0.07 0.45-0.12L0.45-0.12L0.45-1.04Q0.45-1.13 0.51-1.19L0.51-1.19Q1-1.67 1.51-2.23Q2.02-2.80 2.15-2.94L2.15-2.94Q2.43-3.27 2.72-3.57L2.72-3.57Q3.63-4.58 3.63-5.07L3.63-5.07Q3.63-5.42 3.38-5.65Q3.13-5.87 2.73-5.87L2.73-5.87Q2.33-5.87 2.08-5.65Q1.83-5.42 1.83-5.05L1.83-5.05L1.83-4.80Q1.83-4.75 1.79-4.71Q1.76-4.68 1.71-4.68L1.71-4.68L0.53-4.68Q0.48-4.68 0.45-4.71Q0.41-4.75 0.41-4.80L0.41-4.80L0.41-5.27Q0.44-5.81 0.75-6.23Q1.06-6.64 1.57-6.86Q2.09-7.08 2.73-7.08L2.73-7.08Q3.44-7.08 3.97-6.82Q4.49-6.55 4.78-6.10Q5.06-5.65 5.06-5.10L5.06-5.10Q5.06-4.68 4.85-4.24Q4.64-3.80 4.22-3.29L4.22-3.29Q3.91-2.90 3.55-2.52Q3.19-2.14 2.48-1.42L2.48-1.42L2.33-1.27ZM8.44 0.11Q7.34 0.11 6.70-0.51Q6.06-1.12 6.06-2.18L6.06-2.18L6.06-4.82Q6.06-5.86 6.70-6.47Q7.34-7.08 8.44-7.08L8.44-7.08Q9.54-7.08 10.19-6.47Q10.83-5.86 10.83-4.82L10.83-4.82L10.83-2.18Q10.83-1.12 10.19-0.51Q9.54 0.11 8.44 0.11L8.44 0.11ZM8.44-1.10Q8.89-1.10 9.16-1.38Q9.42-1.65 9.42-2.11L9.42-2.11L9.42-4.86Q9.42-5.32 9.16-5.59Q8.89-5.87 8.44-5.87L8.44-5.87Q8-5.87 7.74-5.59Q7.47-5.32 7.47-4.86L7.47-4.86L7.47-2.11Q7.47-1.65 7.74-1.38Q8-1.10 8.44-1.10L8.44-1.10ZM13.63-1.27Q13.61-1.25 13.62-1.23Q13.63-1.21 13.66-1.21L13.66-1.21L16.37-1.21Q16.42-1.21 16.46-1.18Q16.49-1.14 16.49-1.09L16.49-1.09L16.49-0.12Q16.49-0.07 16.46-0.04Q16.42 0 16.37 0L16.37 0L11.87 0Q11.82 0 11.79-0.04Q11.75-0.07 11.75-0.12L11.75-0.12L11.75-1.04Q11.75-1.13 11.81-1.19L11.81-1.19Q12.30-1.67 12.81-2.23Q13.32-2.80 13.45-2.94L13.45-2.94Q13.73-3.27 14.02-3.57L14.02-3.57Q14.93-4.58 14.93-5.07L14.93-5.07Q14.93-5.42 14.68-5.65Q14.43-5.87 14.03-5.87L14.03-5.87Q13.63-5.87 13.38-5.65Q13.13-5.42 13.13-5.05L13.13-5.05L13.13-4.80Q13.13-4.75 13.10-4.71Q13.06-4.68 13.01-4.68L13.01-4.68L11.83-4.68Q11.78-4.68 11.75-4.71Q11.71-4.75 11.71-4.80L11.71-4.80L11.71-5.27Q11.74-5.81 12.05-6.23Q12.36-6.64 12.88-6.86Q13.39-7.08 14.03-7.08L14.03-7.08Q14.74-7.08 15.27-6.82Q15.79-6.55 16.08-6.10Q16.36-5.65 16.36-5.10L16.36-5.10Q16.36-4.68 16.15-4.24Q15.94-3.80 15.52-3.29L15.52-3.29Q15.21-2.90 14.85-2.52Q14.49-2.14 13.78-1.42L13.78-1.42L13.63-1.27ZM18.34-6.97Q18.39-7 18.49-7L18.49-7L19.70-7Q19.75-7 19.79-6.96Q19.82-6.93 19.82-6.88L19.82-6.88L19.82-0.12Q19.82-0.07 19.79-0.04Q19.75 0 19.70 0L19.70 0L18.53 0Q18.48 0 18.45-0.04Q18.41-0.07 18.41-0.12L18.41-0.12L18.41-5.60Q18.41-5.62 18.39-5.64Q18.37-5.66 18.35-5.65L18.35-5.65L17.36-5.38L17.32-5.37Q17.23-5.37 17.23-5.48L17.23-5.48L17.20-6.34Q17.20-6.44 17.29-6.48L17.29-6.48L18.34-6.97Z"/></g>
</svg>