<svg width="20" height="20" viewBox="0 0 20 20" fill="none" xmlns="http://www.w3.org/2000/svg">
<path opacity="0.6" d="M10 3.87097C7.8629 3.87097 6.12903 5.60484 6.12903 7.74194C6.12903 9.87903 7.8629 11.6129 10 11.6129C12.1371 11.6129 13.871 9.87903 13.871 7.74194C13.871 5.60484 12.1371 3.87097 10 3.87097ZM10 9.67742C8.93145 9.67742 8.06452 8.81048 8.06452 7.74194C8.06452 6.67339 8.93145 5.80645 10 5.80645C11.0685 5.80645 11.9355 6.67339 11.9355 7.74194C11.9355 8.81048 11.0685 9.67742 10 9.67742ZM10 0C4.47581 0 0 4.47581 0 10C0 15.5242 4.47581 20 10 20C15.5242 20 20 15.5242 20 10C20 4.47581 15.5242 0 10 0ZM10 18.0645C7.99597 18.0645 6.16532 17.3266 4.75403 16.1129C5.35484 15.1855 6.38306 14.5565 7.56048 14.5202C8.39919 14.7782 9.19758 14.9073 10 14.9073C10.8024 14.9073 11.6008 14.7823 12.4395 14.5202C13.6169 14.5605 14.6452 15.1855 15.246 16.1129C13.8347 17.3266 12.004 18.0645 10 18.0645V18.0645ZM16.5605 14.6734C15.5766 13.4073 14.0565 12.5806 12.3226 12.5806C11.9113 12.5806 11.2742 12.9677 10 12.9677C8.72984 12.9677 8.08871 12.5806 7.67742 12.5806C5.94758 12.5806 4.42742 13.4073 3.43952 14.6734C2.49597 13.3548 1.93548 11.7419 1.93548 10C1.93548 5.55242 5.55242 1.93548 10 1.93548C14.4476 1.93548 18.0645 5.55242 18.0645 10C18.0645 11.7419 17.504 13.3548 16.5605 14.6734Z" fill="white"/>
</svg>
