<svg width="175" height="163" viewBox="0 0 175 163" fill="none" xmlns="http://www.w3.org/2000/svg">
<path d="M0.00176635 100.727C27.8166 135.055 78.1937 140.336 112.522 112.521C146.851 84.7059 152.131 34.3286 124.316 0L0.00176635 100.727Z" fill="#FFD43B"/>
<mask id="mask0" mask-type="alpha" maskUnits="userSpaceOnUse" x="0" y="0" width="143" height="131">
<path d="M0.00176635 100.727C27.8166 135.055 78.1937 140.336 112.522 112.521C146.851 84.7059 152.131 34.3286 124.316 0L0.00176635 100.727Z" fill="#FFCE2B"/>
</mask>
<g mask="url(#mask0)">
<g opacity="0.45">
<path d="M143.272 40.2331C142.122 39.7078 140.887 39.3905 139.626 39.296C138.491 39.1994 137.145 39.1476 136.169 39.7883C135.735 40.065 135.931 40.7426 136.351 40.9046C137.324 41.2712 138.563 41.0982 139.614 41.1477C140.757 41.191 141.895 41.3198 143.036 41.3884C143.176 41.3972 143.314 41.3564 143.426 41.2733C143.538 41.1901 143.617 41.0699 143.65 40.9339C143.682 40.7979 143.665 40.6549 143.602 40.5302C143.539 40.4055 143.434 40.3072 143.305 40.2525L143.272 40.2331Z" fill="white"/>
<path d="M130.961 70.5149C131.297 69.6287 131.449 68.6828 131.405 67.7358C131.399 67.2671 131.35 66.7999 131.261 66.3398C131.168 65.8808 130.963 65.4518 130.665 65.0909C130.593 65.0049 130.497 64.9418 130.389 64.9093C130.282 64.8769 130.167 64.8764 130.059 64.9081C129.951 64.9397 129.855 65.0021 129.782 65.0876C129.709 65.173 129.663 65.2779 129.648 65.3893C129.574 65.7811 129.56 66.1818 129.607 66.5778C129.67 67.0054 129.73 67.4422 129.79 67.8664C129.897 68.7099 129.944 69.5664 130.05 70.4099C130.038 70.5292 130.074 70.6484 130.149 70.7413C130.225 70.8341 130.335 70.8931 130.454 70.9052C130.513 70.9111 130.573 70.9054 130.63 70.8884C130.686 70.8713 130.739 70.8432 130.785 70.8057C130.878 70.7299 130.937 70.6203 130.949 70.501L130.961 70.5149Z" fill="white"/>
<path d="M111.272 47.4608C111.341 46.3135 111.398 45.165 111.483 44.0226C111.55 43.0729 111.879 41.9115 111.258 41.116C111.194 41.0415 111.115 40.9822 111.025 40.9425C110.936 40.9028 110.838 40.8836 110.74 40.8865C110.642 40.8894 110.546 40.9143 110.459 40.9592C110.372 41.0042 110.296 41.068 110.237 41.1462C109.592 41.8598 109.861 43.1254 109.859 44.0215C109.856 45.1213 109.834 46.2129 109.818 47.3115C109.804 48.2349 111.214 48.4146 111.272 47.4608Z" fill="white"/>
<path d="M106.917 69.953C105.697 69.6312 104.455 69.4008 103.2 69.2637C102.046 69.1427 100.699 68.9122 99.5928 69.3001C99.0301 69.4963 99.1311 70.2978 99.6206 70.4958C100.645 70.9188 101.936 70.7959 103.03 70.8627C104.241 70.9322 105.44 70.9878 106.665 71.0173C107.254 71.0311 107.566 70.1199 106.917 69.953Z" fill="white"/>
<path d="M97.3008 99.9189L97.1179 97.4344C97.0655 96.6572 97.0441 95.9182 96.6168 95.2483C96.5418 95.1577 96.4444 95.0882 96.3344 95.0467C96.2243 95.0051 96.1054 94.993 95.9892 95.0114C95.873 95.0298 95.7637 95.0781 95.6718 95.1516C95.58 95.2251 95.5089 95.3213 95.4656 95.4306C95.1709 96.1428 95.3664 96.9542 95.4649 97.6885L95.7933 100.153C95.9263 101.137 97.3713 100.889 97.3008 99.9189Z" fill="white"/>
<path d="M79.6024 73.6511C79.6528 72.6231 79.7473 71.5997 79.8529 70.5615C79.9485 69.7105 80.271 68.7333 79.7605 67.9749C79.6856 67.8825 79.577 67.8236 79.4587 67.8112C79.3404 67.7988 79.222 67.8339 79.1296 67.9088C78.4326 68.4736 78.4711 69.597 78.383 70.4074C78.2884 71.4308 78.2564 72.4672 78.2508 73.4935C78.2436 74.3539 79.556 74.5201 79.5974 73.6379L79.6024 73.6511Z" fill="white"/>
<path d="M77.3418 95.2342C75.8671 95.5516 74.3413 95.6564 72.8666 95.9738C72.7041 96.0027 72.5574 96.0888 72.4529 96.2166C72.3484 96.3443 72.2931 96.5053 72.297 96.6703C72.3009 96.8352 72.3637 96.9934 72.4741 97.116C72.5845 97.2387 72.7352 97.3178 72.8989 97.339C74.4799 97.4488 76.0684 97.3074 77.6052 96.9202C78.6743 96.7006 78.4144 95.0117 77.3503 95.2446L77.3418 95.2342Z" fill="white"/>
<path d="M70.664 121.732C70.4263 120.014 70.4824 117.775 69.5477 116.286C69.4828 116.203 69.3965 116.139 69.2981 116.101C69.1997 116.063 69.0928 116.052 68.9888 116.07C68.8848 116.088 68.7875 116.134 68.7075 116.202C68.6275 116.271 68.5676 116.36 68.5343 116.461C68.0966 118.172 68.8173 120.272 69.1412 121.99C69.1735 122.194 69.2854 122.376 69.4522 122.497C69.6189 122.618 69.8269 122.667 70.0303 122.635C70.2338 122.603 70.416 122.491 70.537 122.324C70.6579 122.157 70.7077 121.949 70.6753 121.746L70.664 121.732Z" fill="white"/>
<path d="M48.9976 103.675C49.0991 102.565 49.2026 101.455 49.3082 100.346C49.3996 99.3825 49.6576 98.2902 49.2618 97.3812C49.087 96.9802 48.4403 96.8518 48.1991 97.2666C47.689 98.1476 47.7991 99.1957 47.7752 100.185C47.7506 101.302 47.7197 102.418 47.6916 103.538C47.6681 104.371 48.9175 104.53 48.9976 103.675Z" fill="white"/>
<path d="M44.8582 122.741C45.0106 122.643 45.1226 122.494 45.1736 122.32C45.2246 122.146 45.2113 121.959 45.136 121.795C44.921 121.351 44.3726 121.258 43.9303 121.218C42.6127 121.131 41.0547 121.482 40.0889 122.42C40.0152 122.484 39.9615 122.567 39.9341 122.661C39.9067 122.754 39.9068 122.853 39.9344 122.947C39.9619 123.04 40.0158 123.123 40.0895 123.187C40.1632 123.251 40.2537 123.292 40.3501 123.305C41.0736 123.354 41.8004 123.29 42.5038 123.113C42.8599 123.032 43.2181 122.962 43.5686 122.874C43.7847 122.82 44.3112 122.544 44.5254 122.63L44.2351 122.357L44.255 122.289C44.2266 122.369 44.2249 122.457 44.2503 122.538C44.2757 122.619 44.3267 122.69 44.3958 122.74C44.4649 122.79 44.5482 122.817 44.6335 122.815C44.7187 122.814 44.8012 122.785 44.8686 122.733L44.8582 122.741Z" fill="white"/>
<path d="M22.4614 105.171C21.4424 105.217 20.4197 105.237 19.4 105.29C18.4804 105.331 17.4096 105.263 16.595 105.733C16.1259 106.009 16.013 106.781 16.6287 106.993C17.5406 107.299 18.5233 107.051 19.4528 106.916C20.5188 106.756 21.5796 106.555 22.6434 106.386C23.444 106.262 23.2339 105.134 22.4579 105.174L22.4614 105.171Z" fill="white"/>
<path d="M15.9702 133.378C16.0089 132.279 16.0413 131.179 16.0898 130.077C16.1327 129.09 16.2324 128.23 15.6798 127.355C15.6298 127.295 15.5667 127.247 15.4953 127.215C15.424 127.182 15.3462 127.167 15.2679 127.169C15.1896 127.171 15.1128 127.191 15.0434 127.228C14.974 127.264 14.9138 127.316 14.8673 127.379C14.3235 128.247 14.4439 129.136 14.4942 130.117C14.5536 131.224 14.5926 132.312 14.6338 133.41C14.6693 134.167 15.9448 134.138 15.9702 133.378Z" fill="white"/>
<path d="M55.4486 74.8721C53.4641 74.7885 51.4625 74.5341 49.5783 75.2583C49.5086 75.2952 49.4507 75.3511 49.4115 75.4195C49.3723 75.488 49.3534 75.5662 49.3568 75.645C49.3602 75.7238 49.3859 75.8001 49.4309 75.8649C49.4759 75.9297 49.5383 75.9804 49.611 76.0111C51.5116 76.6823 53.5153 76.3694 55.4935 76.2387C56.2743 76.1834 56.2438 74.8917 55.4625 74.8609L55.4486 74.8721Z" fill="white"/>
<path d="M86.9124 44.4823C85.8439 44.4533 84.7782 44.6413 83.706 44.5864C82.6339 44.5314 81.5906 44.1701 80.6302 44.5095C80.5209 44.5572 80.4241 44.6295 80.3473 44.7207C80.2705 44.8118 80.2157 44.9195 80.1873 45.0353C80.1588 45.151 80.1573 45.2718 80.1831 45.3882C80.2088 45.5046 80.2611 45.6135 80.3357 45.7065C81.1511 46.5988 82.6195 46.6156 83.7505 46.5651C84.9825 46.5729 86.1923 46.2382 87.2451 45.5983C87.3397 45.5187 87.409 45.4132 87.4446 45.2947C87.4803 45.1763 87.4806 45.0501 87.4457 44.9314C87.4108 44.8128 87.3421 44.7069 87.248 44.6267C87.154 44.5464 87.0386 44.4953 86.9159 44.4795L86.9124 44.4823Z" fill="white"/>
<path d="M115.183 16.894L112.572 16.6713C111.807 16.6039 110.922 16.4028 110.196 16.7253C110.104 16.7677 110.024 16.8334 109.965 16.916C109.906 16.9987 109.87 17.0953 109.859 17.1964C109.849 17.2974 109.865 17.3994 109.907 17.4923C109.948 17.5851 110.013 17.6655 110.095 17.7256C110.787 18.1458 111.635 18.0656 112.419 18.0936L115.044 18.1901C115.876 18.2199 116.027 16.9665 115.197 16.9114L115.183 16.894Z" fill="white"/>
<path d="M142.353 17.2922L142.766 14.2387C142.901 13.3376 143.255 12.2202 143.042 11.3241C143.017 11.1878 142.949 11.0634 142.847 10.9693C142.746 10.8752 142.616 10.8166 142.478 10.8021C142.341 10.7877 142.202 10.8182 142.083 10.8892C141.964 10.9601 141.871 11.0677 141.818 11.1958C141.392 12.009 141.457 13.1862 141.359 14.0912L141.033 17.1666C140.943 17.9959 142.199 18.1212 142.295 17.2989L142.353 17.2922Z" fill="white"/>
</g>
</g>
</svg>
