<?xml version="1.0" encoding="UTF-8"?>
<svg width="57px" height="46px" viewBox="0 0 57 46" version="1.1" xmlns="http://www.w3.org/2000/svg" xmlns:xlink="http://www.w3.org/1999/xlink">
    <title>Group 4</title>
    <g id="Page-1" stroke="none" stroke-width="1" fill="none" fill-rule="evenodd">
        <g id="Group-4" transform="translate(0.000000, -0.000063)" fill="#338EE6">
            <path d="M1.293,44.7210628 C1.293,45.0870628 1.024,45.3890628 0.641,45.3890628 C0.269,45.3890628 0,45.0870628 0,44.7210628 L0,38.3470628 C0,37.9800628 0.269,37.6790628 0.652,37.6790628 C1.024,37.6790628 1.293,37.9810628 1.293,38.3470628 L1.293,44.7210628 Z" id="Path"></path>
            <path d="M9.65,38.3460628 L9.65,44.1690628 C9.65,44.9570628 9.246,45.3990628 8.605,45.3990628 L8.554,45.3990628 C7.944,45.3990628 7.654,45.0320628 7.396,44.4930628 L6.093,41.8510628 L4.934,39.1230628 L4.966,41.7650628 L4.976,44.7090628 C4.976,45.0760628 4.707,45.3770628 4.324,45.3770628 C3.952,45.3770628 3.684,45.0750628 3.684,44.7090628 L3.684,38.8850628 C3.684,38.1620628 4.087,37.6550628 4.79,37.6550628 L4.842,37.6550628 C5.493,37.6550628 5.762,38.0220628 6.021,38.5610628 L7.303,41.1820628 L8.399,43.7280628 L8.368,41.2900628 L8.358,38.3460628 C8.358,37.9800628 8.626,37.6780628 9.009,37.6780628 C9.381,37.6770628 9.65,37.9790628 9.65,38.3460628 Z" id="Path"></path>
            <path d="M14.825,44.7100628 C14.825,45.0760628 14.556,45.3780628 14.173,45.3780628 C13.801,45.3780628 13.532,45.0760628 13.532,44.7100628 L13.532,38.9400628 L11.929,38.9400628 C11.599,38.9400628 11.33,38.6810628 11.33,38.3040628 C11.33,37.9370628 11.599,37.6790628 11.929,37.6790628 L16.427,37.6790628 C16.758,37.6790628 17.027,37.9380628 17.027,38.3150628 C17.027,38.6820628 16.758,38.9400628 16.427,38.9400628 L14.825,38.9400628 L14.825,44.7100628 Z" id="Path"></path>
            <path d="M18.718,44.4930628 L18.718,38.5080628 C18.718,37.9480628 19.018,37.6350628 19.566,37.6560628 L23.289,37.6560628 C23.619,37.6560628 23.888,37.9260628 23.888,38.2920628 C23.888,38.6590628 23.619,38.9180628 23.289,38.9180628 L20,38.9180628 L20,40.7730628 L22.906,40.7730628 C23.227,40.7730628 23.485,41.0210628 23.485,41.3760628 C23.485,41.7320628 23.227,41.9800628 22.906,41.9800628 L20,41.9800628 L20,44.1160628 L23.289,44.1160628 C23.619,44.1160628 23.888,44.3850628 23.888,44.7520628 C23.888,45.1190628 23.619,45.3770652 23.289,45.3770652 L19.535,45.3770652 C18.997,45.3780628 18.698,45.0650628 18.718,44.4930628 Z" id="Path"></path>
            <path d="M30.93,45.4100628 C31.291,45.2150628 31.405,44.8160628 31.229,44.5040628 L29.937,42.1100628 C31.002,41.8940628 31.623,41.0750628 31.623,39.9640628 C31.623,38.7990628 30.92,37.6560628 29.234,37.6560628 L26.783,37.6560628 C26.235,37.6350628 25.936,37.9480628 25.936,38.5080628 L25.936,44.7200628 C25.936,45.0860628 26.204,45.3890628 26.576,45.3890628 C26.959,45.3890628 27.228,45.0870628 27.228,44.7200628 L27.218,42.3690628 L28.582,42.3690628 L30.02,45.1410628 C30.195,45.4530628 30.578,45.5930628 30.93,45.4100628 Z M29.264,41.1500628 L27.217,41.1500628 L27.217,38.9170628 L29.254,38.9170628 C29.936,38.9170628 30.319,39.3700628 30.319,40.0280628 C30.319,40.6860628 29.957,41.1500628 29.264,41.1500628 Z" id="Shape"></path>
            <path d="M34.283,44.8060628 C33.508,44.0830628 33.156,42.9510628 33.156,41.5270628 C33.156,40.0930628 33.498,38.9720628 34.263,38.2600628 C34.739,37.8280628 35.379,37.5370628 36.311,37.5370628 C37.127,37.5370628 37.759,37.7320628 38.234,38.1520628 C38.648,38.4970628 38.948,38.9830628 39.123,39.6620628 C39.216,40.0180628 38.978,40.3740628 38.586,40.4490628 C38.214,40.5140628 37.914,40.2660628 37.8,39.9100628 C37.676,39.5650628 37.51,39.3170628 37.314,39.1440628 C37.045,38.8960628 36.714,38.7880628 36.279,38.7880628 C35.814,38.7880628 35.411,38.9280628 35.111,39.2410628 C34.677,39.6940628 34.49,40.5030628 34.49,41.5270628 C34.49,42.5410628 34.666,43.3500628 35.121,43.8030628 C35.421,44.1150628 35.814,44.2550628 36.269,44.2550628 C36.745,44.2550628 37.106,44.1260628 37.407,43.8350628 C37.561,43.6840628 37.696,43.4900628 37.789,43.2630628 C37.924,42.9290628 38.203,42.6810628 38.565,42.7670628 C38.927,42.8540628 39.154,43.2200628 39.041,43.5760628 C38.854,44.1690628 38.534,44.6440628 38.1,44.9670628 C37.624,45.3230628 37.035,45.5060628 36.29,45.5060628 C35.339,45.5060628 34.739,45.2150628 34.283,44.8060628 Z" id="Path"></path>
            <path d="M43.78,37.5370628 C41.535,37.5370628 40.584,39.1120628 40.584,41.5270628 C40.584,44.0180628 41.526,45.5170628 43.78,45.5170628 C45.992,45.5170628 46.965,44.0180628 46.965,41.5270628 C46.965,39.0680628 46.003,37.5370628 43.78,37.5370628 Z M43.769,38.7990628 C45,38.7990628 45.641,39.6940628 45.641,41.5270628 C45.641,43.3600628 44.989,44.2550628 43.769,44.2550628 C42.539,44.2550628 41.918,43.3610628 41.918,41.5270628 C41.918,39.6940628 42.559,38.7990628 43.769,38.7990628 Z" id="Shape"></path>
            <path d="M57,44.7100628 C57,45.0760628 56.731,45.3780628 56.349,45.3780628 C55.976,45.3780628 55.708,45.0760628 55.708,44.7100628 L55.708,41.8190628 L55.739,39.0050628 L54.839,41.8630628 L53.929,44.6770628 C53.774,45.1730628 53.453,45.3680628 53.05,45.3680628 C52.626,45.3680628 52.316,45.1630628 52.15,44.6670628 L51.22,41.8630628 L50.361,39.0490628 L50.392,41.8200628 L50.392,44.7100628 C50.392,45.0770628 50.123,45.3790628 49.74,45.3790628 C49.368,45.3790628 49.1,45.0760628 49.1,44.7100628 L49.1,38.9410628 C49.1,38.1420628 49.513,37.6790628 50.237,37.6790628 C50.92,37.6790628 51.302,38.0560628 51.519,38.7460628 L52.47,41.6900628 L53.049,43.6960628 L53.639,41.6900628 L54.59,38.7460628 C54.808,38.0560628 55.18,37.6790628 55.863,37.6790628 C56.586,37.6790628 56.99,38.1310628 56.99,38.9410628 L57,44.7100628 Z" id="Path"></path>
            <path d="M39.257,16.5353628 C39.257,16.8032628 39.154,17.0601628 38.971,17.2495628 C38.789,17.4389628 38.541,17.5453628 38.283,17.5453628 C38.024,17.5453628 37.777,17.4389628 37.594,17.2495628 C37.411,17.0601628 37.309,16.8032628 37.309,16.5353628 L37.309,7.5123628 C37.309,7.2444628 37.411,6.9875628 37.594,6.7981628 C37.777,6.6087628 38.024,6.5023628 38.283,6.5023628 C38.541,6.5023628 38.789,6.6087628 38.971,6.7981628 C39.154,6.9875628 39.257,7.2444628 39.257,7.5123628 L39.257,16.5353628 Z M38.919,22.7871628 C38.79,22.9207628 35.168,26.0508628 28.527,26.0508628 C21.887,26.0508628 18.289,22.9374628 18.136,22.8038628 C18.04,22.7196628 17.96,22.6164628 17.902,22.5003628 C17.845,22.3841628 17.81,22.2572628 17.799,22.1270628 C17.789,21.9967628 17.803,21.8656628 17.841,21.7411628 C17.88,21.6166628 17.942,21.5012628 18.023,21.4016628 C18.192,21.1999628 18.43,21.0753628 18.686,21.0550628 C18.942,21.0346628 19.196,21.1202628 19.392,21.2931628 C19.448,21.3348628 22.684,24.0559628 28.519,24.0559628 C34.355,24.0559628 37.615,21.3181628 37.647,21.2931628 C37.845,21.1218628 38.099,21.0373628 38.356,21.0576628 C38.613,21.0778628 38.853,21.2012628 39.023,21.4016628 C39.187,21.6002628 39.269,21.8581628 39.251,22.1191628 C39.233,22.3801628 39.117,22.6232628 38.927,22.7955628 L38.919,22.7871628 Z M17.79,7.5123628 C17.805,7.2436628 17.921,6.9918628 18.114,6.8119628 C18.307,6.6320628 18.561,6.5387628 18.82,6.5524628 C19.061,6.5665628 19.287,6.6725628 19.457,6.8497628 C19.626,7.0270628 19.726,7.2630628 19.738,7.5123628 L19.738,16.5186628 C19.738,16.7865628 19.635,17.0434628 19.453,17.2328628 C19.27,17.4222628 19.022,17.5286628 18.764,17.5286628 C18.506,17.5286628 18.258,17.4222628 18.075,17.2328628 C17.893,17.0434628 17.79,16.7865628 17.79,16.5186628 L17.79,7.5123628 Z M22.676,5.5091628 C22.69,5.2403628 22.807,4.9885628 23,4.8086628 C23.193,4.6288628 23.447,4.5355628 23.706,4.5491628 C23.946,4.5633628 24.173,4.6692628 24.342,4.8465628 C24.512,5.0237628 24.612,5.2597628 24.624,5.5091628 L24.624,18.8641628 C24.624,19.1319628 24.521,19.3888628 24.338,19.5783628 C24.156,19.7677628 23.908,19.8741628 23.65,19.8741628 C23.391,19.8741628 23.144,19.7677628 22.961,19.5783628 C22.778,19.3888628 22.676,19.1319628 22.676,18.8641628 L22.676,5.5091628 Z M27.586,5.0082628 C27.586,4.7404628 27.688,4.4835628 27.871,4.2941628 C28.053,4.1046628 28.301,3.9982628 28.56,3.9982628 C28.818,3.9982628 29.066,4.1046628 29.248,4.2941628 C29.431,4.4835628 29.533,4.7404628 29.533,5.0082628 L29.533,19.5318628 C29.533,19.7997628 29.431,20.0566628 29.248,20.2460628 C29.066,20.4354628 28.818,20.5418628 28.56,20.5418628 C28.301,20.5418628 28.053,20.4354628 27.871,20.2460628 C27.688,20.0566628 27.586,19.7997628 27.586,19.5318628 L27.586,5.0082628 Z M32.415,5.5091628 C32.415,5.2412628 32.518,4.9843628 32.7,4.7949628 C32.883,4.6055628 33.131,4.4990628 33.389,4.4990628 C33.647,4.4990628 33.895,4.6055628 34.078,4.7949628 C34.26,4.9843628 34.363,5.2412628 34.363,5.5091628 L34.363,18.8641628 C34.363,19.1319628 34.26,19.3888628 34.078,19.5783628 C33.895,19.7677628 33.647,19.8741628 33.389,19.8741628 C33.131,19.8741628 32.883,19.7677628 32.7,19.5783628 C32.518,19.3888628 32.415,19.1319628 32.415,18.8641628 L32.415,5.5091628 Z M39.522,7.93520623e-05 L17.565,7.93520623e-05 C17.086,-0.0031371951 16.612,0.0914628049 16.169,0.278562805 C15.726,0.465562805 15.322,0.741462805 14.982,1.0903628 C14.642,1.4392628 14.371,1.8543628 14.186,2.3117628 C14.001,2.7692628 13.904,3.2600628 13.902,3.7562628 L13.902,26.2928628 C13.904,26.7890628 14.001,27.2799628 14.186,27.7373628 C14.371,28.1948628 14.642,28.6098628 14.982,28.9587628 C15.322,29.3076628 15.726,29.5835628 16.169,29.7706628 C16.612,29.9577628 17.086,30.0522628 17.565,30.0491417 L39.522,30.0491417 C40,30.0522628 40.474,29.9580628 40.916,29.7714628 C41.359,29.5848628 41.762,29.3097628 42.102,28.9617628 C42.442,28.6137628 42.713,28.1996628 42.898,27.7431628 C43.084,27.2866628 43.181,26.7967628 43.184,26.3012628 L43.184,3.7562628 C43.182,3.2607628 43.086,2.7706628 42.901,2.3137628 C42.717,1.8567628 42.447,1.4421628 42.108,1.0933628 C41.768,0.744562805 41.366,0.468462805 40.924,0.280962805 C40.482,0.0933628049 40.008,-0.0020371951 39.53,7.93520623e-05" id="Shape" fill-rule="nonzero"></path>
        </g>
    </g>
</svg>