<?xml version="1.0" encoding="UTF-8"?>
<svg width="40px" height="41px" viewBox="0 0 40 41" version="1.1" xmlns="http://www.w3.org/2000/svg" xmlns:xlink="http://www.w3.org/1999/xlink">
    <title>Group 6</title>
    <g id="Page-1" stroke="none" stroke-width="1" fill="none" fill-rule="evenodd">
        <g id="Group-6" fill="#111111">
            <path d="M6.218,31.5376 C5.63,31.0427 4.625,30.7955 3.205,30.7955 L0,30.7955 L0,40.699 L2.396,40.699 L2.396,37.595 L3.47,37.595 C4.772,37.595 5.728,37.308 6.336,36.734 C7.02,36.091 7.365,35.235 7.365,34.166 C7.365,33.057 6.982,32.181 6.218,31.5376 Z M3.41,35.354 L2.396,35.354 L2.396,33.036 L3.307,33.036 C4.415,33.036 4.969,33.425 4.969,34.202 C4.969,34.969 4.449,35.353 3.41,35.353 L3.41,35.354 Z M11.465,30.7949 L8.967,30.7949 L8.967,40.698 L14.361,40.698 L14.361,38.457 L11.465,38.457 L11.465,30.7949 Z M19.257,30.7949 L15.332,40.698 L18.022,40.698 L18.536,39.258 L21.947,39.258 L22.417,40.698 L25.137,40.698 L21.24,30.7949 L19.257,30.7949 Z M19.227,37.254 L20.257,33.869 L21.27,37.254 L19.227,37.254 L19.227,37.254 Z" id="Shape"></path>
            <path d="M26.381,40.698 L28.88,40.698 L28.88,30.7949 L26.381,30.7949 L26.381,40.698 Z M38.583,32.651 C38.267,32.193 37.862,31.8045 37.391,31.5081 C36.637,31.0326 35.608,30.7955 34.304,30.7955 L31.012,30.7955 L31.012,40.698 L34.863,40.698 C36.255,40.698 37.372,40.243 38.215,39.332 C39.058,38.422 39.478,37.214 39.478,35.709 C39.478,34.512 39.18,33.493 38.583,32.651 Z M34.584,38.456 L33.511,38.456 L33.511,33.037 L34.599,33.037 C35.363,33.037 35.95,33.276 36.362,33.753 C36.774,34.23 36.98,34.907 36.98,35.784 C36.98,37.565 36.181,38.456 34.584,38.456 Z" id="Shape"></path>
            <path d="M17.065,7.10542736e-15 L9.059,2.076 L6.853,10.047 L9.612,12.8521 L6.809,15.6108 L8.885,23.6167 L16.856,25.8218 L19.66,23.0625 L22.419,25.867 L30.425,23.791 L32.631,15.8195 L29.872,13.0155 L32.676,10.2568 L30.599,2.2503 L22.627,0.0452 L19.824,2.8039 L17.065,7.10542736e-15 Z M12.152,3.6093 L16.369,2.5152 L18.213,4.3895 L15.524,7.0355 L12.152,3.6093 Z M21.41,4.4146 L23.283,2.5713 L27.482,3.733 L24.055,7.1041 L21.41,4.4146 Z M9.38,9.3926 L10.541,5.1943 L13.912,8.6205 L11.223,11.2665 L9.38,9.3926 Z M25.64,8.7153 L29.067,5.3431 L30.16,9.5604 L28.286,11.4043 L25.64,8.7153 Z M17.109,8.6461 L19.798,6.0002 L22.444,8.6897 L19.755,11.3357 L17.109,8.6461 Z M12.809,12.8771 L15.498,10.2312 L18.145,12.9207 L15.455,15.5666 L12.809,12.8771 Z M21.34,12.9463 L24.029,10.3004 L26.675,12.9899 L23.986,15.6358 L21.34,12.9463 Z M9.324,16.3066 L11.198,14.4622 L13.843,17.1522 L10.418,20.5229 L9.324,16.3066 Z M17.04,17.1773 L19.729,14.5314 L22.375,17.2209 L19.686,19.8668 L17.04,17.1773 Z M25.571,17.2471 L28.26,14.6011 L30.104,16.475 L28.943,20.6733 L25.571,17.2471 Z M12.002,22.1346 L15.428,18.7624 L18.075,21.4519 L16.201,23.2963 L12.002,22.1346 Z M21.271,21.4775 L23.96,18.8316 L27.331,22.2583 L23.114,23.3519 L21.271,21.4775 Z" id="Shape"></path>
        </g>
    </g>
</svg>