<?xml version="1.0" encoding="UTF-8"?>
<svg width="73px" height="19px" viewBox="0 0 73 19" version="1.1" xmlns="http://www.w3.org/2000/svg" xmlns:xlink="http://www.w3.org/1999/xlink">
    <title>Group</title>
    <defs>
        <linearGradient x1="49.9987177%" y1="99.967923%" x2="49.9987177%" y2="-0.0160384924%" id="linearGradient-1">
            <stop stop-color="#27245E" offset="0%"></stop>
            <stop stop-color="#5F5DA9" offset="66.31%"></stop>
            <stop stop-color="#23AAE0" offset="100%"></stop>
        </linearGradient>
        <linearGradient x1="50.0082271%" y1="99.9835918%" x2="50.0082271%" y2="0.00820411847%" id="linearGradient-2">
            <stop stop-color="#5F5DA9" offset="0%"></stop>
            <stop stop-color="#23AAE0" offset="100%"></stop>
        </linearGradient>
        <linearGradient x1="50.0032605%" y1="99.982353%" x2="50.0032605%" y2="0%" id="linearGradient-3">
            <stop stop-color="#5F5DA9" offset="0%"></stop>
            <stop stop-color="#23AAE0" offset="100%"></stop>
        </linearGradient>
        <linearGradient x1="49.9987844%" y1="100.003572%" x2="49.9987844%" y2="0.00208611601%" id="linearGradient-4">
            <stop stop-color="#5F5DA9" offset="0%"></stop>
            <stop stop-color="#23AAE0" offset="100%"></stop>
        </linearGradient>
        <linearGradient x1="50.0096639%" y1="99.9669228%" x2="50.0096639%" y2="-0.00626750073%" id="linearGradient-5">
            <stop stop-color="#5F5DA9" offset="0%"></stop>
            <stop stop-color="#23AAE0" offset="100%"></stop>
        </linearGradient>
    </defs>
    <g id="Page-1" stroke="none" stroke-width="1" fill="none" fill-rule="evenodd">
        <g id="Group" transform="translate(0.000010, 0.000032)" fill-rule="nonzero">
            <polygon id="Path" fill="url(#linearGradient-1)" points="8.09568973 13.3719676 12.0699897 10.4009676 15.8938897 12.3429676 14.0963897 16.6359676"></polygon>
            <polygon id="Path" fill="url(#linearGradient-2)" points="5.89608973 3.60696759 10.1887897 4.24896759 4.98618973 15.7959676 0.464789727 15.2869676"></polygon>
            <path d="M0.0553897267,16.1609676 L1.74088973,12.5369676 L13.7707897,8.89596759 L15.1773897,12.9189676 L0.764289727,16.9849676 C0.273189727,17.1229676 -0.156810273,16.6259676 0.0556897267,16.1609676 L0.0553897267,16.1609676 Z" id="Path" fill="url(#linearGradient-3)"></path>
            <path d="M16.1027897,13.2559676 L14.6344897,16.2609676 C14.4055897,16.7309676 13.7469897,16.7639676 13.4677897,16.3219676 L5.70308973,4.02796759 L7.34438973,0.437967591 C7.56758973,-0.0440324088 8.24298973,-0.0880324088 8.52208973,0.365967591 L16.0691897,12.6209676 C16.1862897,12.8139676 16.1975897,13.0519676 16.1027897,13.2569676 L16.1027897,13.2559676 Z" id="Path" fill="url(#linearGradient-4)"></path>
            <path d="M22.8889897,15.2469676 C21.7995897,15.2469676 20.9643897,14.9559676 20.4002897,14.3919676 C19.8916897,13.8609676 19.6093897,13.0849676 19.6093897,12.2029676 C19.6093897,10.4489676 20.8646897,9.39896759 22.9662897,9.39896759 L25.6267897,9.39896759 L25.6267897,8.62796759 C25.6267897,7.33196759 24.9355897,6.72896759 23.4476897,6.72896759 C22.5626897,6.72896759 22.0097897,6.94096759 21.4400897,7.52696759 L20.1458897,6.23696759 C21.0418897,5.30996759 21.9321897,4.99196759 23.5473897,4.99196759 C26.3677897,4.99196759 27.7392897,6.12496759 27.7392897,8.45996759 L27.7392897,15.1399676 L25.6821897,15.1399676 L25.6821897,13.8889676 L25.2726897,14.3019676 C24.5924897,15.0009676 23.9676897,15.2469676 22.8889897,15.2469676 Z M23.4087897,10.7059676 C21.8603897,10.7059676 21.6280897,11.6159676 21.6280897,12.1579676 C21.6280897,12.5879676 21.8049897,13.5929676 23.4476897,13.5929676 C24.1334897,13.5929676 24.6589897,13.4979676 25.1510897,13.0239676 C25.5657897,12.6609676 25.6267897,12.0849676 25.6267897,11.5159676 L25.6267897,10.7059676 L23.4087897,10.7059676 Z M29.5866897,18.9999676 L29.5866897,5.11996759 L31.6218897,5.11996759 L31.6218897,6.49996759 L32.0421897,6.03096759 C32.7004897,5.28796759 33.3806897,5.00296759 34.4590897,5.00296759 C35.4161897,5.00296759 36.2732897,5.32096759 36.8040897,5.87396759 C37.7386897,6.83496759 37.8162897,8.43196759 37.8162897,10.1249676 C37.8162897,11.8289676 37.7386897,13.4309676 36.8040897,14.3919676 C36.2729897,14.9509676 35.4158897,15.2689676 34.4590897,15.2689676 C33.4025897,15.2689676 32.7058897,14.9789676 32.1250897,14.3029676 L31.7047897,13.8109676 L31.7047897,18.9999676 L29.5866897,18.9999676 Z M33.7012897,6.87396759 C31.8541897,6.87396759 31.7047897,8.54996759 31.7047897,10.1249676 C31.7047897,11.7059676 31.8598897,13.3919676 33.7012897,13.3919676 C35.5487897,13.3919676 35.6978897,11.7059676 35.6978897,10.1249676 C35.6978897,8.54996759 35.5430897,6.87396759 33.7012897,6.87396759 Z M42.5227897,15.1459676 C40.4764897,15.1459676 39.7463897,13.6599676 39.7463897,12.3809676 L39.7463897,6.92996759 L38.6457897,6.92996759 L38.6457897,5.42196759 L39.7463897,5.42196759 L39.7463897,2.31596759 L41.8592897,2.31596759 L41.8592897,5.42196759 L43.6950897,5.42196759 L43.6950897,6.92996759 L41.8590897,6.92996759 L41.8590897,12.2189676 C41.8590897,12.9899676 42.2628897,13.4089676 42.9984897,13.4089676 L43.6950897,13.4089676 L43.6950897,15.1409676 L42.5227897,15.1409676 L42.5227897,15.1459676 Z M49.0649897,15.2689676 C46.0293897,15.2689676 44.4917897,13.5379676 44.4917897,10.1249676 C44.4917897,6.96396759 46.1397897,5.00296759 48.7829897,5.00296759 C51.4269897,5.00296759 53.0749897,6.85796759 53.0749897,9.84596759 L53.0749897,10.7059676 L46.5601897,10.7059676 L46.5601897,10.9519676 C46.5601897,12.5209676 47.5498897,13.5379676 49.0759897,13.5379676 C50.1939897,13.5379676 50.7969897,13.2249676 51.4329897,12.6439676 L52.6709897,13.8609676 C51.7589897,14.7549676 50.8299897,15.2689676 49.0649897,15.2689676 Z M48.7829897,6.68996759 C47.8872897,6.68996759 47.1738897,7.13696759 46.8253897,7.92396759 C46.6319897,8.33796759 46.5876897,8.64996759 46.5655897,9.14196759 L46.5544897,9.39296759 L51.0119897,9.39296759 L51.0009897,9.14196759 C50.9789897,8.64496759 50.9349897,8.33796759 50.7359897,7.91896759 C50.3929897,7.14196759 49.6789897,6.68996759 48.7829897,6.68996759 Z M57.2179897,15.2469676 C56.1279897,15.2469676 55.2929897,14.9559676 54.7289897,14.3919676 C54.2199897,13.8609676 53.9379897,13.0849676 53.9379897,12.2029676 C53.9379897,10.4489676 55.1929897,9.39896759 57.2949897,9.39896759 L59.9549897,9.39896759 L59.9549897,8.62796759 C59.9549897,7.33196759 59.2639897,6.72896759 57.7759897,6.72896759 C56.8909897,6.72896759 56.3379897,6.94096759 55.7679897,7.52696759 L54.4739897,6.23696759 C55.3699897,5.30996759 56.2609897,4.99196759 57.8759897,4.99196759 C60.6959897,4.99196759 62.0679897,6.12496759 62.0679897,8.45996759 L62.0679897,15.1399676 L60.0109897,15.1399676 L60.0109897,13.8889676 L59.6009897,14.3019676 C58.9149897,15.0009676 58.2909897,15.2469676 57.2179897,15.2469676 Z M57.7319897,10.7059676 C56.1829897,10.7059676 55.9509897,11.6159676 55.9509897,12.1579676 C55.9509897,12.5879676 56.1279897,13.5929676 57.7709897,13.5929676 C58.4559897,13.5929676 58.9819897,13.4979676 59.4739897,13.0239676 C59.8889897,12.6609676 59.9499897,12.0849676 59.9499897,11.5159676 L59.9499897,10.7059676 L57.7319897,10.7059676 Z M69.9649897,15.1459676 L69.9649897,9.03596759 C69.9649897,8.04196759 69.4509897,6.87396759 68.0079897,6.87396759 C67.0949897,6.87396759 66.0279897,7.43796759 66.0279897,9.03596759 L66.0279897,15.1459676 L63.9149897,15.1459676 L63.9149897,5.11996759 L65.9719897,5.11996759 L65.9719897,6.45496759 L66.3869897,6.00796759 C66.9899897,5.36596759 67.8749897,4.99696759 68.8099897,4.99696759 C69.7499897,4.99696759 70.5409897,5.29396759 71.0989897,5.85196759 C71.7909897,6.54996759 72.0889897,7.39396759 72.0889897,8.66696759 L72.0889897,15.1409676 L69.9649897,15.1409676 L69.9649897,15.1459676 Z" id="Shape" fill="#171A48"></path>
            <path d="M16.9455897,12.4839676 L9.57598973,0.311967591 C9.40678973,0.0259675912 9.07818973,-0.0570324088 8.80468973,0.0369675912 L16.3710897,12.5279676 C16.4914897,12.7269676 16.5022897,12.9749676 16.4039897,13.1839676 L14.9101897,16.2949676 C14.8833897,16.3529676 14.8482897,16.4059676 14.8061897,16.4549676 C15.0853897,16.5209676 15.4026897,16.3989676 15.5448897,16.1019676 L16.9782897,13.1179676 C17.0244897,13.0179676 17.0456897,12.9069676 17.0399897,12.7969676 C17.0343897,12.6869676 17.0019897,12.5789676 16.9455897,12.4839676 Z" id="Path" fill="url(#linearGradient-5)"></path>
        </g>
    </g>
</svg>