<svg width="1440" height="500" viewBox="0 0 1440 500" fill="none" xmlns="http://www.w3.org/2000/svg">
<g opacity="0.2">
<path d="M1124.66 27.1419C1124.66 27.8524 1124.08 28.4284 1123.37 28.4284C1122.66 28.4284 1122.09 27.8524 1122.09 27.1419C1122.09 26.4314 1122.66 25.8555 1123.37 25.8555C1124.08 25.8555 1124.66 26.4314 1124.66 27.1419Z" fill="white"/>
<path d="M1124.66 46.4613C1124.66 47.1718 1124.08 47.7478 1123.37 47.7478C1122.66 47.7478 1122.09 47.1718 1122.09 46.4613C1122.09 45.7508 1122.66 45.1748 1123.37 45.1748C1124.08 45.1748 1124.66 45.7508 1124.66 46.4613Z" fill="white"/>
<path d="M1124.66 65.7845C1124.66 66.495 1124.08 67.071 1123.37 67.071C1122.66 67.071 1122.09 66.495 1122.09 65.7845C1122.09 65.074 1122.66 64.498 1123.37 64.498C1124.08 64.498 1124.66 65.074 1124.66 65.7845Z" fill="white"/>
<path d="M1124.66 85.1087C1124.66 85.8192 1124.08 86.3952 1123.37 86.3952C1122.66 86.3952 1122.09 85.8192 1122.09 85.1087C1122.09 84.3982 1122.66 83.8223 1123.37 83.8223C1124.08 83.8223 1124.66 84.3982 1124.66 85.1087Z" fill="white"/>
<path d="M1124.66 104.426C1124.66 105.137 1124.08 105.713 1123.37 105.713C1122.66 105.713 1122.09 105.137 1122.09 104.426C1122.09 103.716 1122.66 103.14 1123.37 103.14C1124.08 103.14 1124.66 103.716 1124.66 104.426Z" fill="white"/>
<path d="M1124.66 123.748C1124.66 124.459 1124.08 125.035 1123.37 125.035C1122.66 125.035 1122.09 124.459 1122.09 123.748C1122.09 123.038 1122.66 122.462 1123.37 122.462C1124.08 122.462 1124.66 123.038 1124.66 123.748Z" fill="white"/>
<path d="M1124.66 143.069C1124.66 143.779 1124.08 144.355 1123.37 144.355C1122.66 144.355 1122.09 143.779 1122.09 143.069C1122.09 142.358 1122.66 141.782 1123.37 141.782C1124.08 141.782 1124.66 142.358 1124.66 143.069Z" fill="white"/>
<path d="M1124.66 162.392C1124.66 163.102 1124.08 163.678 1123.37 163.678C1122.66 163.678 1122.09 163.102 1122.09 162.392C1122.09 161.681 1122.66 161.105 1123.37 161.105C1124.08 161.105 1124.66 161.681 1124.66 162.392Z" fill="white"/>
<path d="M1124.66 9.50229C1124.66 10.2128 1124.08 10.7888 1123.37 10.7888C1122.66 10.7888 1122.09 10.2128 1122.09 9.50229C1122.09 8.79179 1122.66 8.21582 1123.37 8.21582C1124.08 8.21582 1124.66 8.79179 1124.66 9.50229Z" fill="white"/>
<path d="M1124.66 181.714C1124.66 182.425 1124.08 183.001 1123.37 183.001C1122.66 183.001 1122.09 182.425 1122.09 181.714C1122.09 181.004 1122.66 180.428 1123.37 180.428C1124.08 180.428 1124.66 181.004 1124.66 181.714Z" fill="white"/>
<path d="M939.573 27.1419C939.573 27.8524 938.997 28.4284 938.286 28.4284C937.576 28.4284 937 27.8524 937 27.1419C937 26.4314 937.576 25.8555 938.286 25.8555C938.997 25.8555 939.573 26.4314 939.573 27.1419Z" fill="white"/>
<path d="M1147.34 27.1419C1147.34 27.8524 1146.77 28.4284 1146.06 28.4284C1145.35 28.4284 1144.77 27.8524 1144.77 27.1419C1144.77 26.4314 1145.35 25.8555 1146.06 25.8555C1146.77 25.8555 1147.34 26.4314 1147.34 27.1419Z" fill="white"/>
<path d="M939.573 46.4613C939.573 47.1718 938.997 47.7478 938.286 47.7478C937.576 47.7478 937 47.1718 937 46.4613C937 45.7508 937.576 45.1748 938.286 45.1748C938.997 45.1748 939.573 45.7508 939.573 46.4613Z" fill="white"/>
<path d="M1147.34 46.4574C1147.34 47.1679 1146.77 47.7438 1146.06 47.7438C1145.35 47.7438 1144.77 47.1679 1144.77 46.4574C1144.77 45.7469 1145.35 45.1709 1146.06 45.1709C1146.77 45.1709 1147.34 45.7469 1147.34 46.4574Z" fill="white"/>
<path d="M1147.34 65.7845C1147.34 66.495 1146.77 67.071 1146.06 67.071C1145.35 67.071 1144.77 66.495 1144.77 65.7845C1144.77 65.074 1145.35 64.498 1146.06 64.498C1146.77 64.498 1147.34 65.074 1147.34 65.7845Z" fill="white"/>
<path d="M1147.34 85.1087C1147.34 85.8192 1146.77 86.3952 1146.06 86.3952C1145.35 86.3952 1144.77 85.8192 1144.77 85.1087C1144.77 84.3982 1145.35 83.8223 1146.06 83.8223C1146.77 83.8223 1147.34 84.3982 1147.34 85.1087Z" fill="white"/>
<path d="M1147.34 104.426C1147.34 105.137 1146.77 105.713 1146.06 105.713C1145.35 105.713 1144.77 105.137 1144.77 104.426C1144.77 103.716 1145.35 103.14 1146.06 103.14C1146.77 103.14 1147.34 103.716 1147.34 104.426Z" fill="white"/>
<path d="M1147.34 123.748C1147.34 124.459 1146.77 125.035 1146.06 125.035C1145.35 125.035 1144.77 124.459 1144.77 123.748C1144.77 123.038 1145.35 122.462 1146.06 122.462C1146.77 122.462 1147.34 123.038 1147.34 123.748Z" fill="white"/>
<path d="M1147.34 143.069C1147.34 143.779 1146.77 144.355 1146.06 144.355C1145.35 144.355 1144.77 143.779 1144.77 143.069C1144.77 142.358 1145.35 141.782 1146.06 141.782C1146.77 141.782 1147.34 142.358 1147.34 143.069Z" fill="white"/>
<path d="M1147.34 162.392C1147.34 163.102 1146.77 163.678 1146.06 163.678C1145.35 163.678 1144.77 163.102 1144.77 162.392C1144.77 161.681 1145.35 161.105 1146.06 161.105C1146.77 161.105 1147.34 161.681 1147.34 162.392Z" fill="white"/>
<path d="M939.573 9.50229C939.573 10.2128 938.997 10.7888 938.286 10.7888C937.576 10.7888 937 10.2128 937 9.50229C937 8.79179 937.576 8.21582 938.286 8.21582C938.997 8.21582 939.573 8.79179 939.573 9.50229Z" fill="white"/>
<path d="M1147.34 9.50229C1147.34 10.2128 1146.77 10.7888 1146.06 10.7888C1145.35 10.7888 1144.77 10.2128 1144.77 9.50229C1144.77 8.79179 1145.35 8.21582 1146.06 8.21582C1146.77 8.21582 1147.34 8.79179 1147.34 9.50229Z" fill="white"/>
<path d="M1147.34 181.714C1147.34 182.425 1146.77 183.001 1146.06 183.001C1145.35 183.001 1144.77 182.425 1144.77 181.714C1144.77 181.004 1145.35 180.428 1146.06 180.428C1146.77 180.428 1147.34 181.004 1147.34 181.714Z" fill="white"/>
<path d="M966.417 27.1419C966.417 27.8524 965.841 28.4284 965.13 28.4284C964.42 28.4284 963.844 27.8524 963.844 27.1419C963.844 26.4314 964.42 25.8555 965.13 25.8555C965.841 25.8555 966.417 26.4314 966.417 27.1419Z" fill="white"/>
<path d="M1170.02 27.1419C1170.02 27.8524 1169.45 28.4284 1168.74 28.4284C1168.03 28.4284 1167.45 27.8524 1167.45 27.1419C1167.45 26.4314 1168.03 25.8555 1168.74 25.8555C1169.45 25.8555 1170.02 26.4314 1170.02 27.1419Z" fill="white"/>
<path d="M966.417 46.4574C966.417 47.1679 965.841 47.7438 965.13 47.7438C964.42 47.7438 963.844 47.1679 963.844 46.4574C963.844 45.7469 964.42 45.1709 965.13 45.1709C965.841 45.1709 966.417 45.7469 966.417 46.4574Z" fill="white"/>
<path d="M1170.02 46.4613C1170.02 47.1718 1169.45 47.7478 1168.74 47.7478C1168.03 47.7478 1167.45 47.1718 1167.45 46.4613C1167.45 45.7508 1168.03 45.1748 1168.74 45.1748C1169.45 45.1748 1170.02 45.7508 1170.02 46.4613Z" fill="white"/>
<path d="M1170.02 65.7845C1170.02 66.495 1169.45 67.071 1168.74 67.071C1168.03 67.071 1167.45 66.495 1167.45 65.7845C1167.45 65.074 1168.03 64.498 1168.74 64.498C1169.45 64.498 1170.02 65.074 1170.02 65.7845Z" fill="white"/>
<path d="M1170.02 85.1087C1170.02 85.8192 1169.45 86.3952 1168.74 86.3952C1168.03 86.3952 1167.45 85.8192 1167.45 85.1087C1167.45 84.3982 1168.03 83.8223 1168.74 83.8223C1169.45 83.8223 1170.02 84.3982 1170.02 85.1087Z" fill="white"/>
<path d="M1170.02 104.426C1170.02 105.137 1169.45 105.713 1168.74 105.713C1168.03 105.713 1167.45 105.137 1167.45 104.426C1167.45 103.716 1168.03 103.14 1168.74 103.14C1169.45 103.14 1170.02 103.716 1170.02 104.426Z" fill="white"/>
<path d="M1170.02 123.748C1170.02 124.459 1169.45 125.035 1168.74 125.035C1168.03 125.035 1167.45 124.459 1167.45 123.748C1167.45 123.038 1168.03 122.462 1168.74 122.462C1169.45 122.462 1170.02 123.038 1170.02 123.748Z" fill="white"/>
<path d="M1170.02 143.069C1170.02 143.779 1169.45 144.355 1168.74 144.355C1168.03 144.355 1167.45 143.779 1167.45 143.069C1167.45 142.358 1168.03 141.782 1168.74 141.782C1169.45 141.782 1170.02 142.358 1170.02 143.069Z" fill="white"/>
<path d="M1170.02 162.392C1170.02 163.102 1169.45 163.678 1168.74 163.678C1168.03 163.678 1167.45 163.102 1167.45 162.392C1167.45 161.681 1168.03 161.105 1168.74 161.105C1169.45 161.105 1170.02 161.681 1170.02 162.392Z" fill="white"/>
<path d="M966.417 9.50229C966.417 10.2128 965.841 10.7888 965.13 10.7888C964.42 10.7888 963.844 10.2128 963.844 9.50229C963.844 8.79179 964.42 8.21582 965.13 8.21582C965.841 8.21582 966.417 8.79179 966.417 9.50229Z" fill="white"/>
<path d="M1170.02 9.50229C1170.02 10.2128 1169.45 10.7888 1168.74 10.7888C1168.03 10.7888 1167.45 10.2128 1167.45 9.50229C1167.45 8.79179 1168.03 8.21582 1168.74 8.21582C1169.45 8.21582 1170.02 8.79179 1170.02 9.50229Z" fill="white"/>
<path d="M1170.02 181.714C1170.02 182.425 1169.45 183.001 1168.74 183.001C1168.03 183.001 1167.45 182.425 1167.45 181.714C1167.45 181.004 1168.03 180.428 1168.74 180.428C1169.45 180.428 1170.02 181.004 1170.02 181.714Z" fill="white"/>
<path d="M989.1 27.1419C989.1 27.8524 988.524 28.4284 987.814 28.4284C987.103 28.4284 986.527 27.8524 986.527 27.1419C986.527 26.4314 987.103 25.8555 987.814 25.8555C988.524 25.8555 989.1 26.4314 989.1 27.1419Z" fill="white"/>
<path d="M1192.71 27.1419C1192.71 27.8524 1192.13 28.4284 1191.42 28.4284C1190.71 28.4284 1190.13 27.8524 1190.13 27.1419C1190.13 26.4314 1190.71 25.8555 1191.42 25.8555C1192.13 25.8555 1192.71 26.4314 1192.71 27.1419Z" fill="white"/>
<path d="M989.1 46.4613C989.1 47.1718 988.524 47.7478 987.814 47.7478C987.103 47.7478 986.527 47.1718 986.527 46.4613C986.527 45.7508 987.103 45.1748 987.814 45.1748C988.524 45.1748 989.1 45.7508 989.1 46.4613Z" fill="white"/>
<path d="M1192.71 46.4574C1192.71 47.1679 1192.13 47.7438 1191.42 47.7438C1190.71 47.7438 1190.13 47.1679 1190.13 46.4574C1190.13 45.7469 1190.71 45.1709 1191.42 45.1709C1192.13 45.1709 1192.71 45.7469 1192.71 46.4574Z" fill="white"/>
<path d="M1192.71 65.7845C1192.71 66.495 1192.13 67.071 1191.42 67.071C1190.71 67.071 1190.13 66.495 1190.13 65.7845C1190.13 65.074 1190.71 64.498 1191.42 64.498C1192.13 64.498 1192.71 65.074 1192.71 65.7845Z" fill="white"/>
<path d="M1192.71 85.1087C1192.71 85.8192 1192.13 86.3952 1191.42 86.3952C1190.71 86.3952 1190.13 85.8192 1190.13 85.1087C1190.13 84.3982 1190.71 83.8223 1191.42 83.8223C1192.13 83.8223 1192.71 84.3982 1192.71 85.1087Z" fill="white"/>
<path d="M1192.71 104.426C1192.71 105.137 1192.13 105.713 1191.42 105.713C1190.71 105.713 1190.13 105.137 1190.13 104.426C1190.13 103.716 1190.71 103.14 1191.42 103.14C1192.13 103.14 1192.71 103.716 1192.71 104.426Z" fill="white"/>
<path d="M1192.71 123.748C1192.71 124.459 1192.13 125.035 1191.42 125.035C1190.71 125.035 1190.13 124.459 1190.13 123.748C1190.13 123.038 1190.71 122.462 1191.42 122.462C1192.13 122.462 1192.71 123.038 1192.71 123.748Z" fill="white"/>
<path d="M1192.71 143.069C1192.71 143.779 1192.13 144.355 1191.42 144.355C1190.71 144.355 1190.13 143.779 1190.13 143.069C1190.13 142.358 1190.71 141.782 1191.42 141.782C1192.13 141.782 1192.71 142.358 1192.71 143.069Z" fill="white"/>
<path d="M1192.71 162.392C1192.71 163.102 1192.13 163.678 1191.42 163.678C1190.71 163.678 1190.13 163.102 1190.13 162.392C1190.13 161.681 1190.71 161.105 1191.42 161.105C1192.13 161.105 1192.71 161.681 1192.71 162.392Z" fill="white"/>
<path d="M989.1 9.50229C989.1 10.2128 988.524 10.7888 987.814 10.7888C987.103 10.7888 986.527 10.2128 986.527 9.50229C986.527 8.79179 987.103 8.21582 987.814 8.21582C988.524 8.21582 989.1 8.79179 989.1 9.50229Z" fill="white"/>
<path d="M1192.71 9.50229C1192.71 10.2128 1192.13 10.7888 1191.42 10.7888C1190.71 10.7888 1190.13 10.2128 1190.13 9.50229C1190.13 8.79179 1190.71 8.21582 1191.42 8.21582C1192.13 8.21582 1192.71 8.79179 1192.71 9.50229Z" fill="white"/>
<path d="M1192.71 181.714C1192.71 182.425 1192.13 183.001 1191.42 183.001C1190.71 183.001 1190.13 182.425 1190.13 181.714C1190.13 181.004 1190.71 180.428 1191.42 180.428C1192.13 180.428 1192.71 181.004 1192.71 181.714Z" fill="white"/>
<path d="M1011.78 27.1419C1011.78 27.8524 1011.21 28.4284 1010.5 28.4284C1009.79 28.4284 1009.21 27.8524 1009.21 27.1419C1009.21 26.4314 1009.79 25.8555 1010.5 25.8555C1011.21 25.8555 1011.78 26.4314 1011.78 27.1419Z" fill="white"/>
<path d="M1215.38 27.1419C1215.38 27.8524 1214.81 28.4284 1214.1 28.4284C1213.38 28.4284 1212.81 27.8524 1212.81 27.1419C1212.81 26.4314 1213.38 25.8555 1214.1 25.8555C1214.81 25.8555 1215.38 26.4314 1215.38 27.1419Z" fill="white"/>
<path d="M1011.78 46.4574C1011.78 47.1679 1011.21 47.7438 1010.5 47.7438C1009.79 47.7438 1009.21 47.1679 1009.21 46.4574C1009.21 45.7469 1009.79 45.1709 1010.5 45.1709C1011.21 45.1709 1011.78 45.7469 1011.78 46.4574Z" fill="white"/>
<path d="M1215.38 46.4574C1215.38 47.1679 1214.81 47.7438 1214.1 47.7438C1213.38 47.7438 1212.81 47.1679 1212.81 46.4574C1212.81 45.7469 1213.38 45.1709 1214.1 45.1709C1214.81 45.1709 1215.38 45.7469 1215.38 46.4574Z" fill="white"/>
<path d="M1215.38 65.7845C1215.38 66.495 1214.81 67.071 1214.1 67.071C1213.38 67.071 1212.81 66.495 1212.81 65.7845C1212.81 65.074 1213.38 64.498 1214.1 64.498C1214.81 64.498 1215.38 65.074 1215.38 65.7845Z" fill="white"/>
<path d="M1215.38 85.1087C1215.38 85.8192 1214.81 86.3952 1214.1 86.3952C1213.38 86.3952 1212.81 85.8192 1212.81 85.1087C1212.81 84.3982 1213.38 83.8223 1214.1 83.8223C1214.81 83.8223 1215.38 84.3982 1215.38 85.1087Z" fill="white"/>
<path d="M1215.38 104.426C1215.38 105.137 1214.81 105.713 1214.1 105.713C1213.38 105.713 1212.81 105.137 1212.81 104.426C1212.81 103.716 1213.38 103.14 1214.1 103.14C1214.81 103.14 1215.38 103.716 1215.38 104.426Z" fill="white"/>
<path d="M1215.38 123.748C1215.38 124.459 1214.81 125.035 1214.1 125.035C1213.38 125.035 1212.81 124.459 1212.81 123.748C1212.81 123.038 1213.38 122.462 1214.1 122.462C1214.81 122.462 1215.38 123.038 1215.38 123.748Z" fill="white"/>
<path d="M1215.38 143.069C1215.38 143.779 1214.81 144.355 1214.1 144.355C1213.38 144.355 1212.81 143.779 1212.81 143.069C1212.81 142.358 1213.38 141.782 1214.1 141.782C1214.81 141.782 1215.38 142.358 1215.38 143.069Z" fill="white"/>
<path d="M1215.38 162.392C1215.38 163.102 1214.81 163.678 1214.1 163.678C1213.38 163.678 1212.81 163.102 1212.81 162.392C1212.81 161.681 1213.38 161.105 1214.1 161.105C1214.81 161.105 1215.38 161.681 1215.38 162.392Z" fill="white"/>
<path d="M1011.78 9.50229C1011.78 10.2128 1011.21 10.7888 1010.5 10.7888C1009.79 10.7888 1009.21 10.2128 1009.21 9.50229C1009.21 8.79179 1009.79 8.21582 1010.5 8.21582C1011.21 8.21582 1011.78 8.79179 1011.78 9.50229Z" fill="white"/>
<path d="M1215.38 9.50229C1215.38 10.2128 1214.81 10.7888 1214.1 10.7888C1213.38 10.7888 1212.81 10.2128 1212.81 9.50229C1212.81 8.79179 1213.38 8.21582 1214.1 8.21582C1214.81 8.21582 1215.38 8.79179 1215.38 9.50229Z" fill="white"/>
<path d="M1215.38 181.714C1215.38 182.425 1214.81 183.001 1214.1 183.001C1213.38 183.001 1212.81 182.425 1212.81 181.714C1212.81 181.004 1213.38 180.428 1214.1 180.428C1214.81 180.428 1215.38 181.004 1215.38 181.714Z" fill="white"/>
<path d="M1034.46 27.1419C1034.46 27.8524 1033.89 28.4284 1033.18 28.4284C1032.47 28.4284 1031.89 27.8524 1031.89 27.1419C1031.89 26.4314 1032.47 25.8555 1033.18 25.8555C1033.89 25.8555 1034.46 26.4314 1034.46 27.1419Z" fill="white"/>
<path d="M1238.07 27.1419C1238.07 27.8524 1237.49 28.4284 1236.78 28.4284C1236.07 28.4284 1235.49 27.8524 1235.49 27.1419C1235.49 26.4314 1236.07 25.8555 1236.78 25.8555C1237.49 25.8555 1238.07 26.4314 1238.07 27.1419Z" fill="white"/>
<path d="M1321.51 27.1419C1321.51 27.8524 1320.94 28.4284 1320.23 28.4284C1319.52 28.4284 1318.94 27.8524 1318.94 27.1419C1318.94 26.4314 1319.52 25.8555 1320.23 25.8555C1320.94 25.8555 1321.51 26.4314 1321.51 27.1419Z" fill="white"/>
<path d="M1404.96 27.1419C1404.96 27.8524 1404.38 28.4284 1403.67 28.4284C1402.96 28.4284 1402.39 27.8524 1402.39 27.1419C1402.39 26.4314 1402.96 25.8555 1403.67 25.8555C1404.38 25.8555 1404.96 26.4314 1404.96 27.1419Z" fill="white"/>
<path d="M1034.46 46.4613C1034.46 47.1718 1033.89 47.7478 1033.18 47.7478C1032.47 47.7478 1031.89 47.1718 1031.89 46.4613C1031.89 45.7508 1032.47 45.1748 1033.18 45.1748C1033.89 45.1748 1034.46 45.7508 1034.46 46.4613Z" fill="white"/>
<path d="M1238.07 46.4613C1238.07 47.1718 1237.49 47.7478 1236.78 47.7478C1236.07 47.7478 1235.49 47.1718 1235.49 46.4613C1235.49 45.7508 1236.07 45.1748 1236.78 45.1748C1237.49 45.1748 1238.07 45.7508 1238.07 46.4613Z" fill="white"/>
<path d="M1321.51 46.4613C1321.51 47.1718 1320.94 47.7478 1320.23 47.7478C1319.52 47.7478 1318.94 47.1718 1318.94 46.4613C1318.94 45.7508 1319.52 45.1748 1320.23 45.1748C1320.94 45.1748 1321.51 45.7508 1321.51 46.4613Z" fill="white"/>
<path d="M1404.96 46.4613C1404.96 47.1718 1404.38 47.7478 1403.67 47.7478C1402.96 47.7478 1402.39 47.1718 1402.39 46.4613C1402.39 45.7508 1402.96 45.1748 1403.67 45.1748C1404.38 45.1748 1404.96 45.7508 1404.96 46.4613Z" fill="white"/>
<path d="M1034.46 65.7845C1034.46 66.495 1033.89 67.071 1033.18 67.071C1032.47 67.071 1031.89 66.495 1031.89 65.7845C1031.89 65.074 1032.47 64.498 1033.18 64.498C1033.89 64.498 1034.46 65.074 1034.46 65.7845Z" fill="white"/>
<path d="M1238.07 65.7845C1238.07 66.495 1237.49 67.071 1236.78 67.071C1236.07 67.071 1235.49 66.495 1235.49 65.7845C1235.49 65.074 1236.07 64.498 1236.78 64.498C1237.49 64.498 1238.07 65.074 1238.07 65.7845Z" fill="white"/>
<path d="M1321.51 65.7845C1321.51 66.495 1320.94 67.071 1320.23 67.071C1319.52 67.071 1318.94 66.495 1318.94 65.7845C1318.94 65.074 1319.52 64.498 1320.23 64.498C1320.94 64.498 1321.51 65.074 1321.51 65.7845Z" fill="white"/>
<path d="M1404.96 65.7845C1404.96 66.495 1404.38 67.071 1403.67 67.071C1402.96 67.071 1402.39 66.495 1402.39 65.7845C1402.39 65.074 1402.96 64.498 1403.67 64.498C1404.38 64.498 1404.96 65.074 1404.96 65.7845Z" fill="white"/>
<path d="M1034.46 85.1087C1034.46 85.8192 1033.89 86.3952 1033.18 86.3952C1032.47 86.3952 1031.89 85.8192 1031.89 85.1087C1031.89 84.3982 1032.47 83.8223 1033.18 83.8223C1033.89 83.8223 1034.46 84.3982 1034.46 85.1087Z" fill="white"/>
<path d="M1238.07 85.1087C1238.07 85.8192 1237.49 86.3952 1236.78 86.3952C1236.07 86.3952 1235.49 85.8192 1235.49 85.1087C1235.49 84.3982 1236.07 83.8223 1236.78 83.8223C1237.49 83.8223 1238.07 84.3982 1238.07 85.1087Z" fill="white"/>
<path d="M1321.51 85.1087C1321.51 85.8192 1320.94 86.3952 1320.23 86.3952C1319.52 86.3952 1318.94 85.8192 1318.94 85.1087C1318.94 84.3982 1319.52 83.8223 1320.23 83.8223C1320.94 83.8223 1321.51 84.3982 1321.51 85.1087Z" fill="white"/>
<path d="M1404.96 85.1087C1404.96 85.8192 1404.38 86.3952 1403.67 86.3952C1402.96 86.3952 1402.39 85.8192 1402.39 85.1087C1402.39 84.3982 1402.96 83.8223 1403.67 83.8223C1404.38 83.8223 1404.96 84.3982 1404.96 85.1087Z" fill="white"/>
<path d="M1034.46 104.426C1034.46 105.137 1033.89 105.713 1033.18 105.713C1032.47 105.713 1031.89 105.137 1031.89 104.426C1031.89 103.716 1032.47 103.14 1033.18 103.14C1033.89 103.14 1034.46 103.716 1034.46 104.426Z" fill="white"/>
<path d="M1238.07 104.426C1238.07 105.137 1237.49 105.713 1236.78 105.713C1236.07 105.713 1235.49 105.137 1235.49 104.426C1235.49 103.716 1236.07 103.14 1236.78 103.14C1237.49 103.14 1238.07 103.716 1238.07 104.426Z" fill="white"/>
<path d="M1321.51 104.426C1321.51 105.137 1320.94 105.713 1320.23 105.713C1319.52 105.713 1318.94 105.137 1318.94 104.426C1318.94 103.716 1319.52 103.14 1320.23 103.14C1320.94 103.14 1321.51 103.716 1321.51 104.426Z" fill="white"/>
<path d="M1404.96 104.426C1404.96 105.137 1404.38 105.713 1403.67 105.713C1402.96 105.713 1402.39 105.137 1402.39 104.426C1402.39 103.716 1402.96 103.14 1403.67 103.14C1404.38 103.14 1404.96 103.716 1404.96 104.426Z" fill="white"/>
<path d="M1034.46 123.748C1034.46 124.459 1033.89 125.035 1033.18 125.035C1032.47 125.035 1031.89 124.459 1031.89 123.748C1031.89 123.038 1032.47 122.462 1033.18 122.462C1033.89 122.462 1034.46 123.038 1034.46 123.748Z" fill="white"/>
<path d="M1238.07 123.748C1238.07 124.459 1237.49 125.035 1236.78 125.035C1236.07 125.035 1235.49 124.459 1235.49 123.748C1235.49 123.038 1236.07 122.462 1236.78 122.462C1237.49 122.462 1238.07 123.038 1238.07 123.748Z" fill="white"/>
<path d="M1321.51 123.748C1321.51 124.459 1320.94 125.035 1320.23 125.035C1319.52 125.035 1318.94 124.459 1318.94 123.748C1318.94 123.038 1319.52 122.462 1320.23 122.462C1320.94 122.462 1321.51 123.038 1321.51 123.748Z" fill="white"/>
<path d="M1404.96 123.748C1404.96 124.459 1404.38 125.035 1403.67 125.035C1402.96 125.035 1402.39 124.459 1402.39 123.748C1402.39 123.038 1402.96 122.462 1403.67 122.462C1404.38 122.462 1404.96 123.038 1404.96 123.748Z" fill="white"/>
<path d="M1034.46 143.069C1034.46 143.779 1033.89 144.355 1033.18 144.355C1032.47 144.355 1031.89 143.779 1031.89 143.069C1031.89 142.358 1032.47 141.782 1033.18 141.782C1033.89 141.782 1034.46 142.358 1034.46 143.069Z" fill="white"/>
<path d="M1238.07 143.069C1238.07 143.779 1237.49 144.355 1236.78 144.355C1236.07 144.355 1235.49 143.779 1235.49 143.069C1235.49 142.358 1236.07 141.782 1236.78 141.782C1237.49 141.782 1238.07 142.358 1238.07 143.069Z" fill="white"/>
<path d="M1321.51 143.069C1321.51 143.779 1320.94 144.355 1320.23 144.355C1319.52 144.355 1318.94 143.779 1318.94 143.069C1318.94 142.358 1319.52 141.782 1320.23 141.782C1320.94 141.782 1321.51 142.358 1321.51 143.069Z" fill="white"/>
<path d="M1404.96 143.069C1404.96 143.779 1404.38 144.355 1403.67 144.355C1402.96 144.355 1402.39 143.779 1402.39 143.069C1402.39 142.358 1402.96 141.782 1403.67 141.782C1404.38 141.782 1404.96 142.358 1404.96 143.069Z" fill="white"/>
<path d="M1034.46 162.392C1034.46 163.102 1033.89 163.678 1033.18 163.678C1032.47 163.678 1031.89 163.102 1031.89 162.392C1031.89 161.681 1032.47 161.105 1033.18 161.105C1033.89 161.105 1034.46 161.681 1034.46 162.392Z" fill="white"/>
<path d="M1238.07 162.392C1238.07 163.102 1237.49 163.678 1236.78 163.678C1236.07 163.678 1235.49 163.102 1235.49 162.392C1235.49 161.681 1236.07 161.105 1236.78 161.105C1237.49 161.105 1238.07 161.681 1238.07 162.392Z" fill="white"/>
<path d="M1321.51 162.392C1321.51 163.102 1320.94 163.678 1320.23 163.678C1319.52 163.678 1318.94 163.102 1318.94 162.392C1318.94 161.681 1319.52 161.105 1320.23 161.105C1320.94 161.105 1321.51 161.681 1321.51 162.392Z" fill="white"/>
<path d="M1404.96 162.392C1404.96 163.102 1404.38 163.678 1403.67 163.678C1402.96 163.678 1402.39 163.102 1402.39 162.392C1402.39 161.681 1402.96 161.105 1403.67 161.105C1404.38 161.105 1404.96 161.681 1404.96 162.392Z" fill="white"/>
<path d="M1034.46 9.50229C1034.46 10.2128 1033.89 10.7888 1033.18 10.7888C1032.47 10.7888 1031.89 10.2128 1031.89 9.50229C1031.89 8.79179 1032.47 8.21582 1033.18 8.21582C1033.89 8.21582 1034.46 8.79179 1034.46 9.50229Z" fill="white"/>
<path d="M1238.07 9.50229C1238.07 10.2128 1237.49 10.7888 1236.78 10.7888C1236.07 10.7888 1235.49 10.2128 1235.49 9.50229C1235.49 8.79179 1236.07 8.21582 1236.78 8.21582C1237.49 8.21582 1238.07 8.79179 1238.07 9.50229Z" fill="white"/>
<path d="M1321.51 9.50229C1321.51 10.2128 1320.94 10.7888 1320.23 10.7888C1319.52 10.7888 1318.94 10.2128 1318.94 9.50229C1318.94 8.79179 1319.52 8.21582 1320.23 8.21582C1320.94 8.21582 1321.51 8.79179 1321.51 9.50229Z" fill="white"/>
<path d="M1404.96 9.50229C1404.96 10.2128 1404.38 10.7888 1403.67 10.7888C1402.96 10.7888 1402.39 10.2128 1402.39 9.50229C1402.39 8.79179 1402.96 8.21582 1403.67 8.21582C1404.38 8.21582 1404.96 8.79179 1404.96 9.50229Z" fill="white"/>
<path d="M1238.07 181.714C1238.07 182.425 1237.49 183.001 1236.78 183.001C1236.07 183.001 1235.49 182.425 1235.49 181.714C1235.49 181.004 1236.07 180.428 1236.78 180.428C1237.49 180.428 1238.07 181.004 1238.07 181.714Z" fill="white"/>
<path d="M1321.51 181.714C1321.51 182.425 1320.94 183.001 1320.23 183.001C1319.52 183.001 1318.94 182.425 1318.94 181.714C1318.94 181.004 1319.52 180.428 1320.23 180.428C1320.94 180.428 1321.51 181.004 1321.51 181.714Z" fill="white"/>
<path d="M1404.96 181.714C1404.96 182.425 1404.38 183.001 1403.67 183.001C1402.96 183.001 1402.39 182.425 1402.39 181.714C1402.39 181.004 1402.96 180.428 1403.67 180.428C1404.38 180.428 1404.96 181.004 1404.96 181.714Z" fill="white"/>
<path d="M1057.14 27.1419C1057.14 27.8524 1056.57 28.4284 1055.86 28.4284C1055.15 28.4284 1054.57 27.8524 1054.57 27.1419C1054.57 26.4314 1055.15 25.8555 1055.86 25.8555C1056.57 25.8555 1057.14 26.4314 1057.14 27.1419Z" fill="white"/>
<path d="M1260.75 27.1419C1260.75 27.8524 1260.17 28.4284 1259.46 28.4284C1258.75 28.4284 1258.18 27.8524 1258.18 27.1419C1258.18 26.4314 1258.75 25.8555 1259.46 25.8555C1260.17 25.8555 1260.75 26.4314 1260.75 27.1419Z" fill="white"/>
<path d="M1344.19 27.1419C1344.19 27.8524 1343.62 28.4284 1342.91 28.4284C1342.2 28.4284 1341.62 27.8524 1341.62 27.1419C1341.62 26.4314 1342.2 25.8555 1342.91 25.8555C1343.62 25.8555 1344.19 26.4314 1344.19 27.1419Z" fill="white"/>
<path d="M1427.64 27.1419C1427.64 27.8524 1427.06 28.4284 1426.35 28.4284C1425.64 28.4284 1425.07 27.8524 1425.07 27.1419C1425.07 26.4314 1425.64 25.8555 1426.35 25.8555C1427.06 25.8555 1427.64 26.4314 1427.64 27.1419Z" fill="white"/>
<path d="M1057.14 46.4574C1057.14 47.1679 1056.57 47.7438 1055.86 47.7438C1055.15 47.7438 1054.57 47.1679 1054.57 46.4574C1054.57 45.7469 1055.15 45.1709 1055.86 45.1709C1056.57 45.1709 1057.14 45.7469 1057.14 46.4574Z" fill="white"/>
<path d="M1260.75 46.4613C1260.75 47.1718 1260.17 47.7478 1259.46 47.7478C1258.75 47.7478 1258.18 47.1718 1258.18 46.4613C1258.18 45.7508 1258.75 45.1748 1259.46 45.1748C1260.17 45.1748 1260.75 45.7508 1260.75 46.4613Z" fill="white"/>
<path d="M1344.19 46.4613C1344.19 47.1718 1343.62 47.7478 1342.91 47.7478C1342.2 47.7478 1341.62 47.1718 1341.62 46.4613C1341.62 45.7508 1342.2 45.1748 1342.91 45.1748C1343.62 45.1748 1344.19 45.7508 1344.19 46.4613Z" fill="white"/>
<path d="M1427.64 46.4613C1427.64 47.1718 1427.06 47.7478 1426.35 47.7478C1425.64 47.7478 1425.07 47.1718 1425.07 46.4613C1425.07 45.7508 1425.64 45.1748 1426.35 45.1748C1427.06 45.1748 1427.64 45.7508 1427.64 46.4613Z" fill="white"/>
<path d="M1057.14 65.7845C1057.14 66.495 1056.57 67.071 1055.86 67.071C1055.15 67.071 1054.57 66.495 1054.57 65.7845C1054.57 65.074 1055.15 64.498 1055.86 64.498C1056.57 64.498 1057.14 65.074 1057.14 65.7845Z" fill="white"/>
<path d="M1260.75 65.7845C1260.75 66.495 1260.17 67.071 1259.46 67.071C1258.75 67.071 1258.18 66.495 1258.18 65.7845C1258.18 65.074 1258.75 64.498 1259.46 64.498C1260.17 64.498 1260.75 65.074 1260.75 65.7845Z" fill="white"/>
<path d="M1344.19 65.7845C1344.19 66.495 1343.62 67.071 1342.91 67.071C1342.2 67.071 1341.62 66.495 1341.62 65.7845C1341.62 65.074 1342.2 64.498 1342.91 64.498C1343.62 64.498 1344.19 65.074 1344.19 65.7845Z" fill="white"/>
<path d="M1427.64 65.7845C1427.64 66.495 1427.06 67.071 1426.35 67.071C1425.64 67.071 1425.07 66.495 1425.07 65.7845C1425.07 65.074 1425.64 64.498 1426.35 64.498C1427.06 64.498 1427.64 65.074 1427.64 65.7845Z" fill="white"/>
<path d="M1057.14 85.1087C1057.14 85.8192 1056.57 86.3952 1055.86 86.3952C1055.15 86.3952 1054.57 85.8192 1054.57 85.1087C1054.57 84.3982 1055.15 83.8223 1055.86 83.8223C1056.57 83.8223 1057.14 84.3982 1057.14 85.1087Z" fill="white"/>
<path d="M1260.75 85.1087C1260.75 85.8192 1260.17 86.3952 1259.46 86.3952C1258.75 86.3952 1258.18 85.8192 1258.18 85.1087C1258.18 84.3982 1258.75 83.8223 1259.46 83.8223C1260.17 83.8223 1260.75 84.3982 1260.75 85.1087Z" fill="white"/>
<path d="M1344.19 85.1087C1344.19 85.8192 1343.62 86.3952 1342.91 86.3952C1342.2 86.3952 1341.62 85.8192 1341.62 85.1087C1341.62 84.3982 1342.2 83.8223 1342.91 83.8223C1343.62 83.8223 1344.19 84.3982 1344.19 85.1087Z" fill="white"/>
<path d="M1427.64 85.1087C1427.64 85.8192 1427.06 86.3952 1426.35 86.3952C1425.64 86.3952 1425.07 85.8192 1425.07 85.1087C1425.07 84.3982 1425.64 83.8223 1426.35 83.8223C1427.06 83.8223 1427.64 84.3982 1427.64 85.1087Z" fill="white"/>
<path d="M1057.14 104.426C1057.14 105.137 1056.57 105.713 1055.86 105.713C1055.15 105.713 1054.57 105.137 1054.57 104.426C1054.57 103.716 1055.15 103.14 1055.86 103.14C1056.57 103.14 1057.14 103.716 1057.14 104.426Z" fill="white"/>
<path d="M1260.75 104.426C1260.75 105.137 1260.17 105.713 1259.46 105.713C1258.75 105.713 1258.18 105.137 1258.18 104.426C1258.18 103.716 1258.75 103.14 1259.46 103.14C1260.17 103.14 1260.75 103.716 1260.75 104.426Z" fill="white"/>
<path d="M1344.19 104.426C1344.19 105.137 1343.62 105.713 1342.91 105.713C1342.2 105.713 1341.62 105.137 1341.62 104.426C1341.62 103.716 1342.2 103.14 1342.91 103.14C1343.62 103.14 1344.19 103.716 1344.19 104.426Z" fill="white"/>
<path d="M1427.64 104.426C1427.64 105.137 1427.06 105.713 1426.35 105.713C1425.64 105.713 1425.07 105.137 1425.07 104.426C1425.07 103.716 1425.64 103.14 1426.35 103.14C1427.06 103.14 1427.64 103.716 1427.64 104.426Z" fill="white"/>
<path d="M1057.14 123.748C1057.14 124.459 1056.57 125.035 1055.86 125.035C1055.15 125.035 1054.57 124.459 1054.57 123.748C1054.57 123.038 1055.15 122.462 1055.86 122.462C1056.57 122.462 1057.14 123.038 1057.14 123.748Z" fill="white"/>
<path d="M1260.75 123.748C1260.75 124.459 1260.17 125.035 1259.46 125.035C1258.75 125.035 1258.18 124.459 1258.18 123.748C1258.18 123.038 1258.75 122.462 1259.46 122.462C1260.17 122.462 1260.75 123.038 1260.75 123.748Z" fill="white"/>
<path d="M1344.19 123.748C1344.19 124.459 1343.62 125.035 1342.91 125.035C1342.2 125.035 1341.62 124.459 1341.62 123.748C1341.62 123.038 1342.2 122.462 1342.91 122.462C1343.62 122.462 1344.19 123.038 1344.19 123.748Z" fill="white"/>
<path d="M1427.64 123.748C1427.64 124.459 1427.06 125.035 1426.35 125.035C1425.64 125.035 1425.07 124.459 1425.07 123.748C1425.07 123.038 1425.64 122.462 1426.35 122.462C1427.06 122.462 1427.64 123.038 1427.64 123.748Z" fill="white"/>
<path d="M1057.14 143.069C1057.14 143.779 1056.57 144.355 1055.86 144.355C1055.15 144.355 1054.57 143.779 1054.57 143.069C1054.57 142.358 1055.15 141.782 1055.86 141.782C1056.57 141.782 1057.14 142.358 1057.14 143.069Z" fill="white"/>
<path d="M1260.75 143.069C1260.75 143.779 1260.17 144.355 1259.46 144.355C1258.75 144.355 1258.18 143.779 1258.18 143.069C1258.18 142.358 1258.75 141.782 1259.46 141.782C1260.17 141.782 1260.75 142.358 1260.75 143.069Z" fill="white"/>
<path d="M1344.19 143.069C1344.19 143.779 1343.62 144.355 1342.91 144.355C1342.2 144.355 1341.62 143.779 1341.62 143.069C1341.62 142.358 1342.2 141.782 1342.91 141.782C1343.62 141.782 1344.19 142.358 1344.19 143.069Z" fill="white"/>
<path d="M1427.64 143.069C1427.64 143.779 1427.06 144.355 1426.35 144.355C1425.64 144.355 1425.07 143.779 1425.07 143.069C1425.07 142.358 1425.64 141.782 1426.35 141.782C1427.06 141.782 1427.64 142.358 1427.64 143.069Z" fill="white"/>
<path d="M1057.14 162.392C1057.14 163.102 1056.57 163.678 1055.86 163.678C1055.15 163.678 1054.57 163.102 1054.57 162.392C1054.57 161.681 1055.15 161.105 1055.86 161.105C1056.57 161.105 1057.14 161.681 1057.14 162.392Z" fill="white"/>
<path d="M1260.75 162.392C1260.75 163.102 1260.17 163.678 1259.46 163.678C1258.75 163.678 1258.18 163.102 1258.18 162.392C1258.18 161.681 1258.75 161.105 1259.46 161.105C1260.17 161.105 1260.75 161.681 1260.75 162.392Z" fill="white"/>
<path d="M1344.19 162.392C1344.19 163.102 1343.62 163.678 1342.91 163.678C1342.2 163.678 1341.62 163.102 1341.62 162.392C1341.62 161.681 1342.2 161.105 1342.91 161.105C1343.62 161.105 1344.19 161.681 1344.19 162.392Z" fill="white"/>
<path d="M1427.64 162.392C1427.64 163.102 1427.06 163.678 1426.35 163.678C1425.64 163.678 1425.07 163.102 1425.07 162.392C1425.07 161.681 1425.64 161.105 1426.35 161.105C1427.06 161.105 1427.64 161.681 1427.64 162.392Z" fill="white"/>
<path d="M1057.14 9.50229C1057.14 10.2128 1056.57 10.7888 1055.86 10.7888C1055.15 10.7888 1054.57 10.2128 1054.57 9.50229C1054.57 8.79179 1055.15 8.21582 1055.86 8.21582C1056.57 8.21582 1057.14 8.79179 1057.14 9.50229Z" fill="white"/>
<path d="M1260.75 9.50229C1260.75 10.2128 1260.17 10.7888 1259.46 10.7888C1258.75 10.7888 1258.18 10.2128 1258.18 9.50229C1258.18 8.79179 1258.75 8.21582 1259.46 8.21582C1260.17 8.21582 1260.75 8.79179 1260.75 9.50229Z" fill="white"/>
<path d="M1344.19 9.50229C1344.19 10.2128 1343.62 10.7888 1342.91 10.7888C1342.2 10.7888 1341.62 10.2128 1341.62 9.50229C1341.62 8.79179 1342.2 8.21582 1342.91 8.21582C1343.62 8.21582 1344.19 8.79179 1344.19 9.50229Z" fill="white"/>
<path d="M1427.64 9.50229C1427.64 10.2128 1427.06 10.7888 1426.35 10.7888C1425.64 10.7888 1425.07 10.2128 1425.07 9.50229C1425.07 8.79179 1425.64 8.21582 1426.35 8.21582C1427.06 8.21582 1427.64 8.79179 1427.64 9.50229Z" fill="white"/>
<path d="M1260.75 181.714C1260.75 182.425 1260.17 183.001 1259.46 183.001C1258.75 183.001 1258.18 182.425 1258.18 181.714C1258.18 181.004 1258.75 180.428 1259.46 180.428C1260.17 180.428 1260.75 181.004 1260.75 181.714Z" fill="white"/>
<path d="M1344.19 181.714C1344.19 182.425 1343.62 183.001 1342.91 183.001C1342.2 183.001 1341.62 182.425 1341.62 181.714C1341.62 181.004 1342.2 180.428 1342.91 180.428C1343.62 180.428 1344.19 181.004 1344.19 181.714Z" fill="white"/>
<path d="M1427.64 181.714C1427.64 182.425 1427.06 183.001 1426.35 183.001C1425.64 183.001 1425.07 182.425 1425.07 181.714C1425.07 181.004 1425.64 180.428 1426.35 180.428C1427.06 180.428 1427.64 181.004 1427.64 181.714Z" fill="white"/>
<path d="M1079.83 27.1419C1079.83 27.8524 1079.25 28.4284 1078.54 28.4284C1077.83 28.4284 1077.25 27.8524 1077.25 27.1419C1077.25 26.4314 1077.83 25.8555 1078.54 25.8555C1079.25 25.8555 1079.83 26.4314 1079.83 27.1419Z" fill="white"/>
<path d="M1283.43 27.1419C1283.43 27.8524 1282.85 28.4284 1282.14 28.4284C1281.43 28.4284 1280.86 27.8524 1280.86 27.1419C1280.86 26.4314 1281.43 25.8555 1282.14 25.8555C1282.85 25.8555 1283.43 26.4314 1283.43 27.1419Z" fill="white"/>
<path d="M1366.88 27.1419C1366.88 27.8524 1366.3 28.4284 1365.59 28.4284C1364.88 28.4284 1364.3 27.8524 1364.3 27.1419C1364.3 26.4314 1364.88 25.8555 1365.59 25.8555C1366.3 25.8555 1366.88 26.4314 1366.88 27.1419Z" fill="white"/>
<path d="M1079.83 46.4613C1079.83 47.1718 1079.25 47.7478 1078.54 47.7478C1077.83 47.7478 1077.25 47.1718 1077.25 46.4613C1077.25 45.7508 1077.83 45.1748 1078.54 45.1748C1079.25 45.1748 1079.83 45.7508 1079.83 46.4613Z" fill="white"/>
<path d="M1283.43 46.4613C1283.43 47.1718 1282.85 47.7478 1282.14 47.7478C1281.43 47.7478 1280.86 47.1718 1280.86 46.4613C1280.86 45.7508 1281.43 45.1748 1282.14 45.1748C1282.85 45.1748 1283.43 45.7508 1283.43 46.4613Z" fill="white"/>
<path d="M1366.88 46.4613C1366.88 47.1718 1366.3 47.7478 1365.59 47.7478C1364.88 47.7478 1364.3 47.1718 1364.3 46.4613C1364.3 45.7508 1364.88 45.1748 1365.59 45.1748C1366.3 45.1748 1366.88 45.7508 1366.88 46.4613Z" fill="white"/>
<path d="M1079.83 65.7845C1079.83 66.495 1079.25 67.071 1078.54 67.071C1077.83 67.071 1077.25 66.495 1077.25 65.7845C1077.25 65.074 1077.83 64.498 1078.54 64.498C1079.25 64.498 1079.83 65.074 1079.83 65.7845Z" fill="white"/>
<path d="M1283.43 65.7845C1283.43 66.495 1282.85 67.071 1282.14 67.071C1281.43 67.071 1280.86 66.495 1280.86 65.7845C1280.86 65.074 1281.43 64.498 1282.14 64.498C1282.85 64.498 1283.43 65.074 1283.43 65.7845Z" fill="white"/>
<path d="M1366.88 65.7845C1366.88 66.495 1366.3 67.071 1365.59 67.071C1364.88 67.071 1364.3 66.495 1364.3 65.7845C1364.3 65.074 1364.88 64.498 1365.59 64.498C1366.3 64.498 1366.88 65.074 1366.88 65.7845Z" fill="white"/>
<path d="M1079.83 85.1087C1079.83 85.8192 1079.25 86.3952 1078.54 86.3952C1077.83 86.3952 1077.25 85.8192 1077.25 85.1087C1077.25 84.3982 1077.83 83.8223 1078.54 83.8223C1079.25 83.8223 1079.83 84.3982 1079.83 85.1087Z" fill="white"/>
<path d="M1283.43 85.1087C1283.43 85.8192 1282.85 86.3952 1282.14 86.3952C1281.43 86.3952 1280.86 85.8192 1280.86 85.1087C1280.86 84.3982 1281.43 83.8223 1282.14 83.8223C1282.85 83.8223 1283.43 84.3982 1283.43 85.1087Z" fill="white"/>
<path d="M1366.88 85.1087C1366.88 85.8192 1366.3 86.3952 1365.59 86.3952C1364.88 86.3952 1364.3 85.8192 1364.3 85.1087C1364.3 84.3982 1364.88 83.8223 1365.59 83.8223C1366.3 83.8223 1366.88 84.3982 1366.88 85.1087Z" fill="white"/>
<path d="M1079.83 104.426C1079.83 105.137 1079.25 105.713 1078.54 105.713C1077.83 105.713 1077.25 105.137 1077.25 104.426C1077.25 103.716 1077.83 103.14 1078.54 103.14C1079.25 103.14 1079.83 103.716 1079.83 104.426Z" fill="white"/>
<path d="M1283.43 104.426C1283.43 105.137 1282.85 105.713 1282.14 105.713C1281.43 105.713 1280.86 105.137 1280.86 104.426C1280.86 103.716 1281.43 103.14 1282.14 103.14C1282.85 103.14 1283.43 103.716 1283.43 104.426Z" fill="white"/>
<path d="M1366.88 104.426C1366.88 105.137 1366.3 105.713 1365.59 105.713C1364.88 105.713 1364.3 105.137 1364.3 104.426C1364.3 103.716 1364.88 103.14 1365.59 103.14C1366.3 103.14 1366.88 103.716 1366.88 104.426Z" fill="white"/>
<path d="M1079.83 123.748C1079.83 124.459 1079.25 125.035 1078.54 125.035C1077.83 125.035 1077.25 124.459 1077.25 123.748C1077.25 123.038 1077.83 122.462 1078.54 122.462C1079.25 122.462 1079.83 123.038 1079.83 123.748Z" fill="white"/>
<path d="M1283.43 123.748C1283.43 124.459 1282.85 125.035 1282.14 125.035C1281.43 125.035 1280.86 124.459 1280.86 123.748C1280.86 123.038 1281.43 122.462 1282.14 122.462C1282.85 122.462 1283.43 123.038 1283.43 123.748Z" fill="white"/>
<path d="M1366.88 123.748C1366.88 124.459 1366.3 125.035 1365.59 125.035C1364.88 125.035 1364.3 124.459 1364.3 123.748C1364.3 123.038 1364.88 122.462 1365.59 122.462C1366.3 122.462 1366.88 123.038 1366.88 123.748Z" fill="white"/>
<path d="M1079.83 143.069C1079.83 143.779 1079.25 144.355 1078.54 144.355C1077.83 144.355 1077.25 143.779 1077.25 143.069C1077.25 142.358 1077.83 141.782 1078.54 141.782C1079.25 141.782 1079.83 142.358 1079.83 143.069Z" fill="white"/>
<path d="M1283.43 143.069C1283.43 143.779 1282.85 144.355 1282.14 144.355C1281.43 144.355 1280.86 143.779 1280.86 143.069C1280.86 142.358 1281.43 141.782 1282.14 141.782C1282.85 141.782 1283.43 142.358 1283.43 143.069Z" fill="white"/>
<path d="M1366.88 143.069C1366.88 143.779 1366.3 144.355 1365.59 144.355C1364.88 144.355 1364.3 143.779 1364.3 143.069C1364.3 142.358 1364.88 141.782 1365.59 141.782C1366.3 141.782 1366.88 142.358 1366.88 143.069Z" fill="white"/>
<path d="M1079.83 162.392C1079.83 163.102 1079.25 163.678 1078.54 163.678C1077.83 163.678 1077.25 163.102 1077.25 162.392C1077.25 161.681 1077.83 161.105 1078.54 161.105C1079.25 161.105 1079.83 161.681 1079.83 162.392Z" fill="white"/>
<path d="M1283.43 162.392C1283.43 163.102 1282.85 163.678 1282.14 163.678C1281.43 163.678 1280.86 163.102 1280.86 162.392C1280.86 161.681 1281.43 161.105 1282.14 161.105C1282.85 161.105 1283.43 161.681 1283.43 162.392Z" fill="white"/>
<path d="M1366.88 162.392C1366.88 163.102 1366.3 163.678 1365.59 163.678C1364.88 163.678 1364.3 163.102 1364.3 162.392C1364.3 161.681 1364.88 161.105 1365.59 161.105C1366.3 161.105 1366.88 161.681 1366.88 162.392Z" fill="white"/>
<path d="M1079.83 9.50229C1079.83 10.2128 1079.25 10.7888 1078.54 10.7888C1077.83 10.7888 1077.25 10.2128 1077.25 9.50229C1077.25 8.79179 1077.83 8.21582 1078.54 8.21582C1079.25 8.21582 1079.83 8.79179 1079.83 9.50229Z" fill="white"/>
<path d="M1283.43 9.50229C1283.43 10.2128 1282.85 10.7888 1282.14 10.7888C1281.43 10.7888 1280.86 10.2128 1280.86 9.50229C1280.86 8.79179 1281.43 8.21582 1282.14 8.21582C1282.85 8.21582 1283.43 8.79179 1283.43 9.50229Z" fill="white"/>
<path d="M1366.88 9.50229C1366.88 10.2128 1366.3 10.7888 1365.59 10.7888C1364.88 10.7888 1364.3 10.2128 1364.3 9.50229C1364.3 8.79179 1364.88 8.21582 1365.59 8.21582C1366.3 8.21582 1366.88 8.79179 1366.88 9.50229Z" fill="white"/>
<path d="M1283.43 181.714C1283.43 182.425 1282.85 183.001 1282.14 183.001C1281.43 183.001 1280.86 182.425 1280.86 181.714C1280.86 181.004 1281.43 180.428 1282.14 180.428C1282.85 180.428 1283.43 181.004 1283.43 181.714Z" fill="white"/>
<path d="M1366.88 181.714C1366.88 182.425 1366.3 183.001 1365.59 183.001C1364.88 183.001 1364.3 182.425 1364.3 181.714C1364.3 181.004 1364.88 180.428 1365.59 180.428C1366.3 180.428 1366.88 181.004 1366.88 181.714Z" fill="white"/>
<path d="M1102.51 27.1419C1102.51 27.8524 1101.94 28.4284 1101.23 28.4284C1100.52 28.4284 1099.94 27.8524 1099.94 27.1419C1099.94 26.4314 1100.52 25.8555 1101.23 25.8555C1101.94 25.8555 1102.51 26.4314 1102.51 27.1419Z" fill="white"/>
<path d="M1306.11 27.1419C1306.11 27.8524 1305.54 28.4284 1304.83 28.4284C1304.12 28.4284 1303.54 27.8524 1303.54 27.1419C1303.54 26.4314 1304.12 25.8555 1304.83 25.8555C1305.54 25.8555 1306.11 26.4314 1306.11 27.1419Z" fill="white"/>
<path d="M1389.56 27.1419C1389.56 27.8524 1388.98 28.4284 1388.27 28.4284C1387.56 28.4284 1386.98 27.8524 1386.98 27.1419C1386.98 26.4314 1387.56 25.8555 1388.27 25.8555C1388.98 25.8555 1389.56 26.4314 1389.56 27.1419Z" fill="white"/>
<path d="M1102.51 46.4574C1102.51 47.1679 1101.94 47.7438 1101.23 47.7438C1100.52 47.7438 1099.94 47.1679 1099.94 46.4574C1099.94 45.7469 1100.52 45.1709 1101.23 45.1709C1101.94 45.1709 1102.51 45.7469 1102.51 46.4574Z" fill="white"/>
<path d="M1306.11 46.4613C1306.11 47.1718 1305.54 47.7478 1304.83 47.7478C1304.12 47.7478 1303.54 47.1718 1303.54 46.4613C1303.54 45.7508 1304.12 45.1748 1304.83 45.1748C1305.54 45.1748 1306.11 45.7508 1306.11 46.4613Z" fill="white"/>
<path d="M1389.56 46.4613C1389.56 47.1718 1388.98 47.7478 1388.27 47.7478C1387.56 47.7478 1386.98 47.1718 1386.98 46.4613C1386.98 45.7508 1387.56 45.1748 1388.27 45.1748C1388.98 45.1748 1389.56 45.7508 1389.56 46.4613Z" fill="white"/>
<path d="M1102.51 65.7845C1102.51 66.495 1101.94 67.071 1101.23 67.071C1100.52 67.071 1099.94 66.495 1099.94 65.7845C1099.94 65.074 1100.52 64.498 1101.23 64.498C1101.94 64.498 1102.51 65.074 1102.51 65.7845Z" fill="white"/>
<path d="M1306.11 65.7845C1306.11 66.495 1305.54 67.071 1304.83 67.071C1304.12 67.071 1303.54 66.495 1303.54 65.7845C1303.54 65.074 1304.12 64.498 1304.83 64.498C1305.54 64.498 1306.11 65.074 1306.11 65.7845Z" fill="white"/>
<path d="M1389.56 65.7845C1389.56 66.495 1388.98 67.071 1388.27 67.071C1387.56 67.071 1386.98 66.495 1386.98 65.7845C1386.98 65.074 1387.56 64.498 1388.27 64.498C1388.98 64.498 1389.56 65.074 1389.56 65.7845Z" fill="white"/>
<path d="M1102.51 85.1087C1102.51 85.8192 1101.94 86.3952 1101.23 86.3952C1100.52 86.3952 1099.94 85.8192 1099.94 85.1087C1099.94 84.3982 1100.52 83.8223 1101.23 83.8223C1101.94 83.8223 1102.51 84.3982 1102.51 85.1087Z" fill="white"/>
<path d="M1306.11 85.1087C1306.11 85.8192 1305.54 86.3952 1304.83 86.3952C1304.12 86.3952 1303.54 85.8192 1303.54 85.1087C1303.54 84.3982 1304.12 83.8223 1304.83 83.8223C1305.54 83.8223 1306.11 84.3982 1306.11 85.1087Z" fill="white"/>
<path d="M1389.56 85.1087C1389.56 85.8192 1388.98 86.3952 1388.27 86.3952C1387.56 86.3952 1386.98 85.8192 1386.98 85.1087C1386.98 84.3982 1387.56 83.8223 1388.27 83.8223C1388.98 83.8223 1389.56 84.3982 1389.56 85.1087Z" fill="white"/>
<path d="M1102.51 104.426C1102.51 105.137 1101.94 105.713 1101.23 105.713C1100.52 105.713 1099.94 105.137 1099.94 104.426C1099.94 103.716 1100.52 103.14 1101.23 103.14C1101.94 103.14 1102.51 103.716 1102.51 104.426Z" fill="white"/>
<path d="M1306.11 104.426C1306.11 105.137 1305.54 105.713 1304.83 105.713C1304.12 105.713 1303.54 105.137 1303.54 104.426C1303.54 103.716 1304.12 103.14 1304.83 103.14C1305.54 103.14 1306.11 103.716 1306.11 104.426Z" fill="white"/>
<path d="M1389.56 104.426C1389.56 105.137 1388.98 105.713 1388.27 105.713C1387.56 105.713 1386.98 105.137 1386.98 104.426C1386.98 103.716 1387.56 103.14 1388.27 103.14C1388.98 103.14 1389.56 103.716 1389.56 104.426Z" fill="white"/>
<path d="M1102.51 123.748C1102.51 124.459 1101.94 125.035 1101.23 125.035C1100.52 125.035 1099.94 124.459 1099.94 123.748C1099.94 123.038 1100.52 122.462 1101.23 122.462C1101.94 122.462 1102.51 123.038 1102.51 123.748Z" fill="white"/>
<path d="M1306.11 123.748C1306.11 124.459 1305.54 125.035 1304.83 125.035C1304.12 125.035 1303.54 124.459 1303.54 123.748C1303.54 123.038 1304.12 122.462 1304.83 122.462C1305.54 122.462 1306.11 123.038 1306.11 123.748Z" fill="white"/>
<path d="M1389.56 123.748C1389.56 124.459 1388.98 125.035 1388.27 125.035C1387.56 125.035 1386.98 124.459 1386.98 123.748C1386.98 123.038 1387.56 122.462 1388.27 122.462C1388.98 122.462 1389.56 123.038 1389.56 123.748Z" fill="white"/>
<path d="M1102.51 143.069C1102.51 143.779 1101.94 144.355 1101.23 144.355C1100.52 144.355 1099.94 143.779 1099.94 143.069C1099.94 142.358 1100.52 141.782 1101.23 141.782C1101.94 141.782 1102.51 142.358 1102.51 143.069Z" fill="white"/>
<path d="M1306.11 143.069C1306.11 143.779 1305.54 144.355 1304.83 144.355C1304.12 144.355 1303.54 143.779 1303.54 143.069C1303.54 142.358 1304.12 141.782 1304.83 141.782C1305.54 141.782 1306.11 142.358 1306.11 143.069Z" fill="white"/>
<path d="M1389.56 143.069C1389.56 143.779 1388.98 144.355 1388.27 144.355C1387.56 144.355 1386.98 143.779 1386.98 143.069C1386.98 142.358 1387.56 141.782 1388.27 141.782C1388.98 141.782 1389.56 142.358 1389.56 143.069Z" fill="white"/>
<path d="M1102.51 162.392C1102.51 163.102 1101.94 163.678 1101.23 163.678C1100.52 163.678 1099.94 163.102 1099.94 162.392C1099.94 161.681 1100.52 161.105 1101.23 161.105C1101.94 161.105 1102.51 161.681 1102.51 162.392Z" fill="white"/>
<path d="M1306.11 162.392C1306.11 163.102 1305.54 163.678 1304.83 163.678C1304.12 163.678 1303.54 163.102 1303.54 162.392C1303.54 161.681 1304.12 161.105 1304.83 161.105C1305.54 161.105 1306.11 161.681 1306.11 162.392Z" fill="white"/>
<path d="M1389.56 162.392C1389.56 163.102 1388.98 163.678 1388.27 163.678C1387.56 163.678 1386.98 163.102 1386.98 162.392C1386.98 161.681 1387.56 161.105 1388.27 161.105C1388.98 161.105 1389.56 161.681 1389.56 162.392Z" fill="white"/>
<path d="M1102.51 9.50229C1102.51 10.2128 1101.94 10.7888 1101.23 10.7888C1100.52 10.7888 1099.94 10.2128 1099.94 9.50229C1099.94 8.79179 1100.52 8.21582 1101.23 8.21582C1101.94 8.21582 1102.51 8.79179 1102.51 9.50229Z" fill="white"/>
<path d="M1306.11 9.50229C1306.11 10.2128 1305.54 10.7888 1304.83 10.7888C1304.12 10.7888 1303.54 10.2128 1303.54 9.50229C1303.54 8.79179 1304.12 8.21582 1304.83 8.21582C1305.54 8.21582 1306.11 8.79179 1306.11 9.50229Z" fill="white"/>
<path d="M1389.56 9.50229C1389.56 10.2128 1388.98 10.7888 1388.27 10.7888C1387.56 10.7888 1386.98 10.2128 1386.98 9.50229C1386.98 8.79179 1387.56 8.21582 1388.27 8.21582C1388.98 8.21582 1389.56 8.79179 1389.56 9.50229Z" fill="white"/>
<path d="M1102.51 181.714C1102.51 182.425 1101.94 183.001 1101.23 183.001C1100.52 183.001 1099.94 182.425 1099.94 181.714C1099.94 181.004 1100.52 180.428 1101.23 180.428C1101.94 180.428 1102.51 181.004 1102.51 181.714Z" fill="white"/>
<path d="M1306.11 181.714C1306.11 182.425 1305.54 183.001 1304.83 183.001C1304.12 183.001 1303.54 182.425 1303.54 181.714C1303.54 181.004 1304.12 180.428 1304.83 180.428C1305.54 180.428 1306.11 181.004 1306.11 181.714Z" fill="white"/>
<path d="M1389.56 181.714C1389.56 182.425 1388.98 183.001 1388.27 183.001C1387.56 183.001 1386.98 182.425 1386.98 181.714C1386.98 181.004 1387.56 180.428 1388.27 180.428C1388.98 180.428 1389.56 181.004 1389.56 181.714Z" fill="white"/>
</g>
<g opacity="0.3">
<circle cx="55.4971" cy="229.946" r="0.946314" fill="#4EC6D0"/>
<circle cx="55.4971" cy="244.167" r="0.946314" fill="#4EC6D0"/>
<circle cx="55.4971" cy="258.389" r="0.946314" fill="#4EC6D0"/>
<circle cx="55.4971" cy="385.142" r="0.946314" fill="#4EC6D0"/>
<circle cx="55.4971" cy="272.609" r="0.946314" fill="#4EC6D0"/>
<circle cx="55.4971" cy="399.363" r="0.946314" fill="#4EC6D0"/>
<circle cx="55.4971" cy="286.831" r="0.946314" fill="#4EC6D0"/>
<circle cx="55.4971" cy="413.584" r="0.946314" fill="#4EC6D0"/>
<circle cx="55.4971" cy="301.052" r="0.946314" fill="#4EC6D0"/>
<circle cx="55.4971" cy="427.805" r="0.946314" fill="#4EC6D0"/>
<circle cx="55.4971" cy="315.273" r="0.946314" fill="#4EC6D0"/>
<circle cx="55.4971" cy="442.026" r="0.946314" fill="#4EC6D0"/>
<circle cx="55.4971" cy="329.494" r="0.946314" fill="#4EC6D0"/>
<circle cx="55.4971" cy="456.247" r="0.946314" fill="#4EC6D0"/>
<circle cx="55.4971" cy="343.715" r="0.946314" fill="#4EC6D0"/>
<circle cx="55.4971" cy="470.469" r="0.946314" fill="#4EC6D0"/>
<circle cx="55.4971" cy="357.937" r="0.946314" fill="#4EC6D0"/>
<circle cx="55.4971" cy="484.689" r="0.946314" fill="#4EC6D0"/>
<circle cx="55.4971" cy="372.157" r="0.946314" fill="#4EC6D0"/>
<circle cx="55.4971" cy="498.911" r="0.946314" fill="#4EC6D0"/>
<circle cx="72.1924" cy="229.946" r="0.946314" fill="#4EC6D0"/>
<circle cx="72.1924" cy="244.167" r="0.946314" fill="#4EC6D0"/>
<circle cx="72.1924" cy="258.389" r="0.946314" fill="#4EC6D0"/>
<circle cx="72.1924" cy="385.142" r="0.946314" fill="#4EC6D0"/>
<circle cx="72.1924" cy="272.609" r="0.946314" fill="#4EC6D0"/>
<circle cx="72.1924" cy="399.363" r="0.946314" fill="#4EC6D0"/>
<circle cx="72.1924" cy="286.831" r="0.946314" fill="#4EC6D0"/>
<circle cx="72.1924" cy="413.584" r="0.946314" fill="#4EC6D0"/>
<circle cx="72.1924" cy="301.052" r="0.946314" fill="#4EC6D0"/>
<circle cx="72.1924" cy="427.805" r="0.946314" fill="#4EC6D0"/>
<circle cx="72.1924" cy="315.273" r="0.946314" fill="#4EC6D0"/>
<circle cx="72.1924" cy="442.026" r="0.946314" fill="#4EC6D0"/>
<circle cx="72.1924" cy="329.494" r="0.946314" fill="#4EC6D0"/>
<circle cx="72.1924" cy="456.247" r="0.946314" fill="#4EC6D0"/>
<circle cx="72.1924" cy="343.715" r="0.946314" fill="#4EC6D0"/>
<circle cx="72.1924" cy="470.469" r="0.946314" fill="#4EC6D0"/>
<circle cx="72.1924" cy="357.937" r="0.946314" fill="#4EC6D0"/>
<circle cx="72.1924" cy="484.689" r="0.946314" fill="#4EC6D0"/>
<circle cx="72.1924" cy="372.157" r="0.946314" fill="#4EC6D0"/>
<circle cx="72.1924" cy="498.911" r="0.946314" fill="#4EC6D0"/>
<circle cx="88.8838" cy="229.946" r="0.946314" fill="#4EC6D0"/>
<circle cx="88.8838" cy="244.167" r="0.946314" fill="#4EC6D0"/>
<circle cx="88.8838" cy="258.389" r="0.946314" fill="#4EC6D0"/>
<circle cx="88.8838" cy="385.142" r="0.946314" fill="#4EC6D0"/>
<circle cx="88.8838" cy="272.609" r="0.946314" fill="#4EC6D0"/>
<circle cx="88.8838" cy="399.363" r="0.946314" fill="#4EC6D0"/>
<circle cx="88.8838" cy="286.831" r="0.946314" fill="#4EC6D0"/>
<circle cx="88.8838" cy="413.584" r="0.946314" fill="#4EC6D0"/>
<circle cx="88.8838" cy="301.052" r="0.946314" fill="#4EC6D0"/>
<circle cx="88.8838" cy="427.805" r="0.946314" fill="#4EC6D0"/>
<circle cx="88.8838" cy="315.273" r="0.946314" fill="#4EC6D0"/>
<circle cx="88.8838" cy="442.026" r="0.946314" fill="#4EC6D0"/>
<circle cx="88.8838" cy="329.494" r="0.946314" fill="#4EC6D0"/>
<circle cx="88.8838" cy="456.247" r="0.946314" fill="#4EC6D0"/>
<circle cx="88.8838" cy="343.715" r="0.946314" fill="#4EC6D0"/>
<circle cx="88.8838" cy="470.469" r="0.946314" fill="#4EC6D0"/>
<circle cx="88.8838" cy="357.937" r="0.946314" fill="#4EC6D0"/>
<circle cx="88.8838" cy="484.689" r="0.946314" fill="#4EC6D0"/>
<circle cx="88.8838" cy="372.157" r="0.946314" fill="#4EC6D0"/>
<circle cx="88.8838" cy="498.911" r="0.946314" fill="#4EC6D0"/>
<circle cx="105.583" cy="229.946" r="0.946314" fill="#4EC6D0"/>
<circle cx="105.583" cy="244.167" r="0.946314" fill="#4EC6D0"/>
<circle cx="105.583" cy="258.389" r="0.946314" fill="#4EC6D0"/>
<circle cx="105.583" cy="385.142" r="0.946314" fill="#4EC6D0"/>
<circle cx="105.583" cy="272.609" r="0.946314" fill="#4EC6D0"/>
<circle cx="105.583" cy="399.363" r="0.946314" fill="#4EC6D0"/>
<circle cx="105.583" cy="286.831" r="0.946314" fill="#4EC6D0"/>
<circle cx="105.583" cy="413.584" r="0.946314" fill="#4EC6D0"/>
<circle cx="105.583" cy="301.052" r="0.946314" fill="#4EC6D0"/>
<circle cx="105.583" cy="427.805" r="0.946314" fill="#4EC6D0"/>
<circle cx="105.583" cy="315.273" r="0.946314" fill="#4EC6D0"/>
<circle cx="105.583" cy="442.026" r="0.946314" fill="#4EC6D0"/>
<circle cx="105.583" cy="329.494" r="0.946314" fill="#4EC6D0"/>
<circle cx="105.583" cy="456.247" r="0.946314" fill="#4EC6D0"/>
<circle cx="105.583" cy="343.715" r="0.946314" fill="#4EC6D0"/>
<circle cx="105.583" cy="470.469" r="0.946314" fill="#4EC6D0"/>
<circle cx="105.583" cy="357.937" r="0.946314" fill="#4EC6D0"/>
<circle cx="105.583" cy="484.689" r="0.946314" fill="#4EC6D0"/>
<circle cx="105.583" cy="372.157" r="0.946314" fill="#4EC6D0"/>
<circle cx="105.583" cy="498.911" r="0.946314" fill="#4EC6D0"/>
<circle cx="122.274" cy="229.946" r="0.946314" fill="#4EC6D0"/>
<circle cx="122.274" cy="244.167" r="0.946314" fill="#4EC6D0"/>
<circle cx="122.274" cy="258.389" r="0.946314" fill="#4EC6D0"/>
<circle cx="122.274" cy="385.142" r="0.946314" fill="#4EC6D0"/>
<circle cx="122.274" cy="272.609" r="0.946314" fill="#4EC6D0"/>
<circle cx="122.274" cy="399.363" r="0.946314" fill="#4EC6D0"/>
<circle cx="122.274" cy="286.831" r="0.946314" fill="#4EC6D0"/>
<circle cx="122.274" cy="413.584" r="0.946314" fill="#4EC6D0"/>
<circle cx="122.274" cy="301.052" r="0.946314" fill="#4EC6D0"/>
<circle cx="122.274" cy="427.805" r="0.946314" fill="#4EC6D0"/>
<circle cx="122.274" cy="315.273" r="0.946314" fill="#4EC6D0"/>
<circle cx="122.274" cy="442.026" r="0.946314" fill="#4EC6D0"/>
<circle cx="122.274" cy="329.494" r="0.946314" fill="#4EC6D0"/>
<circle cx="122.274" cy="456.247" r="0.946314" fill="#4EC6D0"/>
<circle cx="122.274" cy="343.715" r="0.946314" fill="#4EC6D0"/>
<circle cx="122.274" cy="470.469" r="0.946314" fill="#4EC6D0"/>
<circle cx="122.274" cy="357.937" r="0.946314" fill="#4EC6D0"/>
<circle cx="122.274" cy="484.689" r="0.946314" fill="#4EC6D0"/>
<circle cx="122.274" cy="372.157" r="0.946314" fill="#4EC6D0"/>
<circle cx="122.274" cy="498.911" r="0.946314" fill="#4EC6D0"/>
<circle cx="138.97" cy="229.946" r="0.946314" fill="#4EC6D0"/>
<circle cx="138.97" cy="244.167" r="0.946314" fill="#4EC6D0"/>
<circle cx="138.97" cy="258.389" r="0.946314" fill="#4EC6D0"/>
<circle cx="138.97" cy="385.142" r="0.946314" fill="#4EC6D0"/>
<circle cx="138.97" cy="272.609" r="0.946314" fill="#4EC6D0"/>
<circle cx="138.97" cy="399.363" r="0.946314" fill="#4EC6D0"/>
<circle cx="138.97" cy="286.831" r="0.946314" fill="#4EC6D0"/>
<circle cx="138.97" cy="413.584" r="0.946314" fill="#4EC6D0"/>
<circle cx="138.97" cy="301.052" r="0.946314" fill="#4EC6D0"/>
<circle cx="138.97" cy="427.805" r="0.946314" fill="#4EC6D0"/>
<circle cx="138.97" cy="315.273" r="0.946314" fill="#4EC6D0"/>
<circle cx="138.97" cy="442.026" r="0.946314" fill="#4EC6D0"/>
<circle cx="138.97" cy="329.494" r="0.946314" fill="#4EC6D0"/>
<circle cx="138.97" cy="456.247" r="0.946314" fill="#4EC6D0"/>
<circle cx="138.97" cy="343.715" r="0.946314" fill="#4EC6D0"/>
<circle cx="138.97" cy="470.469" r="0.946314" fill="#4EC6D0"/>
<circle cx="138.97" cy="357.937" r="0.946314" fill="#4EC6D0"/>
<circle cx="138.97" cy="484.689" r="0.946314" fill="#4EC6D0"/>
<circle cx="138.97" cy="372.157" r="0.946314" fill="#4EC6D0"/>
<circle cx="138.97" cy="498.911" r="0.946314" fill="#4EC6D0"/>
<circle cx="5.80569" cy="229.946" r="0.946314" fill="#4EC6D0"/>
<circle cx="155.665" cy="229.946" r="0.946314" fill="#4EC6D0"/>
<circle cx="5.80569" cy="244.167" r="0.946314" fill="#4EC6D0"/>
<circle cx="155.665" cy="244.167" r="0.946314" fill="#4EC6D0"/>
<circle cx="5.80569" cy="258.389" r="0.946314" fill="#4EC6D0"/>
<circle cx="155.665" cy="258.389" r="0.946314" fill="#4EC6D0"/>
<circle cx="5.80569" cy="385.142" r="0.946314" fill="#4EC6D0"/>
<circle cx="155.665" cy="385.142" r="0.946314" fill="#4EC6D0"/>
<circle cx="5.80569" cy="272.609" r="0.946314" fill="#4EC6D0"/>
<circle cx="155.665" cy="272.609" r="0.946314" fill="#4EC6D0"/>
<circle cx="5.80569" cy="399.363" r="0.946314" fill="#4EC6D0"/>
<circle cx="155.665" cy="399.363" r="0.946314" fill="#4EC6D0"/>
<circle cx="5.80569" cy="286.831" r="0.946314" fill="#4EC6D0"/>
<circle cx="155.665" cy="286.831" r="0.946314" fill="#4EC6D0"/>
<circle cx="5.80569" cy="413.584" r="0.946314" fill="#4EC6D0"/>
<circle cx="155.665" cy="413.584" r="0.946314" fill="#4EC6D0"/>
<circle cx="5.80569" cy="301.052" r="0.946314" fill="#4EC6D0"/>
<circle cx="155.665" cy="301.052" r="0.946314" fill="#4EC6D0"/>
<circle cx="5.80569" cy="427.805" r="0.946314" fill="#4EC6D0"/>
<circle cx="155.665" cy="427.805" r="0.946314" fill="#4EC6D0"/>
<circle cx="5.80569" cy="315.273" r="0.946314" fill="#4EC6D0"/>
<circle cx="155.665" cy="315.273" r="0.946314" fill="#4EC6D0"/>
<circle cx="5.80569" cy="442.026" r="0.946314" fill="#4EC6D0"/>
<circle cx="155.665" cy="442.026" r="0.946314" fill="#4EC6D0"/>
<circle cx="5.80569" cy="329.494" r="0.946314" fill="#4EC6D0"/>
<circle cx="155.665" cy="329.494" r="0.946314" fill="#4EC6D0"/>
<circle cx="5.80569" cy="456.247" r="0.946314" fill="#4EC6D0"/>
<circle cx="155.665" cy="456.247" r="0.946314" fill="#4EC6D0"/>
<circle cx="5.80569" cy="343.715" r="0.946314" fill="#4EC6D0"/>
<circle cx="155.665" cy="343.715" r="0.946314" fill="#4EC6D0"/>
<circle cx="5.80569" cy="470.469" r="0.946314" fill="#4EC6D0"/>
<circle cx="155.665" cy="470.469" r="0.946314" fill="#4EC6D0"/>
<circle cx="5.80569" cy="357.937" r="0.946314" fill="#4EC6D0"/>
<circle cx="155.665" cy="357.937" r="0.946314" fill="#4EC6D0"/>
<circle cx="5.80569" cy="484.689" r="0.946314" fill="#4EC6D0"/>
<circle cx="155.665" cy="484.689" r="0.946314" fill="#4EC6D0"/>
<circle cx="5.80569" cy="372.157" r="0.946314" fill="#4EC6D0"/>
<circle cx="155.665" cy="372.157" r="0.946314" fill="#4EC6D0"/>
<circle cx="5.80569" cy="498.911" r="0.946314" fill="#4EC6D0"/>
<circle cx="155.665" cy="498.911" r="0.946314" fill="#4EC6D0"/>
<circle cx="22.501" cy="229.946" r="0.946314" fill="#4EC6D0"/>
<circle cx="172.36" cy="229.946" r="0.946314" fill="#4EC6D0"/>
<circle cx="22.501" cy="244.167" r="0.946314" fill="#4EC6D0"/>
<circle cx="172.36" cy="244.167" r="0.946314" fill="#4EC6D0"/>
<circle cx="22.501" cy="258.389" r="0.946314" fill="#4EC6D0"/>
<circle cx="172.36" cy="258.389" r="0.946314" fill="#4EC6D0"/>
<circle cx="22.501" cy="385.142" r="0.946314" fill="#4EC6D0"/>
<circle cx="172.36" cy="385.142" r="0.946314" fill="#4EC6D0"/>
<circle cx="22.501" cy="272.609" r="0.946314" fill="#4EC6D0"/>
<circle cx="172.36" cy="272.609" r="0.946314" fill="#4EC6D0"/>
<circle cx="22.501" cy="399.363" r="0.946314" fill="#4EC6D0"/>
<circle cx="172.36" cy="399.363" r="0.946314" fill="#4EC6D0"/>
<circle cx="22.501" cy="286.831" r="0.946314" fill="#4EC6D0"/>
<circle cx="172.36" cy="286.831" r="0.946314" fill="#4EC6D0"/>
<circle cx="22.501" cy="413.584" r="0.946314" fill="#4EC6D0"/>
<circle cx="172.36" cy="413.584" r="0.946314" fill="#4EC6D0"/>
<circle cx="22.501" cy="301.052" r="0.946314" fill="#4EC6D0"/>
<circle cx="172.36" cy="301.052" r="0.946314" fill="#4EC6D0"/>
<circle cx="22.501" cy="427.805" r="0.946314" fill="#4EC6D0"/>
<circle cx="172.36" cy="427.805" r="0.946314" fill="#4EC6D0"/>
<circle cx="22.501" cy="315.273" r="0.946314" fill="#4EC6D0"/>
<circle cx="172.36" cy="315.273" r="0.946314" fill="#4EC6D0"/>
<circle cx="22.501" cy="442.026" r="0.946314" fill="#4EC6D0"/>
<circle cx="172.36" cy="442.026" r="0.946314" fill="#4EC6D0"/>
<circle cx="22.501" cy="329.494" r="0.946314" fill="#4EC6D0"/>
<circle cx="172.36" cy="329.494" r="0.946314" fill="#4EC6D0"/>
<circle cx="22.501" cy="456.247" r="0.946314" fill="#4EC6D0"/>
<circle cx="172.36" cy="456.247" r="0.946314" fill="#4EC6D0"/>
<circle cx="22.501" cy="343.715" r="0.946314" fill="#4EC6D0"/>
<circle cx="172.36" cy="343.715" r="0.946314" fill="#4EC6D0"/>
<circle cx="22.501" cy="470.469" r="0.946314" fill="#4EC6D0"/>
<circle cx="172.36" cy="470.469" r="0.946314" fill="#4EC6D0"/>
<circle cx="22.501" cy="357.937" r="0.946314" fill="#4EC6D0"/>
<circle cx="172.36" cy="357.937" r="0.946314" fill="#4EC6D0"/>
<circle cx="22.501" cy="484.689" r="0.946314" fill="#4EC6D0"/>
<circle cx="172.36" cy="484.689" r="0.946314" fill="#4EC6D0"/>
<circle cx="22.501" cy="372.157" r="0.946314" fill="#4EC6D0"/>
<circle cx="172.36" cy="372.157" r="0.946314" fill="#4EC6D0"/>
<circle cx="22.501" cy="498.911" r="0.946314" fill="#4EC6D0"/>
<circle cx="172.36" cy="498.911" r="0.946314" fill="#4EC6D0"/>
<circle cx="39.1963" cy="229.946" r="0.946314" fill="#4EC6D0"/>
<circle cx="189.056" cy="229.946" r="0.946314" fill="#4EC6D0"/>
<circle cx="39.1963" cy="244.167" r="0.946314" fill="#4EC6D0"/>
<circle cx="189.056" cy="244.167" r="0.946314" fill="#4EC6D0"/>
<circle cx="39.1963" cy="258.389" r="0.946314" fill="#4EC6D0"/>
<circle cx="189.056" cy="258.389" r="0.946314" fill="#4EC6D0"/>
<circle cx="39.1963" cy="385.142" r="0.946314" fill="#4EC6D0"/>
<circle cx="189.056" cy="385.142" r="0.946314" fill="#4EC6D0"/>
<circle cx="39.1963" cy="272.609" r="0.946314" fill="#4EC6D0"/>
<circle cx="189.056" cy="272.609" r="0.946314" fill="#4EC6D0"/>
<circle cx="39.1963" cy="399.363" r="0.946314" fill="#4EC6D0"/>
<circle cx="189.056" cy="399.363" r="0.946314" fill="#4EC6D0"/>
<circle cx="39.1963" cy="286.831" r="0.946314" fill="#4EC6D0"/>
<circle cx="189.056" cy="286.831" r="0.946314" fill="#4EC6D0"/>
<circle cx="39.1963" cy="413.584" r="0.946314" fill="#4EC6D0"/>
<circle cx="189.056" cy="413.584" r="0.946314" fill="#4EC6D0"/>
<circle cx="39.1963" cy="301.052" r="0.946314" fill="#4EC6D0"/>
<circle cx="189.056" cy="301.052" r="0.946314" fill="#4EC6D0"/>
<circle cx="39.1963" cy="427.805" r="0.946314" fill="#4EC6D0"/>
<circle cx="189.056" cy="427.805" r="0.946314" fill="#4EC6D0"/>
<circle cx="39.1963" cy="315.273" r="0.946314" fill="#4EC6D0"/>
<circle cx="189.056" cy="315.273" r="0.946314" fill="#4EC6D0"/>
<circle cx="39.1963" cy="442.026" r="0.946314" fill="#4EC6D0"/>
<circle cx="189.056" cy="442.026" r="0.946314" fill="#4EC6D0"/>
<circle cx="39.1963" cy="329.494" r="0.946314" fill="#4EC6D0"/>
<circle cx="189.056" cy="329.494" r="0.946314" fill="#4EC6D0"/>
<circle cx="39.1963" cy="456.247" r="0.946314" fill="#4EC6D0"/>
<circle cx="189.056" cy="456.247" r="0.946314" fill="#4EC6D0"/>
<circle cx="39.1963" cy="343.715" r="0.946314" fill="#4EC6D0"/>
<circle cx="189.056" cy="343.715" r="0.946314" fill="#4EC6D0"/>
<circle cx="39.1963" cy="470.469" r="0.946314" fill="#4EC6D0"/>
<circle cx="189.056" cy="470.469" r="0.946314" fill="#4EC6D0"/>
<circle cx="39.1963" cy="357.937" r="0.946314" fill="#4EC6D0"/>
<circle cx="189.056" cy="357.937" r="0.946314" fill="#4EC6D0"/>
<circle cx="39.1963" cy="484.689" r="0.946314" fill="#4EC6D0"/>
<circle cx="189.056" cy="484.689" r="0.946314" fill="#4EC6D0"/>
<circle cx="39.1963" cy="372.157" r="0.946314" fill="#4EC6D0"/>
<circle cx="189.056" cy="372.157" r="0.946314" fill="#4EC6D0"/>
<circle cx="39.1963" cy="498.911" r="0.946314" fill="#4EC6D0"/>
<circle cx="189.056" cy="498.911" r="0.946314" fill="#4EC6D0"/>
</g>
</svg>
