<svg width="68" height="15" viewBox="0 0 68 15" fill="none" xmlns="http://www.w3.org/2000/svg">
<path d="M6.26162 3.20074C6.19369 3.13281 6.19369 3.13281 6.12576 3.13281C6.05783 3.13281 6.05783 3.13281 5.9899 3.13281C5.58231 3.40453 5.1068 4.69521 4.69922 6.32554H5.1068C5.85404 6.32554 6.60127 6.32554 7.3485 6.32554C7.14471 5.57831 6.94092 4.899 6.80506 4.42349C6.53334 3.67626 6.32955 3.3366 6.26162 3.20074Z" fill="#100995"/>
<path d="M7.06476 0C3.19273 0 0 3.1248 0 7.06476C0 11.0047 3.19273 14.1295 7.06476 14.1295C10.9368 14.1295 14.1295 11.0047 14.1295 7.06476C14.1295 3.1248 11.0047 0 7.06476 0ZM12.1595 7.20062C12.0237 7.26855 11.9557 7.26855 11.8878 7.26855H8.55923C8.55923 7.40441 8.62716 7.47234 8.62716 7.67613C8.83095 8.4913 9.30646 10.5971 9.8499 10.5971C10.2575 10.5971 10.4613 9.98577 10.9368 8.69509C11.0047 8.4913 11.0727 8.28751 11.2085 8.01578V7.94785C11.2085 7.87992 11.3444 7.81199 11.4123 7.87992C11.4802 7.87992 11.5482 8.01578 11.4802 8.08371V8.15165C11.4123 8.28751 11.4123 8.4913 11.3444 8.76302C11.0727 9.8499 10.6651 11.5482 9.64611 11.5482C8.96681 11.5482 8.55923 10.4613 8.42337 9.98576C8.08371 9.10267 7.87992 8.21958 7.6082 7.33648H4.55134L3.93996 9.37439C3.87203 9.51025 3.66824 9.57818 3.46445 9.44232C3.39652 9.37439 3.32859 9.30646 3.32859 9.1706L3.39652 8.96681C3.46445 8.42337 3.60031 7.87992 3.73617 7.33648H2.44549C2.17377 7.26855 2.03791 7.06476 2.03791 6.86097C2.03791 6.65718 2.17377 6.45339 2.44549 6.38546C2.51342 6.38546 2.51342 6.38546 2.58135 6.38546H2.64928C3.05687 6.38546 3.53238 6.38546 4.00789 6.38546C4.6872 3.60031 5.50236 2.2417 6.31752 2.2417C7.26855 2.2417 7.94785 4.34754 8.4913 6.45339C9.64611 6.45339 10.8689 6.52132 12.0237 6.58925H12.0916H12.1595C12.3633 6.65718 12.4992 6.86097 12.4313 7.06476C12.2954 7.06476 12.2275 7.13269 12.1595 7.20062Z" fill="#100995"/>
<path d="M18.0722 8.83029L17.5288 10.1889H15.8984L19.0232 2.98828H20.4498L23.5066 10.2568H21.8763L21.3329 8.89823H18.0722V8.83029ZM19.7025 4.8224L18.6157 7.47169H20.7215L19.7025 4.8224Z" fill="#100995"/>
<path d="M32.7515 7.47479V10.2599H31.257V7.61065C31.257 6.79549 30.8494 6.3879 30.1701 6.3879C29.8305 6.3879 29.4908 6.52376 29.2191 6.93135C29.2191 7.13514 29.287 7.271 29.287 7.47479V10.2599H27.7926V7.61065C27.7926 6.79549 27.385 6.3879 26.7057 6.3879C26.434 6.3879 26.0943 6.59169 25.8226 6.93135V10.2599H24.3281V5.16516H25.8226V5.50481C26.1622 5.23309 26.5019 5.0293 27.0453 5.0293C27.7246 5.0293 28.2681 5.30102 28.6757 5.77653C29.2191 5.30102 29.6946 5.0293 30.5098 5.0293C31.7325 5.0293 32.7515 5.98032 32.7515 7.47479Z" fill="#100995"/>
<path d="M39.1922 7.67858C39.1922 9.17305 38.0374 10.3279 36.6788 10.3279C36.1354 10.3279 35.6599 10.192 35.2523 9.92028V12.6375H33.7578V5.16516H35.2523V5.43688C35.6599 5.16516 36.1354 5.0293 36.6788 5.0293C38.0374 5.0293 39.1922 6.18411 39.1922 7.67858ZM37.6978 7.67858C37.6978 6.93135 37.1543 6.25204 36.4071 6.25204C35.9995 6.25204 35.524 6.3879 35.1843 6.86342V8.49375C35.524 8.90133 35.9316 9.10512 36.4071 9.10512C37.1543 9.10512 37.6978 8.42582 37.6978 7.67858Z" fill="#100995"/>
<path d="M41.5101 10.1833H40.0156V2.71094H41.5101V10.1833Z" fill="#100995"/>
<path d="M42.793 3.39677C42.793 2.92125 43.2006 2.51367 43.6761 2.51367C44.1516 2.51367 44.5592 2.85332 44.5592 3.39677C44.5592 3.87228 44.1516 4.21193 43.6761 4.21193C43.2006 4.21193 42.793 3.87228 42.793 3.39677ZM44.4233 5.16296V10.2577H42.9288V5.16296H44.4233V5.16296Z" fill="#100995"/>
<path d="M49.792 10.1212C49.1806 10.325 48.9089 10.325 48.4334 10.325C47.2106 10.325 46.3955 9.44186 46.3955 8.15118V6.38499H45.3086V5.16225H46.3955V3.32812H47.89V5.16225H49.7241V6.38499H47.89V8.15118C47.89 8.69463 48.2296 8.96635 48.773 8.96635C49.0448 8.96635 49.3165 8.89842 49.6561 8.83049L49.792 10.1212Z" fill="#100995"/>
<path d="M55.694 10.1909H54.1995V9.85126C53.7919 10.1909 53.3164 10.3947 52.7729 10.3947C51.4143 10.3947 50.5312 9.44367 50.5312 7.94921V5.16406H52.0257V7.81335C52.0257 8.62851 52.4333 9.03609 53.1126 9.03609C53.4523 9.03609 53.8598 8.8323 54.1995 8.42472V5.16406H55.694V10.1909Z" fill="#100995"/>
<path d="M61.954 10.1833H60.4595V9.91156C60.0519 10.1833 59.5764 10.3191 59.033 10.3191C57.6064 10.3191 56.5195 9.16432 56.5195 7.66985C56.5195 6.17539 57.6744 5.02057 59.033 5.02057C59.5764 5.02057 60.0519 5.15643 60.4595 5.42815V2.71094H61.954V10.1833ZM60.4595 8.48502V6.85469C60.1198 6.44711 59.7123 6.24332 59.2367 6.24332C58.4895 6.24332 57.9461 6.92262 57.9461 7.60192C57.9461 8.34916 58.4895 9.02846 59.2367 9.02846C59.7123 9.09639 60.1198 8.96053 60.4595 8.48502Z" fill="#100995"/>
<path d="M67.9283 8.07988H64.1922C64.328 8.69125 64.6677 9.16676 65.4828 9.16676C65.8904 9.16676 66.1621 9.0309 66.3659 8.75918H67.9283C67.6566 9.7102 66.7056 10.3895 65.4828 10.3895C63.8525 10.3895 62.7656 9.23469 62.7656 7.67229C62.7656 6.10989 63.8525 4.95508 65.4828 4.95508C66.9094 4.95508 67.9963 5.97403 67.9963 7.53643C67.9283 7.74022 67.9283 7.87608 67.9283 8.07988ZM64.1922 7.19678H66.5018C66.4339 6.58541 66.0263 6.24576 65.4149 6.24576C64.6677 6.17782 64.328 6.65334 64.1922 7.19678Z" fill="#100995"/>
</svg>
