<svg width="56" height="36" viewBox="0 0 56 36" fill="none" xmlns="http://www.w3.org/2000/svg">
<path d="M4.12248 30.0673C3.79414 29.7876 3.36851 29.5931 2.89425 29.5931C2.56591 29.5931 2.14028 29.7876 2.14028 30.1646C2.14028 30.5902 2.61455 30.7362 2.94289 30.8334L3.41716 30.9794C4.41433 31.2591 5.1683 31.7333 5.1683 32.8764C5.1683 33.5818 4.97373 34.2992 4.46298 34.7735C3.89142 35.2478 3.1861 35.4423 2.46862 35.4423C1.56873 35.4423 0.717481 35.1626 0 34.6397L0.753965 33.1683C1.22823 33.5453 1.75114 33.8736 2.35918 33.8736C2.7848 33.8736 3.25907 33.6426 3.25907 33.1683C3.25907 32.6454 2.55375 32.463 2.1646 32.3657C1.0215 32.0373 0.267537 31.7455 0.267537 30.3713C0.267537 28.9485 1.26471 28 2.68752 28C3.39284 28 4.25624 28.2311 4.86428 28.5716L4.12248 30.0673ZM9.19349 32.2076C9.0962 31.7333 8.67058 31.4536 8.24495 31.4536C7.77068 31.4536 7.34506 31.7333 7.24777 32.2076H9.19349ZM10.7622 33.1561H7.19913C7.19913 33.8615 7.57611 34.2506 8.24495 34.2506C8.62193 34.2506 8.86515 34.1533 9.04756 33.825H10.6528C10.3731 35.0046 9.32726 35.4788 8.23279 35.4788C6.66406 35.4788 5.48447 34.5789 5.48447 32.9251C5.48447 31.3199 6.57894 30.3713 8.1355 30.3713C9.78936 30.3713 10.7379 31.4172 10.7379 33.0224V33.1561H10.7622ZM12.8417 31.4901C13.2187 30.7848 13.7416 30.5902 14.4104 30.5902H14.7388V32.1954C14.4591 32.0495 14.2645 32.0495 14.0334 32.0495C13.0849 32.0495 12.8539 32.6697 12.8539 33.4723V35.418H11.1878V30.6267H12.8417V31.4901ZM17.4871 33.0588L18.6302 30.6389H20.5273L18.01 35.3815H16.9155L14.4469 30.6389H16.344L17.4871 33.0588ZM22.4122 35.3815H20.661V30.5902H22.4122V35.3815ZM22.5094 28.985C22.5094 29.5079 22.0838 29.9335 21.5609 29.9335C21.038 29.9335 20.6124 29.5079 20.6124 28.985C20.6124 28.4621 21.038 28.0365 21.5609 28.0365C22.0838 28.0365 22.5094 28.4621 22.5094 28.985ZM26.7292 32.0617C26.4495 31.8671 26.1577 31.7333 25.8293 31.7333C25.1605 31.7333 24.6497 32.2562 24.6497 32.9129C24.6497 33.6182 25.1726 34.0925 25.8293 34.0925C26.109 34.0925 26.4009 33.9466 26.6806 33.7642V35.187C26.2549 35.3815 25.878 35.4667 25.501 35.4667C24.0782 35.4667 22.8986 34.4208 22.8986 32.9616C22.8986 31.4415 24.0782 30.3592 25.5983 30.3592C25.9752 30.3592 26.4009 30.4565 26.7414 30.6389V32.0617H26.7292ZM30.8517 32.2076C30.7544 31.7333 30.3288 31.4536 29.9032 31.4536C29.4289 31.4536 29.0033 31.7333 28.906 32.2076H30.8517ZM32.4083 33.1561H28.8573C28.8573 33.8615 29.2343 34.2506 29.9032 34.2506C30.2801 34.2506 30.5233 34.1533 30.7058 33.825H32.311C32.0313 35.0046 30.9855 35.4788 29.891 35.4788C28.3223 35.4788 27.1427 34.5789 27.1427 32.9251C27.1427 31.3199 28.2371 30.3713 29.7937 30.3713C31.4476 30.3713 32.3961 31.4172 32.3961 33.0224V33.1561H32.4083ZM35.7768 35.3815H34.0256V29.9335H32.4569V28.4135H37.2847V29.9335H35.7646V35.3815H35.7768ZM39.3763 35.3815H37.6738V30.5902H39.3763V35.3815ZM39.4736 28.985C39.4736 29.5079 39.048 29.9335 38.5251 29.9335C38.0022 29.9335 37.5765 29.5079 37.5765 28.985C37.5765 28.4621 38.0022 28.0365 38.5251 28.0365C39.048 28.0365 39.4736 28.4621 39.4736 28.985ZM42.1246 35.3815H40.4221V32.013H39.8992V30.6389H40.4221V29.1674H42.1246V30.6389H43.0732V32.013H42.1246V35.3815ZM44.7757 33.0102C44.7757 33.6304 45.1527 34.1047 45.8701 34.1047C46.5755 34.1047 46.9646 33.6304 46.9646 33.0102C46.9646 32.4387 46.5876 31.9157 45.8701 31.9157C45.2013 31.9157 44.7757 32.4387 44.7757 33.0102ZM48.6185 35.3815H46.916V34.8586C46.6363 35.3329 46.0161 35.5639 45.4932 35.5639C44.0704 35.5639 43.0732 34.3844 43.0732 33.0102C43.0732 31.636 44.0704 30.4565 45.4445 30.4565C46.0161 30.4565 46.539 30.651 46.916 31.0767V30.6024H48.6185V35.3815ZM50.8439 31.2591C51.2695 30.6875 51.7438 30.5051 52.4126 30.5051C53.6895 30.5051 54.2124 31.3077 54.2124 32.4995V35.4423H52.5099V33.1197C52.5099 32.6454 52.6072 31.8914 51.7559 31.8914C51.0506 31.8914 50.856 32.4143 50.856 32.9859V35.4545H49.1535V30.6632H50.856V31.2591H50.8439ZM55.0636 30.3592V30.5537H55.2096C55.3068 30.5537 55.4893 30.5537 55.4893 30.4565C55.4893 30.3592 55.392 30.3592 55.2947 30.3592H55.0636ZM55.5744 31.0645H55.4285L55.2339 30.6875H55.0393V31.0645H54.942V30.2132H55.2704C55.4163 30.2132 55.5501 30.2619 55.5501 30.4443C55.5501 30.5902 55.4528 30.6754 55.319 30.6754L55.5744 31.0645ZM54.638 30.6389C54.638 30.9672 54.9177 31.2591 55.2582 31.2591C55.5865 31.2591 55.8784 30.9794 55.8784 30.6389C55.8784 30.3105 55.5987 30.0187 55.2582 30.0187C54.9177 30.0308 54.638 30.2619 54.638 30.6389ZM54.4921 30.6389C54.4921 30.2132 54.8204 29.8849 55.246 29.8849C55.6717 29.8849 56 30.2132 56 30.6389C56 31.0645 55.6717 31.3928 55.246 31.3928C54.8204 31.3564 54.4921 31.0158 54.4921 30.6389Z" fill="black"/>
<path d="M15.349 23.3183C15.349 23.3183 16.8003 23.8925 16.8003 24.4917C16.8003 24.4917 16.7002 24.966 16.2248 24.966C15.7494 24.966 15.0488 24.1921 15.0488 23.7926C15.0488 23.3932 15.349 23.3183 15.349 23.3183ZM13.7977 16.0282C13.6976 15.9283 13.6976 16.0282 13.7977 16.0282C13.6976 15.9283 13.6976 15.9283 13.6976 15.9283C13.3973 16.0282 12.9219 16.4027 12.9219 17.1017C12.9219 19.7232 20.0282 20.0228 23.9317 24.7913C24.3321 25.2656 25.0077 25.5652 25.6833 25.5652C26.5591 25.5652 27.4348 25.4654 28.2105 25.3655C28.3106 25.3655 28.4107 25.2656 28.4107 25.1658C28.4107 25.0659 28.4107 24.966 28.4107 24.8662C23.6314 18.375 14.5733 19.9229 13.7977 16.0282ZM24.0318 7.76444C23.5564 7.29008 22.2802 7.66458 21.6046 8.2388C20.929 8.81301 21.2043 9.21247 21.2043 9.21247C21.7798 8.43852 22.6556 8.03906 23.2561 7.9392C23.7315 7.96417 24.0318 7.76444 24.0318 7.76444ZM38.6448 9.11261C38.6448 9.11261 37.669 9.31233 36.7932 8.33866C36.7932 8.33866 37.1935 8.33865 37.2686 7.8643C37.1935 7.8643 37.7691 8.93784 38.6448 9.11261ZM38.3446 13.6065C38.3446 13.6065 38.1444 14.68 36.8933 14.68C35.5171 14.68 34.366 12.8325 33.9657 8.46349C34.2659 8.93784 34.6413 9.43716 34.8414 10.0114C34.8414 9.43716 35.1417 8.36362 33.7655 7.38995C33.7655 7.38995 37.3687 8.1639 37.4688 11.8589C37.4688 12.533 37.0684 13.1321 36.8933 13.4068C36.8933 13.4068 36.6931 13.5066 36.7932 13.8062C36.8933 14.0059 37.1935 14.0059 37.4688 13.7064C37.744 13.4068 38.3446 13.0073 38.3446 13.6065ZM33.2901 15.6287C33.2901 15.6287 32.3142 17.4762 30.938 17.4762C30.3624 17.4762 29.9621 17.0768 29.9621 16.6024C29.9621 16.1281 30.6377 14.1807 33.4652 14.1807C34.1408 14.1807 34.6413 14.2806 34.6413 14.7549C34.7414 15.0545 34.0658 15.7286 33.2901 15.6287ZM33.2901 6.39131C33.2901 6.39131 32.8897 6.29144 32.9898 5.71722C33.0899 5.5175 33.0899 5.51749 33.0899 5.24287C33.0899 4.94327 33.19 4.66865 33.3902 4.56878C33.3902 4.56878 33.7905 4.56879 33.7905 5.64233C33.7655 6.11668 33.2901 6.39131 33.2901 6.39131ZM32.0139 6.39131C31.4384 6.29144 31.8137 5.41763 31.4384 5.41763C31.2382 5.41763 31.2382 6.3913 31.0381 6.29144C30.6377 5.99185 30.938 5.31777 30.938 5.01817C30.938 4.71858 31.1381 4.34409 30.8379 4.54382C30.5376 4.74355 30.3624 5.2179 30.2624 5.61736C30.1623 6.01681 30.3624 6.19158 30.5626 6.6909C30.7628 7.16525 30.4625 6.99049 30.4625 6.99049C29.0112 6.11668 30.0622 4.16933 30.0622 4.16933C30.7378 3.09579 31.7137 3.39538 31.7137 3.39538C31.9138 3.49525 31.9138 3.59511 31.9138 3.79484C31.9138 3.99456 32.0139 4.09443 32.2141 4.19429C32.5144 4.29416 32.6145 4.59375 32.6145 5.16797C32.6145 5.81708 32.2141 6.49117 32.0139 6.39131ZM34.2659 6.29144L36.6931 7.06539C36.6931 7.06539 37.1685 7.9392 36.2177 7.63961C35.3419 7.34001 34.4661 7.16525 34.4661 7.16525C34.4661 7.16525 34.0658 6.89062 34.2659 6.29144ZM22.2802 9.98642C20.5287 10.286 19.9281 9.78669 19.9281 9.31233C19.9281 7.9392 23.9317 6.89063 25.0077 6.89063C25.2078 7.19022 24.8075 7.19022 24.7074 7.66457C24.5072 8.13893 24.1319 8.33866 23.5313 8.43852C22.9558 8.53838 22.3553 8.83798 21.98 9.11261C21.5796 9.4122 21.98 9.58696 22.6556 9.41219C23.3312 9.21247 23.4313 9.51206 23.7315 9.41219C24.0318 9.31233 23.7315 8.93784 23.9317 8.93784C24.1319 8.83798 24.5072 9.13757 24.5072 9.13757L25.4831 9.81165L24.307 10.3859C24.207 10.3859 24.1069 10.4857 24.1069 10.6855C24.1069 10.8852 24.6824 10.8852 24.9826 10.8852C25.1828 10.8852 25.2829 11.2846 25.2829 11.2846C24.9826 11.6841 24.1069 11.6841 24.1069 11.6841C24.307 12.0836 25.383 11.9837 25.5582 12.0836C25.7583 12.0836 25.7583 12.3832 25.9585 12.8575C26.0586 13.3319 26.7342 13.5316 26.7342 13.5316C26.9344 14.3055 26.0586 14.5053 25.4581 14.5053C21.8799 14.2806 22.2802 9.98642 22.2802 9.98642ZM22.6556 4.54382C22.5555 4.54382 22.5555 4.54382 22.6556 4.54382C22.3553 3.09579 22.9558 1.42306 22.9558 1.42306C22.9558 1.42306 21.5045 2.59647 21.5796 4.54382C20.3035 4.54382 18.4518 4.64368 17.3759 5.61736C15.8245 6.89062 15.6243 9.31233 15.5242 9.98642C15.5242 9.98642 15.5242 10.0863 15.4241 10.0863H15.324C14.9237 9.88655 14.148 9.1126 14.7485 7.46485C15.5242 5.31777 17.8763 1.04857 22.4554 0.748981C22.4554 0.748981 23.9067 0.649119 24.8075 1.22334C24.8075 1.22334 24.9076 1.22334 24.9076 1.3232V1.42306C24.5072 1.72266 23.2561 2.8711 22.8557 4.64368C22.8557 4.74355 22.7557 4.74355 22.7557 4.74355C22.7557 4.54382 22.6556 4.54382 22.6556 4.54382ZM26.0836 10.286C26.0836 10.286 26.484 12.1335 27.3598 12.8076C27.3598 12.8076 27.3598 13.0073 27.0595 13.0073C26.7592 13.0073 26.2838 12.6078 26.0836 11.5593C25.8834 10.5856 26.0836 10.286 26.0836 10.286ZM27.3347 5.61736C26.2588 5.61736 25.7834 4.64368 25.7834 4.64368C25.7834 4.64368 27.0595 5.81709 28.8111 4.84341C28.8111 4.94328 28.4107 5.61736 27.3347 5.61736ZM40.7968 7.19022C40.4965 6.616 40.1212 6.21654 39.2454 6.01682C38.4697 5.81709 37.7941 5.91695 37.2936 6.31641L35.7423 5.74219C35.5421 5.34273 35.442 4.96824 35.2668 4.66865C35.1667 4.36905 34.9666 4.1943 34.7914 4.09443C33.7154 3.52021 30.8879 2.04722 29.812 3.52021C29.812 3.52021 29.7119 3.62008 29.7119 3.71994L29.3115 3.62007C29.1113 3.04586 28.5358 2.54654 27.7601 2.34681C27.2847 2.24695 26.7843 2.24694 26.3839 2.44667C26.0836 2.54654 26.0836 2.92103 26.3839 3.02089L27.66 3.49524C27.9603 3.59511 28.1355 3.8947 27.9603 4.16933C27.8602 4.46892 27.5599 4.64368 27.2847 4.46892C27.2847 4.46892 26.509 4.26919 25.9085 4.06946C25.6082 3.9696 25.333 4.26919 25.433 4.54382C25.6332 5.11804 26.2087 5.71722 26.9844 5.91695C27.66 6.11668 28.3607 5.91695 28.8361 5.61736L29.1364 5.71722C29.1364 6.39131 29.7119 7.26512 30.2123 7.56471C30.988 8.03906 31.6636 7.66457 32.4643 7.16525C32.4643 7.16525 34.5162 8.71315 33.5403 13.2819C31.013 13.5815 30.0372 14.4553 29.1614 15.429C28.5859 15.2293 26.8093 15.0296 25.8584 15.3291C26.1587 15.0296 26.534 14.7549 27.1346 14.5552C27.4348 14.4553 27.5349 14.2556 27.5349 13.981C27.5349 13.981 28.711 13.5815 28.711 13.207C28.711 12.8076 27.2597 12.8076 26.6591 9.71179C26.5591 9.31233 26.459 9.03771 25.8834 8.83798C25.8834 8.83798 25.6833 8.53838 25.9835 8.16389C26.2838 7.76444 26.3839 7.68954 26.2838 7.38995C26.1837 7.09035 25.8084 6.91559 25.8084 6.91559V6.44124C25.8084 6.44124 24.6323 5.56742 24.6323 4.29416C24.6323 3.02089 26.2838 1.57286 26.6842 1.1734V1.07354C26.6842 1.07354 26.6842 0.973678 26.5841 0.973678C26.0086 0.574221 24.9326 0 23.181 0C16.3499 0 14.7986 6.11668 13.3222 9.0377C13.3222 9.13757 13.3222 9.13757 13.3222 9.23744C14.7735 12.1585 17.1256 11.8589 17.3258 14.3804C17.4259 16.3278 16.9254 16.3278 16.5501 16.3278C16.2498 16.3278 15.7744 16.0282 15.5742 15.8534H15.4742C15.4742 15.8534 15.3741 15.9533 15.4742 15.9533C15.6743 16.4277 16.1498 17.6011 17.7262 17.6011C18.5019 17.6011 18.702 16.927 18.702 16.2279V13.981C18.702 13.7813 18.6019 13.5815 18.5019 13.4068C18.0264 12.9324 16.8504 11.8589 16.8504 10.9851C16.8504 10.5856 17.1507 10.4108 17.4259 10.4108C18.0014 10.4108 18.6019 11.2846 19.0774 12.4581C19.1775 12.7576 19.3776 12.9324 19.4777 13.0323H19.5778C19.5778 13.0323 19.5778 13.0323 19.5778 12.9324C19.3776 12.2583 19.3776 11.5593 19.2776 11.2846C19.2776 11.1848 19.1775 10.9851 19.0774 10.8852C18.6019 10.4857 17.4259 9.3373 17.4259 7.58968C17.4259 5.24287 21.2293 5.4426 22.005 5.4426C22.2052 6.21654 22.6806 6.616 22.9809 6.71587C21.8048 7.11532 19.2776 7.98913 19.2776 9.43716C19.2776 10.9851 21.9049 10.8852 21.9049 10.8852C21.9049 10.8852 21.5045 14.0059 24.4322 14.9796C24.4322 14.9796 23.9567 15.454 22.3803 15.454C20.929 15.454 20.2284 14.7799 19.8531 14.0059C19.8531 14.0059 19.8531 13.9061 19.753 13.9061C19.753 13.9061 19.6529 13.9061 19.6529 14.0059C19.5528 14.2057 19.5528 14.5802 19.753 14.9796C20.1533 15.6537 20.7288 16.0532 20.7288 16.927C20.7288 17.6011 20.1533 18.0005 19.8531 18.1004C20.4286 18.2002 23.0809 18.8743 24.8325 19.7481C25.0327 19.6483 26.5841 18.6746 26.6842 17.3264C26.6842 17.3264 26.7843 16.4526 25.5081 16.3528C25.5081 16.3528 26.0836 16.153 27.0595 16.153C28.0354 16.153 29.1113 16.927 27.1596 21.0214C27.1596 21.0214 27.1596 21.0214 27.1596 21.1213C27.4599 21.321 29.6868 22.769 31.1632 24.1422H31.2633C31.2633 24.1422 31.3633 24.1422 31.3633 24.0423C31.5635 23.8426 31.9389 23.1685 32.139 21.5207C32.139 21.321 32.2391 21.2211 32.4393 21.2211C33.3151 20.9215 36.2427 20.0477 37.5188 18.3001C38.9701 16.2529 39.5707 15.9533 39.5707 15.9533C39.5707 15.9533 40.5465 15.3791 40.1462 13.9061C39.946 13.1321 38.77 11.1848 37.6189 9.13757C37.9192 9.33729 38.1944 9.43716 38.4947 9.53702C39.1703 9.73675 39.8709 9.63689 40.3464 9.3373C40.4464 9.23743 40.5465 9.13757 40.5465 9.0377C40.5465 8.93784 40.4464 8.83798 40.3464 8.73812L39.0702 8.26375C38.77 8.16389 38.5948 7.7894 38.6699 7.48981C38.77 7.19022 39.1453 7.01546 39.4456 7.09036L40.6216 7.48981C40.7217 7.48981 40.8218 7.48981 40.9219 7.38995C40.8969 7.26512 40.7968 7.36498 40.7968 7.19022ZM23.5313 10.8602C23.5313 10.8602 23.0559 10.9601 23.131 11.734C23.2311 12.4081 23.8066 12.4081 23.8066 12.4081C23.3312 11.8339 23.5313 10.8602 23.5313 10.8602ZM15.0488 20.4971C16.8003 21.4708 20.7038 22.6442 21.4795 24.6914C21.4795 24.6914 21.7798 25.1658 20.2034 25.1658C19.0273 25.1658 18.7521 24.8662 17.9514 23.8925C16.7753 22.5194 14.3481 21.6456 14.3481 20.597C14.2731 20.6968 14.3732 20.1226 15.0488 20.4971Z" fill="black"/>
</svg>
