<svg width="44" height="43" viewBox="0 0 44 43" fill="none" xmlns="http://www.w3.org/2000/svg">
<path d="M32.8207 28.3008C33.5978 28.3008 34.2056 27.693 34.2056 26.9158C34.2056 26.1586 33.5978 25.5508 32.8207 25.5508C32.0534 25.5508 31.4158 26.1586 31.4158 26.9158C31.3958 27.683 32.0534 28.3008 32.8207 28.3008ZM20.8641 29.2573H22.9466V30.5127C23.4746 29.7555 24.6404 29.068 26.0054 29.068C28.606 29.068 30.5788 31.2501 30.5788 33.9403C30.5788 36.6106 28.606 38.8126 26.0054 38.8126C24.6304 38.8126 23.4846 38.1251 22.9466 37.3678V42.539H20.8641V29.2573ZM25.6268 30.9312C23.933 30.9312 22.7772 32.2365 22.7772 33.9303C22.7772 35.6142 23.9429 36.9294 25.6268 36.9294C27.3007 36.9294 28.4665 35.6242 28.4665 33.9303C28.4665 32.2564 27.3007 30.9312 25.6268 30.9312ZM35.4013 29.2573H37.4837V30.5327C38.0616 29.5861 39.1377 29.068 40.3632 29.068C42.5652 29.068 44 30.6124 44 32.9838V38.6232H41.9176V33.3225C41.9176 31.8479 41.1504 30.9511 39.9447 30.9511C38.5598 30.9511 37.4937 32.0173 37.4937 34.01V38.6133H35.4112V29.2573H35.4013ZM4.96196 29.068C3.73641 29.068 2.65036 29.5861 2.08243 30.5327V25.5508H0V38.6232H2.08243V34.02C2.08243 32.0272 3.14855 30.9611 4.53351 30.9611C5.74909 30.9611 6.50634 31.8578 6.50634 33.3325V38.6232H8.58877V32.9838C8.5788 30.6024 7.16395 29.068 4.96196 29.068ZM33.837 29.2573H31.7545V38.6232H33.837V29.2573ZM14.7364 38.8026C11.9366 38.8026 9.76449 36.6504 9.76449 33.9303C9.76449 31.2102 11.9266 29.058 14.7364 29.058C17.5462 29.058 19.7083 31.2102 19.7083 33.9303C19.7083 36.6504 17.5362 38.8026 14.7364 38.8026ZM14.7364 36.8895C16.4103 36.8895 17.5861 35.6042 17.5861 33.9403C17.5861 32.2763 16.4103 30.991 14.7364 30.991C13.0426 30.991 11.8668 32.2763 11.8668 33.9403C11.8668 35.6042 13.0426 36.8895 14.7364 36.8895Z" fill="#1D1E1F"/>
<path d="M24.7958 4.86649C24.7573 6.07831 23.911 7.80947 22.4491 7.80947C21.5643 7.80947 20.8141 7.07854 20.8141 6.19372V6.17448C20.7756 4.75108 20.1409 3.5008 19.1214 2.63522C18.352 2.00046 17.3902 1.57728 16.3516 1.46187C17.2364 0.557821 18.5059 0 19.8908 0C21.6412 0 23.2377 1.00023 24.161 2.4621C24.6227 3.1738 24.8343 4.03938 24.7958 4.86649ZM19.0829 4.98191C19.8523 5.94366 20.314 7.80947 19.1984 8.71352C18.4867 9.29058 17.4672 9.1944 16.8901 8.54041C15.9284 7.48248 14.6204 6.92466 13.2932 6.90542C12.2737 6.86695 11.2542 7.17471 10.4079 7.75177C10.5041 6.50148 11.0811 5.27043 12.1583 4.38562C13.5432 3.26998 15.486 2.92375 17.1402 3.59698C17.9096 3.86627 18.5828 4.34715 19.0829 4.98191ZM14.7743 8.69429C15.9668 8.94435 17.5826 10.0985 17.3325 11.4834C17.1787 12.3682 16.3131 12.9453 15.4283 12.7914H15.3898C13.9664 12.5798 12.5815 13.003 11.5812 13.8301C10.8118 14.4456 10.1963 15.3112 9.92701 16.3114C9.19608 15.2727 8.84984 13.984 9.06143 12.6183C9.40766 10.8871 10.6579 9.42522 12.3891 8.84817C13.1393 8.59811 14.0049 8.54041 14.7743 8.69429ZM13.8895 14.2725C14.9666 13.6954 16.9286 13.58 17.6403 14.7918C18.1019 15.542 17.8327 16.5422 17.0633 17.0039C15.8322 17.7348 15.0628 18.9082 14.7935 20.2161C14.6012 21.1779 14.6973 22.2166 15.159 23.1591C13.9279 22.8514 12.793 22.0627 12.1198 20.8894C11.235 19.3506 11.2542 17.4271 12.1775 15.9075C12.5815 15.215 13.1778 14.638 13.8895 14.2725ZM16.8324 19.0813C17.2941 17.9656 18.7175 16.6192 20.0255 17.1C20.891 17.4078 21.3142 18.3503 21.0065 19.1582C20.5448 20.4854 20.7372 21.8896 21.3719 23.0437C21.872 23.9285 22.603 24.621 23.5647 25.0826C22.3914 25.6212 21.0449 25.7559 19.7562 25.2558C18.0635 24.6402 16.8324 23.1591 16.5631 21.4087C16.467 20.6393 16.5631 19.8122 16.8324 19.0813ZM22.2567 20.9086C21.8528 19.7545 22.0644 17.8502 23.4301 17.3693C24.2957 17.0616 25.219 17.4848 25.5267 18.3311C26.0461 19.6391 27.104 20.6009 28.3543 21.101C29.2776 21.4664 30.3547 21.5241 31.3742 21.2741C30.8549 22.4282 29.8739 23.3707 28.5659 23.8516C26.8732 24.4671 24.9304 24.1016 23.6224 22.9091C22.9877 22.332 22.4876 21.6588 22.2567 20.9086ZM27.6041 18.8697C26.5654 18.2349 25.4498 16.6192 26.1807 15.4074C26.6424 14.6572 27.6233 14.3687 28.4312 14.7918C29.7007 15.4651 31.1049 15.542 32.3937 15.1188C33.3554 14.7918 34.2018 14.1763 34.8173 13.33C35.1635 14.5418 35.0289 15.869 34.3172 17.0616C33.4324 18.6004 31.7012 19.5429 29.9123 19.4852C29.0852 19.5237 28.2389 19.2929 27.6041 18.8697ZM30.374 13.9262C29.1429 14.0994 27.2579 13.5608 27.0271 12.1759C26.8347 11.3295 27.4502 10.4832 28.3543 10.3293H28.3928C29.8162 10.06 30.951 9.21364 31.6243 8.07876C32.1436 7.23242 32.3937 6.23219 32.2975 5.19349C33.3362 5.88596 34.1441 7.02083 34.3557 8.34806C34.6634 10.0792 33.9517 11.8873 32.5668 12.9837C31.9128 13.4838 31.1434 13.8493 30.374 13.9262ZM29.2583 8.40576C28.4312 9.30982 26.6424 10.0985 25.546 9.1944C24.8343 8.61735 24.7381 7.61712 25.3344 6.92465C26.2192 5.82825 26.5654 4.44332 26.3538 3.13533C26.1999 2.17357 25.7383 1.23105 25.0074 0.461645C26.2769 0.346234 27.5849 0.711703 28.662 1.57728C30.047 2.69292 30.701 4.55873 30.3163 6.27066C30.1624 7.07854 29.7777 7.82871 29.2583 8.40576Z" fill="#175FFF"/>
</svg>
