<svg width="60" height="21" viewBox="0 0 60 21" fill="none" xmlns="http://www.w3.org/2000/svg">
<path d="M54.1782 8.42078C54.9 8.42078 55.4852 7.83558 55.4852 7.11371C55.4852 6.39184 54.9 5.80664 54.1782 5.80664C53.4563 5.80664 52.8711 6.39184 52.8711 7.11371C52.8711 7.83558 53.4563 8.42078 54.1782 8.42078Z" fill="#FF4500"/>
<path d="M35.5111 12.6888C36.1523 12.6888 36.5221 12.208 36.4975 11.7393C36.4853 11.4927 36.4605 11.3323 36.4359 11.2091C36.0413 9.50763 34.6605 8.24975 33.0204 8.24975C31.0723 8.24975 29.494 10.013 29.494 12.1831C29.494 14.3532 31.0723 16.1165 33.0204 16.1165C34.2412 16.1165 35.1167 15.6727 35.7455 14.9699C36.0537 14.6247 35.9921 14.0944 35.6221 13.8354C35.3139 13.6258 34.9317 13.6998 34.648 13.934C34.3768 14.1685 33.859 14.6369 33.0204 14.6369C32.0341 14.6369 31.1957 13.786 31.0107 12.664H35.5111V12.6888ZM33.0082 9.74184C33.8958 9.74184 34.6605 10.4323 34.9441 11.3817H31.0723C31.3559 10.4201 32.1203 9.74184 33.0082 9.74184ZM29.568 9.02659C29.568 8.65679 29.2968 8.36076 28.9516 8.29916C27.8787 8.13897 26.8677 8.53337 26.2883 9.26102V9.16219C26.2883 8.70597 25.9182 8.42259 25.5484 8.42259C25.1414 8.42259 24.8086 8.75539 24.8086 9.16219V15.2041C24.8086 15.5987 25.1044 15.9439 25.499 15.9685C25.9306 15.9931 26.2883 15.6603 26.2883 15.2287V12.1091C26.2883 10.7283 27.3239 9.59382 28.7542 9.75425H28.9022C29.272 9.72943 29.568 9.40881 29.568 9.02659ZM54.9188 9.81584C54.9188 9.40881 54.586 9.07601 54.1792 9.07601C53.7721 9.07601 53.4393 9.40881 53.4393 9.81584V15.2287C53.4393 15.6357 53.7721 15.9685 54.1792 15.9685C54.586 15.9685 54.9188 15.6357 54.9188 15.2287V9.81584ZM43.9203 5.72226C43.9203 5.31522 43.5875 4.98242 43.1804 4.98242C42.7736 4.98242 42.4408 5.31522 42.4408 5.72226V9.01441C41.9352 8.50877 41.3063 8.26216 40.5541 8.26216C38.606 8.26216 37.0277 10.0255 37.0277 12.1956C37.0277 14.3656 38.606 16.1289 40.5541 16.1289C41.3063 16.1289 41.9476 15.8699 42.453 15.3643C42.5146 15.7097 42.823 15.9685 43.1804 15.9685C43.5875 15.9685 43.9203 15.6357 43.9203 15.2287V5.72226ZM40.5665 14.6614C39.432 14.6614 38.5196 13.5642 38.5196 12.1956C38.5196 10.8393 39.432 9.72943 40.5665 9.72943C41.701 9.72943 42.6134 10.8269 42.6134 12.1956C42.6134 13.5642 41.6886 14.6614 40.5665 14.6614ZM51.639 5.72226C51.639 5.31522 51.3062 4.98242 50.8992 4.98242C50.4924 4.98242 50.1593 5.31522 50.1593 5.72226V9.01441C49.6539 8.50877 49.0251 8.26216 48.2729 8.26216C46.3248 8.26216 44.7465 10.0255 44.7465 12.1956C44.7465 14.3656 46.3248 16.1289 48.2729 16.1289C49.0251 16.1289 49.6661 15.8699 50.1718 15.3643C50.2334 15.7097 50.5416 15.9685 50.8992 15.9685C51.3062 15.9685 51.639 15.6357 51.639 15.2287V5.72226ZM48.2729 14.6614C47.1384 14.6614 46.2262 13.5642 46.2262 12.1956C46.2262 10.8393 47.1384 9.72943 48.2729 9.72943C49.4073 9.72943 50.3198 10.8269 50.3198 12.1956C50.3198 13.5642 49.4073 14.6614 48.2729 14.6614ZM58.6671 15.2411V9.74184H59.3208C59.666 9.74184 59.9742 9.48281 59.9988 9.12519C60.0236 8.74298 59.7154 8.42259 59.3454 8.42259H58.6671V7.38672C58.6671 6.9921 58.3713 6.64688 57.9767 6.62229C57.5451 6.5977 57.1877 6.9305 57.1877 7.36213V8.43477H56.571C56.2258 8.43477 55.9176 8.69379 55.893 9.05141C55.8682 9.43363 56.1766 9.75425 56.5465 9.75425H57.1753V15.2535C57.1753 15.6603 57.5083 15.9931 57.9151 15.9931C58.3467 15.9685 58.6671 15.6479 58.6671 15.2411Z" fill="#222222"/>
<path d="M10.3327 20.6653C16.0393 20.6653 20.6653 16.0393 20.6653 10.3327C20.6653 4.6261 16.0393 0 10.3327 0C4.6261 0 0 4.6261 0 10.3327C0 16.0393 4.6261 20.6653 10.3327 20.6653Z" fill="#FF4500"/>
<path d="M17.2253 10.3328C17.2253 9.4944 16.5473 8.82857 15.721 8.82857C15.3142 8.82857 14.9442 8.98877 14.673 9.24779C13.6373 8.50795 12.2192 8.02714 10.641 7.96554L11.3314 4.73499L13.5755 5.2158C13.6003 5.78303 14.0687 6.23926 14.6484 6.23926C15.2402 6.23926 15.721 5.75844 15.721 5.16639C15.721 4.57456 15.2402 4.09375 14.6484 4.09375C14.2291 4.09375 13.8591 4.34036 13.6865 4.69799L11.1836 4.16776C11.1096 4.15535 11.0356 4.16776 10.9862 4.20476C10.9246 4.24176 10.8876 4.30336 10.8754 4.37737L10.1107 7.97772C8.50787 8.02714 7.0652 8.50795 6.01716 9.2602C5.7349 8.99061 5.35943 8.84042 4.96911 8.84098C4.13067 8.84098 3.46484 9.519 3.46484 10.3453C3.46484 10.9617 3.83465 11.4795 4.35269 11.7139C4.32787 11.8617 4.31569 12.0097 4.31569 12.1701C4.31569 14.488 7.01602 16.3747 10.3452 16.3747C13.6743 16.3747 16.3747 14.5004 16.3747 12.1701C16.3747 12.0221 16.3622 11.8617 16.3376 11.7139C16.8555 11.4795 17.2253 10.9493 17.2253 10.3328ZM6.8926 11.4055C6.8926 10.8137 7.37341 10.3328 7.96546 10.3328C8.55729 10.3328 9.0381 10.8137 9.0381 11.4055C9.0381 11.9973 8.55729 12.4783 7.96546 12.4783C7.37341 12.4905 6.8926 11.9973 6.8926 11.4055ZM12.8975 14.2538C12.1576 14.9937 10.752 15.0431 10.3452 15.0431C9.92595 15.0431 8.52029 14.9812 7.79263 14.2538C7.68185 14.1428 7.68185 13.9702 7.79263 13.8592C7.90364 13.7484 8.07624 13.7484 8.18725 13.8592C8.65589 14.3278 9.64234 14.488 10.3452 14.488C11.048 14.488 12.0466 14.3278 12.5029 13.8592C12.6139 13.7484 12.7865 13.7484 12.8975 13.8592C12.9961 13.9702 12.9961 14.1428 12.8975 14.2538ZM12.7001 12.4905C12.1082 12.4905 11.6274 12.0097 11.6274 11.4179C11.6274 10.8261 12.1082 10.3453 12.7001 10.3453C13.2921 10.3453 13.7729 10.8261 13.7729 11.4179C13.7729 11.9973 13.2921 12.4905 12.7001 12.4905Z" fill="white"/>
</svg>
