<svg width="60" height="36" viewBox="0 0 60 36" fill="none" xmlns="http://www.w3.org/2000/svg">
<path d="M3.23195 31.8558C2.01997 31.8558 1.3095 30.9085 1.3095 29.8358C1.3095 28.596 2.11748 27.7741 3.23195 27.7741C3.81704 27.7741 4.20711 28.0109 4.56931 28.2338L5.1544 27.189C4.73648 26.9243 4.03994 26.6039 3.3016 26.6039C1.37915 26.6039 0 27.9691 0 29.8358C0 31.6886 1.40701 33.0678 3.3016 33.0678C4.10959 33.0678 4.69468 32.7334 5.1544 32.4548L4.56931 31.41C4.20711 31.6607 3.6638 31.8558 3.23195 31.8558ZM7.34154 23.748H8.58138V32.9006H7.34154V23.748ZM15.7279 26.7989L15.5886 27.3283C15.2542 26.9661 14.5438 26.6039 13.7915 26.6039C12.2591 26.6039 10.8521 27.8158 10.8521 29.794C10.8521 31.8418 12.2591 33.0817 13.7915 33.0817C14.5438 33.0817 15.2264 32.7195 15.5886 32.3573L15.7279 32.9145H16.7727V26.8407H15.7279V26.7989ZM15.6164 29.8776C15.6164 31.2707 14.7667 31.8976 13.9587 31.8976C13.1368 31.8976 12.1895 31.3403 12.1895 29.8079C12.1895 28.8328 12.7049 27.788 13.8612 27.788C14.7388 27.788 15.6164 28.4985 15.6164 29.8079V29.8776ZM21.2027 30.3652C22.0525 30.5881 22.4147 30.7552 22.4147 31.1871C22.4147 31.5214 22.1221 31.8697 21.4395 31.8697C20.8126 31.8697 20.2972 31.6468 19.8096 31.3821L19.2524 32.4269C19.6842 32.6916 20.6455 33.0538 21.4395 33.0538C22.8047 33.0538 23.5988 32.1344 23.5988 31.201C23.5988 29.599 22.0246 29.3482 21.6067 29.2089C20.729 28.9721 20.5062 28.791 20.5062 28.4288C20.5062 28.0387 20.8405 27.7741 21.4813 27.7741C22.0385 27.7741 22.4565 27.9412 22.8465 28.1362L23.4316 27.0914C22.8744 26.8546 22.2196 26.6039 21.4813 26.6039C20.144 26.6039 19.336 27.5512 19.336 28.4288C19.336 29.8358 20.5201 30.198 21.2027 30.3652ZM27.8477 30.3652C28.6975 30.5881 29.0597 30.7552 29.0597 31.1871C29.0597 31.5214 28.7671 31.8697 28.0845 31.8697C27.4576 31.8697 26.9422 31.6468 26.4546 31.3821L25.8974 32.4269C26.3292 32.6916 27.2905 33.0538 28.0845 33.0538C29.4497 33.0538 30.2438 32.1344 30.2438 31.201C30.2438 29.599 28.6696 29.3482 28.2517 29.2089C27.374 28.9721 27.1511 28.791 27.1511 28.4288C27.1511 28.0387 27.4855 27.7741 28.1263 27.7741C28.6835 27.7741 29.1015 27.9412 29.4915 28.1362L30.0766 27.0914C29.5194 26.8546 28.8646 26.6039 28.1263 26.6039C26.7889 26.6039 25.981 27.5512 25.981 28.4288C25.967 29.8358 27.1651 30.198 27.8477 30.3652ZM35.6211 26.6039C34.8688 26.6039 34.1862 26.9661 33.824 27.3283L33.6847 26.771H32.6399V35.4221H33.8101V32.413L33.8519 32.3851C34.1862 32.7473 34.8688 33.0399 35.5236 33.0399C37.0977 33.0399 38.5605 32.0229 38.5605 29.7522C38.5883 27.7183 37.1813 26.6039 35.6211 26.6039ZM35.4818 31.8976C34.6738 31.8976 33.824 31.2707 33.824 29.8776V29.8079C33.824 28.4706 34.7016 27.788 35.5793 27.788C36.7495 27.788 37.251 28.8328 37.251 29.8079C37.251 31.3403 36.3037 31.8976 35.4818 31.8976ZM45.498 26.7989L45.3587 27.3561C45.0244 26.9939 44.3139 26.6317 43.5616 26.6317C42.0293 26.6317 40.6222 27.8437 40.6222 29.8219C40.6222 31.8697 42.0293 33.1095 43.5616 33.1095C44.3139 33.1095 44.9965 32.7473 45.3587 32.3851L45.498 32.9424H46.5428V26.8685H45.498V26.7989ZM45.3727 29.8776C45.3727 31.2707 44.5229 31.8976 43.7149 31.8976C42.893 31.8976 41.9457 31.3403 41.9457 29.8079C41.9457 28.8328 42.4611 27.788 43.6174 27.788C44.495 27.788 45.3727 28.4985 45.3727 29.8079V29.8776ZM50.9728 30.3652C51.8226 30.5881 52.1848 30.7552 52.1848 31.1871C52.1848 31.5214 51.8923 31.8697 51.2097 31.8697C50.5828 31.8697 50.0673 31.6468 49.5798 31.3821L49.0225 32.4269C49.4544 32.6916 50.4156 33.0538 51.2097 33.0538C52.5749 33.0538 53.3689 32.1344 53.3689 31.201C53.3689 29.599 51.7948 29.3482 51.3768 29.2089C50.4992 28.9721 50.2763 28.791 50.2763 28.4288C50.2763 28.0387 50.6106 27.7741 51.2515 27.7741C51.8087 27.7741 52.2266 27.9412 52.6167 28.1362L53.2018 27.0914C52.6445 26.8546 51.9898 26.6039 51.2515 26.6039C49.9141 26.6039 49.1061 27.5512 49.1061 28.4288C49.0922 29.8358 50.2902 30.198 50.9728 30.3652ZM57.6039 30.3652C58.4537 30.5881 58.8159 30.7552 58.8159 31.1871C58.8159 31.5214 58.5233 31.8697 57.8407 31.8697C57.2138 31.8697 56.6984 31.6468 56.2108 31.3821L55.6536 32.4269C56.0854 32.6916 57.0467 33.0538 57.8407 33.0538C59.2059 33.0538 60 32.1344 60 31.201C60 29.599 58.4258 29.3482 58.0079 29.2089C57.1303 28.9721 56.9074 28.791 56.9074 28.4288C56.9074 28.0387 57.2417 27.7741 57.8825 27.7741C58.4398 27.7741 58.8577 27.9412 59.2477 28.1362L59.8328 27.0914C59.2756 26.8546 58.6209 26.6039 57.8825 26.6039C56.5452 26.6039 55.7372 27.5512 55.7372 28.4288C55.7372 29.8358 56.9352 30.198 57.6039 30.3652Z" fill="#333333"/>
<path d="M33.7655 0H31.1116C30.6501 0 30.1885 0.346155 30.1391 0.807694L29.7435 2.7033C29.694 3.04945 29.3973 3.28022 29.0512 3.28022H26.1171C22.1446 3.32967 18.4688 6.32967 18.4688 10.5824C18.4688 14.3736 21.6336 17.8352 26.183 17.8352H29.183C29.6446 17.8352 30.1061 17.489 30.1556 17.0275L30.5512 15.1319C30.6006 14.7857 30.8973 14.5549 31.2435 14.5549H33.8314C38.2654 14.5549 41.5457 11.1593 41.5457 7.3022C41.4797 3.04945 37.8534 0 33.7655 0ZM33.6995 11.7363H30.5841C30.1226 11.7363 29.727 12.0824 29.6116 12.544L29.216 14.3901C29.1665 14.7363 28.8698 14.967 28.5237 14.967H26.216C23.8589 14.967 21.3204 13.3022 21.3204 10.533C21.3204 7.9945 23.5622 6.0989 26.216 6.0989H29.7764C30.238 6.0989 30.6336 5.75275 30.749 5.29121L31.1446 3.44506C31.194 3.0989 31.4907 2.86813 31.8369 2.86813H33.683C36.1556 2.86813 38.5786 4.5989 38.5786 7.3022C38.5457 9.77473 36.4193 11.7363 33.6995 11.7363Z" fill="#333333"/>
</svg>
