<svg width="56" height="39" viewBox="0 0 56 39" fill="none" xmlns="http://www.w3.org/2000/svg">
<path d="M0.771014 37.7232C0.486956 37.6014 0.284057 37.3783 0.284057 37.0536C0.284057 36.6681 0.608695 36.3638 0.973912 36.3638C1.09565 36.3638 1.17681 36.3841 1.25797 36.4246C1.74493 36.6478 2.27246 36.7899 2.92174 36.7899C4.09855 36.7899 4.64638 36.2217 4.64638 35.1464V34.8623C4.13913 35.471 3.5913 35.8362 2.67826 35.8362C1.27826 35.8362 0 34.8217 0 33.0362V33.0159C0 31.2101 1.29855 30.2159 2.67826 30.2159C3.61159 30.2159 4.15942 30.6014 4.62609 31.1087V31.0681C4.62609 30.6014 5.01159 30.2159 5.47826 30.2159C5.94493 30.2159 6.33043 30.6014 6.33043 31.0681V34.9435C6.33043 36.0188 6.06667 36.8101 5.55942 37.3174C4.9913 37.8855 4.13913 38.129 2.96232 38.129C2.17101 38.1493 1.48116 38.0072 0.771014 37.7232V37.7232ZM4.64638 33.0159V32.9956C4.64638 32.1841 3.9971 31.5956 3.16522 31.5956C2.33333 31.5956 1.70435 32.1638 1.70435 32.9956V33.0159C1.70435 33.8478 2.33333 34.4159 3.16522 34.4159C3.9971 34.4159 4.64638 33.8275 4.64638 33.0159ZM7.28406 31.0884C7.28406 30.6217 7.66956 30.2362 8.13623 30.2362C8.6029 30.2362 8.98841 30.6217 8.98841 31.0884V31.3522C9.23188 30.7638 9.63768 30.2362 10.1449 30.2362C10.6725 30.2362 10.9768 30.5812 10.9768 31.0681C10.9768 31.5145 10.6928 31.7783 10.3275 31.8594C9.45507 32.0623 8.98841 32.7319 8.98841 33.929V35.5319C8.98841 35.9985 8.6029 36.3841 8.13623 36.3841C7.66956 36.3841 7.28406 35.9985 7.28406 35.5319V31.0884V31.0884ZM10.7942 34.5783V34.558C10.7942 33.2391 11.7884 32.6304 13.229 32.6304C13.8377 32.6304 14.2841 32.7319 14.7101 32.8739V32.7725C14.7101 32.0623 14.2638 31.6768 13.4116 31.6768C12.9449 31.6768 12.5594 31.7377 12.2348 31.8391C12.1333 31.8797 12.0725 31.8797 11.9913 31.8797C11.6058 31.8797 11.2812 31.5754 11.2812 31.1898C11.2812 30.8855 11.4638 30.6217 11.7478 30.5203C12.2957 30.3174 12.8638 30.1956 13.6754 30.1956C14.6087 30.1956 15.2783 30.4391 15.7043 30.8652C16.1507 31.3116 16.3536 31.9812 16.3536 32.7927V35.5319C16.3536 35.9985 15.9884 36.3435 15.5217 36.3435C15.0348 36.3435 14.7101 35.9985 14.7101 35.6333V35.613C14.3043 36.0797 13.7159 36.3841 12.8841 36.3841C11.7275 36.4246 10.7942 35.7754 10.7942 34.5783ZM14.7101 34.1927V33.8884C14.4261 33.7464 14.0406 33.6652 13.6145 33.6652C12.8841 33.6652 12.4377 33.9493 12.4377 34.4971V34.5174C12.4377 34.9841 12.8232 35.2478 13.371 35.2478C14.1623 35.2478 14.7101 34.8217 14.7101 34.1927V34.1927ZM17.2464 31.0884C17.2464 30.6217 17.6319 30.2362 18.0985 30.2362C18.5652 30.2362 18.9507 30.6217 18.9507 31.0884V31.1493C19.3362 30.642 19.8638 30.1754 20.7362 30.1754C21.5275 30.1754 22.1159 30.5203 22.4406 31.129C22.9681 30.5203 23.5971 30.1754 24.4087 30.1754C25.687 30.1754 26.4377 30.9464 26.4377 32.387V35.5319C26.4377 35.9985 26.0522 36.3841 25.5855 36.3841C25.1188 36.3841 24.7333 35.9985 24.7333 35.5319V32.9551C24.7333 32.1435 24.3681 31.7377 23.7391 31.7377C23.0899 31.7377 22.7043 32.1638 22.7043 32.9551V35.5319C22.7043 35.9985 22.3188 36.3841 21.8522 36.3841C21.3855 36.3841 21 35.9985 21 35.5319V32.9551C21 32.1435 20.6348 31.7377 20.0058 31.7377C19.3565 31.7377 18.971 32.1638 18.971 32.9551V35.5319C18.971 35.9985 18.5855 36.3841 18.1188 36.3841C17.6522 36.3841 17.2667 35.9985 17.2667 35.5319V31.0884H17.2464ZM27.3507 31.0884C27.3507 30.6217 27.7362 30.2362 28.2029 30.2362C28.6696 30.2362 29.0551 30.6217 29.0551 31.0884V31.1493C29.4406 30.642 29.9681 30.1754 30.8406 30.1754C31.6319 30.1754 32.2203 30.5203 32.5449 31.129C33.0725 30.5203 33.7014 30.1754 34.513 30.1754C35.7913 30.1754 36.542 30.9464 36.542 32.387V35.5319C36.542 35.9985 36.1565 36.3841 35.6899 36.3841C35.2232 36.3841 34.8377 35.9985 34.8377 35.5319V32.9551C34.8377 32.1435 34.4725 31.7377 33.8435 31.7377C33.1942 31.7377 32.8087 32.1638 32.8087 32.9551V35.5319C32.8087 35.9985 32.4232 36.3841 31.9565 36.3841C31.4899 36.3841 31.1043 35.9985 31.1043 35.5319V32.9551C31.1043 32.1435 30.7391 31.7377 30.1101 31.7377C29.4609 31.7377 29.0754 32.1638 29.0754 32.9551V35.5319C29.0754 35.9985 28.6899 36.3841 28.2232 36.3841C27.7565 36.3841 27.371 35.9985 27.371 35.5319V31.0884H27.3507ZM37.1101 34.5783V34.558C37.1101 33.2391 38.1043 32.6304 39.5449 32.6304C40.1536 32.6304 40.6 32.7319 41.0261 32.8739V32.7725C41.0261 32.0623 40.5797 31.6768 39.7275 31.6768C39.2609 31.6768 38.8754 31.7377 38.5507 31.8391C38.4493 31.8797 38.3884 31.8797 38.3072 31.8797C37.9217 31.8797 37.5971 31.5754 37.5971 31.1898C37.5971 30.8855 37.7797 30.6217 38.0638 30.5203C38.6116 30.3174 39.1797 30.1956 39.9913 30.1956C40.9246 30.1956 41.5942 30.4391 42.0203 30.8652C42.4667 31.3116 42.6696 31.9812 42.6696 32.7927V35.5319C42.6696 35.9985 42.3043 36.3435 41.8377 36.3435C41.3507 36.3435 41.0261 35.9985 41.0261 35.6333V35.613C40.6 36.0797 40.0319 36.3841 39.2 36.3841C38.0435 36.4246 37.1101 35.7754 37.1101 34.5783ZM41.0261 34.1927V33.8884C40.742 33.7464 40.3565 33.6652 39.9304 33.6652C39.2 33.6652 38.7536 33.9493 38.7536 34.4971V34.5174C38.7536 34.9841 39.1391 35.2478 39.687 35.2478C40.4985 35.2478 41.0261 34.8217 41.0261 34.1927V34.1927ZM43.5623 31.0884C43.5623 30.6217 43.9478 30.2362 44.4145 30.2362C44.8812 30.2362 45.2667 30.6217 45.2667 31.0884V31.3522C45.5101 30.7638 45.9159 30.2362 46.4232 30.2362C46.9507 30.2362 47.2551 30.5812 47.2551 31.0681C47.2551 31.5145 46.971 31.7783 46.6058 31.8594C45.7333 32.0623 45.2667 32.7319 45.2667 33.929V35.5319C45.2667 35.9985 44.8812 36.3841 44.4145 36.3841C43.9478 36.3841 43.5623 35.9985 43.5623 35.5319V31.0884ZM47.7826 28.8971C47.7826 28.4304 48.1681 28.0449 48.6348 28.0449C49.1014 28.0449 49.487 28.4304 49.487 28.8971V35.5319C49.487 35.9985 49.1014 36.3841 48.6348 36.3841C48.1681 36.3841 47.7826 35.9985 47.7826 35.5319V28.8971ZM50.8464 37.987C50.6029 37.9058 50.2986 37.7029 50.2986 37.2768C50.2986 36.8507 50.6232 36.587 50.9681 36.587C51.1101 36.587 51.1913 36.6072 51.2522 36.6275C51.3942 36.6681 51.4957 36.6884 51.6174 36.6884C51.9217 36.6884 52.0638 36.6275 52.2261 36.3232L52.287 36.1812L50.2377 31.413C50.1971 31.2913 50.1565 31.129 50.1565 31.0275C50.1565 30.5406 50.5217 30.2159 51.0087 30.2159C51.4348 30.2159 51.6783 30.4594 51.8203 30.8652L53.1188 34.3754L54.3768 30.8855C54.5188 30.5203 54.7623 30.2362 55.1884 30.2362C55.6348 30.2362 56 30.5812 56 31.0275C56 31.1696 55.9594 31.3522 55.9188 31.4333L53.8087 36.4855C53.3015 37.7029 52.7942 38.1696 51.7797 38.1696C51.3942 38.1493 51.1304 38.0884 50.8464 37.987Z" fill="#4C4C4C"/>
<path d="M27.9989 21.4118C33.9115 21.4118 38.7047 16.6186 38.7047 10.7059C38.7047 4.79319 33.9115 0 27.9989 0C22.0862 0 17.293 4.79319 17.293 10.7059C17.293 16.6186 22.0862 21.4118 27.9989 21.4118Z" fill="#2BB673"/>
<path d="M30.1133 11.7303C29.6995 11.7303 29.3729 12.1169 29.4382 12.5717C29.5035 12.9128 29.8084 13.1401 30.135 13.1401H31.1803L31.79 13.0492C30.8101 14.5499 29.1334 15.2321 27.2824 14.9138C25.7799 14.6636 24.4951 13.5949 23.9507 12.1169C22.7095 8.75159 25.0613 5.52271 28.1317 5.52271C29.7213 5.52271 31.1367 6.50047 31.9424 7.68287V7.70561C32.1602 8.02395 32.5739 8.11491 32.8788 7.88752C33.1619 7.68287 33.249 7.27358 33.0748 6.95524C31.9642 5.13615 29.9608 3.97648 27.7179 4.13565C24.8 4.38577 22.4264 6.88702 22.2522 9.95674C22.0562 13.5267 24.7564 16.4145 28.1317 16.4145C29.8955 16.4145 31.4851 15.6187 32.5522 14.2998L32.4215 15.0502V15.7323C32.4215 16.0734 32.6393 16.3918 32.9659 16.46C33.4014 16.5509 33.7716 16.1871 33.7716 15.7551V11.7303H30.1133Z" fill="white"/>
</svg>
