<?xml version="1.0" encoding="UTF-8"?>
<svg width="640px" height="448px" viewBox="0 0 640 448" version="1.1" xmlns="http://www.w3.org/2000/svg" xmlns:xlink="http://www.w3.org/1999/xlink">
    <title>logo-g2-crowd</title>
    <g id="Page-1" stroke="none" stroke-width="1" fill="none" fill-rule="evenodd">
        <g id="logo-g2-crowd">
            <path d="M321.515485,263 L322.654708,263.006959 C328.349665,263.076536 334.025669,263.667749 339.614542,264.774804 L339.614542,264.774804 L321.515485,302.643473 C292.365434,302.643473 268.649939,326.355097 268.649939,355.500392 C268.649939,384.645686 292.365434,408.357311 321.515485,408.357311 L321.515485,408.357311 L322.172048,408.353289 C335.065875,408.195271 346.853618,403.389376 355.958803,395.548928 L355.958803,395.548928 L376,430.257452 C360.716577,441.412007 341.886876,448 321.515485,448 C270.420347,448 229,406.587192 229,355.500392 C229,304.413591 270.420347,263 321.515485,263 L321.515485,263 Z M386.99902,342.695482 L410,382.348132 L386.99902,422 L363.999608,382.348132 L318,382.348132 L341.000196,342.695482 L386.99902,342.695482 Z M369.732795,270 C375.523235,270 380.5584,271.502763 384.671236,274.594162 C388.866423,277.684779 390.964408,281.945601 390.964408,287.375845 C390.964408,295.980237 386.097082,301.243421 376.949081,305.920332 L376.949081,305.920332 L371.83078,308.509768 C366.374449,311.266265 363.689812,313.689422 362.933753,318.032993 L362.933753,318.032993 L390.713434,318.032993 L390.713434,329.477412 L348.665882,329.477412 L348.665882,327.556998 C348.665882,320.45615 350.093297,314.524724 352.945773,309.931343 C355.799818,305.25209 360.751848,301.158329 367.885783,297.56653 L367.885783,297.56653 L371.15864,295.980237 C376.949081,293.055899 378.461199,290.549993 378.461199,287.542125 C378.461199,283.951106 375.355396,281.360889 370.320231,281.360889 L370.320231,281.360889 L369.964353,281.364599 C364.179687,281.485784 359.766618,284.576833 356.722931,290.717834 L356.722931,290.717834 L348.665882,282.695811 C350.428975,278.937732 353.282235,275.930645 357.059393,273.591018 C360.919687,271.168642 365.115658,270 369.732795,270 Z" id="Combined-Shape" fill="#FF3E0D"></path>
            <path d="M59.9165605,7.10542736e-15 L78.431796,37.5159647 L119.833121,43.5319294 L89.8748408,72.7340353 L96.9470314,113.968071 L59.9165605,94.5 L22.8860896,113.968071 L29.9582803,72.7340353 L2.55795385e-13,43.5319294 L41.4013251,37.5159647 L59.9165605,7.10542736e-15 Z M189.916561,7.10542736e-15 L208.431796,37.5159647 L249.833121,43.5319294 L219.874841,72.7340353 L226.947031,113.968071 L189.916561,94.5 L152.88609,113.968071 L159.95828,72.7340353 L130,43.5319294 L171.401325,37.5159647 L189.916561,7.10542736e-15 Z M319.916561,7.10542736e-15 L338.431796,37.5159647 L379.833121,43.5319294 L349.874841,72.7340353 L356.947031,113.968071 L319.916561,94.5 L282.88609,113.968071 L289.95828,72.7340353 L260,43.5319294 L301.401325,37.5159647 L319.916561,7.10542736e-15 Z M449.916561,7.10542736e-15 L468.431796,37.5159647 L509.833121,43.5319294 L479.874841,72.7340353 L486.947031,113.968071 L449.916561,94.5 L412.88609,113.968071 L419.95828,72.7340353 L390,43.5319294 L431.401325,37.5159647 L449.916561,7.10542736e-15 Z M579.916561,7.10542736e-15 L598.431796,37.5159647 L639.833121,43.5319294 L609.874841,72.7340353 L616.947031,113.968071 L579.916561,94.5 L542.88609,113.968071 L549.95828,72.7340353 L520,43.5319294 L561.401325,37.5159647 L579.916561,7.10542736e-15 Z" id="Combined-Shape" fill="#FEC51A"></path>
        </g>
    </g>
</svg>