<svg width="1197" height="1264" viewBox="0 0 1197 1264" fill="none" xmlns="http://www.w3.org/2000/svg">
<g opacity="0.1">
<mask id="mask0" mask-type="alpha" maskUnits="userSpaceOnUse" x="221" y="283" width="1236" height="701">
<path d="M1158.85 307.271C1177.95 310.346 1196.29 313.69 1213.75 317.269C1309.95 337.059 1378.83 363.776 1418.4 396.659C1458.92 430.322 1467.49 469.803 1443.87 513.982C1372.24 648.133 1308.37 728.212 1266.07 781.145C1247.02 804.974 1232.02 823.785 1223.26 839.098L1222.3 838.608L1223.26 839.098C1208.55 864.549 1155.69 892.998 1085.22 913.26C1009.36 935.081 930.046 942.917 867.571 934.774C781.43 923.573 685.641 930.026 620.364 937.369C544.39 945.975 464.778 961.115 407.641 977.884C370.691 988.703 334.916 983.486 304.098 962.885C250.824 927.185 219.32 849.919 222.062 761.235C223.299 719.201 224.708 675.748 228.933 634.273C233.574 588.396 241.482 550.008 252.905 516.888C266.575 477.333 285.683 444.026 311.239 414.95C339.769 382.62 375.644 356.283 420.985 334.625C498.353 297.562 702.024 277.085 916.175 284.76C1003.61 287.984 1086.39 295.656 1158.85 307.271ZM351.969 980.101C369.554 982.952 388.034 981.646 406.744 976.123C464.086 959.35 543.776 944.172 619.907 935.49C685.262 928.109 781.335 921.614 867.73 932.883C929.794 941.034 1008.83 933.239 1084.4 911.461C1154.43 891.316 1206.92 863.237 1221.31 838.228C1230.22 822.84 1245.25 803.919 1264.31 780.09C1306.53 727.195 1370.37 647.225 1441.92 513.113C1465.13 469.704 1456.72 430.91 1416.97 397.921C1377.68 365.287 1309.24 338.744 1213.33 319.092C1129.27 301.823 1026.49 290.658 916.016 286.651C702.276 278.968 499.094 299.399 421.911 336.277C376.854 357.893 341.115 383.974 312.77 416.118C287.351 444.938 268.35 478.097 254.737 517.433C229.12 591.316 226.497 677.746 224.011 761.342C221.365 849.407 252.426 926.028 305.121 961.34C319.823 971.219 335.482 977.484 351.969 980.101Z" fill="url(#paint0_linear)"/>
</mask>
<g mask="url(#mask0)">
<path d="M1158.86 307.271C1177.95 310.346 1196.29 313.69 1213.75 317.269C1309.96 337.059 1378.83 363.775 1418.4 396.657C1458.92 430.32 1467.49 469.801 1443.87 513.98C1372.24 648.13 1308.37 728.21 1266.07 781.142C1247.02 804.972 1232.02 823.783 1223.26 839.096L1222.3 838.606L1223.26 839.096C1208.55 864.547 1155.68 892.996 1085.22 913.259C1009.36 935.08 930.043 942.916 867.568 934.774C781.427 923.573 685.638 930.027 620.361 937.37C544.386 945.977 464.774 961.118 407.637 977.887C370.687 988.706 334.912 983.489 304.095 962.889C250.821 927.189 219.318 849.924 222.06 761.24C223.298 719.206 224.707 675.753 228.933 634.278C233.573 588.401 241.482 550.013 252.905 516.893C266.576 477.339 285.684 444.032 311.24 414.956C339.771 382.626 375.646 356.288 420.987 334.63C498.356 297.567 702.027 277.088 916.178 284.762C1003.61 287.985 1086.39 295.657 1158.86 307.271ZM351.965 980.105C369.55 982.955 388.03 981.648 406.74 976.126C464.082 959.352 543.773 944.173 619.903 935.491C685.259 928.11 781.332 921.615 867.727 932.883C929.791 941.033 1008.82 933.238 1084.4 911.46C1154.43 891.315 1206.92 863.235 1221.31 838.226C1230.22 822.838 1245.25 803.917 1264.3 780.088C1306.53 727.193 1370.37 647.223 1441.92 513.111C1465.13 469.702 1456.72 430.908 1416.97 397.92C1377.68 365.286 1309.24 338.743 1213.33 319.092C1129.28 301.824 1026.49 290.659 916.019 286.653C702.279 278.971 499.097 299.404 421.913 336.282C376.856 357.898 341.117 383.979 312.772 416.124C287.352 444.943 268.351 478.103 254.738 517.438C229.119 591.321 226.496 677.751 224.009 761.347C221.362 849.412 252.422 926.032 305.117 961.344C319.819 971.222 335.478 977.487 351.965 980.105Z" fill="white"/>
</g>
<mask id="mask1" mask-type="alpha" maskUnits="userSpaceOnUse" x="274" y="314" width="1136" height="649">
<path d="M1142.98 336.138C1158.09 338.565 1172.6 341.185 1186.59 343.961C1274.92 361.546 1338.15 385.65 1374.45 415.437C1411.19 445.579 1419.35 480.966 1398.56 520.623C1336.93 640.96 1278.57 717.989 1239.98 769.034C1221.84 792.99 1207.51 811.861 1198.77 827.354C1184.51 852.396 1135.35 880.011 1070.35 899.439C1000.76 920.229 926.892 928.103 867.701 920.949C788.204 910.925 700.02 916.466 639.987 922.799C569.493 930.281 498.273 943.078 444.615 957.782C410.793 967.086 377.946 961.885 349.757 942.685C300.83 909.369 271.914 838.299 274.301 757.138C276.499 680.556 278.747 601.468 302.786 532.265C315.489 495.852 333.03 465.118 356.616 438.332C382.863 408.443 415.877 384.159 457.473 364.027C528.71 329.263 716.158 309.286 913.197 315.408C996.203 318.102 1074.71 325.168 1142.98 336.138ZM395.08 959.225C410.773 961.749 427.189 960.774 443.816 956.164C497.63 941.384 568.928 928.549 639.55 921.101C699.661 914.73 788.1 909.257 867.803 919.277C926.739 926.364 1000.25 918.569 1069.6 897.893C1134.16 878.582 1182.9 851.266 1196.95 826.519C1205.84 810.949 1220.13 792.007 1238.34 768.013C1276.9 717.078 1335.18 640.087 1396.79 519.859C1417.12 480.901 1409.25 446.235 1373.23 416.696C1337.08 387.123 1274.21 363.23 1186.28 345.637C1109.03 330.232 1014.55 320.393 913.194 317.224C716.488 311.131 529.529 331.063 458.526 365.713C417.165 385.731 384.386 409.902 358.196 439.571C334.796 466.172 317.235 496.726 304.639 532.991C280.658 601.975 278.361 680.992 276.142 757.393C273.723 837.9 302.373 908.431 350.722 941.359C364.59 950.782 379.513 956.734 395.08 959.225Z" fill="url(#paint1_linear)"/>
</mask>
<g mask="url(#mask1)">
<path d="M1142.98 336.138C1158.09 338.565 1172.6 341.185 1186.59 343.961C1274.93 361.545 1338.15 385.648 1374.45 415.436C1411.19 445.577 1419.35 480.963 1398.56 520.621C1336.93 640.958 1278.57 717.987 1239.98 769.031C1221.84 792.987 1207.51 811.858 1198.77 827.352C1184.51 852.394 1135.34 880.009 1070.35 899.438C1000.76 920.227 926.889 928.102 867.698 920.948C788.201 910.925 700.017 916.467 639.984 922.8C569.489 930.282 498.269 943.079 444.611 957.784C410.789 967.088 377.942 961.887 349.753 942.688C300.826 909.372 271.91 838.302 274.298 757.142C276.497 680.56 278.746 601.472 302.785 532.269C315.489 495.856 333.03 465.122 356.616 438.336C382.864 408.447 415.878 384.163 457.474 364.031C528.712 329.267 716.16 309.289 913.2 315.41C996.205 318.103 1074.71 325.168 1142.98 336.138ZM395.076 959.227C410.769 961.751 427.185 960.776 443.812 956.165C497.627 941.385 568.925 928.55 639.547 921.102C699.658 914.731 788.097 909.257 867.8 919.276C926.736 926.363 1000.25 918.567 1069.6 897.891C1134.15 878.58 1182.9 851.264 1196.95 826.516C1205.84 810.947 1220.12 792.004 1238.34 768.01C1276.9 717.076 1335.18 640.084 1396.79 519.857C1417.12 480.898 1409.25 446.233 1373.23 416.694C1337.08 387.121 1274.21 363.229 1186.28 345.637C1109.03 330.232 1014.55 320.393 913.196 317.225C716.49 311.134 529.531 331.066 458.528 365.717C417.166 385.736 384.387 409.906 358.197 439.576C334.796 466.177 317.235 496.73 304.638 532.995C280.657 601.979 278.359 680.996 276.14 757.396C273.72 837.903 302.369 908.434 350.718 941.362C364.586 950.784 379.509 956.736 395.076 959.227Z" fill="white"/>
</g>
<mask id="mask2" mask-type="alpha" maskUnits="userSpaceOnUse" x="326" y="345" width="1037" height="597">
<path d="M1126.91 364.889C1138.03 366.668 1148.92 368.56 1159.41 370.642C1239.85 386.13 1297.38 407.55 1330.53 434.276C1363.5 460.898 1371.16 492.227 1353.26 527.434C1301.21 634.728 1250.24 705.984 1213.08 758.052C1196.19 781.694 1182.87 800.363 1174.21 815.819C1160.15 840.856 1115.73 867.034 1055.45 885.898C992.138 905.656 923.74 913.46 867.833 907.294C735.838 891.364 564.586 916.87 481.639 937.921C450.866 945.749 420.976 940.453 395.417 922.655C350.835 891.723 324.458 826.776 326.667 753.244C328.424 687.093 330.471 612.112 352.922 547.878C364.53 514.574 380.68 486.518 402.247 461.95C426.262 434.575 456.286 412.31 494.187 393.776C526.857 377.487 584.936 364.366 662.27 355.77C736.511 347.525 824.653 344.2 910.397 346.331C988.855 348.17 1062.96 354.596 1126.91 364.889ZM438.298 938.371C452.022 940.607 466.402 939.853 480.947 936.155C564.051 915.028 735.713 889.515 867.964 905.513C923.587 911.72 991.701 903.958 1054.73 884.242C1114.7 865.529 1158.78 839.613 1172.54 814.907C1181.23 799.342 1194.63 780.635 1211.52 756.994C1248.65 705.035 1299.54 633.817 1351.56 526.632C1369.14 492.157 1361.63 461.515 1329.34 435.425C1296.46 408.947 1239.24 387.667 1159.13 372.209C1088.63 358.595 1002.56 350.225 910.324 347.894C824.531 345.691 736.516 349.05 662.432 357.22C585.382 365.774 527.509 378.89 495.023 394.994C457.358 413.415 427.489 435.604 403.582 462.831C382.2 487.214 366.128 515.232 354.578 548.318C332.185 612.333 330.167 687.204 328.439 753.246C326.297 826.268 352.358 890.604 396.41 921.219C409.415 930.296 423.574 936.045 438.298 938.371Z" fill="url(#paint2_linear)"/>
</mask>
<g mask="url(#mask2)">
<path d="M1126.92 364.89C1138.04 366.669 1148.92 368.562 1159.42 370.643C1239.85 386.131 1297.38 407.55 1330.53 434.276C1363.51 460.897 1371.17 492.226 1353.26 527.433C1301.21 634.728 1250.25 705.984 1213.09 758.052C1196.19 781.693 1182.87 800.363 1174.21 815.818C1160.15 840.856 1115.73 867.034 1055.45 885.898C992.139 905.657 923.741 913.461 867.834 907.295C735.839 891.366 564.587 916.873 481.639 937.924C450.866 945.753 420.976 940.457 395.417 922.659C350.836 891.727 324.459 826.781 326.669 753.25C328.426 687.098 330.474 612.118 352.926 547.884C364.534 514.58 380.684 486.523 402.252 461.956C426.266 434.58 456.292 412.316 494.192 393.781C526.863 377.492 584.942 364.371 662.276 355.775C736.517 347.529 824.659 344.203 910.403 346.334C988.861 348.173 1062.97 354.598 1126.92 364.89ZM438.298 938.374C452.023 940.611 466.402 939.857 480.947 936.158C564.051 915.031 735.714 889.517 867.965 905.514C923.588 911.721 991.702 903.959 1054.73 884.242C1114.7 865.529 1158.78 839.612 1172.54 814.907C1181.23 799.342 1194.63 780.634 1211.52 756.993C1248.66 705.034 1299.54 633.817 1351.56 526.631C1369.14 492.157 1361.64 461.515 1329.34 435.425C1296.47 408.948 1239.24 387.668 1159.14 372.21C1088.64 358.597 1002.57 350.228 910.33 347.897C824.537 345.695 736.522 349.054 662.438 357.224C585.387 365.779 527.514 378.895 495.029 394.999C457.363 413.42 427.494 435.609 403.586 462.837C382.204 487.22 366.132 515.238 354.582 548.323C332.188 612.338 330.169 687.209 328.441 753.251C326.298 826.273 352.359 890.608 396.41 921.223C409.416 930.299 423.574 936.049 438.298 938.374Z" fill="white"/>
</g>
<mask id="mask3" mask-type="alpha" maskUnits="userSpaceOnUse" x="378" y="376" width="938" height="545">
<path d="M1110.77 393.506C1118.15 394.704 1125.25 395.945 1132.28 397.223C1204.82 410.615 1256.77 429.384 1286.65 453.015C1315.9 476.187 1323.07 503.459 1307.95 534.072C1265.02 629.312 1218.85 698.149 1185.21 748.513C1170.69 770.146 1158.16 788.909 1149.8 804.031C1136.19 828.66 1095.36 854.15 1040.71 872.104C983.668 890.831 920.666 898.602 868.043 893.424C815.702 887.443 750.44 887.524 679.316 893.784C622.227 898.788 563.664 907.56 518.695 917.773C490.923 924.054 464.166 918.769 441.109 902.338C400.953 873.752 377.163 815.001 378.989 749.104C380.685 679.832 383.622 617.979 402.886 563.213C413.526 533.051 428.109 507.568 447.657 485.219C469.36 460.395 496.503 440.002 530.707 423.066C560.493 407.887 613.159 395.381 683.188 387.074C750.125 379.118 829.776 375.414 907.448 376.869C981.478 378.177 1051.26 383.925 1110.77 393.506ZM481.511 917.63C493.344 919.54 505.532 919.084 517.994 916.298C563.12 906.01 621.683 897.237 678.899 892.267C750.15 886.041 815.491 885.922 867.96 891.938C920.376 897.119 983.095 889.39 1039.85 870.705C1094.14 852.83 1134.68 827.673 1148.15 803.301C1156.47 788.107 1169.05 769.416 1183.59 747.673C1217.29 697.381 1263.45 628.544 1306.27 533.451C1321.09 503.461 1314.11 476.767 1285.46 454.164C1255.81 430.71 1204.16 412.08 1132 398.79C1068.17 387.007 990.54 379.996 907.425 378.503C829.802 377.12 750.229 380.786 683.37 388.704C613.674 397.041 561.115 409.4 531.486 424.503C497.565 441.398 470.48 461.571 448.934 486.319C429.493 508.521 414.939 533.895 404.406 563.91C385.122 618.495 382.214 680.238 380.547 749.4C378.71 814.826 402.282 873.109 441.908 901.378C454.314 909.885 467.581 915.398 481.511 917.63Z" fill="url(#paint3_linear)"/>
</mask>
<g mask="url(#mask3)">
<path d="M1110.77 393.507C1118.16 394.706 1125.26 395.946 1132.29 397.224C1204.82 410.615 1256.78 429.384 1286.66 453.015C1315.91 476.187 1323.07 503.458 1307.95 534.071C1265.02 629.312 1218.86 698.148 1185.22 748.512C1170.7 770.146 1158.16 788.908 1149.8 804.031C1136.19 828.66 1095.36 854.149 1040.71 872.104C983.669 890.831 920.667 898.602 868.045 893.425C815.703 887.444 750.441 887.526 679.317 893.786C622.228 898.79 563.665 907.563 518.696 917.776C490.924 924.057 464.167 918.772 441.11 902.341C400.953 873.756 377.165 815.005 378.991 749.108C380.688 679.837 383.625 617.984 402.89 563.218C413.53 533.056 428.113 507.573 447.661 485.224C469.365 460.4 496.508 440.007 530.712 423.071C560.498 407.891 613.164 395.386 683.194 387.078C750.131 379.121 829.782 375.417 907.454 376.871C981.484 378.179 1051.27 383.927 1110.77 393.507ZM481.511 917.633C493.345 919.543 505.532 919.087 517.995 916.301C563.121 906.012 621.684 897.239 678.9 892.269C750.152 886.043 815.492 885.924 867.961 891.938C920.378 897.119 983.096 889.39 1039.85 870.705C1094.14 852.83 1134.68 827.673 1148.15 803.301C1156.47 788.106 1169.05 769.416 1183.6 747.673C1217.29 697.38 1263.45 628.544 1306.27 533.45C1321.1 503.46 1314.12 476.766 1285.47 454.164C1255.81 430.71 1204.16 412.081 1132.01 398.791C1068.18 387.008 990.546 379.998 907.43 378.505C829.807 377.123 750.235 380.789 683.376 388.708C613.679 397.046 561.121 409.404 531.491 424.508C497.57 441.402 470.485 461.576 448.938 486.324C429.497 508.526 414.943 533.9 404.41 563.915C385.125 618.499 382.217 680.243 380.549 749.404C378.711 814.83 402.282 873.113 441.909 901.382C454.315 909.888 467.581 915.401 481.511 917.633Z" fill="white"/>
</g>
<mask id="mask4" mask-type="alpha" maskUnits="userSpaceOnUse" x="430" y="407" width="839" height="493">
<path d="M1094.39 421.945C1098.04 422.564 1101.65 423.11 1105.22 423.766C1169.86 435.061 1216.12 451.146 1242.85 471.716C1268.33 491.367 1275 514.581 1262.68 540.782C1228.48 625.211 1186.36 692.659 1155.61 741.913C1143.41 761.467 1132.89 778.302 1125.23 792.321C1111.75 816.983 1075.58 841.074 1025.73 858.425C974.881 876.159 917.431 883.82 868.015 879.67C770.379 869.167 637.611 881.681 555.511 897.74C530.789 902.545 506.989 897.166 486.483 882.174C450.751 855.935 429.55 803.379 431.07 745.078C432.333 685.946 434.847 628.786 452.659 578.733C462.252 551.751 475.396 528.875 492.925 508.744C512.345 486.361 536.627 468.023 567.008 452.65C593.938 438.471 641.289 426.724 703.916 418.562C763.579 410.785 834.758 406.884 904.388 407.553C974.047 408.111 1039.46 413.11 1094.39 421.945ZM524.845 896.925C534.661 898.475 544.862 898.312 555.144 896.295C637.322 880.198 770.295 867.68 868.137 878.179C917.269 882.371 974.464 874.642 1025.07 857.022C1074.49 839.788 1110.52 815.955 1123.78 791.587C1131.4 777.496 1142 760.624 1154.19 741.069C1184.87 691.854 1226.96 624.515 1261.16 540.085C1273.18 514.508 1266.7 491.871 1241.85 472.68C1215.39 452.358 1169.34 436.27 1105.08 425.076C1047.98 415.194 978.703 409.581 904.706 408.926C835.204 408.291 764.152 412.226 704.518 419.893C642.048 427.98 594.902 439.723 568.129 453.827C537.903 469.123 513.778 487.386 494.465 509.621C477.043 529.605 463.929 552.372 454.442 579.207C436.737 629.112 434.175 686.2 432.892 745.151C431.331 803.09 452.266 855.107 487.595 881.063C499.129 889.514 511.631 894.824 524.845 896.925Z" fill="url(#paint4_linear)"/>
</mask>
<g mask="url(#mask4)">
<path d="M1094.39 421.946C1098.05 422.565 1101.65 423.111 1105.23 423.767C1169.87 435.062 1216.12 451.146 1242.86 471.716C1268.33 491.367 1275.01 514.581 1262.69 540.781C1228.49 625.211 1186.37 692.659 1155.61 741.912C1143.41 761.467 1132.89 778.301 1125.23 792.32C1111.75 816.983 1075.58 841.073 1025.73 858.425C974.883 876.159 917.432 883.821 868.016 879.67C770.38 869.168 637.612 881.683 555.512 897.742C530.79 902.548 506.99 897.169 486.484 882.177C450.752 855.938 429.551 803.383 431.072 745.082C432.336 685.95 434.85 628.791 452.662 578.738C462.256 551.756 475.4 528.879 492.929 508.749C512.35 486.366 536.631 468.027 567.013 452.655C593.943 438.476 641.295 426.728 703.922 418.565C763.584 410.788 834.764 406.887 904.394 407.555C974.053 408.113 1039.47 413.112 1094.39 421.946ZM524.846 896.928C534.661 898.478 544.862 898.314 555.144 896.297C637.323 880.2 770.296 867.681 868.138 878.179C917.271 882.371 974.466 874.642 1025.08 857.022C1074.49 839.787 1110.52 815.954 1123.79 791.586C1131.4 777.495 1142 760.623 1154.2 741.069C1184.88 691.853 1226.97 624.514 1261.17 540.085C1273.19 514.507 1266.7 491.871 1241.85 472.68C1215.39 452.359 1169.34 436.27 1105.09 425.077C1047.98 415.196 978.709 409.583 904.712 408.928C835.21 408.294 764.157 412.229 704.524 419.897C642.053 427.984 594.907 439.728 568.133 453.831C537.908 469.128 513.783 487.391 494.469 509.626C477.047 529.609 463.933 552.377 454.446 579.211C436.74 629.117 434.177 686.204 432.894 745.155C431.332 803.094 452.267 855.11 487.596 881.066C499.13 889.517 511.631 894.827 524.846 896.928Z" fill="white"/>
</g>
<mask id="mask5" mask-type="alpha" maskUnits="userSpaceOnUse" x="483" y="438" width="739" height="441">
<path d="M1077.79 450.205C1077.92 450.239 1078.04 450.273 1078.17 450.307C1134.86 459.434 1175.59 472.939 1199.06 490.414C1220.76 506.544 1226.99 525.773 1217.42 547.489C1191.77 622.817 1152.49 690.605 1123.86 740.07C1114.92 755.566 1107.15 768.969 1100.91 780.673C1087.81 804.964 1055.11 828.331 1011.03 844.698C966.413 861.328 914.33 869.066 868.277 865.866C826.028 861.684 775.678 861.327 718.567 864.625C675.628 867.173 629.722 871.921 592.62 877.658C570.948 880.987 550.027 875.552 532.179 861.852C500.921 838.031 482.308 791.672 483.601 740.928C484.42 691.465 486.599 639.433 502.881 594.132C511.429 570.33 523.083 549.988 538.593 532.076C555.78 512.207 577.072 495.889 603.758 482.114C651.329 456.131 771.122 438.535 901.775 438.117C966.651 437.934 1027.44 442.116 1077.79 450.205ZM568.287 876.356C576.134 877.618 584.171 877.642 592.273 876.394C629.375 870.657 675.359 865.871 718.347 863.395C775.537 860.059 826.014 860.45 868.341 864.594C914.139 867.726 965.938 860.031 1010.4 843.475C1054.11 827.189 1086.68 804.078 1099.52 780.01C1105.75 768.307 1113.53 754.903 1122.47 739.407C1151.1 689.943 1190.3 622.192 1215.92 546.974C1225.27 525.843 1219.25 507.082 1198.05 491.378C1174.82 474.08 1134.38 460.714 1077.9 451.583C1077.78 451.549 1077.65 451.515 1077.52 451.481C1027.3 443.426 966.509 439.244 901.838 439.422C771.547 439.761 652.038 457.315 604.623 483.223C578.094 496.921 556.88 513.202 539.8 532.924C524.397 550.689 512.772 570.921 504.253 594.613C488 639.805 485.85 691.727 484.982 741.119C483.678 791.391 502.123 837.354 532.978 860.893C543.875 869.174 555.739 874.315 568.287 876.356Z" fill="url(#paint5_linear)"/>
</mask>
<g mask="url(#mask5)">
<path d="M1077.79 450.206C1077.92 450.24 1078.05 450.274 1078.17 450.307C1134.86 459.434 1175.6 472.939 1199.06 490.414C1220.76 506.544 1226.99 525.772 1217.43 547.488C1191.77 622.816 1152.49 690.605 1123.86 740.069C1114.92 755.565 1107.15 768.968 1100.91 780.672C1087.8 804.963 1055.1 828.331 1011.03 844.697C966.411 861.328 914.328 869.066 868.275 865.866C826.026 861.684 775.676 861.328 718.564 864.626C675.626 867.174 629.719 871.923 592.617 877.66C570.945 880.99 550.024 875.555 532.176 861.855C500.919 838.034 482.306 791.675 483.6 740.931C484.418 691.468 486.598 639.437 502.88 594.136C511.429 570.334 523.083 549.992 538.593 532.08C555.78 512.211 577.073 495.892 603.758 482.118C651.331 456.135 771.123 438.538 901.776 438.118C966.653 437.936 1027.44 442.117 1077.79 450.206ZM568.285 876.358C576.131 877.621 584.168 877.644 592.27 876.396C629.372 870.659 675.357 865.873 718.344 863.396C775.534 860.06 826.012 860.45 868.338 864.594C914.137 867.726 965.936 860.031 1010.4 843.475C1054.11 827.188 1086.68 804.077 1099.52 780.009C1105.75 768.306 1113.53 754.902 1122.47 739.406C1151.1 689.942 1190.3 622.191 1215.93 546.973C1225.27 525.842 1219.26 507.081 1198.05 491.378C1174.82 474.08 1134.39 460.714 1077.9 451.583C1077.78 451.55 1077.65 451.516 1077.52 451.482C1027.3 443.427 966.511 439.245 901.84 439.424C771.549 439.764 652.04 457.319 604.624 483.226C578.094 496.925 556.88 513.206 539.8 532.928C524.397 550.693 512.772 570.925 504.253 594.617C488 639.809 485.849 691.731 484.981 741.122C483.676 791.394 502.12 837.357 532.975 860.895C543.872 869.177 555.736 874.317 568.285 876.358Z" fill="white"/>
</g>
<mask id="mask6" mask-type="alpha" maskUnits="userSpaceOnUse" x="535" y="468" width="640" height="390">
<path d="M1061.11 478.207C1104.78 485.229 1136.55 495.533 1155.35 508.96C1173.25 521.678 1178.91 536.887 1172.1 554.12C1155.42 622.043 1116.83 693.699 1088.68 745.983C1084.25 754.238 1080.09 761.979 1076.41 768.913C1063.56 793.27 1035.03 815.284 996.198 830.929C957.049 846.726 911.654 854.187 868.396 852.021C838.608 849.447 755.852 844.824 629.635 857.608C610.935 859.499 592.922 853.899 577.654 841.528C550.9 820.016 534.924 779.924 535.932 736.958C536.372 696.653 538.151 650.259 552.932 609.6C568.526 566.638 597.17 534.638 640.414 511.609C661.603 499.541 698.177 489.095 746.302 481.363C792.08 474.004 844.907 469.629 899.146 468.675C955.03 467.688 1007.67 470.469 1051.34 476.728C1054.56 477.173 1057.83 477.69 1061.11 478.207ZM611.891 855.886C617.641 856.827 623.466 856.967 629.415 856.378C649.584 854.349 690.578 850.642 738.089 848.839C787.939 846.955 831.807 847.583 868.51 850.821C911.561 852.991 956.673 845.572 995.665 829.851C1034.27 814.319 1062.48 792.456 1075.27 768.318C1078.9 761.313 1083.14 753.534 1087.54 745.388C1115.69 693.104 1154.33 621.52 1170.9 553.744L1170.93 553.634C1177.39 536.953 1171.95 522.212 1154.5 509.848C1134.77 495.822 1098.97 484.798 1051.1 477.895C1007.51 471.597 954.995 468.851 899.189 469.799C845.156 470.749 792.329 475.125 746.629 482.446C698.66 490.102 662.164 500.51 641.21 512.465C598.201 535.38 569.791 567.267 554.284 609.9C539.561 650.34 537.86 696.696 537.371 736.929C536.372 779.605 552.179 819.301 578.581 840.602C588.606 848.828 599.931 853.943 611.891 855.886Z" fill="url(#paint6_linear)"/>
</mask>
<g mask="url(#mask6)">
<path d="M1061.11 478.207C1104.78 485.229 1136.55 495.533 1155.35 508.96C1173.26 521.678 1178.91 536.887 1172.1 554.119C1155.42 622.042 1116.83 693.698 1088.68 745.982C1084.25 754.237 1080.08 761.979 1076.41 768.912C1063.56 793.269 1035.03 815.283 996.196 830.929C957.047 846.726 911.652 854.186 868.394 852.021C838.606 849.447 755.849 844.825 629.633 857.61C610.932 859.501 592.919 853.9 577.652 841.53C550.897 820.019 534.922 779.926 535.931 736.96C536.371 696.655 538.151 650.262 552.931 609.603C568.526 566.641 597.171 534.641 640.415 511.613C661.604 499.544 698.178 489.098 746.304 481.366C792.081 474.006 844.908 469.631 899.148 468.676C955.031 467.69 1007.67 470.47 1051.34 476.729C1054.56 477.174 1057.84 477.691 1061.11 478.207ZM611.888 855.888C617.638 856.828 623.463 856.968 629.413 856.38C649.582 854.351 690.576 850.643 738.087 848.84C787.937 846.955 831.805 847.584 868.508 850.821C911.559 852.99 956.671 845.571 995.663 829.85C1034.27 814.318 1062.48 792.455 1075.27 768.317C1078.9 761.312 1083.14 753.533 1087.54 745.387C1115.69 693.104 1154.33 621.519 1170.91 553.743L1170.94 553.634C1177.39 536.953 1171.96 522.212 1154.51 509.848C1134.77 495.822 1098.97 484.798 1051.1 477.895C1007.51 471.598 954.996 468.852 899.191 469.801C845.157 470.751 792.33 475.127 746.631 482.448C698.661 490.105 662.165 500.513 641.211 512.468C598.201 535.384 569.791 567.27 554.283 609.903C539.561 650.343 537.859 696.699 537.37 736.932C536.37 779.608 552.177 819.304 578.578 840.604C588.603 848.83 599.929 853.944 611.888 855.888Z" fill="white"/>
</g>
<mask id="mask7" mask-type="alpha" maskUnits="userSpaceOnUse" x="588" y="498" width="541" height="341">
<path d="M1043.08 505.618C1074.13 510.636 1097.66 518.052 1111.76 527.359C1125.91 536.738 1130.99 547.927 1126.83 560.823C1121.41 623.293 1072.7 717.213 1051.88 757.261C1025.83 807.285 950.413 840.635 868.493 838.283C803.743 833.635 726.538 835.874 680.379 837.214C675.496 837.382 670.895 837.509 666.579 837.593C650.801 837.975 635.745 832.28 622.93 821.206C600.806 802.037 587.546 768.175 588.269 732.985C588.422 697.118 590.329 659.255 602.959 625.176C616.404 588.793 640.648 561.311 677.047 541.213C713.029 519.599 799.188 503.1 896.444 499.271C943.208 497.447 987.487 498.83 1024.44 503.188C1030.89 503.787 1037.08 504.61 1043.08 505.618ZM655.697 835.701C659.223 836.285 662.914 836.503 666.535 836.469C670.803 836.313 675.403 836.186 680.258 836.127C726.417 834.787 803.749 832.582 868.499 837.23C949.88 839.556 1024.83 806.434 1050.71 756.776C1071.56 716.618 1120.17 622.846 1125.61 560.557L1125.56 560.485C1129.65 548.099 1124.69 537.233 1110.99 528.209C1094.4 517.245 1064.3 508.905 1024.25 504.135C987.383 499.739 943.231 498.39 896.467 500.214C799.417 504.04 713.493 520.425 677.666 541.964C596.926 586.67 589.767 660.864 589.424 732.999C588.71 767.898 601.851 801.436 623.749 820.428C633.362 828.661 644.198 833.821 655.697 835.701Z" fill="url(#paint7_linear)"/>
</mask>
<g mask="url(#mask7)">
<path d="M1043.08 505.618C1074.13 510.636 1097.66 518.052 1111.76 527.358C1125.91 536.737 1130.99 547.927 1126.83 560.822C1121.41 623.292 1072.7 717.212 1051.88 757.26C1025.83 807.284 950.411 840.634 868.491 838.283C803.741 833.635 726.536 835.875 680.377 837.215C675.493 837.383 670.893 837.51 666.577 837.594C650.799 837.976 635.743 832.282 622.928 821.207C600.804 802.039 587.544 768.177 588.268 732.988C588.421 697.12 590.329 659.258 602.959 625.178C616.404 588.796 640.648 561.313 677.048 541.216C713.03 519.601 799.189 503.102 896.446 499.272C943.209 497.448 987.489 498.83 1024.44 503.188C1030.89 503.788 1037.08 504.61 1043.08 505.618ZM655.695 835.702C659.221 836.287 662.912 836.505 666.533 836.47C670.801 836.314 675.401 836.187 680.256 836.128C726.415 834.788 803.747 832.582 868.497 837.23C949.879 839.555 1024.83 806.433 1050.71 756.775C1071.56 716.617 1120.17 622.845 1125.61 560.556L1125.56 560.484C1129.65 548.098 1124.69 537.233 1110.99 528.208C1094.4 517.244 1064.3 508.905 1024.25 504.135C987.384 499.74 943.232 498.391 896.469 500.215C799.418 504.041 713.493 520.427 677.667 541.966C596.926 586.673 589.767 660.866 589.423 733.001C588.708 767.9 601.849 801.438 623.747 820.429C633.36 828.662 644.196 833.822 655.695 835.702Z" fill="white"/>
</g>
<mask id="mask8" mask-type="alpha" maskUnits="userSpaceOnUse" x="640" y="527" width="443" height="298">
<path d="M1024.6 532.207C1043.56 535.247 1058.55 539.636 1068.29 545.325C1078.81 551.398 1083.19 558.825 1081.46 567.389C1085.45 585.313 1080.73 613.934 1067.46 652.523C1057.75 680.697 1043.16 714.484 1027.33 745.428C1001.89 794.962 942.569 824.435 868.575 824.36C842.809 823.086 815.929 822.161 789.92 821.291C756.344 820.171 724.589 819.123 703.51 817.395C685.838 815.926 669.513 805.502 657.636 788.059C646.398 771.547 640.114 749.965 640.418 728.726C640.21 680.057 646.866 655.935 652.75 640.394C664.043 610.592 683.858 587.736 713.314 570.427C743.584 550.815 812.637 535.053 893.354 529.297C945.225 525.668 991.123 526.838 1024.6 532.207ZM699.854 816.014C701.108 816.171 702.361 816.328 703.615 816.485C724.566 818.18 756.37 819.299 789.946 820.42C815.955 821.289 842.835 822.215 868.601 823.488C942.106 823.609 1001.12 794.287 1026.34 745.048C1042.14 714.214 1056.68 680.355 1066.44 652.252C1079.72 613.664 1084.4 585.152 1080.36 567.447L1080.31 567.375L1080.34 567.266C1082.02 559.102 1077.77 551.999 1067.67 546.099C1040.98 530.579 974.349 524.553 893.759 530.342C813.248 536.093 744.351 551.78 714.237 571.316C684.888 588.478 665.23 611.258 653.995 640.842C642.788 670.316 641.539 703.369 641.671 728.883C641.347 749.941 647.611 771.341 658.701 787.639C669.496 803.506 684.038 813.457 699.854 816.014Z" fill="url(#paint8_linear)"/>
</mask>
<g mask="url(#mask8)">
<path d="M1024.6 532.207C1043.56 535.247 1058.55 539.635 1068.29 545.324C1078.81 551.397 1083.19 558.825 1081.47 567.388C1085.45 585.313 1080.74 613.933 1067.46 652.522C1057.75 680.696 1043.16 714.483 1027.33 745.427C1001.89 794.961 942.568 824.434 868.573 824.36C842.807 823.086 815.927 822.161 789.918 821.291C756.342 820.171 724.588 819.124 703.508 817.395C685.836 815.927 669.512 805.503 657.634 788.06C646.397 771.548 640.112 749.966 640.417 728.727C640.21 680.059 646.865 655.937 652.75 640.396C664.044 610.593 683.858 587.738 713.315 570.429C743.585 550.816 812.638 535.054 893.355 529.298C945.226 525.668 991.125 526.837 1024.6 532.207ZM699.853 816.015C701.106 816.172 702.359 816.329 703.613 816.486C724.565 818.18 756.369 819.299 789.944 820.42C815.953 821.289 842.834 822.214 868.599 823.488C942.105 823.608 1001.12 794.286 1026.34 745.047C1042.14 714.213 1056.68 680.354 1066.44 652.251C1079.72 613.663 1084.4 585.152 1080.36 567.446L1080.31 567.374L1080.34 567.265C1082.02 559.101 1077.77 551.998 1067.68 546.098C1040.98 530.579 974.35 524.553 893.76 530.343C813.249 536.094 744.352 551.781 714.238 571.318C684.889 588.48 665.23 611.26 653.994 640.843C642.787 670.317 641.538 703.371 641.67 728.884C641.346 749.942 647.61 771.343 658.7 787.64C669.495 803.507 684.036 813.458 699.853 816.015Z" fill="white"/>
</g>
<mask id="mask9" mask-type="alpha" maskUnits="userSpaceOnUse" x="692" y="554" width="353" height="257">
<path d="M1005.16 557.238C1013 558.5 1019.57 560.186 1024.54 562.266C1031.85 565.316 1035.78 569.231 1036.26 573.867C1049.23 585.625 1044.34 617.764 1037.89 642.64C1030.61 670.689 1017.57 704.766 1002.97 733.685C990.386 758.572 973.611 776.9 951.639 789.632C929.247 802.663 902.164 809.472 868.837 810.524C818.601 809.548 768.311 804.4 740.619 797.285C727.17 793.775 714.833 784 705.944 769.695C697.616 756.358 692.897 739.939 692.998 724.623C692.135 684.104 697.82 633.26 750.19 599.901C774.69 582.51 827.029 567.296 890.061 559.311C936.211 553.581 978.23 552.903 1005.16 557.238ZM764.962 801.345C793.143 805.837 830.939 809.016 868.707 809.728C901.829 808.68 928.833 801.909 951.069 788.954C972.884 776.297 989.552 758.116 1001.98 733.305C1029.25 679.171 1057.63 594.061 1035.32 574.321L1035.15 574.215L1035.13 574.034C1034.72 569.651 1031.05 565.985 1024.01 563.002C1002.18 553.813 949.664 552.7 890.162 560.216C827.208 568.163 775.025 583.302 750.682 600.617C698.624 633.825 692.948 684.379 693.791 724.716C693.67 739.851 698.368 756.089 706.647 769.354C715.467 783.407 727.5 793.042 740.695 796.485C747.6 798.201 755.739 799.892 764.962 801.345Z" fill="url(#paint9_linear)"/>
</mask>
<g mask="url(#mask9)">
<path d="M1005.16 557.238C1013 558.5 1019.58 560.185 1024.54 562.265C1031.85 565.316 1035.78 569.23 1036.26 573.866C1049.23 585.624 1044.34 617.763 1037.89 642.639C1030.61 670.688 1017.57 704.765 1002.97 733.684C990.385 758.571 973.61 776.899 951.638 789.631C929.246 802.662 902.163 809.471 868.835 810.523C818.6 809.548 768.309 804.4 740.618 797.285C727.169 793.775 714.832 784.001 705.942 769.695C697.615 756.359 692.896 739.94 692.997 724.624C692.134 684.105 697.82 633.261 750.191 599.901C774.69 582.511 827.03 567.296 890.062 559.311C936.212 553.581 978.232 552.903 1005.16 557.238ZM764.961 801.345C793.142 805.837 830.938 809.016 868.705 809.727C901.827 808.679 928.832 801.908 951.068 788.953C972.884 776.296 989.551 758.115 1001.98 733.304C1029.25 679.17 1057.63 594.06 1035.32 574.32L1035.15 574.214L1035.13 574.033C1034.72 569.65 1031.06 565.984 1024.01 563.001C1002.18 553.812 949.665 552.7 890.163 560.217C827.209 568.163 775.026 583.302 750.683 600.618C698.624 633.826 692.947 684.38 693.79 724.717C693.669 739.852 698.367 756.09 706.646 769.355C715.466 783.408 727.499 793.043 740.693 796.486C747.599 798.201 755.737 799.892 764.961 801.345Z" fill="white"/>
</g>
<mask id="mask10" mask-type="alpha" maskUnits="userSpaceOnUse" x="744" y="577" width="267" height="220">
<path d="M982.999 577.908C986.397 578.458 988.993 579.206 990.681 580.298C996.426 580.476 1000.93 582.783 1004.16 587.038C1013.59 599.556 1010.12 626.336 1005.43 646.643C999.928 670.777 989.814 698.957 978.418 721.936C965.545 747.92 952.619 764.578 936.747 775.885C919.8 787.904 898.215 794.533 868.882 796.704C835.551 797.756 799.634 790.04 777.429 777.119C757.548 765.459 745.423 739.166 745.11 720.518C743.168 681.758 757.08 651.072 786.616 629.335C797.671 620.263 814.258 611.663 835.809 603.619C854.477 596.685 876.484 590.519 899.349 585.752C935.338 578.261 967.517 575.38 982.999 577.908ZM990.478 581.064L990.351 581.03C988.791 579.972 986.273 579.186 983.002 578.67C948.815 573.17 830.296 594.835 787.47 629.971C758.168 651.595 744.236 682.1 746.236 720.641C746.529 739.108 758.535 765.077 778.112 776.597C800.14 789.413 835.803 797.062 869.006 795.976C898.183 793.88 919.612 787.327 936.48 775.346C952.274 764.076 965.094 747.566 977.888 721.62C989.284 698.641 999.369 670.57 1004.79 646.474C1009.38 626.314 1012.87 599.715 1003.59 587.412C1000.5 583.372 996.174 581.17 990.684 581.06L990.478 581.064Z" fill="url(#paint10_linear)"/>
</mask>
<g mask="url(#mask10)">
<path d="M983.004 577.909C986.402 578.459 988.998 579.207 990.686 580.299C996.431 580.477 1000.93 582.784 1004.17 587.039C1013.6 599.557 1010.12 626.337 1005.43 646.644C999.932 670.778 989.817 698.958 978.421 721.937C965.548 747.921 952.622 764.578 936.75 775.886C919.803 787.905 898.218 794.534 868.884 796.705C835.554 797.758 799.636 790.041 777.431 777.121C757.551 765.461 745.426 739.168 745.114 720.52C743.171 681.761 757.084 651.075 786.62 629.337C797.675 620.265 814.262 611.665 835.813 603.621C854.481 596.686 876.489 590.521 899.354 585.754C935.342 578.262 967.521 575.381 983.004 577.909ZM990.483 581.065L990.356 581.031C988.796 579.973 986.277 579.187 983.007 578.671C948.82 573.171 830.3 594.837 787.474 629.974C758.172 651.598 744.239 682.103 746.239 720.643C746.532 739.11 758.538 765.079 778.115 776.599C800.143 789.415 835.806 797.063 869.009 795.977C898.186 793.881 919.615 787.328 936.483 775.347C952.278 764.077 965.097 747.567 977.892 721.62C989.288 698.641 999.374 670.571 1004.8 646.475C1009.38 626.315 1012.88 599.716 1003.59 587.413C1000.5 583.373 996.179 581.171 990.688 581.061L990.483 581.065Z" fill="white"/>
</g>
<mask id="mask11" mask-type="alpha" maskUnits="userSpaceOnUse" x="797" y="584" width="182" height="200">
<path d="M961.405 584.911C964.803 585.461 967.714 586.819 970.139 588.985C976.265 594.417 982.381 607.868 976.739 641.034C972.966 663.279 964.567 689.097 954.282 710.199C942.113 735.075 933.883 750.984 922.28 762.133C910.179 773.619 894.955 779.65 869.369 782.872C855.275 784.636 842.505 781.657 831.468 773.926C807.482 757.196 798.729 723.84 797.87 716.527C796.254 702.807 800.585 688.498 810.748 674.039C819.489 661.603 832.624 649.045 849.732 636.663C880.668 614.25 919.45 596.437 945.396 587.22C951.522 584.923 956.882 584.237 961.405 584.911ZM853.094 782.066C858.254 782.908 863.616 782.985 869.259 782.257C894.64 779.039 909.834 773.117 921.779 761.707C933.354 750.668 941.505 734.797 953.674 709.92C972.409 671.563 988.864 606.544 969.69 589.393C964.242 584.492 956.147 583.925 945.769 587.612C919.823 596.828 881.169 614.676 850.261 636.98C833.231 649.324 820.175 661.844 811.384 674.208C801.251 688.558 796.899 702.685 798.544 716.296C799.403 723.609 808.087 756.713 831.847 773.266C838.381 777.927 845.457 780.8 853.094 782.066Z" fill="url(#paint11_linear)"/>
</mask>
<g mask="url(#mask11)">
<path d="M961.406 584.91C964.804 585.46 967.715 586.818 970.14 588.984C976.266 594.416 982.382 607.867 976.74 641.033C972.966 663.277 964.567 689.096 954.282 710.197C942.112 735.074 933.883 750.983 922.279 762.132C910.178 773.617 894.955 779.649 869.368 782.871C855.274 784.635 842.504 781.656 831.467 773.925C807.481 757.196 798.728 723.84 797.87 716.527C796.254 702.806 800.585 688.498 810.748 674.039C819.489 661.603 832.624 649.045 849.732 636.663C880.669 614.25 919.451 596.436 945.397 587.219C951.523 584.922 956.883 584.236 961.406 584.91ZM853.093 782.065C858.253 782.907 863.615 782.984 869.258 782.256C894.639 779.038 909.833 773.116 921.778 761.706C933.353 750.666 941.505 734.795 953.674 709.919C972.409 671.561 988.865 606.542 969.691 589.392C964.243 584.491 956.148 583.924 945.77 587.611C919.824 596.828 881.169 614.675 850.262 636.979C833.232 649.323 820.175 661.843 811.384 674.208C801.251 688.557 796.899 702.685 798.544 716.296C799.402 723.609 808.086 756.712 831.846 773.265C838.38 777.926 845.456 780.8 853.093 782.065Z" fill="white"/>
</g>
</g>
<defs>
<linearGradient id="paint0_linear" x1="1039.6" y1="944.026" x2="683.225" y2="207.686" gradientUnits="userSpaceOnUse">
<stop stop-color="white"/>
<stop offset="0.0436152" stop-color="#B4B4B4"/>
<stop offset="0.1507"/>
<stop offset="0.1714" stop-color="#171717"/>
<stop offset="0.3859" stop-color="white"/>
<stop offset="0.6326" stop-color="#E6E6E6"/>
<stop offset="0.8567" stop-color="#1A1A1A"/>
<stop offset="0.9987"/>
</linearGradient>
<linearGradient id="paint1_linear" x1="1029.28" y1="926.335" x2="700.307" y2="246.616" gradientUnits="userSpaceOnUse">
<stop stop-color="white"/>
<stop offset="0.0436152" stop-color="#B4B4B4"/>
<stop offset="0.1507"/>
<stop offset="0.1714" stop-color="#171717"/>
<stop offset="0.3859" stop-color="white"/>
<stop offset="0.6326" stop-color="#E6E6E6"/>
<stop offset="0.8567" stop-color="#1A1A1A"/>
<stop offset="0.9987"/>
</linearGradient>
<linearGradient id="paint2_linear" x1="1019.09" y1="908.825" x2="717.413" y2="285.5" gradientUnits="userSpaceOnUse">
<stop stop-color="white"/>
<stop offset="0.0436152" stop-color="#B4B4B4"/>
<stop offset="0.1507"/>
<stop offset="0.1714" stop-color="#171717"/>
<stop offset="0.3859" stop-color="white"/>
<stop offset="0.6326" stop-color="#E6E6E6"/>
<stop offset="0.8567" stop-color="#1A1A1A"/>
<stop offset="0.9987"/>
</linearGradient>
<linearGradient id="paint3_linear" x1="1008.94" y1="891.311" x2="734.554" y2="324.373" gradientUnits="userSpaceOnUse">
<stop stop-color="white"/>
<stop offset="0.0436152" stop-color="#B4B4B4"/>
<stop offset="0.1507"/>
<stop offset="0.1714" stop-color="#171717"/>
<stop offset="0.3859" stop-color="white"/>
<stop offset="0.6326" stop-color="#E6E6E6"/>
<stop offset="0.8567" stop-color="#1A1A1A"/>
<stop offset="0.9987"/>
</linearGradient>
<linearGradient id="paint4_linear" x1="998.955" y1="873.99" x2="751.743" y2="363.2" gradientUnits="userSpaceOnUse">
<stop stop-color="white"/>
<stop offset="0.0436152" stop-color="#B4B4B4"/>
<stop offset="0.1507"/>
<stop offset="0.1714" stop-color="#171717"/>
<stop offset="0.3859" stop-color="white"/>
<stop offset="0.6326" stop-color="#E6E6E6"/>
<stop offset="0.8567" stop-color="#1A1A1A"/>
<stop offset="0.9987"/>
</linearGradient>
<linearGradient id="paint5_linear" x1="989.075" y1="856.735" x2="768.984" y2="401.978" gradientUnits="userSpaceOnUse">
<stop stop-color="white"/>
<stop offset="0.0436152" stop-color="#B4B4B4"/>
<stop offset="0.1507"/>
<stop offset="0.1714" stop-color="#171717"/>
<stop offset="0.3859" stop-color="white"/>
<stop offset="0.6326" stop-color="#E6E6E6"/>
<stop offset="0.8567" stop-color="#1A1A1A"/>
<stop offset="0.9987"/>
</linearGradient>
<linearGradient id="paint6_linear" x1="979.4" y1="839.677" x2="786.286" y2="440.658" gradientUnits="userSpaceOnUse">
<stop stop-color="white"/>
<stop offset="0.0436152" stop-color="#B4B4B4"/>
<stop offset="0.1507"/>
<stop offset="0.1714" stop-color="#171717"/>
<stop offset="0.3859" stop-color="white"/>
<stop offset="0.6326" stop-color="#E6E6E6"/>
<stop offset="0.8567" stop-color="#1A1A1A"/>
<stop offset="0.9987"/>
</linearGradient>
<linearGradient id="paint7_linear" x1="970.008" y1="822.83" x2="803.711" y2="479.215" gradientUnits="userSpaceOnUse">
<stop stop-color="white"/>
<stop offset="0.0436152" stop-color="#B4B4B4"/>
<stop offset="0.1507"/>
<stop offset="0.1714" stop-color="#171717"/>
<stop offset="0.3859" stop-color="white"/>
<stop offset="0.6326" stop-color="#E6E6E6"/>
<stop offset="0.8567" stop-color="#1A1A1A"/>
<stop offset="0.9987"/>
</linearGradient>
<linearGradient id="paint8_linear" x1="960.945" y1="806.111" x2="821.29" y2="517.54" gradientUnits="userSpaceOnUse">
<stop stop-color="white"/>
<stop offset="0.0436152" stop-color="#B4B4B4"/>
<stop offset="0.1507"/>
<stop offset="0.1714" stop-color="#171717"/>
<stop offset="0.3859" stop-color="white"/>
<stop offset="0.6326" stop-color="#E6E6E6"/>
<stop offset="0.8567" stop-color="#1A1A1A"/>
<stop offset="0.9987"/>
</linearGradient>
<linearGradient id="paint9_linear" x1="952.615" y1="789.625" x2="839.232" y2="555.335" gradientUnits="userSpaceOnUse">
<stop stop-color="white"/>
<stop offset="0.0436152" stop-color="#B4B4B4"/>
<stop offset="0.1507"/>
<stop offset="0.1714" stop-color="#171717"/>
<stop offset="0.3859" stop-color="white"/>
<stop offset="0.6326" stop-color="#E6E6E6"/>
<stop offset="0.8567" stop-color="#1A1A1A"/>
<stop offset="0.9987"/>
</linearGradient>
<linearGradient id="paint10_linear" x1="949.061" y1="771.441" x2="861.231" y2="589.954" gradientUnits="userSpaceOnUse">
<stop stop-color="white"/>
<stop offset="0.0436152" stop-color="#B4B4B4"/>
<stop offset="0.1507"/>
<stop offset="0.1714" stop-color="#171717"/>
<stop offset="0.3859" stop-color="white"/>
<stop offset="0.6326" stop-color="#E6E6E6"/>
<stop offset="0.8567" stop-color="#1A1A1A"/>
<stop offset="0.9987"/>
</linearGradient>
<linearGradient id="paint11_linear" x1="947.818" y1="753.131" x2="881.291" y2="615.657" gradientUnits="userSpaceOnUse">
<stop stop-color="white"/>
<stop offset="0.0436152" stop-color="#B4B4B4"/>
<stop offset="0.1507"/>
<stop offset="0.1714" stop-color="#171717"/>
<stop offset="0.3859" stop-color="white"/>
<stop offset="0.6326" stop-color="#E6E6E6"/>
<stop offset="0.8567" stop-color="#1A1A1A"/>
<stop offset="0.9987"/>
</linearGradient>
</defs>
</svg>
