<?xml version="1.0" encoding="UTF-8"?>
<svg width="640px" height="422px" viewBox="0 0 640 422" version="1.1" xmlns="http://www.w3.org/2000/svg" xmlns:xlink="http://www.w3.org/1999/xlink">
    <title>logo-trustradius</title>
    <defs>
        <linearGradient x1="49.7520205%" y1="100.338189%" x2="49.7520205%" y2="-0.246850394%" id="linearGradient-1">
            <stop stop-color="#116BF2" offset="71%"></stop>
            <stop stop-color="#1E50E5" offset="100%"></stop>
        </linearGradient>
        <linearGradient x1="49.4753608%" y1="100.283354%" x2="49.4753608%" y2="-0.219227932%" id="linearGradient-2">
            <stop stop-color="#116BF2" offset="71%"></stop>
            <stop stop-color="#1E50E5" offset="100%"></stop>
        </linearGradient>
        <linearGradient x1="17.3779057%" y1="18.2834645%" x2="94.5281496%" y2="82.3871631%" id="linearGradient-3">
            <stop stop-color="#116BF2" offset="41%"></stop>
            <stop stop-color="#185DEC" offset="100%"></stop>
        </linearGradient>
        <linearGradient x1="49.9829056%" y1="99.6159068%" x2="49.9829056%" y2="-1.03696273%" id="linearGradient-4">
            <stop stop-color="#116BF2" offset="58%"></stop>
            <stop stop-color="#1E50E5" offset="100%"></stop>
        </linearGradient>
        <linearGradient x1="68.4138848%" y1="44.1973689%" x2="39.6611521%" y2="53.4984745%" id="linearGradient-5">
            <stop stop-color="#59C5FF" offset="3%"></stop>
            <stop stop-color="#21B1FF" offset="99%"></stop>
        </linearGradient>
        <linearGradient x1="24.0579412%" y1="46.2914926%" x2="52.6838235%" y2="55.5107106%" id="linearGradient-6">
            <stop stop-color="#59C5FF" offset="4%"></stop>
            <stop stop-color="#21B1FF" offset="99%"></stop>
        </linearGradient>
        <linearGradient x1="76.5753501%" y1="51.4766817%" x2="35.6812325%" y2="27.8795157%" id="linearGradient-7">
            <stop stop-color="#57C4FF" offset="4%"></stop>
            <stop stop-color="#21B1FF" offset="99%"></stop>
        </linearGradient>
        <linearGradient x1="-0.0160137639%" y1="49.9640909%" x2="99.9992324%" y2="49.9640909%" id="linearGradient-8">
            <stop stop-color="#116BF2" offset="71%"></stop>
            <stop stop-color="#1E50E5" offset="100%"></stop>
        </linearGradient>
        <linearGradient x1="-0.0131238447%" y1="49.9410959%" x2="100.034196%" y2="49.9410959%" id="linearGradient-9">
            <stop stop-color="#116BF2" offset="71%"></stop>
            <stop stop-color="#1E50E5" offset="100%"></stop>
        </linearGradient>
    </defs>
    <g id="Page-1" stroke="none" stroke-width="1" fill="none" fill-rule="evenodd">
        <g id="logo-trustradius">
            <g id="trustradius-vector-logo-3" transform="translate(20.000000, 320.000000)" fill-rule="nonzero">
                <path d="M48.2,0.3 C48.6,0.5 49,0.7 49.3,1 L66.6,18.3 C67.3,19 67.7,19.9 67.7,20.9 L67.7,100.7 C67.7,101.4 67.2,101.9 66.5,101.9 C66.2,101.9 65.9,101.8 65.7,101.6 L49.4,85.3 C48.7,84.6 48.3,83.7 48.3,82.7 L48.3,0.3 L48.2,0.3 Z" id="Path" fill="url(#linearGradient-1)"></path>
                <path d="M95.8,1.1 C96.1,0.8 96.5,0.5 96.9,0.3 L96.9,82.7 C96.9,83.7 96.5,84.6 95.8,85.3 L79.5,101.6 C79,102.1 78.3,102.1 77.8,101.6 C77.6,101.4 77.5,101.1 77.5,100.8 L77.5,21 C77.5,20.1 77.9,19.1 78.6,18.5 L78.6,18.5 L95.8,1.1 L95.8,1.1 Z" id="Path" fill="url(#linearGradient-2)"></path>
                <path d="M127.2,64.5 L126,63.3 L126,46.3 L109.5,46.3 C109.2,46.3 108.9,46.4 108.6,46.7 L108.6,46.7 L96.8,58.5 L134.6,96.4 L134.6,96.4 C135.3,97.1 136.2,97.4 137.2,97.4 L157.1,97.4 C157.8,97.4 158.3,96.9 158.3,96.2 C158.3,95.9 158.2,95.6 158,95.4 L127.2,64.5 Z" id="Path" fill="url(#linearGradient-3)"></path>
                <path d="M98.3,-5.68434189e-14 C97.3,-5.68434189e-14 96.4,0.4 95.7,1.1 L95.7,1.1 L78.4,18.4 L78.4,18.4 C78.1,18.7 77.9,19.1 77.7,19.4 L126,19.4 L126,63.2 L127.2,64.4 L144.4,47.3 C145.1,46.6 145.5,45.7 145.5,44.7 L145.5,21 C145.5,20 145.1,19.1 144.4,18.4 L127.1,1.1 C126.4,0.4 125.5,-5.68434189e-14 124.5,-5.68434189e-14 L98.3,-5.68434189e-14 Z" id="Path" fill="url(#linearGradient-4)"></path>
                <path d="M49.2,1.1 C48.5,0.4 47.6,0 46.6,0 L1.2,0 C0.5,0 0,0.5 0,1.2 C0,1.5 0.1,1.8 0.4,2.1 L16.7,18.4 C17.4,19.1 18.3,19.5 19.3,19.5 L65.3,19.5 C66.6,19.5 67.7,20.6 67.7,21.9 L67.7,21 C67.7,20 67.3,19.1 66.6,18.4 L49.2,1.1 Z" id="Path" fill="url(#linearGradient-5)"></path>
                <path d="M95.7,1.1 C96.4,0.4 97.3,0 98.3,0 L124.5,0 C125.5,0 126.4,0.4 127.1,1.1 L144.4,18.4 C145.1,19.1 145.5,20 145.5,21 L145.5,21.9 C145.5,20.6 144.4,19.5 143.1,19.5 L79.9,19.5 C78.6,19.5 77.5,20.6 77.5,21.9 L77.5,21 C77.5,20 77.9,19.1 78.6,18.4 L95.7,1.1 Z" id="Path" fill="url(#linearGradient-6)"></path>
                <path d="M145.5,43.8 C145.5,45.1 144.4,46.2 143.1,46.2 L110.5,46.2 C110.2,46.2 109.9,46.5 109.9,46.8 C109.9,47 110,47.1 110.1,47.2 L127.3,64.4 L144.5,47.3 C145.2,46.6 145.6,45.7 145.6,44.7 L145.6,43.8 L145.5,43.8 Z" id="Path" fill="url(#linearGradient-7)"></path>
                <path d="M600,65.2 C600,57 595.3,53.9 583.8,51 C576.9,49.3 575.1,47.9 575.1,45.5 C575.1,43.1 577.3,41.5 581.8,41.5 C586.8,41.7 591.6,43 596,45.4 L597.4,36.6 C592.5,34.5 587.2,33.5 581.8,33.5 C571.4,33.5 565.3,38.8 565.3,46.2 C565.3,54.2 569.8,57.2 580.6,59.9 C588.1,61.7 590.2,62.9 590.2,66.1 C590.2,69 587.3,70.8 582.2,70.8 C576.4,70.6 570.7,68.9 565.7,65.7 L564.3,74.6 C569.7,77.3 575.7,78.7 581.7,78.8 C593.7,78.8 600,73.7 600,65.2 Z M559.1,77.9 L559.1,34.1 L548.5,34.1 L548.5,63.8 C545,67.2 541.3,69.4 537.6,69.4 C533.3,69.4 531.5,66.8 531.5,62.9 L531.5,34 L520.9,34 L520.9,65.6 C520.9,73.7 525.4,78.6 534,78.6 C540,78.6 544.9,75.5 549.2,71.6 L550.7,77.7 L559.1,77.9 Z M514.5,77.9 L514.5,34.1 L504,34.1 L504,77.9 L514.5,77.9 Z M509.3,14.9 C512.7,14.9 515.4,17.6 515.4,21 C515.4,24.4 512.7,27.1 509.3,27.1 C505.9,27.1 503.2,24.4 503.2,21 C503.2,17.6 505.9,14.9 509.3,14.9 Z M487.2,63.3 C484.1,67.1 480.7,69.5 476.4,69.5 C471.1,69.5 467.2,65.4 467.2,56.8 C467.2,47.2 471.8,42.5 478,42.5 C481.2,42.4 484.4,43.1 487.2,44.4 L487.2,63.3 Z M497.7,77.9 L497.7,12.8 L487.2,14.6 L487.2,35.7 C483.8,34.6 480.2,34 476.5,34 C465.9,34 456.5,41.2 456.5,57.4 C456.5,72 464.2,78.8 473.8,78.8 C480.2,78.8 484.6,75.6 487.9,71.9 L488.8,77.9 L497.7,77.9 Z M441.6,65.9 C438.6,68.9 434.6,70.6 430.4,70.8 C426.8,70.8 424.5,68.8 424.5,65.7 C424.5,61.5 427.8,57.8 441.7,56.2 L441.7,65.9 L441.6,65.9 Z M452.1,77.9 L452.1,48.1 C452.1,37.8 446.5,33.6 434.9,33.6 C428.8,33.6 422.7,34.8 417.1,37.1 L418.4,45.5 C423.2,43.4 428.4,42.2 433.7,42 C438.7,42 441.7,43.8 441.7,48.5 L441.7,49.9 C423.1,51.7 414.1,56.2 414.1,66.7 C414.1,74.2 419.3,78.7 427.1,78.7 C432.9,78.7 438.4,76.3 442.4,72.2 L443.4,77.8 L452.1,77.8 L452.1,77.9 Z M412.3,76.3 L395.5,53.4 C403.1,51 408.1,45.7 408.1,37.1 C408.1,25.9 400,19.5 386.6,19.5 L368.1,19.5 L368.1,77.9 L379,77.9 L379,55.3 L384.3,55.3 L400.7,78.4 L412.3,76.3 Z M397.2,37.7 C397.2,43.8 392.6,47.1 385.2,47.1 L379,47.1 L379,28.5 L385.8,28.5 C393.3,28.6 397.2,31.9 397.2,37.7 Z M362.6,77.9 L361.3,69.2 C360.1,69.4 358.8,69.5 357.5,69.5 C353.2,69.5 351.5,67.6 351.5,64 L351.5,42.6 L362.6,42.6 L360.8,34.1 L351.5,34.1 L351.5,18.9 L341.1,20.7 L341.1,34.1 L334,34.1 L334,42.6 L341.1,42.6 L341.1,65.7 C341.1,75.5 346.9,78.5 355.6,78.5 C358,78.6 360.3,78.4 362.6,77.9 Z M331.8,65.2 C331.8,57 327.1,53.9 315.6,51 C308.7,49.3 306.9,47.9 306.9,45.5 C306.9,43.1 309.1,41.5 313.6,41.5 C318.6,41.7 323.4,43 327.8,45.4 L329.3,36.6 C324.4,34.5 319.1,33.5 313.7,33.5 C303.3,33.5 297.2,38.8 297.2,46.2 C297.2,54.2 301.7,57.2 312.5,59.9 C320,61.7 322.1,62.9 322.1,66.1 C322.1,69 319.2,70.8 314.1,70.8 C308.3,70.6 302.7,68.9 297.8,65.7 L296.3,74.6 C301.7,77.3 307.7,78.7 313.8,78.8 C325.5,78.8 331.8,73.7 331.8,65.2 Z M291.5,77.9 L291.5,34.1 L280.9,34.1 L280.9,63.8 C277.4,67.2 273.7,69.4 270,69.4 C265.7,69.4 263.9,66.8 263.9,62.9 L263.9,34 L253.3,34 L253.3,65.6 C253.3,73.7 257.8,78.6 266.4,78.6 C272.4,78.6 277.3,75.5 281.6,71.6 L283.1,77.7 L291.5,77.9 Z M248.3,43.8 L245.9,33.5 C239.2,34.7 235.2,38.2 232.1,43.2 L230.1,34.1 L222.2,34.1 L222.2,77.9 L232.5,77.9 L232.5,52.9 C236,47.6 241.9,44.2 248.3,43.8 Z" id="Shape" fill="url(#linearGradient-8)"></path>
                <polygon id="Path" fill="url(#linearGradient-9)" points="228.8 29.2 226.4 19.5 174.7 19.5 174.7 29.2 194.2 29.2 194.2 77.9 205.1 77.9 205.1 29.2"></polygon>
            </g>
            <path d="M59.9165605,7.10542736e-15 L78.431796,37.5159647 L119.833121,43.5319294 L89.8748408,72.7340353 L96.9470314,113.968071 L59.9165605,94.5 L22.8860896,113.968071 L29.9582803,72.7340353 L1.42108547e-13,43.5319294 L41.4013251,37.5159647 L59.9165605,7.10542736e-15 Z M189.916561,7.10542736e-15 L208.431796,37.5159647 L249.833121,43.5319294 L219.874841,72.7340353 L226.947031,113.968071 L189.916561,94.5 L152.88609,113.968071 L159.95828,72.7340353 L130,43.5319294 L171.401325,37.5159647 L189.916561,7.10542736e-15 Z M319.916561,7.10542736e-15 L338.431796,37.5159647 L379.833121,43.5319294 L349.874841,72.7340353 L356.947031,113.968071 L319.916561,94.5 L282.88609,113.968071 L289.95828,72.7340353 L260,43.5319294 L301.401325,37.5159647 L319.916561,7.10542736e-15 Z M449.916561,7.10542736e-15 L468.431796,37.5159647 L509.833121,43.5319294 L479.874841,72.7340353 L486.947031,113.968071 L449.916561,94.5 L412.88609,113.968071 L419.95828,72.7340353 L390,43.5319294 L431.401325,37.5159647 L449.916561,7.10542736e-15 Z M579.916561,7.10542736e-15 L598.431796,37.5159647 L639.833121,43.5319294 L609.874841,72.7340353 L616.947031,113.968071 L579.916561,94.5 L542.88609,113.968071 L549.95828,72.7340353 L520,43.5319294 L561.401325,37.5159647 L579.916561,7.10542736e-15 Z" id="Combined-Shape-Copy-2" fill="#FEC51A"></path>
        </g>
    </g>
</svg>